<?xml version="1.0" encoding="utf-8"?>
<!-- Generator: Adobe Illustrator 25.2.3, SVG Export Plug-In . SVG Version: 6.00 Build 0)  -->
<svg version="1.1" id="Capa_1" xmlns="http://www.w3.org/2000/svg" xmlns:xlink="http://www.w3.org/1999/xlink" x="0px" y="0px"
	 viewBox="0 0 859.2 1100" style="enable-background:new 0 0 859.2 1100;" xml:space="preserve">
<style type="text/css">
	.st0{fill:#FFE268;}
	.st1{fill:none;stroke:#0F2633;stroke-width:1.38;stroke-miterlimit:10;}
	.st2{fill:none;stroke:#0F2633;stroke-width:1.21;stroke-miterlimit:10;}
	.st3{fill:#0F2633;}
	.st4{fill:none;stroke:#0F2633;stroke-width:1.46;stroke-miterlimit:9.9998;}
	.st5{fill:none;stroke:#0F2633;stroke-width:1.46;stroke-miterlimit:10;}
	.st6{fill:#46758F;}
	.st7{fill:#E54754;}
	.st8{fill:#9BC9DD;}
	.st9{fill:none;stroke:#46758F;stroke-width:3;stroke-miterlimit:10;}
	.st10{fill:none;stroke:#E54754;stroke-width:3.8707;stroke-miterlimit:10;}
	.st11{fill:#F29AA8;}
	.st12{fill:none;stroke:#0F2633;stroke-width:0.8162;stroke-miterlimit:10;}
	.st13{fill:#BAE3FA;}
	.st14{fill:#97303C;}
	.st15{fill:none;stroke:#0F2633;stroke-width:1.11;stroke-miterlimit:10;}
	.st16{fill:none;stroke:#0F2633;stroke-width:0.87;stroke-miterlimit:10;}
	.st17{fill:none;stroke:#0F2633;stroke-width:2.41;stroke-miterlimit:10;}
	.st18{fill:none;stroke:#0F2633;stroke-width:2;stroke-miterlimit:10;}
	.st19{fill:none;stroke:#0F2633;stroke-width:0.9;stroke-miterlimit:10.0002;}
	.st20{fill:none;stroke:#0F2633;stroke-width:0.9;stroke-miterlimit:9.9998;}
	.st21{opacity:0.5;fill:#9BC9DD;enable-background:new    ;}
	.st22{opacity:0.7;fill:#FFE268;enable-background:new    ;}
	.st23{fill:none;stroke:#47768E;stroke-width:1.67;stroke-miterlimit:10;}
	.st24{fill:#47768E;}
	.st25{fill:none;stroke:#47768E;stroke-width:1.84;stroke-miterlimit:10;}
	.st26{fill:#FFFFFF;}
	.st27{font-family:'ArialMT';}
	.st28{font-size:16.83px;}
	.st29{fill:#050F15;}
	.st30{fill:none;stroke:#0F2633;stroke-width:0.9;stroke-miterlimit:10;}
	.st31{fill:none;stroke:#46758F;stroke-linecap:round;stroke-linejoin:round;}
	.st32{fill:none;stroke:#46758F;stroke-linecap:round;stroke-linejoin:round;stroke-dasharray:2.98,2.98;}
	.st33{fill:none;stroke:#0F2633;stroke-width:2;stroke-linecap:round;stroke-linejoin:round;}
	.st34{fill:none;stroke:#46758F;stroke-width:4.23;stroke-miterlimit:10;}
	.st35{fill:none;stroke:#9BC9DD;stroke-width:0.74;stroke-miterlimit:10;}
	.st36{fill:none;stroke:#9BC9DD;stroke-width:0.83;stroke-miterlimit:10;}
</style>
<g id="Capa_2_1_">
	<g id="Strokes">
		<path class="st0" d="M384.6,110.6c9.8,0,17.3,7.1,16.8,15.8s-7.8,15.6-16.2,15.1c-8.7-0.6-15.7-7.3-16.9-15.9
			C367.4,117.2,374.7,110.5,384.6,110.6z"/>
		<path class="st1" d="M382.3,82.3c23.3-0.7,42.7,16.7,43.4,39c0.7,22.3-17.6,40.9-40.9,41.6s-42.7-16.8-43.4-39"/>
		<path class="st2" d="M354.7,100.1c14.3-14.3,37-15,52.2-1.6c0.5,0.5,1.1,1,1.6,1.5c13.3,13.3,13.2,34.9-0.1,48.1"/>
		
			<ellipse transform="matrix(0.9995 -3.144972e-02 3.144972e-02 0.9995 -3.7461 10.7827)" class="st3" cx="340.9" cy="124.5" rx="4.7" ry="4.5"/>
		
			<ellipse transform="matrix(0.9995 -3.144972e-02 3.144972e-02 0.9995 -4.4548 12.9204)" class="st3" cx="408.5" cy="148.1" rx="2.5" ry="2.4"/>
		
			<ellipse transform="matrix(0.9995 -3.144972e-02 3.144972e-02 0.9995 -3.7468 12.1354)" class="st4" cx="383.9" cy="125.2" rx="20.4" ry="19.4"/>
		<path class="st3" d="M392.3,119.7c-0.9,0.5-1.8,1.1-2.8,1.5l-0.2-1.7c1.1,0.3,2.2,0.6,3.2,1c0.6,0.2,1.1,0.5,1.6,0.6
			c0.5,0.3,1,0.6,1.5,0.9c-0.6,0-1.2,0-1.8,0.1c-0.6,0-1.1-0.1-1.7-0.1c-1.1-0.2-2.2-0.4-3.3-0.7l-2.5-0.6l2.4-1.1
			c1-0.4,2-0.8,3-1.1c1.1-0.3,2.1-0.6,3.2-0.7C394.1,118.5,393.2,119.1,392.3,119.7z"/>
		<path class="st3" d="M377.8,119.1c1,0.3,1.9,0.5,2.8,0.9l2.1,0.8l-2.2,0.7c-1,0.4-2.1,0.7-3.1,0.9c-1,0.1-2.1,0.3-3.2,0.3
			c0.9-0.7,1.8-1.3,2.7-1.7c1-0.4,2-0.9,3-1.2v1.6c-0.9-0.4-1.8-0.8-2.6-1.3c-0.8-0.5-1.7-1-2.5-1.7
			C375.9,118.5,376.9,118.6,377.8,119.1z"/>
		<path class="st5" d="M390.9,132.2c0,3-2.4,5.6-5.5,5.6c-3.1,0.1-5.8-1.8-5.9-4.8L390.9,132.2z"/>
		<path class="st6" d="M744.4,184.1"/>
		<path class="st7" d="M717.8,88.6c0.1-4.3-4-7.9-8.2-7.7c-4.4,0.2-7.8,3.8-7.7,8.2c-0.1,4.3,4,7.9,8.2,7.7
			C714.4,96.7,717.8,93,717.8,88.6z"/>
		<path class="st0" d="M470.8,332.7c0-5.4-5.1-9.8-10.3-9.7c-5.5,0.3-9.8,4.8-9.7,10.3c0,5.4,5.1,9.8,10.3,9.7
			C466.6,342.7,470.9,338.1,470.8,332.7z"/>
		<path class="st0" d="M631.3,1019.1c6.9-0.2,11.9-6,11.9-12.7c-0.1-3.2-1.5-6.4-3.9-8.6c-2.4-2.2-5.5-3.4-8.8-3.3
			c-6.9,0.2-11.8,6-11.9,12.7C618.8,1014,624.5,1019.4,631.3,1019.1L631.3,1019.1z"/>
		<path class="st6" d="M227.4,285.3"/>
		<path class="st8" d="M235.9,285c0.2-4.7-4.3-8.5-8.8-8.3c-4.6,0.2-8.3,4.2-8.2,8.9c-0.2,4.7,4.3,8.5,8.8,8.3
			C232.4,293.7,236,289.7,235.9,285z"/>
		<path class="st0" d="M608.6,543.2c1.4-1,2.3-2.7,2.5-4.4c0-1.9-0.5-3.5-1.5-4.9l0,0c-2.3-2.8-6.5-3.3-9.3-1
			c-1.4,1.2-2.3,2.8-2.5,4.5c-0.1,0.9,0,1.9,0.3,2.6c0.2,0.9,0.7,1.7,1.2,2.3c1,1.4,2.7,2.3,4.4,2.5
			C605.4,545,607.1,544.5,608.6,543.2z"/>
		<path class="st0" d="M565.6,541c1.7,0.2,3.5-0.4,4.8-1.5c1.4-1,2.3-2.7,2.5-4.4c0.1-0.9,0-1.9-0.3-2.6c-0.2-0.9-0.7-1.7-1.2-2.3
			l0,0c-2.3-2.8-6.5-3.3-9.3-1c-1.4,1.2-2.3,2.8-2.5,4.5c0,1.7,0.5,3.4,1.5,4.8C562.2,539.9,563.8,540.8,565.6,541L565.6,541z"/>
		<path class="st0" d="M532.6,535.6c1.4-1,2.3-2.7,2.5-4.4c0-1.9-0.5-3.5-1.5-4.9l0,0c-2.3-2.8-6.5-3.3-9.3-1
			c-1.4,1.2-2.3,2.8-2.5,4.5c0,1.7,0.5,3.4,1.5,4.8c1,1.4,2.7,2.3,4.4,2.5S531,536.7,532.6,535.6z"/>
		<g>
			<line class="st9" x1="146.8" y1="777.4" x2="153.2" y2="981.6"/>
			<path class="st6" d="M159.7,867.4"/>
			<path class="st7" d="M164,867.2L164,867.2c-0.1-2.4-2-4.2-4.4-4.2c-2.4,0.1-4.2,2-4.2,4.4s2,4.2,4.4,4.2
				C162.2,871.5,164,869.6,164,867.2z"/>
			<path class="st6" d="M139.7,826.1"/>
			<path class="st7" d="M144,826L144,826c-0.1-2.4-2-4.2-4.4-4.2c-2.4,0.1-4.2,2-4.2,4.4c0.1,2.4,2,4.2,4.4,4.2
				C142.3,830.2,144.1,828.3,144,826z"/>
			<path class="st6" d="M147.5,786.2c3.8-0.2,7.2-1.8,9.9-4.5c1.6-1.8,2.8-3.9,3.4-6.3l0.4-3.8c-0.5-7.8-6.9-13.8-14.6-13.7
				c-3.7,0.2-7.2,1.8-9.9,4.5c-1.6,1.8-2.9,3.9-3.4,6.3l-0.4,3.8C133.3,780.2,139.8,786.2,147.5,786.2L147.5,786.2z"/>
			<path class="st6" d="M149.6,865.3c-11.2-8.3-24.3-27.5-24.3-27.5s16.3,0.2,23.9,14.7L149.6,865.3z"/>
			<path class="st6" d="M148.6,901.1c10.2-8.5,21.5-27.7,21.5-27.7s-15.6,1.3-21.9,15.5L148.6,901.1z"/>
			<path class="st6" d="M147.5,834.1c10.2-8.5,21.5-27.7,21.5-27.7s-15.6,1.3-21.9,15.5L147.5,834.1z"/>
		</g>
		<path class="st10" d="M651,593.4l-45.2-14.9c-15.9,5.3-32.5,7.1-49.1,5.3c-46.4-4.7-81.5-33.8-78.3-65s43.4-52.6,89.8-47.8
			c46.4,4.7,81.5,33.8,78.3,65c-1,8.6-4.6,16.7-10.5,23.2L651,593.4z"/>
		<path class="st7" d="M502.5,486.6c-8.3,4-15.3,10.2-20.3,17.9c-2.6,3.8-4.6,7.8-6.2,12.1c-0.8,2.1-1.4,4.2-1.9,6.3
			c-0.5,2-0.7,4.1-0.8,6.3c0,8.7,2.6,17,7.7,24.2c2.5,3.7,5.5,7.1,8.7,10.1c3.3,3.1,6.8,5.9,10.6,8.5c7.6,5.1,15.8,9.1,24.5,12.2
			c4.3,1.6,8.7,2.9,13.2,4c4.5,1,9.1,1.8,13.6,2.4c9.1,1.1,18.4,1.6,27.6,1.5c9.4-0.2,18.8-1,28.1-2.2l0,0l0.7-0.2l0.6,0.2l49.4,16
			l-2.6,2.9l-16.5-37l3.8-1.8l16.5,37l1.9,4.2l-4.5-1.5l-49.4-16h1.3l0,0c-8.9,4.9-18.5,8.1-28.6,9.5c-10.1,1.4-20.3,1.5-30.4,0.1
			c-20.1-2.8-39.8-9.4-56.7-21.6c-4.3-2.9-8.2-6.3-11.8-10c-3.7-3.7-6.9-7.9-9.6-12.4c-2.7-4.6-5-9.5-6.3-14.7
			c-1.5-5.2-2-10.6-1.4-16.1c0.1-0.7,0.1-1.3,0.2-2l0.3-2c0.3-1.4,0.7-2.7,1-3.9c0.7-2.5,1.7-5,2.8-7.4c2.2-4.7,5-9.2,8.1-13.2
			c6.3-8.2,14.9-14.2,24.8-17.4L502.5,486.6z"/>
		<path class="st3" d="M636.2,887.4c-5.4,5.3-11.7,9.6-18.5,12.8s-14,5.4-21.5,6.7c-14.9,2.5-30.2,1.4-44.9-1.4
			c-14.7-2.9-29.1-7.3-43-13s-27.4-12.1-40.5-19.4s-25.9-15.2-38.2-23.8c-3.1-2.1-6-4.3-9.1-6.5l-4.5-3.3l-1-0.8
			c-0.3-0.2-0.6-0.4-1-0.5c-0.8-0.3-1.6-0.3-2.4-0.2c-1.8,0.2-3.5,0.6-5.2,1.3c-1.8,0.7-3.5,1.4-5,2.3c-3.3,1.7-6.5,3.6-9.6,5.6
			c-6.3,4-12.3,8.3-18.4,12.7L355.2,873c-6.2,4.3-12.2,8.6-18.6,12.6c-6.4,4.1-12.9,7.8-19.6,11.1h-0.1h-0.1c-1.7,0-3.3-0.5-4.6-1.5
			c-1.3-0.9-2.5-1.9-3.5-3.2c-1-1.2-1.9-2.4-2.7-3.8c-0.8-1.3-1.5-2.7-2.1-4.1l0,0l-0.1-0.2l0.2-0.2c3.9-4.7,8-9.2,12.3-13.5
			s8.6-8.6,13.2-12.6c9.2-8.1,18.7-15.6,28.8-22.4c10-6.9,20.5-13.2,31.4-18.6c5.4-2.9,10.9-5.3,16.6-7.7l4.2-1.7
			c0.4-0.1,0.6-0.2,1.2-0.4c0.4-0.1,0.8-0.2,1.3-0.2c0.8,0,1.6-0.1,2.4-0.1c3.1,0.1,6.2,0.4,9.2,0.8c12.1,1.7,24,4,35.9,6.5
			s23.8,5.1,35.7,7.6l35.6,7.9c5.9,1.3,11.9,2.6,17.8,3.8c3,0.6,6,1.1,9,1.7c2.9,0.6,5.9,1.1,9,1.5l0.9,0.1l-0.6,0.6l0,0
			c-0.8,0.6-1.4,1.4-1.9,2.4c-0.5,0.9-0.9,1.8-1.2,2.8c-0.6,2-0.7,4.1-0.4,6.2c0.6,4.2,2.3,8.2,4.6,11.8
			c4.7,7.2,10.8,13.3,18.1,17.8c7.2,4.7,15.2,7.9,23.5,9.6c8.5,1.6,17.2,1.4,25.4-0.8l0.2,0.8c-8.3,2.2-17.1,2.4-25.7,0.8
			c-8.6-1.6-16.7-5-23.9-9.8c-7.4-4.7-13.6-10.8-18.4-18c-2.4-3.6-3.9-7.8-4.7-12.1c-0.3-2.2-0.1-4.4,0.4-6.5c0.3-1.1,0.7-2.1,1.3-3
			c0.7-0.9,1.3-1.7,2.1-2.6l0,0l0.2,0.8c-6.1-0.6-12.2-1.6-18.1-2.7c-5.9-1.1-12-2.2-17.9-3.4l-35.6-7.3c-11.9-2.5-23.8-5-35.6-7.4
			c-6-1.2-12-2.3-17.9-3.4c-5.9-1.1-11.9-2.1-17.9-2.9c-3-0.3-6-0.7-8.9-0.8c-0.7,0-1.4,0-2.1,0.1c-0.3,0-0.6,0-0.9,0.1
			c-0.1,0-0.6,0.2-0.9,0.3l-4.1,1.7c-5.5,2.4-11.1,4.8-16.5,7.5c-2.8,1.3-5.4,2.7-8.1,4.2s-5.2,2.9-7.9,4.4
			c-5.2,3.1-10.4,6.2-15.4,9.6c-10.1,6.7-19.8,14-28.9,21.9c-4.6,3.9-9.1,8-13.4,12.2c-4.4,4.2-8.6,8.6-12.5,13.2l0.1-0.4l0,0
			c0.6,1.4,1.3,2.8,2.1,4c0.7,1.3,1.7,2.5,2.6,3.7s2.1,2.1,3.3,3c1.2,0.9,2.6,1.3,4.1,1.3l0,0h-0.2c6.6-3.5,13-7.3,19.1-11.5
			c6.2-4.1,12.3-8.4,18.4-12.8l18.1-13.2c6.1-4.4,12.1-8.8,18.4-12.9c3.1-2.1,6.4-4,9.7-5.8c1.8-0.9,3.4-1.7,5.2-2.4
			c1.8-0.8,3.7-1.2,5.7-1.5c1.1,0,2.2,0,3.2,0.3c0.5,0.2,1,0.5,1.5,0.8l1.1,0.9l4.5,3.4c3.1,2.2,6,4.4,9.1,6.5
			c12.2,8.5,24.8,16.4,37.9,23.7c13,7.3,26.5,13.8,40.3,19.4c13.8,5.7,28,10,42.6,13.1c14.6,2.8,29.6,4,44.4,1.6
			c7.3-1.1,14.5-3.3,21.2-6.4c6.8-3.1,13-7.3,18.4-12.4L636.2,887.4z"/>
		<path class="st7" d="M587.2,863.7c6.5,4.8,44.2,38.2,53.9,11.8c15.8-53.5,14.6-39,29.9-56.5c17.2-23.3,12.7-33.2,3-45.7
			c-6.3-8.1-17.3-6.3-26.2-1.7c-5.7,2.8-11,8.5-15.9,15.5c-6.3,8.9-13.7,16.9-22,24c-2.4,2.2-5,4.1-7.4,5.9c1-0.3,2.1-0.7,3.2-1
			c0.5-0.9,1.5-1.5,2.6-1.6c0.3,0,0.6,0,0.9,0c0.3-0.1,0.5-0.1,0.8-0.1l0,0l0.3-0.1c0.3,0,0.6-0.1,0.9-0.2c0.6-0.2,1.1-0.4,1.7-0.7
			l0.4-0.2c0.2,0,0.2,0,0.2,0c0.1-0.1,0.3-0.1,0.4-0.2c0.2-0.7,0.7-1.3,1.2-1.6c2-1,4.1-1.6,6.1-2.2c0.5-0.2,1.1-0.2,1.6-0.1
			c0.5-0.7,1.4-1,2.2-1.1l0,0c1.6-0.8,3.1-1.8,4.6-2.7c0.1,0.2,0.2,0.2,0.4,0.2c0.5,0,0.9-0.1,1.4-0.2c0.5-0.5,1.2-0.7,1.8-0.8
			c0.3-0.2,0.6-0.3,0.9-0.4c0.2-0.2,0.4-0.4,0.5-0.5s0.2-0.1,0.3-0.2c0.4-0.1,0.8-0.2,1.2-0.4c0.2-0.1,0.5-0.3,0.7-0.4
			c0.6-0.1,1.3-0.2,2-0.4c0.6-0.1,1.2-0.4,1.6-0.9l3,0.8c-0.1,0.1-0.1,0.3,0,0.4c0.2,0.4,0.5,0.8,0.9,1.2l0,0
			c0.3-0.2,0.6-0.3,0.9-0.4l0,0c-0.1,1.3,1.1,2.2,1.9,2.9c0.3,0.4,0.7,0.8,1.1,1.2c0.1,0.1,0.2,0.1,0.3,0.2c-0.5,0.5-1,1.2-1.4,1.7
			c-0.4,0.2-0.7,0.3-1.1,0.5c-0.4,0.1-0.7,0.3-1,0.6c-0.2,0.1-0.3,0.2-0.5,0.2c-0.4,0.1-0.9,0.3-1.2,0.7l0,0c-0.2,0-0.3,0-0.4,0
			c-0.4,0.2-0.9,0.3-1.3,0.3h-0.5H641c-5,3.7-10.7,5.8-16.5,7.5c0.3,1.9-20.9,8.2-21.4,8c-0.2,0.3-0.5,0.6-0.8,0.8
			c-1.8,1.8-18.6,4.2-18.8,3.9c-4.7-0.2-4.8,1.3-5.7,1.1c-1.5,1-2.5,2.4-3.3,3.9C570.8,845.6,578.8,857.9,587.2,863.7z"/>
		<path class="st11" d="M646.5,792.6c7.4-2,21.8-23.6,25.1-13.4c5.7,7.3-5.5,29.7-13.5,33.1c-1.1,0.6-2.8-0.1-3.5-1.4
			c-3.8-6.6-6.9-12.4-9.1-16.4C645,793.9,645.5,793.1,646.5,792.6z"/>
		<path class="st7" d="M678.2,762.9c24.6,8.4,29.3-11.6,29.3-11.6s-3.1,12.4-24.1,3.4L678.2,762.9z"/>
		<circle class="st6" cx="669.9" cy="707.6" r="3.2"/>
		<path class="st7" d="M675.5,691.5c3.8-0.3,9,3.2,11.3,4.9c0.3,0.3,1,0.2,0.9-0.2c-1.4-5.2-12.9-8.5-16.1-6.5
			C671.5,689.7,670.6,691.8,675.5,691.5z"/>
		<path class="st3" d="M705.2,759.4c-0.9,0.6-1.8,1.5-2.4,2.3c-0.7,0.9-1.4,1.7-2.1,2.7c-1.3,1.7-2.8,3.6-4.1,5.4
			c-1.3,1.8-2.6,3.8-3.8,5.7c-0.6,0.9-1.1,1.9-1.7,3c-0.3,0.5-0.6,1-0.8,1.5c-0.1,0.3-0.2,0.6-0.3,0.8c0,0.1-0.1,0.2-0.1,0.3
			s0,0.1,0,0.1l0,0v-0.1c-0.1-0.4-0.4-0.7-0.8-0.7v1.7c-0.5,0-0.9-0.3-0.9-0.8c0,0,0-0.1,0-0.2V781c0-0.1,0.1-0.2,0.1-0.3
			c0.1-0.2,0.1-0.2,0.2-0.5c0.1-0.3,0.3-0.5,0.4-0.8c0.3-0.5,0.6-1,0.9-1.5c0.6-1,1.1-2,1.7-3.1c1.1-2,2.4-4.1,3.6-6
			c1.2-1.9,2.7-3.9,4.2-5.6c0.8-0.9,1.6-1.8,2.5-2.5c1-0.8,2.1-1.5,3.2-1.8L705.2,759.4z"/>
		<path class="st3" d="M684,754.9c-0.5,0.5-1.1,1.1-1.5,1.8c-0.5,0.7-1,1.3-1.4,2c-1,1.3-1.8,2.8-2.7,4.2s-1.6,2.9-2.5,4.3l-1.2,2.1
			c-0.4,0.7-0.8,1.4-1,2.1l-1.1-0.5c0.2-0.4,0.4-0.7,0.7-1.1l0.7-1l1.3-2c0.9-1.4,1.8-2.9,2.7-4.2s1.7-2.8,2.6-4.2
			c0.5-0.7,0.8-1.5,1.2-2.2s0.9-1.3,1.4-2L684,754.9z"/>
		<path class="st3" d="M578.3,828.4c-1.6,0.7-3.1,1.6-4.4,2.5c-1.4,0.8-2.6,2-3.6,3.3c-1.9,2.7-2.3,6.2-2,9.5
			c0.3,3.4,1.2,6.7,2.5,9.7c1.4,3.1,3,6.1,4.9,8.9c1.9,2.8,4,5.5,6.4,7.9c1.1,1.2,2.4,2.4,3.6,3.5c1.2,1.1,2.7,2.1,4,3.1
			c5.5,3.8,11.6,6.9,18,9c3.2,1.1,6.5,1.9,9.8,2.4s6.6,0.6,9.9,0.2c3.2-0.3,6.3-1.5,8.9-3.4c2.6-1.8,4.8-4.3,6.3-7.1
			s2.3-6.1,2.6-9.3c0.4-3.4,1.1-6.8,2.1-10.2c1.9-6.7,4.8-13.1,8.5-19c3.6-5.8,8-11.3,12.9-16.2c2.3-2.5,4.9-4.9,7.3-7.1
			c0.6-0.5,1-1,1.3-1.6c0.5-0.6,1-1.3,1.3-2c0.9-1.4,1.7-2.9,2.5-4.3c1.6-2.9,2.9-5.8,3.9-8.9c1-2.9,1.4-6.1,1.4-9.2
			c-0.1-3.1-0.8-6.1-2.2-8.8c-1.5-2.9-3.4-5.4-5.6-7.6c-1.1-1.2-2.4-2.3-3.6-3.4c-1.1-1.1-2.5-1.9-3.8-2.7c-2.7-1.5-5.8-2.4-8.9-2.7
			c-3.1-0.3-6.4,0-9.5,0.9s-6.1,2.2-8.9,4c-1.4,0.8-2.7,1.8-4,2.8c-1.5,1.1-3,2-4.7,2.6c-3.3,1.3-6.6,1.8-9.3,3.7
			c-2.6,1.9-3.7,5.2-4,8.4c-0.1,1.7-0.1,3.3,0,5c0,0.8,0.2,1.7,0.2,2.5c-0.1,1,0.3,1.9,1,2.5l-2.4,0.4c0.5-0.7,0.5-1.7,0.3-2.6
			c-0.1-0.9-0.3-1.7-0.3-2.6c-0.2-1.8-0.2-3.5-0.1-5.2c0.1-1.7,0.5-3.5,1.1-5.1c0.7-1.6,1.8-3.2,3.3-4.3c1.5-1,3-1.9,4.7-2.4
			c1.7-0.6,3.3-1.1,4.7-1.8c1.5-0.6,2.9-1.5,4-2.5c1.4-1.1,2.7-2.2,4.1-3.2c2.8-2,6-3.7,9.4-4.8c3.5-1.1,7.1-1.6,10.7-1.5
			c3.7,0.1,7.3,1.1,10.6,2.7c1.6,0.8,3.2,1.9,4.6,3.1c1.2,1.1,2.7,2.2,3.9,3.5c2.7,2.4,4.9,5.3,6.6,8.6c1.7,3.3,2.6,7,2.7,10.7
			c0,3.6-0.6,7.3-1.7,10.8s-2.6,6.7-4.3,9.7c-0.9,1.5-1.7,3.1-2.7,4.5c-0.5,0.7-1,1.4-1.4,2.1l-0.4,0.5l-0.2,0.3l-0.3,0.4
			c-0.4,0.4-0.7,0.8-1.1,1.1c-1.3,1.2-2.5,2.3-3.8,3.5s-2.5,2.4-3.7,3.5c-4.8,4.7-9.1,9.8-12.8,15.3s-6.6,11.5-8.6,17.9
			c-1,3.1-1.8,6.4-2.3,9.7c-0.4,3.6-1.5,7.1-3.1,10.2c-1.7,3.2-4.2,5.9-7.2,7.9c-1.5,1-3.1,1.9-4.8,2.5s-3.5,0.9-5.3,1.1
			c-3.5,0.3-7,0.1-10.4-0.6c-3.4-0.6-6.8-1.5-10-2.7c-6.5-2.4-12.6-5.6-18.1-9.6c-1.3-1-2.8-2-4-3.2s-2.5-2.3-3.6-3.6
			c-2.3-2.4-4.5-5.2-6.4-8s-3.6-5.9-4.9-9.1c-1.4-3.2-2.3-6.5-2.7-9.9c-0.2-1.7-0.1-3.5,0.1-5.2c0.2-1.8,0.9-3.4,1.8-5
			c1.1-1.5,2.2-2.8,3.6-3.9c1.3-1.1,2.6-2.2,4-3.3L578.3,828.4z"/>
		<path class="st3" d="M622.2,798c-2,3.4-4.8,5.7-7.7,7.9c-2.8,2.3-5.8,4.6-8.7,6.7c-3,2.1-6.1,4-9.3,5.8c-1.6,0.8-3.3,1.5-4.9,2.3
			c-0.8,0.3-1.7,0.7-2.5,1.1c-0.5,0.1-0.9,0.3-1.3,0.5l-0.6,0.3h-0.5c-0.1,0.1-0.2,0-0.1,0.5L586,822c0.4,0.4,0.4,0.2,0.5,0.2
			l0.3-0.2l0.6-0.4c0.4-0.2,0.8-0.5,1.2-0.7c0.8-0.5,1.5-1,2.3-1.6c1.5-1,2.9-2.1,4.5-3c3.1-1.9,6.3-3.6,9.5-5.3s6.4-3.5,9.3-5.6
			c1.5-1,2.8-2.3,4.1-3.5s2.2-2.8,2.8-4.5L622.2,798z"/>
		<path class="st3" d="M639.2,793.5c1-0.8,2.1-1.6,3-2.3c2.1-1.5,4.1-2.9,6.2-4.3c4.1-2.8,8.5-5.4,13-7.7c2.3-1.2,4.6-2.1,7-2.9
			c1.3-0.3,2.6-0.7,3.9-0.8c1.4-0.2,2.8-0.1,4.1,0.4c0.7,0.3,1.3,0.7,1.8,1.2c0.3,0.3,0.5,0.6,0.7,0.9s0.3,0.7,0.5,1
			c0.4,1.4,0.6,2.8,0.4,4.2c-0.3,2.6-1.1,5.1-2.4,7.5c-2.3,4.6-5,8.9-8.2,12.9c-3,4-6.4,7.8-9.7,11.5l-1.3,1.3l-0.3,0.3
			c-0.1,0.1-0.2,0.2-0.4,0.4c-1.1,0.9-2.7,1.2-4.1,0.6c-0.5-0.2-0.9-0.5-1.2-0.9c-0.1-0.1-0.3-0.3-0.4-0.5l-0.3-0.4
			c-1.5-2.1-2.8-4.2-4.2-6.3c-2.8-4.1-5.6-8.3-8.6-12.3C637.9,796,638,794.3,639.2,793.5z M639.5,796.8c3,4,6.2,7.8,9.4,11.7
			c1.7,1.9,3.2,3.9,4.8,5.9l0.3,0.4c0.1,0.1,0.1,0.1,0.2,0.2c0.1,0.1,0.3,0.1,0.4,0.2c0.2,0.1,0.5,0.1,0.8,0c0.2,0,0.3-0.1,0.4-0.2
			l0.3-0.2l0.3-0.3l1.3-1.3c3.4-3.6,6.7-7.4,9.7-11.3c3.1-3.8,5.9-7.9,8.2-12.3c1.1-2,2-4.4,2.4-6.7c0.2-1,0.1-2.1-0.2-3.2
			c-0.3-1-1.1-1.8-2-2.1c-1.1-0.4-2.2-0.5-3.3-0.4c-1.2,0-2.4,0.3-3.6,0.6c-2.4,0.7-4.7,1.5-6.9,2.6c-4.4,2.1-8.8,4.6-13,7.3
			c-2.1,1.4-4.1,2.7-6.2,4.2c-1.1,0.7-2.1,1.5-3,2.2C639,794.7,638.8,795.9,639.5,796.8L639.5,796.8z"/>
		<path class="st3" d="M635.1,887l-3.1,1.3c-1.1,0.4-2.1,0.8-3.2,1s-2.2,0.4-3.3,0.6c-4.4,0.6-8.9,0.5-13.2-0.4
			c-8.7-1.8-16.9-5.6-23.9-11c-7.2-5.2-13.1-12-17.1-19.9c-2-3.9-3.3-8.3-3.6-12.7s0.5-8.9,2.6-12.9l0.6,0.5l0,0
			c-1.8,1.6-3.2,3.4-4.3,5.4s-1.9,4.2-2.1,6.5c-0.3,4.6,0.7,9.2,2.9,13.2s4.9,7.8,8.3,11.1c3.3,3.4,6.8,6.4,10.7,9.1
			c7.6,5.5,16.2,9.3,25.3,11.4c2.2,0.4,4.5,0.8,6.8,0.9c2.2,0.1,4.5,0.1,6.8-0.3c2.3-0.4,4.5-1.1,6.5-2.1c1-0.5,2-1.2,2.9-1.8
			c0.5-0.3,0.9-0.7,1.4-1c0.1-0.1,0.3-0.3,0.5-0.3c0.3-0.1,0.6-0.2,0.8-0.3C636.7,885.9,635.9,886.4,635.1,887z M638.1,884.8
			c-0.2,0.2-0.3,0.6-0.5,0.7c-0.3,0.4-0.5,0.7-0.8,1c-0.4,0.5-0.8,0.9-1.3,1.3c-0.9,0.9-1.8,1.7-2.9,2.3c-2.2,1.3-4.4,2.2-6.9,2.8
			c-4.9,1.1-9.9,1-14.7,0.1c-4.7-1-9.4-2.5-13.9-4.6c-4.4-2.1-8.5-4.4-12.5-7.3c-3.9-2.9-7.6-6.1-10.9-9.7c-3.3-3.6-6.1-7.6-8.3-12
			c-2-4.4-3.3-9.5-2.5-14.4c0.4-2.4,1.3-4.7,2.6-6.9c1.3-2,3-3.8,4.9-5.4l0,0c0.2-0.1,0.3-0.1,0.5,0s0.3,0.4,0.2,0.6l0,0
			c-2,3.9-2.8,8.2-2.5,12.5s1.6,8.6,3.5,12.4c4,7.8,9.8,14.4,16.8,19.6c7,5.3,15,9,23.6,10.8c4.2,0.9,8.6,0.9,12.9,0.4
			c1.1-0.2,2.2-0.3,3.2-0.6s2.1-0.6,3.1-0.9l3-1.3C635.9,885.6,637,885.2,638.1,884.8L638.1,884.8z"/>
		<path class="st3" d="M679.1,704.5c-0.1-0.7-0.4-1.5-0.9-2.1c-1-1.3-2.4-2.2-3.9-2.7c-1.5-0.6-3.2-0.5-4.6,0.3
			c-1.3,0.9-2.1,2.4-2.4,4c-0.3,1.6-0.2,3.3,0.4,4.8c0.5,1.6,1.9,2.6,3.5,2.7c1.6,0,3.2-0.3,4.6-1.1c1.4-0.7,2.4-2,3-3.5
			C679,706.2,679.1,705.4,679.1,704.5z M676.1,711c-1.5,0.8-3.3,1.3-5,1.2c-0.9-0.1-1.7-0.3-2.4-0.9c-0.7-0.6-1.2-1.4-1.6-2.2
			c-0.7-1.7-0.8-3.4-0.4-5.1c0.2-1.7,1.2-3.3,2.6-4.4c0.7-0.4,1.6-0.8,2.5-0.8s1.8,0,2.6,0.3c1.7,0.5,3.2,1.5,4.3,2.9
			c0.5,0.8,0.9,1.6,1.1,2.5c0.1,0.9,0.1,1.9-0.2,2.7C678.9,708.8,677.8,710.1,676.1,711z"/>
		<path class="st3" d="M711.3,760.8c-0.1-0.5-0.5-1-1-1.3s-1-0.5-1.5-0.6c-1-0.2-2.1,0-3,0.4c-1,0.5-1.8,1.1-2.5,1.8
			c-0.8,0.7-1.5,1.4-2.2,2.3l-0.8-0.7c0.3-0.5,0.6-0.9,1.1-1.3s0.8-0.9,1.3-1.2c0.9-0.8,1.9-1.5,2.9-1.9c1.2-0.5,2.4-0.5,3.5,0.1
			c0.5,0.3,0.9,0.6,1.4,0.9c0.5,0.4,1,0.7,1.6,0.6L711.3,760.8z"/>
		<path class="st3" d="M700.8,760.1c-1.4,0.3-2.7,0.7-4.1,0.8c-2.7,0.3-5.5,0.5-8.2,0.5c-5.5-0.1-10.9-0.7-16.4-1.7
			c-2.7-0.5-5.3-1.2-8-2.2c-1.3-0.5-2.5-1-3.8-1.7s-2.4-1.5-3.4-2.6c-0.4-0.5-0.8-1.2-1.1-1.9s-0.4-1.3-0.6-2
			c-0.1-1.4-0.3-2.8-0.3-4.2c0-2.8,0.1-5.5,0.4-8.2c0.6-5.4,1.7-10.8,2.9-16.1s2.7-10.6,4.3-15.8c1.6-5.3,3.4-10.4,5.4-15.5
			c1-2.5,2.1-5.1,3.4-7.5c1.1-2.6,2.7-5,4.7-7l0.7,0.9c-1.8,2-3.4,4.1-4.5,6.5c-1.2,2.4-2.3,4.9-3.4,7.4c-2.1,5.1-3.9,10.2-5.5,15.4
			s-3.1,10.4-4.3,15.7s-2.3,10.7-2.9,16.1c-0.3,2.7-0.4,5.4-0.4,8.1c-0.1,0.7-0.1,1.3,0.1,2c0,0.7,0.1,1.3,0.3,2
			c0.2,1.3,0.7,2.6,1.5,3.6c1.8,1.8,4.3,3,6.8,3.9c2.6,0.8,5.3,1.5,7.9,2c5.3,0.9,10.8,1.5,16.2,1.5c2.7,0,5.4,0,8.1-0.2
			c1.3,0,2.7-0.2,4-0.4c1.3-0.1,2.7-0.6,3.9-1.1C703.4,759.2,702.1,759.9,700.8,760.1z"/>
		<path class="st12" d="M659.1,716.3c-2.3-0.8-4.7-3.5-6.5,1.9c-0.7,2.4,2.6,6.6,4.9,7.4"/>
		
			<ellipse transform="matrix(0.3143 -0.9493 0.9493 0.3143 -211.4305 1114.2168)" class="st13" cx="665.6" cy="703.5" rx="11.3" ry="2.8"/>
		<path class="st3" d="M669,698.5c0.2-1,0.4-1.9,0.5-2.9c0-0.5,0-0.9,0-1.4c0-0.4-0.1-0.7-0.4-1c-0.2-0.1-0.6,0.1-1,0.4
			c-0.4,0.4-0.7,0.7-1,1.1c-0.6,0.8-1,1.6-1.5,2.5c-0.8,1.8-1.6,3.7-2.1,5.6c-0.5,1.8-1.1,3.8-1.4,5.7c-0.2,0.9-0.2,1.9-0.3,2.9
			c0,0.5,0,0.9,0.1,1.4c0.1,0.3,0.2,0.6,0.4,0.8c0.2-0.1,0.5-0.3,0.7-0.5c0.4-0.4,0.7-0.7,0.9-1.1c0.5-0.8,0.9-1.6,1.3-2.5
			c0.7-1.8,1.4-3.7,2-5.6C667.7,702.1,668.5,700.2,669,698.5z M666.8,710.5c-0.6,0.9-1.1,1.7-1.8,2.6c-0.4,0.5-0.8,0.8-1.2,1.2
			c-0.3,0.2-0.5,0.4-0.8,0.5c-0.4,0.2-0.8,0.2-1.2,0.1c-0.4-0.1-0.6-0.4-0.8-0.8c-0.1-0.3-0.2-0.6-0.2-0.9c-0.1-0.5-0.1-1.1-0.1-1.6
			c0-1.1,0.1-2.1,0.3-3.1c0.3-2,0.9-4,1.5-6s1.5-3.7,2.4-5.6c0.5-0.9,1-1.8,1.6-2.7c0.3-0.5,0.6-0.8,1-1.2c0.2-0.2,0.4-0.4,0.7-0.5
			c0.3-0.2,0.7-0.2,1-0.1c0.3,0.1,0.6,0.4,0.7,0.7c0.2,0.2,0.3,0.5,0.3,0.8c0.1,0.5,0.2,1.1,0.3,1.6c0.1,1,0.1,2.1,0,3.1
			c-0.2,2-0.6,4.1-1.2,6C668.7,706.7,667.8,708.5,666.8,710.5z"/>
		<path class="st7" d="M676,657.8c0-6.2,2.9-11,7.8-14.6c-4.9,2-9.3,4-11.2,9.4c-2.8,7.6,0,13.6,5.9,18.7"/>
		<path class="st14" d="M678.5,671.1c-1.2-1-2.4-1.9-3.4-3.1s-2-2.4-2.6-3.8c-0.6-1.4-1.2-2.9-1.3-4.5c-0.2-1.5-0.1-3.1,0.3-4.6
			c0.7-2.9,2.2-5.8,4.4-7.9c2.2-2.1,4.9-3.7,7.8-4.7l4.5-1.9l-3.9,2.9c-2.3,1.7-4.3,3.7-5.7,6.1c-0.8,1.2-1.3,2.5-1.7,3.9
			s-0.6,2.8-0.8,4.2H676c-0.1-1.4-0.1-2.9,0.2-4.3c0.4-1.4,0.8-2.8,1.5-4.1s1.5-2.5,2.6-3.6s2.1-2,3.4-2.8l0.5,1
			c-2.8,1.2-5.5,2.2-7.9,4c-1.2,0.9-2,2.2-2.7,3.5c-0.6,1.3-1,2.7-1.2,4.2c-0.4,2.9,0,5.9,1.2,8.6c1.3,2.7,3,5.1,5.1,7.2
			L678.5,671.1z"/>
		<path class="st7" d="M690.2,677c-3.7-0.1,0.6,1.4-4.7,1s-16-7.3-14.3-15.5c1.5,2.8,3.8,5.2,5.8,7.6"/>
		<path class="st14" d="M677.3,670.3c-1.1-1.1-2.4-2.2-3.4-3.4c-1.1-1.2-2.1-2.5-2.8-4l0.9-0.1c-0.1,0.6-0.3,1.1-0.2,1.7
			c-0.1,0.6-0.1,1.1,0.1,1.7l0.1,0.9c0.1,0.3,0.2,0.5,0.3,0.8c0.1,0.6,0.4,1.1,0.7,1.6c1.4,2,3,3.6,5,4.8c0.9,0.6,1.9,1.2,3,1.7
			c0.5,0.3,1,0.6,1.5,0.8s1.1,0.4,1.6,0.5l0.8,0.3l0.8,0.1c0.6,0.1,1.1,0.1,1.7,0.1c0.3,0,0.5,0,0.8,0c0.3-0.1,0.1,0.2,0.3-0.4
			c0.1-0.2,0.2-0.2,0.3-0.3s0.2-0.1,0.3-0.1c0.2,0,0.3,0,0.5,0c0.3,0,0.6,0,0.9,0.1v0.1c-0.3,0-0.6,0.1-0.9,0.1
			c-0.3,0-0.7,0.1-0.6,0.2c0,0.2,0,0.4-0.1,0.5c-0.2,0.2-0.4,0.4-0.6,0.4c-0.3,0-0.7,0.1-1,0.1c-0.6,0-1.2,0-1.8,0.1l-0.9-0.1
			l-0.9-0.2c-2.4-0.6-4.6-1.8-6.5-3.3s-3.5-3.4-4.7-5.6c-0.3-0.6-0.5-1.1-0.8-1.7l-0.3-0.8l-0.2-0.9c-0.2-0.6-0.3-1.2-0.4-1.8
			c0-0.7,0-1.3,0-1.9v-1.6l0.8,1.5c0.7,1.4,1.7,2.6,2.6,3.9c0.9,1.3,2,2.5,2.8,3.9L677.3,670.3z"/>
		<path class="st7" d="M688.4,654.5c-0.5-4,0.7-6.3,3.8-8.6c3.5,3.5,2.6,5.3,8.7,5.8c6.1,0.5,15.8,1.6,22.5,2.7
			c-4-1.4-8.9-2.1-11.4-6c9.4,5.5,23.2,2.9,32.6,7.6s11.8,11,13.8,20.3c3-0.2,6.1-0.7,9.1-1.6c-1.5,2.7-3.6,3.8-6.6,4.4
			c3.5,0.4,5.8,2.1,8.2,4.4c-1.1-0.3-5.2,0.4-5-1.1c7.7,8,11.6,16,12.1,27.1c-0.8-2.3-1.2-4.7-3.6-5.8c2.9,7.1,0.1,13.8-3.8,19.5
			c-3.9,5.7-6.5,10.3-8.2,16.9c-1.6-2.3-1.2-3.9,0.7-5.7c-6.2,6.2-13,10.1-13.6,19.5c2.9,6.9,6.4,12.8,12.9,16.6
			c-6.4-1.5-10.4-6.7-14.4-11.5c1.2,4.6,4.1,9.9,6,13.7s3.2,4.6,7,5.4c-9,4.8-17.2,6.1-25.6-0.5c5,4.5,10.3,6,17,5.3
			c-15.7,3.5-28.1-3.4-37.9-15.5c-0.6,2.3-1.2,4.6-1.5,7c-2.1-4.4-2.6-8.8-5.4-13.2c-2.8-4.4,2.3-21.9,5.6-22.3
			c6.7-0.9,6.8,0,9.2-4.5s0.4-8-1.9-11.2c-1.7-2.4-3.8-1.9-4.9,0.3c0.7-5.9,4.2-9,5.6-15.2c1.3-6.4-1.6-13-7.1-16.5
			c1.3,3.5,1.1,6.8,0.3,10.5c-0.9-6.6-4.3-8.4-9.1-12.8s-7.9-11.5-5.7-18.2c-8,1.3-6.2,9.7-15.6,2.6c-9.1-6.9-7.1-21.9,3.1-29
			c0.3-0.2,0.7-0.8,1.2-0.9C684.6,648.2,684.1,651.6,688.4,654.5z"/>
		<path class="st14" d="M686.2,646.5c-0.3,0.9-0.4,1.9-0.3,2.9c0.1,1,0.5,1.9,1.1,2.7s1.3,1.5,2.2,1.9l-0.6,0.3
			c-0.3-1.7-0.1-3.5,0.5-5.1c0.8-1.5,1.9-3,3.4-3.9c0.2-0.2,0.4-0.2,0.6,0l0,0c0.9,1.1,1.9,2.1,2.7,3.3c0.3,0.6,0.8,1,1.3,1.4
			c0.6,0.4,1.2,0.6,1.8,0.7c1.4,0.3,2.7,0.5,4.1,0.6l4.2,0.5c2.7,0.3,5.5,0.6,8.3,1s5.5,0.8,8.3,1.2l-0.1,0.6
			c-2.1-0.7-4.2-1.2-6.4-2c-1.1-0.5-2.1-0.9-3.1-1.6c-0.9-0.7-1.7-1.5-2.4-2.5c-0.1-0.1-0.1-0.3,0-0.5c0.2-0.3,0.5-0.3,0.7-0.2l0,0
			c4.2,2.4,9.2,3.2,14,3.8s9.8,0.9,14.7,2.2c2.4,0.7,4.7,1.9,6.8,3.2c2.2,1.3,4.1,3,5.7,5s2.7,4.3,3.6,6.7c0.8,2.4,1.5,4.8,2,7.2
			l-0.6-0.5c1.5,0,3-0.3,4.5-0.6s2.9-0.7,4.4-1.1c0.2-0.1,0.5,0,0.7,0.1c0.4,0.3,0.6,0.9,0.3,1.3c-0.4,0.7-0.9,1.3-1.3,1.8
			c-0.6,0.6-1.2,1-1.9,1.5c-1.3,0.7-2.7,1.2-4.2,1.3v-1.2c1.6,0.2,3.2,0.8,4.7,1.7c1.3,0.9,2.7,1.9,3.8,3.1c0.1,0.1,0.1,0.3,0.1,0.5
			c-0.1,0.3-0.4,0.6-0.7,0.5l0,0c-0.5-0.1-0.9-0.1-1.3-0.1l-1.4-0.1c-0.5,0-1-0.1-1.5-0.2c-0.3-0.1-0.6-0.2-0.8-0.4
			c-0.3-0.2-0.5-0.7-0.4-1.1l0,0c0.1-0.1,0.1-0.2,0.2-0.3c0.2-0.2,0.6-0.2,0.8,0c3.6,3.7,6.6,7.9,8.8,12.5c2.1,4.7,3.2,9.8,3.4,15
			c0,0.2-0.2,0.4-0.4,0.5c-0.3,0.1-0.6-0.1-0.7-0.4c-0.3-1.1-0.7-2.2-1.2-3.2c-0.4-1-1.3-1.8-2.2-2.2l0.9-0.8
			c1.3,3.2,1.6,6.8,0.8,10.1c-0.9,3.2-2.3,6.4-4.2,9.1c-1.8,2.7-3.6,5.5-5.1,8.4s-2.6,6-3.5,9.1l0,0c0,0.1-0.1,0.2-0.2,0.3
			c-0.2,0.1-0.5,0-0.7-0.2c-0.3-0.5-0.6-1-0.8-1.6s-0.2-1.2-0.2-1.8c0.1-0.6,0.3-1.2,0.6-1.7s0.7-0.9,1.1-1.3c0.2-0.2,0.5-0.2,0.7,0
			s0.2,0.5,0,0.7l0,0c-1.4,1.5-2.8,3-4.3,4.4c-1.4,1.4-2.7,3-4,4.5c-1.2,1.4-2.1,3.2-2.8,4.9s-1.1,3.5-1.2,5.4l-0.1-0.7
			c1.2,3.2,2.7,6.3,4.4,9.4c0.8,1.6,1.9,2.9,3.1,4.2s2.6,2.3,4.1,3.3l0,0c0.1,0.1,0.1,0.2,0.1,0.4c0,0.1-0.2,0.3-0.4,0.2
			c-3.1-0.9-6-2.4-8.4-4.4c-1.2-1-2.4-2-3.5-3.2c-1.1-1.1-2.1-2.3-3.1-3.5l1.6-0.8c0.6,2,1.2,3.9,2,5.6c0.7,1.9,1.5,3.7,2.4,5.5
			c0.8,1.9,1.7,3.6,2.8,5.3c0.6,0.8,1.3,1.5,2.3,1.8s1.8,0.7,2.8,0.9c0.1,0,0.2,0,0.2,0.1l0,0c0.1,0.1,0,0.2-0.1,0.3
			c-4,2.1-8.4,4-13.1,4.2c-2.4,0.2-4.7-0.3-6.9-1c-2.2-0.8-4.3-2-6.2-3.3l1-1.1l0,0c1.9,2.3,4.5,4.1,7.4,5c2.9,0.8,6,1.1,9,0.7
			c0.1,0,0.2,0.1,0.2,0.2c0.1,0.1,0,0.2-0.1,0.2c-3.6,0.8-7.3,1.1-10.9,0.8c-3.6-0.4-7.1-1.3-10.5-2.8c-3.3-1.5-6.4-3.5-9.2-5.8
			c-2.9-2.3-5.4-4.9-7.6-7.8l0.4-0.1c-0.6,2.2-1.2,4.6-1.5,7c-0.1,0.1-0.1,0.2-0.2,0.2l0,0c-0.2,0.1-0.3,0-0.4-0.1
			c-1.3-2.6-2-5.3-3-8c-0.4-1.4-1.1-2.7-1.7-3.8c-0.3-0.7-0.7-1.2-1.1-1.9c-0.3-0.7-0.5-1.4-0.7-2.2c-0.2-2.9,0.1-5.7,0.8-8.5
			c0.6-2.8,1.5-5.6,2.7-8.1c0.3-0.7,0.7-1.3,1-1.9c0.4-0.6,1-1.2,1.7-1.6c0.2-0.1,0.3-0.1,0.4-0.1h0.3l0.5-0.1l1.1-0.1l2.1-0.3
			c0.7,0,1.3-0.1,2-0.4c0.6-0.2,1.1-0.6,1.5-1.1s0.8-1.1,1-1.7c0.3-0.6,0.6-1.2,0.8-1.8c0.5-1.2,0.6-2.6,0.4-3.9
			c-0.2-1.3-0.8-2.6-1.5-3.8c-0.3-0.6-0.7-1.2-1.2-1.8c-0.3-0.5-0.8-1-1.3-1.3s-1.1-0.3-1.6,0.1c-0.6,0.3-1,0.8-1.3,1.3
			c-0.1,0.1-0.3,0.2-0.5,0.2c-0.2-0.1-0.4-0.3-0.4-0.6c0.5-2.9,1.5-5.8,3-8.4c1.4-2.5,2.3-5.3,2.8-8.1c0.3-2.8-0.2-5.7-1.5-8.3
			s-3.2-4.8-5.6-6.3l0.7-0.5c0.7,1.7,1,3.6,1,5.4c0,1.8-0.3,3.6-0.6,5.3c-0.1,0.1-0.2,0.3-0.4,0.3c-0.3,0-0.5-0.2-0.5-0.4
			c-0.1-1.5-0.5-2.9-1.1-4.3c-0.6-1.4-1.5-2.6-2.5-3.6c-2.1-2.1-4.6-4-6.7-6.2c-2.1-2.3-3.6-5.1-4.5-8.1c-0.9-3.1-0.8-6.3,0.1-9.2
			l0.4,0.4c-1,0.1-2.1,0.5-3,1s-1.8,1.3-2.4,2.1c-0.8,0.9-1.7,1.7-2.7,2.3c-1.2,0.5-2.6,0.6-3.8,0c-1.1-0.5-2.1-1-3.1-1.7
			c-0.9-0.7-1.8-1.4-2.7-2.2c-1.7-1.6-2.8-3.7-3.6-5.9c-0.7-2.2-0.9-4.5-0.7-6.8c0.2-2.2,0.9-4.4,1.8-6.6c0.9-2,2.2-4,3.7-5.6
			c0.8-0.8,1.7-1.6,2.5-2.3c0.5-0.3,0.9-0.6,1.4-0.9c0.2-0.1,0.4-0.3,0.6-0.5c0.1-0.1,0.2-0.2,0.3-0.3l0.2-0.1c0.1,0,0.2,0,0.3,0
			l0,0C686.3,644.8,685.9,645.7,686.2,646.5z M686.6,644.1C686.6,644.2,686.6,644.2,686.6,644.1l-0.3,0.2c-0.1,0.1-0.2,0.2-0.3,0.3
			c-0.2,0.2-0.4,0.4-0.6,0.6c-0.4,0.3-0.9,0.6-1.3,1c-0.9,0.7-1.7,1.6-2.3,2.4c-0.7,0.8-1.3,1.7-1.9,2.7c-0.6,0.9-1,1.9-1.4,2.9
			c-1.7,4.1-1.8,8.5-0.5,12.6c0.7,2,1.8,3.8,3.4,5.3c0.7,0.8,1.5,1.5,2.5,2c0.9,0.6,1.8,1,2.7,1.5c0.8,0.5,1.8,0.5,2.7,0.2
			c1-0.5,1.8-1.2,2.5-1.9c0.9-0.7,1.9-1.5,2.8-2c1-0.5,2.1-0.9,3.3-1c0.1,0,0.1,0,0.2,0l0,0c0.2,0.1,0.3,0.3,0.2,0.5
			c-0.9,2.9-0.9,5.9-0.1,8.8c0.8,2.8,2.3,5.4,4.3,7.7c2,2.1,4.5,3.9,6.7,6.1c1.1,1.2,2.1,2.4,2.7,3.8c0.6,1.4,1.1,2.9,1.2,4.5h-0.9
			c0.4-1.7,0.6-3.5,0.6-5.2c0-1.8-0.2-3.5-0.9-5.1c0-0.1,0-0.3,0.1-0.4c0.1-0.2,0.4-0.2,0.6-0.1c2.6,1.7,4.6,4,6,6.7
			s1.9,5.8,1.6,8.9c-0.4,3-1.4,5.8-2.9,8.5c-1.5,2.4-2.4,5.3-2.9,8.1l-0.9-0.3c0.4-0.7,1-1.3,1.6-1.8c0.8-0.4,1.7-0.5,2.5-0.1
			c0.7,0.4,1.3,1,1.8,1.6c0.4,0.6,0.7,1.2,1.2,1.8c0.7,1.2,1.4,2.6,1.6,4.1c0.2,1.5,0.1,3-0.5,4.4c-0.3,0.6-0.6,1.3-0.9,1.9
			c-0.3,0.6-0.7,1.2-1.1,1.8s-1.1,1.1-1.9,1.4c-0.7,0.1-1.5,0.3-2.2,0.4l-2.1,0.3l-1.1,0.1h-0.5h-0.3h-1.1c-0.6,0.2-1.1,0.7-1.4,1.2
			c-0.4,0.6-0.8,1.2-1,1.8c-1.2,2.5-2.1,5.2-2.8,7.9s-1,5.5-0.8,8.3c0,0.7,0.2,1.4,0.5,2c0.3,0.5,0.7,1.2,1.1,1.8
			c0.7,1.3,1.3,2.6,1.7,3.9c1,2.7,1.7,5.4,2.9,7.9l-0.5,0.1c0.4-2.4,0.9-4.7,1.6-7.1l0.1-0.1c0.1-0.1,0.3-0.1,0.4,0
			c2.2,2.8,4.7,5.5,7.4,7.8c2.8,2.4,5.8,4.3,9.1,5.8c3.2,1.5,6.8,2.4,10.4,2.7s7.3,0,10.8-0.8l0.1,0.4c-3,0.4-6.1,0.1-9.1-0.7
			c-1.4-0.5-2.9-1-4.3-1.8c-1.3-0.8-2.7-1.6-4-2.5l0,0l-0.1-0.1l0,0c-0.3-0.3-0.3-0.8,0-1.1s0.8-0.3,1.1,0l0,0
			c1.6,1.4,3.6,2.7,5.6,3.5s4.3,1.3,6.5,1.2c2.3-0.1,4.5-0.4,6.7-1.2c2.1-0.7,4.3-1.6,6.2-2.7v0.4c-1-0.2-2-0.4-2.9-0.8
			c-1-0.4-1.8-1-2.6-1.8c-0.6-0.8-1.2-1.7-1.7-2.5l-1.5-2.7c-2.1-3.5-3.8-7.3-5.1-11.1c-0.1-0.3,0-0.7,0.3-0.9
			c0.4-0.3,1-0.2,1.3,0.2l2.9,3.6c0.9,1.2,2,2.3,3,3.4c1.1,1.1,2.3,2,3.6,2.9c1.3,0.8,2.7,1.3,4.3,1.7l-0.3,0.7
			c-3.2-1.7-6-4.1-8.4-6.8s-4.3-6-5.7-9.3c-0.1-0.2-0.1-0.5-0.1-0.7c0.1-2.2,0.7-4.4,1.6-6.5c0.9-2,2.3-3.8,3.8-5.3
			c1.5-1.4,3-2.9,4.7-4.1s3.2-2.6,4.7-3.9l0.7,0.7c-0.8,0.6-1.3,1.5-1.5,2.4c0,1,0.4,2,1,2.7l-0.9,0.1c0.8-3.3,2-6.5,3.5-9.4
			c1.6-3,3.3-5.7,5.2-8.5c1.8-2.7,3.1-5.7,3.9-8.8c0.7-3.1,0.4-6.4-0.8-9.4c-0.1-0.2-0.1-0.3,0-0.5l0,0c0.1-0.3,0.5-0.4,0.8-0.2l0,0
			c1.2,0.7,2.2,1.6,2.7,2.8s0.9,2.3,1.2,3.5l-1.1,0.2c-0.2-5.1-1.2-10-3.3-14.6c-2.1-4.5-5.1-8.6-8.6-12.2l0.9-0.3
			c0.1,0.1,0,0,0.1,0.1s0.2,0.2,0.4,0.2c0.4,0.1,0.8,0.2,1.2,0.2c0.5,0,0.9,0,1.4,0s1,0,1.5,0l-0.5,1c-1-1.1-2.3-2-3.6-2.9
			c-1.3-0.8-2.7-1.2-4.2-1.4c-0.3,0-0.5-0.2-0.5-0.5l0,0c0-0.3,0.2-0.6,0.5-0.6c1.3-0.1,2.5-0.7,3.6-1.4c1-0.8,1.7-1.8,2.3-2.9
			l1.1,1.4c-1.5,0.4-3,0.7-4.6,0.9c-1.5,0.2-3.1,0.3-4.7,0.3l0,0c-0.3,0-0.5-0.2-0.6-0.5c-0.5-2.4-1.1-4.8-1.9-7
			c-0.8-2.3-1.9-4.4-3.4-6.4s-3.2-3.6-5.3-4.8c-1.9-1.3-4.2-2.4-6.5-3.1c-4.6-1.4-9.7-1.7-14.5-2.2s-9.9-1.4-14.3-4l0.7-0.7
			c1.3,1.7,2.9,3.1,4.9,3.8s4,1.5,6.2,2.1c0.1,0,0.2,0.2,0.2,0.3l0,0c0,0.1-0.1,0.2-0.3,0.2c-5.5-0.8-11.1-1.5-16.7-2l-4.2-0.4
			c-1.4-0.2-2.8-0.3-4.2-0.6c-0.8-0.2-1.5-0.5-2.1-0.8c-0.6-0.4-1.2-1-1.6-1.5c-0.7-1.2-1.7-2.2-2.6-3.2l0.6,0.1
			c-1.4,0.9-2.4,2.1-3.2,3.5c-0.6,1.5-0.8,3.1-0.6,4.7l0,0c0,0-0.1,0.1-0.1,0.2c-0.1,0.2-0.3,0.2-0.5,0.1c-0.8-0.6-1.6-1.2-2.3-2.1
			c-0.6-0.9-1.1-1.9-1.1-3c0-1,0-2,0.4-3c0.3-0.9,0.6-1.8,1.1-2.7l0,0L686.6,644.1L686.6,644.1z"/>
		<path class="st7" d="M719.7,708.8c-3.5,0.8-6.7,2.6-9.2,5.2c0.7-6.7,4.8-12.1,6.2-18.6C719.6,699.6,720.2,703.8,719.7,708.8z"/>
		<path class="st14" d="M720,701.7c0.6,2.4,0.7,4.8,0.4,7.2l-0.1,0.4l-0.4,0.1c-3.4,0.9-6.4,2.6-8.9,5.1l-1.2,1.1l0.1-1.6
			c0.5-3.3,1.5-6.6,3-9.5c0.7-1.5,1.4-2.9,2.1-4.5c0.7-1.5,1.2-3,1.7-4.7C718.2,697.2,719.3,699.4,720,701.7z M713.8,704.7
			c-1.3,2.9-2.2,6.1-2.6,9.3l-1-0.5c1.3-1.3,2.7-2.4,4.3-3.3c1.7-0.9,3.4-1.5,5.1-2l-0.4,0.5c0.2-2.3,0.3-4.6-0.1-6.9
			c-0.2-1.1-0.5-2.2-0.9-3.3s-0.9-2.2-1.5-3.2C716,698.6,715,701.7,713.8,704.7z"/>
		<path class="st14" d="M696.1,653.6c1.4,2.4,3.2,4.6,5.4,6.3s4.7,3.1,7.3,4s5.4,1.5,8.2,1.9c5.6,0.9,11.3,1.2,17,2.3
			c5.6,0.9,11.2,2.6,16.3,5.2c-5.2-2.2-10.7-3.8-16.4-4.6c-5.6-0.9-11.3-1.2-17-2.1c-2.8-0.3-5.6-1-8.4-1.9c-5.7-1.8-10.3-5.8-13-11
			c-1.4-2.5-2.4-5.1-3.2-7.9C693.4,648.5,694.6,651.1,696.1,653.6z"/>
		<path class="st14" d="M711.6,687c1.8,1.6,3.5,3.2,5.2,4.8c1.8,1.6,3.3,3.5,4.7,5.5c1.4,2.1,2.2,4.3,2.6,6.7
			c0.4,2.4,0.5,4.8,0.1,7.2c-0.7,4.6-1.6,9.3-3,13.8l-0.5-0.2c1.2-4.5,2-9.2,2.6-13.8c0.2-2.3,0.2-4.6-0.2-6.9
			c-0.1-1.1-0.5-2.2-0.9-3.3c-0.4-1-1-2.1-1.6-3c-1.4-1.9-2.9-3.6-4.6-5.2l-5.1-4.9c-3.4-3.2-6.4-6.9-9-10.8
			C705.1,680.4,708.4,683.8,711.6,687z"/>
		<path class="st14" d="M765.5,723.4c-2,2.7-4.3,4.9-6.9,7c-2.5,2.1-5.2,4-7.6,6l-1.8,1.6l-1.7,1.7l-1.6,1.8c-0.5,0.6-1,1.2-1.4,1.8
			c-1.7,2.7-2.4,5.8-2,8.9c0.4,3.2,1.3,6.3,2.7,9.1s3.1,5.6,5,8.2c1.9,2.6,4,5.2,6.1,7.6c-2.4-2.2-4.6-4.7-6.6-7.2
			c-2.1-2.6-3.9-5.4-5.4-8.2c-1.6-3-2.7-6.1-3.1-9.4c-0.5-3.4,0.3-6.9,2.1-9.8c4-5.4,9.5-9.1,14.6-13.1c2.5-1.9,4.9-4.1,7-6.5
			c2-2.6,3.6-5.3,4.8-8.4C768.8,717.7,767.3,720.7,765.5,723.4z"/>
		<path class="st14" d="M757.2,681.1c0.2,0.6,0.6,1.2,1.1,1.6c1.1,0.8,2.6,1.3,3.9,2.3c-0.7-0.2-1.5-0.4-2.2-0.6s-1.4-0.6-2.1-1
			c-0.7-0.5-1.2-1.2-1.4-2.1c-0.1-0.9,0-1.7,0.4-2.4C756.9,679.5,757.1,680.3,757.2,681.1z"/>
		<path class="st14" d="M717.8,745.5c3-3.1,6-6,8.2-9.5c0.6-0.9,1-1.8,1.4-2.7c0.4-1,0.7-1.9,1.1-2.9c0.6-1.9,1-4,1.2-6
			c0.4-4.1-0.3-8.4-0.5-12.6c1.2,4.1,1.9,8.3,1.9,12.6c-0.1,2.2-0.5,4.3-1.1,6.4c-0.4,1-0.7,2-1.1,3c-0.4,1-0.9,2-1.5,2.9
			c-1.2,1.8-2.6,3.5-4.1,5c-1.6,1.5-3.1,2.9-4.7,4.3c-3.1,2.8-6.3,5.6-8.7,9.1C711.8,751.5,714.8,748.6,717.8,745.5z"/>
		<path class="st14" d="M731.5,762c0.3,3.7,1.3,7.4,2.9,10.7c1.8,3.2,4.7,5.9,8.1,7.2c3.5,1.3,7.3,2,11.1,2
			c-3.8,0.3-7.6-0.3-11.3-1.4c-3.6-1.4-6.7-4-8.6-7.4c-1.7-3.4-2.8-7.2-3.1-11c-0.2-1.9-0.3-3.8-0.3-5.7c-0.1-1.9,0.1-3.8,0.2-5.7
			C731,754.4,731.2,758.2,731.5,762z"/>
		<path class="st14" d="M740,674.9c1.6,0.7,3.2,1.6,4.7,2.6c1.4,1.1,2.8,2.2,3.9,3.7c1,1.5,2,2.9,2.7,4.6c0.7,1.6,1.4,3.3,2,4.9
			c0.5,1.8,0.5,3.6,0.3,5.4c-0.1,1.8-0.5,3.5-0.7,5.2c-0.2-3.6,0.7-7.1-0.3-10.4c-1-3.4-2.5-6.5-4.5-9.4c-1-1.4-2.3-2.6-3.7-3.6
			c-1.4-1.1-3-1.9-4.5-2.7c-3.2-1.6-6.2-3.5-9-5.6C733.7,671.6,736.8,673.4,740,674.9z"/>
		<path class="st14" d="M762,696.3c1.1,2.3,1.8,4.7,2,7.2c0.2,2.6-0.1,5.1-1.1,7.5c-0.9,2.3-2.2,4.6-3.8,6.4c1.1-2.2,2-4.5,2.7-6.8
			c0.6-2.3,0.9-4.6,0.7-7s-0.7-4.7-1.6-7c-0.8-2.3-1.8-4.4-2.8-6.7C759.6,691.9,760.9,694,762,696.3z"/>
		<path class="st14" d="M684.5,669.5c-2.1-2.4-3.5-5.4-4-8.5c-0.3-3.1,0.1-6.3,1.3-9.2c1.1-2.8,2.7-5.5,4.7-8
			c-1.5,2.6-2.7,5.5-3.7,8.3c-0.9,2.8-1.3,5.8-0.9,8.8c0.6,2.9,1.8,5.7,3.6,8.1c1.9,2.4,3.9,4.7,6.2,6.7
			C688.9,674.1,686.6,671.9,684.5,669.5z"/>
		<path class="st14" d="M752,669.8c-0.5-0.9-1.3-1.7-1.9-2.4c-0.3-0.4-0.6-0.8-0.9-1.2l-1-1.2l-1-1.2l-1.1-1.1
			c-3.1-2.7-6.6-4.9-10.4-6.4c-3.9-1.6-7.9-2.6-11.8-3.8c-2-0.6-4-1.2-6-1.9c-1.9-0.7-3.8-1.5-5.8-2.3c0.9,0.3,1.9,0.6,2.9,0.9
			c1,0.3,2,0.5,3,0.8c1.9,0.5,3.9,1.1,6,1.6c4.1,1,8.1,2.1,12,3.6c4,1.6,7.5,3.9,10.5,6.9l1.1,1.2l1,1.2l1,1.2
			c0.3,0.4,0.6,0.9,0.9,1.3c1.2,1.8,2.2,3.5,3.2,5.4C753.2,671.4,752.6,670.7,752,669.8z"/>
		<path class="st14" d="M691.7,663.3c-0.7-1.9-1.2-3.8-1.5-5.8c-0.2-2-0.1-4,0.1-6c0.2-2,0.8-3.9,1.4-5.8c0.1-0.1,0.2-0.2,0.3-0.3
			c0.3-0.1,0.7,0,0.8,0.3c1.4,2.9,3.3,5.5,5.5,7.6c2.4,2.1,5.2,3.5,8.3,4.2c3.1,0.6,6.3,0.7,9.5,0.5c3.3-0.2,6.5-0.6,9.7-1
			c-3.2,0.6-6.4,1.2-9.6,1.5c-3.2,0.3-6.5,0.3-9.7-0.3s-6.3-2-8.8-4.2c-2.4-2.2-4.5-5-5.9-7.9h1.1c-0.5,1.8-1,3.7-1.3,5.6
			c-0.3,1.9-0.4,3.8-0.2,5.7s0.5,3.8,1.1,5.7s1.2,3.8,2,5.5C693.5,666.8,692.7,665,691.7,663.3z"/>
		<path class="st14" d="M696.4,661.7c0.8,2.6,1.9,4.9,3.3,7.2c1.7,2.1,3.7,3.8,6.1,5c2.2,1.3,4.7,2.5,7.1,3.7l7.2,3.6
			c2.4,1.2,4.9,2.3,7.2,3.7c2.3,1.2,4.7,2.7,6.8,4.3c4.5,3.2,8.2,7.2,10.9,12.1c2.6,4.9,3.5,10.4,2.9,15.9
			c-0.6,5.3-2.1,10.6-4.3,15.5c-2.2,5-4.8,9.7-7.7,14.2c2.7-4.6,5-9.5,7-14.4s3.4-10.1,3.9-15.4c0.2-2.6,0.1-5.3-0.3-7.9
			c-0.5-2.6-1.4-5.1-2.6-7.4c-2.6-4.6-6.3-8.5-10.7-11.6c-2.1-1.5-4.4-3-6.7-4.3s-4.8-2.6-7.1-3.8l-7.2-3.6
			c-2.3-1.2-4.8-2.4-7.1-3.8c-2.4-1.3-4.5-3.1-6.2-5.3c-1.5-2.3-2.6-4.8-3.2-7.4c-1.6-5.2-2.8-10.4-4.1-15.6
			C693.1,651.6,694.5,656.9,696.4,661.7z"/>
		<path class="st11" d="M659.1,717.8c-2.3-0.5-3.5-1.5-4.3,1.7c-0.4,1.3,1.5,4.3,3.2,4.6"/>
		<path class="st3" d="M656.9,733.8c-0.2-0.3-0.1-0.8,0.2-1.1l0,0c0.3-0.2,0.8-0.1,1.1,0.2c0.7,1,1.7,1.7,2.8,2.3
			c1.1,0.5,2.4,0.6,3.6,0.4c1.3-0.2,2.5-0.6,3.7-1.1s2.4-1.2,3.5-1.8l0,0h0.1l0,0c0.1,0,0.1,0.1,0.1,0.2c-0.1,0.9-0.4,1.7-1,2.3
			c-0.3,0.3-0.8,0.5-1.2,0.5c-0.5,0-0.9-0.1-1.3-0.2l0,0c-0.1,0-0.1-0.1-0.1-0.2c0-0.1,0.1-0.1,0.2-0.1c0.3,0.1,0.7,0.2,1.1,0.2
			c0.4,0,0.7-0.2,1-0.4c0.5-0.6,0.9-1.3,0.9-2.1l0.3,0.2c-1.1,0.7-2.3,1.5-3.4,2.1c-1.2,0.7-2.5,1.2-3.8,1.5
			c-1.4,0.3-2.9,0.3-4.2-0.2c-1.4-0.6-2.6-1.3-3.6-2.4L656.9,733.8L656.9,733.8z"/>
		<path class="st11" d="M671.3,715.8c-0.9-0.3-3.3-1.2-3.8,0.1s2.1,2,3,2.3s3.3,1.2,3.8-0.1C674.8,716.7,672.3,716.1,671.3,715.8z"
			/>
		<path class="st3" d="M721.8,728.2c0.3,1.3,0.5,2.5,0.3,3.8c-0.2,1.2-0.5,2.4-1.2,3.5c-0.6,1.2-1.5,2.1-2.7,2.8
			c-1.2,0.4-2.5,0.7-3.8,0.4c-2.3-0.5-4.6-1.2-7-1.9c2.4,0.1,4.7,0.9,7,1c1.1,0.1,2.2-0.2,3.2-0.6c0.9-0.5,1.7-1.4,2.1-2.4
			c1-2,1.4-4.3,0.9-6.5c-0.7-2.3-1.5-4.6-2.6-6.6C719.5,723.6,720.8,725.8,721.8,728.2z"/>
		<path class="st15" d="M714.2,731.7c-0.4-0.5-0.9-1.2-1.5-0.8c0.4-0.7,0.7-1.5,1-2.2"/>
		<path class="st7" d="M681.2,652c-0.8,1.5-1.4,3-1.9,4.6c-0.4,1.6-0.6,3.2-0.4,4.8c0.2,1.6,0.8,3.1,1.8,4.3c1,1.3,2.2,2.3,3.5,3.3
			c2.7,1.8,5.5,3.4,8.6,4.7l-0.5,0.9c-3-1.4-5.9-3.1-8.6-5c-1.3-1-2.5-2.1-3.5-3.5s-1.7-2.9-1.8-4.6c-0.2-1.6,0.1-3.3,0.6-4.9
			C679.6,654.9,680.3,653.4,681.2,652c1.5-2.8,3.3-5.6,5.3-8.2C684.7,646.5,682.9,649.2,681.2,652z"/>
		<path class="st3" d="M715.7,719c-11.4-16.8-41.2-20.5-45.5-21l0,0c-0.3-0.1-0.5-0.3-0.4-0.6c0.2-1.2,0.3-3.5-0.4-4.5v-0.1
			c0-0.1,0.1-0.1,0.2-0.1c3.2,0.2,24.3,2.2,47.2,24.1L715.7,719z"/>
		<path class="st16" d="M415.9,838.1c22.6,3.4,127.7,42,171,42.9"/>
		<path class="st16" d="M423.8,844c29.2,2.8,92.8,49.6,173.6,43.1"/>
		<path class="st16" d="M449.4,861.2C489.7,881,578.3,903,610,891.1"/>
		<path class="st16" d="M504.8,890.2c17.2,10.2,92,20.2,114.4,2.4"/>
		<path class="st16" d="M568.8,907.1c29.3,3,63.5-16.8,63.5-16.8"/>
		<path class="st16" d="M313.8,895.6c35.5-24.9,77.9-51.2,96.4-58.7c38.1-12.4,148.9,36.6,169.3,38.4"/>
		<path class="st16" d="M307.5,889.9c1.1-1.5,76.6-61.7,108.6-69.3c14.8-3.5,147.6,31.6,147.6,31.6"/>
		<path class="st16" d="M305.2,885.9c3.1-2.2,50.1-54.9,109-72.1c10.8-3.2,150.1,28.3,150.1,28.3"/>
		<path class="st3" d="M370.6,868c4.3-1,8.4-2,12.7-2.9l6.4-1.4l6.4-1.3c4.3-0.8,8.6-1.7,12.8-2.3l0,0c7.2-0.3,14.5-0.6,21.7-0.4
			c3.6,0.2,7.2,0.3,10.8,0.7c1.8,0.1,3.6,0.4,5.4,0.7c1.8,0.2,3.5,0.8,5.2,1.6c-1.6-0.7-3.3-1.3-5.2-1.5c-1.8-0.3-3.6-0.5-5.4-0.6
			c-3.6-0.3-7.2-0.4-10.8-0.4c-7.2,0-14.5,0.3-21.7,0.7l0,0l-25.5,5.2l-6.4,1.4l-6.4,1.2c-4.3,0.8-8.6,1.7-12.8,2.4
			C361.9,869.9,366.3,869,370.6,868z"/>
		<path class="st3" d="M267.3,898.6c-0.6-1.1-1-2.3-1-3.5c0.1-0.6,0.2-1.2,0.4-1.7c0.2-0.6,0.4-1.1,0.4-1.7l0.1-0.2h0.2
			c6.2-1.4,12.3-2.8,18.5-4.3c6.1-1.4,12.2-2.9,18.4-4.4l0.2,0.8c-6.2,1.4-12.3,2.9-18.5,4.3c-6.2,1.4-12.2,2.9-18.4,4.4l0.3-0.3
			c-0.2,0.5-0.3,1.1-0.1,1.6c0.1,0.5,0.2,1.1,0.3,1.6c-0.1,1,0.1,2.1,0,3.2L267.3,898.6z"/>
		<path class="st3" d="M539.8,902.6l-17.2-1.2l-17.2-1.3l-34.5-2.7c-11.4-0.9-23-2-34.4-3.1c-5.8-0.6-11.5-1-17.3-1.6l-17.3-1.5h0.1
			c-3.8,0.7-7.5,1.1-11.3,1.7l-11.3,1.4l-22.6,2.5l-45.2,4.8l-0.1-0.9l22.6-2.3c7.6-0.7,15.1-1.6,22.6-2.4l22.6-2.5l11.3-1.4
			c3.7-0.4,7.5-0.9,11.2-1.7h0.1l17.3,1.4c5.7,0.4,11.5,0.9,17.2,1.3c11.5,0.7,23,1.5,34.5,2.4l34.4,2.9l17.2,1.6l17.2,1.7
			L539.8,902.6z"/>
		<path class="st16" d="M268.6,895.6c0,0,15.5-4.8,36.6-9.8"/>
		<path class="st3" d="M428.4,863.7c-8.8,0.5-17.7,1.5-26.3,3.1c-8.8,1.5-17.4,3-26.2,4.7l-26.2,4.9c4.3-1,8.6-2,12.9-3l13-2.8
			c8.7-1.9,17.4-3.4,26.2-5c8.8-1.6,17.6-2.6,26.5-2.8c4.4,0,8.9,0.1,13.3,0.6s8.8,0.8,13.2,0.9C446,864.7,437.2,863.4,428.4,863.7z
			"/>
		<path class="st16" d="M267,893.4c0,0,15.4-2.8,37.3-8.9"/>
		<path class="st3" d="M448,869.1c-5,0.2-10.1,0.3-15.1,0.7c-10.1,0.7-20.2,1.8-30.1,3.3l-30,4.4l-15,2.2c-5,0.7-10.1,1.3-15,2
			c5-0.9,10-1.7,14.9-2.6l14.9-2.5l30-4.7c10.1-1.4,20.1-2.5,30.2-3.1c5.1-0.3,10.2-0.4,15.2-0.3c5,0.1,10.1,0.4,15.1,0.8
			C458.1,869.2,453.1,869.1,448,869.1z"/>
		<path class="st3" d="M469,878.3l-9.4-0.2c-6.2-0.1-12.5-0.1-18.7,0c-12.4,0.3-24.9,1.1-37.3,2.4c-12.5,1.3-24.8,2.8-37.3,4.4
			c-6.2,0.8-12.4,1.6-18.5,2.4c-6.3,0.8-12.5,1.6-18.6,2.5c6.2-1.1,12.3-2.1,18.5-3.1s12.3-1.9,18.5-2.8c12.4-1.8,24.8-3.4,37.3-4.7
			c12.6-1.3,25-2.1,37.6-2.1c6.3,0,12.6,0.1,18.8,0.3l9.4,0.4c3.2,0.2,6.3,0.2,9.4,0.1C475.5,878.1,472.3,878.2,469,878.3z"/>
		<path class="st3" d="M480.6,889.2l-24.1-1l-24.1-1.1l-12.1-0.6c-4-0.2-8-0.4-12-0.4s-8,0.3-12,0.7c-4,0.5-8,1.2-12,1.7l-24,3.5
			l-23.9,3.4l-24,3.2l23.8-4l23.9-3.7l23.9-3.6c4-0.5,7.9-1.1,12-1.7c4.1-0.4,8.1-0.7,12.2-0.7c4.1,0.1,8.1,0.3,12.1,0.5l12.1,0.6
			l24.2,1.2l24.2,1.3l24.2,1.4L480.6,889.2z"/>
		<path class="st2" d="M267.3,901l-1,0.5c-1.1,0.6-2.1,1.5-2.9,2.5c-3.4,3.9-8.4,4.6-9.5,3.3c-3.5-3.8-1.7-6.5-3.3-7.9
			c-3-2.6-6.6-4.2-12.5-8.3c-5.8-4.1-3.9-11.2-3.6-12.4c0.3-1.2,1.6,0.7,1.5,0.1c0-1.2,0.7-2.2,1.9-2.6c1.3-0.2,0.4,1.6,0.8,2.7
			s13.4,8.1,17.5,9.5c4.5,1.5,9.1,5.3,11.7,4.1"/>
		<path class="st3" d="M698,782.3c1.9-1.9,4.9-2.2,7.2-0.8c2.9,1.7,3.7,5.5,1.9,8.2l-0.7,0.9c-0.1,0.2-0.2,0.3-0.3,0.4
			c-0.1,0.1-0.1,0.2-0.2,0.3l-0.3,0.3c-0.2,0.2-0.4,0.4-0.6,0.7l-0.6,0.8c-0.4,0.6-0.8,1.1-1.1,1.7l-1.1,1.7c-1.5,2.4-3,4.9-4.6,7.3
			l-9,15c-6.1,10-12,20.1-18.3,30s-12.7,19.7-19.6,29.3c-3.5,4.8-7,9.5-10.8,14.1c-3.9,4.7-7.9,9.2-12.4,13.3l-1.8,1.6
			c-0.6,0.5-1.3,0.9-1.9,1.5l-1,0.7l-0.5,0.4c-0.4,0.3-0.8,0.5-1.2,0.7c-1,0.4-2,0.8-3.1,1c-1.6,0.4-3.2,0.6-4.8,0.8
			c-1.5,0.1-3,0.3-4.5,0.3c-5.9,0.4-11.8,0.5-17.7,0.6c-11.7,0.1-23.4-0.1-35.1-0.4c-23.4-0.7-46.7-1.5-70-2.6s-46.6-2.3-69.9-3.5
			s-46.7-1.9-69.9-1.8c-23.2,0.1-46.5,0.9-69.6,3.8c-11.7,1.4-23.2,2.4-34.9,3.3c-5.8,0.5-11.7,0.8-17.5,1.2l-8.7,0.5
			c-2.9,0.2-5.9,0.4-8.7,0.8l0,0c-0.3,0-0.6-0.2-0.6-0.5c-0.1-0.3,0.2-0.6,0.5-0.7c3-0.6,5.9-0.7,8.8-1l8.7-0.7
			c5.9-0.5,11.7-1,17.5-1.4c11.6-1.1,23.1-2.3,34.7-3.9c23.1-3.3,46.6-4.6,69.9-5.1c23.3-0.5,46.7-0.4,70,0.4
			c23.3,0.8,46.6,1.5,69.9,2.1s46.6,1,69.9,1.2c11.6,0,23.2,0,34.8-0.3c5.7-0.2,11.5-0.4,17.2-0.8c1.4-0.1,2.8-0.3,4.2-0.4
			c1.2-0.1,2.5-0.4,3.8-0.6c0.4-0.1,0.7-0.2,1.1-0.3c-0.1,0-0.1,0.1-0.2,0.1l0.4-0.3l0.8-0.6c0.6-0.4,1.1-0.7,1.6-1.2l1.5-1.3
			c4-3.9,7.7-8.1,11.1-12.6c3.6-4.4,6.9-9.1,10.2-13.8c6.5-9.5,12.6-19.3,18.7-29.2c6.1-9.9,11.9-20,17.7-30.1l8.7-15.2
			c1.5-2.5,2.9-5.1,4.6-7.6l1.2-1.9c0.4-0.6,0.8-1.2,1.2-1.9l0.7-1c0.2-0.3,0.5-0.7,0.8-1l0.4-0.5c0.2-0.1,0.3-0.3,0.5-0.5
			C697.2,783.1,697.6,782.7,698,782.3L698,782.3z"/>
		<path class="st0" d="M43.8,982.4c47.8,8.5,52.3,4.1,161.1-0.5c108.9-4.5,181.9-11.7,255.6-6.2s113.5,8,196.8,4.9s158.1,7,158.1,7"
			/>
		<path class="st17" d="M610.6,908.6l43.9,69.2c1.6,2.5,4.3,3.9,7.2,3.8l0,0c1.6-0.1,3.2-0.6,4.5-1.5c3.7-2.6,4.6-7.7,1.9-11.5
			l-42.9-60.5"/>
		<path class="st17" d="M224.9,912.3l-34.7,63.1c-1.2,2.1-3.5,3.6-6.1,3.7l0,0c-1.4,0-2.8-0.3-4-1.1c-3.4-2.1-4.4-6.6-2.3-9.9
			l34.3-55.4"/>
		<path class="st18" d="M243.8,911.7l-23.5,42.8c-0.9,1.5-2.4,2.5-4.1,2.5l0,0c-0.9,0-1.9-0.2-2.7-0.7c-2.3-1.4-3-4.4-1.6-6.8
			l23.2-37.5"/>
		<path class="st18" d="M511.9,911.6l36.3,57.3c1.4,2,3.6,3.2,6,3.1l0,0c1.4,0,2.7-0.5,3.8-1.2c3-2.1,3.8-6.4,1.6-9.5l-35.5-50.1"/>
		<path class="st3" d="M628,806.8c-4.5,2-9.2,3.9-13.7,5.8l-13.7,5.7l-13.7,5.6l-0.7,0.3l-0.5-0.6c-5.3-5.4-10.5-10.8-15.7-16.3
			s-10.4-11.1-15.3-16.7c-5-5.6-9.9-11.5-14.4-17.6c-1.1-1.6-2.2-3.1-3.2-4.8c-0.2-0.4-0.4-0.8-0.6-1.3l-0.3-0.7
			c0-0.1-0.1-0.2-0.1-0.3c-0.1-0.1-0.1-0.1-0.1-0.2v-0.1c0-0.1,0-0.1,0-0.2c0,0,0-0.1,0.1-0.2c0-0.1,0-0.2,0.1-0.2h0.1
			c0.2,0,0.4-0.5,0.5-0.9c0.1-0.4,0.2-0.9,0.3-1.3c0.2-1.9,0.3-3.7,0.2-5.6c0-1-0.2-1.9-0.5-2.8c-0.2-0.9-0.9-1.7-1.7-2.1
			c0.8,0.4,1.5,1.2,1.9,2c0.3,0.9,0.6,1.8,0.7,2.8c0.3,1.9,0.3,3.8,0.2,5.7c0,0.4-0.1,0.9-0.2,1.4c0,0.3-0.1,0.6-0.2,0.8
			c0,0.1-0.1,0.3-0.2,0.4c0,0.1-0.1,0.1-0.2,0.2c-0.1,0-0.1,0.1-0.2,0.1l0,0l0.1-0.1c0.1-0.1,0.1-0.1,0.1-0.2v-0.1l0,0v0.1
			c0,0.1,0.1,0.2,0.1,0.3l0.3,0.6c0.2,0.4,0.5,0.8,0.7,1.2c0.9,1.6,2.1,3,3.2,4.5c4.6,5.9,9.8,11.4,14.8,16.9s10.2,11.1,15.4,16.5
			c5.3,5.4,10.4,10.9,15.7,16.3l-1.2-0.3l13.8-5.4l13.9-5.3c4.6-1.7,9.3-3.5,13.9-5.2s9.3-3.5,13.9-5.1
			C637.3,802.5,632.5,804.8,628,806.8z"/>
		<path class="st3" d="M631,817.1c-5.6,2.6-11.4,5.1-17.2,7.2c-5.7,2.2-11.6,4.4-17.5,6.4c-3,1-5.9,1.9-9,2.7
			c-0.8,0.2-1.6,0.5-2.4,0.6c-0.9,0.2-1.7,0.3-2.6,0.3c-0.4-0.1-0.8-0.2-1.1-0.5l-0.5-0.5l-0.5-0.5l-0.4-0.4l-1.6-1.8
			c-8.2-9.3-16.2-18.8-24.1-28.4c-4-4.8-7.9-9.6-11.9-14.3c-4-4.8-7.9-9.6-11.8-14.4l0.4,0.3c-2.4-1-5-2.1-7.3-3.5
			c-1.2-0.7-2.4-1.3-3.6-2.1c-1.1-0.8-2.3-1.7-3.2-2.7l0.1,0.1c-1.5-1.4-3.1-2.6-4.5-4.1c-0.4-0.4-0.7-0.8-1-1.2
			c0-0.1-0.1-0.2-0.2-0.3l-0.1-0.2l-0.1-0.2c-0.2-0.4-0.1-0.8,0.1-1.2s0.6-0.6,1-0.6c0.3-0.1,0.7,0,1,0.1c0.6,0.2,1.1,0.6,1.4,1.1
			l-0.7,0.5c-0.9-1.2-1.9-2.4-2.8-3.6c-0.4-0.6-0.8-1.2-1.3-1.9c-0.2-0.3-0.3-0.7-0.5-1c-0.1-0.2-0.1-0.4-0.2-0.6
			c-0.1-0.2-0.1-0.5,0-0.7s0.3-0.4,0.6-0.4c0.2,0,0.4,0,0.6,0.1c0.4,0.1,0.8,0.3,1.1,0.5c0.3,0.2,0.6,0.5,0.9,0.8
			c0.1,0.1,0.2,0.3,0.3,0.4c0.1,0.2,0.3,0.3,0.4,0.4c1.1,0.9,2.4,1.7,3.7,2.5c-1.3-0.7-2.6-1.4-3.9-2.3c-0.1-0.1-0.2-0.3-0.4-0.4
			c-0.2-0.1-0.3-0.3-0.4-0.4c-0.3-0.3-0.6-0.5-0.9-0.7s-0.6-0.3-1-0.4c-0.3-0.1-0.7-0.1-0.7,0.1c-0.1,0.3,0,0.7,0.2,0.9
			c0.1,0.3,0.3,0.6,0.5,0.9c0.4,0.6,0.8,1.2,1.4,1.8c0.9,1.2,1.9,2.3,2.9,3.4l-0.7,0.5c-0.3-0.3-0.6-0.6-1-0.7
			c-0.4-0.1-0.8,0.1-0.8,0.1s0.1,0.3,0.4,0.7c0.3,0.4,0.7,0.8,1,1.1c1.4,1.4,3.1,2.6,4.6,3.9l0,0l0,0c0.9,0.9,2,1.6,3.1,2.3
			c1.1,0.7,2.2,1.3,3.5,1.9c2.4,1.2,4.8,2.3,7.3,3.2l0.2,0.1l0.1,0.2l12.1,14.1l12.1,14.2c8.1,9.4,16,19,24.1,28.4l1.6,1.8l0.4,0.4
			l0.3,0.4l0.3,0.4c-0.2-0.1-0.2-0.1-0.1-0.1c0.7,0.1,1.3,0,2-0.2s1.4-0.2,2.2-0.5c3-0.7,6-1.6,8.9-2.5c5.9-1.8,11.8-3.8,17.6-5.9
			c5.8-2.1,11.6-4.4,17.3-6.6c5.8-2.3,11.5-4.9,16.9-7.8C642.2,811.6,636.7,814.5,631,817.1z"/>
		<path class="st3" d="M532.5,758.6c-0.3,0-0.6-0.1-0.9-0.2c-0.6-0.3-1.2-0.5-1.7-0.7c-1-0.6-2.1-1.1-3.2-1.8
			c-1.1-0.7-2-1.3-3.1-2.1c-1-0.7-1.9-1.5-2.9-2.4c-0.1,0-0.1-0.1-0.2-0.2l-0.1-0.1l-0.1-0.1v-0.1c-0.1-0.1-0.1-0.2-0.2-0.3
			c-0.2-0.2-0.3-0.5-0.5-0.7c-0.3-0.4-0.7-0.9-1.1-1.3c-0.3-0.4-0.7-0.7-1.2-1c-0.1-0.1-0.3-0.1-0.4,0c-0.1,0.1-0.2,0.2-0.2,0.4
			c0,0.6,0.1,1.1,0.4,1.6c0.2,0.6,0.5,1.1,0.8,1.6c0.6,1.1,1.4,2.1,2.1,3c-0.9-0.8-1.9-1.6-2.6-2.6c-0.8-1-1.4-2.2-1.6-3.5
			c0-0.5,0.2-0.9,0.6-1.2c0.4-0.3,0.9-0.4,1.3-0.2c0.6,0.3,1.2,0.7,1.7,1.1c0.4,0.5,0.8,1,1.2,1.5c0.2,0.3,0.3,0.5,0.5,0.8
			c0,0.2,0.1,0.3,0.2,0.5v0.1l0,0l0,0l0.1,0.1c0.8,0.8,1.7,1.5,2.7,2.3c0.9,0.8,1.8,1.4,2.9,2.2c1,0.8,1.9,1.4,3,2.1
			c0.5,0.4,1,0.7,1.5,1c0.2,0.1,0.5,0.2,0.8,0.3c0.2,0.1,0.6,0.1,0.8-0.1C532.8,758.9,532.5,759,532.5,758.6z"/>
		<path class="st3" d="M511.7,751.5c-0.2-0.2-0.4-0.5-0.5-0.7c-0.2-0.2-0.2-0.5-0.2-0.8c0-0.5,0.2-1.1,0.5-1.5
			c0.3-0.5,0.8-0.9,1.4-1c0.4,0,0.7,0.1,1,0.3s0.4,0.4,0.6,0.7c0.5,0.7,1,1.3,1.7,1.8c0.6,0.7,1.2,1.3,1.9,1.8
			c1.1,1.3,2.5,2.5,3.6,3.8c-1.5-1-3-2-4.3-3.1c-1.4-1.1-2.7-2.4-3.8-3.8c-0.3-0.3-0.4-0.4-0.5-0.4c-0.2,0.1-0.5,0.3-0.6,0.5
			c-0.2,0.3-0.4,0.6-0.4,0.9c-0.1,0.1,0,0.3,0,0.4s0.1,0.3,0.2,0.4c1,1.4,2.2,2.7,3.1,4.2C514,753.9,512.6,752.7,511.7,751.5z"/>
		<path class="st2" d="M529.4,772.1l-2,7c-0.8,2.8-3.5,4.7-6.4,4.6l-33-1.9c-0.4-0.1-0.9-0.2-1.3-0.3c-3.4-1-5.3-4.5-4.3-7.9
			l17-59.4c0.8-2.8,3.5-4.7,6.4-4.6l33,1.9c0.5,0.1,1,0.2,1.4,0.3c3.3,1,5.2,4.5,4.2,7.9l-11.3,38.9"/>
		<path class="st2" d="M527.6,771.3l-1.8,6.6c-0.7,2.7-3.3,4.6-6.1,4.5l-31.7-1.9c-0.5-0.1-0.9-0.2-1.3-0.3c-3.2-1-5.1-4.4-4.1-7.8
			l16.3-58.2c0.7-2.7,3.3-4.6,6.1-4.5l31.7,1.9c0.4,0.1,0.8,0.2,1.2,0.3c3.3,1,5.2,4.4,4.2,7.8l-11,39.1"/>
		<ellipse transform="matrix(0.141 -0.99 0.99 0.141 -270.1249 1131.3315)" class="st19" cx="516.9" cy="721.3" rx="4.2" ry="5.4"/>
		
			<ellipse transform="matrix(0.9995 -3.144971e-02 3.144971e-02 0.9995 -22.4513 16.5379)" class="st20" cx="514.5" cy="722" rx="2.4" ry="2.4"/>
		<path class="st16" d="M567.4,861c-5.8,4.5-126-39.3-151-32.5c-39.9,10.8-105.8,63.9-105,65.6"/>
		<path class="st2" d="M311.4,894.2c2.5,5.3-1.2,10.2-3.4,10.4c-6.2,0.4-7.4-2.5-9.8-2.1c-4.7,0.7-8.8,2.6-16.9,4.5
			c-8,2-13.2-3.5-14.1-4.4s2-0.9,1.2-1.1l0,0c-1.1-0.6-1.5-1.9-1-2.9c0.7-1,1.8,0.7,3,1c1.2,0.3,17.3-5.2,21.6-7.6
			c4.7-2.5,11.6-3.7,12.4-6.3"/>
		<path class="st21" d="M526.3,752.5c-2.5-0.2-4.1-4.3-5.2-6c-1.1-1.8-8.3-3.2-9.9-1.4c-1.6,1.9-2.3,7-4.8,7.1s0.2,7.2,1,9.4
			s13.1,10.8,13,12.6c-0.1,1.8-13.6,1.1-23.5,2.3c-10,1.2-9.1-5.6-6.1-11.8s10.7-31.5,12.7-36.2c2-4.8,2.1-11,6.6-15.8
			c4.5-4.8,21.4,3,27.1,6.1c5.7,3-6.2,16.2-9.3,28.3C527.9,747,528.8,752.7,526.3,752.5z"/>
		<g>
			<path class="st22" d="M539.5,215.5c17.5,44.7,40.8,39.4,56.4,39.4c43.3,0.2,46.1-60.1,46.1-60.1L539.5,215.5z"/>
			<path class="st23" d="M528.3,209.1L642,181.4c9.5-2.3,19.1,3.5,21.4,13l17.9,73.6c2.3,9.5-3.5,19.1-13,21.4l-113.7,27.7
				c-9.5,2.3-19.1-3.5-21.4-13l-18-73.6C512.9,221,518.7,211.4,528.3,209.1z"/>
			<path class="st24" d="M668.1,290.5c-20.7,5.4-41.4,10.7-62,16.3l-31,8.3l-15.5,4.1l-7.7,2l-3.9,1c-0.7,0.1-1.5,0.3-2.3,0.5
				c-0.8,0.1-1.6,0.2-2.4,0.3c-10.1,0.4-19.2-6.1-22-15.7c-0.1-0.4-0.2-0.8-0.3-1.1l-0.2-1l-0.5-2l-1-3.9l-7.7-31.2l-7.5-31.2
				l-0.5-2l-0.2-1l-0.1-0.5l-0.1-0.6c-0.1-0.8-0.3-1.6-0.4-2.4c-0.1-0.8-0.2-1.6-0.1-2.4c0.2-10.1,7.1-18.7,16.9-21l62.5-14.2
				l31.3-7l15.6-3.5l7.8-1.7l3.9-0.9c0.7-0.1,1.4-0.2,2.1-0.4c0.7-0.1,1.5-0.1,2.2-0.2c5.9-0.1,11.5,2.4,15.3,6.8
				c1.9,2.1,3.3,4.8,4,7.5c0.2,0.7,0.3,1.4,0.5,2l0.5,2l0.9,3.9l7.3,31.2l3.8,15.6l3.9,15.6c0.3,1.3,0.7,2.6,1,3.9
				c0.1,0.7,0.2,1.4,0.4,2.1c0.1,0.7,0.1,1.4,0.1,2.1C682.7,280.6,676.7,288.3,668.1,290.5L668.1,290.5z M667.4,287.9
				c7.5-1.7,12.9-8.4,13.2-16.2c0-0.6,0-1.3-0.1-1.9c0-0.6-0.1-1.3-0.3-1.9c-0.2-1.3-0.6-2.6-0.8-3.9l-3.7-15.6l-3.9-15.6l-7.9-31.1
				l-1-3.9l-0.5-1.9c-0.1-0.7-0.3-1.3-0.6-1.9c-2.2-7.3-9.2-12.2-16.8-11.9c-0.6,0-1.2,0.1-1.8,0.2c-0.6,0-1.2,0.2-1.8,0.4l-3.9,1
				l-7.7,2l-15.5,4.1l-31,8.2l-62,16.1c-6.4,1.6-10.8,7.3-10.8,13.9c0,0.5,0,1,0.1,1.6c0,0.5,0.1,1,0.3,1.6l0.1,0.4l0.1,0.5l0.2,1
				l0.5,2l7.7,31.1l7.5,31.2l0.9,3.9l0.5,2l0.2,1c0.1,0.3,0.1,0.5,0.2,0.8c0.6,2,1.5,3.9,2.9,5.5c2.8,3.2,6.9,5.1,11.2,5.1
				c0.5,0,1.1,0,1.6-0.2s1-0.1,1.6-0.3l3.9-0.9l7.8-1.7l15.7-3.5l31.3-6.9C625.8,297.4,646.6,292.7,667.4,287.9L667.4,287.9z"/>
			<path class="st25" d="M517.2,238.5l63.9,25.1c15.9,6.2,32.5,2.3,44.1-10.5l41.4-45.7"/>
			<line class="st25" x1="530.7" y1="294.2" x2="561.8" y2="256"/>
			<line class="st25" x1="676.7" y1="256.3" x2="637.9" y2="239.1"/>
			<path class="st7" d="M657.4,200.9c4.3-0.9,8.1-3.5,10.6-7.1c2.4-3.7,3.2-8.2,2.4-12.5c-1-4.2-3.4-8.3-7.1-10.6
				c-7.7-5.1-18-2.9-23.1,4.7l0,0c-2.4,3.7-3.2,8.2-2.4,12.6c1,4.2,3.4,8.3,7.1,10.6C648.6,200.9,653.1,201.7,657.4,200.9
				L657.4,200.9z"/>
			<text transform="matrix(0.9792 -0.203 0.203 0.9792 646.7839 190.7036)" class="st26 st27 st28">99</text>
		</g>
		<path class="st3" d="M540.1,745.5c1,0.6,2,1,3,1.7l0.3,0.2l-0.3,0.3c-0.7,0.6-1.3,1.3-1.6,2.3c-0.4,0.8-0.4,1.8-0.1,2.6
			c0.1,0.5,0.3,0.8,0.6,1.2c0.3,0.4,0.7,0.7,1,1l0.5,0.4l0.6,0.4l0.6,0.4l0.6,0.3c0.8,0.4,1.7,0.4,2.6,0.4c1-0.1,1.9-0.3,2.8-0.6
			c0.9-0.3,1.9-0.7,2.9-1c0.6-0.2,1.1-0.3,1.7-0.4c0.3,0,0.7,0,1,0.1c0.4,0.1,0.7,0.2,1,0.4l0.5,0.3l0.3,0.3l0.6,0.5l1.1,1
			c0.7,0.7,1.4,1.5,2.2,2.1l1,1.1l1,1.2c0.6,0.8,1.3,1.6,2,2.3c2.6,3.1,5,6.3,7.3,9.7c4.6,6.6,9,13.3,13.4,20l3.4,5
			c1.3,1.7,2.3,3.3,3.6,4.9c2.3,3.2,5,6.2,7.6,9.3c-6-5.5-11.3-11.6-16-18.1c-4.8-6.5-9.2-13.1-13.8-19.7c-2.3-3.2-4.6-6.5-7.1-9.6
			c-0.6-0.8-1.2-1.5-1.9-2.2l-0.9-1.2l-1-1.1c-0.7-0.7-1.3-1.5-2.1-2.1l-1-1l-0.5-0.5l-0.3-0.2c-0.1-0.1-0.1-0.1-0.2-0.1
			c-0.6-0.3-1.4-0.3-2.1,0c-0.9,0.2-1.9,0.6-2.9,0.8c-1.1,0.2-2.1,0.5-3.2,0.5c-1.2,0-2.3-0.2-3.3-0.7l-0.7-0.4l-0.6-0.5l-0.6-0.5
			l-0.6-0.5c-0.4-0.3-0.8-0.8-1.1-1.2c-0.3-0.5-0.6-1-0.8-1.6c-0.2-1.1-0.2-2.3,0.4-3.3c0.5-0.9,1.1-1.7,2-2.4v0.5
			c-0.9-0.7-1.8-1.2-2.8-1.8c-0.9-0.6-1.9-1.1-2.9-1.5C538.4,744.6,539.4,745,540.1,745.5z"/>
		<circle class="st29" cx="718.3" cy="730.4" r="21.1"/>
		<path class="st3" d="M610.2,804.4c-0.7-0.9-1.4-1.7-2.1-2.4c-1.4-1.7-2.7-3.2-4.2-4.8l-8.4-9.4c-5.7-6.2-11.3-12.5-17-18.7
			c-2.9-3.1-5.7-6.2-8.6-9.2c-2.9-3-5.8-6-8.9-8.8c-0.7-0.7-1.5-1.3-2.4-1.8c-0.9-0.6-1.8-0.9-2.7-1.4c-1.9-0.8-3.9-1.6-5.9-2.2
			c-4-1.4-8.1-2.4-12.2-3.3c4.2,0.5,8.4,1.1,12.6,2.2c2,0.5,4,1.2,6.1,1.9c1,0.4,2,0.8,2.9,1.3c1,0.6,1.9,1.2,2.8,1.9
			c6.5,5.6,12.3,11.7,18,17.9s11.2,12.6,16.6,19.1c2.7,3.2,5.3,6.5,7.9,9.9c1.3,1.7,2.5,3.3,3.8,5.1c1.3,1.7,2.4,3.4,3.4,5.3
			C611.4,806,610.7,805.1,610.2,804.4z"/>
		<path class="st3" d="M555.8,746.4c-0.9-0.5-1.8-0.9-2.8-1.3c-0.9-0.4-1.9-0.7-2.9-1c-0.5-0.1-1-0.2-1.5-0.3s-1,0-1.5,0.2
			c0.4-0.5,0.9-0.8,1.5-0.8c0.6-0.1,1.1-0.1,1.7-0.1c1.1,0.1,2.2,0.3,3.2,0.8c1.1,0.5,2,0.9,3,1.6c0.9,0.6,1.6,1.4,2.2,2.4
			C557.7,747.4,556.8,746.8,555.8,746.4z"/>
		<path class="st30" d="M548.6,754.2c-0.4-0.9-3.6,0.5-3.9,2.1"/>
		<path class="st30" d="M545,750.9c-0.1,0-0.2,0-0.3,0c-1.6,0.2-2.9,1.6-2.7,3.3"/>
		<path class="st29" d="M721.8,727.3c0,0-7.3-4.2-5.8-5.7c10.8-45.2-14.3-67.7-18.2-70.6c-1.3-1,10.8,1.1,10.8,1.1
			C719.2,658,734.3,704.5,721.8,727.3"/>
		<circle class="st3" cx="715.8" cy="730" r="20.1"/>
		<circle class="st8" cx="715.8" cy="730.1" r="13.3"/>
		<path class="st31" d="M717.9,747.1c-0.5,0.1-1,0.1-1.5,0.1"/>
		<path class="st32" d="M718.3,713.1c6.5,1,12,5.6,13.9,12c2.7,9.1-2.4,18.6-11.4,21.4"/>
		<path class="st31" d="M715.3,713c0.5,0,1,0.1,1.5,0.1"/>
		<path class="st33" d="M673.6,742.4c14.6,9,30.3-1.4,30.3-1.4"/>
		<circle class="st3" cx="672.6" cy="742.2" r="2.6"/>
		<path class="st34" d="M380.7,528.1l-189.4,19.7c-10.3,1-19.2-7.1-19.6-17.9l-3.9-124.3c-0.3-9.9,6.9-18.2,16.4-19l193.6-14.9
			c10.3-0.8,19.2,7.8,19.1,18.5l-0.3,119.6C396.6,519.3,389.8,527.1,380.7,528.1z"/>
		<path class="st6" d="M189.9,388.3c-6.3,1.4-12.4,3.5-18.2,6.3c-2.6,1.3-4.9,3-6.9,5c-1.6,1.7-2.7,3.9-2.9,6.2c0,0.3,0,0.6,0,0.9
			v0.4l0.3,8.2l0.3,10.1c0.2,6.8,0.4,13.5,0.6,20.3c0.2,6.8,0.4,13.5,0.5,20.3s0.3,13.5,0.3,20.3c0.2,13.5,0.2,27,0.2,40.5l-0.1-0.9
			l0,0c0.1,0.3,0.2,0.8,0.3,1.1c0.1,0.3,0.3,0.8,0.5,1.3c0.4,0.8,0.9,1.7,1.3,2.5c0.9,1.6,2.1,3.1,3.3,4.4c1.2,1.4,2.7,2.6,4.2,3.6
			c1.5,1.1,3.3,1.9,5,2.6l-1.3,4c-2.1-0.6-4.1-1.5-6.2-2.6c-1.9-1-3.8-2.4-5.4-3.9s-3.2-3.2-4.5-5.1c-0.6-0.9-1.3-1.9-1.8-2.8
			c-0.3-0.5-0.5-1-0.8-1.5c-0.3-0.6-0.5-1.2-0.8-1.8l0,0l-0.1-0.3v-0.6c-0.9-13.5-1.7-27-2.4-40.4c-0.3-6.8-0.6-13.5-0.9-20.3
			s-0.5-13.5-0.7-20.3s-0.4-13.5-0.6-20.3l-0.3-10.1l-0.3-8.2v-0.8c0-0.6,0-1.1,0-1.7c0.5-4.4,2.6-8.6,5.9-11.6
			c2.9-2.6,6.3-4.6,10-5.9c3.4-1.3,6.9-2.1,10.4-2.7c3.5-0.5,7.1-0.7,10.6-0.6L189.9,388.3z"/>
		<path class="st34" d="M257.3,540.9l26.1,33c2.2,2.7,6.1,3.2,8.8,1c0.4-0.3,0.7-0.6,1-0.9l33.4-40.3"/>
		<path class="st6" d="M245.6,541c3.9,3.6,7.5,7.3,11.1,11.2c3.5,3.8,6.9,7.8,10.3,11.8l2.5,3l0.6,0.8l0.5,0.6
			c0.3,0.4,0.6,0.8,1,1.1c1.4,1.4,3.2,2.5,5,3.2c1.9,0.8,3.9,1.5,6,1.9c2.6,0.4,5.2,1,7.9,1.9l0.2,1.4c-2.3,1.7-4.9,2.9-7.7,3.5
			c-3.1,0.7-6.3,0.6-9.3-0.4s-5.9-2.6-8.3-4.7c-0.6-0.5-1.1-1.1-1.8-1.6l-0.8-0.9l-0.6-0.8l-2.5-3c-3.3-4-6.5-8.1-9.6-12.3
			s-6.1-8.5-8.8-13L245.6,541z"/>
		<path class="st8" d="M264.4,399l101.7-6.7c4.9-0.4,9.1,3.4,9.5,8.3l0,0c0.4,4.9-3.4,9.1-8.3,9.5l-101.7,6.7
			c-4.9,0.4-9.1-3.4-9.5-8.3l0,0C255.7,403.5,259.5,399.3,264.4,399z"/>
		<path class="st8" d="M261.7,427l110.6-7.3c2.5-0.2,4.6,1.7,4.7,4.2l0,0c0.2,2.5-1.7,4.6-4.2,4.7l-110.6,7.3
			c-2.5,0.2-4.6-1.7-4.7-4.2l0,0C257.4,429.2,259.4,427.1,261.7,427z"/>
		<path class="st8" d="M332.8,487.1c-0.2,0-0.4,0-0.6,0c-3.1-0.4-7.5-3.6-13.2-9.3c-2.7-2.7-5.2-5.6-7.6-8.8l0,0
			c-0.1-0.2-3.7-5.3-2.5-10.3c0.7-2.7,2.5-5.1,5-6.3c3.8-2.2,9.4,0.6,10.6,1.3c1.2-0.6,6.1-3.1,8.1-2.9c13.5,1.6,12.5,16,12.5,16.2
			c0.2,6.3-3.8,13.9-7.7,17.7C336.2,486,334.6,486.8,332.8,487.1z M312.3,468.6c1,1.6,13.4,16.7,20,17.5c1.3,0.2,2.9-0.6,4.6-2.1
			c3.9-3.5,7.7-10.8,7.5-16.9c0.1-0.6,0.9-13.8-11.7-15.2c-1.6-0.1-6.2,2-7.8,2.8c-0.1,0.1-0.3,0.1-0.5,0c-0.1,0-6.1-3.5-9.9-1.4
			c-2.3,1.2-4,3.2-4.6,5.6C308.8,463.6,312.3,468.5,312.3,468.6L312.3,468.6z"/>
		<path class="st8" d="M318.9,452.7c-2.4,0-4.8,0.6-7,1.6c-1,0.5-1.8,1.3-2.4,2.1c-0.7,0.8-1.1,1.7-1.5,2.6c-0.3,1-0.3,2.1-0.3,3.1
			c0,1.1,0.2,2.2,0.5,3.2c0.7,2.1,1.6,4.2,3.1,5.8l1.1,1.3l1.3,1.4c0.8,0.9,1.8,1.8,2.6,2.7c1.8,1.8,3.5,3.6,5.4,5.2
			c1.7,1.6,3.6,3.2,5.5,4.5c0.4,0.3,0.9,0.5,1.3,0.7c0.2,0.1,0.4,0.1,0.6,0.1c0.3,0,0.6,0,0.8,0c1.2-0.1,2.4-0.4,3.5-0.9l0.6,0.8
			c-1,1-2.1,1.8-3.4,2.3c-0.3,0.1-0.7,0.2-1,0.3c-0.4,0.1-0.8,0.2-1.3,0.1c-0.8,0-1.6-0.1-2.3-0.4c-1.3-0.5-2.6-1.1-3.8-1.8
			c-1.1-0.7-2.2-1.4-3.4-2.3c-2-1.5-4.1-3.3-6-5.1c-0.9-0.9-1.9-1.8-2.8-2.8l-1.3-1.5l-1.4-1.7c-0.4-0.6-0.8-1.2-1.3-1.8
			c-0.4-0.6-0.7-1.3-1.1-1.9c-0.3-0.7-0.5-1.4-0.9-2.1c-0.1-0.4-0.2-0.7-0.3-1.1l-0.2-1.1c-0.2-1.5-0.4-2.9-0.3-4.4s0.4-3,1-4.3
			c0.7-1.4,1.5-2.6,2.7-3.7c1.1-1,2.3-1.8,3.7-2.2c2.7-0.9,5.5-0.9,8.2-0.1L318.9,452.7z"/>
		<path class="st35" d="M211.7,462.2c4.2,9,10.2,17,17.9,23.2c4,3.3,8.3,6.1,13.4,7.3c1.6,0.2,3.2,0.1,4.7-0.5
			c1.6-0.8,2.9-1.9,4.1-3.2c1.3-1,1.6-2.9,0.7-4.3c-3.2-5.4-6.4-10.7-9.7-16c-1.2-1.9-3.1-2.1-5-1c-1.2,0.6-2.3,1.3-3.3,2
			c-1.4,1-2.4,0.8-3.5-0.4c-6.1-6-10-13.8-11.2-22.3c-0.7-4.8-0.7-4.8,4-6.2c4-1.2,4.7-2.8,3.3-6.7s-2.8-8.1-4.1-12.3
			c-2-6.4-2.5-6.7-9.2-5.3c-2.1,0.3-3.8,1.6-4.5,3.6c-1.1,2.8-2,5.8-2.5,8.8C205,440.6,207.2,451.8,211.7,462.2z"/>
		<path class="st35" d="M211.7,462.2c-4.5-10.4-6.8-21.6-5-33.5c0.6-3,1.4-5.9,2.5-8.8c0.7-1.9,2.5-3.4,4.5-3.6
			c6.7-1.4,7.2-1.1,9.2,5.3c1.3,4.1,2.7,8.1,4.1,12.3c1.4,4.2,0.6,5.5-3.3,6.7c-4.7,1.4-4.7,1.4-4,6.2c1.2,8.5,5.1,16.3,11.2,22.3
			c1.1,1.2,2.1,1.4,3.5,0.4c1.1-0.7,2.2-1.5,3.3-2c2-1.1,3.9-0.7,5,1c3.4,5.3,6.5,10.6,9.7,16c0.8,1.4,0.6,3.3-0.7,4.3
			c-1.2,1.2-2.6,2.4-4.1,3.2c-1.5,0.6-3.1,0.8-4.7,0.5c-5.1-1.1-9.4-4-13.4-7.3C222.1,479.2,215.9,471.3,211.7,462.2z"/>
		<path class="st36" d="M207.8,465c4.4,9.5,11.2,17.7,19.6,23.7c4.5,3.3,9.4,6,15.3,6.9c1.9,0.2,3.8-0.1,5.5-0.9
			c1.9-1,3.5-2.2,5.1-3.7c1.6-1.3,2-3.1,1.1-4.6c-3.4-5.5-6.9-11.1-10.4-16.5c-1.3-1.9-3.5-2.1-5.7-0.8c-1.4,0.7-2.8,1.5-4,2.3
			c-1.7,1.2-2.9,0.9-4.1-0.3c-6.7-5.9-11-14.2-11.7-23.1c-0.5-5-0.5-5,5.1-6.9c4.7-1.5,5.6-3.3,4.3-7.4c-1.3-4.2-2.8-8.5-4.1-12.8
			c-2-6.7-2.5-7-10.4-5.1c-2.6,0.6-4.5,1.9-5.5,4.2c-1.5,3-2.7,6.3-3.5,9.5C201.5,441.5,202.8,454,207.8,465z"/>
		<path class="st8" d="M206.2,465.7c-1.9-4.5-3.4-9.2-4.2-14c-0.9-4.9-1.1-9.8-0.7-14.6c0.2-2.4,0.6-4.8,1.2-7.2
			c0.5-2.4,1.4-4.7,2.5-7l1.5-3.2c0.6-1.3,1.5-2.4,2.7-3.2c1.1-0.7,2.4-1.3,3.7-1.5c1.2-0.2,2.3-0.6,3.6-0.7
			c0.6-0.1,1.3-0.1,1.9-0.2c0.7,0,1.4,0.1,2.1,0.2c0.8,0.3,1.4,0.8,1.8,1.3l0.3,0.5l0.2,0.5c0.1,0.3,0.3,0.6,0.4,0.9
			c0.4,1.2,0.8,2.3,1.1,3.5l1,3.4l2,6.8c0.3,1.2,0.7,2.2,1,3.5c0.4,1.3,0.4,2.7-0.1,3.9c-0.3,0.6-0.8,1.2-1.2,1.6
			c-0.5,0.4-1.1,0.7-1.7,1c-1.1,0.4-2.3,0.9-3.5,1.2c-1.1,0.2-2.1,0.8-3,1.4c-0.7,0.6-0.5,1.9-0.5,3c0.2,4.7,1.5,9.4,3.5,13.6
			c2.1,4.2,5.1,7.9,8.6,11c0.4,0.3,0.8,0.5,1.3,0.6c0.5,0,1-0.1,1.4-0.4c1-0.6,2-1.4,3-1.9c0.5-0.3,1-0.5,1.6-0.8s1.2-0.5,1.8-0.7
			c0.7-0.1,1.3-0.1,2,0c0.7,0.2,1.3,0.5,1.8,0.9c0.2,0.2,0.5,0.5,0.7,0.8l0.5,0.8l0.9,1.5l2,2.9l3.9,6l2,2.9l0.9,1.5l0.5,0.8
			c0.2,0.3,0.3,0.7,0.4,1.1c0.2,0.8,0.3,1.6,0,2.3c-0.3,0.7-0.6,1.3-1.1,1.9c-0.5,0.5-1,0.9-1.4,1.3s-0.9,0.8-1.4,1.2
			c-1,0.8-2.1,1.6-3.2,2.1c-1.2,0.5-2.5,0.9-3.8,1c-0.7,0-1.3,0-2,0c-0.6-0.1-1.2-0.2-1.8-0.3c-1.2-0.3-2.4-0.5-3.6-1
			c-4.7-1.7-9-4.1-12.8-7.1c-3.9-3-7.4-6.4-10.4-10.2C210.9,474.3,208.3,470.1,206.2,465.7z M209.5,464.3
			c3.9,8.4,9.7,15.8,16.9,21.7c3.5,3,7.5,5.4,11.7,7.1c1,0.4,2.1,0.7,3.2,1c0.5,0.2,1.1,0.3,1.6,0.3s1,0.1,1.5,0.1
			c1.1,0,2.1-0.3,3.1-0.7c1-0.4,2-1,2.7-1.7c0.5-0.3,0.9-0.7,1.4-1s1-0.7,1.3-1c0.7-0.6,1-1.4,0.8-2.3c-0.1-0.2-0.1-0.4-0.2-0.6
			l-0.4-0.8l-0.9-1.5l-1.9-3l-3.7-6.1l-1.9-3l-0.9-1.5l-0.5-0.8c-0.1-0.2-0.3-0.4-0.5-0.6c-0.7-0.7-1.8-0.9-2.8-0.7
			c-0.5,0.1-1.1,0.2-1.6,0.6c-0.5,0.2-1.1,0.5-1.6,0.8c-1.1,0.5-2,1.2-3,1.8c-0.6,0.4-1.3,0.5-2,0.6c-0.7-0.1-1.3-0.3-1.9-0.7
			c-3.7-3.2-6.6-7-8.8-11.3c-2.1-4.3-3.4-9.1-3.6-13.9c0-0.6,0-1.2-0.1-1.9c0-0.7,0.3-1.4,0.7-1.9c0.5-0.4,1.1-0.8,1.7-1.1
			s1.2-0.4,1.7-0.7c1.1-0.3,2.2-0.8,3.3-1.2c1-0.4,1.8-1.2,2.3-2.1c0.3-1,0.2-2.1-0.1-3.1c-0.3-1.1-0.8-2.3-1.1-3.4l-2.3-6.7
			l-1.1-3.4c-0.3-1.1-0.7-2.2-1.1-3.3c-0.1-0.2-0.2-0.5-0.3-0.7l-0.2-0.3l-0.2-0.3c-0.2-0.3-0.6-0.6-0.9-0.7c-1-0.2-2-0.1-3,0.2
			c-1.1,0.2-2.3,0.6-3.4,0.8c-1,0.2-2,0.7-2.9,1.3c-0.8,0.5-1.4,1.3-1.7,2.3l-1.4,3.2c-0.9,2.1-1.6,4.3-2,6.6
			c-0.4,2.3-0.8,4.5-0.9,6.8C204,446.5,205.6,455.8,209.5,464.3L209.5,464.3z"/>
	</g>
</g>
</svg>
