<?xml version="1.0" encoding="utf-8"?>
<!-- Generator: Adobe Illustrator 25.2.3, SVG Export Plug-In . SVG Version: 6.00 Build 0)  -->
<svg version="1.1" id="Capa_1" xmlns="http://www.w3.org/2000/svg" xmlns:xlink="http://www.w3.org/1999/xlink" x="0px" y="0px"
	 viewBox="0 0 1010.2 1080" style="enable-background:new 0 0 1010.2 1080;" xml:space="preserve">
<style type="text/css">
	.st0{fill:#F0FAEF;}
	.st1{fill:#E73847;}
	.st2{fill:#E54754;}
	.st3{fill:#F29AA8;}
	.st4{fill:#B05656;}
	.st5{fill:#A8DADB;}
	.st6{fill:#80D8FF;}
	.st7{fill:#46758F;}
	.st8{fill:#F9C553;}
	.st9{fill:#F6ECAA;}
	.st10{fill:#F4E07B;}
	.st11{fill:#0F2633;}
	.st12{fill:#97303C;}
	.st13{fill:#1D3557;}
	.st14{fill:#457B9D;}
	.st15{fill:none;stroke:#0F2633;stroke-width:0.6397;stroke-miterlimit:10;}
	.st16{fill:none;stroke:#0F2633;stroke-width:0.3198;stroke-miterlimit:10;}
	.st17{opacity:0.3;fill:none;stroke:#0F2633;stroke-width:0.3198;stroke-miterlimit:10;enable-background:new    ;}
	.st18{opacity:0.3;}
	.st19{fill:#FFFFFF;}
	.st20{fill:#9E2137;}
	.st21{fill:none;stroke:#0F2633;stroke-width:1.0727;stroke-miterlimit:10;}
	.st22{fill:none;stroke:#0F2633;stroke-width:0.7294;stroke-miterlimit:10;}
	.st23{fill:#F98A97;}
	.st24{fill:none;stroke:#0F2633;stroke-width:0.7509;stroke-linejoin:round;}
	.st25{fill:none;stroke:#0F2633;stroke-width:0.8474;stroke-miterlimit:10;}
	.st26{fill:none;stroke:#0F2633;stroke-width:0.7831;stroke-miterlimit:10;}
	.st27{fill:none;stroke:#0F2633;stroke-width:0.8045;stroke-miterlimit:10;}
	.st28{fill:none;stroke:#0F2633;stroke-width:0.5363;stroke-miterlimit:10;}
	.st29{fill:none;stroke:#0F2633;stroke-width:1.4803;stroke-miterlimit:10;}
	.st30{fill:none;stroke:#0F2633;stroke-width:1.2979;stroke-miterlimit:10;}
	.st31{fill:none;stroke:#0F2633;stroke-width:1.5661;stroke-miterlimit:10;}
	.st32{fill:#100D0D;stroke:#0F2633;stroke-miterlimit:10;}
	.st33{fill:none;stroke:#0F2633;stroke-width:2.2741;}
	.st34{fill:none;stroke:#0F2633;stroke-width:2.2204;stroke-miterlimit:10;}
	.st35{fill:none;stroke:#0F2633;stroke-width:1.9523;stroke-miterlimit:10.0007;}
	.st36{font-family:'ShowcardGothic-Reg';}
	.st37{font-size:22.9231px;}
	.st38{fill:none;stroke:#0F2633;stroke-width:1.4267;stroke-miterlimit:10;}
	.st39{fill:none;stroke:#0F2633;stroke-width:1.4312;stroke-miterlimit:10.0333;}
	.st40{fill:none;stroke:#2D8464;stroke-miterlimit:10;}
	.st41{fill:#2D8464;stroke:#2D8464;stroke-width:1;stroke-miterlimit:10.0014;}
	.st42{fill:#2D8464;stroke:#2D8464;stroke-miterlimit:10;}
	.st43{fill:#2D8464;stroke:#2D8464;stroke-width:1;stroke-miterlimit:9.9996;}
	.st44{fill:none;stroke:#0F2633;stroke-width:0.7509;stroke-miterlimit:10;}
	.st45{fill:none;}
</style>
<g>
	<g>
		<path class="st0" d="M138.1,712.3c14.1,37.2,74.4,7.5,129.4-28.3c11.4,34.4,119.1,80.9,145.2-34.5c45-32.2,103.5-1.6,94.7-61.2
			c58.6-23.9,180.7-55.6,121.9-59.8c58.8,4.2,63.1-6.4,3.5-8.8c-27.5-21-18.3-81.7-152.2-71.1c-75.1-12.5-99.4-28.1-125.9-27.9
			C338,387.3,248.6,261.2,209.8,295.6c-24.2-41.9-208.8-4.5-94.7,150.9c28.4,131.3-205.9,240-70.4,249.4
			C66.5,780,99.8,752.9,138.1,712.3z"/>
	</g>
</g>
<g>
	<g id="Capa_2_1_">
		<g id="Color">
			<path class="st1" d="M920.3,455.1c-4.6-20.5-12.7-30.4-22-33.6c-9.5-4.3-20.9,5.4-24.9,31.8c-0.4,1.7,0.3,3.5,1.7,4.5
				c1.2,0.7,3.2,0.5,4.2,1.9c0.1,0.1,2.4,1.7,3.3,2.6c0.1,0.1,0.3,0.2,0.4,0.3c1.2,0.9,7,5.4,6.4,6.7L889,470
				c-0.1,0.4-0.3,0.8-0.6,1.1c-1.9,4.1-27.7,15.6-27.5,47.2c0.2,21.2,21.9,25.2,37,22.7c16.1-1.9,27.1-11.5,33.1-19.9
				c6.2-8.7,7.5-16.1,6.3-22.5C934.5,487.8,920.7,460.3,920.3,455.1z"/>
			<path class="st2" d="M858.2,328.5c-2.4,4.1-4.8-1.8-8.7,1.2s1.5,7.1,3.5,7"/>
			<path class="st3" d="M878.5,458.8c4.3,3.4,9.5,6,15.1,6.3c1.3-0.1,2.4-1,2.8-2.3c2.9-9.3,5-21.8,0.2-26.5
				c-3.5-8.7-13.3,12.3-18.4,19.7C877.6,456.9,877.7,458.1,878.5,458.8z"/>
			<path class="st4" d="M869.1,301.2c3.2-3.8,15.7-0.5,17.8,7.5c0.1,0.3-0.1,0.6-0.4,0.7c-0.2,0.1-0.4,0-0.5-0.1
				c-2.6-2.3-8.5-7.1-12.4-5.9C868.4,304.9,869.1,301.2,869.1,301.2z"/>
			<path class="st5" d="M234.9,539.3c-0.1-0.4-0.2-0.7-0.3-1.1c-3.6-9.3-13.3-20.5-22.1-22.8c-7.1-1.4-13.4,5.4-16.9,15
				c-1.2-1.6-3.2-2.6-5.2-2.6c-4.4,0.1-8.9,4.8-10.1,10.3v0.1c-7.7,1.3-14.3,6.4-17.3,13.6c-2.9,7.3,2.8,16.1,13.1,18.2
				c19.7,4,40.1,3.2,59.4-2.3c10.3-3.5,15.8-12.7,12.8-18.5C246,544.8,240.5,541.4,234.9,539.3z"/>
			<path class="st6" d="M557.7,474.3c2.8-6.2,6.8-9.3,10.6-5.5c3.8,4,7.4,7.5,6.7,11.5c-0.7,4.3-7.7,11.2-13.6,9.2
				C555.6,487.4,555,480,557.7,474.3z"/>
			<path class="st7" d="M332.7,473.7c-6.5-6.2-11.5-2.3-15.2,5c-3.6,6.7-3.4,15.7,5.8,20.6c1.7,0.8,3.5,1.4,5.3,1.9l1.1,0.3
				c0.3,0.1,0.6,0.1,1,0.2c9,0.6,13.8-5.9,15.4-10.4c0.1-0.2,0.2-0.5,0.2-0.7c0.1-0.2,0.1-0.5,0.1-0.7c0.2-4.5-2.3-6.8-8.3-11.8
				l-0.7-0.5c-0.2-0.2-0.5-0.4-0.8-0.6C335,475.7,333.1,474.1,332.7,473.7z"/>
			<path class="st7" d="M500.5,572.8c-0.5,2.3-1.4,6.1-2.8,11.3c-0.6,2.4-1.4,5.7-2.5,10c-1.3,0.2-2.5,0.3-3.8,0.4
				c-0.2-1.8-0.6-4.9-0.9-9.1c-0.8,2.3-2,5.4-3.5,9.3c-1.3,0-2.6,0-3.8-0.1c-0.1-1.9-0.3-5-0.3-9.1c0-2.2-0.1-5.2,0.2-8.6
				c2-0.4,3.9-0.8,5.8-1.2c0,0.8-0.1,2-0.2,3.7s0,3.2,0.1,4.8c0.3-0.7,0.8-2,1.4-3.7c0-1.4-0.1-3.1-0.1-5.1c1.7-0.4,3.5-0.9,5.2-1.3
				c0,0.8,0,2.1,0,3.9c0,1.2,0.1,2.9,0.2,5.2c0.5-1.9,0.9-3.7,1.3-5.6c0.2-1.1,0.5-2.5,0.9-4.2L500.5,572.8z"/>
			<path class="st7" d="M516.3,569.3c0,2,0.2,5.4,0.2,10.1c0,2.1,0.1,5.3,0.1,9.2c-1.1,0.4-2.3,0.8-3.5,1.2
				c-0.6-1.6-1.8-4.4-3.1-8.5c-0.2,2.4-0.5,5.6-0.9,9.8c-1.2,0.3-2.4,0.7-3.6,1c-0.6-1.9-1.6-5-2.7-9.3c-0.6-2.4-1.5-5.7-2.3-9.9
				c1.8-0.5,3.6-1,5.4-1.4c0.2,0.8,0.4,2.1,0.8,4s0.9,3.3,1.3,5c0.1-0.8,0.2-2.1,0.4-3.9c-0.4-1.4-0.9-3.2-1.4-5.4
				c1.6-0.4,3.1-0.7,4.6-1.1c0.2,0.8,0.5,2.1,1,3.8c0.3,1.2,0.8,2.8,1.5,4.9c0-1.7-0.1-3.5-0.2-5.2c0-1-0.1-2.3-0.2-3.9
				C514.6,569.5,515.4,569.4,516.3,569.3z"/>
			<path class="st7" d="M529.4,570.3c1.2,1.8,2.2,3.6,3.2,5.5c0.7,1.3,1.6,3,2.8,5.5l-2.9,1.2c-1.9-1.8-3.6-3.7-5.1-5.7
				c0.4,1.7,1.1,4,1.7,7.1l-3.1,1.2c-1.8-2.3-3.4-4.7-4.9-7.2c-1.7-2.8-3.2-5.6-4.6-8.6c1.5-0.2,3-0.3,4.5-0.3
				c0.3,0.7,0.9,1.8,1.8,3.3c0.9,1.5,1.6,2.6,2.5,3.9c-0.1-0.6-0.3-1.5-0.7-2.9c-0.7-1.1-1.6-2.5-2.6-4.3c1.3,0,2.6,0.1,3.8,0.4
				c0.4,0.6,1.1,1.5,1.9,2.7c0.6,0.8,1.5,1.9,2.7,3.2c-0.5-1.1-1.1-2.1-1.6-3.2c-0.3-0.6-0.8-1.4-1.3-2.4
				C528.1,569.8,528.7,570.1,529.4,570.3z"/>
			<path class="st8" d="M378.1,592.4c-1,9.3-8.3,16.6-17.5,17.5c-9,0.7-17-6.3-17.9-15.6s7-17.2,17.5-17.5
				C370.8,576.4,378.8,583.4,378.1,592.4z"/>
			<path class="st7" d="M222,335.7c-4.8,0-4.8,7.4,0,7.4S226.8,335.7,222,335.7z"/>
			<path class="st7" d="M233.5,329.9c-5.9-6.5-15.9-6.9-22.4-1.1c-0.5,0.5-1,1-1.4,1.5c-1.1,1.2-1.1,3,0,4.2c1.2,1.2,3,1.2,4.2,0
				c0.5-0.6,1.1-1.2,1.7-1.7l0.2-0.1c0.2-0.2,0.4-0.3,0.6-0.4c0.3-0.2,0.7-0.4,1.1-0.6c0.6-0.3,1.2-0.5,1.9-0.7
				c0.4-0.1,0.8-0.2,1.2-0.2h0.1c0.3,0,0.5,0,0.8,0s0.8,0,1.2,0h0.2l0.5,0.1c0.8,0.2,1.5,0.4,2.3,0.7l0.2,0.1l0.5,0.3
				c0.4,0.2,0.8,0.5,1.2,0.7l0.3,0.2l0.3,0.3c0.3,0.3,0.7,0.6,1,1c1.1,1.2,3,1.3,4.2,0.1c1.2-1.1,1.3-3,0.1-4.2
				C233.6,330,233.5,329.9,233.5,329.9L233.5,329.9z"/>
			<path class="st7" d="M239.9,320.9c-10.7-9.1-26.6-8.8-37,0.7c-2.9,2.6,1.4,6.7,4.2,4.2c8.1-7.2,20.1-7.4,28.6-0.7
				c1.2,1.1,3,1.1,4.2,0s1.4-2.9,0.2-4.2C240.1,320.9,240,320.9,239.9,320.9z"/>
			<path class="st1" d="M450.1,475.1c3.2,11.8-0.2,19-10.1,21.7c-2.7,0.8-5.6,0.6-8.1-0.8c-0.9,1.9-2.6,3.4-4.7,4.1
				c-2.2,0.7-4.6,0.4-6.6-0.9c-1.7-1.2-3-2.9-3.5-5c-0.6-2.3-0.2-4.8,1.2-6.7c1.2-1.8,3-3.1,5.1-3.7c0.8-0.2,1.7-0.3,2.6-0.2
				c-0.4-1.3-1.3-2.3-2.4-3.1c-1.1-0.8-2.5-1-3.8-0.7c-0.4,0.1-0.9,0.3-1.3,0.5l1.3-9.7c2-0.8,4.2-1.2,6.3-0.9
				c3.3,0.5,6,2.5,7.9,6.1c1.5,3.4,2.8,6.8,3.9,10.3c0.9,2.6,2.1,3.8,3.6,3.3s2.4-1.8,2.7-4.1c0.2-2.6-0.1-5.2-0.8-7.7
				c-1.5-5.5-4.5-9.3-9.1-11.3c-3.8-1.7-8-1.9-12-0.8c-4.8,1.3-9,4.4-11.4,8.8c-2.6,4.2-3.4,9.3-2.1,14c1.1,4.8,3.9,9,7.9,11.8
				c4.3,3,9.7,3.9,14.7,2.5c1-0.2,2.1-0.6,3.4-1l1.5,5.6c-1.4,0.5-2.9,1-4.4,1.4c-5.4,1.5-11.2,1-16.3-1.3
				c-6.9-3-11.5-8.6-13.6-16.7c-2-7.4-1.1-14,2.7-20c3.6-5.7,8.9-9.5,16.1-11.4c5.9-1.7,12.3-1.2,17.9,1.6
				C444.5,463.7,448.6,468.9,450.1,475.1z M429.8,492.4l-1.5-2.7c-2.1,0.3-3,1.1-2.6,2.5c0.1,0.9,0.9,1.5,1.8,1.4
				c0.2,0,0.3-0.1,0.4-0.1C428.6,493.3,429.3,492.9,429.8,492.4z"/>
			
				<ellipse transform="matrix(0.3668 -0.9303 0.9303 0.3668 -34.113 996.4737)" class="st9" cx="715" cy="523.3" rx="6.7" ry="2.3"/>
			<path class="st10" d="M715.7,529.4c2.5-3.4,3.4-10.5,3.4-10.5s13.2,5.8,14.2,5.9c1,0.1,3,1.6,3.7,1.9c0.6,0.4,7.3,3.1,7.3,3.1
				l7.5,2.1l-4.3,7l-10.9-4c0,0-4-1.2-4.5-0.7s-3.6-0.6-5.1-1.3s-1.6-0.5-3.4-0.9C721.8,531.5,715.3,530.1,715.7,529.4z"/>
			<path class="st10" d="M767.2,544.5c-0.1-1.5,1.8-5.6,1.8-5.6s2.4,0.4,3,1.2c0.7,0.8,1,6-1.2,5.8
				C769.6,545.8,768.3,545.3,767.2,544.5z"/>
			<path class="st11" d="M1002.3,787.4c-17,1.1-33.5-2.4-49.6-2.6c-16.1-0.2-32.3,3.6-49.2,4.2c-4.2,0-8.2,0.3-12.4,0.3
				c-2.1,0-4.2,0-6.2,0s-4.2,0-6.2,0c-8.3-0.1-16.6-0.4-24.9-0.8c-16.5-0.8-33-1.7-49.3-1.8c-32.8-0.2-65.7,3.7-99.1,2.9
				c-16.7-0.2-33.3-2-49.6-3.6c-8.2-0.8-16.4-1.4-24.5-1.7c-8.2-0.3-16.3-0.1-24.5,0.2c-16.4,0.8-32.9,2.4-49.6,2.7
				c-4.2,0.1-8.4,0-12.5-0.1l-12.4-0.2c-8.3-0.2-16.5-0.4-24.8-0.7c-33-1.1-66-2.8-99-3.6c-16.5-0.4-32.9-0.5-49.4-0.3
				c-8.3,0.1-16.5,0.3-24.7,0.5l-24.7,0.7c-33,1-66.1,2.1-99.1,1.4c33-1.4,65.9-3.9,98.9-5.8c33-2,66.1-3.3,99.2-2.7
				s66.1,2.2,99.1,3.2c8.2,0.2,16.5,0.5,24.7,0.6l12.4,0.2c4.1,0.1,8.2,0.1,12.3,0c16.3-0.3,32.7-2,49.3-2.9
				c8.3-0.4,16.7-0.6,25-0.3c8.4,0.3,16.7,0.9,24.9,1.7c16.5,1.5,32.8,3.4,49.1,3.6c32.7,0.9,65.7-2.8,99-2.5
				c16.6,0.1,33.2,1.1,49.6,2c8.2,0.4,16.5,0.8,24.7,1c2,0.1,4.1,0.1,6.2,0.1c2,0,4.1,0,6.1,0c4.1,0,8.3-0.2,12.3-0.2
				c16.1-0.3,32.5-4,49.5-3.7c8.5,0.2,16.7,1.2,24.9,2.1c8.1,1,16.2,1.4,24.3,1.2l0,0c1.3-0.1,2.5,1,2.5,2.3
				C1004.5,786.2,1003.5,787.3,1002.3,787.4L1002.3,787.4z"/>
			<path class="st12" d="M926.5,742.5c-2.8-3.4-7.6-9.2-6.5-4.2c1.1,5.2-5.4,7.5-9.5,7.8s-7.3,2.3-7.2,5.3c0,3-6.7,11.3-9.7,12.4
				s-8.6,3.1-2.6,6.9c0,0,8,1.7,10.7,0s5.8-2.2,12.1-5s2.8-10.9,8.2-10.5s8.7-5.7,10.9-8.6s-3.4-0.4-6.1-3.8L926.5,742.5z"/>
			<path class="st1" d="M802.1,771.5c3.7-2.1,14.8-4.3,18.8-5.7c4-1.5,8.9-3.4,11.6-6.2c2.6-2.8,2.3-6.7,4.2-4.3s-4.3,3.9,1.4,5.2
				c5.7,1.2,10.7,3.1,13.3,1.6s1.5-4.3,3.8-3.5s3.3,3.9,3.6,6.6s2,9.9,2,9.9s-1.6,2.3-6.3,2.5s-5.8,1.2-7,0s-2,0.1-4.8,0.6
				s-24.3,2.5-29.6,1s-10.6-3.9-10.9-5.3C801.9,773,801.9,772.3,802.1,771.5z"/>
			<path class="st13" d="M713.8,722.3c0.5-3.4,2-7,4.4-8.7c1-0.7,2-1,2.7-2c0.7-1.1,1-2.3,0.8-3.6c-0.1-1.3-0.1-2.5,0-3.8
				c0.1-1.3,0.7-2.5,1.5-2.8c0.8-0.3,2,0.6,3,0.7c1.2,0.1,2-0.7,2.6-1.3c0.6-0.7,1.3-1.4,2.1-1.1c0.9,0.2,2.3,1.8,2.7,2.9
				s-0.2,1.3-1,1.4c-0.8,0.1-1.7,0.2-2.1,1.1c-0.4,0.9,0.2,2.3,0.9,3.3c0.7,1,1.7,1.8,2.3,2.7c0.7,0.8,1.1,1.8,0.6,2.7
				c-0.5,0.9-2,1.4-3.3,1.9s-2.7,1.7-2.6,3c0.1,0.9,0.9,1.4,1.3,2.1c0.6,1.1-0.2,2.9-1.4,4.3c-1.3,1.3-2.8,2.4-4.5,3.2
				c-1.7,1-3.5,1.8-5.2,2.6c-1,0.5-3.6,2-4.4,1.3c-0.8-0.7-0.7-3.4-0.7-4.5C713.6,725.9,713.6,724.1,713.8,722.3z"/>
			<path class="st7" d="M718.9,738.3L718.9,738.3c-0.2,0.1-0.5,0-0.6-0.2c0-0.1-0.1-0.2,0-0.2c1-14.3,6.9-31.5,12.5-36.2
				c0.1-0.1,0.4,0.1,0.7,0.3c0.2,0.3,0.2,0.6,0.1,0.7c-5.4,4.3-11,21.1-11.9,34.9C719.5,737.8,719.2,738.2,718.9,738.3z"/>
			<path class="st5" d="M731,699.7c-0.5-0.1-1.1,0.1-1.6,0.5h0.1c1,0.1,1.7,0.6,2.2,1.4c0.5,0.7,0.4,1.4,0.1,1.7
				c-0.4,0.3-0.8,0.5-1.3,0.7c-1.2,0.9-1.4,3.6-0.3,5.5c0.4,0.7,1,1.3,1.4,1.9c0.5,0.6,0.5,1.4,0.1,2.1c-0.8,1-2.6,0.6-3.8,1.1
				c-1.3,0.5-1.8,2.1-1.8,3.5c0.1,1.3,0.4,2.6,0.9,3.8c0.5,1.3,0.6,2.6,0.2,3.9c0.4-0.3,0.7-0.6,1-1c1.3-1.4,2-3.2,1.4-4.3
				c-0.4-0.7-1.1-1.2-1.3-2.1c-0.1-1.4,1.3-2.5,2.6-3c1.3-0.5,2.7-1,3.3-1.9c0.6-1,0.1-1.8-0.6-2.7c-0.7-0.9-1.6-1.7-2.3-2.7
				c-0.7-1-1.2-2.4-0.9-3.3c0.3-0.9,1.3-1,2.1-1.1c0.8-0.1,1.4-0.4,1-1.4C733.4,701.6,732,700,731,699.7z"/>
			<path class="st6" d="M705.3,730.6c-0.3-3.7,0.9-7.3,3.3-10.2c0.8-0.8,1.5-1.6,2.1-2.5c1.3-2.1,1-4.7,0.2-6.7
				c-0.8-2.4-2.2-4.7-2.3-7.6c-0.1-1.3,0.2-2.4,0.7-3.6c1.4-3,3.6-1.3,5.4-2.1c1.5-0.7,2.1-2.7,2.1-4.7c0.1-2-0.2-4.2,0.2-6
				c0-0.2,0.1-0.3,0.1-0.5c0.5-2,2.9,0,3,2.2c0.1,1.8,0.3,3.5,0.4,5.2c0,0.4,0.1,0.9,0.2,1.3c0.6,1.7,2.4,2.3,3.8,3.1
				c1.5,1,2.7,2.3,3.6,3.8c0.7,1.2,0.5,2.6-0.4,3.6c-1.3,1.4-4,2.6-4.6,4.9c-0.3,1.3,0.2,2.5,0.6,3.7c1,3.2,0.2,7.1-2.5,11.6
				c-2.2,3.6-6.1,8.1-9.9,9.7C708.1,737.7,705.7,733.9,705.3,730.6z"/>
			<path class="st7" d="M717.6,737.7c-0.4,0.2-0.7,0.1-0.7-0.2c-0.6-14.8,0.4-31,1.7-45c0-0.3,0.2-0.4,0.5-0.3
				c0.3,0.2,0.4,0.5,0.4,0.8c-1.2,13.5-2,29.4-1.3,43.7C718.2,737.1,718,737.4,717.6,737.7L717.6,737.7z"/>
			<path class="st7" d="M728.3,702.4c-0.8-1.6-2.1-2.9-3.6-3.8c-1.4-0.9-3.2-1.4-3.8-3.1c-0.1-0.4-0.2-0.8-0.2-1.3
				c-0.2-1.7-0.3-3.5-0.4-5.2c-0.2-2.2-2.5-4.2-3-2.2c-0.1,0.2-0.1,0.3-0.1,0.5c-0.4,1.8-0.1,4-0.2,6c-0.1,2-0.7,4.1-2.2,4.8
				c-1.8,0.8-4-0.9-5.4,2.1c-0.4,0.8-0.6,1.7-0.7,2.6c0.1,0,0.2-0.1,0.3-0.2c0.3-0.4,0.5-0.9,0.8-1.3c0.4-0.4,0.7-0.7,1.2-0.8
				c1-0.5,2.1-0.6,3.1-1c2.3-1,3.8-3.6,3.5-6.6c-0.1-0.8-0.1-1.6-0.1-2.3c0.1-0.7,0.5-1.3,1-1.1c0.8,0.3,1.3,1.8,1.4,2.9
				c0.1,1.9-0.5,3.7,0.2,5.6c0.7,1.7,2.3,2.7,3.6,3.8s2.8,2.4,2.6,3.6c-0.3,1.6-2.8,2-4,3.6c-0.8,1.3-1,2.9-0.4,4.4
				c0.5,1.1,1.3,2.1,2.3,2.9c-0.1-0.5-0.2-0.9-0.3-1.4c-0.4-1.1-0.9-2.4-0.6-3.7c0.5-2.4,3.3-3.5,4.6-4.9
				C728.9,705,729.1,703.6,728.3,702.4z"/>
			<path class="st14" d="M714,713.8c-1.3-1.7-3.6-3.8-5.8-3.8c-0.7,0-1.3-0.1-1.8-0.4c-2.8-1.4-1.4-4.5-2.5-6.7
				c-0.5-1.1-1.4-1.8-2.6-2.1c-0.9-0.2-1.8,0.1-2.7,0c-1.3-0.1-2.6-1-3.8-1.6s-2.4-0.9-3.7-0.1H691c-1.6,1.2-1.8,4.8-0.2,4.9
				c0.8,0.1,1.7,0.4,2.3,1c1.6,1.6,2.3,3.9,1.7,6.1c-0.5,2-2.4,4-1.8,6c0.2,0.7,0.7,1.2,1.4,1.4c1.7,0.3,3.3-1.1,4.9-0.8
				c0.7,0.1,1.3,0.5,1.6,1.1c0.8,1.6-0.8,3.5-1,5.4c-0.2,2,1.3,3.5,3,3.9c2.3,0.5,4.7,0.1,6.7-1.2c1.4-0.9,2.7-2.1,3.5-3.6
				c-0.1,0.2-0.1,0.4-0.2,0.7c0.9-1.8,1.6-3.6,2-5.6C715.5,716.9,715.1,715.2,714,713.8z"/>
			<path class="st7" d="M711.6,731.6c-0.4,0.2-0.7,0.1-0.7-0.1c-1-5.2-3.6-9.8-6.8-15.1c-3.3-5.2-7-11-10.8-14.6
				c-0.2-0.3-0.2-0.7-0.1-1c0.1-0.4,0.4-0.5,0.7-0.3c3.8,3.8,7.7,9.8,11.1,15.1c3.4,5.4,6.1,9.9,7.2,15
				C712.2,731.1,711.9,731.4,711.6,731.6L711.6,731.6z"/>
			<path class="st5" d="M702.9,717.8c-0.7-0.7-1.6-1-2.6-0.9c-0.9,0.2-1.8,0.2-2.7,0.2c-1-0.1-1.8-1-1.9-2c-0.2-1.7,1.2-3,1.6-4.6
				c0.3-1.7-0.1-3.6-1.3-4.9c-1-1.2-2.1-1.8-3.1-2.7c-0.7-0.7-1.1-1.7-0.8-2.6c0.1-0.7,0.6-1.2,1.2-1.4c0.5-0.1,1,0.1,1.4,0.3
				c0.9,0.4,1.8,1,2.8,1.5c0.5,0.3,2,1.7,2,0.4c0-0.1,0-0.2,0-0.2c-0.2,0-0.5,0-0.7,0c-1.3-0.1-2.6-1-3.8-1.6s-2.4-0.9-3.7-0.1h-0.1
				c-1.6,1.2-1.8,4.8-0.2,4.9c0.8,0.1,1.7,0.4,2.3,1c1.6,1.6,2.3,3.9,1.7,6.1c-0.5,2-2.4,4-1.8,6c0.2,0.7,0.7,1.2,1.4,1.4
				c1.7,0.3,3.3-1.1,4.9-0.8c0.7,0.1,1.3,0.5,1.6,1.1c0.8,1.6-0.8,3.5-1,5.4c0,0.2,0,0.5,0,0.7c0.9-1,1.7-2,2.5-3
				C703.5,720.6,703.8,718.9,702.9,717.8z"/>
			<path class="st13" d="M717.3,708.1c-1.3-0.7-2.8-1-3.8-2.1c-1.1-1.4-1.1-3.3-1.2-5.1c-0.1-1.7-0.6-3.9-2-5.1
				c-1.7-1.6-3.7-0.2-5.4-1.4c-1.2-0.8-1.8-2.6-2.5-4.3c-0.6-1.6-1.4-3.1-2.6-4.4c-1.1-1.1-2.3-1.4-3.5-0.6c-1.1,0.9-2,3-1.9,4.9
				c0.2,1.9,1.3,3,2.3,4.1s2.2,2.5,2.2,4.5c0,2.4-1.7,4.1-2.7,6.1c-0.8,1.9-1,4-0.5,6c0.4,1.7,1.8,3,3.5,3.4
				c1.2,0.2,2.4-0.2,3.6-0.3s2.6,0.2,3.3,1.3c1,1.5,0.2,3.7-0.1,5.7c-0.4,2.6,0.1,5.1,1.6,6.6c2.2,2.6,9.1,1.4,11.3-3.4
				c1-2,1.3-3.9,1.8-5.7c0.8-2.3,1.2-4.2,0.5-6C720.7,710.5,719.2,709,717.3,708.1z"/>
			<path class="st15" d="M700.2,729.6l4.4,49c0.2,2.1,1.9,3.6,4,3.6h14.3c2.1,0,3.9-1.6,4-3.7l3.7-49H700.2z"/>
			<path class="st11" d="M721,770.8c-0.8-0.5-1.6-1.1-2.3-1.9c-0.7-0.8-1.6-1.6-2.6-2.1c-1.6-0.7-3.4-0.2-4.7,0.2
				c-0.7,0.3-1.4,0.7-2,1c-0.7,0.4-1.4,0.7-2.1,1c-1.2,0.4-2.4,0.7-3.7,0.7l0.1,0.7c1.3,0,2.6-0.2,3.8-0.7c0.7-0.3,1.4-0.6,2.1-1
				c0.7-0.3,1.3-0.7,1.9-0.9c1.1-0.4,2.7-0.8,4.1-0.2c0.9,0.5,1.7,1.1,2.4,1.9c0.7,0.8,1.5,1.5,2.4,2c0.7,0.3,1.4,0.5,2.1,0.5
				c1.1,0,2.3-0.3,3.3-0.7c0.5-0.2,1-0.4,1.4-0.7l0.1-0.8c-0.5,0.3-1.1,0.5-1.7,0.8C724.5,771,722.6,771.5,721,770.8z"/>
			<path class="st11" d="M701.2,740.9c2.4,0.8,4.9,0.5,7.2-0.8c0.7-0.5,1.4-1,2-1.6c1.1-1,2.1-1.8,3.4-2.1c2.1-0.4,4.2,1.1,6.1,2.6
				c1.7,1.4,3.6,2.7,5.6,2.7c0.4,0,0.7-0.1,1.1-0.1c1-0.3,1.8-0.8,2.6-1.4c0.2-0.2,0.5-0.3,0.7-0.5l0.1-0.8
				c-0.4,0.2-0.8,0.5-1.1,0.7c-0.7,0.6-1.6,1-2.4,1.3c-2.1,0.5-4.2-0.9-6.1-2.5c-1.9-1.6-4.2-3.3-6.6-2.8c-1.5,0.3-2.6,1.3-3.8,2.3
				c-0.6,0.5-1.3,1.1-1.9,1.6c-2.1,1.3-4.7,1.3-6.9,0.7V740.9z"/>
			<path class="st11" d="M726.7,774c-1.6,0.8-3.5,0.8-5.2,0.2c-0.9-0.5-1.7-1-2.4-1.7c-1-0.9-2.1-1.8-3.5-2.1
				c-1.6-0.4-3.2,0.1-5.3,1.5c-0.3,0.2-0.7,0.4-1,0.7c-1.1,0.8-2.3,1.6-3.7,2c-0.5,0.1-1,0.2-1.5,0.2l0.1,0.7c0.5,0,1.1-0.1,1.6-0.2
				c1.4-0.5,2.7-1.1,3.9-2c0.3-0.2,0.7-0.4,0.9-0.7c1.9-1.3,3.5-1.7,4.8-1.4c1.2,0.2,2.1,1.1,3.2,1.9c0.8,0.7,1.6,1.3,2.6,1.8
				c1.8,0.7,3.9,0.7,5.7-0.2l0.2-0.1l0.1-0.7C727.1,773.8,726.9,773.9,726.7,774z"/>
			<path class="st11" d="M727.8,760.3c-1,0.5-1.9,0.9-2.9,1.3c-1.2,0.4-4.2,1.3-6.3-0.4c-0.5-0.4-1-1-1.4-1.5
				c-0.8-1-1.6-1.9-2.7-2.2c-1-0.2-2,0-2.9,0.5c-0.5,0.2-1,0.5-1.4,0.8c-0.3,0.2-0.7,0.4-1,0.6c-1.8,1.1-4,1.5-6.1,1.3l0.1,0.7
				c2.2,0.2,4.5-0.3,6.4-1.4c0.4-0.2,0.7-0.4,1-0.7c0.4-0.3,0.9-0.6,1.4-0.8c0.7-0.4,1.6-0.6,2.4-0.4c1,0.2,1.7,1.1,2.4,2
				c0.4,0.6,1,1.1,1.5,1.6c1,0.8,2.3,1.2,3.6,1.1c1.1,0,2.3-0.2,3.3-0.7c1-0.4,2-0.8,3-1.3l0.2-0.1l0.1-0.8L727.8,760.3z"/>
			<path class="st11" d="M726.3,756.4c-1.4,0.7-3.3,1.4-5.1,1c-1.3-0.4-2.3-1.1-3.3-1.9c-1.3-1-2.7-2.1-4.4-2.1l0,0
				c-1.1,0.1-2.1,0.4-3.1,0.9l-0.8,0.4c-2.3,0.9-4.7,1.1-7,0.7l0.1,0.7c2.4,0.4,4.9,0.2,7.3-0.7c0.3-0.1,0.5-0.2,0.8-0.4
				c0.9-0.5,1.9-0.8,2.9-0.8c1.5,0,2.7,1,4,2c1,0.9,2.3,1.6,3.6,2c0.4,0.1,0.8,0.2,1.3,0.2c1.5-0.1,2.9-0.5,4.2-1.2l0.9-0.4
				c0.4-0.2,0.7-0.4,1.1-0.5l0.1-0.7c-0.5,0.2-1,0.5-1.4,0.7L726.3,756.4z"/>
			<path class="st11" d="M729.1,744.7c-1.1,0.7-2.2,1.3-3.4,1.3h-0.1c-2,0-3.6-1.6-5.1-3s-3.6-3.2-5.9-2.6c-1,0.3-1.8,0.7-2.6,1.4
				c-0.2,0.1-0.4,0.3-0.5,0.4c-2.9,2-6.6,2.7-10.1,2l0.1,0.7c3.6,0.7,7.3-0.1,10.4-2.1l0.6-0.4c0.7-0.6,1.5-1,2.3-1.3
				c2-0.5,4,1.2,5.3,2.4c1.6,1.5,3.3,3.2,5.5,3.2h0.1c1.4,0,2.5-0.7,3.6-1.4l0.1-0.8L729.1,744.7z"/>
			<path class="st16" d="M715.4,721.7c0.2-3.6,1.8-7.4,5-9.2c1.3-0.7,2.7-1.1,3.7-2.2c1-1.1,1.1-2.6,1-4.1c-0.2-1.4-0.2-2.9-0.2-4.3
				c0.1-1.4,0.8-2.9,2.1-3.5c1.5-0.7,3.2,0.1,4.7-0.1c1.8-0.2,3.2-1.7,4.4-3.2c1.1-1.4,2.3-3,3.9-3.8c1.7-0.7,4.1-0.2,4.6,1.6
				c0.4,1.6-1,3.2-2.3,4.1c-1.4,1-3,1.7-3.7,3.3c-0.7,1.6,0,3.4,1,4.8c1,1.4,2.2,2.6,3,4.1c0.8,1.5,1.2,3.4,0.2,4.8
				c-1,1.5-3,1.8-4.8,2.2c-1.7,0.5-3.7,1.6-3.6,3.4c0.1,1.2,1.1,2.1,1.4,3.3c0.7,1.8-0.4,3.9-1.9,5c-1.5,1.1-3.5,1.6-5.4,2l-6.1,1.4
				c-1.2,0.2-4.2,1.6-5.2,0.8c-1-0.8-1.2-3.7-1.4-4.8C715.6,725.6,715.3,723.7,715.4,721.7z"/>
			<path class="st16" d="M723.1,739.9L723.1,739.9c-0.4,0-0.7-0.4-0.7-0.7l0,0c0.4-16.2,6.3-31.8,16.9-44.1c0.3-0.3,0.8-0.3,1,0
				c0.2,0.2,0.3,0.7,0.1,1c-10.3,12-16.2,27.3-16.5,43.1C723.8,739.6,723.5,739.9,723.1,739.9z"/>
			<path class="st16" d="M740.2,691.6c-1.1,0.5-2.1,1.4-2.8,2.4l0.2-0.1c1.2-0.5,2.9-1,3.8,0c0.7,0.8,0.4,2-0.2,2.9
				c-0.7,0.8-1.4,1.5-2.2,2.1c-2.1,2.3-2.6,5.7-1.1,8.5c0.5,1,1.4,1.8,1.8,2.9s0.7,2.3-0.1,3.2c-1.2,1.4-3.6,0.5-5.3,1.1
				c-1.7,0.6-2.5,2.4-2.6,4.2s0.6,3.4,1.1,5.1c0.5,1.7,0.8,3.5,0.1,5.1c0.4-0.2,0.8-0.5,1.2-0.7c1.6-1.1,2.6-3.2,1.9-5
				c-0.4-1.1-1.4-2.1-1.4-3.3c-0.1-1.8,1.8-3,3.6-3.4c1.7-0.5,3.8-0.7,4.8-2.2c1-1.4,0.6-3.3-0.2-4.8c-0.8-1.4-2.1-2.6-3-4.1
				c-1-1.4-1.6-3.2-1-4.8c0.7-1.6,2.3-2.4,3.7-3.3c1.4-1,2.7-2.4,2.3-4.1C744.3,691.4,741.8,690.8,740.2,691.6z"/>
			<path class="st16" d="M705,728.9c-0.8-3.9,0.4-7.9,3.3-10.6c1-0.7,1.8-1.6,2.6-2.4c1.5-2.1,1-5.1-0.2-7.4
				c-1.4-2.7-3.5-5.2-3.9-8.3c-0.2-1.3,0-2.7,0.7-3.8c1.9-3.3,5.4-1.7,8-2.9c2.2-1,3.1-3.7,3.2-6.1c0.1-2.4-0.4-4.9,0.2-7.3
				c0.1-0.2,0.1-0.4,0.2-0.7c0.4-1.4,1.9-2.1,3.3-1.7c1,0.4,1.7,1.3,1.8,2.3l0.5,6.8c0,0.5,0.1,1.1,0.3,1.6c0.9,2,3.7,2,5.9,2.6
				c3.9,1.1,6.3,5.1,5.2,9.1c-0.3,1-0.8,2-1.4,2.7c-2.1,2.6-6.1,3.9-7,7.2c-0.5,1.8,0.2,3.6,0.5,5.5c1,5.1-0.4,10.4-3.6,14.5
				c-2.7,3.3-7.1,6.1-11.5,6.5C709,736.8,705.8,732.4,705,728.9z"/>
			<path class="st16" d="M719.9,741.7c-0.4,0-0.7-0.3-0.7-0.7c-0.8-18.4-0.1-37,2.1-55.3c0.1-0.4,0.4-0.7,0.8-0.7
				c0.4,0.1,0.7,0.4,0.7,0.8l0,0c-2.1,18.2-2.9,36.7-2.1,55C720.7,741.3,720.3,741.6,719.9,741.7L719.9,741.7L719.9,741.7z"/>
			<path class="st16" d="M735.9,695.9c-0.8-2.4-2.7-4.2-5.1-4.9c-2.1-0.6-5-0.5-5.9-2.6c-0.2-0.5-0.3-1.1-0.3-1.6l-0.5-6.8
				c-0.1-1.4-1.3-2.5-2.7-2.4c-1.1,0.1-2,0.8-2.3,1.8c-0.1,0.2-0.1,0.4-0.2,0.7c-0.5,2.4-0.1,4.8-0.2,7.3c-0.1,2.4-1,5.1-3.2,6.1
				c-2.6,1.2-6.1-0.4-8,2.9c-0.5,0.8-0.7,1.8-0.7,2.8c0.2,0,0.3-0.1,0.4-0.2c0.4-0.4,0.7-1,1.1-1.4c0.5-0.4,1.1-0.8,1.7-1
				c1.5-0.6,3-0.8,4.5-1.4c3.3-1.6,5.4-5,5.2-8.7c-0.2-0.9-0.2-1.8-0.2-2.7c0.1-1,0.8-1.7,1.7-1.9c1.3-0.1,2.1,1.5,2.2,2.8
				c0.1,2.4-0.8,5.1,0.2,7.3c1,2.1,3.3,3,5.3,4.1c2,1.1,4,3.1,3.5,5.3c-0.7,2.7-4.2,3.3-6,5.4c-1.3,1.6-1.4,3.9-0.8,5.9
				c0.7,1.8,1.6,3.5,2.8,5c-0.1-0.7-0.1-1.4-0.2-2.1c-0.4-1.8-1-3.7-0.5-5.5c0.9-3.3,4.8-4.5,7-7.2
				C736.2,700.9,736.6,698.3,735.9,695.9z"/>
			<path class="st16" d="M715.9,713.2c-1.3-3.2-4.4-5.8-7.9-5.2c-1,0.2-1.9,0.2-2.8-0.1c-4.1-1.2-1.7-5.4-3.3-7.9
				c-0.9-1.3-2.6-1.7-4.2-1.6c-1.6,0.1-3,0.7-4.6,0.8c-2.1,0.2-4.3-0.5-6.4-1.1c-2.1-0.5-4.4-0.9-6.4-0.1h-0.1
				c-2.6,1.1-2,4.9,0.8,5.2c1.4,0.1,2.7,0.5,4,1.1c2.3,1.2,4.2,3.8,3.5,6.4c-0.7,2.2-3,4.2-1.9,6.3c0.4,0.8,1.3,1.3,2.1,1.5
				c2.3,0.4,4.4-1,6.7-0.7c0.9,0.1,1.7,0.7,2.1,1.4c1.1,1.9-1,3.9-1.3,6c-0.2,2.3,1.7,4.2,3.6,5.2c2.4,1.4,5.2,1.8,7.9,1.4
				c1.8-0.4,3.5-1.6,4.7-3l-0.4,0.8c1.6-2.4,2.9-5.1,3.8-7.9C716.7,719.1,717,716,715.9,713.2z"/>
			<path class="st16" d="M709,739.3c-0.4,0-0.7-0.3-0.7-0.7c-0.8-15.9-9.8-30.1-23.9-37.5c-0.3-0.2-0.4-0.7-0.1-1
				c0.2-0.2,0.5-0.4,0.8-0.2c14.5,7.6,23.9,22.4,24.7,38.8C709.7,738.9,709.4,739.2,709,739.3L709,739.3z"/>
			<path class="st16" d="M699.6,718.3c-0.8-1-2.2-1.2-3.5-1.2c-1.3,0.1-2.5,0.2-3.8,0.1c-1.3-0.2-2.5-1-2.8-2.1
				c-0.4-1.7,1.4-3.2,1.8-4.9c0.5-2-0.7-4-2.4-5.2c-1.7-1.2-3.6-1.8-5.4-2.7c-1.1-0.6-2.2-1.6-1.9-2.7c0.2-0.8,1-1.4,1.8-1.5
				c0.8-0.1,1.7,0,2.4,0.3l4.8,1.2c0.8,0.2,3.5,1.4,3.4-0.1c0-0.1,0-0.2,0-0.2c-0.4,0.1-0.8,0.1-1.3,0.2c-2.1,0.2-4.3-0.5-6.4-1.1
				c-2.1-0.5-4.4-0.9-6.4-0.1h-0.1c-2.6,1.1-2,4.9,0.8,5.2c1.4,0.1,2.7,0.5,4,1.1c2.3,1.2,4.2,3.8,3.5,6.4c-0.7,2.2-3,4.2-1.9,6.3
				c0.4,0.8,1.3,1.3,2.1,1.5c2.3,0.4,4.4-1,6.7-0.7c0.9,0.1,1.7,0.7,2.1,1.4c1.1,1.9-1,3.9-1.3,6c0,0.2,0,0.5,0,0.8
				c1.1-1,2.1-2,3.1-3C700.3,721.7,700.8,719.6,699.6,718.3z"/>
			<path class="st16" d="M719.8,705.7c-1.7-1-3.8-1.6-5.1-3.1c-1.6-1.8-1.4-4.5-1.3-7c0.1-2.4-0.5-5.2-2.7-6.3
				c-2.6-1.2-5.8,1.1-8.6,0.2c-1.9-0.6-3-2.6-4.2-4.2c-1.1-1.8-2.7-3.2-4.6-4.2c-1.9-1-4.1-1-6.1-0.1c-1.8,1-3,3.3-2.4,5.2
				s2.7,3.2,4.5,4.2c1.8,1,3.8,2.5,4,4.6c0.2,2.6-2.3,4.5-3.4,6.7c-1.8,3.5-0.4,7.8,3,9.5c0.7,0.4,1.4,0.6,2.1,0.7
				c1.6,0.2,3.3-0.1,4.9,0c1.7,0.1,3.5,0.5,4.4,1.8c1.3,1.9,0.2,4.5-0.2,6.8c-0.5,3,0.2,6.1,1.9,8.6c2.7,3.8,10.4,7.5,13.5,2.3
				c1.4-2.2,2-5,3.1-7.4c1.4-3.2,2.4-6.5,2-10C724.4,710.9,722.8,707.5,719.8,705.7z"/>
			<path class="st16" d="M715,742.6h-0.1c-0.4-0.1-0.7-0.4-0.7-0.8l0,0c2.9-21.1-6.1-42.1-23.3-54.7c-0.4-0.2-0.5-0.7-0.2-1
				c0.2-0.4,0.7-0.5,1-0.2c0.1,0,0.1,0.1,0.1,0.1c17.7,12.9,26.8,34.4,23.9,56.1C715.7,742.3,715.3,742.6,715,742.6z"/>
			<path class="st17" d="M710.3,693.7c0.9,1.4,0.6,3.2,1.1,4.8c0.4,1.3,1.4,2.3,2.6,2.9c-0.7-1.7-0.6-3.8-0.5-5.7
				c0-2.4-0.5-5.2-2.7-6.3c-2.6-1.2-5.8,1.1-8.6,0.2c-1.9-0.6-3-2.6-4.2-4.2c-1.1-1.8-2.7-3.2-4.6-4.2c-1.9-1-4.1-1-6.1-0.1
				c-1.8,1-3,3.3-2.4,5.2c0.6,2,2.7,3.2,4.5,4.2c1.8,1,3.8,2.5,4,4.6c0.2,2.6-2.3,4.5-3.4,6.7c-1.8,3.5-0.5,7.7,3,9.5
				c0.1,0.1,0.2,0.1,0.4,0.2c-0.9-1.1-1.3-2.6-1.1-4c0.3-2.6,2.4-4.7,3.1-7.2c0.7-2.6-0.3-5.2-1.7-7.5c-1.4-2.2-3.3-4.1-4.8-6.3
				c-0.8-1.1-1.4-2.7-0.7-3.8c0.8-1.1,2.6-0.9,3.8-0.3c4,2.1,5.8,7.3,10.1,8.6c1.4,0.5,3,0.4,4.5,0.6
				C708,691.9,709.5,692.5,710.3,693.7z"/>
			<path class="st7" d="M715.8,733.6L715.8,733.6c-0.4,0.2-0.7,0.2-0.7-0.2c0.7-8.1-1.3-14.1-4.5-21.1c-3.6-7.5-7.8-14.7-12.5-21.4
				c-0.2-0.3-0.2-0.7,0-1c0.2-0.3,0.4-0.3,0.7-0.1c4.8,6.7,9.5,15.1,12.9,21.9c3.4,7,5.5,12.9,4.8,20.9
				C716.4,733.1,716.1,733.4,715.8,733.6z"/>
			<g class="st18">
				<path class="st19" d="M710.2,699.1c0.7,1.2,0.5,2.5,0.8,3.7c0.3,1,1,1.8,1.8,2.3c-0.5-1.3-0.5-2.7-0.7-4.1
					c-0.1-1.7-0.6-3.9-2-5.1c-1.7-1.6-3.7-0.2-5.4-1.4c-1.2-0.8-1.8-2.6-2.5-4.3c-0.6-1.6-1.4-3.1-2.6-4.4c-1.1-1.1-2.3-1.4-3.5-0.6
					c-1.1,0.9-2,3-1.9,4.9c0.2,1.9,1.3,3,2.3,4.1s2.2,2.5,2.2,4.5c0,2.4-1.7,4.1-2.7,6.1c-0.8,1.9-1,4-0.5,6
					c0.4,1.3,1.1,2.3,2.2,2.9c-0.6-1.1-0.8-2.4-0.5-3.7c0.4-2.4,2-4.3,2.6-6.6c0.5-2.3,0-4.8-0.7-6.9c-0.7-2.1-1.8-4-2.5-6.1
					c-0.4-1.1-0.7-2.6-0.1-3.6c0.6-1,1.6-0.7,2.2,0c2.2,2.3,3.1,7.3,5.8,9c1,0.5,1.9,0.8,2.9,1.1
					C708.7,697.3,709.7,698.1,710.2,699.1z"/>
			</g>
			<path class="st12" d="M706.8,733c-0.8,14.8-1.1,29.9-1,44.5c-0.1,1.4,1,2.7,2.4,2.8c0.3,0,0.7,0,1-0.1c4.7-1.2,9.1-3.1,13.2-5.7
				c1.9-1.2,3.3-3.4,3.3-4.8c-0.2-11.1-0.7-21-1.6-29.6C718.5,735.6,712.2,732.8,706.8,733z"/>
			<g class="st18">
				<path class="st19" d="M721,770.8c-0.8-0.5-1.6-1.1-2.3-1.9c-0.7-0.8-1.6-1.6-2.6-2.1c-1.6-0.7-3.4-0.2-4.7,0.2
					c-0.7,0.3-1.4,0.7-2,1c-0.7,0.4-1.4,0.7-2.1,1c-1.2,0.4-2.4,0.7-3.7,0.7l0.1,0.7c1.3,0,2.6-0.2,3.8-0.7c0.7-0.3,1.4-0.6,2.1-1
					c0.7-0.3,1.3-0.7,1.9-0.9c1.1-0.4,2.7-0.8,4.1-0.2c0.9,0.5,1.7,1.1,2.4,1.9c0.7,0.8,1.5,1.5,2.4,2c0.7,0.3,1.4,0.5,2.1,0.5
					c1.1,0,2.3-0.3,3.3-0.7c0.5-0.2,1-0.4,1.4-0.7l0.1-0.8c-0.5,0.3-1.1,0.5-1.7,0.8C724.5,771,722.6,771.5,721,770.8z"/>
				<path class="st19" d="M701.2,740.9c2.4,0.8,4.9,0.5,7.2-0.8c0.7-0.5,1.4-1,2-1.6c1.1-1,2.1-1.8,3.4-2.1c2.1-0.4,4.2,1.1,6.1,2.6
					c1.7,1.4,3.6,2.7,5.6,2.7c0.4,0,0.7-0.1,1.1-0.1c1-0.3,1.8-0.8,2.6-1.4c0.2-0.2,0.5-0.3,0.7-0.5l0.1-0.8
					c-0.4,0.2-0.8,0.5-1.1,0.7c-0.7,0.6-1.6,1-2.4,1.3c-2.1,0.5-4.2-0.9-6.1-2.5c-1.9-1.6-4.2-3.3-6.6-2.8c-1.5,0.3-2.6,1.3-3.8,2.3
					c-0.6,0.5-1.3,1.1-1.9,1.6c-2.1,1.3-4.7,1.3-6.9,0.7V740.9z"/>
				<path class="st19" d="M726.7,774c-1.6,0.8-3.5,0.8-5.2,0.2c-0.9-0.5-1.7-1-2.4-1.7c-1-0.9-2.1-1.8-3.5-2.1
					c-1.6-0.4-3.2,0.1-5.3,1.5c-0.3,0.2-0.7,0.4-1,0.7c-1.1,0.8-2.3,1.6-3.7,2c-0.5,0.1-1,0.2-1.5,0.2l0.1,0.7
					c0.5,0,1.1-0.1,1.6-0.2c1.4-0.5,2.7-1.1,3.9-2c0.3-0.2,0.7-0.4,0.9-0.7c1.9-1.3,3.5-1.7,4.8-1.4c1.2,0.2,2.1,1.1,3.2,1.9
					c0.8,0.7,1.6,1.3,2.6,1.8c1.8,0.7,3.9,0.7,5.7-0.2l0.2-0.1l0.1-0.7C727.1,773.8,726.9,773.9,726.7,774z"/>
				<path class="st19" d="M727.8,760.3c-1,0.5-1.9,0.9-2.9,1.3c-1.2,0.4-4.2,1.3-6.3-0.4c-0.5-0.4-1-1-1.4-1.5
					c-0.8-1-1.6-1.9-2.7-2.2c-1-0.2-2,0-2.9,0.5c-0.5,0.2-1,0.5-1.4,0.8c-0.3,0.2-0.7,0.4-1,0.6c-1.8,1.1-4,1.5-6.1,1.3l0.1,0.7
					c2.2,0.2,4.5-0.3,6.4-1.4c0.4-0.2,0.7-0.4,1-0.7c0.4-0.3,0.9-0.6,1.4-0.8c0.7-0.4,1.6-0.6,2.4-0.4c1,0.2,1.7,1.1,2.4,2
					c0.4,0.6,1,1.1,1.5,1.6c1,0.8,2.3,1.2,3.6,1.1c1.1,0,2.3-0.2,3.3-0.7c1-0.4,2-0.8,3-1.3l0.2-0.1l0.1-0.8L727.8,760.3z"/>
				<path class="st19" d="M726.3,756.4c-1.4,0.7-3.3,1.4-5.1,1c-1.3-0.4-2.3-1.1-3.3-1.9c-1.3-1-2.7-2.1-4.4-2.1l0,0
					c-1.1,0.1-2.1,0.4-3.1,0.9l-0.8,0.4c-2.3,0.9-4.7,1.1-7,0.7l0.1,0.7c2.4,0.4,4.9,0.2,7.3-0.7c0.3-0.1,0.5-0.2,0.8-0.4
					c0.9-0.5,1.9-0.8,2.9-0.8c1.5,0,2.7,1,4,2c1,0.9,2.3,1.6,3.6,2c0.4,0.1,0.8,0.2,1.3,0.2c1.5-0.1,2.9-0.5,4.2-1.2l0.9-0.4
					c0.4-0.2,0.7-0.4,1.1-0.5l0.1-0.7c-0.5,0.2-1,0.5-1.4,0.7L726.3,756.4z"/>
				<path class="st19" d="M729.1,744.7c-1.1,0.7-2.2,1.3-3.4,1.3h-0.1c-2,0-3.6-1.6-5.1-3s-3.6-3.2-5.9-2.6c-1,0.3-1.8,0.7-2.6,1.4
					c-0.2,0.1-0.4,0.3-0.5,0.4c-2.9,2-6.6,2.7-10.1,2l0.1,0.7c3.6,0.7,7.3-0.1,10.4-2.1l0.6-0.4c0.7-0.6,1.5-1,2.3-1.3
					c2-0.5,4,1.2,5.3,2.4c1.6,1.5,3.3,3.2,5.5,3.2h0.1c1.4,0,2.5-0.7,3.6-1.4l0.1-0.8L729.1,744.7z"/>
			</g>
		</g>
		<g id="Head">
			<g>
				<g>
					<path class="st1" d="M285.3,759.9c-0.4-1.3-0.8-2.6-1-3.9c-2.1-13.2,6.9-25.6,20-27.7c13.2-2.1,25.6,6.9,27.7,20
						c0.2,1.3,0.3,2.5,0.3,3.8c0,2.2-0.3,4.4-0.9,6.5h4.3c0.9-3.6,1-7.4,0.4-11c-2.5-15.4-17-25.9-32.4-23.5
						c-15.4,2.5-25.9,17-23.5,32.4c0.2,1.2,0.5,2.5,0.9,3.7C282.5,760.1,283.9,760,285.3,759.9z"/>
					<path class="st1" d="M289.4,759.5c-3-0.9-4.9-2.2-5.1-3.6c-0.3-1.7,1.8-4,5.4-6.1c5.3-2.9,11.2-4.8,17.2-5.6
						c14.8-2.4,24.6,0.8,25.1,4.1c0,0.1,0,0.2,0,0.3c0,1.7-2,3.9-5.5,5.8c-3.3,1.8-6.8,3.2-10.4,4.2c3.8,0,7.6,0,11.4,0
						c0.4-0.2,0.8-0.4,1.1-0.6c5.4-3.1,8-6.8,7.5-10.4c-1.2-7.8-16.3-9.7-29.9-7.5c-6.5,0.9-12.8,3-18.6,6.1
						c-4.9,2.9-7.5,6.2-7.5,9.4c0,0.3,0,0.6,0.1,1c0.2,1.4,0.9,2.6,1.9,3.6C284.5,759.9,286.9,759.7,289.4,759.5z"/>
					<path class="st1" d="M301.4,758.9c-0.4-1.8-0.8-3.6-1.1-5.5c-2.4-14.8,0.8-24.6,4.1-25.1c1.7-0.3,4,1.8,6.1,5.4
						c2.9,5.3,4.8,11.2,5.6,17.2c0.4,2.6,0.7,5.1,0.8,7.7h4.1c-0.1-2.8-0.4-5.6-0.8-8.4c-0.9-6.5-3-12.8-6.1-18.5
						c-3.1-5.4-6.8-8-10.4-7.5c-5.8,0.9-8.3,9.6-8.3,19.5c0,3.5,0.3,6.9,0.8,10.3c0.3,1.7,0.6,3.4,1,5L301.4,758.9z"/>
				</g>
			</g>
			<path class="st11" d="M904.1,227.9c-5,0.3-9.8,1.5-14.3,3.6c-2.2,1.1-4.3,2.4-6.3,4c-1.9,1.6-3.7,3.3-5.3,5.2
				c-3.1,3.9-5.6,8.2-7.4,12.9c-1.8,4.6-3.2,9.4-4.1,14.4c-1.7,9.8-2.3,19.9-1.7,29.8c0.1,2.5,0.4,5,0.4,7.5c0.1,1.3,0,2.5,0,3.8
				s-0.2,2.5-0.4,3.8c-0.4,2.5-1,5-1.8,7.4s-1.9,4.7-3,7c-4.7,9-11.7,16.4-17.2,24.7c-2.7,4.1-5.1,8.6-6,13.4
				c-0.7,3.6-0.6,7.2,0.3,10.7c0.4,1.1,0.9,2.2,1.6,3.1c1.4,2,3,3.8,4.9,5.4s3.9,3,6,4.3c4.2,2.6,8.7,4.7,13.3,6.4
				c4.6,1.7,9.4,3,14.3,4c4.8,0.9,9.8,1.3,14.7,1.2c9.9-0.2,19.8-1.5,29.4-3.9c2.4-0.5,4.7-1.3,7.1-2c1.2-0.4,2.3-0.9,3.5-1.3
				l1.7-0.7l1.7-0.8c4.5-1.9,8.7-4.4,12.6-7.4c3.8-2.8,6.8-6.6,8.7-11c0.8-2.2,1.3-4.6,1.5-6.9c0.2-2.4,0-4.7-0.4-7
				c-1.1-4.7-3-9.2-5.6-13.2c-2.6-4.2-5.6-8.2-8.6-12.2c-3.1-4.1-5.8-8.3-8.4-12.7c-2.6-4.5-4.4-9.3-5.4-14.4
				c-2.1-10-2.6-20.1-2.9-30.1c-0.2-5-0.3-10-0.6-15c-0.2-4.9-1-9.8-2.1-14.7c-0.6-2.4-1.5-4.6-2.6-6.8c-1.2-2.1-2.6-4.1-4.4-5.8
				C913.6,231.1,908.9,229.1,904.1,227.9l0.1-0.8c4.9,1,9.9,2.9,13.7,6.4c1.9,1.7,3.5,3.8,4.8,6c1.2,2.2,2.2,4.6,3,7.1
				c0.7,2.4,1.3,4.9,1.7,7.4c0.4,2.5,0.7,5,0.9,7.5c0.4,5,0.6,10,0.9,15c0.5,10,1.2,20,3.3,29.6c1,4.8,2.8,9.4,5.2,13.6
				c2.5,4.3,5.2,8.4,8.2,12.3c3,4,6,8,8.7,12.4c2.9,4.3,5,9.2,6.1,14.2c0.5,2.6,0.7,5.3,0.5,7.9c-0.3,2.6-0.8,5.2-1.7,7.7
				c-2.1,4.9-5.4,9.1-9.7,12.3c-4.1,3.2-8.5,5.8-13.3,7.8l-1.7,0.8l-1.8,0.7c-1.2,0.4-2.4,0.9-3.6,1.3c-2.4,0.7-4.8,1.6-7.3,2.1
				c-9.9,2.3-20,3.5-30.1,3.6c-5.1,0.1-10.2-0.4-15.2-1.4s-9.9-2.4-14.6-4.3c-4.7-1.8-9.3-4.1-13.6-6.8c-2.2-1.4-4.2-2.9-6.2-4.6
				s-3.7-3.6-5.2-5.8c-0.7-1.1-1.3-2.3-1.7-3.6c-0.3-1.3-0.5-2.6-0.6-3.9c-0.2-2.6,0-5.2,0.5-7.7c1-5.1,3.6-9.7,6.3-13.8
				c5.7-8.3,12.7-15.6,17.4-24.4c1.2-2.2,2.2-4.4,3-6.8c0.8-2.3,1.4-4.7,1.8-7.2c0.2-1.2,0.3-2.5,0.4-3.7c0.1-1.2,0.1-2.5,0-3.7
				c0-2.5-0.3-5-0.4-7.5c-0.6-10,0.1-20.1,1.8-30c0.9-5,2.3-9.8,4.2-14.5c1.8-4.7,4.4-9.1,7.5-13.1c1.6-1.9,3.4-3.7,5.4-5.4
				c2-1.6,4.1-3,6.4-4.1c4.6-2.2,9.5-3.5,14.6-3.7L904.1,227.9z"/>
			<path class="st12" d="M925.3,241.2"/>
			<path class="st12" d="M888.1,276.6L888.1,276.6z"/>
			<path class="st12" d="M888.2,277.1L888.2,277.1L888.2,277.1z"/>
			<path class="st12" d="M877,274.3L877,274.3L877,274.3z"/>
			<path class="st12" d="M880.8,277.3L880.8,277.3z"/>
			<path class="st12" d="M880.7,277.3L880.7,277.3z"/>
			<path class="st20" d="M932.4,266.5c-0.1-0.5-0.6-0.9-1.1-1.1c-0.4-0.1-0.8,0-1.1,0.3c-0.2,0.2-0.4,0.4-0.5,0.6l-0.2,0.2l-0.1,0.1
				l0,0v0.1l0,0h-0.1c-0.1-0.1-0.1-0.2-0.1-0.2c0-0.2,0-0.4,0-0.6c0.4-0.4,0.7-0.8,1-1.3c0.6-1.3,0.7-2.6-0.8-3.2
				c-0.6-0.1-1.2-0.3-1.8-0.5c-0.3-0.2-0.2,0.1-0.2-0.3c0-0.3,0.2-0.8,0.3-1v-0.2l0,0c0.1-0.1,0.3-0.2,0.4-0.3l0.3-0.1h0.1h0.4
				c0.3,0,0.7,0,1,0c0.4,0,0.7-0.2,1-0.4c0.2-0.2,0.3-0.5,0.3-0.8s0-0.5,0-0.8c0-0.2,0-0.4,0-0.6c-0.1-0.5-0.7-0.6-1.1-0.7
				c-0.3-0.1-0.6,0-0.9,0.2c-0.2,0.1-0.2,0.3,0.1,0.3c0.2,0,0.6,0.1,0.7,0.4c0,0.2,0,0.4,0,0.5c0,0.2,0,0.5,0,0.7
				c0,0.1,0,0.2-0.1,0.3c0,0.1-0.1,0.1-0.1,0.2l0,0h-0.2c-0.5-0.1-1,0-1.5,0.1c0.4-0.9,0.7-2,0.6-3c0-0.3-0.2-0.6-0.4-0.8
				c0.4-0.6,0.7-1.2,0.9-1.9c0.1,0,0.2-0.1,0.4-0.1c0.4-0.1,0.7-0.3,1-0.7c0.1-0.1,0.1-0.2,0-0.3s-0.2-0.3-0.3-0.4
				c0.4-0.1,0.8-0.4,1.2-0.7c0.4-0.4,0.6-1,0.5-1.5c0-1-0.1-2-1.2-2.3c-0.8-0.2-1.6-0.1-2.3,0.3c-0.3-0.8-0.9-1.4-1.7-1.8
				c0.4-0.5,0.8-1.1,0.5-1.7c-0.4-0.8-1.3-0.7-2-0.8h-0.1H925h-0.2l-0.1-0.1c0-0.3,0.1-0.6,0.1-0.8s0-0.4,0.1-0.6l0,0l0.1-0.1h0.1
				h0.1l0,0l0,0h0.1l0,0h0.1h0.3h0.1h0.1h0.3c0.1,0,0.3,0.1,0.4,0.1c0.3,0.1,0.5,0.3,0.7,0.5c0,0.1,0.3,0.1,0.3,0.1
				c0.2,0,0.3,0,0.5-0.1c0.1,0,0.5-0.2,0.4-0.3c-0.5-0.5-1.1-0.8-1.8-0.8c-0.6,0-1.1,0-1.7,0.1c0.2-0.9,0-1.9-0.6-2.7
				c0.8-0.8,1.3-1.6,0.7-2.1c-0.3-0.2-0.8-0.2-1.1,0.1c-0.2,0.2-0.5,0.5-0.6,0.8c-0.2-0.5-0.6-0.9-1.1-1.3c-0.7-0.4-1.4-0.7-2.2-0.9
				c-0.2-0.6-0.4-1.2-0.6-1.7c-0.2-0.6-0.9-0.4-1.1-0.1c-0.3,0.3-0.2,0.3-0.4,0.4c-0.1-0.4-0.1-0.8,0.1-1.2c0.1-0.2,0.3-0.3,0.5-0.3
				c0.4,0,0.7,0,1.1,0c0.4,0.1,0.5,0.4,0.5,0.7c0.1,0.5,0.2,1,0.1,1.4c-0.1,0.6,1.1,0.6,1.3,0c0.1-0.5,0.1-1-0.1-1.6
				c0-0.5-0.3-1-0.8-1.3c-0.5-0.2-1-0.3-1.5-0.2c-0.5,0-1,0-1.5,0.2c-0.3,0.1-0.5,0.3-0.7,0.6c0.3-0.4,0.4-0.9,0.2-1.4
				c-0.3-0.8-1-1.3-1.8-1.2c-0.8-0.2-1.7,0-2.4,0.5l0,0c-0.3-0.1-0.6-0.3-0.9-0.4c-0.5-0.2-0.9-0.4-1.4-0.7c0.1-0.2,0.4-0.4,0.6-0.5
				c0.3,0,0.7-0.1,1-0.2c0.4-0.2,0.6-0.6,0.5-1c-0.2-0.4-0.6-0.7-1.1-0.7c-0.3,0-0.6,0.2-0.7,0.5c0,0.3,0.2,0.4,0.5,0.5l0,0l0,0
				h-0.4c-0.4,0.1-0.9,0.3-1.2,0.6l-0.1,0.1c-1.1-1.2-2.1-2.3-3.9-2.3c-0.8,0-1.7,0.3-2.4,0.7c-0.6-1.1-1.9-1.6-3.1-1.1
				c-0.5,0.2-1,0.7-1.2,1.2c-1.2-0.5-2.5-0.5-3.7-0.1c-0.2,0.1-0.4,0.1-0.5,0.2c-0.2,0-0.5-0.1-0.7-0.2c-0.3-0.1-0.4-0.4-0.4-0.7
				c0-0.1,0-0.1,0.1-0.2l0,0h0.1h0.3c0.4,0,0.8-0.2,1.3-0.2c0.4-0.1,0.7,0.1,1.1,0c0.3-0.1,1.1-0.4,0.8-1c-0.2-0.4-0.7-0.6-1.2-0.6
				c-0.2,0-0.7,0.1-0.7,0.4c0,0.1,0,0.3,0.2,0.3c-0.2,0-0.4,0-0.5,0.1c-0.5,0.1-0.8,0.2-1.3,0.2c-0.4,0.1-0.8,0.3-1.1,0.7
				c-0.2,0.4-0.2,0.9,0.1,1.3c0.2,0.3,0.5,0.5,0.8,0.6c-0.3-0.1-0.6-0.1-0.9-0.1h-0.6c-0.7-0.2-1.4-0.2-2,0.1
				c-0.8,0.3-1.5,0.9-1.9,1.7c-0.2,0-0.5,0-0.7-0.1c-0.9-0.3-0.7-1.6-0.7-2.4c-0.1-1.1-1.8-0.6-2.4-0.2c-0.9,0.5-0.9,1.5-1,2.5
				c0,0.2,1.3,0.1,1.3-0.2c0-0.8,0-1.6,0.7-2.1l0,0c0.1,0.1,0.1,0.3,0.1,0.5c0,0.4,0,0.8,0,1.2s0.2,0.7,0.4,0.9
				c0.3,0.3,0.8,0.4,1.2,0.4c0.3,0,0.5,0,0.8,0c-0.1,0.2-0.2,0.4-0.3,0.6c-0.2,0.6-0.4,1.1-0.6,1.7c-0.2-0.2-0.4-0.4-0.6-0.5
				c-0.4-0.4-1.5-0.1-1.9,0.1c-0.8,0.4-1.5,0.8-1.4,1.8h-0.5l-0.5-0.2c-0.4-0.2-0.8-0.3-1.2-0.4c-0.4-0.1-0.8-0.1-1.2-0.2
				c-0.8-0.2-1.6,0.1-2.1,0.8c-0.3,0.7-0.4,1.4-0.4,2.1c0,0.3,0.3,0.3,0.5,0.3s0.7-0.1,0.7-0.4c0-0.6,0.1-1.2,0.2-1.8
				c0-0.1,0.1-0.2,0.2-0.4l0.1-0.1l0.7,0.1c0.5,0.1,1.1,0.2,1.5,0.4c-0.2,0.1-0.3,0.3-0.5,0.5c-0.3,0.5-0.4,1.1-0.4,1.7
				c-1.2,0.2-2.1,1-2.5,2.1c-0.3,0.2-0.5,0.4-0.7,0.7l-0.1,0.1c-0.4-0.3-1-0.4-1.5-0.4c-0.6,0-1.1,0-1.7,0c-0.3,0-0.6,0.1-0.8,0.2
				c-0.2,0.2,0.1,0.3,0.3,0.3c0.5,0,1,0,1.5,0c0.4,0,0.8,0.1,1.1,0.3c-0.2,0.1-0.3,0.3-0.4,0.5c-0.1,0.3-0.2,0.5-0.2,0.8
				c-0.1,0.5,0,1,0.4,1.3l0,0c-1.1,0-2.2,0.4-3.1,1.1c0-0.2,0.1-0.3,0.1-0.5s-1.3-0.1-1.3,0.2s-0.1,0.5-0.2,0.7
				c-0.2-0.2-0.4-0.3-0.6-0.4c-0.8-0.3-1.7-0.2-2.4,0.2c-0.6,0.4-1,1-1.2,1.7c-0.2,0.6-0.1,1.2,0.6,1.4c0.7,0.2,1.5,0.1,2.1-0.1
				l0.2-0.1c0,0.2,0.1,0.4,0.3,0.5c-0.2,0.5-0.3,1.1-0.2,1.6c0.1,1.1,0.1,2.4,1,3.2c0.3,0.3,0.7,0.5,1.1,0.6
				c-0.7,0.2-1.3,0.6-1.6,1.3c-0.2,0.7-0.1,1.4,0.4,1.9h-0.5h-0.2c-0.2,0-0.5-0.1-0.7-0.1c-0.4,0-0.8,0.1-1.1,0.3
				c-0.5,0.5-0.8,1.1-0.9,1.8c-0.2,0.7,0.2,1.4,0.8,1.7c0.6,0.3,1.3,0.4,2,0.3c0,0.1,0,0.2-0.1,0.4c-0.5,0.1-0.8,0.5-1,0.9
				c-0.2,0.9-0.2,1.9,0.1,2.7c0.1,0.4,0.3,0.8,0.5,1.1c-0.2,0.2-0.3,0.3-0.4,0.5c-0.1,0.1-0.1,0.2-0.1,0.3c-0.2,0.1-0.3,0.3-0.4,0.5
				l0,0c-0.2-0.4-0.3-0.8-0.3-1.2c0.2-1.1,0-2.1-0.5-3.1c-0.3-0.5-1.5-0.1-1.2,0.5c0.3,0.5,0.4,1,0.5,1.6s-0.1,1.1,0,1.7
				c0.1,0.8,0.6,1.7,1.4,1.8c0,0.1,0,0.2,0,0.3c0,0.2,0.1,0.4,0.1,0.6c-0.4,0.6,0.2,1,1,1.4c-0.6,0.5-1,1.2-1,2
				c0,1.4,1.8,2.1,2.9,2.6c0.9,0.4,1.9,0.6,2.9,0.6c0,0.1,0,0.2,0,0.3c0.1,0.2,0.3,0.4,0.5,0.5c0.3,0.1,0.5,0.2,0.8,0.3
				c0.3,0.1,0.5,0.1,0.8,0.2c0.2,0,0.3,0,0.5-0.1c0.1,0,0.3-0.1,0.3-0.2c0.2-0.3-0.1-0.4-0.3-0.4l-0.3-0.1l0,0h-0.1l-0.2-0.1
				c-0.1,0-0.3-0.1-0.4-0.2l0,0l0,0l0,0c0,0-0.1,0,0,0h-0.1l-0.1-0.1l-0.1-0.1c0-0.1,0-0.1,0-0.2c0.2-0.1,0.4-0.1,0.6-0.2
				c0.4,0.2,0.8,0.4,1.3,0.5c-0.1,0.1-0.1,0.3-0.1,0.4s0,0.2,0.1,0.2c0.1,0.1,0.3,0.1,0.4,0.1c0.2,0,0.3,0,0.5-0.1l0.1-0.1
				c0.1,0,0.1-0.1,0.1-0.2v-0.1h0.5c-0.1,0.9-0.2,1.8-0.2,2.6c0,0.1,0.2,0.2,0.2,0.2c0.2,0,0.3,0,0.5,0h0.1l0,0l-0.1,0.1l0,0l0,0
				c-0.1,0-0.3,0-0.4,0c-0.1,0-0.3,0.1-0.3,0.2c-0.2,0.3,0.1,0.4,0.3,0.5c0.6,0.1,1.3-0.2,1.7-0.7c0.3-0.3,0.4-0.8,0.4-1.2
				c0-0.1-0.1-0.2-0.1-0.3c0.6,0.3,1.3,0.5,1.9,0.5h0.2c0,0.2,0.1,0.3,0.2,0.5c0.3,0.5,1,0.7,1.5,0.5c-0.1,0.2-0.1,0.4-0.1,0.6
				c0.1,0.5,0.7,0.7,1.2,0.8c0.7,0.2,1.5,0,2.1-0.5c0.2-0.2,0.4-0.5,0.6-0.8c0.1,0,0.2,0,0.2,0l0,0l-0.1,0.4v0.1l0,0c0,0.1,0,0,0,0
				s-0.1,0.1-0.1,0.2v0.1c-0.3,0-0.6,0.1-0.8,0.3c-0.1,0.3,0.1,0.5,0.3,0.5c0.5,0.1,1,0,1.3-0.3c0.2-0.2,0.4-0.5,0.5-0.8
				s0.2-0.5,0.3-0.8l0,0c0.3,0.2,0.6,0.3,0.9,0.4c0,0.1,0,0.2,0,0.2c-0.1,0.6,1,0.4,1.2,0.1v-0.1c0.7,1.2,2.1,1.8,3.4,1.5
				c0.4-0.1,0.7-0.2,1.1-0.4c0.3,0.1,0.6,0.1,0.9,0.1c0.9,0,1.7-0.5,2.1-1.3l0.1,0.1c0.2,0.4,0.4,0.8,0.7,1.1
				c1.1,1.1,2.8,1.8,4.1,0.8c0.2-0.1,0.3-0.2,0.4-0.4c1.3,0.8,2.8,1.3,4.3,1.4c1.5,0,2.8-0.8,3.6-2c0,0.1,0,0.2,0,0.3
				c0,0.3,0.1,0.6,0.3,0.8c0.4,0.4,1,0.6,1.6,0.6c0.3,0.1,0.7-0.1,0.8-0.3c0.1-0.2,0-0.5-0.2-0.6h-0.1c-0.2,0-0.4-0.1-0.7-0.1h0.5
				l-0.1-0.1h-0.1h-0.1l0,0l0,0v-0.1l0,0c0,0,0-0.2,0-0.1c0-0.1,0-0.3,0-0.4c0-0.2,0.1-0.4,0.1-0.6s0-0.4,0-0.6c0.3,0.1,0.7,0.1,1,0
				h0.1c1.5,0.6,2.5-0.5,2.9-1.7c0.5-0.2,0.9-0.5,1.3-0.8c0.2-0.3,0.4-0.6,0.5-0.9c0.9,0.1,1.9,0.3,2.8,0.3c0.7,0.1,1.4,0.1,2.1,0.1
				c0.2,0,0.4,0,0.6,0c0.9,0,1.8-0.4,2.5-1.2c0.1-0.1,0.1-0.3,0.1-0.5c1.2-1.2,2.1-2.7,0.9-4c-0.3-0.4-0.8-0.6-1.3-0.8
				c0-0.2,0-0.4,0-0.5c0.2,0,0.5-0.1,0.7-0.2c0.4-0.2,0.7-0.5,0.9-0.9l0.1,0.1c0.2,0.4,0.3,0.9,0.2,1.4s1.2,0.4,1.3,0
				C932.6,267.7,932.6,267.1,932.4,266.5z M871.2,244.3c-0.1,0.4-0.4,0.7-0.5,1.1c-0.1,0-0.1,0.1-0.2,0.1c-0.4,0.1-0.9,0.3-1.2,0
				s-0.3-1.1-0.1-1.5c0.1-0.3,0.2-0.5,0.4-0.8c0.1-0.1,0.2-0.2,0.3-0.3h0.1h0.1C870.7,243.1,871.4,243.6,871.2,244.3L871.2,244.3z
				 M871.7,256L871.7,256c-0.2,0.3-0.3,0.6-0.1,0.9c-0.1,0.3-0.1,0.5-0.2,0.8c0,0.1,0,0.1,0,0.2h-0.5h-0.4h-0.1h-0.2l0,0l0,0H870
				l-0.1-0.1l0,0v-0.1v-0.1v-0.1v-0.1l0,0v-0.1c0,0,0-0.2,0.1-0.4c0-0.1,0-0.1,0-0.2c0,0,0.1-0.2,0-0.1c0-0.1,0.1-0.2,0.1-0.3
				l0.1-0.2l0,0l0,0h0.4h0.2l0.5,0.1h0.6L871.7,256z M877.5,239.3L877.5,239.3c0,0.3,0,0.6,0.1,1c0,0.2,0,0.5,0,0.7
				c-0.2-0.3-0.3-0.6-0.2-1C877.3,239.8,877.4,239.5,877.5,239.3L877.5,239.3z M877.4,243.3c-0.3,0.1-0.5,0.3-0.7,0.6
				s-0.4,0.7-0.6,1c-0.3-0.4-0.5-0.9-0.6-1.5C875.4,241.9,876.5,242.7,877.4,243.3L877.4,243.3z M875.8,250.2
				c0.1,0.1,0.3,0.2,0.4,0.2l0,0c-0.4,0.1-0.8,0.3-1.2,0.4l-0.2-0.1C875.1,250.6,875.4,250.4,875.8,250.2L875.8,250.2z M874.5,262.7
				l-0.1,0.1c-0.1,0.1-0.2,0.2-0.2,0.3c-0.4,0-0.8,0.1-1.2,0.2c-0.1-0.3-0.2-0.6-0.3-0.9v-0.1c0.3,0.2,0.7,0.3,1,0.4
				C873.9,262.6,874.2,262.6,874.5,262.7L874.5,262.7z M874.2,248.6h0.2c-0.3,0.4-0.5,0.8-0.7,1.2c-0.1-0.3-0.2-0.5-0.3-0.8
				l-0.1-0.4C873.6,248.6,873.9,248.6,874.2,248.6z M872,266c0.4,0,0.7,0,1.1,0c0,0.1,0,0.3,0,0.4c-0.1,0-0.3,0-0.4,0
				c-0.2,0-0.4,0-0.6,0.1C872,266.3,872,266.2,872,266L872,266z M874.4,272.1L874,272c-0.7-0.3-1.9-0.7-1.8-1.6
				c0.1-0.2,0.1-0.3,0.2-0.5h0.2c0.4,0,0.6,0,0.9,0.3c0.2,0.2,0.3,0.5,0.4,0.7c0.3,0.5,1.2,0.5,1.8,0.2c0,0.1,0.1,0.2,0.1,0.4
				C875.5,271.9,874.9,272.1,874.4,272.1L874.4,272.1z M881.9,241.1L881.9,241.1l-1.8,0.9c0-0.5,0-1.1,0-1.6
				C880.7,240.7,881.3,241,881.9,241.1L881.9,241.1z M879.3,245.5c0.1-0.5,0.3-1.1,0.5-1.6c0-0.1,0.1-0.2,0.1-0.3l0.5,0.2l0.7,0.3
				C880.5,244.6,879.9,245,879.3,245.5L879.3,245.5z M878.2,264.6l0.5-0.2c0.1,0.2,0.2,0.4,0.2,0.6c-0.2,0.2,0,0.4,0.2,0.4l0.1,0.2
				c-0.4,0.3-0.8,0.5-1.2,0.8C878.1,265.8,878.1,265.2,878.2,264.6L878.2,264.6z M878.3,268.2c0-0.1,0-0.1,0-0.2l1-0.2
				c-0.1,0.4-0.2,0.7-0.3,1.1C878.8,268.6,878.6,268.4,878.3,268.2L878.3,268.2z M879.6,272.6c-0.4-0.1-0.8-0.4-1-0.8v-0.1
				c0.4-0.2,0.8-0.4,1.1-0.6c-0.1,0.5-0.1,1,0,1.6C879.7,272.6,879.7,272.6,879.6,272.6L879.6,272.6z M883.7,234.4
				c0-0.1,0-0.1,0-0.2l0.2,0.2c0,0.5,0.3,1.1,0.7,1.4l0,0c-0.3-0.2-0.7-0.3-1-0.4C883.6,235.1,883.7,234.8,883.7,234.4L883.7,234.4z
				 M882.9,241.9l0.1-0.2l0.7-0.3c-0.3,0.3-0.6,0.7-0.9,1.1C882.9,242.3,882.9,242.1,882.9,241.9L882.9,241.9z M885.5,242.8
				c0-0.2-0.2-0.2-0.4-0.3c0-0.1,0.1-0.2,0.2-0.3l0.3-0.4c-0.1-0.2,0-0.2,0.1-0.1c0.1,0.1,0.1,0.1,0.2,0.2
				C885.8,242.2,885.7,242.5,885.5,242.8L885.5,242.8z M886.3,238.6c-0.2,0.1-0.3,0.2-0.5,0.3c-0.3,0.2-0.6,0.6-0.7,1l-0.2,0.1h-0.1
				c0.1-0.4,0-0.8-0.2-1.2l0.2-0.2l0.5-0.1c0.2,0,0.9-0.3,0.8-0.6c0-0.1,0-0.1,0-0.2l0.4-0.2C886.5,237.9,886.4,238.3,886.3,238.6
				L886.3,238.6z M892.4,232.7c0-0.1,0.1-0.3,0.2-0.4l0,0c0,0.2,0.1,0.4,0.1,0.5c0,0.2,0,0.1-0.1,0.1c-0.2,0.5-0.4,0.9-0.5,1.4
				C892.1,233.8,892.2,233.3,892.4,232.7L892.4,232.7z M889.4,257.4c0.3,0.3,0.7,0.6,1.1,0.8c-0.1,0.1-0.2,0.2-0.3,0.2
				c-0.3,0-0.6,0.1-0.9,0.2c-0.1,0-0.2-0.1-0.3-0.2L889.4,257.4z M890,231.5c0.1-0.3,0.2-0.6,0.2-0.9l0,0c0.1,0.2,0.2,0.4,0.4,0.5
				c0.1,0.1,0.2,0.1,0.2,0.1c-0.3,0.2-0.5,0.5-0.7,0.9c-0.1-0.1-0.2-0.1-0.3-0.2C890,231.9,890,231.8,890,231.5L890,231.5z
				 M885.1,260.4C885.1,260.4,885.1,260.3,885.1,260.4L885.1,260.4c0.6,0,1.2,0.2,1.7,0.5c-0.1,0.2-0.2,0.3-0.2,0.5
				C886.1,261.1,885.6,260.8,885.1,260.4z M885.3,274.3l-0.2,0.1c0-0.6,0-1.3,0.1-1.9c0.5-0.1,0.9-0.4,1.4-0.6l0.1,0.1
				C886.6,272.9,886.1,273.8,885.3,274.3L885.3,274.3z M886.5,275.6c-0.2,0.3-0.4,0.6-0.6,0.8l-0.1,0.1c-0.1-0.1-0.2-0.3-0.2-0.5
				C885.9,275.9,886.2,275.8,886.5,275.6L886.5,275.6z M888.1,257.6L888.1,257.6c-0.1-0.4-0.3-0.7-0.4-1.1l0,0l0.3-0.1l0.6-0.4
				c0,0.1,0.1,0.1,0.1,0.2C888.4,256.7,888.3,257.2,888.1,257.6z M890.2,237.6c-0.2-0.2-0.3-0.5-0.4-0.8c0.1-0.1,0.2-0.2,0.3-0.3
				c0.1,0.2,0.3,0.5,0.5,0.6C890.4,237.4,890.3,237.5,890.2,237.6L890.2,237.6z M888.4,278c0,0.1-0.1,0.1-0.2,0.2l-0.1,0.1h-0.2
				c-0.4-0.1-0.7-0.3-0.7-0.8c0.1-0.3,0.2-0.6,0.3-0.8v-0.1l0.3,0.1h0.1h0.1h0.1l0,0l0,0l0.1,0.1l0,0v0.1l0,0l0,0
				c-0.2,0-0.3,0-0.5,0.1s-0.5,0.2-0.4,0.5c0.2,0.2,0.5,0.3,0.8,0.3c0.1,0,0.2,0,0.3-0.1L888.4,278z M889.2,276.2
				c-0.3-0.1-0.5-0.2-0.8-0.2c0,0-0.2-0.1,0,0h-0.1h-0.1l0,0l-0.1-0.1l0,0c0.1-0.1,0.1-0.2,0.2-0.3l0.6-0.1h0.3h0.4
				c0,0.4-0.1,0.8-0.1,1.2C889.5,276.4,889.4,276.3,889.2,276.2L889.2,276.2z M888.7,274.7c0.1-0.3,0.2-0.6,0.3-1l0,0
				c0.2,0.3,0.3,0.5,0.5,0.8C889.2,274.6,888.9,274.6,888.7,274.7L888.7,274.7z M888.9,269.2c0.2-0.5,0.5-1.1,0.7-1.5
				c0.2,0.4,0.4,0.9,0.6,1.3C889.8,269,889.3,269.1,888.9,269.2L888.9,269.2z M897.5,266.5c0,0.3,0.1,0.5,0.2,0.8
				c-0.2,0.2-0.4,0.4-0.6,0.5l-0.2-0.1C897,267.4,897.3,267,897.5,266.5L897.5,266.5z M896.6,227.3c0.6,0.1,1.2,0.2,1.7,0.3
				c0.3,0.2,0.5,0.4,0.8,0.6c0,0.4,0,0.8,0.2,1.2c-0.4-0.1-0.8,0-1.2,0.2H898c-0.4-0.7-0.9-1.2-1.5-1.6v-0.1
				C896.4,227.6,896.5,227.5,896.6,227.3L896.6,227.3z M898.3,231c-0.1,0-0.3,0-0.4,0.1l-0.1-0.2c0.2-0.1,0.4-0.2,0.4-0.4
				c0.1-0.1,0.3-0.1,0.4-0.2C898.5,230.6,898.4,230.8,898.3,231L898.3,231z M895.1,231.2c0.1-0.1,0.2-0.1,0.3-0.2
				c0.4,0.1,0.8,0.2,1.2,0.2l0.2,0.6l-0.4,0.3c-0.5-0.3-1-0.5-1.5-0.8C894.9,231.3,895,231.2,895.1,231.2L895.1,231.2z M893.8,230.8
				L893.8,230.8c0.2-0.3,0.3-0.6,0.3-1c0.1,0.2,0.2,0.5,0.4,0.7C894.3,230.5,894.1,230.7,893.8,230.8L893.8,230.8z M892.8,253
				l-0.1-0.4h0.1c0.2-0.1,0.4-0.1,0.6-0.2l-0.1,0.1c-0.1,0.1-0.3,0.6-0.2,0.5C893.1,253,892.9,253,892.8,253L892.8,253z
				 M893.8,253.6c0.2-0.1,0.3-0.2,0.5-0.4c0,0.1,0,0.2,0,0.4l-0.2,0.2c-0.1,0-0.2,0-0.3,0s-0.3,0.1-0.4,0.1l-0.3-0.1
				C893.3,253.8,893.5,253.7,893.8,253.6L893.8,253.6z M892.4,273.5c-0.2,0-0.4,0.1-0.6,0.3c-0.1-0.2-0.2-0.3-0.2-0.4
				c0.3,0.1,0.6,0,0.9-0.2l0.1-0.1L892.4,273.5z M892.2,272.3c-0.1-0.2,0-0.5,0.1-0.7c0.2,0.1,0.3,0.2,0.5,0.3
				C892.6,272,892.3,272.2,892.2,272.3L892.2,272.3z M893.6,260.9c0.2,0.2,0.4,0.5,0.6,0.7l0,0c-0.1,0.2-0.3,0.5-0.4,0.7h-0.1
				C893.5,261.8,893.5,261.4,893.6,260.9L893.6,260.9z M895,274.5c-0.5,0-1.1,0.2-1.4,0.7c-0.1,0.2-0.2,0.5-0.3,0.7l-0.1-0.1
				l-0.1-0.1c-0.1-0.2-0.3-0.4-0.5-0.5l-0.1-0.2c0.2-0.1,0.4-0.2,0.6-0.3c0.2-0.1,0.3-0.4,0.1-0.5c0.2-0.3,0.3-0.6,0.6-0.9
				c0.1,0.1,0.1,0.1,0.2,0.2c0.3,0.2,0.7,0.3,1.1,0.3l0.3,0.2L895,274.5z M895.2,265.6c-0.1-0.2-0.1-0.4-0.2-0.6
				c0-0.1,0-0.2,0.1-0.3c0.1-0.1,0.2-0.4,0.2-0.6c0.5-0.1,0.9-0.1,1.3-0.2c0.1,0.1,0.1,0.2,0.1,0.3l-0.5,0.5L895.2,265.6z
				 M896.6,277.7L896.6,277.7c-0.6-0.2-0.9-0.8-0.8-1.3c0.3-0.3,0.4-0.8,0.3-1.2c0-0.1-0.1-0.2-0.1-0.2l0.5-0.6l0.8,0.2
				c-0.3,0.1-0.6,0.3-0.8,0.5C896,276,896.1,276.9,896.6,277.7L896.6,277.7z M900.4,233.9L900.4,233.9c-0.1-0.5-0.2-0.9-0.4-1.3
				l0.3-0.1c0.1-0.1,0.2-0.1,0.2-0.2c0.2,0.1,0.4,0.1,0.6,0.1c-0.1,0.1-0.2,0.2-0.2,0.4C900.6,233.1,900.4,233.5,900.4,233.9
				L900.4,233.9z M899,273.1l-0.4-0.1c-0.2-0.1-0.5-0.1-0.7-0.2l0.2-0.2c0.1,0,0.2,0.1,0.3,0.1l0.7,0.2L899,273.1z M916.6,232
				c0.2-0.1,0.4-0.2,0.6-0.4c-0.2,0.2-0.3,0.5-0.3,0.8c-0.2-0.1-0.4-0.2-0.6-0.3C916.3,232.1,916.5,232.1,916.6,232L916.6,232z
				 M915,243.5l0.7-0.2c0.1,0.3,0.2,0.5,0.3,0.8c-0.4,0.6-0.8,1.2-1.1,1.9C915.1,245.1,915.2,244.3,915,243.5L915,243.5z
				 M914.2,230.1c0-0.1,0.1-0.1,0.1-0.2c0.4-0.1,0.7-0.1,1.1,0c0.2,0,0.4,0.1,0.6,0.2c0.2,0.2,0.3,0.4,0.3,0.7
				c0,0.5-0.5,0.5-0.9,0.6l0,0C915,230.9,914.6,230.5,914.2,230.1L914.2,230.1z M914.4,235.6c0.3,0,0.7-0.1,1-0.2
				c0,0.3,0,0.6,0.1,0.9c0,0.1,0,0.1,0.1,0.2c-0.2,0.3-0.5,0.7-0.7,1C914.5,236.9,914.4,236.2,914.4,235.6L914.4,235.6z
				 M911.8,276.9l-0.7-0.6c0.2-0.1,0.3-0.1,0.5-0.2l0,0C911.7,276.4,911.7,276.6,911.8,276.9L911.8,276.9z M911.3,233.1
				c0.2,0.2,0.3,0.4,0.5,0.6c0.3,0.7,0,1.1-0.5,1.6l-0.1,0.1l0,0v-0.1C911.1,234.5,911.2,233.8,911.3,233.1L911.3,233.1z
				 M909.9,233.8c0,0.3-0.1,0.6-0.1,1v0.1l-0.5-0.1c-0.1-0.6-0.1-1.2-0.2-1.8c0-0.3-0.1-0.6-0.2-0.9l0.5,0.1
				c-0.1,0.5-0.2,0.9-0.2,1.3C909.2,233.8,909.6,233.9,909.9,233.8L909.9,233.8z M907.9,252.2l0.1,0.1c-0.1,0.3-0.2,0.5-0.3,0.8
				c-0.2-0.1-0.4-0.3-0.6-0.4C907.3,252.6,907.6,252.5,907.9,252.2L907.9,252.2z M907.7,243.3l-0.2-0.1c-0.3-0.1-0.6-0.2-0.8-0.3
				c0-0.2,0-0.3,0-0.5c0.4,0.1,0.8,0.3,1.2,0.5L907.7,243.3z M908.9,230c0.3,0.2,0.4,0.5,0.5,0.9l-0.6-0.1l-0.2-0.1
				c-0.1-0.2-0.1-0.4-0.2-0.5c-0.1-0.2-0.5-0.4-0.8-0.2c-0.2-0.1-0.5-0.2-0.7-0.2h-0.2C907.4,229.5,908.2,229.6,908.9,230L908.9,230
				z M907,234.4l-0.5-0.1c0.2-0.3,0.3-0.6,0.3-0.9l0.2,0.4C907,234,907,234.2,907,234.4L907,234.4z M905.7,227.2
				c0.4-0.1,1.1,0.5,1.4,0.8c0.3,0.3,0.5,0.5,0.7,0.8h-0.4c-0.4,0-0.8,0-1.2,0c0-0.1,0-0.1,0-0.2c-0.2-0.5-0.4-0.9-0.7-1.3
				C905.6,227.2,905.6,227.2,905.7,227.2z M904.1,233.6c0-0.2,0-0.3-0.1-0.5l0.2-0.5l0.5,0.1c-0.1,0.4-0.2,0.9-0.2,1.3h-0.3
				L904.1,233.6z M905.6,239.3C905.6,239.3,905.6,239.4,905.6,239.3c-0.1,0.2-0.1,0.4-0.1,0.5l-0.6-0.1h-0.2c0-0.2-0.1-0.4-0.4-0.6
				l-0.6-0.3v-0.1C904.3,239.2,904.9,239.4,905.6,239.3L905.6,239.3z M902.2,264.4c-0.1-0.3-0.2-0.5-0.3-0.8h0.1h0.4
				c0,0,0,0,0.3,0.1c0.1,0,0.2,0,0.3,0.1l-0.2,0.3l0,0L902.2,264.4z M902.2,272.4l-0.1-0.1c0-0.5,0.1-1,0.3-1.5
				c0.2-0.1,0.5-0.1,0.7-0.2C902.7,271.1,902.4,271.8,902.2,272.4L902.2,272.4z M904.5,251.2c-0.1-0.3-0.2-0.5-0.3-0.8
				c0.4-0.2,0.8-0.4,1.3-0.6l0.2,0.1c0,0.1,0,0.1,0,0.2c0,0.3,0.1,0.6,0.3,0.9c-0.5,0.1-1,0.2-1.3,0.3
				C905.1,251.2,904.6,251.3,904.5,251.2L904.5,251.2z M904.1,260.5L904.1,260.5l0.5-0.2h0.4c-0.2,0.3-0.4,0.6-0.6,0.9
				c-0.1,0-0.3-0.1-0.4-0.2C904.1,260.9,904.1,260.8,904.1,260.5L904.1,260.5z M904.1,268.2L904.1,268.2l-0.2-0.4
				c0.2-0.2,0.4-0.4,0.6-0.6L904.1,268.2z M906.1,257.7c-0.3-0.2-0.5-0.5-0.7-0.8l0.1-0.1c0.3,0.2,0.5,0.5,0.7,0.8c0,0,0,0.1,0,0.2
				L906.1,257.7z M906.1,271c-0.1,0-0.3,0.1-0.4,0.3l-0.3-0.5l1.3-2.9c0.1,0.2,0.2,0.4,0.3,0.5C906.7,269.3,906.3,270.1,906.1,271
				L906.1,271z M909.2,244.2L909,244c0.2-0.1,0.3-0.3,0.4-0.4l0.7,0.4C909.8,244.1,909.5,244.2,909.2,244.2L909.2,244.2z
				 M910.9,241.7l1,0.2l0.1,0.3l-0.3,0.5c-0.4-0.2-0.8-0.4-1.1-0.6L910.9,241.7z M909.6,272.1l0.3-0.3c0,0.2,0,0.4,0,0.5
				c0,0.2,0,0.2,0,0.3c-0.2,0-0.5,0-0.7,0L909.6,272.1z M911.7,279c-0.5,0.4-1.1,0.1-1.7-0.1c-0.4-0.1-0.8-0.3-1.2-0.5l0.2-0.1
				c0.2,0.1,0.4,0.3,0.6,0.4c0.4,0.1,0.8,0,1.1-0.3h0.1c0.4,0.1,0.7,0,1-0.2l0.5,0.3C912,278.6,911.8,278.8,911.7,279L911.7,279z
				 M914.6,258.6c0.1-0.7,0-1.4-0.6-1.7l0,0c0.2-0.2,0.4-0.5,0.6-0.8l0.8,0.2c0,0.6,0,1.1,0.1,1.7
				C915.1,258.2,914.8,258.4,914.6,258.6L914.6,258.6z M916.6,242.1c-0.2-0.5-0.5-0.9-0.9-1.2c0.1-0.2,0.1-0.3,0.2-0.4
				c0.1-0.3,0.3-0.5,0.5-0.7l0.1-0.1C916.6,240.4,916.7,241.2,916.6,242.1L916.6,242.1z M918.8,237.9c0.1,0.2,0.2,0.4,0.3,0.5
				c0,0.6,0,1.1,0,1.7c0-0.4-0.1-0.7-0.1-1.1C919,238.7,918.9,238.3,918.8,237.9L918.8,237.9z M918.3,237.2l-0.1-0.1
				c-0.3-0.2-0.6-0.3-0.9-0.3c0.3-0.1,0.6-0.3,0.9-0.5c0,0,0,0.1,0.1,0.1c0.1,0.2,0.2,0.5,0.3,0.7L918.3,237.2z M917.4,269.5
				c0-0.1-0.2-0.2-0.3-0.2c-0.3-0.3-0.5-0.6-0.7-0.9h0.1c0.1,0.1,0.2,0.3,0.4,0.4c0.2,0.2,0.5,0.4,0.8,0.6
				C917.5,269.4,917.5,269.5,917.4,269.5L917.4,269.5z M917.8,264.7c-0.2,0.1-0.4,0.1-0.6,0.2c-0.1-0.3-0.3-0.6-0.4-0.8h0.3
				c0.4,0,0.7-0.1,1.1-0.2C918.1,264.1,917.9,264.4,917.8,264.7L917.8,264.7z M922.4,241.3c-0.1,0.5-0.1,0.9-0.2,1.4
				c-0.3-0.1-0.7-0.1-1-0.2c0-0.3,0-0.7,0-1C921.7,241.5,922.1,241.4,922.4,241.3z M920.2,247.4l0.1-0.1l0.1-0.1l0.3-0.1
				c0.1-0.1,0.2-0.1,0.3-0.2c0,0.2-0.1,0.4-0.2,0.6l-0.7,0.1l0,0L920.2,247.4z M919.2,268.2L919.2,268.2c-0.2-0.1-0.4-0.1-0.5-0.1
				l-0.2-0.4c0.3-0.1,0.6-0.2,0.8-0.4l0.1-0.1C919.3,267.5,919.2,267.9,919.2,268.2L919.2,268.2z M919.1,266.3
				c-0.3,0.2-0.6,0.4-1,0.6l-0.1-0.3c0.6-0.2,1.1-0.4,1.6-0.7c0.1,0,0.1-0.1,0.2-0.2C919.5,265.9,919.3,266.1,919.1,266.3
				L919.1,266.3z M921.2,244.2L921,244l0.1-0.6c0.3,0.1,0.7,0.1,1,0.2h0.1c0,0.3,0,0.5,0,0.8C921.9,244.2,921.5,244.1,921.2,244.2
				L921.2,244.2z M927.6,249.9c0.4-0.3,0.7-0.6,0.9-1.1c0.1-0.2,0.2-0.5,0.2-0.8c0.4-0.4,0.9-0.5,1.4-0.5c0.7,0.1,0.6,1.1,0.6,1.6
				c0.1,0.4,0,0.7-0.3,1c-0.4,0.2-0.7,0.4-1.1,0.5c-0.2-0.1-0.3-0.1-0.5-0.2C928.4,250.2,928,250,927.6,249.9L927.6,249.9z
				 M926.8,252.2c0,0.5-0.2,1-0.4,1.4h-0.1c0-0.4,0-0.8,0-1.2L926.8,252.2z M925.1,243.4h0.2c0.1,0,0.2,0.1,0.3,0.1
				c0.4,0.2,0.6,0.6,0.5,1c0,0.2-0.1,0.4-0.2,0.5c-0.4-0.1-0.8-0.1-0.9-0.4c-0.2-0.4-0.3-0.9-0.2-1.4L925.1,243.4z M922.2,245.5
				c0.1-0.1,0.1-0.3,0.1-0.4c0,0.1,0.1,0.2,0.1,0.3c0.5,1.3,1.9,0.9,2.8,1.6c0.5,0.4,1.1,1.2,0.7,1.8c-0.2,0.3-0.6,0.5-0.9,0.5
				c-0.1-0.2-0.3-0.3-0.4-0.5c0.2-0.4,0.4-0.8,0.5-1.3c0-0.1,0-0.2-0.1-0.3c-0.7-0.7-1.7-0.8-2.6-0.4c-0.1,0.1-0.3,0.2-0.4,0.2
				C922.2,246.5,922.3,246,922.2,245.5L922.2,245.5z M921.3,272c-0.2-0.2-0.4-0.3-0.6-0.4h-0.1c0-0.2,0-0.4,0-0.5
				c0-0.3-0.1-0.7-0.3-1c0,0,0.1-0.1,0.1-0.2l0.2-0.1c0.1,0.2,0.2,0.4,0.3,0.6c0.1,0.1,0.2,0.2,0.2,0.3c0.1,0.2,0.3,0.4,0.6,0.6
				C921.6,271.5,921.4,271.7,921.3,272L921.3,272z M923.8,248L923.8,248c-0.2-0.1-0.5-0.3-0.8-0.4c0.3-0.2,0.6-0.2,0.8-0.1
				C923.8,247.7,923.8,247.9,923.8,248L923.8,248z M924.8,257.3c-0.3,0.5-0.6,1-0.9,1.4c-0.1-0.1-0.1-0.2-0.2-0.3l0,0
				c0.5-0.5,1-1,1.4-1.6c0.4,0,0.7,0,1.1-0.1c0,0.2-0.1,0.4-0.1,0.5c-0.3-0.3-0.9-0.3-1.2,0C924.9,257.2,924.8,257.3,924.8,257.3
				L924.8,257.3z M925.4,262.1c-0.1-0.1-0.1-0.2-0.1-0.3c0.2,0.2,0.3,0.3,0.5,0.4c0.1,0.1,0.3,0.1,0.5,0.1l-0.6,0.2
				C925.5,262.4,925.4,262.2,925.4,262.1L925.4,262.1z M925.9,263.8c0.6-0.2,1.1-0.5,1.4-1.1c0-0.1,0-0.1,0.1-0.2l0,0
				c0.1,0,0.6,0.2,0.7,0.3c0.1,0.1,0,0.7-0.1,0.9c-0.1,0.3-0.3,0.6-0.5,0.9c-0.3-0.1-0.6-0.2-0.9-0.2c-0.2,0-0.4,0-0.6,0.1
				C925.9,264.3,925.9,264.1,925.9,263.8L925.9,263.8z M926.9,268.5c-0.3,0.2-0.5,0.3-0.8,0.6c0-0.2-0.1-0.4-0.2-0.5
				c0.2-0.2,0.3-0.4,0.4-0.7c0.1,0,0.3-0.1,0.4-0.2l0.1-0.1c0,0.1,0,0.2,0.1,0.3C926.9,268.1,926.9,268.3,926.9,268.5L926.9,268.5z
				 M927.7,272.2c-0.4,0-0.9,0.1-1.3,0.3c0-0.1-0.1-0.2-0.2-0.2c-0.2-0.1-0.5-0.1-0.7-0.2c0.4-0.1,1-0.2,1.1-0.6
				c0.9,0,1.7-0.5,2.1-1.3c0,0.1,0.1,0.2,0.1,0.3C928.6,271.2,928.2,271.8,927.7,272.2L927.7,272.2z"/>
			<path class="st11" d="M884.7,325.7c0,2.6-0.6,5.2-1.8,7.5c-0.6,1.2-1.5,2.2-2.5,3c-1.1,0.8-2.4,1.3-3.8,1.3
				c-1.4,0-2.7-0.5-3.7-1.4c-1-0.8-1.8-1.9-2.4-3c-1.2-2.3-1.7-4.8-1.7-7.4s0.5-5.1,1.7-7.4c0.6-1.2,1.4-2.2,2.4-3
				c2.1-1.9,5.3-1.9,7.5-0.1c1,0.8,1.9,1.9,2.5,3C884.1,320.5,884.7,323.1,884.7,325.7z M883.5,325.7c0-2.4-0.5-4.8-1.6-7
				c-1.1-2.1-3-3.9-5.3-4c-1.2,0-2.3,0.4-3.2,1.2c-0.9,0.7-1.7,1.7-2.3,2.7c-2.3,4.4-2.3,9.6,0,14.1c0.6,1.1,1.3,2,2.3,2.7
				c0.9,0.7,2,1.2,3.2,1.2c2.3,0,4.3-1.9,5.4-4C883,330.4,883.5,328.1,883.5,325.7L883.5,325.7z"/>
			<ellipse class="st7" cx="877.1" cy="325.8" rx="3.6" ry="4.7"/>
			<path class="st21" d="M860.3,325.7c-3.4,5.8-6.8-2.6-12.4,1.7c-5.6,4.4,2.1,10.2,5,10"/>
			<path class="st11" d="M842.9,354.4c0.6,2.9,2.3,5.5,4.8,7.3c2.6,1.6,5.8,2.2,8.8,1.7c3.2-0.6,6.2-1.8,8.9-3.6
				c2.8-1.8,5.3-3.9,7.7-6.2l0,0c0.1-0.1,0.3-0.1,0.5,0l0,0c0,0,0.1,0.1,0.1,0.2l0,0c0.2,0.8,0.3,1.6,0.2,2.5c0,0.9-0.3,1.7-0.8,2.4
				c-0.6,0.7-1.4,1.1-2.3,1.2c-0.8,0.1-1.7,0-2.5-0.2c-0.2,0-0.3-0.2-0.3-0.4c0-0.2,0.2-0.3,0.4-0.3l0,0c0.7,0.2,1.5,0.2,2.2,0.2
				s1.4-0.4,1.8-0.9c0.4-0.6,0.7-1.3,0.7-2s0-1.5-0.2-2.2l0,0l0.6,0.2c-2.2,2.6-4.7,4.9-7.4,6.9c-2.8,2.1-5.9,3.6-9.3,4.4
				c-3.6,0.9-7.3,0.4-10.5-1.4c-3.2-1.9-5.5-5-6.6-8.6l0,0c-0.3-0.9,0.2-1.8,1.1-2C841.7,353.1,842.6,353.5,842.9,354.4L842.9,354.4
				z"/>
			<path class="st22" d="M869.1,301.2c3.2-3.8,15.7-0.5,17.8,7.5c0.1,0.3-0.1,0.6-0.4,0.7c-0.2,0.1-0.4,0-0.5-0.1
				c-2.6-2.3-8.5-7.1-12.4-5.9C868.4,304.9,869.1,301.2,869.1,301.2z"/>
			<path class="st11" d="M913.9,322.5c2.8-0.5,5.7,0.1,8.2,1.6c1.3,0.8,2.4,1.8,3.2,3.1c1.8,2.7,1.8,6.1,0,8.8
				c-0.8,1.3-1.9,2.3-3.2,3.1c-2.5,1.5-5.3,2-8.2,1.6c2.6-0.4,5.1-1.4,7.2-3c3.3-2.1,4.3-6.6,2.2-9.9c-0.6-0.9-1.3-1.6-2.2-2.2
				C919,323.9,916.5,322.9,913.9,322.5z"/>
			<path class="st4" d="M925.7,282.6c-0.8,0-1.5,0.2-2.1,0.6c-0.4,0.3-0.5,0.6,0.2,0.6c0.8,0,1.5-0.2,2.2-0.6
				C926.3,282.9,926.4,282.6,925.7,282.6z"/>
			<path class="st4" d="M924.8,290.9c-1.8,0-2.4,2.3-0.3,2.3C926.3,293.3,926.9,290.9,924.8,290.9z"/>
			<path class="st4" d="M925.3,287.5c-0.6,0-1.7,0.2-2.1,0.8s0.3,0.9,0.8,0.9s1.7-0.2,2-0.8S925.9,287.5,925.3,287.5z"/>
			<path class="st4" d="M925.7,301.6c-0.8,0-1.5,0.2-2.1,0.6c-0.4,0.3-0.5,0.7,0.2,0.7c0.8,0,1.5-0.2,2.2-0.6
				C926.3,302,926.4,301.6,925.7,301.6z"/>
			<path class="st4" d="M926.1,297.9c-1.8,0-2.4,2.2-0.3,2.2C927.6,300.2,928.2,297.9,926.1,297.9z"/>
			<path class="st4" d="M928.2,306.7c-0.8,0-1.5,0.2-2.1,0.6c-0.4,0.3-0.5,0.7,0.2,0.7c0.8,0,1.5-0.2,2.1-0.6
				C928.8,307,928.9,306.7,928.2,306.7z"/>
			<path class="st4" d="M928.2,303.5c-0.8,0-1.5,0.2-2.1,0.6c-0.4,0.3-0.5,0.6,0.2,0.6c0.8,0,1.5-0.2,2.1-0.6
				C928.8,303.9,928.9,303.5,928.2,303.5z"/>
			<path class="st11" d="M907.3,418.1c0.1-0.3,0.2-0.6,0.2-0.9c0-0.2,0-0.3,0-0.5v-0.6c0-0.8,0-1.5,0-2.3c0-1.5,0-3.1,0.1-4.6
				s0.1-3.1,0.1-4.6c0-0.8,0-1.6,0-2.3c0-0.7-0.3-1.3-0.6-1.8l1.3-0.8c0.4,0.8,0.7,1.7,0.7,2.6v2.3c0,1.5,0.1,3.1,0.1,4.6
				c0.1,1.5,0.1,3.1,0.1,4.6c0,0.8,0,1.5,0,2.3v0.6c0,0.2,0,0.5-0.1,0.7c-0.1,0.4-0.2,0.9-0.4,1.3L907.3,418.1z"/>
			<path class="st11" d="M893.2,401.6c-0.1,0.3-0.1,0.6-0.2,0.9l-0.1,1c0,0.7,0,1.4-0.1,2v4l0.1,4l0.1,2v1c0,0.3,0.1,0.6,0.2,0.9
				l-1.1,0.2c0-0.4,0-0.8,0-1.1v-1l0.1-2l0.1-4v-4c0-0.7,0-1.3-0.1-2l-0.1-1c0-0.3,0-0.7,0-1.1L893.2,401.6z"/>
			<path class="st11" d="M865.1,490.6c-1.1,3.1-2.4,6.2-3.4,9.3c-1,3.1-1.7,6.3-2,9.5c-0.4,3.2-0.3,6.5,0.3,9.7c0.7,3.2,2,6.2,4,8.8
				c4,5.2,10,8.6,16.2,10.5c6.3,2,12.8,3,19.4,2.7c6.6-0.3,13-1.6,19.2-4c6-2.4,11.8-5.9,15.6-11.1c0.9-1.3,1.7-2.7,2.3-4.1
				c0.6-1.4,1.1-3,1.3-4.5c0.2-0.8,0.2-1.6,0.3-2.3c0.1-0.8,0.1-1.6,0-2.4c-0.1-1.6-0.1-3.2-0.3-4.9c-0.7-6.5-1.8-13-3.2-19.4
				s-3-12.9-4.6-19.2l-2.5-9.6l-1.2-4.8c-0.4-1.6-0.8-3.2-1.2-5c-0.2-1-0.3-1.7-0.4-2.5l-0.3-2.4c-0.3-1.6-0.6-3.1-0.9-4.7
				c-0.7-3.1-1.8-6-3.2-8.8c-1.3-2.7-3.2-5.1-5.5-7.1c-2.3-1.9-5.1-3.2-8-3.9c-3.1-0.7-6.2-1-9.4-1c-3.1-0.1-6.3,0.3-9.3,1.2
				l-2.3,0.7c-0.7,0.3-1.4,0.6-2.1,0.9c-0.4,0.2-0.7,0.3-1.1,0.5l-1.1,0.6c-0.7,0.4-1.4,0.8-2,1.2c-1.3,0.9-2.5,1.9-3.7,3l-0.9,0.8
				l-0.4,0.4l-0.4,0.5l-1.5,1.9c-0.5,0.6-1,1.3-1.4,2s-0.9,1.4-1.3,2.1l-1.1,2.2c-0.4,0.7-0.7,1.5-0.9,2.3c-1.1,3.1-1.9,6.3-2.3,9.6
				l-0.3,2.5c-0.1,0.8-0.2,1.6-0.2,2.5c0,1.7,0,3.3,0,5l0.4,4.9c0.1,0.8,0.1,1.7,0.2,2.5s-0.3,1.7,1.4,2.4l-2.1,0.2
				c1.4-1,0.7-1.7,0.7-2.6c0-0.8-0.2-1.6-0.3-2.5l-0.5-4.9c0-1.7,0-3.3-0.1-5c0-0.8,0-1.7,0.1-2.5l0.2-2.5c0.6-6.6,2.2-13.3,5.9-19
				l1.4-2.1l0.4-0.5l0.4-0.5l0.8-1c3.4-3.9,7.8-6.9,12.7-8.6c3.3-1.2,6.7-1.8,10.2-1.9c3.5-0.2,6.9,0,10.3,0.7
				c3.5,0.7,6.9,2.3,9.7,4.5c2.8,2.3,5,5.2,6.6,8.4c1.5,3.1,2.7,6.4,3.5,9.8c0.3,1.7,0.7,3.3,0.9,5l0.3,2.5c0.1,0.8,0.2,1.8,0.3,2.4
				c0.2,1.4,0.7,3.1,1.1,4.7l1.2,4.8c0.8,3.2,1.5,6.4,2.3,9.7c1.5,6.4,2.9,13,4.1,19.5c1.3,6.5,2.2,13.2,2.7,19.8
				c0.2,1.7,0.1,3.4,0.2,5c0,0.8-0.1,1.7-0.1,2.6c-0.1,0.9-0.2,1.7-0.4,2.6c-0.7,3.4-2.2,6.6-4.3,9.3s-4.7,5-7.6,6.8
				c-2.8,1.8-5.9,3.3-9,4.4c-6.3,2.2-12.9,3.5-19.6,3.7c-6.7,0.1-13.3-0.9-19.7-3c-3.2-1-6.2-2.4-9.1-4.2c-2.9-1.7-5.4-4-7.5-6.6
				s-3.6-5.7-4.4-9c-0.7-3.3-0.8-6.7-0.5-10s0.8-6.7,1.7-9.9c0.9-3.2,2-6.4,2.9-9.5L865.1,490.6z"/>
			<path class="st23" d="M875.2,459.5c1.9,1.1,3.9,2.1,5.8,3.2l6,3.1c2,1.1,4,2,5.9,3.1l0.4,0.2c0.1,0,0.1,0.1,0.2,0.1
				c0.4,0.1,0.8,0,1.1-0.2c0.1-0.1,0.1-0.2,0.2-0.3c0-0.1,0.1-0.2,0.1-0.3l0.1-0.4l0.6-1.5c1.5-4.2,2.8-8.4,4-12.6s2-8.5,2.5-12.9
				c0.2-2.1,0.1-4.2-0.4-6.3c-0.2-1-0.7-1.8-1.3-2.6c-0.6-0.7-1.5-1.1-2.4-1.1c-1.9,0-3.8,1.3-5.5,2.6c-1.7,1.4-3.3,2.9-4.7,4.6
				c-2.9,3.3-5.6,6.9-8.1,10.6c-1.2,1.8-2.4,3.7-3.6,5.6c-0.6,0.9-1.2,1.9-1.7,2.8C874.1,457.9,874.4,459,875.2,459.5z M874.8,460.1
				c-1.2-0.7-1.7-2.2-1.1-3.4c0.6-1,1.1-1.9,1.7-2.9c1.2-1.9,2.4-3.8,3.6-5.7c2.4-3.8,5.1-7.4,7.9-10.9c1.4-1.7,3-3.4,4.7-4.9
				c0.9-0.8,1.8-1.4,2.8-2c1.1-0.6,2.3-1,3.5-1.1c1.4,0,2.7,0.5,3.6,1.5c0.9,0.9,1.5,2,1.8,3.2c0.6,2.3,0.8,4.6,0.7,7
				c-0.3,4.5-1,9-2.2,13.4c-1.1,4.4-2.5,8.6-4,12.9l-0.6,1.6l-0.1,0.4l-0.2,0.5c-0.2,0.4-0.4,0.8-0.8,1.1c-0.6,0.6-1.5,0.9-2.4,0.9
				c-0.4,0-0.9-0.1-1.3-0.3c-0.2-0.1-0.4-0.2-0.5-0.3l-0.4-0.2c-1.9-1.2-3.8-2.4-5.6-3.6l-5.6-3.7
				C878.6,462.4,876.7,461.3,874.8,460.1z"/>
			<path class="st24" d="M939,518.5c0,31.8-85.4,34.7-80.1-0.7C865.3,549.4,929.1,549.4,939,518.5z"/>
			<path class="st11" d="M939.3,521.8c-2.5,9.7-6.1,19.1-10.7,28c-4.4,9-9.4,17.6-14.4,26.3c-5,8.6-10,17.3-14.6,26
				c-4.6,8.8-8.7,17.9-12.3,27.1c-7.2,18.6-12.2,37.9-15.1,57.6c-3,19.7-6.2,39.4-9.4,59.1l0,0v0.1v0.1c-1.2,1.9-3.1,3.1-5.2,3.6
				c-2.1,0.4-4.3,0.2-6.3-0.4c-2-0.6-4-1.3-5.8-2.3c-1.9-0.9-3.7-2-5.4-3.2l0,0l-0.2-0.1v-0.2c1.9-18.1,3.6-36.2,5.4-54.4
				c1.8-18.1,3.3-36.3,4.8-54.4l2.2-27.2c0.7-9.1,1.5-18.1,2.1-27.2l4.1-54.5l0,0l0.2-2l0.6,1.9c1.3,3.7,3.7,6.9,6.9,9.2
				s6.8,4.1,10.6,5.2c7.6,2.3,15.5,3.4,23.4,3c7.9-0.2,15.8-1.9,23-5.1c3.6-1.6,6.9-3.9,9.7-6.6c2.8-2.8,4.7-6.3,5.7-10.1l0.7,0.2
				c-0.9,4-3,7.6-5.8,10.5c-2.9,2.9-6.2,5.2-9.9,6.8c-7.4,3.2-15.3,5-23.3,5.2c-8,0.4-16-0.6-23.7-3c-3.8-1.2-7.5-3-10.7-5.4
				c-3.3-2.4-5.9-5.7-7.2-9.6l0.7-0.1l0,0l-0.6,13.7l-0.3,6.8l-0.4,6.8c-0.5,9.1-0.9,18.2-1.6,27.3c-0.7,9-1.3,18.2-2,27.3
				l-2.3,27.2c-1.6,18.1-3.3,36.3-5.3,54.4c-1.9,18.1-4,36.2-6.3,54.3l-0.2-0.4l0,0c1.7,1.2,3.4,2.3,5.3,3.2
				c1.8,0.9,3.7,1.7,5.7,2.3c1.9,0.6,4,0.7,6,0.4c2-0.4,3.7-1.5,4.8-3.2l-0.1,0.1l0,0c2.9-19.7,5.7-39.5,8.8-59.2
				c2.8-19.8,7.8-39.2,14.9-57.9c3.5-9.4,7.6-18.5,12.2-27.4c2.3-4.5,4.7-8.8,7.2-13.1l7.5-12.9c2.5-4.3,5-8.6,7.5-12.9
				c2.5-4.4,4.9-8.7,7.1-13.1c4.7-8.8,8.4-18,11.2-27.6L939.3,521.8z"/>
			<path class="st11" d="M889.2,623.3c1.6,4.3,2.8,8.6,4.2,13c1.3,4.3,2.5,8.7,3.8,13.1c2.5,8.7,4.8,17.5,7.2,26.2
				s4.6,17.5,6.9,26.3l3.3,13.2l3.2,13.2v0.1v0.1l0,0c-0.6,1.7-1.6,3.3-2.9,4.5c-1.3,1.2-2.8,2.3-4.4,3.1c-1.6,0.8-3.2,1.6-4.9,2.1
				c-1.7,0.6-3.4,1.1-5.1,1.4l-0.3,0.1l-0.1-0.3l-25.2-70l0.7-0.2l25.2,69.9l-0.4-0.2c1.7-0.4,3.4-0.8,5-1.4
				c1.6-0.6,3.2-1.2,4.8-2.1c1.5-0.8,2.9-1.8,4.2-3c1.2-1.2,2.2-2.6,2.7-4.2l0,0v0.2l-3.7-13.1l-3.6-13.1l-7-26.2l-7-26.3l-3.5-13.1
				c-1.2-4.4-2.3-8.8-3.8-13L889.2,623.3z"/>
			<path class="st11" d="M928.3,549.6c0.4,6.5,0.8,13.1,1.3,19.6c0.2,3.2,0.5,6.5,0.8,9.8c0.1,1.6,0.3,3.2,0.5,4.9
				c0.2,1.6,0.4,3.2,0.7,4.8l-0.4-0.3l7.3,0.1l0,0l-0.4,0.3l0.6-3.9l0.4-3.9l0.3-3.9l0.2-3.9c0.2-5.2,0.2-10.4,0-15.7
				c-0.1-5.2-0.5-10.4-0.8-15.7l-1.2-15.7l0.8-0.1c0.4,2.6,0.8,5.2,1.1,7.8c0.4,2.6,0.6,5.2,0.9,7.8c0.6,5.2,0.9,10.5,1.1,15.8
				c0.2,5.3,0.1,10.6-0.3,15.8l-0.4,3.9l-0.5,3.9l-0.7,3.9c-0.3,1.3-0.6,2.6-0.9,3.9l-0.1,0.3h-0.3L931,589h-0.3l-0.1-0.3
				c-0.3-1.6-0.6-3.3-0.7-4.9c-0.2-1.6-0.3-3.2-0.5-4.9c-0.3-3.2-0.5-6.5-0.8-9.8c-0.5-6.5-0.9-13.1-1.3-19.6L928.3,549.6z"/>
			<path class="st11" d="M863.2,472.2c-6,4.6-11.8,9.5-17.5,14.6c-2.8,2.6-5.6,5.2-8.3,7.8c-2.7,2.7-5.4,5.4-7.9,8.2v0.1h-0.1l0,0
				c-10.5,4.5-21,9-31.5,13.6c-5.2,2.3-10.5,4.6-15.7,7s-10.5,4.7-15.4,7.4c-0.2,0.1-0.4,0.2-0.6,0.3c-0.3,0.1-0.5,0.1-0.8,0
				s-0.5-0.2-0.6-0.4l-0.3-0.4c-0.5-0.5-1-0.9-1.6-1.3c-1.2-0.7-2.5-1.1-3.9-1.2c-1.4-0.1-2.8,0.1-4.1,0.5s-2.5,1.1-3.4,2.1
				c0,0,0,0.1,0,0s0-0.2,0-0.2c-0.1-0.1-0.1-0.1-0.1-0.1l0.2,0.1c0.2,0,0.3,0.1,0.5,0.1l1.1,0.3c0.2,0,0.4,0.1,0.6,0.2
				c0.2,0.1,0.3,0.2,0.4,0.3c0.1,0.1,0.1,0.2,0.1,0.3s0,0.1,0,0.2l-0.2,0.2c-0.2,0.3-0.4,0.7-0.5,1c-0.8,1.2-1.6,2.4-2.5,3.5
				s-1.7,2.3-2.4,3.5c-0.8,1.1-1.3,2.4-1.6,3.8c-0.1,0.6,0.2,1.2,0.8,1.5s1.3,0.4,2,0.4c1.4,0.2,2.8,0.7,4.2,1.3
				c1.3,0.6,2.6,1.1,3.9,1.6c1.3,0.4,2.7,0.3,3.9-0.3c1.2-0.7,2.1-1.8,2.8-3s1.3-2.5,1.8-3.8c0.3-0.7,0.5-1.3,0.7-2l0.3-1
				c0.1-0.2,0.1-0.3,0.2-0.6c0.2-0.3,0.5-0.6,0.9-0.6l0.3-0.1l0.5-0.1l1.1-0.2c0.7-0.1,1.4-0.3,2.1-0.4c11.2-2.3,21.8-6.7,32.2-11.6
				c5.2-2.4,10.2-5,15.3-7.7l7.6-3.9c2.6-1.3,5.1-2.6,7.8-3.7c2.5-1.2,4.9-2.7,7.2-4.3c2.3-1.6,4.7-3.2,7-4.9
				c4.6-3.4,9.1-6.9,13.6-10.4s9-7.1,13.5-10.6l13.4-10.7l0,0v0.6l-12.6-7.3h0.4C872.9,465,868,468.5,863.2,472.2z M862.7,471.5
				c4.8-3.7,9.7-7.2,14.8-10.5l0.2-0.1l0.2,0.1l12.6,7.3l0.5,0.3l-0.4,0.3l0,0c-4.3,3.9-8.6,7.6-12.9,11.3c-4.3,3.8-8.8,7.4-13.2,11
				s-9,7.1-13.6,10.6c-2.3,1.7-4.6,3.4-7,5.1c-1.2,0.8-2.4,1.6-3.6,2.4c-1.3,0.8-2.6,1.5-3.9,2.1c-2.6,1.1-5.2,2.3-7.7,3.6l-7.7,3.9
				c-5.1,2.5-10.3,5-15.6,7.3s-10.6,4.4-16.1,6.3c-5.4,1.9-11,3.4-16.6,4.5c-0.7,0.1-1.4,0.3-2.1,0.4l-1.1,0.2l-0.5,0.1h-0.3h-0.2
				c-0.2,0.1-0.3,0.3-0.4,0.7l-0.3,1.1c-0.2,0.7-0.5,1.4-0.8,2c-0.5,1.4-1.2,2.7-1.9,3.9c-0.7,1.3-1.8,2.4-3,3.2
				c-1.4,0.7-2.9,0.8-4.4,0.3c-1.4-0.4-2.7-1-4-1.6s-2.6-1-4-1.2c-0.7,0-1.5-0.2-2.1-0.5c-0.4-0.2-0.7-0.5-0.9-0.9s-0.3-0.8-0.2-1.2
				c0.2-1.5,0.8-2.9,1.7-4.1c0.8-1.2,1.6-2.4,2.4-3.6s1.7-2.3,2.4-3.5c0.2-0.3,0.3-0.6,0.5-0.9l0.1-0.1c0,0,0,0,0,0.1s0,0.1,0,0.2
				c0.1,0.1,0,0-0.1,0c-0.1-0.1-0.3-0.1-0.5-0.1l-1.1-0.2l-0.5-0.2c-0.1,0-0.2-0.1-0.3-0.1c-0.1-0.1-0.2-0.2-0.2-0.3
				c-0.1-0.1-0.1-0.3,0-0.4c0.1-0.1,0-0.1,0.1-0.1c1-1.2,2.3-2,3.7-2.5s2.9-0.7,4.4-0.6c1.5,0.1,3,0.5,4.3,1.3
				c0.6,0.4,1.2,0.9,1.7,1.4l0.4,0.4c0.1,0.1,0.1,0.1,0.2,0.2c0.2,0.1,0.3,0,0.7-0.2c5.1-2.8,10.3-5,15.5-7.4s10.5-4.7,15.7-6.9
				c10.5-4.6,21-9.1,31.6-13.5l0,0l-0.1,0.1c2.6-2.8,5.2-5.6,7.9-8.2c2.7-2.7,5.5-5.4,8.3-7.9C850.8,481.1,856.7,476.2,862.7,471.5z
				"/>
			<path class="st11" d="M798.8,774.5c-0.1-0.1-0.1-0.2-0.1-0.3V774v-0.2v-0.4c0-0.3,0.1-0.5,0.2-0.8c0.1-0.5,0.3-1,0.5-1.5
				c0.4-1,1.1-1.8,2.1-2.4c0.2-0.1,0.5-0.2,0.8-0.3l0.8-0.2c0.5-0.1,0.9-0.2,1.4-0.3c0.9-0.2,1.9-0.5,2.8-0.8
				c3.7-1.1,7.4-2.4,11-3.9c3.6-1.4,7.1-3.1,10.5-5.1c3.4-1.9,6.5-4.2,9.2-7c0.8-1,2.2-1.3,3.4-0.7c0.6,0.3,1,0.9,1.2,1.5
				c0.1,0.6,0,1.2-0.1,1.7c-0.2,0.5-0.4,1-0.6,1.5c-0.2,0.4-0.4,0.8-0.5,1.2s-0.1,0.7,0,1.1c0.1,0.4,0.4,0.7,0.7,0.9
				c0.7,0.5,1.5,0.9,2.4,1.1c0.9,0.2,1.9,0.3,2.8,0.3c0.9,0,1.9-0.1,2.8-0.3c0.9-0.1,1.7-0.4,2.4-0.9c0.1,0,0.1-0.1,0.1-0.2
				c0.1,0,0,0,0.1-0.2c0.1-0.3,0.1-0.5,0.2-0.8c0.1-0.5,0.3-1,0.6-1.5c0.5-1,1.4-1.9,2.4-2.3c0.3-0.1,0.6-0.1,0.9-0.2h0.2
				c0.1,0,0.2,0,0.3,0c0.2,0,0.5,0.2,0.7,0.3c0.4,0.4,0.7,0.9,0.9,1.4c0.4,0.9,0.8,1.9,1.1,2.8c1.1,3.8,2,7.6,2.6,11.5l0,0
				c0,0.2-0.1,0.4-0.4,0.5c-0.2,0-0.3,0-0.4-0.2c-0.4-0.5-0.8-1-1.3-1.4c-0.4-0.4-0.9-0.6-1.5-0.5c-0.6,0.3-1.1,0.6-1.7,1l-1.7,1.2
				c-0.6,0.4-1.1,0.8-1.8,1.1c-0.6,0.4-1.3,0.7-2.1,0.8c-0.5,0.1-1-0.1-1.3-0.5c-0.1-0.1-0.2-0.2-0.3-0.3s-0.2-0.1-0.4-0.2
				c-0.6-0.2-1.2-0.3-1.9-0.4c-2.7-0.2-5.4-0.1-8.1,0.3c-2.7,0.3-5.4,0.8-8.1,1.4c-1.3,0.3-2.6,0.7-3.9,1.1
				c-1.3,0.4-2.5,0.9-3.9,1.3c-2.7,0.7-5.5,1.1-8.3,1.1s-5.5-0.1-8.3-0.4c-1.4-0.1-2.7-0.3-4.1-0.5l-2-0.3l-1-0.2l-0.5-0.1h-0.3
				h-0.1H799C799,774.6,798.9,774.6,798.8,774.5z M799.5,774C799.5,773.9,799.5,773.9,799.5,774L799.5,774L799.5,774h0.3l0.5,0.1
				l1,0.2l2,0.3c1.4,0.2,2.7,0.4,4.1,0.5c2.7,0.3,5.5,0.4,8.2,0.4s5.4-0.4,8-1.1c1.3-0.4,2.6-0.9,3.9-1.3c1.3-0.4,2.7-0.8,4-1.1
				c2.7-0.6,5.4-1.1,8.2-1.4c2.8-0.4,5.5-0.5,8.3-0.3c0.7,0.1,1.5,0.2,2.1,0.5c0.2,0.1,0.4,0.2,0.5,0.3c0.2,0.1,0.3,0.3,0.4,0.5
				c0.1,0.2,0.4,0.2,0.6,0.2c0.6-0.1,1.2-0.3,1.7-0.7c0.6-0.3,1.1-0.7,1.7-1.1l1.7-1.2c0.6-0.4,1.2-0.8,1.9-1.1
				c0.4-0.2,0.9-0.2,1.3,0c0.4,0.1,0.7,0.3,1,0.6c0.6,0.5,1.1,1,1.5,1.6l-0.8,0.3l0,0c-1-3.8-1.8-7.6-3-11.3c-0.3-0.9-0.6-1.8-1-2.7
				c-0.2-0.4-0.4-0.7-0.6-1.1c0,0-0.1,0,0,0h-0.2c-0.2,0-0.4,0.1-0.6,0.1c-0.8,0.3-1.4,0.9-1.7,1.7c-0.2,0.4-0.4,0.8-0.5,1.3
				c-0.1,0.2-0.1,0.4-0.2,0.7c0,0.2-0.1,0.4-0.2,0.5c-0.1,0.2-0.2,0.3-0.3,0.4c-0.9,0.7-1.9,1.1-3,1.2c-1,0.2-2,0.3-3,0.3
				s-2-0.1-3-0.3c-1.1-0.2-2.1-0.6-2.9-1.3c-0.5-0.4-0.9-0.9-1.1-1.4c-0.2-0.6-0.2-1.2-0.1-1.8c0.1-0.5,0.3-1,0.6-1.5
				c0.2-0.4,0.4-0.8,0.5-1.3c0.1-0.4,0.2-0.8,0.1-1.2c-0.1-0.3-0.2-0.6-0.5-0.8c-0.7-0.3-1.5-0.1-2,0.5c-2.8,2.8-6,5.2-9.5,7.1
				c-3.4,1.9-7,3.6-10.7,5.1s-7.4,2.7-11.2,3.8c-1,0.3-1.9,0.5-2.9,0.7c-0.5,0.1-1,0.2-1.5,0.3l-0.7,0.2c-0.2,0.1-0.4,0.2-0.6,0.3
				c-0.8,0.5-1.4,1.1-1.7,2c-0.2,0.4-0.4,0.9-0.5,1.3c0,0.2-0.1,0.5-0.1,0.7V774v0.2v0.1c0,0,0,0.1,0,0
				C799.7,774.1,799.6,774,799.5,774z"/>
			<path class="st25" d="M856.8,769.1c0,0-9.4-5.6-18.7-10.6"/>
			<path class="st25" d="M812.5,775.8c8.6-14.6-2.3-8.9-2.3-8.9"/>
			<path class="st25" d="M840.7,757.4c-4.9,3.8-6.3-2.1-6.3-2.1"/>
			<path class="st11" d="M799.5,774.4c0.4,0.2,0.7,0.2,0.9,0.3c0.1,0.1,0.3,0.2,0.4,0.3l0.5,0.3c0.7,0.5,1.3,0.9,2.1,1.2
				c1.4,0.7,2.9,1.3,4.5,1.8c1.5,0.5,3.1,0.9,4.7,1.2c1.6,0.3,3.2,0.6,4.8,0.7l-0.3,0.1l1.1-0.9l0.2-0.1c0.1-0.1,0.4-0.1,0.5,0l0,0
				c0.1,0.1,0.1,0.3,0,0.4c0.2,0.3,0.6,0.5,1,0.5c0.6,0,1.1,0,1.7,0.1c1.2,0,2.3,0,3.5,0c2.3,0,4.7,0,7-0.1s4.7-0.1,7-0.3
				c1.2-0.1,2.3-0.1,3.5-0.3c0.5,0,1.1-0.1,1.6-0.2h0.1c0,0,0-0.1-0.1,0.2c0,0.1-0.1,0.1-0.1,0.2c0,0.1,0,0.2,0,0.1v-0.2v-0.3
				c0.1-0.4,0.2-0.8,0.5-1.1c0.1-0.2,0.3-0.4,0.6-0.5c0.1-0.1,0.3-0.1,0.4-0.1c0.1,0,0.2,0,0.3,0l0.3,0.1l0.2,0.1
				c0.2,0.2,0.3,0.4,0.5,0.6l0.2,0.4c0.1,0.2,0.2,0.3,0.4,0.4c0,0,0.1,0.1,0.2,0.1c0.1,0,0.2,0,0.3,0c1.1,0,2.3-0.1,3.5-0.1
				c2.3-0.1,4.6-0.3,6.9-0.5c1.1-0.1,2.3-0.2,3.4-0.5c0.3,0,0.5-0.1,0.8-0.2c0.3,0,0.5-0.1,0.8-0.2c0.5-0.2,0.5-0.2,0.6-0.7
				s0-1-0.1-1.5s-0.2-1.1-0.4-1.6c-0.3-1.1-0.8-2.1-1.2-3.2v0.1c-0.3-0.6-0.7-1.1-1.2-1.6c-0.2-0.2-0.4-0.5-0.7-0.7
				c-0.2-0.2-0.4-0.3-0.6-0.4c0.1-0.2-0.7,0.4-1.2,0.7l-1.7,1.2c-1.2,0.9-2.4,1.6-3.8,2.2c-0.2,0.1-0.5,0.1-0.7,0.2
				c-0.2,0-0.4,0-0.6-0.1l-0.3-0.2c-0.3-0.2-0.6-0.4-0.9-0.5c-0.6-0.3-1.2-0.5-1.8-0.7c-2.7-0.5-5.4-0.4-8,0.1
				c-2.7,0.5-5.4,1.1-8.1,1.7c-2.7,0.7-5.4,1.3-8.1,2c-2.7,0.7-5.5,1.1-8.4,1.3c-2.8,0.1-5.6-0.1-8.4-0.4c-1.4-0.2-2.8-0.4-4.2-0.6
				l-2.1-0.3l-1.1-0.2l-0.5-0.1h-0.3H799c0.1,0,0.1,0,0.2,0C799.4,774.8,799.5,774.7,799.5,774.4
				C799.5,774.5,799.5,774.4,799.5,774.4z M798.8,774c0.1-0.1,0.2-0.1,0.3-0.2c0.1,0,0.2,0,0.3,0h0.1h0.3l0.5,0.1l1.1,0.2l2.1,0.3
				c1.4,0.2,2.7,0.4,4.1,0.5c2.7,0.3,5.5,0.4,8.3,0.2c5.5-0.4,10.8-2.1,16.3-3.4c2.7-0.7,5.4-1.4,8.2-1.8c2.8-0.6,5.7-0.7,8.6-0.2
				c0.7,0.2,1.5,0.5,2.1,0.8c0.3,0.2,0.7,0.4,0.9,0.6l0.2,0.1h-0.1c0.1,0,0.2,0,0.3-0.1c1.2-0.6,2.4-1.2,3.4-2l1.7-1.2
				c0.3-0.2,0.6-0.4,0.9-0.6l0.3-0.2c0.1-0.1,0.2-0.1,0.4-0.2c0.3-0.1,0.6-0.1,1,0s0.8,0.4,1.1,0.7s0.6,0.5,0.8,0.8
				c0.5,0.6,0.9,1.2,1.3,1.8c0,0,0,0,0,0.1c0.5,1.1,1,2.2,1.3,3.3c0.2,0.6,0.3,1.2,0.5,1.8c0.1,0.7,0.2,1.3,0.1,2
				c-0.1,0.4-0.2,0.8-0.5,1.2c-0.3,0.3-0.7,0.5-1.1,0.6c-0.3,0.1-0.6,0.2-0.9,0.3c-0.3,0.1-0.6,0.1-0.9,0.2
				c-1.2,0.2-2.3,0.3-3.5,0.5c-2.3,0.2-4.7,0.4-7,0.5c-1.2,0-2.3,0.1-3.5,0.1c-0.2,0-0.4,0-0.6,0c-0.2-0.1-0.4-0.2-0.6-0.3
				c-0.3-0.2-0.6-0.5-0.7-0.9l-0.2-0.4c0-0.1-0.2-0.2,0-0.1h0.1c0,0,0.1,0,0.2,0.1c0.1,0,0,0,0.1,0s0,0,0,0l-0.1,0.1
				c-0.1,0.1-0.2,0.3-0.2,0.5v0.3c0,0.1,0,0.1,0,0.2c0,0.1-0.1,0.2-0.1,0.2c-0.1,0.2-0.3,0.3-0.5,0.4l-0.3,0.1
				c-0.6,0.1-1.2,0.2-1.8,0.3c-1.2,0.1-2.3,0.2-3.5,0.2c-2.3,0.1-4.7,0.1-7,0.2s-4.7,0-7,0c-1.2,0-2.3,0-3.5-0.1
				c-0.6,0-1.2,0-1.8-0.1h-0.2c-0.1,0-0.2-0.1-0.3-0.1c-0.2-0.1-0.3-0.1-0.5-0.2c-0.4-0.2-0.7-0.6-0.7-1.1l0.7,0.3l-1.1,0.9l0,0
				c-0.1,0.1-0.2,0.1-0.3,0.1c-1.6-0.2-3.3-0.4-4.9-0.7c-1.6-0.3-3.2-0.7-4.8-1.2s-3.1-1.1-4.6-1.9c-0.7-0.4-1.5-0.8-2.1-1.3
				l-0.5-0.4c-0.2-0.1-0.4-0.3-0.6-0.5C799.5,774.9,799.1,774.5,798.8,774z"/>
			<path class="st26" d="M842.4,744.7l-0.5,8.7c0,0-6.3,7.3,6.7,7.1c0,0,4,0,4.6-1.8s2-9.2,2-9.2
				C850.8,748.3,846.5,746.7,842.4,744.7z"/>
			<path class="st11" d="M883.9,769.7c0.1-0.3,0.2-0.6,0.3-0.9c0.1-0.2,0.1-0.4,0.2-0.5c0.1-0.3,0.1-0.7,0.1-1.1
				c-0.1-0.4-0.1-0.9-0.1-1.3c0.1-0.5,0.4-1,0.8-1.3c1.5-0.8,3-1.5,4.6-2c3-1.2,5.6-3.2,7.6-5.7c0.9-1.3,1.7-2.7,2.1-4.2
				c0.1-0.4,0.2-0.8,0.3-1.1c0.1-0.4,0.2-0.8,0.2-1.2l0.1-1.2V748c0-0.8-0.1-1.6-0.2-2.4c-0.2-0.8-0.3-1.5-0.5-2.4
				c-0.2-1.1,0.3-2.2,1.3-2.6c0.5-0.2,1-0.3,1.5-0.2s0.9,0.3,1.3,0.7c0.6,0.6,1.2,1.3,1.7,2c0.4,0.5,1.1,0.9,1.8,0.9
				c1.5,0.1,3.1-0.3,4.4-1c1.4-0.7,2.8-1.6,3.9-2.6c0.6-0.5,1-1.1,1.3-1.7c0.2-0.7,0.2-1.4,0-2.1l-0.2-1.2c-0.1-0.5-0.1-1.1,0.1-1.5
				c0.3-0.5,0.7-0.9,1.3-1.1c0.2-0.1,0.5-0.1,0.7-0.2c0.3,0,0.5,0,0.8,0c0.9,0.2,1.8,0.5,2.5,1.1c0.7,0.5,1.3,1,2,1.6
				c1.2,1.2,2.3,2.4,3.4,3.6c1,1.2,2.1,2.4,3.3,3.5l0,0c0.2,0.2,0.2,0.6,0,0.8l0,0c-0.1,0.1-0.3,0.2-0.4,0.2c-0.4,0-0.7-0.1-1.1-0.2
				c-0.4-0.1-0.6-0.3-0.8-0.3c-0.5,0-0.9,0.1-1.3,0.4c-0.8,0.3-0.9,1.6-1.3,2.8c-0.2,0.7-0.6,1.3-1.1,1.8s-1.2,0.8-2,0.9
				c-0.6,0.1-1.3,0.1-1.9,0c-0.5,0-1,0.1-1.5,0.3c-2,0.9-3.7,2.8-5.2,4.6s-2.9,3.9-4.3,5.8c-1.4,2-2.8,4-4.4,5.9
				c-0.8,1-1.8,1.8-2.9,2.5c-1.1,0.6-2.3,1.1-3.5,1.4c-2.4,0.6-4.9,0.8-7.4,0.8c-1.2,0-2.4,0-3.7-0.1H886c-0.3,0-0.6,0-1.1-0.1
				C884.6,769.9,884.3,769.8,883.9,769.7z M884.7,769.3c0.2-0.1,0.4-0.1,0.7-0.2c0.3,0,0.5,0,0.8,0l1.8,0.1c1.2,0,2.4,0.1,3.6,0
				c2.4,0,4.8-0.2,7.1-0.8c1.1-0.3,2.2-0.8,3.2-1.3c1-0.6,1.9-1.4,2.6-2.3c1.5-1.8,2.9-3.9,4.3-5.8c1.4-2,2.8-4,4.3-5.9
				c0.8-1,1.6-1.9,2.5-2.8c0.9-0.9,2-1.7,3.1-2.2c0.6-0.3,1.3-0.4,2-0.4c0.6,0,1.1,0,1.7,0c0.5-0.1,0.9-0.2,1.3-0.6
				c0.4-0.4,0.6-0.8,0.7-1.3c0.2-0.5,0.3-1.1,0.5-1.8c0.1-0.3,0.3-0.7,0.5-1c0.1-0.2,0.2-0.3,0.4-0.5c0.2-0.1,0.3-0.2,0.5-0.3
				c0.3-0.2,0.6-0.3,0.9-0.4c0.4-0.1,0.8-0.2,1.2-0.1c0.4,0.1,0.7,0.3,0.9,0.3c0.2,0.1,0.5,0.1,0.7,0.1l-0.4,1.1
				c-1.2-1.2-2.4-2.4-3.4-3.7c-1.1-1.2-2.1-2.5-3.3-3.6c-1-1.1-2.3-2-3.8-2.4c-0.2,0-0.3,0-0.5,0s-0.3,0.1-0.5,0.1
				c-0.3,0-0.5,0.2-0.6,0.4c-0.2,0.4,0,1.3,0.2,2.1c0.2,0.9,0.2,1.8-0.1,2.7c-0.4,0.8-0.9,1.6-1.6,2.1c-1.3,1.1-2.7,2.1-4.2,2.8
				c-1.6,0.8-3.3,1.2-5.1,1.1c-1-0.1-1.8-0.6-2.4-1.4c-0.4-0.7-0.9-1.3-1.5-1.8c-0.5-0.5-1.1-0.6-1.7-0.4c-0.6,0.3-0.9,0.9-0.7,1.4
				c0.2,0.7,0.4,1.6,0.5,2.4c0.1,0.8,0.2,1.7,0.2,2.5v1.3l-0.2,1.3c0,0.4-0.1,0.8-0.2,1.2c-0.1,0.4-0.2,0.8-0.3,1.2
				c-0.5,1.6-1.3,3.1-2.4,4.5c-2.1,2.6-4.9,4.7-8,5.9c-1.5,0.5-3,1.1-4.4,1.9c-0.3,0.2-0.4,0.4-0.5,0.7c0,0.4,0.1,0.7,0.2,1.1
				c0.1,0.5,0,0.9-0.1,1.4c-0.1,0.2-0.2,0.5-0.2,0.6C884.9,769.1,884.9,769.2,884.7,769.3L884.7,769.3z"/>
			<path class="st27" d="M895.7,769.6c1-2,2.9-7.3-1.5-9"/>
			<path class="st27" d="M907.3,744.7c0,0,6.8-0.3,9.5-4.9c0,0,1.5-3.3-1.6-7.7c0,0-6.6,4.9-11.3,6.2
				C903.9,738.3,904.6,742.7,907.3,744.7z"/>
			<path class="st27" d="M900.5,748.5c3.3,0.6,4.8-0.4,5.5-3.7"/>
			<path class="st11" d="M884.8,769.6c0.3,0,0.5-0.1,0.6,0l0.8,0.5c0.5,0.3,1.1,0.6,1.6,0.9c1.1,0.6,2.2,1.1,3.3,1.5
				c2.2,0.9,4.7,1.1,7.1,0.8l-0.4,0.3c0.1-0.3,0.3-0.5,0.5-0.7l0.2-0.2c0-0.1,0,0,0,0l0.6-0.5l0.5,0.2c0.1,0,0.2,0.1,0.3,0.2
				l0.1,0.1c0,0,0.1,0.1,0.1,0.2c0,0.1,0,0.2,0,0.4c0,0.1-0.1,0.2-0.2,0.2h-0.1h-0.1c-0.2,0-0.4,0-0.6,0h-0.2c0,0-0.1,0,0,0
				c0.4,0.6,0.2-1.2,0.1-0.9l0,0h0.1l1.8,0.3c1.1,0.1,2.3-0.1,3.4-0.5c2.2-0.8,4.4-1.9,6.4-3.1c2.1-1.2,4-2.6,5.9-4.2
				c1-0.7,1.9-1.5,2.7-2.4l0.6-0.7l0.5-0.7c0.3-0.5,0.5-1,0.6-1.5c0.1-0.3,0.1-0.6,0.2-0.8c0-0.2,0-0.4,0-0.7l0,0l0.1,0.1
				c0.1,0,0.2,0,0.2,0l0,0l0,0c-0.1,0.3-1-0.3-0.8-0.5c0-0.1,0-0.2,0.1-0.4c0.1-0.1,0-0.1,0.1-0.1v-0.1l0.2-0.2l0.3-0.4l0.2-0.2
				c0.1-0.1,0.2-0.2,0.3-0.2c0.2-0.1,0.5-0.2,0.7-0.1c0.2,0.1,0.3,0.2,0.4,0.4c0.1,0.2,0.2,0.4,0.2,0.5c0.1,0.1,0.1,0.2,0.1,0.2
				h-0.1c0.4-0.3,0.9-0.6,1.3-0.9c2.1-1.4,4.3-2.5,6.3-3.8c1-0.6,2-1.3,2.9-2.1c0.4-0.4,0.8-0.8,1.1-1.2s0.4-0.8,0.3-1.3
				c-0.1-0.9-1.1-1.7-2-2.3c-0.5-0.3-1-0.6-1.5-0.9c-0.5-0.3-1.1-0.6-1.6-1c-0.4-0.3-0.9-0.5-1.4-0.6c-1-0.2-1.9,0.5-2.1,1.4
				c-0.2,0.5-0.4,1.1-0.6,1.7c-0.2,0.7-0.6,1.3-1.1,1.7c-0.5,0.5-1.2,0.8-2,0.9c-1.2,0.1-2.4,0.2-3.5,0.5s-2.1,0.8-3,1.6
				c-0.8,0.8-1.5,1.7-2.1,2.8c-0.5,1-1.1,2.1-1.7,3.2c-0.7,1.1-1.3,2.1-2,3.1c-1.4,2-3.1,3.9-4.9,5.5c-1.8,1.7-4,3-6.4,3.8
				c-2.4,0.7-4.9,1-7.4,0.9c-1.2,0-2.5-0.1-3.7-0.2l-1.8-0.1h-0.9C885.1,769.9,885,769.7,884.8,769.6z M883.9,769.3
				c0.4-0.2,0.9-0.3,1.3-0.3h0.9l1.8,0.1c1.2,0.1,2.4,0.2,3.6,0.2c2.4,0,4.8-0.3,7.1-0.9c2.2-0.8,4.3-2,6-3.7
				c1.8-1.6,3.3-3.5,4.7-5.4c0.7-1,1.4-2,2-3s1.1-2.1,1.7-3.2c0.6-1.1,1.4-2.2,2.3-3.1c1-0.9,2.1-1.5,3.4-1.9
				c1.2-0.3,2.4-0.5,3.7-0.6c1-0.1,1.9-0.9,2.1-1.9c0.2-0.5,0.4-1.1,0.6-1.7c0.1-0.3,0.3-0.6,0.4-0.9c0.1-0.2,0.2-0.3,0.4-0.5
				c0.1-0.1,0.3-0.3,0.5-0.4c0.6-0.4,1.4-0.6,2.1-0.5c0.7,0.1,1.3,0.4,1.9,0.8c0.6,0.4,1,0.7,1.5,0.9c0.5,0.3,1.1,0.6,1.6,0.9
				c0.6,0.4,1.1,0.8,1.5,1.2c0.5,0.5,0.9,1.2,1,1.9c0.1,0.8-0.1,1.5-0.5,2.1c-0.4,0.5-0.9,1-1.4,1.4c-1,0.8-2,1.5-3.1,2.1
				c-2.1,1.3-4.3,2.4-6.2,3.8c-0.2,0.2-0.4,0.3-0.7,0.5c-0.3,0.3-0.7,0.5-1.1,0.6c-0.2,0-0.3,0-0.5,0c-0.1,0-0.3-0.1-0.4-0.2
				c-0.2-0.2-0.3-0.4-0.4-0.6c-0.1-0.2-0.1-0.3-0.2-0.3c0,0,0,0,0.1,0.1s0.2,0,0.3,0c-0.2,0.2-0.3,0.3-0.5,0.5l-0.1,0.2l0,0
				c0,0,0,0.1,0-0.1c0-0.1,0-0.2,0-0.3c0.2-0.1-0.7-0.7-0.7-0.4l0,0h0.1c0.2-0.1,0.5-0.1,0.7,0.1c0.1,0.1,0.2,0.2,0.3,0.3
				c0,0.1,0.1,0.2,0.1,0.2c0.1,0.4,0.1,0.8,0,1.1c0,0.3-0.1,0.6-0.2,0.9c-0.2,0.7-0.4,1.3-0.8,1.8l-0.5,0.8l-0.6,0.7
				c-0.8,0.9-1.7,1.8-2.7,2.6c-1.9,1.6-3.9,3-6.1,4.2c-2.1,1.3-4.4,2.4-6.7,3.2c-1.2,0.4-2.5,0.6-3.8,0.5l-1.8-0.3h-0.1h-0.1
				c-0.2,0.3-0.4-1.5,0-0.9h0.7H899c0,0-0.1,0.1-0.2,0.2c0,0.1,0,0.2,0,0.3s0,0.1,0.1,0.1l0,0l-0.1-0.1c-0.1,0-0.2-0.1-0.4-0.2
				l0.6-0.5c0,0.2,0,0.5-0.2,0.6c-0.1,0.1-0.2,0.2-0.3,0.3s-0.2,0.2-0.3,0.4c0,0.1-0.1,0.3-0.3,0.3h-0.1c-2.5,0.4-5.1,0.1-7.5-0.9
				c-1.2-0.4-2.3-0.9-3.4-1.5c-0.6-0.3-1.1-0.6-1.6-0.9l-0.8-0.5C884.4,770,884.1,769.7,883.9,769.3L883.9,769.3z"/>
			<path class="st27" d="M897.1,758.1c2,1.8,3.9-1.6,3.9-2.6c-0.1-1.2-0.3-2.4-0.7-3.5"/>
			
				<ellipse transform="matrix(0.3668 -0.9303 0.9303 0.3668 -34.113 996.4737)" class="st28" cx="715" cy="523.3" rx="6.7" ry="2.3"/>
			<path class="st28" d="M717.2,517.1l10.4,4.1c2.2,1.4-0.6,12.1-4.2,12.1l-11-3.8"/>
			<path class="st28" d="M724.6,532.8l6.1,2.1c2.6,0,5.6-8.8,3.9-10.7l-7.2-3"/>
			<polyline class="st28" points="753.8,531.7 738.7,526.4 734.7,524.1 			"/>
			<path class="st28" d="M764.5,545.7l5.9,2c0,0,3.7-1.6,3.5-9.1l-4.3-1.5"/>
			<polyline class="st28" points="730.8,534.8 735.2,535.6 748.1,540.1 			"/>
			<path class="st28" d="M741.9,537.9c1.9,0,4.9-6.7,3.9-9"/>
			<path class="st28" d="M767.2,546.7c3-1,3.7-7.3,3.7-8.8"/>
			<path class="st28" d="M716.8,531c3.7-3,5.4-7.7,4.5-12.3"/>
			<path class="st28" d="M718,531.4c3.6-3,5.4-7.7,4.4-12.3"/>
			<path class="st28" d="M719.3,531.9c3.6-3,5.4-7.7,4.4-12.3"/>
			<path class="st28" d="M720.9,532.3c6.3-5.5,4.2-12.1,4.2-12.1"/>
			<path class="st28" d="M722.7,532.8c6.3-5.5,3.9-12,3.9-12"/>
			<path class="st28" d="M714.2,528.6c-1.1-1.1-1.3-3.4-0.3-5.7c0.7-1.9,2.2-3.3,4.1-4"/>
			<circle class="st28" cx="730.5" cy="528.8" r="2"/>
			<path class="st11" d="M731.9,527.4c0.3,0.4,0.5,0.8,0.4,1.3c0,0.5-0.3,1-0.6,1.3c-0.4,0.3-0.8,0.5-1.4,0.5
				c-0.5,0-0.9-0.2-1.3-0.5c0.4,0.1,0.8,0.2,1.3,0.1c0.4-0.1,0.7-0.3,1-0.5c0.3-0.3,0.5-0.6,0.6-1C732,528.2,732,527.8,731.9,527.4z
				"/>
			<path class="st29" d="M407,589.7c0,23.9-20.3,43.2-45.3,43.2s-45.3-19.3-45.3-43.2s20.3-43.2,45.3-43.2"/>
			<path class="st30" d="M335.8,618c-14.7-13.8-15.5-36.9-1.8-51.6c0.6-0.6,1.2-1.2,1.8-1.8c15.8-14.7,40.2-14.7,56,0"/>
			<ellipse class="st11" cx="407.5" cy="590.2" rx="5.1" ry="4.8"/>
			<ellipse class="st11" cx="335.8" cy="618" rx="2.7" ry="2.5"/>
			<ellipse class="st31" cx="361.4" cy="592.5" rx="21.9" ry="20.9"/>
			<path class="st32" d="M349.3,584.9c1.2,0.1,2.3,0.3,3.4,0.6s2.2,0.7,3.2,1.1l2.6,1.1l-2.7,0.8c-1.2,0.3-2.3,0.6-3.5,0.8
				c-0.6,0.1-1.2,0.2-1.8,0.2c-0.6,0-1.3,0-1.9,0c0.5-0.4,1.1-0.7,1.6-1s1.1-0.5,1.7-0.8c1.1-0.5,2.3-0.9,3.4-1.2l-0.1,1.8
				c-1-0.4-2-0.9-3-1.5C351.2,586.3,350.2,585.7,349.3,584.9z"/>
			<path class="st32" d="M370.8,584.9c-0.8,0.7-1.7,1.4-2.6,2s-1.8,1.1-2.8,1.5l-0.1-1.7c1.1,0.3,2.2,0.7,3.2,1.2
				c1.1,0.5,2.1,1,3,1.7c-1.2,0-2.3,0-3.5-0.3c-1.1-0.2-2.2-0.5-3.3-0.8l-2.4-0.7l2.3-1c1-0.4,2-0.8,3-1.1
				C368.7,585.3,369.7,585,370.8,584.9z"/>
			<path class="st31" d="M366.4,600.7c0,3.2-2.7,5.4-6.1,5.4c-3.3,0.1-6.1-2.5-6.1-5.8L366.4,600.7z"/>
			<path class="st33" d="M456,472.9c3.9,14.8-0.3,23.8-12.6,27.1c-3.4,1-7,0.7-10.1-0.9c-1.6,2.8-3.6,4.5-5.9,5.1
				c-2.8,0.9-5.8,0.5-8.2-1.1c-2.2-1.4-3.7-3.7-4.3-6.2c-0.8-2.9-0.3-6,1.4-8.4c1.5-2.3,3.7-3.9,6.4-4.6c1-0.3,2.1-0.4,3.2-0.2
				c-0.6-1.6-1.6-2.9-2.9-3.9c-1.4-1-3.2-1.3-4.8-0.8c-0.5,0.1-1.1,0.3-1.6,0.6l1.7-12.1c2.5-1,5.2-1.4,7.8-1.1
				c4.2,0.6,7.5,3.1,9.9,7.7c0.9,1.7,2.5,6,4.9,12.9c1.1,3.3,2.6,4.7,4.6,4.1s3-2.3,3.4-5.1c0.3-3.3-0.1-6.5-1.1-9.7
				c-1.8-6.9-5.7-11.6-11.5-14.1c-4.7-2.1-9.9-2.5-14.9-1.1c-6,1.6-11.2,5.5-14.3,11c-3.3,5.2-4.3,11.6-2.7,17.5
				c1.4,6,4.9,11.2,9.9,14.8c5.4,3.8,11.5,4.8,18.3,3.1c1.2-0.3,2.6-0.7,4.3-1.2l1.9,7c-1.8,0.7-3.6,1.2-5.5,1.7
				c-6.8,1.8-14,1.2-20.4-1.6c-8.6-3.7-14.3-10.7-17.1-20.9c-2.4-9.2-1.3-17.5,3.4-24.9c4.5-7.1,11.2-11.8,20.1-14.2
				c7.4-2.2,15.4-1.4,22.3,2C449,458.7,454.2,465.2,456,472.9z M430.7,494.6l-1.9-3.4c-2.6,0.3-3.7,1.4-3.2,3.1
				c0.2,1.1,1.2,1.9,2.3,1.7c0.2,0,0.4-0.1,0.5-0.2C429.3,495.6,430.1,495.2,430.7,494.6z"/>
			<circle class="st11" cx="429.8" cy="440.5" r="4.6"/>
			<circle class="st11" cx="413.5" cy="443.6" r="4.6"/>
			<path class="st11" d="M717.1,517.4c-12.7-2.9-25.1-7.1-36.9-12.8c-5.9-2.8-11.6-6-17.2-9.5c-5.5-3.5-10.9-7.3-16-11.4
				c-10.3-8-19.8-17-29.6-25.3s-20-16.1-31.3-22c-5.6-3-11.5-5.6-17.5-7.7l-4.5-1.5c-0.8-0.2-1.5-0.5-2.3-0.8l-2.3-0.6l-4.6-1.3
				c-1.5-0.4-3.1-0.7-4.7-1.1c-12.6-2.6-25.4-4.2-38.2-4.6c-12.9-0.5-25.9-0.7-38.9-1.6c-6.4-0.3-13-0.8-19.4-1.3l-4.8-0.4l-4.8-0.5
				l-9.7-1c-3.2-0.3-6.4-0.9-9.7-1.3c-3.2-0.4-6.4-0.8-9.7-1.4l-9.7-1.5l-9.5-1.9c-1.6-0.3-3.2-0.7-4.7-1.1l-4.7-1.2
				c-0.8-0.2-1.6-0.4-2.4-0.6l-2.3-0.7l-4.7-1.5c-1.6-0.4-3.1-1.1-4.6-1.6l-4.6-1.6c-1.5-0.6-3-1.3-4.5-1.9s-3-1.3-4.5-2l-4.4-2.2
				c-1.5-0.7-2.8-1.6-4.3-2.4l-2.1-1.2c-0.7-0.4-1.4-0.9-2.1-1.3c-1.4-0.9-2.7-1.8-4.1-2.7l-3.9-2.9c-1.3-1-2.6-2-3.9-2.9
				c-1.4-1-2.6-2.1-3.9-3.2c-1.2-1.2-2.3-2.4-3.3-3.8c-3.9-5.2-7.4-10.8-10.5-16.6c-3.1-5.7-6.1-11.5-9.1-17.3
				c-5.9-11.6-11.8-23.1-18.1-34.3c-6.2-11.3-13.2-22.2-20.8-32.5c-7.8-10.2-16.4-19.8-26.6-27.5c-5-3.9-10.5-7.2-16.3-9.9
				c-2.9-1.3-5.9-2.5-8.9-3.5c-3.1-0.9-6.2-1.7-9.4-2.3l0.1-0.7c3.3,0.2,6.5,0.7,9.7,1.4s6.4,1.7,9.4,2.9c6.1,2.4,12,5.6,17.3,9.4
				c2.7,1.9,5.3,4,7.8,6.1c2.5,2.2,4.9,4.4,7.2,6.8c2.3,2.4,4.5,4.8,6.6,7.3s4.1,5.1,6.1,7.7c15.7,21,27.3,44.5,38.7,67.7
				c2.9,5.8,5.7,11.6,8.8,17.3c2.9,5.7,6.2,11.2,10,16.4c0.9,1.3,2,2.5,3,3.6c1.1,1.1,2.3,2.1,3.6,3.1c1.3,1,2.5,2,3.8,3l3.9,2.9
				c1.3,0.9,2.6,1.8,4,2.7c0.7,0.4,1.3,0.9,2,1.3l2.1,1.3c1.4,0.8,2.7,1.7,4.2,2.5l4.3,2.3c1.4,0.8,2.9,1.4,4.3,2.1s2.9,1.4,4.4,2
				l4.5,1.7c1.5,0.6,3,1.2,4.5,1.7l4.6,1.5l2.3,0.7c0.8,0.2,1.6,0.4,2.3,0.6l4.7,1.2c1.6,0.4,3.1,0.9,4.7,1.2
				c12.6,2.9,25.4,5,38.3,6.1l9.7,0.8l4.8,0.4l4.8,0.3c6.4,0.3,12.9,0.7,19.4,0.9c13,0.5,25.9,0.3,38.9,0.5
				c13.1,0.1,26.1,1.3,39,3.8c1.6,0.3,3.2,0.6,4.8,1l4.8,1.2l2.4,0.6c0.8,0.2,1.6,0.5,2.4,0.7l4.7,1.5c1.6,0.5,3.1,1.1,4.6,1.7
				s3.1,1.1,4.6,1.8l4.5,2l4.4,2.2c11.8,6,22.4,13.9,32.3,22.4c5,4.2,9.8,8.6,14.6,12.9s9.7,8.5,14.7,12.6s10.1,7.9,15.4,11.5
				c5.3,3.6,10.8,6.9,16.5,9.9c11.4,6,23.3,11,35.6,15L717.1,517.4z"/>
			<path class="st11" d="M127,798.8c7.1-0.6,14-2.2,20.6-4.7c1.6-0.6,3.2-1.3,4.8-2.1c1.5-0.8,3-1.7,4.5-2.7
				c2.9-1.9,5.5-4.2,7.8-6.8c4.6-5.1,8-11.3,11.9-17.5c2-3.2,4.2-6.1,6.8-8.8c2.7-2.7,5.8-5,9.2-6.7c3.4-1.6,7-2.8,10.7-3.5
				c0.9-0.2,1.8-0.3,2.8-0.4s1.8-0.3,2.8-0.3c1.9-0.1,3.6-0.3,5.6-0.2c3.7,0.2,7.3,0.7,10.9,1.5c3.6,0.7,7.1,1.4,10.6,2.1
				c13.9,3.1,27.9,6.1,41.9,8.1c14,2.1,28.2,2.9,42.3,2.2c14.1-0.7,28-3.8,41.1-9.1c13-5.6,24.6-14,34-24.7
				c4.7-5.3,8.8-11.1,12.4-17.2l2.6-4.6l2.4-4.8c1.7-3.2,3.2-6.4,5.2-9.4c3.8-6.1,8.2-11.8,13.3-16.9c5.1-5.1,10.9-9.4,17.2-12.9
				c6.3-3.4,13-6.2,19.9-8.3c6.8-2.1,13.8-3.9,20.7-5.6c6.9-1.7,13.7-3.7,20.4-6.1c3.3-1.2,6.5-2.7,9.7-4.3c1.5-0.9,3.1-1.7,4.5-2.6
				l2.1-1.5c0.4-0.2,0.7-0.5,1.1-0.7l1.1-0.8c5.5-4.3,10.2-9.6,13.9-15.5c0.9-1.4,1.9-3,2.9-4.5s2.1-3,3.3-4.4
				c1.1-1.4,2.4-2.8,3.6-4.1c0.6-0.7,1.2-1.3,1.9-2l2-1.8c5.4-4.9,11.1-9.3,17.2-13.2c6-4,12.2-7.6,18.6-11
				c12.7-6.7,25.7-12.8,39-18.2s26.8-10.3,40.4-14.7s27.6-8.2,41.5-11.2l0.2,0.7c-13.6,4.5-27.1,9-40.6,13.7
				c-13.4,4.8-26.8,9.7-40,15s-26.1,11.2-38.8,17.8c-6.3,3.3-12.4,6.9-18.4,10.7c-6,3.7-11.6,8-16.9,12.6l-2,1.8
				c-0.6,0.6-1.2,1.2-1.8,1.9c-1.3,1.2-2.4,2.5-3.6,3.9c-1.2,1.3-2.2,2.7-3.2,4.1c-1,1.4-1.9,2.8-2.9,4.4c-3.9,6.2-8.9,11.6-14.7,16
				l-1.1,0.8c-0.4,0.3-0.8,0.5-1.1,0.8l-2.3,1.5c-1.5,1-3.2,1.8-4.8,2.7c-3.2,1.6-6.6,3-10,4.2c-6.8,2.3-13.7,4.3-20.7,5.8
				c-7,1.6-13.9,3.2-20.7,5.3c-6.8,2-13.4,4.6-19.8,7.9c-6.3,3.3-12.1,7.5-17.2,12.4c-5.1,5-9.4,10.7-13,16.9c-1.9,3-3.4,6.3-5,9.4
				l-2.3,4.8l-2.5,5c-3.5,6.3-7.6,12.2-12.2,17.8c-9.3,11.1-21,20-34.3,26.1c-13.2,6.1-27.6,9.2-42,10.3c-14.4,1-28.9,0.5-43.2-1.6
				c-14.3-1.8-28.4-4.9-42.3-7.9c-3.5-0.8-7-1.5-10.4-2.1c-3.4-0.7-6.8-1.2-10.3-1.4c-1.6-0.1-3.4,0.1-5.1,0.1
				c-0.9,0-1.7,0.2-2.6,0.3c-0.9,0.1-1.7,0.2-2.5,0.3c-3.3,0.5-6.6,1.5-9.7,2.9c-3,1.4-5.8,3.3-8.2,5.7s-4.6,5.1-6.5,8
				c-4,5.8-7.6,12.2-12.9,17.5c-5.2,5.3-11.6,9.2-18.7,11.4c-6.9,2.1-14.1,3.3-21.3,3.3L127,798.8z"/>
			<path class="st34" d="M222.2,338.2c-6.4,0-6.4,10.1,0,10.1S228.7,338.2,222.2,338.2z"/>
			<path class="st34" d="M237.8,330.3c-8-8.8-21.5-9.4-30.3-1.4c-0.7,0.6-1.4,1.3-2,2c-1.5,1.6-1.5,4.1,0,5.7c1.4,1.4,4.3,1.7,5.7,0
				c0.7-0.8,1.5-1.6,2.3-2.3l0.2-0.2l0.9-0.6c0.5-0.3,1-0.6,1.5-0.8c0.8-0.4,1.7-0.7,2.6-0.9c0.5-0.1,1.1-0.3,1.6-0.3h0.2h1.1
				c0.6,0,1.1,0,1.7,0h0.3l0.7,0.1c1.1,0.2,2.1,0.5,3.1,0.9l0.3,0.2l0.7,0.4c0.6,0.3,1.1,0.6,1.6,1l0.4,0.3l0.4,0.4
				c0.5,0.4,0.9,0.9,1.3,1.3c1.6,1.5,4.2,1.4,5.7-0.2C239.3,334.2,239.3,331.8,237.8,330.3L237.8,330.3z"/>
			<path class="st34" d="M246.5,318.2c-14.5-12.4-36-12-50.1,1c-3.9,3.5,1.8,9.1,5.7,5.7c10.9-9.7,27.3-10.1,38.7-1
				c1.6,1.5,4.1,1.5,5.7,0C247.9,322.4,248.1,319.6,246.5,318.2z"/>
			
				<rect x="457.8" y="561.1" transform="matrix(0.9874 -0.1583 0.1583 0.9874 -85.2171 87.6346)" class="st35" width="99.4" height="35.3"/>
			<text transform="matrix(0.9874 -0.1583 0.1583 0.9874 473.9466 593.0937)" class="st35 st36 st37">WWW</text>
			<path class="st32" d="M526.9,493.6c0.2-0.4,0.5-0.7,0.9-0.9l24.7-10.7c0.9-0.3,1.8,0.1,2.2,1c0.3,0.8,0,1.7-0.8,2.1l-24.7,10.7
				c-0.9,0.4-1.8,0-2.2-0.9C526.7,494.5,526.7,494,526.9,493.6L526.9,493.6z"/>
			<path class="st11" d="M526,493.3c0.2-0.6,0.7-1.2,1.4-1.4l13.5-5.9c1.3-0.5,2.9,0.2,3.4,1.5s-0.1,2.7-1.3,3.3l-13.5,5.9
				c-1.3,0.6-2.9,0-3.4-1.4C525.8,494.6,525.7,493.9,526,493.3z"/>
			<path class="st11" d="M575.8,487.4l-18.1-20.6c1.5-1.1,3.2-1.8,4.9-2.2l16.1,18.2c0,0.1-0.1,0.2-0.1,0.3
				C577.9,484.7,577,486.2,575.8,487.4z"/>
			<path class="st11" d="M570.6,490.9l-17.1-19.3c0.5-0.9,1.1-1.8,1.8-2.6l18.1,20.5C572.5,490.1,571.6,490.6,570.6,490.9z"/>
			<path class="st11" d="M580.1,483.7c3.1-7.9-0.8-16.9-8.7-20s-16.9,0.8-20,8.7c-3.1,7.9,0.8,16.9,8.7,20l0,0
				C568,495.5,576.9,491.6,580.1,483.7z M554.4,473.6c2.4-6.2,9.5-9.3,15.7-6.8c6.2,2.4,9.3,9.5,6.8,15.7c-2.4,6.2-9.5,9.3-15.7,6.8
				C555,486.8,552,479.8,554.4,473.6z"/>
			<path class="st38" d="M329.4,380.3c-5.4,2.8-10.9,5.3-16.7,7.3c-3.5,1.3-7.2,2.7-10.7,4.3c-11.2,5-18.6,11.5-22.1,19.3
				c-2.2,5.3-2.9,11.1-2.1,16.7c0.4,3.6,1.6,7,3.6,10c1.1,1.5,2.4,2.8,4,3.8c0,0.6,0.1,1.2,0.2,1.7c2.3,15.6,12.4,28.9,26.8,35.4
				l0.3-0.7c-14.1-6.4-24.1-19.5-26.4-34.8c0-0.4-0.1-0.8-0.2-1.2c1.3,0.7,2.7,1.1,4.2,1.2c3.8,0.3,7.3-1.8,8.8-5.3
				c0.7-1.9,0.5-3.9-0.5-5.7c-0.8-1.6-2.2-2.8-3.9-3.2c-3.5-0.9-6.9,1.7-8.3,4.5c-1,2.2-1.4,4.7-1.2,7.1c-1.3-0.9-2.5-2-3.4-3.3
				c-1.9-2.9-3.1-6.2-3.5-9.7c-0.9-5.5-0.2-11.2,2-16.3c3.4-7.6,10.7-14,21.7-18.9c3.5-1.6,7.1-2.9,10.6-4.2
				c5.8-2,11.4-4.4,16.8-7.3c0.9-0.5,1.7-1.1,2.6-1.6l-0.4-0.6C331.2,379.3,330.3,379.8,329.4,380.3z M286.2,441.1
				c-0.3-2.5,0.1-5,1.1-7.3c1.3-2.6,4.3-4.9,7.5-4.1c1.5,0.4,2.7,1.4,3.4,2.8c0.8,1.6,1,3.4,0.4,5.1c-1.4,3.2-4.6,5.1-8.1,4.8
				C289,442.3,287.5,441.9,286.2,441.1z"/>
			<path class="st38" d="M326.3,499.6c10.1,4.4,19,1.5,22.1-5.5c3.1-7.1-0.8-15.6-10.9-20c-0.7-0.3-3.6-1.5-5.7-2.4l-1.2-0.5
				c-0.5-0.2-0.8-0.3-1-0.4c-8.9-2.8-14,0.7-17.4,6.3c-0.2,0.3-0.3,0.6-0.5,0.9c-0.1,0.3-0.3,0.6-0.3,0.9c-1.9,6.3-1,12.4,7.1,17.1
				c0.2,0.1,0.5,0.3,1,0.5c0.4,0.2,0.7,0.4,1.1,0.5C322.8,498,325.6,499.3,326.3,499.6z"/>
			
				<rect x="321.5" y="469.8" transform="matrix(0.3987 -0.9171 0.9171 0.3987 -244.7412 582.8553)" class="st39" width="1.2" height="16.6"/>
			<path class="st38" d="M324.4,482.3l-0.8,1.8c-0.2,0.4-0.7,0.6-1.2,0.5l-4.5-2c-0.4-0.2-0.6-0.7-0.5-1.2l0.8-1.8
				c0.2-0.4,0.7-0.6,1.2-0.5l4.5,2C324.4,481.4,324.6,481.9,324.4,482.3z"/>
			<path class="st38" d="M320.7,497c5.3-7.7,9.1-16.3,11.2-25.4l-1.2-0.5c-2,9.1-5.8,17.7-11.1,25.4
				C319.9,496.6,320.3,496.8,320.7,497z"/>
			<path class="st11" d="M241.3,538.3c-0.1-0.6-0.1-1.2-0.1-1.8v-0.4c0-0.1,0-0.2,0-0.3v-0.6c0-0.7,0-1.5-0.1-2.2s-0.2-1.5-0.3-2.2
				l-0.5-2.1c-0.9-2.9-2.2-5.6-4.1-8c-3.7-4.9-9-8.3-15-9.7l-2.3-0.4c-0.8-0.1-1.5-0.1-2.3-0.2s-1.5,0-2.3,0s-1.5,0.2-2.3,0.2
				c-9.4,1.4-17.3,7.9-20.6,16.9l-0.2,0.5l-0.4-0.3l0,0c-1.7-1.4-3.7-2.2-5.8-2.4s-4.2,0.2-6.1,1.1c-1.8,0.9-3.3,2.4-4.4,4.2
				c-1,1.7-1.5,3.7-1.4,5.7l0.1,1.2l-1.4,0.3l0,0c-1.7,0-3.3,0.3-4.9,0.8c-1.6,0.6-3.1,1.3-4.5,2.3c-2.8,2-5,4.9-6.2,8.2
				s-1.4,6.9-0.6,10.3c0.4,1.7,1,3.3,1.9,4.9c0.9,1.5,1.9,2.9,3.2,4.2c1.3,1.2,2.7,2.3,4.2,3.1s3.2,1.4,4.9,1.8
				c1.7,0.3,3.5,0.5,5.2,0.4h5.4l21.4-0.1l21.4-0.2l10.7-0.1c1.7,0,3.5-0.1,5.1-0.4c1.7-0.4,3.3-1,4.8-1.8s2.9-1.8,4.1-3
				c1.2-1.2,2.1-2.6,2.9-4.1c0.8-1.5,1.4-3.1,1.8-4.7c0.1-0.4,0.2-0.8,0.2-1.2c0.1-0.4,0.1-0.8,0.2-1.2c0-0.8,0-1.7,0-2.5
				c-0.2-3.4-1.3-6.6-3.3-9.3c-1-1.3-2.1-2.6-3.4-3.6l-1-0.7l-1.1-0.7l-1.1-0.6C242.4,539.1,241.9,538.7,241.3,538.3z M243.8,536.8
				c0.2,0,0.4,0,0.6,0.1l1.2,0.7l1.2,0.8c0.4,0.3,0.8,0.6,1.1,0.9c1.5,1.2,2.7,2.7,3.8,4.3c2.1,3.2,3.3,6.9,3.4,10.7
				c0,0.9,0,1.9-0.1,2.8c-0.1,0.5-0.2,0.9-0.2,1.4c-0.1,0.5-0.2,0.9-0.3,1.4c-0.5,1.8-1.2,3.6-2.1,5.2c-1.9,3.2-4.7,5.9-8,7.6
				c-1.7,0.9-3.4,1.5-5.2,1.9c-1.8,0.3-3.6,0.5-5.5,0.4l-10.7-0.1l-21.4-0.2l-21.4-0.1h-5.4c-1.8,0-3.6-0.1-5.4-0.5
				c-1.8-0.4-3.5-1.1-5.1-1.9c-1.6-0.9-3-2-4.3-3.2c-1.3-1.3-2.3-2.7-3.2-4.3s-1.5-3.3-1.9-5.1s-0.5-3.6-0.5-5.4
				c0.1-1.8,0.4-3.6,1-5.4c0.6-1.7,1.4-3.4,2.4-4.9s2.2-2.9,3.6-4.1c1.4-1.2,3-2.3,4.6-3.1c1.7-0.8,3.5-1.4,5.4-1.8l0,0l-1.3,1.5
				c0.1-2.5,0.9-4.9,2.3-7c1.4-2,3.3-3.6,5.6-4.5c2.2-0.9,4.7-1.2,7-0.7s4.4,1.6,6.1,3.2l0,0l-0.6,0.2c3.2-9.4,11.2-16.4,21-18.2
				c0.8-0.1,1.6-0.2,2.4-0.3c0.8-0.1,1.6-0.1,2.4-0.1s1.6,0,2.4,0.1l2.4,0.3c6.5,1.2,12.4,4.8,16.6,10c2.1,2.6,3.7,5.6,4.7,8.7
				l0.7,2.4c0.2,0.8,0.3,1.6,0.4,2.5s0.1,1.7,0.2,2.5v0.6c0,0.1,0,0.2,0,0.3s0,0.1,0,0.1C244,536.5,243.9,536.6,243.8,536.8z"/>
			<polygon class="st11" points="216.2,553 216.2,539.1 202.4,539.1 202.4,553 199.3,553 209.3,563.8 219.2,553 			"/>
			<path class="st11" d="M938.8,588.9c0.7,3.2,0.9,6.4,0.6,9.7c-0.1,1.6-0.3,3.2-0.6,4.8s-0.7,3.2-1.2,4.7c-0.3,0.8-0.7,1.6-1.2,2.3
				c-0.6,0.7-1.3,1.2-2.1,1.6c-1.6,0.7-3.4,0.8-5.1,0.2c-0.4-0.2-0.8-0.4-1.2-0.8c-0.2-0.2-0.3-0.4-0.5-0.6
				c-0.1-0.2-0.2-0.5-0.2-0.7c-0.1-0.8-0.2-1.6-0.2-2.4c-0.1-1.6-0.1-3.2,0-4.8l0,0v0.1c-0.4-1.3-0.6-2.6-0.8-3.9
				c-0.2-1.3-0.2-2.7,0-4c0.2-1.4,0.6-2.7,1.3-3.8c0.8-1.2,1.9-2.1,3.1-2.6l0.3,0.7c-1.1,0.5-2.1,1.3-2.8,2.3
				c-0.6,1.1-1.1,2.3-1.2,3.5c-0.2,1.3-0.2,2.6,0,3.8c0.1,1.3,0.4,2.5,0.7,3.8v0.1v0.1l0,0c0,1.6,0,3.2,0.2,4.8
				c0.1,0.8,0.2,1.6,0.3,2.3c0.2,0.6,0.6,1.1,1.2,1.3c1.4,0.5,2.9,0.4,4.2-0.2c0.7-0.3,1.2-0.7,1.7-1.3c0.4-0.6,0.7-1.3,1-2
				c0.9-3,1.5-6.1,1.6-9.3c0.3-3.1,0.2-6.3-0.2-9.4L938.8,588.9z"/>
			<line class="st40" x1="250.9" y1="753.3" x2="252.8" y2="628.2"/>
			
				<rect x="189.2" y="690.3" transform="matrix(1.518222e-02 -0.9999 0.9999 1.518222e-02 -442.7484 932.1099)" class="st41" width="125.2" height="1.1"/>
			<circle class="st42" cx="252.8" cy="628.2" r="8.7"/>
			<path class="st42" d="M252.8,637.4c-5.1,0-9.2-4.1-9.2-9.2c0-5.1,4.1-9.2,9.2-9.2s9.2,4.1,9.2,9.2l0,0
				C262.1,633.3,257.9,637.4,252.8,637.4z M252.8,620c-4.5,0-8.2,3.6-8.2,8.2c0,4.5,3.6,8.2,8.2,8.2s8.2-3.6,8.2-8.2l0,0
				C261,623.7,257.3,620,252.8,620z"/>
			<path class="st42" d="M252.3,663.6c0,0-0.8-26.7-26.3-24"/>
			<path class="st42" d="M251.8,663.6c0-0.1-0.5-12.1-8.3-18.9c-4.4-3.8-10.2-5.4-17.4-4.6L226,639c7.5-0.8,13.6,0.8,18.2,4.9
				c8.2,7.2,8.7,19.2,8.7,19.7L251.8,663.6z"/>
			<path class="st42" d="M251.5,751l-1.1-0.1c0-0.3,3.5-29.7-8.6-44.8c-4.1-5.2-10.1-8.4-16.7-8.8l0.1-1.1
				c6.9,0.5,13.2,3.8,17.5,9.2C255.1,720.9,251.5,750.7,251.5,751z"/>
			<circle class="st42" cx="225.1" cy="696.7" r="8.7"/>
			<path class="st42" d="M225.1,705.9c-5.1,0-9.2-4.1-9.2-9.2c0-5.1,4.1-9.2,9.2-9.2s9.2,4.1,9.2,9.2l0,0
				C234.3,701.8,230.2,705.9,225.1,705.9z M225.1,688.5c-4.5,0-8.2,3.6-8.2,8.2c0,4.5,3.6,8.2,8.2,8.2c4.5,0,8.2-3.6,8.2-8.2l0,0
				C233.2,692.2,229.6,688.5,225.1,688.5z"/>
			<path class="st5" d="M150.9,608.2c10.7,4.1,21.9,19.4,25.7,28.4s-7.1,27.8-25.7,33.7c-18.6,4.6-29.6-13.9-25.7-30.8
				C129.1,622.6,140.3,605.3,150.9,608.2z"/>
			<rect x="150.5" y="638.1" class="st42" width="1" height="155.5"/>
			<circle class="st42" cx="151" cy="638" r="6.6"/>
			<path class="st42" d="M151,645.1c-3.9,0-7.1-3.1-7.1-7s3.1-7.1,7-7.1s7.1,3.1,7.1,7l0,0C158,641.9,154.8,645.1,151,645.1z
				 M151,631.9c-3.4,0-6.1,2.7-6.1,6.1c0,3.4,2.7,6.1,6.1,6.1c3.4,0,6.1-2.7,6.1-6.1l0,0C157.1,634.7,154.3,631.9,151,631.9z"/>
			
				<ellipse transform="matrix(0.2308 -0.973 0.973 0.2308 -629.5624 704.3274)" class="st43" cx="130.7" cy="750.4" rx="6.6" ry="6.6"/>
			<path class="st42" d="M130.7,757.6c-3.9,0-7.1-3.1-7.1-7s3.1-7.1,7-7.1c3.9,0,7.1,3.1,7.1,7l0,0
				C137.7,754.4,134.6,757.6,130.7,757.6L130.7,757.6z M130.7,744.4c-3.4,0-6.1,2.7-6.1,6.1c0,3.4,2.7,6.1,6.1,6.1
				c3.4,0,6.1-2.7,6.1-6.1l0,0C136.8,747.2,134.1,744.4,130.7,744.4z"/>
			<path class="st42" d="M151,671.7c0,0-0.9-20.3-20.3-17.9"/>
			<path class="st42" d="M150.5,671.7c0-0.1-0.5-9.1-6.5-14.2c-3.4-2.8-7.8-3.9-13.2-3.3l-0.1-0.9c5.7-0.7,10.4,0.5,13.9,3.5
				c6.3,5.4,6.8,14.5,6.8,14.9H150.5z"/>
			<path class="st42" d="M151,729.2c0,0-0.9-20.3-20.3-17.9"/>
			<path class="st42" d="M150.5,729.2c0-0.1-0.5-9.1-6.5-14.2c-3.4-2.8-7.8-3.9-13.2-3.2l-0.1-0.9c5.7-0.7,10.4,0.5,13.9,3.5
				c6.3,5.4,6.8,14.5,6.8,14.9L150.5,729.2z"/>
			<path class="st42" d="M151.4,791.8l-0.8-0.1c0-0.2,2.3-22.9-7.2-34.3c-3.1-3.8-7.8-6.2-12.7-6.4l0.1-0.8c5.2,0.3,10,2.7,13.3,6.8
				C153.7,768.6,151.4,791.6,151.4,791.8z"/>
			<path class="st42" d="M150.9,727.9c-0.1-0.9-2.3-21.5,7-32.7c3.4-4.1,8.4-6.7,13.7-6.9l0.1,0.9c-5.1,0.3-9.8,2.7-13,6.6
				c-9.1,11-6.8,31.8-6.8,32L150.9,727.9z"/>
			<path class="st21" d="M917,330.6l-0.1,2.4c0,0,0.2-0.8,1.6,0"/>
			<path d="M750.6,545.5c0.5-0.2,0.9-0.5,1.2-0.9c0.4-0.4,0.7-0.8,1.1-1.3c0.7-0.9,1.3-1.8,1.9-2.7l0.2,0.1c-0.5,1-1.1,2-1.7,2.9
				c-0.3,0.5-0.6,0.9-1,1.4s-0.9,0.9-1.4,1.2L750.6,545.5z"/>
			<path d="M755.3,547.5c0.4-0.2,0.8-0.5,1.2-0.9s0.7-0.8,1.1-1.2c0.7-0.9,1.3-1.8,1.9-2.7l0.2,0.1c-0.5,1-1.1,2-1.7,2.9
				c-0.3,0.5-0.6,0.9-1,1.4s-0.9,0.9-1.4,1.2L755.3,547.5z"/>
			<path d="M759.8,548.6c0.3-0.1,0.6-0.4,0.8-0.6c0.3-0.3,0.5-0.6,0.8-0.9c0.5-0.6,0.9-1.3,1.3-1.9l0.1,0.1c-0.4,0.7-0.8,1.4-1.2,2
				c-0.2,0.3-0.4,0.7-0.7,1c-0.3,0.4-0.6,0.6-1,0.8L759.8,548.6z"/>
		</g>
		<g id="Strokes">
			<path class="st44" d="M876.8,660.2c10.3,30.5,27,78.1,27,78.1"/>
			<path class="st44" d="M879.5,650.1c9.7,30.5,28.4,85.5,28.4,85.5"/>
			<path class="st44" d="M883.7,637.6c4.1,15,30.1,95.8,30.1,95.8"/>
			<line class="st44" x1="886.8" y1="628.6" x2="916.7" y2="729.9"/>
			<path class="st44" d="M898.3,543.5c0,7.5-14.6,94.1-14.6,94.1"/>
			<path class="st44" d="M907.9,543.4c0.4,6.9-17,75.1-17,75.1"/>
			<path class="st44" d="M916.7,540.7c1.4,9.8-20.6,66.4-20.6,66.4"/>
			<path class="st44" d="M925.1,537.4c1.3,8.2-19.6,52.4-19.6,52.4"/>
			<path class="st44" d="M932.3,532.4c0,0-5.2,19.3-9.2,26.4"/>
			<path class="st44" d="M893.5,543.3c0,0-35.5,190.1-32.6,204.5"/>
			<path class="st44" d="M885,542.3c0,0-32.9,205.2-29.7,207.1"/>
			<path class="st44" d="M874.5,539.5c0,0-25,206-23.8,208.7"/>
			<path class="st44" d="M863.9,533.4c0,0-16.4,199.4-19,212.7"/>
		</g>
	</g>
</g>
<rect class="st45" width="1010.2" height="1080"/>
</svg>
