<svg xmlns="http://www.w3.org/2000/svg" xmlns:xlink="http://www.w3.org/1999/xlink" viewBox="0 0 40.66 42"><defs><style>.cls-1{fill:url(#Degradado_sin_nombre_294);}.cls-2{fill:url(#Degradado_sin_nombre_294-2);}.cls-3{fill:url(#Nueva_muestra_de_degradado_24);}.cls-4{fill:#fff;}</style><linearGradient id="Degradado_sin_nombre_294" x1="27.96" y1="36.32" x2="25.16" y2="30.74" gradientUnits="userSpaceOnUse"><stop offset="0" stop-color="#223d9a"/><stop offset="1" stop-color="#3e399a"/></linearGradient><linearGradient id="Degradado_sin_nombre_294-2" x1="8.98" y1="26.38" x2="4.72" y2="29.22" xlink:href="#Degradado_sin_nombre_294"/><linearGradient id="Nueva_muestra_de_degradado_24" x1="1.38" y1="17.32" x2="40.66" y2="17.32" gradientUnits="userSpaceOnUse"><stop offset="0" stop-color="#3e5c9a"/><stop offset="1" stop-color="#3e399a"/></linearGradient></defs><g id="Capa_2" data-name="Capa 2"><g id="OBJECTS"><path class="cls-1" d="M40.62,21.44,34.36,20,27.24,8.84a3.33,3.33,0,0,0-4.1-1.19L9.38,14.08l-8-1.88L0,19.57H0a2.53,2.53,0,0,0,.35,1.81L12.24,40.55a3.13,3.13,0,0,0,4,1.13l21.59-11a2.56,2.56,0,0,0,1.37-1.81h0Z"/><path class="cls-2" d="M18.17,10,9.38,14.08l-8-1.88L0,19.57H0a2.53,2.53,0,0,0,.35,1.81L12.24,40.55A3.08,3.08,0,0,0,14.44,42L20,12.09Z"/><path class="cls-3" d="M1.78,14,13.62,33.19a3.15,3.15,0,0,0,4,1.12l21.58-11a2.52,2.52,0,0,0,1-3.68L28.63,1.48A3.33,3.33,0,0,0,24.52.29L2.86,10.4A2.46,2.46,0,0,0,1.78,14Z"/><path class="cls-4" d="M25.67,6.31h0a.54.54,0,0,0-.74-.24l-10.87,6a.55.55,0,0,0-.23.69l4.64,10.29a4.12,4.12,0,0,0-1.9.3c-1.8.75-2.77,2.57-2.14,4.08s2.59,2.1,4.4,1.34A3.29,3.29,0,0,0,21,24.74l-4-9.11a.52.52,0,0,1,.22-.67l7.74-4.48a.54.54,0,0,1,.75.25l3,6.59a4.17,4.17,0,0,0-2,.3,3.28,3.28,0,0,0-2.13,4.09A3.32,3.32,0,0,0,29,23.12c1.79-.75,2.9-2.27,2.3-3.78Z"/></g></g></svg>