<?xml version="1.0" encoding="utf-8"?>
<!-- Generator: Adobe Illustrator 25.2.3, SVG Export Plug-In . SVG Version: 6.00 Build 0)  -->
<svg version="1.1" id="Capa_1" xmlns="http://www.w3.org/2000/svg" xmlns:xlink="http://www.w3.org/1999/xlink" x="0px" y="0px"
	 viewBox="0 0 859.2 980.8" style="enable-background:new 0 0 859.2 980.8;" xml:space="preserve">
<style type="text/css">
	.st0{opacity:0.7;fill:#FFE268;enable-background:new    ;}
	.st1{fill:#FFE268;}
	.st2{fill:none;stroke:#0F2633;stroke-width:1.38;stroke-miterlimit:10;}
	.st3{fill:none;stroke:#0F2633;stroke-width:1.21;stroke-miterlimit:10;}
	.st4{fill:#0F2633;}
	.st5{fill:none;stroke:#0F2633;stroke-width:1.46;stroke-miterlimit:10;}
	.st6{fill:#46758F;}
	.st7{fill:#E54754;}
	.st8{fill:#9BC9DD;}
	.st9{fill:none;stroke:#46758F;stroke-width:3;stroke-miterlimit:10;}
	.st10{fill:none;stroke:#E54754;stroke-width:3.8707;stroke-miterlimit:10;}
	.st11{fill:#F29AA8;}
	.st12{fill:none;stroke:#0F2633;stroke-width:1.11;stroke-miterlimit:10;}
	.st13{fill:#BAE3FA;}
	.st14{fill:#97303C;}
	.st15{fill:none;stroke:#0F2633;stroke-width:0.87;stroke-miterlimit:10;}
	.st16{fill:none;stroke:#0F2633;stroke-width:2.41;stroke-miterlimit:10;}
	.st17{fill:none;stroke:#0F2633;stroke-width:2;stroke-miterlimit:10;}
	.st18{fill:none;stroke:#0F2633;stroke-width:0.9;stroke-miterlimit:10.0004;}
	.st19{fill:none;stroke:#0F2633;stroke-width:0.9;stroke-miterlimit:10;}
	.st20{opacity:0.5;fill:#9BC9DD;enable-background:new    ;}
	.st21{fill:none;stroke:#47768E;stroke-width:1.67;stroke-miterlimit:10;}
	.st22{fill:#47768E;}
	.st23{fill:none;stroke:#47768E;stroke-width:1.84;stroke-miterlimit:10;}
	.st24{fill:#FFFFFF;}
	.st25{font-family:'ArialMT';}
	.st26{font-size:16.83px;}
	.st27{fill:#050F15;}
	.st28{fill:none;stroke:#46758F;stroke-linecap:round;stroke-linejoin:round;}
	.st29{fill:none;stroke:#46758F;stroke-linecap:round;stroke-linejoin:round;stroke-dasharray:2.98,2.98;}
	.st30{fill:none;stroke:#0F2633;stroke-width:2;stroke-linecap:round;stroke-linejoin:round;}
	.st31{fill:none;stroke:#46758F;stroke-width:4.23;stroke-miterlimit:10;}
	.st32{fill:none;stroke:#9BC9DD;stroke-width:0.74;stroke-miterlimit:10;}
	.st33{fill:none;stroke:#9BC9DD;stroke-width:0.83;stroke-miterlimit:10;}
	.st34{fill:#FFFFFF;stroke:#000000;stroke-miterlimit:10;}
	.st35{font-family:'MyriadPro-Regular';}
	.st36{font-size:12px;}
</style>
<g id="Capa_2_1_">
	<g id="Strokes">
		<path class="st0" d="M478.3,204.9c17.5,44.7,40.8,39.4,56.4,39.4c43.3,0.2,46.1-60.1,46.1-60.1L478.3,204.9z"/>
		<path class="st1" d="M353.4,80c9.8,0,17.3,7.1,16.8,15.8s-7.8,15.6-16.2,15.1c-8.7-0.6-15.7-7.3-16.9-15.9
			C336.2,86.6,343.5,79.9,353.4,80z"/>
		<path class="st2" d="M351.1,51.7c23.3-0.7,42.7,16.7,43.4,39c0.7,22.3-17.6,40.9-40.9,41.6s-42.7-16.8-43.4-39"/>
		<path class="st3" d="M323.5,69.5c14.3-14.3,37-15,52.2-1.6c0.5,0.5,1.1,1,1.6,1.5c13.3,13.3,13.2,34.9-0.1,48.1"/>
		
			<ellipse transform="matrix(0.9995 -3.144938e-02 3.144938e-02 0.9995 -2.7987 9.7859)" class="st4" cx="309.7" cy="93.9" rx="4.7" ry="4.5"/>
		
			<ellipse transform="matrix(0.9995 -3.144938e-02 3.144938e-02 0.9995 -3.5102 11.9229)" class="st4" cx="377.3" cy="117.5" rx="2.5" ry="2.4"/>
		
			<ellipse transform="matrix(0.9995 -3.144938e-02 3.144938e-02 0.9995 -2.8009 11.14)" class="st5" cx="352.7" cy="94.6" rx="20.4" ry="19.4"/>
		<path class="st4" d="M361.1,89.1c-0.9,0.5-1.8,1.1-2.8,1.5l-0.2-1.7c1.1,0.3,2.2,0.6,3.2,1c0.6,0.2,1.1,0.5,1.6,0.6
			c0.5,0.3,1,0.6,1.5,0.9c-0.6,0-1.2,0-1.8,0.1c-0.6,0-1.1-0.1-1.7-0.1c-1.1-0.2-2.2-0.4-3.3-0.7l-2.5-0.6l2.4-1.1
			c1-0.4,2-0.8,3-1.1c1.1-0.3,2.1-0.6,3.2-0.7C362.9,87.9,362,88.5,361.1,89.1z"/>
		<path class="st4" d="M346.6,88.5c1,0.3,1.9,0.5,2.8,0.9l2.1,0.8l-2.2,0.7c-1,0.4-2.1,0.7-3.1,0.9c-1,0.1-2.1,0.3-3.2,0.3
			c0.9-0.7,1.8-1.3,2.7-1.7c1-0.4,2-0.9,3-1.2l0,1.6c-0.9-0.4-1.8-0.8-2.6-1.3c-0.8-0.5-1.7-1-2.5-1.7
			C344.7,87.9,345.7,88,346.6,88.5z"/>
		<path class="st5" d="M359.7,101.6c0,3-2.4,5.6-5.5,5.6c-3.1,0.1-5.8-1.8-5.9-4.8L359.7,101.6z"/>
		<path class="st6" d="M713.2,153.5"/>
		<path class="st7" d="M721.2,153.3c0.1-4.3-4-7.9-8.2-7.7c-4.4,0.2-7.8,3.8-7.7,8.2c-0.1,4.3,4,7.9,8.2,7.7
			C717.8,161.4,721.2,157.7,721.2,153.3z"/>
		<path class="st1" d="M442.7,338.1c0-5.4-5.1-9.8-10.3-9.7c-5.5,0.3-9.8,4.8-9.7,10.3c0,5.4,5.1,9.8,10.3,9.7
			C438.5,348.1,442.8,343.5,442.7,338.1z"/>
		<path class="st1" d="M600.1,918.5c6.9-0.2,11.9-6,11.9-12.7c-0.1-3.2-1.5-6.4-3.9-8.6c-2.4-2.2-5.5-3.4-8.8-3.3
			c-6.9,0.2-11.8,6-11.9,12.7C587.6,913.4,593.3,918.8,600.1,918.5L600.1,918.5z"/>
		<path class="st6" d="M196.2,254.7"/>
		<path class="st8" d="M204.7,254.4c0.2-4.7-4.3-8.5-8.8-8.3c-4.6,0.2-8.3,4.2-8.2,8.9c-0.2,4.7,4.3,8.5,8.8,8.3
			C201.2,263.1,204.8,259.1,204.7,254.4z"/>
		<path class="st1" d="M597.4,452.6c1.4-1,2.3-2.7,2.5-4.4c0-1.9-0.5-3.5-1.5-4.9l0,0c-2.3-2.8-6.5-3.3-9.3-1
			c-1.4,1.2-2.3,2.8-2.5,4.5c-0.1,0.9,0,1.9,0.3,2.6c0.2,0.9,0.7,1.7,1.2,2.3c1,1.4,2.7,2.3,4.4,2.5
			C594.2,454.4,595.9,453.9,597.4,452.6z"/>
		<path class="st1" d="M554.4,450.4c1.7,0.2,3.5-0.4,4.8-1.5c1.4-1,2.3-2.7,2.5-4.4c0.1-0.9,0-1.9-0.3-2.6c-0.2-0.9-0.7-1.7-1.2-2.3
			l0,0c-2.3-2.8-6.5-3.3-9.3-1c-1.4,1.2-2.3,2.8-2.5,4.5c0,1.7,0.5,3.4,1.5,4.8C551,449.3,552.6,450.2,554.4,450.4L554.4,450.4z"/>
		<path class="st1" d="M521.4,445c1.4-1,2.3-2.7,2.5-4.4c0-1.9-0.5-3.5-1.5-4.9l0,0c-2.3-2.8-6.5-3.3-9.3-1
			c-1.4,1.2-2.3,2.8-2.5,4.5c0,1.7,0.5,3.4,1.5,4.8c1,1.4,2.7,2.3,4.4,2.5S519.8,446.1,521.4,445z"/>
		<g>
			<line class="st9" x1="115.6" y1="676.8" x2="122" y2="881"/>
			<path class="st6" d="M128.5,766.8"/>
			<path class="st7" d="M132.8,766.6L132.8,766.6c-0.1-2.4-2-4.2-4.4-4.2c-2.4,0.1-4.2,2-4.2,4.4s2,4.2,4.4,4.2
				C131,770.9,132.8,769,132.8,766.6z"/>
			<path class="st6" d="M108.5,725.5"/>
			<path class="st7" d="M112.8,725.4L112.8,725.4c-0.1-2.4-2-4.2-4.4-4.2c-2.4,0.1-4.2,2-4.2,4.4c0.1,2.4,2,4.2,4.4,4.2
				C111.1,729.6,112.9,727.7,112.8,725.4z"/>
			<path class="st6" d="M116.3,685.6c3.8-0.2,7.2-1.8,9.9-4.5c1.6-1.8,2.8-3.9,3.4-6.3l0.4-3.8c-0.5-7.8-6.9-13.8-14.6-13.7
				c-3.7,0.2-7.2,1.8-9.9,4.5c-1.6,1.8-2.9,3.9-3.4,6.3l-0.4,3.8C102.1,679.6,108.6,685.6,116.3,685.6L116.3,685.6z"/>
			<path class="st6" d="M118.4,764.7c-11.2-8.3-24.3-27.5-24.3-27.5s16.3,0.2,23.9,14.7L118.4,764.7z"/>
			<path class="st6" d="M117.4,800.5c10.2-8.5,21.5-27.7,21.5-27.7s-15.6,1.3-21.9,15.5L117.4,800.5z"/>
			<path class="st6" d="M116.3,733.5c10.2-8.5,21.5-27.7,21.5-27.7s-15.6,1.3-21.9,15.5C115.9,721.3,116.3,733.5,116.3,733.5z"/>
		</g>
		<path class="st10" d="M639.8,502.8l-45.2-14.9c-15.9,5.3-32.5,7.1-49.1,5.3c-46.4-4.7-81.5-33.8-78.3-65
			c3.2-31.2,43.4-52.6,89.8-47.8c46.4,4.7,81.5,33.8,78.3,65c-1,8.6-4.6,16.7-10.5,23.2L639.8,502.8z"/>
		<path class="st7" d="M491.3,396C483,400,476,406.2,471,413.9c-2.6,3.8-4.6,7.8-6.2,12.1c-0.8,2.1-1.4,4.2-1.9,6.3
			c-0.5,2-0.7,4.1-0.8,6.3c0,8.7,2.6,17,7.7,24.2c2.5,3.7,5.5,7.1,8.7,10.1c3.3,3.1,6.8,5.9,10.6,8.5c7.6,5.1,15.8,9.1,24.5,12.2
			c4.3,1.6,8.7,2.9,13.2,4c4.5,1,9.1,1.8,13.6,2.4c9.1,1.1,18.4,1.6,27.6,1.5c9.4-0.2,18.8-1,28.1-2.2l0,0l0.7-0.2l0.6,0.2l49.4,16
			l-2.6,2.9l-16.5-37l3.8-1.8l16.5,37l1.9,4.2l-4.5-1.5l-49.4-16l1.3,0l0,0c-8.9,4.9-18.5,8.1-28.6,9.5c-10.1,1.4-20.3,1.5-30.4,0.1
			c-20.1-2.8-39.8-9.4-56.7-21.6c-4.3-2.9-8.2-6.3-11.8-10c-3.7-3.7-6.9-7.9-9.6-12.4c-2.7-4.6-5-9.5-6.3-14.7
			c-1.5-5.2-2-10.6-1.4-16.1c0.1-0.7,0.1-1.3,0.2-2l0.3-2c0.3-1.4,0.7-2.7,1-3.9c0.7-2.5,1.7-5,2.8-7.4c2.2-4.7,5-9.2,8.1-13.2
			c6.3-8.2,14.9-14.2,24.8-17.4L491.3,396z"/>
		<path class="st4" d="M605,786.8c-5.4,5.3-11.7,9.6-18.5,12.8c-6.8,3.2-14,5.4-21.5,6.7c-14.9,2.5-30.2,1.4-44.9-1.4
			c-14.7-2.9-29.1-7.3-43-13s-27.4-12.1-40.5-19.4s-25.9-15.2-38.2-23.8c-3.1-2.1-6-4.3-9.1-6.5l-4.5-3.3l-1-0.8
			c-0.3-0.2-0.6-0.4-1-0.5c-0.8-0.3-1.6-0.3-2.4-0.2c-1.8,0.2-3.5,0.6-5.2,1.3c-1.8,0.7-3.5,1.4-5,2.3c-3.3,1.7-6.5,3.6-9.6,5.6
			c-6.3,4-12.3,8.3-18.4,12.7l-18.2,13.1c-6.2,4.3-12.2,8.6-18.6,12.6c-6.4,4.1-12.9,7.8-19.6,11.1l-0.1,0l-0.1,0
			c-1.7,0-3.3-0.5-4.6-1.5c-1.3-0.9-2.5-1.9-3.5-3.2c-1-1.2-1.9-2.4-2.7-3.8c-0.8-1.3-1.5-2.7-2.1-4.1l0,0l-0.1-0.2l0.2-0.2
			c3.9-4.7,8-9.2,12.3-13.5c4.3-4.3,8.6-8.6,13.2-12.6c9.2-8.1,18.7-15.6,28.8-22.4c10-6.9,20.5-13.2,31.4-18.6
			c5.4-2.9,10.9-5.3,16.6-7.7l4.2-1.7c0.4-0.1,0.6-0.2,1.2-0.4c0.4-0.1,0.8-0.2,1.3-0.2c0.8,0,1.6-0.1,2.4-0.1
			c3.1,0.1,6.2,0.4,9.2,0.8c12.1,1.7,24,4,35.9,6.5s23.8,5.1,35.7,7.6l35.6,7.9c5.9,1.3,11.9,2.6,17.8,3.8c3,0.6,6,1.1,9,1.7
			c2.9,0.6,5.9,1.1,9,1.5l0.9,0.1l-0.6,0.6l0,0c-0.8,0.6-1.4,1.4-1.9,2.4c-0.5,0.9-0.9,1.8-1.2,2.8c-0.6,2-0.7,4.1-0.4,6.2
			c0.6,4.2,2.3,8.2,4.6,11.8c4.7,7.2,10.8,13.3,18.1,17.8c7.2,4.7,15.2,7.9,23.5,9.6c8.5,1.6,17.2,1.4,25.4-0.8l0.2,0.8
			c-8.3,2.2-17.1,2.4-25.7,0.8c-8.6-1.6-16.7-5-23.9-9.8c-7.4-4.7-13.6-10.8-18.4-18c-2.4-3.6-3.9-7.8-4.7-12.1
			c-0.3-2.2-0.1-4.4,0.4-6.5c0.3-1.1,0.7-2.1,1.3-3c0.7-0.9,1.3-1.7,2.1-2.6l0,0l0.2,0.8c-6.1-0.6-12.2-1.6-18.1-2.7
			c-5.9-1.1-12-2.2-17.9-3.4l-35.6-7.3c-11.9-2.5-23.8-5-35.6-7.4c-6-1.2-12-2.3-17.9-3.4c-5.9-1.1-11.9-2.1-17.9-2.9
			c-3-0.3-6-0.7-8.9-0.8c-0.7,0-1.4,0-2.1,0.1c-0.3,0-0.6,0-0.9,0.1c-0.1,0-0.6,0.2-0.9,0.3l-4.1,1.7c-5.5,2.4-11.1,4.8-16.5,7.5
			c-2.8,1.3-5.4,2.7-8.1,4.2c-2.7,1.5-5.2,2.9-7.9,4.4c-5.2,3.1-10.4,6.2-15.4,9.6c-10.1,6.7-19.8,14-28.9,21.9
			c-4.6,3.9-9.1,8-13.4,12.2c-4.4,4.2-8.6,8.6-12.5,13.2l0.1-0.4l0,0c0.6,1.4,1.3,2.8,2.1,4c0.7,1.3,1.7,2.5,2.6,3.7
			c0.9,1.2,2.1,2.1,3.3,3c1.2,0.9,2.6,1.3,4.1,1.3l0,0l-0.2,0c6.6-3.5,13-7.3,19.1-11.5c6.2-4.1,12.3-8.4,18.4-12.8l18.1-13.2
			c6.1-4.4,12.1-8.8,18.4-12.9c3.1-2.1,6.4-4,9.7-5.8c1.8-0.9,3.4-1.7,5.2-2.4c1.8-0.8,3.7-1.2,5.7-1.5c1.1,0,2.2,0,3.2,0.3
			c0.5,0.2,1,0.5,1.5,0.8l1.1,0.9l4.5,3.4c3.1,2.2,6,4.4,9.1,6.5c12.2,8.5,24.8,16.4,37.9,23.7c13,7.3,26.5,13.8,40.3,19.4
			c13.8,5.7,28,10,42.6,13.1c14.6,2.8,29.6,4,44.4,1.6c7.3-1.1,14.5-3.3,21.2-6.4c6.8-3.1,13-7.3,18.4-12.4L605,786.8z"/>
		<path class="st7" d="M556,763.1c6.5,4.8,44.2,38.2,53.9,11.8c15.8-53.5,14.6-39,29.9-56.5c17.2-23.3,12.7-33.2,3-45.7
			c-6.3-8.1-17.3-6.3-26.2-1.7c-5.7,2.8-11,8.5-15.9,15.5c-6.3,8.9-13.7,16.9-22,24c-2.4,2.2-5,4.1-7.4,5.9c1-0.3,2.1-0.7,3.2-1
			c0.5-0.9,1.5-1.5,2.6-1.6c0.3,0,0.6,0,0.9,0c0.3-0.1,0.5-0.1,0.8-0.1l0,0l0.3-0.1c0.3,0,0.6-0.1,0.9-0.2c0.6-0.2,1.1-0.4,1.7-0.7
			l0.4-0.2c0.2,0,0.2,0,0.2,0c0.1-0.1,0.3-0.1,0.4-0.2c0.2-0.7,0.7-1.3,1.2-1.6c2-1,4.1-1.6,6.1-2.2c0.5-0.2,1.1-0.2,1.6-0.1
			c0.5-0.7,1.4-1,2.2-1.1l0,0c1.6-0.8,3.1-1.8,4.6-2.7c0.1,0.2,0.2,0.2,0.4,0.2c0.5,0,0.9-0.1,1.4-0.2c0.5-0.5,1.2-0.7,1.8-0.8
			c0.3-0.2,0.6-0.3,0.9-0.4c0.2-0.2,0.4-0.4,0.5-0.5c0.1-0.1,0.2-0.1,0.3-0.2c0.4-0.1,0.8-0.2,1.2-0.4c0.2-0.1,0.5-0.3,0.7-0.4
			c0.6-0.1,1.3-0.2,2-0.4c0.6-0.1,1.2-0.4,1.6-0.9l3,0.8c-0.1,0.1-0.1,0.3,0,0.4c0.2,0.4,0.5,0.8,0.9,1.2l0,0
			c0.3-0.2,0.6-0.3,0.9-0.4l0,0c-0.1,1.3,1.1,2.2,1.9,2.9c0.3,0.4,0.7,0.8,1.1,1.2c0.1,0.1,0.2,0.1,0.3,0.2c-0.5,0.5-1,1.2-1.4,1.7
			c-0.4,0.2-0.7,0.3-1.1,0.5c-0.4,0.1-0.7,0.3-1,0.6c-0.2,0.1-0.3,0.2-0.5,0.2c-0.4,0.1-0.9,0.3-1.2,0.7l0,0c-0.2,0-0.3,0-0.4,0
			c-0.4,0.2-0.9,0.3-1.3,0.3l-0.5,0l-0.1,0c-5,3.7-10.7,5.8-16.5,7.5c0.3,1.9-20.9,8.2-21.4,8c-0.2,0.3-0.5,0.6-0.8,0.8
			c-1.8,1.8-18.6,4.2-18.8,3.9c-4.7-0.2-4.8,1.3-5.7,1.1c-1.5,1-2.5,2.4-3.3,3.9C539.6,745,547.6,757.3,556,763.1z"/>
		<path class="st11" d="M615.3,692c7.4-2,21.8-23.6,25.1-13.4c5.7,7.3-5.5,29.7-13.5,33.1c-1.1,0.6-2.8-0.1-3.5-1.4
			c-3.8-6.6-6.9-12.4-9.1-16.4C613.8,693.3,614.3,692.5,615.3,692z"/>
		<path class="st7" d="M647,662.3c24.6,8.4,29.3-11.6,29.3-11.6s-3.1,12.4-24.1,3.4L647,662.3z"/>
		<circle class="st6" cx="638.7" cy="607" r="3.2"/>
		<path class="st7" d="M644.3,590.9c3.8-0.3,9,3.2,11.3,4.9c0.3,0.3,1,0.2,0.9-0.2c-1.4-5.2-12.9-8.5-16.1-6.5
			C640.3,589.1,639.4,591.2,644.3,590.9z"/>
		<path class="st4" d="M674,658.8c-0.9,0.6-1.8,1.5-2.4,2.3c-0.7,0.9-1.4,1.7-2.1,2.7c-1.3,1.7-2.8,3.6-4.1,5.4
			c-1.3,1.8-2.6,3.8-3.8,5.7c-0.6,0.9-1.1,1.9-1.7,3c-0.3,0.5-0.6,1-0.8,1.5c-0.1,0.3-0.2,0.6-0.3,0.8c0,0.1-0.1,0.2-0.1,0.3
			c0,0.1,0,0.1,0,0.1l0,0l0-0.1c-0.1-0.4-0.4-0.7-0.8-0.7l0,1.7c-0.5,0-0.9-0.3-0.9-0.8c0,0,0-0.1,0-0.2l0-0.1
			c0-0.1,0.1-0.2,0.1-0.3c0.1-0.2,0.1-0.2,0.2-0.5c0.1-0.3,0.3-0.5,0.4-0.8c0.3-0.5,0.6-1,0.9-1.5c0.6-1,1.1-2,1.7-3.1
			c1.1-2,2.4-4.1,3.6-6c1.2-1.9,2.7-3.9,4.2-5.6c0.8-0.9,1.6-1.8,2.5-2.5c1-0.8,2.1-1.5,3.2-1.8L674,658.8z"/>
		<path class="st4" d="M652.8,654.3c-0.5,0.5-1.1,1.1-1.5,1.8c-0.5,0.7-1,1.3-1.4,2c-1,1.3-1.8,2.8-2.7,4.2
			c-0.9,1.4-1.6,2.9-2.5,4.3l-1.2,2.1c-0.4,0.7-0.8,1.4-1,2.1l-1.1-0.5c0.2-0.4,0.4-0.7,0.7-1.1l0.7-1l1.3-2
			c0.9-1.4,1.8-2.9,2.7-4.2c0.9-1.3,1.7-2.8,2.6-4.2c0.5-0.7,0.8-1.5,1.2-2.2s0.9-1.3,1.4-2L652.8,654.3z"/>
		<path class="st4" d="M547.1,727.8c-1.6,0.7-3.1,1.6-4.4,2.5c-1.4,0.8-2.6,2-3.6,3.3c-1.9,2.7-2.3,6.2-2,9.5
			c0.3,3.4,1.2,6.7,2.5,9.7c1.4,3.1,3,6.1,4.9,8.9c1.9,2.8,4,5.5,6.4,7.9c1.1,1.2,2.4,2.4,3.6,3.5c1.2,1.1,2.7,2.1,4,3.1
			c5.5,3.8,11.6,6.9,18,9c3.2,1.1,6.5,1.9,9.8,2.4c3.3,0.5,6.6,0.6,9.9,0.2c3.2-0.3,6.3-1.5,8.9-3.4c2.6-1.8,4.8-4.3,6.3-7.1
			c1.5-2.8,2.3-6.1,2.6-9.3c0.4-3.4,1.1-6.8,2.1-10.2c1.9-6.7,4.8-13.1,8.5-19c3.6-5.8,8-11.3,12.9-16.2c2.3-2.5,4.9-4.9,7.3-7.1
			c0.6-0.5,1-1,1.3-1.6c0.5-0.6,1-1.3,1.3-2c0.9-1.4,1.7-2.9,2.5-4.3c1.6-2.9,2.9-5.8,3.9-8.9c1-2.9,1.4-6.1,1.4-9.2
			c-0.1-3.1-0.8-6.1-2.2-8.8c-1.5-2.9-3.4-5.4-5.6-7.6c-1.1-1.2-2.4-2.3-3.6-3.4c-1.1-1.1-2.5-1.9-3.8-2.7c-2.7-1.5-5.8-2.4-8.9-2.7
			c-3.1-0.3-6.4,0-9.5,0.9c-3.1,0.9-6.1,2.2-8.9,4c-1.4,0.8-2.7,1.8-4,2.8c-1.5,1.1-3,2-4.7,2.6c-3.3,1.3-6.6,1.8-9.3,3.7
			c-2.6,1.9-3.7,5.2-4,8.4c-0.1,1.7-0.1,3.3,0,5c0,0.8,0.2,1.7,0.2,2.5c-0.1,1,0.3,1.9,1,2.5l-2.4,0.4c0.5-0.7,0.5-1.7,0.3-2.6
			c-0.1-0.9-0.3-1.7-0.3-2.6c-0.2-1.8-0.2-3.5-0.1-5.2c0.1-1.7,0.5-3.5,1.1-5.1c0.7-1.6,1.8-3.2,3.3-4.3c1.5-1,3-1.9,4.7-2.4
			c1.7-0.6,3.3-1.1,4.7-1.8c1.5-0.6,2.9-1.5,4-2.5c1.4-1.1,2.7-2.2,4.1-3.2c2.8-2,6-3.7,9.4-4.8c3.5-1.1,7.1-1.6,10.7-1.5
			c3.7,0.1,7.3,1.1,10.6,2.7c1.6,0.8,3.2,1.9,4.6,3.1c1.2,1.1,2.7,2.2,3.9,3.5c2.7,2.4,4.9,5.3,6.6,8.6c1.7,3.3,2.6,7,2.7,10.7
			c0,3.6-0.6,7.3-1.7,10.8s-2.6,6.7-4.3,9.7c-0.9,1.5-1.7,3.1-2.7,4.5c-0.5,0.7-1,1.4-1.4,2.1l-0.4,0.5l-0.2,0.3l-0.3,0.4
			c-0.4,0.4-0.7,0.8-1.1,1.1c-1.3,1.2-2.5,2.3-3.8,3.5c-1.3,1.2-2.5,2.4-3.7,3.5c-4.8,4.7-9.1,9.8-12.8,15.3
			c-3.7,5.5-6.6,11.5-8.6,17.9c-1,3.1-1.8,6.4-2.3,9.7c-0.4,3.6-1.5,7.1-3.1,10.2c-1.7,3.2-4.2,5.9-7.2,7.9c-1.5,1-3.1,1.9-4.8,2.5
			c-1.7,0.6-3.5,0.9-5.3,1.1c-3.5,0.3-7,0.1-10.4-0.6c-3.4-0.6-6.8-1.5-10-2.7c-6.5-2.4-12.6-5.6-18.1-9.6c-1.3-1-2.8-2-4-3.2
			c-1.2-1.2-2.5-2.3-3.6-3.6c-2.3-2.4-4.5-5.2-6.4-8s-3.6-5.9-4.9-9.1c-1.4-3.2-2.3-6.5-2.7-9.9c-0.2-1.7-0.1-3.5,0.1-5.2
			c0.2-1.8,0.9-3.4,1.8-5c1.1-1.5,2.2-2.8,3.6-3.9c1.3-1.1,2.6-2.2,4-3.3L547.1,727.8z"/>
		<path class="st4" d="M591,697.4c-2,3.4-4.8,5.7-7.7,7.9c-2.8,2.3-5.8,4.6-8.7,6.7c-3,2.1-6.1,4-9.3,5.8c-1.6,0.8-3.3,1.5-4.9,2.3
			c-0.8,0.3-1.7,0.7-2.5,1.1c-0.5,0.1-0.9,0.3-1.3,0.5l-0.6,0.3l-0.5,0c-0.1,0.1-0.2,0-0.1,0.5l-0.6-1.1c0.4,0.4,0.4,0.2,0.5,0.2
			l0.3-0.2l0.6-0.4c0.4-0.2,0.8-0.5,1.2-0.7c0.8-0.5,1.5-1,2.3-1.6c1.5-1,2.9-2.1,4.5-3c3.1-1.9,6.3-3.6,9.5-5.3
			c3.2-1.7,6.4-3.5,9.3-5.6c1.5-1,2.8-2.3,4.1-3.5c1.3-1.2,2.2-2.8,2.8-4.5L591,697.4z"/>
		<path class="st4" d="M608,692.9c1-0.8,2.1-1.6,3-2.3c2.1-1.5,4.1-2.9,6.2-4.3c4.1-2.8,8.5-5.4,13-7.7c2.3-1.2,4.6-2.1,7-2.9
			c1.3-0.3,2.6-0.7,3.9-0.8c1.4-0.2,2.8-0.1,4.1,0.4c0.7,0.3,1.3,0.7,1.8,1.2c0.3,0.3,0.5,0.6,0.7,0.9s0.3,0.7,0.5,1
			c0.4,1.4,0.6,2.8,0.4,4.2c-0.3,2.6-1.1,5.1-2.4,7.5c-2.3,4.6-5,8.9-8.2,12.9c-3,4-6.4,7.8-9.7,11.5l-1.3,1.3l-0.3,0.3
			c-0.1,0.1-0.2,0.2-0.4,0.4c-1.1,0.9-2.7,1.2-4.1,0.6c-0.5-0.2-0.9-0.5-1.2-0.9c-0.1-0.1-0.3-0.3-0.4-0.5l-0.3-0.4
			c-1.5-2.1-2.8-4.2-4.2-6.3c-2.8-4.1-5.6-8.3-8.6-12.3C606.7,695.4,606.8,693.7,608,692.9z M608.3,696.2c3,4,6.2,7.8,9.4,11.7
			c1.7,1.9,3.2,3.9,4.8,5.9l0.3,0.4c0.1,0.1,0.1,0.1,0.2,0.2c0.1,0.1,0.3,0.1,0.4,0.2c0.2,0.1,0.5,0.1,0.8,0c0.2,0,0.3-0.1,0.4-0.2
			l0.3-0.2l0.3-0.3l1.3-1.3c3.4-3.6,6.7-7.4,9.7-11.3c3.1-3.8,5.9-7.9,8.2-12.3c1.1-2,2-4.4,2.4-6.7c0.2-1,0.1-2.1-0.2-3.2
			c-0.3-1-1.1-1.8-2-2.1c-1.1-0.4-2.2-0.5-3.3-0.4c-1.2,0-2.4,0.3-3.6,0.6c-2.4,0.7-4.7,1.5-6.9,2.6c-4.4,2.1-8.8,4.6-13,7.3
			c-2.1,1.4-4.1,2.7-6.2,4.2c-1.1,0.7-2.1,1.5-3,2.2C607.8,694.1,607.6,695.3,608.3,696.2L608.3,696.2z"/>
		<path class="st4" d="M603.9,786.4l-3.1,1.3c-1.1,0.4-2.1,0.8-3.2,1s-2.2,0.4-3.3,0.6c-4.4,0.6-8.9,0.5-13.2-0.4
			c-8.7-1.8-16.9-5.6-23.9-11c-7.2-5.2-13.1-12-17.1-19.9c-2-3.9-3.3-8.3-3.6-12.7c-0.3-4.4,0.5-8.9,2.6-12.9l0.6,0.5l0,0
			c-1.8,1.6-3.2,3.4-4.3,5.4s-1.9,4.2-2.1,6.5c-0.3,4.6,0.7,9.2,2.9,13.2c2.2,4,4.9,7.8,8.3,11.1c3.3,3.4,6.8,6.4,10.7,9.1
			c7.6,5.5,16.2,9.3,25.3,11.4c2.2,0.4,4.5,0.8,6.8,0.9c2.2,0.1,4.5,0.1,6.8-0.3c2.3-0.4,4.5-1.1,6.5-2.1c1-0.5,2-1.2,2.9-1.8
			c0.5-0.3,0.9-0.7,1.4-1c0.1-0.1,0.3-0.3,0.5-0.3c0.3-0.1,0.6-0.2,0.8-0.3C605.5,785.3,604.7,785.8,603.9,786.4z M606.9,784.2
			c-0.2,0.2-0.3,0.6-0.5,0.7c-0.3,0.4-0.5,0.7-0.8,1c-0.4,0.5-0.8,0.9-1.3,1.3c-0.9,0.9-1.8,1.7-2.9,2.3c-2.2,1.3-4.4,2.2-6.9,2.8
			c-4.9,1.1-9.9,1-14.7,0.1c-4.7-1-9.4-2.5-13.9-4.6c-4.4-2.1-8.5-4.4-12.5-7.3c-3.9-2.9-7.6-6.1-10.9-9.7c-3.3-3.6-6.1-7.6-8.3-12
			c-2-4.4-3.3-9.5-2.5-14.4c0.4-2.4,1.3-4.7,2.6-6.9c1.3-2,3-3.8,4.9-5.4l0,0c0.2-0.1,0.3-0.1,0.5,0c0.2,0.1,0.3,0.4,0.2,0.6l0,0
			c-2,3.9-2.8,8.2-2.5,12.5s1.6,8.6,3.5,12.4c4,7.8,9.8,14.4,16.8,19.6c7,5.3,15,9,23.6,10.8c4.2,0.9,8.6,0.9,12.9,0.4
			c1.1-0.2,2.2-0.3,3.2-0.6c1-0.3,2.1-0.6,3.1-0.9l3-1.3C604.7,785,605.8,784.6,606.9,784.2L606.9,784.2z"/>
		<path class="st4" d="M647.9,603.9c-0.1-0.7-0.4-1.5-0.9-2.1c-1-1.3-2.4-2.2-3.9-2.7c-1.5-0.6-3.2-0.5-4.6,0.3
			c-1.3,0.9-2.1,2.4-2.4,4c-0.3,1.6-0.2,3.3,0.4,4.8c0.5,1.6,1.9,2.6,3.5,2.7c1.6,0,3.2-0.3,4.6-1.1c1.4-0.7,2.4-2,3-3.5
			C647.8,605.6,647.9,604.8,647.9,603.9z M644.9,610.4c-1.5,0.8-3.3,1.3-5,1.2c-0.9-0.1-1.7-0.3-2.4-0.9c-0.7-0.6-1.2-1.4-1.6-2.2
			c-0.7-1.7-0.8-3.4-0.4-5.1c0.2-1.7,1.2-3.3,2.6-4.4c0.7-0.4,1.6-0.8,2.5-0.8c0.9,0,1.8,0,2.6,0.3c1.7,0.5,3.2,1.5,4.3,2.9
			c0.5,0.8,0.9,1.6,1.1,2.5c0.1,0.9,0.1,1.9-0.2,2.7C647.7,608.2,646.6,609.5,644.9,610.4z"/>
		<path class="st4" d="M680.1,660.2c-0.1-0.5-0.5-1-1-1.3c-0.5-0.3-1-0.5-1.5-0.6c-1-0.2-2.1,0-3,0.4c-1,0.5-1.8,1.1-2.5,1.8
			c-0.8,0.7-1.5,1.4-2.2,2.3l-0.8-0.7c0.3-0.5,0.6-0.9,1.1-1.3s0.8-0.9,1.3-1.2c0.9-0.8,1.9-1.5,2.9-1.9c1.2-0.5,2.4-0.5,3.5,0.1
			c0.5,0.3,0.9,0.6,1.4,0.9c0.5,0.4,1,0.7,1.6,0.6L680.1,660.2z"/>
		<path class="st4" d="M669.6,659.5c-1.4,0.3-2.7,0.7-4.1,0.8c-2.7,0.3-5.5,0.5-8.2,0.5c-5.5-0.1-10.9-0.7-16.4-1.7
			c-2.7-0.5-5.3-1.2-8-2.2c-1.3-0.5-2.5-1-3.8-1.7c-1.3-0.7-2.4-1.5-3.4-2.6c-0.4-0.5-0.8-1.2-1.1-1.9s-0.4-1.3-0.6-2
			c-0.1-1.4-0.3-2.8-0.3-4.2c0-2.8,0.1-5.5,0.4-8.2c0.6-5.4,1.7-10.8,2.9-16.1c1.2-5.3,2.7-10.6,4.3-15.8c1.6-5.3,3.4-10.4,5.4-15.5
			c1-2.5,2.1-5.1,3.4-7.5c1.1-2.6,2.7-5,4.7-7l0.7,0.9c-1.8,2-3.4,4.1-4.5,6.5c-1.2,2.4-2.3,4.9-3.4,7.4c-2.1,5.1-3.9,10.2-5.5,15.4
			c-1.6,5.2-3.1,10.4-4.3,15.7c-1.2,5.3-2.3,10.7-2.9,16.1c-0.3,2.7-0.4,5.4-0.4,8.1c-0.1,0.7-0.1,1.3,0.1,2c0,0.7,0.1,1.3,0.3,2
			c0.2,1.3,0.7,2.6,1.5,3.6c1.8,1.8,4.3,3,6.8,3.9c2.6,0.8,5.3,1.5,7.9,2c5.3,0.9,10.8,1.5,16.2,1.5c2.7,0,5.4,0,8.1-0.2
			c1.3,0,2.7-0.2,4-0.4c1.3-0.1,2.7-0.6,3.9-1.1C672.2,658.6,670.9,659.3,669.6,659.5z"/>
		<path class="st12" d="M627.9,616.2c-3.1-1.1-6.4-4.8-8.8,2.6c-1,3.2,3.6,9,6.7,10"/>
		
			<ellipse transform="matrix(0.3143 -0.9493 0.9493 0.3143 -137.3357 1015.6345)" class="st13" cx="634.4" cy="602.9" rx="11.3" ry="2.8"/>
		<path class="st4" d="M637.8,597.9c0.2-1,0.4-1.9,0.5-2.9c0-0.5,0-0.9,0-1.4c0-0.4-0.1-0.7-0.4-1c-0.2-0.1-0.6,0.1-1,0.4
			c-0.4,0.4-0.7,0.7-1,1.1c-0.6,0.8-1,1.6-1.5,2.5c-0.8,1.8-1.6,3.7-2.1,5.6c-0.5,1.8-1.1,3.8-1.4,5.7c-0.2,0.9-0.2,1.9-0.3,2.9
			c0,0.5,0,0.9,0.1,1.4c0.1,0.3,0.2,0.6,0.4,0.8c0.2-0.1,0.5-0.3,0.7-0.5c0.4-0.4,0.7-0.7,0.9-1.1c0.5-0.8,0.9-1.6,1.3-2.5
			c0.7-1.8,1.4-3.7,2-5.6C636.5,601.5,637.3,599.6,637.8,597.9z M635.6,609.9c-0.6,0.9-1.1,1.7-1.8,2.6c-0.4,0.5-0.8,0.8-1.2,1.2
			c-0.3,0.2-0.5,0.4-0.8,0.5c-0.4,0.2-0.8,0.2-1.2,0.1c-0.4-0.1-0.6-0.4-0.8-0.8c-0.1-0.3-0.2-0.6-0.2-0.9c-0.1-0.5-0.1-1.1-0.1-1.6
			c0-1.1,0.1-2.1,0.3-3.1c0.3-2,0.9-4,1.5-6s1.5-3.7,2.4-5.6c0.5-0.9,1-1.8,1.6-2.7c0.3-0.5,0.6-0.8,1-1.2c0.2-0.2,0.4-0.4,0.7-0.5
			c0.3-0.2,0.7-0.2,1-0.1c0.3,0.1,0.6,0.4,0.7,0.7c0.2,0.2,0.3,0.5,0.3,0.8c0.1,0.5,0.2,1.1,0.3,1.6c0.1,1,0.1,2.1,0,3.1
			c-0.2,2-0.6,4.1-1.2,6C637.5,606.1,636.6,607.9,635.6,609.9z"/>
		<path class="st7" d="M644.8,557.2c0-6.2,2.9-11,7.8-14.6c-4.9,2-9.3,4-11.2,9.4c-2.8,7.6,0,13.6,5.9,18.7"/>
		<path class="st14" d="M647.3,570.5c-1.2-1-2.4-1.9-3.4-3.1s-2-2.4-2.6-3.8c-0.6-1.4-1.2-2.9-1.3-4.5c-0.2-1.5-0.1-3.1,0.3-4.6
			c0.7-2.9,2.2-5.8,4.4-7.9c2.2-2.1,4.9-3.7,7.8-4.7l4.5-1.9l-3.9,2.9c-2.3,1.7-4.3,3.7-5.7,6.1c-0.8,1.2-1.3,2.5-1.7,3.9
			c-0.4,1.4-0.6,2.8-0.8,4.2l-0.1,0c-0.1-1.4-0.1-2.9,0.2-4.3c0.4-1.4,0.8-2.8,1.5-4.1c0.7-1.3,1.5-2.5,2.6-3.6s2.1-2,3.4-2.8l0.5,1
			c-2.8,1.2-5.5,2.2-7.9,4c-1.2,0.9-2,2.2-2.7,3.5c-0.6,1.3-1,2.7-1.2,4.2c-0.4,2.9,0,5.9,1.2,8.6c1.3,2.7,3,5.1,5.1,7.2
			L647.3,570.5z"/>
		<path class="st7" d="M659,576.4c-3.7-0.1,0.6,1.4-4.7,1s-16-7.3-14.3-15.5c1.5,2.8,3.8,5.2,5.8,7.6"/>
		<path class="st14" d="M646.1,569.7c-1.1-1.1-2.4-2.2-3.4-3.4c-1.1-1.2-2.1-2.5-2.8-4l0.9-0.1c-0.1,0.6-0.3,1.1-0.2,1.7
			c-0.1,0.6-0.1,1.1,0.1,1.7l0.1,0.9c0.1,0.3,0.2,0.5,0.3,0.8c0.1,0.6,0.4,1.1,0.7,1.6c1.4,2,3,3.6,5,4.8c0.9,0.6,1.9,1.2,3,1.7
			c0.5,0.3,1,0.6,1.5,0.8c0.5,0.2,1.1,0.4,1.6,0.5l0.8,0.3l0.8,0.1c0.6,0.1,1.1,0.1,1.7,0.1c0.3,0,0.5,0,0.8,0
			c0.3-0.1,0.1,0.2,0.3-0.4c0.1-0.2,0.2-0.2,0.3-0.3c0.1-0.1,0.2-0.1,0.3-0.1c0.2,0,0.3,0,0.5,0c0.3,0,0.6,0,0.9,0.1l0,0.1
			c-0.3,0-0.6,0.1-0.9,0.1c-0.3,0-0.7,0.1-0.6,0.2c0,0.2,0,0.4-0.1,0.5c-0.2,0.2-0.4,0.4-0.6,0.4c-0.3,0-0.7,0.1-1,0.1
			c-0.6,0-1.2,0-1.8,0.1l-0.9-0.1l-0.9-0.2c-2.4-0.6-4.6-1.8-6.5-3.3s-3.5-3.4-4.7-5.6c-0.3-0.6-0.5-1.1-0.8-1.7l-0.3-0.8l-0.2-0.9
			c-0.2-0.6-0.3-1.2-0.4-1.8c0-0.7,0-1.3,0-1.9l0-1.6l0.8,1.5c0.7,1.4,1.7,2.6,2.6,3.9c0.9,1.3,2,2.5,2.8,3.9L646.1,569.7z"/>
		<path class="st7" d="M657.2,553.9c-0.5-4,0.7-6.3,3.8-8.6c3.5,3.5,2.6,5.3,8.7,5.8c6.1,0.5,15.8,1.6,22.5,2.7
			c-4-1.4-8.9-2.1-11.4-6c9.4,5.5,23.2,2.9,32.6,7.6s11.8,11,13.8,20.3c3-0.2,6.1-0.7,9.1-1.6c-1.5,2.7-3.6,3.8-6.6,4.4
			c3.5,0.4,5.8,2.1,8.2,4.4c-1.1-0.3-5.2,0.4-5-1.1c7.7,8,11.6,16,12.1,27.1c-0.8-2.3-1.2-4.7-3.6-5.8c2.9,7.1,0.1,13.8-3.8,19.5
			c-3.9,5.7-6.5,10.3-8.2,16.9c-1.6-2.3-1.2-3.9,0.7-5.7c-6.2,6.2-13,10.1-13.6,19.5c2.9,6.9,6.4,12.8,12.9,16.6
			c-6.4-1.5-10.4-6.7-14.4-11.5c1.2,4.6,4.1,9.9,6,13.7s3.2,4.6,7,5.4c-9,4.8-17.2,6.1-25.6-0.5c5,4.5,10.3,6,17,5.3
			c-15.7,3.5-28.1-3.4-37.9-15.5c-0.6,2.3-1.2,4.6-1.5,7c-2.1-4.4-2.6-8.8-5.4-13.2c-2.8-4.4,2.3-21.9,5.6-22.3
			c6.7-0.9,6.8,0,9.2-4.5c2.4-4.5,0.4-8-1.9-11.2c-1.7-2.4-3.8-1.9-4.9,0.3c0.7-5.9,4.2-9,5.6-15.2c1.3-6.4-1.6-13-7.1-16.5
			c1.3,3.5,1.1,6.8,0.3,10.5c-0.9-6.6-4.3-8.4-9.1-12.8s-7.9-11.5-5.7-18.2c-8,1.3-6.2,9.7-15.6,2.6c-9.1-6.9-7.1-21.9,3.1-29
			c0.3-0.2,0.7-0.8,1.2-0.9C653.4,547.6,652.9,551,657.2,553.9z"/>
		<path class="st14" d="M655,545.9c-0.3,0.9-0.4,1.9-0.3,2.9c0.1,1,0.5,1.9,1.1,2.7c0.6,0.8,1.3,1.5,2.2,1.9l-0.6,0.3
			c-0.3-1.7-0.1-3.5,0.5-5.1c0.8-1.5,1.9-3,3.4-3.9c0.2-0.2,0.4-0.2,0.6,0l0,0c0.9,1.1,1.9,2.1,2.7,3.3c0.3,0.6,0.8,1,1.3,1.4
			c0.6,0.4,1.2,0.6,1.8,0.7c1.4,0.3,2.7,0.5,4.1,0.6l4.2,0.5c2.7,0.3,5.5,0.6,8.3,1c2.8,0.4,5.5,0.8,8.3,1.2l-0.1,0.6
			c-2.1-0.7-4.2-1.2-6.4-2c-1.1-0.5-2.1-0.9-3.1-1.6c-0.9-0.7-1.7-1.5-2.4-2.5c-0.1-0.1-0.1-0.3,0-0.5c0.2-0.3,0.5-0.3,0.7-0.2l0,0
			c4.2,2.4,9.2,3.2,14,3.8s9.8,0.9,14.7,2.2c2.4,0.7,4.7,1.9,6.8,3.2c2.2,1.3,4.1,3,5.7,5s2.7,4.3,3.6,6.7c0.8,2.4,1.5,4.8,2,7.2
			l-0.6-0.5c1.5,0,3-0.3,4.5-0.6c1.5-0.3,2.9-0.7,4.4-1.1c0.2-0.1,0.5,0,0.7,0.1c0.4,0.3,0.6,0.9,0.3,1.3c-0.4,0.7-0.9,1.3-1.3,1.8
			c-0.6,0.6-1.2,1-1.9,1.5c-1.3,0.7-2.7,1.2-4.2,1.3l0-1.2c1.6,0.2,3.2,0.8,4.7,1.7c1.3,0.9,2.7,1.9,3.8,3.1
			c0.1,0.1,0.1,0.3,0.1,0.5c-0.1,0.3-0.4,0.6-0.7,0.5l0,0c-0.5-0.1-0.9-0.1-1.3-0.1l-1.4-0.1c-0.5,0-1-0.1-1.5-0.2
			c-0.3-0.1-0.6-0.2-0.8-0.4c-0.3-0.2-0.5-0.7-0.4-1.1l0,0c0.1-0.1,0.1-0.2,0.2-0.3c0.2-0.2,0.6-0.2,0.8,0c3.6,3.7,6.6,7.9,8.8,12.5
			c2.1,4.7,3.2,9.8,3.4,15c0,0.2-0.2,0.4-0.4,0.5c-0.3,0.1-0.6-0.1-0.7-0.4c-0.3-1.1-0.7-2.2-1.2-3.2c-0.4-1-1.3-1.8-2.2-2.2
			l0.9-0.8c1.3,3.2,1.6,6.8,0.8,10.1c-0.9,3.2-2.3,6.4-4.2,9.1c-1.8,2.7-3.6,5.5-5.1,8.4c-1.5,2.9-2.6,6-3.5,9.1l0,0
			c0,0.1-0.1,0.2-0.2,0.3c-0.2,0.1-0.5,0-0.7-0.2c-0.3-0.5-0.6-1-0.8-1.6c-0.2-0.6-0.2-1.2-0.2-1.8c0.1-0.6,0.3-1.2,0.6-1.7
			c0.3-0.5,0.7-0.9,1.1-1.3c0.2-0.2,0.5-0.2,0.7,0c0.2,0.2,0.2,0.5,0,0.7l0,0c-1.4,1.5-2.8,3-4.3,4.4c-1.4,1.4-2.7,3-4,4.5
			c-1.2,1.4-2.1,3.2-2.8,4.9c-0.7,1.7-1.1,3.5-1.2,5.4l-0.1-0.7c1.2,3.2,2.7,6.3,4.4,9.4c0.8,1.6,1.9,2.9,3.1,4.2s2.6,2.3,4.1,3.3
			l0,0c0.1,0.1,0.1,0.2,0.1,0.4c0,0.1-0.2,0.3-0.4,0.2c-3.1-0.9-6-2.4-8.4-4.4c-1.2-1-2.4-2-3.5-3.2c-1.1-1.1-2.1-2.3-3.1-3.5
			l1.6-0.8c0.6,2,1.2,3.9,2,5.6c0.7,1.9,1.5,3.7,2.4,5.5c0.8,1.9,1.7,3.6,2.8,5.3c0.6,0.8,1.3,1.5,2.3,1.8s1.8,0.7,2.8,0.9
			c0.1,0,0.2,0,0.2,0.1l0,0c0.1,0.1,0,0.2-0.1,0.3c-4,2.1-8.4,4-13.1,4.2c-2.4,0.2-4.7-0.3-6.9-1c-2.2-0.8-4.3-2-6.2-3.3l1-1.1l0,0
			c1.9,2.3,4.5,4.1,7.4,5c2.9,0.8,6,1.1,9,0.7c0.1,0,0.2,0.1,0.2,0.2c0.1,0.1,0,0.2-0.1,0.2c-3.6,0.8-7.3,1.1-10.9,0.8
			c-3.6-0.4-7.1-1.3-10.5-2.8c-3.3-1.5-6.4-3.5-9.2-5.8c-2.9-2.3-5.4-4.9-7.6-7.8l0.4-0.1c-0.6,2.2-1.2,4.6-1.5,7
			c-0.1,0.1-0.1,0.2-0.2,0.2l0,0c-0.2,0.1-0.3,0-0.4-0.1c-1.3-2.6-2-5.3-3-8c-0.4-1.4-1.1-2.7-1.7-3.8c-0.3-0.7-0.7-1.2-1.1-1.9
			c-0.3-0.7-0.5-1.4-0.7-2.2c-0.2-2.9,0.1-5.7,0.8-8.5c0.6-2.8,1.5-5.6,2.7-8.1c0.3-0.7,0.7-1.3,1-1.9c0.4-0.6,1-1.2,1.7-1.6
			c0.2-0.1,0.3-0.1,0.4-0.1l0.3,0l0.5-0.1l1.1-0.1l2.1-0.3c0.7,0,1.3-0.1,2-0.4c0.6-0.2,1.1-0.6,1.5-1.1s0.8-1.1,1-1.7
			c0.3-0.6,0.6-1.2,0.8-1.8c0.5-1.2,0.6-2.6,0.4-3.9c-0.2-1.3-0.8-2.6-1.5-3.8c-0.3-0.6-0.7-1.2-1.2-1.8c-0.3-0.5-0.8-1-1.3-1.3
			c-0.5-0.3-1.1-0.3-1.6,0.1c-0.6,0.3-1,0.8-1.3,1.3c-0.1,0.1-0.3,0.2-0.5,0.2c-0.2-0.1-0.4-0.3-0.4-0.6c0.5-2.9,1.5-5.8,3-8.4
			c1.4-2.5,2.3-5.3,2.8-8.1c0.3-2.8-0.2-5.7-1.5-8.3c-1.3-2.6-3.2-4.8-5.6-6.3l0.7-0.5c0.7,1.7,1,3.6,1,5.4c0,1.8-0.3,3.6-0.6,5.3
			c-0.1,0.1-0.2,0.3-0.4,0.3c-0.3,0-0.5-0.2-0.5-0.4c-0.1-1.5-0.5-2.9-1.1-4.3c-0.6-1.4-1.5-2.6-2.5-3.6c-2.1-2.1-4.6-4-6.7-6.2
			c-2.1-2.3-3.6-5.1-4.5-8.1c-0.9-3.1-0.8-6.3,0.1-9.2l0.4,0.4c-1,0.1-2.1,0.5-3,1c-0.9,0.5-1.8,1.3-2.4,2.1
			c-0.8,0.9-1.7,1.7-2.7,2.3c-1.2,0.5-2.6,0.6-3.8,0c-1.1-0.5-2.1-1-3.1-1.7c-0.9-0.7-1.8-1.4-2.7-2.2c-1.7-1.6-2.8-3.7-3.6-5.9
			c-0.7-2.2-0.9-4.5-0.7-6.8c0.2-2.2,0.9-4.4,1.8-6.6c0.9-2,2.2-4,3.7-5.6c0.8-0.8,1.7-1.6,2.5-2.3c0.5-0.3,0.9-0.6,1.4-0.9
			c0.2-0.1,0.4-0.3,0.6-0.5c0.1-0.1,0.2-0.2,0.3-0.3l0.2-0.1c0.1,0,0.2,0,0.3,0l0,0C655.1,544.2,654.7,545.1,655,545.9z
			 M655.4,543.5c0,0.1,0,0.1-0.1,0.1l-0.2,0.1c-0.1,0.1-0.2,0.2-0.3,0.3c-0.2,0.2-0.4,0.4-0.6,0.6c-0.4,0.3-0.9,0.6-1.3,1
			c-0.9,0.7-1.7,1.6-2.3,2.4c-0.7,0.8-1.3,1.7-1.9,2.7c-0.6,0.9-1,1.9-1.4,2.9c-1.7,4.1-1.8,8.5-0.5,12.6c0.7,2,1.8,3.8,3.4,5.3
			c0.7,0.8,1.5,1.5,2.5,2c0.9,0.6,1.8,1,2.7,1.5c0.8,0.5,1.8,0.5,2.7,0.2c1-0.5,1.8-1.2,2.5-1.9c0.9-0.7,1.9-1.5,2.8-2
			c1-0.5,2.1-0.9,3.3-1c0.1,0,0.1,0,0.2,0l0,0c0.2,0.1,0.3,0.3,0.2,0.5c-0.9,2.9-0.9,5.9-0.1,8.8c0.8,2.8,2.3,5.4,4.3,7.7
			c2,2.1,4.5,3.9,6.7,6.1c1.1,1.2,2.1,2.4,2.7,3.8c0.6,1.4,1.1,2.9,1.2,4.5l-0.9,0c0.4-1.7,0.6-3.5,0.6-5.2c0-1.8-0.2-3.5-0.9-5.1
			c0-0.1,0-0.3,0.1-0.4c0.1-0.2,0.4-0.2,0.6-0.1c2.6,1.7,4.6,4,6,6.7s1.9,5.8,1.6,8.9c-0.4,3-1.4,5.8-2.9,8.5
			c-1.5,2.4-2.4,5.3-2.9,8.1l-0.9-0.3c0.4-0.7,1-1.3,1.6-1.8c0.8-0.4,1.7-0.5,2.5-0.1c0.7,0.4,1.3,1,1.8,1.6
			c0.4,0.6,0.7,1.2,1.2,1.8c0.7,1.2,1.4,2.6,1.6,4.1c0.2,1.5,0.1,3-0.5,4.4c-0.3,0.6-0.6,1.3-0.9,1.9c-0.3,0.6-0.7,1.2-1.1,1.8
			s-1.1,1.1-1.9,1.4c-0.7,0.1-1.5,0.3-2.2,0.4l-2.1,0.3l-1.1,0.1l-0.5,0l-0.3,0l-1.1,0c-0.6,0.2-1.1,0.7-1.4,1.2
			c-0.4,0.6-0.8,1.2-1,1.8c-1.2,2.5-2.1,5.2-2.8,7.9c-0.7,2.7-1,5.5-0.8,8.3c0,0.7,0.2,1.4,0.5,2c0.3,0.5,0.7,1.2,1.1,1.8
			c0.7,1.3,1.3,2.6,1.7,3.9c1,2.7,1.7,5.4,2.9,7.9l-0.5,0.1c0.4-2.4,0.9-4.7,1.6-7.1l0.1-0.1c0.1-0.1,0.3-0.1,0.4,0
			c2.2,2.8,4.7,5.5,7.4,7.8c2.8,2.4,5.8,4.3,9.1,5.8c3.2,1.5,6.8,2.4,10.4,2.7s7.3,0,10.8-0.8l0.1,0.4c-3,0.4-6.1,0.1-9.1-0.7
			c-1.4-0.5-2.9-1-4.3-1.8c-1.3-0.8-2.7-1.6-4-2.5l0,0l-0.1-0.1l0,0c-0.3-0.3-0.3-0.8,0-1.1s0.8-0.3,1.1,0l0,0
			c1.6,1.4,3.6,2.7,5.6,3.5c2,0.8,4.3,1.3,6.5,1.2c2.3-0.1,4.5-0.4,6.7-1.2c2.1-0.7,4.3-1.6,6.2-2.7l0,0.4c-1-0.2-2-0.4-2.9-0.8
			c-1-0.4-1.8-1-2.6-1.8c-0.6-0.8-1.2-1.7-1.7-2.5l-1.5-2.7c-2.1-3.5-3.8-7.3-5.1-11.1c-0.1-0.3,0-0.7,0.3-0.9
			c0.4-0.3,1-0.2,1.3,0.2l2.9,3.6c0.9,1.2,2,2.3,3,3.4c1.1,1.1,2.3,2,3.6,2.9c1.3,0.8,2.7,1.3,4.3,1.7l-0.3,0.7
			c-3.2-1.7-6-4.1-8.4-6.8c-2.4-2.7-4.3-6-5.7-9.3c-0.1-0.2-0.1-0.5-0.1-0.7c0.1-2.2,0.7-4.4,1.6-6.5c0.9-2,2.3-3.8,3.8-5.3
			c1.5-1.4,3-2.9,4.7-4.1s3.2-2.6,4.7-3.9l0.7,0.7c-0.8,0.6-1.3,1.5-1.5,2.4c0,1,0.4,2,1,2.7l-0.9,0.1c0.8-3.3,2-6.5,3.5-9.4
			c1.6-3,3.3-5.7,5.2-8.5c1.8-2.7,3.1-5.7,3.9-8.8c0.7-3.1,0.4-6.4-0.8-9.4c-0.1-0.2-0.1-0.3,0-0.5l0,0c0.1-0.3,0.5-0.4,0.8-0.2l0,0
			c1.2,0.7,2.2,1.6,2.7,2.8c0.5,1.2,0.9,2.3,1.2,3.5l-1.1,0.2c-0.2-5.1-1.2-10-3.3-14.6c-2.1-4.5-5.1-8.6-8.6-12.2l0.9-0.3
			c0.1,0.1,0,0,0.1,0.1s0.2,0.2,0.4,0.2c0.4,0.1,0.8,0.2,1.2,0.2c0.5,0,0.9,0,1.4,0s1,0,1.5,0l-0.5,1c-1-1.1-2.3-2-3.6-2.9
			c-1.3-0.8-2.7-1.2-4.2-1.4c-0.3,0-0.5-0.2-0.5-0.5l0,0c0-0.3,0.2-0.6,0.5-0.6c1.3-0.1,2.5-0.7,3.6-1.4c1-0.8,1.7-1.8,2.3-2.9
			l1.1,1.4c-1.5,0.4-3,0.7-4.6,0.9c-1.5,0.2-3.1,0.3-4.7,0.3l0,0c-0.3,0-0.5-0.2-0.6-0.5c-0.5-2.4-1.1-4.8-1.9-7
			c-0.8-2.3-1.9-4.4-3.4-6.4c-1.5-2-3.2-3.6-5.3-4.8c-1.9-1.3-4.2-2.4-6.5-3.1c-4.6-1.4-9.7-1.7-14.5-2.2s-9.9-1.4-14.3-4l0.7-0.7
			c1.3,1.7,2.9,3.1,4.9,3.8s4,1.5,6.2,2.1c0.1,0,0.2,0.2,0.2,0.3l0,0c0,0.1-0.1,0.2-0.3,0.2c-5.5-0.8-11.1-1.5-16.7-2l-4.2-0.4
			c-1.4-0.2-2.8-0.3-4.2-0.6c-0.8-0.2-1.5-0.5-2.1-0.8c-0.6-0.4-1.2-1-1.6-1.5c-0.7-1.2-1.7-2.2-2.6-3.2l0.6,0.1
			c-1.4,0.9-2.4,2.1-3.2,3.5c-0.6,1.5-0.8,3.1-0.6,4.7l0,0c0,0-0.1,0.1-0.1,0.2c-0.1,0.2-0.3,0.2-0.5,0.1c-0.8-0.6-1.6-1.2-2.3-2.1
			c-0.6-0.9-1.1-1.9-1.1-3c0-1,0-2,0.4-3c0.3-0.9,0.6-1.8,1.1-2.7l0,0L655.4,543.5L655.4,543.5z"/>
		<path class="st7" d="M688.5,608.2c-3.5,0.8-6.7,2.6-9.2,5.2c0.7-6.7,4.8-12.1,6.2-18.6C688.4,599,689,603.2,688.5,608.2z"/>
		<path class="st14" d="M688.8,601.1c0.6,2.4,0.7,4.8,0.4,7.2l-0.1,0.4l-0.4,0.1c-3.4,0.9-6.4,2.6-8.9,5.1l-1.2,1.1l0.1-1.6
			c0.5-3.3,1.5-6.6,3-9.5c0.7-1.5,1.4-2.9,2.1-4.5c0.7-1.5,1.2-3,1.7-4.7C687,596.6,688.1,598.8,688.8,601.1z M682.6,604.1
			c-1.3,2.9-2.2,6.1-2.6,9.3l-1-0.5c1.3-1.3,2.7-2.4,4.3-3.3c1.7-0.9,3.4-1.5,5.1-2l-0.4,0.5c0.2-2.3,0.3-4.6-0.1-6.9
			c-0.2-1.1-0.5-2.2-0.9-3.3c-0.4-1.1-0.9-2.2-1.5-3.2C684.8,598,683.8,601.1,682.6,604.1z"/>
		<path class="st14" d="M664.9,553c1.4,2.4,3.2,4.6,5.4,6.3c2.2,1.7,4.7,3.1,7.3,4c2.6,0.9,5.4,1.5,8.2,1.9c5.6,0.9,11.3,1.2,17,2.3
			c5.6,0.9,11.2,2.6,16.3,5.2c-5.2-2.2-10.7-3.8-16.4-4.6c-5.6-0.9-11.3-1.2-17-2.1c-2.8-0.3-5.6-1-8.4-1.9c-5.7-1.8-10.3-5.8-13-11
			c-1.4-2.5-2.4-5.1-3.2-7.9C662.2,547.9,663.4,550.5,664.9,553z"/>
		<path class="st14" d="M680.4,586.4c1.8,1.6,3.5,3.2,5.2,4.8c1.8,1.6,3.3,3.5,4.7,5.5c1.4,2.1,2.2,4.3,2.6,6.7
			c0.4,2.4,0.5,4.8,0.1,7.2c-0.7,4.6-1.6,9.3-3,13.8l-0.5-0.2c1.2-4.5,2-9.2,2.6-13.8c0.2-2.3,0.2-4.6-0.2-6.9
			c-0.1-1.1-0.5-2.2-0.9-3.3c-0.4-1-1-2.1-1.6-3c-1.4-1.9-2.9-3.6-4.6-5.2l-5.1-4.9c-3.4-3.2-6.4-6.9-9-10.8
			C673.9,579.8,677.2,583.2,680.4,586.4z"/>
		<path class="st14" d="M734.3,622.8c-2,2.7-4.3,4.9-6.9,7c-2.5,2.1-5.2,4-7.6,6l-1.8,1.6l-1.7,1.7l-1.6,1.8c-0.5,0.6-1,1.2-1.4,1.8
			c-1.7,2.7-2.4,5.8-2,8.9c0.4,3.2,1.3,6.3,2.7,9.1s3.1,5.6,5,8.2c1.9,2.6,4,5.2,6.1,7.6c-2.4-2.2-4.6-4.7-6.6-7.2
			c-2.1-2.6-3.9-5.4-5.4-8.2c-1.6-3-2.7-6.1-3.1-9.4c-0.5-3.4,0.3-6.9,2.1-9.8c4-5.4,9.5-9.1,14.6-13.1c2.5-1.9,4.9-4.1,7-6.5
			c2-2.6,3.6-5.3,4.8-8.4C737.6,617.1,736.1,620.1,734.3,622.8z"/>
		<path class="st14" d="M726,580.5c0.2,0.6,0.6,1.2,1.1,1.6c1.1,0.8,2.6,1.3,3.9,2.3c-0.7-0.2-1.5-0.4-2.2-0.6s-1.4-0.6-2.1-1
			c-0.7-0.5-1.2-1.2-1.4-2.1c-0.1-0.9,0-1.7,0.4-2.4C725.7,578.9,725.9,579.7,726,580.5z"/>
		<path class="st14" d="M686.6,644.9c3-3.1,6-6,8.2-9.5c0.6-0.9,1-1.8,1.4-2.7c0.4-1,0.7-1.9,1.1-2.9c0.6-1.9,1-4,1.2-6
			c0.4-4.1-0.3-8.4-0.5-12.6c1.2,4.1,1.9,8.3,1.9,12.6c-0.1,2.2-0.5,4.3-1.1,6.4c-0.4,1-0.7,2-1.1,3c-0.4,1-0.9,2-1.5,2.9
			c-1.2,1.8-2.6,3.5-4.1,5c-1.6,1.5-3.1,2.9-4.7,4.3c-3.1,2.8-6.3,5.6-8.7,9.1C680.6,650.9,683.6,648,686.6,644.9z"/>
		<path class="st14" d="M700.3,661.4c0.3,3.7,1.3,7.4,2.9,10.7c1.8,3.2,4.7,5.9,8.1,7.2c3.5,1.3,7.3,2,11.1,2
			c-3.8,0.3-7.6-0.3-11.3-1.4c-3.6-1.4-6.7-4-8.6-7.4c-1.7-3.4-2.8-7.2-3.1-11c-0.2-1.9-0.3-3.8-0.3-5.7c-0.1-1.9,0.1-3.8,0.2-5.7
			C699.8,653.8,700,657.6,700.3,661.4z"/>
		<path class="st14" d="M708.8,574.3c1.6,0.7,3.2,1.6,4.7,2.6c1.4,1.1,2.8,2.2,3.9,3.7c1,1.5,2,2.9,2.7,4.6c0.7,1.6,1.4,3.3,2,4.9
			c0.5,1.8,0.5,3.6,0.3,5.4c-0.1,1.8-0.5,3.5-0.7,5.2c-0.2-3.6,0.7-7.1-0.3-10.4c-1-3.4-2.5-6.5-4.5-9.4c-1-1.4-2.3-2.6-3.7-3.6
			c-1.4-1.1-3-1.9-4.5-2.7c-3.2-1.6-6.2-3.5-9-5.6C702.5,571,705.6,572.8,708.8,574.3z"/>
		<path class="st14" d="M730.8,595.7c1.1,2.3,1.8,4.7,2,7.2c0.2,2.6-0.1,5.1-1.1,7.5c-0.9,2.3-2.2,4.6-3.8,6.4
			c1.1-2.2,2-4.5,2.7-6.8c0.6-2.3,0.9-4.6,0.7-7c-0.2-2.4-0.7-4.7-1.6-7c-0.8-2.3-1.8-4.4-2.8-6.7
			C728.4,591.3,729.7,593.4,730.8,595.7z"/>
		<path class="st14" d="M653.3,568.9c-2.1-2.4-3.5-5.4-4-8.5c-0.3-3.1,0.1-6.3,1.3-9.2c1.1-2.8,2.7-5.5,4.7-8
			c-1.5,2.6-2.7,5.5-3.7,8.3c-0.9,2.8-1.3,5.8-0.9,8.8c0.6,2.9,1.8,5.7,3.6,8.1c1.9,2.4,3.9,4.7,6.2,6.7
			C657.7,573.5,655.4,571.3,653.3,568.9z"/>
		<path class="st14" d="M720.8,569.2c-0.5-0.9-1.3-1.7-1.9-2.4c-0.3-0.4-0.6-0.8-0.9-1.2l-1-1.2l-1-1.2l-1.1-1.1
			c-3.1-2.7-6.6-4.9-10.4-6.4c-3.9-1.6-7.9-2.6-11.8-3.8c-2-0.6-4-1.2-6-1.9c-1.9-0.7-3.8-1.5-5.8-2.3c0.9,0.3,1.9,0.6,2.9,0.9
			c1,0.3,2,0.5,3,0.8c1.9,0.5,3.9,1.1,6,1.6c4.1,1,8.1,2.1,12,3.6c4,1.6,7.5,3.9,10.5,6.9l1.1,1.2l1,1.2l1,1.2
			c0.3,0.4,0.6,0.9,0.9,1.3c1.2,1.8,2.2,3.5,3.2,5.4C722,570.8,721.4,570.1,720.8,569.2z"/>
		<path class="st14" d="M660.5,562.7c-0.7-1.9-1.2-3.8-1.5-5.8c-0.2-2-0.1-4,0.1-6c0.2-2,0.8-3.9,1.4-5.8c0.1-0.1,0.2-0.2,0.3-0.3
			c0.3-0.1,0.7,0,0.8,0.3c1.4,2.9,3.3,5.5,5.5,7.6c2.4,2.1,5.2,3.5,8.3,4.2c3.1,0.6,6.3,0.7,9.5,0.5c3.3-0.2,6.5-0.6,9.7-1
			c-3.2,0.6-6.4,1.2-9.6,1.5c-3.2,0.3-6.5,0.3-9.7-0.3s-6.3-2-8.8-4.2c-2.4-2.2-4.5-5-5.9-7.9l1.1,0c-0.5,1.8-1,3.7-1.3,5.6
			c-0.3,1.9-0.4,3.8-0.2,5.7c0.2,1.9,0.5,3.8,1.1,5.7s1.2,3.8,2,5.5C662.3,566.2,661.5,564.4,660.5,562.7z"/>
		<path class="st14" d="M665.2,561.1c0.8,2.6,1.9,4.9,3.3,7.2c1.7,2.1,3.7,3.8,6.1,5c2.2,1.3,4.7,2.5,7.1,3.7l7.2,3.6
			c2.4,1.2,4.9,2.3,7.2,3.7c2.3,1.2,4.7,2.7,6.8,4.3c4.5,3.2,8.2,7.2,10.9,12.1c2.6,4.9,3.5,10.4,2.9,15.9
			c-0.6,5.3-2.1,10.6-4.3,15.5c-2.2,5-4.8,9.7-7.7,14.2c2.7-4.6,5-9.5,7-14.4c2-4.9,3.4-10.1,3.9-15.4c0.2-2.6,0.1-5.3-0.3-7.9
			c-0.5-2.6-1.4-5.1-2.6-7.4c-2.6-4.6-6.3-8.5-10.7-11.6c-2.1-1.5-4.4-3-6.7-4.3c-2.3-1.3-4.8-2.6-7.1-3.8l-7.2-3.6
			c-2.3-1.2-4.8-2.4-7.1-3.8c-2.4-1.3-4.5-3.1-6.2-5.3c-1.5-2.3-2.6-4.8-3.2-7.4c-1.6-5.2-2.8-10.4-4.1-15.6
			C661.9,551,663.3,556.3,665.2,561.1z"/>
		<path class="st11" d="M627.9,618.2c-3.1-0.7-4.7-2-5.8,2.3c-0.5,1.8,2,5.8,4.3,6.2"/>
		<path class="st4" d="M625.7,633.2c-0.2-0.3-0.1-0.8,0.2-1.1l0,0c0.3-0.2,0.8-0.1,1.1,0.2c0.7,1,1.7,1.7,2.8,2.3
			c1.1,0.5,2.4,0.6,3.6,0.4c1.3-0.2,2.5-0.6,3.7-1.1c1.2-0.5,2.4-1.2,3.5-1.8l0,0l0.1,0l0,0c0.1,0,0.1,0.1,0.1,0.2
			c-0.1,0.9-0.4,1.7-1,2.3c-0.3,0.3-0.8,0.5-1.2,0.5c-0.5,0-0.9-0.1-1.3-0.2l0,0c-0.1,0-0.1-0.1-0.1-0.2c0-0.1,0.1-0.1,0.2-0.1
			c0.3,0.1,0.7,0.2,1.1,0.2c0.4,0,0.7-0.2,1-0.4c0.5-0.6,0.9-1.3,0.9-2.1l0.3,0.2c-1.1,0.7-2.3,1.5-3.4,2.1
			c-1.2,0.7-2.5,1.2-3.8,1.5c-1.4,0.3-2.9,0.3-4.2-0.2c-1.4-0.6-2.6-1.3-3.6-2.4L625.7,633.2L625.7,633.2z"/>
		<path class="st11" d="M640.1,615.2c-0.9-0.3-3.3-1.2-3.8,0.1c-0.5,1.3,2.1,2,3,2.3c0.9,0.3,3.3,1.2,3.8-0.1
			C643.6,616.1,641.1,615.5,640.1,615.2z"/>
		<path class="st4" d="M690.6,627.6c0.3,1.3,0.5,2.5,0.3,3.8c-0.2,1.2-0.5,2.4-1.2,3.5c-0.6,1.2-1.5,2.1-2.7,2.8
			c-1.2,0.4-2.5,0.7-3.8,0.4c-2.3-0.5-4.6-1.2-7-1.9c2.4,0.1,4.7,0.9,7,1c1.1,0.1,2.2-0.2,3.2-0.6c0.9-0.5,1.7-1.4,2.1-2.4
			c1-2,1.4-4.3,0.9-6.5c-0.7-2.3-1.5-4.6-2.6-6.6C688.3,623,689.6,625.2,690.6,627.6z"/>
		<path class="st12" d="M683,631.1c-0.4-0.5-0.9-1.2-1.5-0.8c0.4-0.7,0.7-1.5,1-2.2"/>
		<path class="st7" d="M650,551.4c-0.8,1.5-1.4,3-1.9,4.6c-0.4,1.6-0.6,3.2-0.4,4.8c0.2,1.6,0.8,3.1,1.8,4.3c1,1.3,2.2,2.3,3.5,3.3
			c2.7,1.8,5.5,3.4,8.6,4.7l-0.5,0.9c-3-1.4-5.9-3.1-8.6-5c-1.3-1-2.5-2.1-3.5-3.5c-1-1.4-1.7-2.9-1.8-4.6c-0.2-1.6,0.1-3.3,0.6-4.9
			C648.4,554.3,649.1,552.8,650,551.4c1.5-2.8,3.3-5.6,5.3-8.2C653.5,545.9,651.7,548.6,650,551.4z"/>
		<path class="st4" d="M684.5,618.4c-11.4-16.8-41.2-20.5-45.5-21l0,0c-0.3-0.1-0.5-0.3-0.4-0.6c0.2-1.2,0.3-3.5-0.4-4.5l0-0.1
			c0-0.1,0.1-0.1,0.2-0.1c3.2,0.2,24.3,2.2,47.2,24.1L684.5,618.4z"/>
		<path class="st15" d="M384.7,737.5c22.6,3.4,127.7,42,171,42.9"/>
		<path class="st15" d="M392.6,743.4c29.2,2.8,92.8,49.6,173.6,43.1"/>
		<path class="st15" d="M418.2,760.6c40.3,19.8,128.9,41.8,160.6,29.9"/>
		<path class="st15" d="M473.6,789.6c17.2,10.2,92,20.2,114.4,2.4"/>
		<path class="st15" d="M537.6,806.5c29.3,3,63.5-16.8,63.5-16.8"/>
		<path class="st15" d="M282.6,795c35.5-24.9,77.9-51.2,96.4-58.7c38.1-12.4,148.9,36.6,169.3,38.4"/>
		<path class="st15" d="M276.3,789.3c1.1-1.5,76.6-61.7,108.6-69.3c14.8-3.5,147.6,31.6,147.6,31.6"/>
		<path class="st15" d="M274,785.3c3.1-2.2,50.1-54.9,109-72.1c10.8-3.2,150.1,28.3,150.1,28.3"/>
		<path class="st4" d="M339.4,767.4c4.3-1,8.4-2,12.7-2.9l6.4-1.4l6.4-1.3c4.3-0.8,8.6-1.7,12.8-2.3l0,0c7.2-0.3,14.5-0.6,21.7-0.4
			c3.6,0.2,7.2,0.3,10.8,0.7c1.8,0.1,3.6,0.4,5.4,0.7c1.8,0.2,3.5,0.8,5.2,1.6c-1.6-0.7-3.3-1.3-5.2-1.5c-1.8-0.3-3.6-0.5-5.4-0.6
			c-3.6-0.3-7.2-0.4-10.8-0.4c-7.2,0-14.5,0.3-21.7,0.7l0,0l-25.5,5.2l-6.4,1.4l-6.4,1.2c-4.3,0.8-8.6,1.7-12.8,2.4
			C330.7,769.3,335.1,768.4,339.4,767.4z"/>
		<path class="st4" d="M236.1,798c-0.6-1.1-1-2.3-1-3.5c0.1-0.6,0.2-1.2,0.4-1.7c0.2-0.6,0.4-1.1,0.4-1.7l0.1-0.2l0.2,0
			c6.2-1.4,12.3-2.8,18.5-4.3c6.1-1.4,12.2-2.9,18.4-4.4l0.2,0.8c-6.2,1.4-12.3,2.9-18.5,4.3c-6.2,1.4-12.2,2.9-18.4,4.4l0.3-0.3
			c-0.2,0.5-0.3,1.1-0.1,1.6c0.1,0.5,0.2,1.1,0.3,1.6c-0.1,1,0.1,2.1,0,3.2L236.1,798z"/>
		<path class="st4" d="M508.6,802l-17.2-1.2l-17.2-1.3l-34.5-2.7c-11.4-0.9-23-2-34.4-3.1c-5.8-0.6-11.5-1-17.3-1.6l-17.3-1.5l0.1,0
			c-3.8,0.7-7.5,1.1-11.3,1.7l-11.3,1.4l-22.6,2.5l-45.2,4.8l-0.1-0.9l22.6-2.3c7.6-0.7,15.1-1.6,22.6-2.4l22.6-2.5l11.3-1.4
			c3.7-0.4,7.5-0.9,11.2-1.7l0.1,0l17.3,1.4c5.7,0.4,11.5,0.9,17.2,1.3c11.5,0.7,23,1.5,34.5,2.4l34.4,2.9l17.2,1.6l17.2,1.7
			L508.6,802z"/>
		<path class="st15" d="M237.4,795c0,0,15.5-4.8,36.6-9.8"/>
		<path class="st4" d="M397.2,763.1c-8.8,0.5-17.7,1.5-26.3,3.1c-8.8,1.5-17.4,3-26.2,4.7l-26.2,4.9c4.3-1,8.6-2,12.9-3l13-2.8
			c8.7-1.9,17.4-3.4,26.2-5c8.8-1.6,17.6-2.6,26.5-2.8c4.4,0,8.9,0.1,13.3,0.6s8.8,0.8,13.2,0.9C414.8,764.1,406,762.8,397.2,763.1z
			"/>
		<path class="st15" d="M235.8,792.8c0,0,15.4-2.8,37.3-8.9"/>
		<path class="st4" d="M416.8,768.5c-5,0.2-10.1,0.3-15.1,0.7c-10.1,0.7-20.2,1.8-30.1,3.3l-30,4.4l-15,2.2c-5,0.7-10.1,1.3-15,2
			c5-0.9,10-1.7,14.9-2.6l14.9-2.5l30-4.7c10.1-1.4,20.1-2.5,30.2-3.1c5.1-0.3,10.2-0.4,15.2-0.3c5,0.1,10.1,0.4,15.1,0.8
			C426.9,768.6,421.9,768.5,416.8,768.5z"/>
		<path class="st4" d="M437.8,777.7l-9.4-0.2c-6.2-0.1-12.5-0.1-18.7,0c-12.4,0.3-24.9,1.1-37.3,2.4c-12.5,1.3-24.8,2.8-37.3,4.4
			c-6.2,0.8-12.4,1.6-18.5,2.4c-6.3,0.8-12.5,1.6-18.6,2.5c6.2-1.1,12.3-2.1,18.5-3.1c6.2-1,12.3-1.9,18.5-2.8
			c12.4-1.8,24.8-3.4,37.3-4.7c12.6-1.3,25-2.1,37.6-2.1c6.3,0,12.6,0.1,18.8,0.3l9.4,0.4c3.2,0.2,6.3,0.2,9.4,0.1
			C444.3,777.5,441.1,777.6,437.8,777.7z"/>
		<path class="st4" d="M449.4,788.6l-24.1-1l-24.1-1.1l-12.1-0.6c-4-0.2-8-0.4-12-0.4s-8,0.3-12,0.7c-4,0.5-8,1.2-12,1.7l-24,3.5
			l-23.9,3.4l-24,3.2L305,794l23.9-3.7l23.9-3.6c4-0.5,7.9-1.1,12-1.7c4.1-0.4,8.1-0.7,12.2-0.7c4.1,0.1,8.1,0.3,12.1,0.5l12.1,0.6
			l24.2,1.2l24.2,1.3l24.2,1.4L449.4,788.6z"/>
		<path class="st3" d="M236.1,800.4l-1,0.5c-1.1,0.6-2.1,1.5-2.9,2.5c-3.4,3.9-8.4,4.6-9.5,3.3c-3.5-3.8-1.7-6.5-3.3-7.9
			c-3-2.6-6.6-4.2-12.5-8.3c-5.8-4.1-3.9-11.2-3.6-12.4c0.3-1.2,1.6,0.7,1.5,0.1c0-1.2,0.7-2.2,1.9-2.6c1.3-0.2,0.4,1.6,0.8,2.7
			s13.4,8.1,17.5,9.5c4.5,1.5,9.1,5.3,11.7,4.1"/>
		<path class="st4" d="M666.8,681.7c1.9-1.9,4.9-2.2,7.2-0.8c2.9,1.7,3.7,5.5,1.9,8.2l-0.7,0.9c-0.1,0.2-0.2,0.3-0.3,0.4
			c-0.1,0.1-0.1,0.2-0.2,0.3l-0.3,0.3c-0.2,0.2-0.4,0.4-0.6,0.7l-0.6,0.8c-0.4,0.6-0.8,1.1-1.1,1.7l-1.1,1.7c-1.5,2.4-3,4.9-4.6,7.3
			l-9,15c-6.1,10-12,20.1-18.3,30c-6.3,9.9-12.7,19.7-19.6,29.3c-3.5,4.8-7,9.5-10.8,14.1c-3.9,4.7-7.9,9.2-12.4,13.3l-1.8,1.6
			c-0.6,0.5-1.3,0.9-1.9,1.5l-1,0.7l-0.5,0.4c-0.4,0.3-0.8,0.5-1.2,0.7c-1,0.4-2,0.8-3.1,1c-1.6,0.4-3.2,0.6-4.8,0.8
			c-1.5,0.1-3,0.3-4.5,0.3c-5.9,0.4-11.8,0.5-17.7,0.6c-11.7,0.1-23.4-0.1-35.1-0.4c-23.4-0.7-46.7-1.5-70-2.6
			c-23.3-1.1-46.6-2.3-69.9-3.5c-23.3-1.2-46.7-1.9-69.9-1.8c-23.2,0.1-46.5,0.9-69.6,3.8c-11.7,1.4-23.2,2.4-34.9,3.3
			c-5.8,0.5-11.7,0.8-17.5,1.2l-8.7,0.5c-2.9,0.2-5.9,0.4-8.7,0.8l0,0c-0.3,0-0.6-0.2-0.6-0.5c-0.1-0.3,0.2-0.6,0.5-0.7
			c3-0.6,5.9-0.7,8.8-1l8.7-0.7c5.9-0.5,11.7-1,17.5-1.4c11.6-1.1,23.1-2.3,34.7-3.9c23.1-3.3,46.6-4.6,69.9-5.1
			c23.3-0.5,46.7-0.4,70,0.4c23.3,0.8,46.6,1.5,69.9,2.1c23.3,0.6,46.6,1,69.9,1.2c11.6,0,23.2,0,34.8-0.3
			c5.7-0.2,11.5-0.4,17.2-0.8c1.4-0.1,2.8-0.3,4.2-0.4c1.2-0.1,2.5-0.4,3.8-0.6c0.4-0.1,0.7-0.2,1.1-0.3c-0.1,0-0.1,0.1-0.2,0.1
			l0.4-0.3l0.8-0.6c0.6-0.4,1.1-0.7,1.6-1.2l1.5-1.3c4-3.9,7.7-8.1,11.1-12.6c3.6-4.4,6.9-9.1,10.2-13.8
			c6.5-9.5,12.6-19.3,18.7-29.2c6.1-9.9,11.9-20,17.7-30.1l8.7-15.2c1.5-2.5,2.9-5.1,4.6-7.6l1.2-1.9c0.4-0.6,0.8-1.2,1.2-1.9l0.7-1
			c0.2-0.3,0.5-0.7,0.8-1l0.4-0.5c0.2-0.1,0.3-0.3,0.5-0.5C666,682.5,666.4,682.1,666.8,681.7L666.8,681.7z"/>
		<path class="st16" d="M579.4,808l43.9,69.2c1.6,2.5,4.3,3.9,7.2,3.8l0,0c1.6-0.1,3.2-0.6,4.5-1.5c3.7-2.6,4.6-7.7,1.9-11.5
			L594,807.5"/>
		<path class="st16" d="M193.7,811.7L159,874.8c-1.2,2.1-3.5,3.6-6.1,3.7l0,0c-1.4,0-2.8-0.3-4-1.1c-3.4-2.1-4.4-6.6-2.3-9.9
			l34.3-55.4"/>
		<path class="st17" d="M212.6,811.1l-23.5,42.8c-0.9,1.5-2.4,2.5-4.1,2.5l0,0c-0.9,0-1.9-0.2-2.7-0.7c-2.3-1.4-3-4.4-1.6-6.8
			l23.2-37.5"/>
		<path class="st17" d="M480.7,811l36.3,57.3c1.4,2,3.6,3.2,6,3.1l0,0c1.4,0,2.7-0.5,3.8-1.2c3-2.1,3.8-6.4,1.6-9.5l-35.5-50.1"/>
		<path class="st4" d="M596.8,706.2c-4.5,2-9.2,3.9-13.7,5.8l-13.7,5.7l-13.7,5.6l-0.7,0.3l-0.5-0.6c-5.3-5.4-10.5-10.8-15.7-16.3
			c-5.2-5.5-10.4-11.1-15.3-16.7c-5-5.6-9.9-11.5-14.4-17.6c-1.1-1.6-2.2-3.1-3.2-4.8c-0.2-0.4-0.4-0.8-0.6-1.3l-0.3-0.7
			c0-0.1-0.1-0.2-0.1-0.3c-0.1-0.1-0.1-0.1-0.1-0.2l0-0.1c0-0.1,0-0.1,0-0.2c0,0,0-0.1,0.1-0.2c0-0.1,0-0.2,0.1-0.2l0.1,0
			c0.2,0,0.4-0.5,0.5-0.9c0.1-0.4,0.2-0.9,0.3-1.3c0.2-1.9,0.3-3.7,0.2-5.6c0-1-0.2-1.9-0.5-2.8c-0.2-0.9-0.9-1.7-1.7-2.1
			c0.8,0.4,1.5,1.2,1.9,2c0.3,0.9,0.6,1.8,0.7,2.8c0.3,1.9,0.3,3.8,0.2,5.7c0,0.4-0.1,0.9-0.2,1.4c0,0.3-0.1,0.6-0.2,0.8
			c0,0.1-0.1,0.3-0.2,0.4c0,0.1-0.1,0.1-0.2,0.2c-0.1,0-0.1,0.1-0.2,0.1l0,0l0.1-0.1c0.1-0.1,0.1-0.1,0.1-0.2l0-0.1l0,0l0,0.1
			c0,0.1,0.1,0.2,0.1,0.3l0.3,0.6c0.2,0.4,0.5,0.8,0.7,1.2c0.9,1.6,2.1,3,3.2,4.5c4.6,5.9,9.8,11.4,14.8,16.9s10.2,11.1,15.4,16.5
			c5.3,5.4,10.4,10.9,15.7,16.3l-1.2-0.3l13.8-5.4l13.9-5.3c4.6-1.7,9.3-3.5,13.9-5.2s9.3-3.5,13.9-5.1
			C606.1,701.9,601.3,704.2,596.8,706.2z"/>
		<path class="st4" d="M599.8,716.5c-5.6,2.6-11.4,5.1-17.2,7.2c-5.7,2.2-11.6,4.4-17.5,6.4c-3,1-5.9,1.9-9,2.7
			c-0.8,0.2-1.6,0.5-2.4,0.6c-0.9,0.2-1.7,0.3-2.6,0.3c-0.4-0.1-0.8-0.2-1.1-0.5l-0.5-0.5l-0.5-0.5l-0.4-0.4l-1.6-1.8
			c-8.2-9.3-16.2-18.8-24.1-28.4c-4-4.8-7.9-9.6-11.9-14.3c-4-4.8-7.9-9.6-11.8-14.4l0.4,0.3c-2.4-1-5-2.1-7.3-3.5
			c-1.2-0.7-2.4-1.3-3.6-2.1c-1.1-0.8-2.3-1.7-3.2-2.7l0.1,0.1c-1.5-1.4-3.1-2.6-4.5-4.1c-0.4-0.4-0.7-0.8-1-1.2
			c0-0.1-0.1-0.2-0.2-0.3l-0.1-0.2l-0.1-0.2c-0.2-0.4-0.1-0.8,0.1-1.2c0.2-0.4,0.6-0.6,1-0.6c0.3-0.1,0.7,0,1,0.1
			c0.6,0.2,1.1,0.6,1.4,1.1l-0.7,0.5c-0.9-1.2-1.9-2.4-2.8-3.6c-0.4-0.6-0.8-1.2-1.3-1.9c-0.2-0.3-0.3-0.7-0.5-1
			c-0.1-0.2-0.1-0.4-0.2-0.6c-0.1-0.2-0.1-0.5,0-0.7s0.3-0.4,0.6-0.4c0.2,0,0.4,0,0.6,0.1c0.4,0.1,0.8,0.3,1.1,0.5
			c0.3,0.2,0.6,0.5,0.9,0.8c0.1,0.1,0.2,0.3,0.3,0.4c0.1,0.2,0.3,0.3,0.4,0.4c1.1,0.9,2.4,1.7,3.7,2.5c-1.3-0.7-2.6-1.4-3.9-2.3
			c-0.1-0.1-0.2-0.3-0.4-0.4s-0.3-0.3-0.4-0.4c-0.3-0.3-0.6-0.5-0.9-0.7c-0.3-0.2-0.6-0.3-1-0.4c-0.3-0.1-0.7-0.1-0.7,0.1
			c-0.1,0.3,0,0.7,0.2,0.9c0.1,0.3,0.3,0.6,0.5,0.9c0.4,0.6,0.8,1.2,1.4,1.8c0.9,1.2,1.9,2.3,2.9,3.4l-0.7,0.5
			c-0.3-0.3-0.6-0.6-1-0.7c-0.4-0.1-0.8,0.1-0.8,0.1s0.1,0.3,0.4,0.7c0.3,0.4,0.7,0.8,1,1.1c1.4,1.4,3.1,2.6,4.6,3.9l0,0l0,0
			c0.9,0.9,2,1.6,3.1,2.3c1.1,0.7,2.2,1.3,3.5,1.9c2.4,1.2,4.8,2.3,7.3,3.2l0.2,0.1l0.1,0.2l12.1,14.1l12.1,14.2
			c8.1,9.4,16,19,24.1,28.4l1.6,1.8l0.4,0.4l0.3,0.4l0.3,0.4c-0.2-0.1-0.2-0.1-0.1-0.1c0.7,0.1,1.3,0,2-0.2s1.4-0.2,2.2-0.5
			c3-0.7,6-1.6,8.9-2.5c5.9-1.8,11.8-3.8,17.6-5.9c5.8-2.1,11.6-4.4,17.3-6.6c5.8-2.3,11.5-4.9,16.9-7.8
			C611,711,605.5,713.9,599.8,716.5z"/>
		<path class="st4" d="M501.3,658c-0.3,0-0.6-0.1-0.9-0.2c-0.6-0.3-1.2-0.5-1.7-0.7c-1-0.6-2.1-1.1-3.2-1.8c-1.1-0.7-2-1.3-3.1-2.1
			c-1-0.7-1.9-1.5-2.9-2.4c-0.1,0-0.1-0.1-0.2-0.2l-0.1-0.1l-0.1-0.1l0-0.1c-0.1-0.1-0.1-0.2-0.2-0.3c-0.2-0.2-0.3-0.5-0.5-0.7
			c-0.3-0.4-0.7-0.9-1.1-1.3c-0.3-0.4-0.7-0.7-1.2-1c-0.1-0.1-0.3-0.1-0.4,0c-0.1,0.1-0.2,0.2-0.2,0.4c0,0.6,0.1,1.1,0.4,1.6
			c0.2,0.6,0.5,1.1,0.8,1.6c0.6,1.1,1.4,2.1,2.1,3c-0.9-0.8-1.9-1.6-2.6-2.6c-0.8-1-1.4-2.2-1.6-3.5c0-0.5,0.2-0.9,0.6-1.2
			c0.4-0.3,0.9-0.4,1.3-0.2c0.6,0.3,1.2,0.7,1.7,1.1c0.4,0.5,0.8,1,1.2,1.5c0.2,0.3,0.3,0.5,0.5,0.8c0,0.2,0.1,0.3,0.2,0.5l0,0.1
			l0,0l0,0l0.1,0.1c0.8,0.8,1.7,1.5,2.7,2.3c0.9,0.8,1.8,1.4,2.9,2.2c1,0.8,1.9,1.4,3,2.1c0.5,0.4,1,0.7,1.5,1
			c0.2,0.1,0.5,0.2,0.8,0.3c0.2,0.1,0.6,0.1,0.8-0.1C501.6,658.3,501.3,658.4,501.3,658z"/>
		<path class="st4" d="M480.5,650.9c-0.2-0.2-0.4-0.5-0.5-0.7c-0.2-0.2-0.2-0.5-0.2-0.8c0-0.5,0.2-1.1,0.5-1.5
			c0.3-0.5,0.8-0.9,1.4-1c0.4,0,0.7,0.1,1,0.3s0.4,0.4,0.6,0.7c0.5,0.7,1,1.3,1.7,1.8c0.6,0.7,1.2,1.3,1.9,1.8
			c1.1,1.3,2.5,2.5,3.6,3.8c-1.5-1-3-2-4.3-3.1c-1.4-1.1-2.7-2.4-3.8-3.8c-0.3-0.3-0.4-0.4-0.5-0.4c-0.2,0.1-0.5,0.3-0.6,0.5
			c-0.2,0.3-0.4,0.6-0.4,0.9c-0.1,0.1,0,0.3,0,0.4s0.1,0.3,0.2,0.4c1,1.4,2.2,2.7,3.1,4.2C482.8,653.3,481.4,652.1,480.5,650.9z"/>
		<path class="st3" d="M498.2,671.5l-2,7c-0.8,2.8-3.5,4.7-6.4,4.6l-33-1.9c-0.4-0.1-0.9-0.2-1.3-0.3c-3.4-1-5.3-4.5-4.3-7.9
			l17-59.4c0.8-2.8,3.5-4.7,6.4-4.6l33,1.9c0.5,0.1,1,0.2,1.4,0.3c3.3,1,5.2,4.5,4.2,7.9L501.9,658"/>
		<path class="st3" d="M496.4,670.7l-1.8,6.6c-0.7,2.7-3.3,4.6-6.1,4.5l-31.7-1.9c-0.5-0.1-0.9-0.2-1.3-0.3c-3.2-1-5.1-4.4-4.1-7.8
			l16.3-58.2c0.7-2.7,3.3-4.6,6.1-4.5l31.7,1.9c0.4,0.1,0.8,0.2,1.2,0.3c3.3,1,5.2,4.4,4.2,7.8l-11,39.1"/>
		<ellipse transform="matrix(0.141 -0.99 0.99 0.141 -197.2578 1014.0582)" class="st18" cx="485.7" cy="620.7" rx="4.2" ry="5.4"/>
		
			<ellipse transform="matrix(0.9995 -3.144938e-02 3.144938e-02 0.9995 -19.3025 15.5057)" class="st19" cx="483.3" cy="621.4" rx="2.4" ry="2.4"/>
		<path class="st15" d="M536.2,760.4c-5.8,4.5-126-39.3-151-32.5c-39.9,10.8-105.8,63.9-105,65.6"/>
		<path class="st3" d="M280.2,793.6c2.5,5.3-1.2,10.2-3.4,10.4c-6.2,0.4-7.4-2.5-9.8-2.1c-4.7,0.7-8.8,2.6-16.9,4.5
			c-8,2-13.2-3.5-14.1-4.4c-0.9-0.9,2-0.9,1.2-1.1l0,0c-1.1-0.6-1.5-1.9-1-2.9c0.7-1,1.8,0.7,3,1c1.2,0.3,17.3-5.2,21.6-7.6
			c4.7-2.5,11.6-3.7,12.4-6.3"/>
		<path class="st20" d="M495.1,651.9c-2.5-0.2-4.1-4.3-5.2-6c-1.1-1.8-8.3-3.2-9.9-1.4c-1.6,1.9-2.3,7-4.8,7.1
			c-2.5,0.1,0.2,7.2,1,9.4c0.8,2.2,13.1,10.8,13,12.6c-0.1,1.8-13.6,1.1-23.5,2.3c-10,1.2-9.1-5.6-6.1-11.8
			c3-6.2,10.7-31.5,12.7-36.2c2-4.8,2.1-11,6.6-15.8c4.5-4.8,21.4,3,27.1,6.1c5.7,3-6.2,16.2-9.3,28.3
			C496.7,646.4,497.6,652.1,495.1,651.9z"/>
		<path class="st21" d="M467.1,198.5l113.7-27.7c9.5-2.3,19.1,3.5,21.4,13l17.9,73.6c2.3,9.5-3.5,19.1-13,21.4l-113.7,27.7
			c-9.5,2.3-19.1-3.5-21.4-13L454,219.9C451.7,210.4,457.5,200.8,467.1,198.5z"/>
		<path class="st22" d="M606.9,279.9c-20.7,5.4-41.4,10.7-62,16.3l-31,8.3l-15.5,4.1l-7.7,2l-3.9,1c-0.7,0.1-1.5,0.3-2.3,0.5
			c-0.8,0.1-1.6,0.2-2.4,0.3c-10.1,0.4-19.2-6.1-22-15.7c-0.1-0.4-0.2-0.8-0.3-1.1l-0.2-1l-0.5-2l-1-3.9l-7.7-31.2l-7.5-31.2l-0.5-2
			l-0.2-1l-0.1-0.5l-0.1-0.6c-0.1-0.8-0.3-1.6-0.4-2.4c-0.1-0.8-0.2-1.6-0.1-2.4c0.2-10.1,7.1-18.7,16.9-21l62.5-14.2l31.3-7
			l15.6-3.5l7.8-1.7l3.9-0.9c0.7-0.1,1.4-0.2,2.1-0.4c0.7-0.1,1.5-0.1,2.2-0.2c5.9-0.1,11.5,2.4,15.3,6.8c1.9,2.1,3.3,4.8,4,7.5
			c0.2,0.7,0.3,1.4,0.5,2l0.5,2l0.9,3.9l7.3,31.2l3.8,15.6l3.9,15.6c0.3,1.3,0.7,2.6,1,3.9c0.1,0.7,0.2,1.4,0.4,2.1
			c0.1,0.7,0.1,1.4,0.1,2.1C621.5,270,615.5,277.7,606.9,279.9L606.9,279.9z M606.2,277.3c7.5-1.7,12.9-8.4,13.2-16.2
			c0-0.6,0-1.3-0.1-1.9c0-0.6-0.1-1.3-0.3-1.9c-0.2-1.3-0.6-2.6-0.8-3.9l-3.7-15.6l-3.9-15.6l-7.9-31.1l-1-3.9l-0.5-1.9
			c-0.1-0.7-0.3-1.3-0.6-1.9c-2.2-7.3-9.2-12.2-16.8-11.9c-0.6,0-1.2,0.1-1.8,0.2c-0.6,0-1.2,0.2-1.8,0.4l-3.9,1l-7.7,2l-15.5,4.1
			l-31,8.2l-62,16.1c-6.4,1.6-10.8,7.3-10.8,13.9c0,0.5,0,1,0.1,1.6c0,0.5,0.1,1,0.3,1.6l0.1,0.4l0.1,0.5l0.2,1l0.5,2l7.7,31.1
			l7.5,31.2l0.9,3.9l0.5,2l0.2,1c0.1,0.3,0.1,0.5,0.2,0.8c0.6,2,1.5,3.9,2.9,5.5c2.8,3.2,6.9,5.1,11.2,5.1c0.5,0,1.1,0,1.6-0.2
			s1-0.1,1.6-0.3l3.9-0.9l7.8-1.7l15.7-3.5l31.3-6.9C564.6,286.8,585.4,282.1,606.2,277.3L606.2,277.3z"/>
		<path class="st23" d="M456,227.9l63.9,25.1c15.9,6.2,32.5,2.3,44.1-10.5l41.4-45.7"/>
		<line class="st23" x1="469.5" y1="283.6" x2="500.6" y2="245.4"/>
		<line class="st23" x1="615.5" y1="245.7" x2="576.7" y2="228.5"/>
		<path class="st7" d="M596.2,190.3c4.3-0.9,8.1-3.5,10.6-7.1c2.4-3.7,3.2-8.2,2.4-12.5c-1-4.2-3.4-8.3-7.1-10.6
			c-7.7-5.1-18-2.9-23.1,4.7l0,0c-2.4,3.7-3.2,8.2-2.4,12.6c1,4.2,3.4,8.3,7.1,10.6C587.4,190.3,591.9,191.1,596.2,190.3
			L596.2,190.3z"/>
		<text transform="matrix(0.9792 -0.203 0.203 0.9792 585.584 180.1279)" class="st24 st25 st26">99</text>
		<path class="st4" d="M508.9,644.9c1,0.6,2,1,3,1.7l0.3,0.2l-0.3,0.3c-0.7,0.6-1.3,1.3-1.6,2.3c-0.4,0.8-0.4,1.8-0.1,2.6
			c0.1,0.5,0.3,0.8,0.6,1.2c0.3,0.4,0.7,0.7,1,1l0.5,0.4l0.6,0.4l0.6,0.4l0.6,0.3c0.8,0.4,1.7,0.4,2.6,0.4c1-0.1,1.9-0.3,2.8-0.6
			c0.9-0.3,1.9-0.7,2.9-1c0.6-0.2,1.1-0.3,1.7-0.4c0.3,0,0.7,0,1,0.1c0.4,0.1,0.7,0.2,1,0.4l0.5,0.3l0.3,0.3l0.6,0.5l1.1,1
			c0.7,0.7,1.4,1.5,2.2,2.1l1,1.1l1,1.2c0.6,0.8,1.3,1.6,2,2.3c2.6,3.1,5,6.3,7.3,9.7c4.6,6.6,9,13.3,13.4,20l3.4,5
			c1.3,1.7,2.3,3.3,3.6,4.9c2.3,3.2,5,6.2,7.6,9.3c-6-5.5-11.3-11.6-16-18.1c-4.8-6.5-9.2-13.1-13.8-19.7c-2.3-3.2-4.6-6.5-7.1-9.6
			c-0.6-0.8-1.2-1.5-1.9-2.2l-0.9-1.2l-1-1.1c-0.7-0.7-1.3-1.5-2.1-2.1l-1-1l-0.5-0.5l-0.3-0.2c-0.1-0.1-0.1-0.1-0.2-0.1
			c-0.6-0.3-1.4-0.3-2.1,0c-0.9,0.2-1.9,0.6-2.9,0.8c-1.1,0.2-2.1,0.5-3.2,0.5c-1.2,0-2.3-0.2-3.3-0.7l-0.7-0.4l-0.6-0.5l-0.6-0.5
			l-0.6-0.5c-0.4-0.3-0.8-0.8-1.1-1.2c-0.3-0.5-0.6-1-0.8-1.6c-0.2-1.1-0.2-2.3,0.4-3.3c0.5-0.9,1.1-1.7,2-2.4l0,0.5
			c-0.9-0.7-1.8-1.2-2.8-1.8c-0.9-0.6-1.9-1.1-2.9-1.5C507.2,644,508.2,644.4,508.9,644.9z"/>
		<circle class="st27" cx="687.1" cy="629.8" r="21.1"/>
		<path class="st4" d="M579,703.8c-0.7-0.9-1.4-1.7-2.1-2.4c-1.4-1.7-2.7-3.2-4.2-4.8l-8.4-9.4c-5.7-6.2-11.3-12.5-17-18.7
			c-2.9-3.1-5.7-6.2-8.6-9.2c-2.9-3-5.8-6-8.9-8.8c-0.7-0.7-1.5-1.3-2.4-1.8c-0.9-0.6-1.8-0.9-2.7-1.4c-1.9-0.8-3.9-1.6-5.9-2.2
			c-4-1.4-8.1-2.4-12.2-3.3c4.2,0.5,8.4,1.1,12.6,2.2c2,0.5,4,1.2,6.1,1.9c1,0.4,2,0.8,2.9,1.3c1,0.6,1.9,1.2,2.8,1.9
			c6.5,5.6,12.3,11.7,18,17.9c5.7,6.2,11.2,12.6,16.6,19.1c2.7,3.2,5.3,6.5,7.9,9.9c1.3,1.7,2.5,3.3,3.8,5.1
			c1.3,1.7,2.4,3.4,3.4,5.3C580.2,705.4,579.5,704.5,579,703.8z"/>
		<path class="st4" d="M524.6,645.8c-0.9-0.5-1.8-0.9-2.8-1.3c-0.9-0.4-1.9-0.7-2.9-1c-0.5-0.1-1-0.2-1.5-0.3c-0.5-0.1-1,0-1.5,0.2
			c0.4-0.5,0.9-0.8,1.5-0.8c0.6-0.1,1.1-0.1,1.7-0.1c1.1,0.1,2.2,0.3,3.2,0.8c1.1,0.5,2,0.9,3,1.6c0.9,0.6,1.6,1.4,2.2,2.4
			C526.5,646.8,525.6,646.2,524.6,645.8z"/>
		<path class="st19" d="M517.4,653.6c-0.4-0.9-3.6,0.5-3.9,2.1"/>
		<path class="st19" d="M513.8,650.3c-0.1,0-0.2,0-0.3,0c-1.6,0.2-2.9,1.6-2.7,3.3"/>
		<path class="st27" d="M690.6,626.7c0,0-7.3-4.2-5.8-5.7c10.8-45.2-14.3-67.7-18.2-70.6c-1.3-1,10.8,1.1,10.8,1.1
			C688,557.4,703.1,603.9,690.6,626.7"/>
		<circle class="st4" cx="684.6" cy="629.4" r="20.1"/>
		<circle class="st8" cx="684.6" cy="629.5" r="13.3"/>
		<path class="st28" d="M686.7,646.5c-0.5,0.1-1,0.1-1.5,0.1"/>
		<path class="st29" d="M687.1,612.5c6.5,1,12,5.6,13.9,12c2.7,9.1-2.4,18.6-11.4,21.4"/>
		<path class="st28" d="M684.1,612.4c0.5,0,1,0.1,1.5,0.1"/>
		<path class="st30" d="M642.4,641.8c14.6,9,30.3-1.4,30.3-1.4"/>
		<circle class="st4" cx="641.4" cy="641.6" r="2.6"/>
		<path class="st31" d="M349.5,497.5l-189.4,19.7c-10.3,1-19.2-7.1-19.6-17.9L136.6,375c-0.3-9.9,6.9-18.2,16.4-19l193.6-14.9
			c10.3-0.8,19.2,7.8,19.1,18.5l-0.3,119.6C365.4,488.7,358.6,496.5,349.5,497.5z"/>
		<path class="st6" d="M158.7,357.7c-6.3,1.4-12.4,3.5-18.2,6.3c-2.6,1.3-4.9,3-6.9,5c-1.6,1.7-2.7,3.9-2.9,6.2c0,0.3,0,0.6,0,0.9
			l0,0.4l0.3,8.2l0.3,10.1c0.2,6.8,0.4,13.5,0.6,20.3c0.2,6.8,0.4,13.5,0.5,20.3c0.1,6.8,0.3,13.5,0.3,20.3
			c0.2,13.5,0.2,27,0.2,40.5l-0.1-0.9l0,0c0.1,0.3,0.2,0.8,0.3,1.1s0.3,0.8,0.5,1.3c0.4,0.8,0.9,1.7,1.3,2.5
			c0.9,1.6,2.1,3.1,3.3,4.4c1.2,1.4,2.7,2.6,4.2,3.6c1.5,1.1,3.3,1.9,5,2.6l-1.3,4c-2.1-0.6-4.1-1.5-6.2-2.6c-1.9-1-3.8-2.4-5.4-3.9
			s-3.2-3.2-4.5-5.1c-0.6-0.9-1.3-1.9-1.8-2.8c-0.3-0.5-0.5-1-0.8-1.5c-0.3-0.6-0.5-1.2-0.8-1.8l0,0l-0.1-0.3l0-0.6
			c-0.9-13.5-1.7-27-2.4-40.4c-0.3-6.8-0.6-13.5-0.9-20.3c-0.3-6.8-0.5-13.5-0.7-20.3c-0.2-6.8-0.4-13.5-0.6-20.3l-0.3-10.1
			l-0.3-8.2l0-0.8c0-0.6,0-1.1,0-1.7c0.5-4.4,2.6-8.6,5.9-11.6c2.9-2.6,6.3-4.6,10-5.9c3.4-1.3,6.9-2.1,10.4-2.7
			c3.5-0.5,7.1-0.7,10.6-0.6L158.7,357.7z"/>
		<path class="st31" d="M226.1,510.3l26.1,33c2.2,2.7,6.1,3.2,8.8,1c0.4-0.3,0.7-0.6,1-0.9l33.4-40.3"/>
		<path class="st6" d="M214.4,510.4c3.9,3.6,7.5,7.3,11.1,11.2c3.5,3.8,6.9,7.8,10.3,11.8l2.5,3l0.6,0.8l0.5,0.6
			c0.3,0.4,0.6,0.8,1,1.1c1.4,1.4,3.2,2.5,5,3.2c1.9,0.8,3.9,1.5,6,1.9c2.6,0.4,5.2,1,7.9,1.9l0.2,1.4c-2.3,1.7-4.9,2.9-7.7,3.5
			c-3.1,0.7-6.3,0.6-9.3-0.4s-5.9-2.6-8.3-4.7c-0.6-0.5-1.1-1.1-1.8-1.6l-0.8-0.9l-0.6-0.8l-2.5-3c-3.3-4-6.5-8.1-9.6-12.3
			c-3.1-4.2-6.1-8.5-8.8-13L214.4,510.4z"/>
		<path class="st8" d="M233.2,368.4l101.7-6.7c4.9-0.4,9.1,3.4,9.5,8.3l0,0c0.4,4.9-3.4,9.1-8.3,9.5l-101.7,6.7
			c-4.9,0.4-9.1-3.4-9.5-8.3l0,0C224.5,372.9,228.3,368.7,233.2,368.4z"/>
		<path class="st8" d="M230.5,396.4l110.6-7.3c2.5-0.2,4.6,1.7,4.7,4.2l0,0c0.2,2.5-1.7,4.6-4.2,4.7l-110.6,7.3
			c-2.5,0.2-4.6-1.7-4.7-4.2l0,0C226.2,398.6,228.2,396.5,230.5,396.4z"/>
		<path class="st8" d="M301.6,456.5c-0.2,0-0.4,0-0.6,0c-3.1-0.4-7.5-3.6-13.2-9.3c-2.7-2.7-5.2-5.6-7.6-8.8l0,0
			c-0.1-0.2-3.7-5.3-2.5-10.3c0.7-2.7,2.5-5.1,5-6.3c3.8-2.2,9.4,0.6,10.6,1.3c1.2-0.6,6.1-3.1,8.1-2.9c13.5,1.6,12.5,16,12.5,16.2
			c0.2,6.3-3.8,13.9-7.7,17.7C305,455.4,303.4,456.2,301.6,456.5z M281.1,438c1,1.6,13.4,16.7,20,17.5c1.3,0.2,2.9-0.6,4.6-2.1
			c3.9-3.5,7.7-10.8,7.5-16.9c0.1-0.6,0.9-13.8-11.7-15.2c-1.6-0.1-6.2,2-7.8,2.8c-0.1,0.1-0.3,0.1-0.5,0c-0.1,0-6.1-3.5-9.9-1.4
			c-2.3,1.2-4,3.2-4.6,5.6C277.6,433,281.1,437.9,281.1,438L281.1,438z"/>
		<path class="st8" d="M287.7,422.1c-2.4,0-4.8,0.6-7,1.6c-1,0.5-1.8,1.3-2.4,2.1c-0.7,0.8-1.1,1.7-1.5,2.6c-0.3,1-0.3,2.1-0.3,3.1
			c0,1.1,0.2,2.2,0.5,3.2c0.7,2.1,1.6,4.2,3.1,5.8l1.1,1.3l1.3,1.4c0.8,0.9,1.8,1.8,2.6,2.7c1.8,1.8,3.5,3.6,5.4,5.2
			c1.7,1.6,3.6,3.2,5.5,4.5c0.4,0.3,0.9,0.5,1.3,0.7c0.2,0.1,0.4,0.1,0.6,0.1c0.3,0,0.6,0,0.8,0c1.2-0.1,2.4-0.4,3.5-0.9l0.6,0.8
			c-1,1-2.1,1.8-3.4,2.3c-0.3,0.1-0.7,0.2-1,0.3c-0.4,0.1-0.8,0.2-1.3,0.1c-0.8,0-1.6-0.1-2.3-0.4c-1.3-0.5-2.6-1.1-3.8-1.8
			c-1.1-0.7-2.2-1.4-3.4-2.3c-2-1.5-4.1-3.3-6-5.1c-0.9-0.9-1.9-1.8-2.8-2.8l-1.3-1.5l-1.4-1.7c-0.4-0.6-0.8-1.2-1.3-1.8
			c-0.4-0.6-0.7-1.3-1.1-1.9c-0.3-0.7-0.5-1.4-0.9-2.1c-0.1-0.4-0.2-0.7-0.3-1.1l-0.2-1.1c-0.2-1.5-0.4-2.9-0.3-4.4
			c0.1-1.5,0.4-3,1-4.3c0.7-1.4,1.5-2.6,2.7-3.7c1.1-1,2.3-1.8,3.7-2.2c2.7-0.9,5.5-0.9,8.2-0.1L287.7,422.1z"/>
		<path class="st32" d="M180.5,431.6c4.2,9,10.2,17,17.9,23.2c4,3.3,8.3,6.1,13.4,7.3c1.6,0.2,3.2,0.1,4.7-0.5
			c1.6-0.8,2.9-1.9,4.1-3.2c1.3-1,1.6-2.9,0.7-4.3c-3.2-5.4-6.4-10.7-9.7-16c-1.2-1.9-3.1-2.1-5-1c-1.2,0.6-2.3,1.3-3.3,2
			c-1.4,1-2.4,0.8-3.5-0.4c-6.1-6-10-13.8-11.2-22.3c-0.7-4.8-0.7-4.8,4-6.2c4-1.2,4.7-2.8,3.3-6.7s-2.8-8.1-4.1-12.3
			c-2-6.4-2.5-6.7-9.2-5.3c-2.1,0.3-3.8,1.6-4.5,3.6c-1.1,2.8-2,5.8-2.5,8.8C173.8,410,176,421.2,180.5,431.6z"/>
		<path class="st32" d="M180.5,431.6c-4.5-10.4-6.8-21.6-5-33.5c0.6-3,1.4-5.9,2.5-8.8c0.7-1.9,2.5-3.4,4.5-3.6
			c6.7-1.4,7.2-1.1,9.2,5.3c1.3,4.1,2.7,8.1,4.1,12.3c1.4,4.2,0.6,5.5-3.3,6.7c-4.7,1.4-4.7,1.4-4,6.2c1.2,8.5,5.1,16.3,11.2,22.3
			c1.1,1.2,2.1,1.4,3.5,0.4c1.1-0.7,2.2-1.5,3.3-2c2-1.1,3.9-0.7,5,1c3.4,5.3,6.5,10.6,9.7,16c0.8,1.4,0.6,3.3-0.7,4.3
			c-1.2,1.2-2.6,2.4-4.1,3.2c-1.5,0.6-3.1,0.8-4.7,0.5c-5.1-1.1-9.4-4-13.4-7.3C190.9,448.6,184.7,440.7,180.5,431.6z"/>
		<path class="st33" d="M176.6,434.4c4.4,9.5,11.2,17.7,19.6,23.7c4.5,3.3,9.4,6,15.3,6.9c1.9,0.2,3.8-0.1,5.5-0.9
			c1.9-1,3.5-2.2,5.1-3.7c1.6-1.3,2-3.1,1.1-4.6c-3.4-5.5-6.9-11.1-10.4-16.5c-1.3-1.9-3.5-2.1-5.7-0.8c-1.4,0.7-2.8,1.5-4,2.3
			c-1.7,1.2-2.9,0.9-4.1-0.3c-6.7-5.9-11-14.2-11.7-23.1c-0.5-5-0.5-5,5.1-6.9c4.7-1.5,5.6-3.3,4.3-7.4c-1.3-4.2-2.8-8.5-4.1-12.8
			c-2-6.7-2.5-7-10.4-5.1c-2.6,0.6-4.5,1.9-5.5,4.2c-1.5,3-2.7,6.3-3.5,9.5C170.3,410.9,171.6,423.4,176.6,434.4z"/>
		<path class="st8" d="M175,435.1c-1.9-4.5-3.4-9.2-4.2-14c-0.9-4.9-1.1-9.8-0.7-14.6c0.2-2.4,0.6-4.8,1.2-7.2
			c0.5-2.4,1.4-4.7,2.5-7l1.5-3.2c0.6-1.3,1.5-2.4,2.7-3.2c1.1-0.7,2.4-1.3,3.7-1.5c1.2-0.2,2.3-0.6,3.6-0.7
			c0.6-0.1,1.3-0.1,1.9-0.2c0.7,0,1.4,0.1,2.1,0.2c0.8,0.3,1.4,0.8,1.8,1.3l0.3,0.5l0.2,0.5c0.1,0.3,0.3,0.6,0.4,0.9
			c0.4,1.2,0.8,2.3,1.1,3.5l1,3.4l2,6.8c0.3,1.2,0.7,2.2,1,3.5c0.4,1.3,0.4,2.7-0.1,3.9c-0.3,0.6-0.8,1.2-1.2,1.6
			c-0.5,0.4-1.1,0.7-1.7,1c-1.1,0.4-2.3,0.9-3.5,1.2c-1.1,0.2-2.1,0.8-3,1.4c-0.7,0.6-0.5,1.9-0.5,3c0.2,4.7,1.5,9.4,3.5,13.6
			c2.1,4.2,5.1,7.9,8.6,11c0.4,0.3,0.8,0.5,1.3,0.6c0.5,0,1-0.1,1.4-0.4c1-0.6,2-1.4,3-1.9c0.5-0.3,1-0.5,1.6-0.8
			c0.6-0.3,1.2-0.5,1.8-0.7c0.7-0.1,1.3-0.1,2,0c0.7,0.2,1.3,0.5,1.8,0.9c0.2,0.2,0.5,0.5,0.7,0.8l0.5,0.8l0.9,1.5l2,2.9l3.9,6
			l2,2.9l0.9,1.5l0.5,0.8c0.2,0.3,0.3,0.7,0.4,1.1c0.2,0.8,0.3,1.6,0,2.3c-0.3,0.7-0.6,1.3-1.1,1.9c-0.5,0.5-1,0.9-1.4,1.3
			s-0.9,0.8-1.4,1.2c-1,0.8-2.1,1.6-3.2,2.1c-1.2,0.5-2.5,0.9-3.8,1c-0.7,0-1.3,0-2,0c-0.6-0.1-1.2-0.2-1.8-0.3
			c-1.2-0.3-2.4-0.5-3.6-1c-4.7-1.7-9-4.1-12.8-7.1c-3.9-3-7.4-6.4-10.4-10.2C179.7,443.7,177.1,439.5,175,435.1z M178.3,433.7
			c3.9,8.4,9.7,15.8,16.9,21.7c3.5,3,7.5,5.4,11.7,7.1c1,0.4,2.1,0.7,3.2,1c0.5,0.2,1.1,0.3,1.6,0.3s1,0.1,1.5,0.1
			c1.1,0,2.1-0.3,3.1-0.7c1-0.4,2-1,2.7-1.7c0.5-0.3,0.9-0.7,1.4-1c0.5-0.3,1-0.7,1.3-1c0.7-0.6,1-1.4,0.8-2.3
			c-0.1-0.2-0.1-0.4-0.2-0.6l-0.4-0.8l-0.9-1.5l-1.9-3l-3.7-6.1l-1.9-3l-0.9-1.5l-0.5-0.8c-0.1-0.2-0.3-0.4-0.5-0.6
			c-0.7-0.7-1.8-0.9-2.8-0.7c-0.5,0.1-1.1,0.2-1.6,0.6c-0.5,0.2-1.1,0.5-1.6,0.8c-1.1,0.5-2,1.2-3,1.8c-0.6,0.4-1.3,0.5-2,0.6
			c-0.7-0.1-1.3-0.3-1.9-0.7c-3.7-3.2-6.6-7-8.8-11.3c-2.1-4.3-3.4-9.1-3.6-13.9c0-0.6,0-1.2-0.1-1.9c0-0.7,0.3-1.4,0.7-1.9
			c0.5-0.4,1.1-0.8,1.7-1.1s1.2-0.4,1.7-0.7c1.1-0.3,2.2-0.8,3.3-1.2c1-0.4,1.8-1.2,2.3-2.1c0.3-1,0.2-2.1-0.1-3.1
			c-0.3-1.1-0.8-2.3-1.1-3.4l-2.3-6.7l-1.1-3.4c-0.3-1.1-0.7-2.2-1.1-3.3c-0.1-0.2-0.2-0.5-0.3-0.7l-0.2-0.3l-0.2-0.3
			c-0.2-0.3-0.6-0.6-0.9-0.7c-1-0.2-2-0.1-3,0.2c-1.1,0.2-2.3,0.6-3.4,0.8c-1,0.2-2,0.7-2.9,1.3c-0.8,0.5-1.4,1.3-1.7,2.3l-1.4,3.2
			c-0.9,2.1-1.6,4.3-2,6.6c-0.4,2.3-0.8,4.5-0.9,6.8C172.8,415.9,174.4,425.2,178.3,433.7L178.3,433.7z"/>
	</g>
</g>
<path class="st1" d="M12.6,881.8c47.8,8.5,52.3,4.1,161.1-0.5c108.9-4.5,181.9-11.7,255.6-6.2s113.5,8,196.8,4.9s158.1,7,158.1,7"/>
<g>
	<text transform="matrix(1 0 0 1 673 260)" class="st34 st35 st36">display: flex</text>
</g>
</svg>
