<?xml version="1.0" encoding="utf-8"?>
<!-- Generator: Adobe Illustrator 25.2.3, SVG Export Plug-In . SVG Version: 6.00 Build 0)  -->
<svg version="1.1" id="Capa_1" xmlns="http://www.w3.org/2000/svg" xmlns:xlink="http://www.w3.org/1999/xlink" x="0px" y="0px"
	 viewBox="0 0 859.2 980.8" style="enable-background:new 0 0 859.2 980.8;" xml:space="preserve">
<style type="text/css">
	.st0{opacity:8.000000e-02;fill:none;stroke:#0F2633;stroke-width:2;stroke-miterlimit:10;enable-background:new    ;}
	.st1{fill:#FFE268;}
	.st2{fill:none;stroke:#0F2633;stroke-width:1.38;stroke-miterlimit:10;}
	.st3{fill:none;stroke:#0F2633;stroke-width:1.21;stroke-miterlimit:10;}
	.st4{fill:#0F2633;}
	.st5{fill:none;stroke:#0F2633;stroke-width:1.46;stroke-miterlimit:10;}
	.st6{opacity:0.19;}
	.st7{fill:#46758F;}
	.st8{fill:#E54754;}
	.st9{fill:none;stroke:#46758F;stroke-width:3;stroke-miterlimit:10;}
	.st10{fill:#9BC9DD;}
	.st11{fill:none;stroke:#E54754;stroke-width:2.69;stroke-miterlimit:10;}
	.st12{fill:#F29AA8;}
	.st13{fill:none;stroke:#0F2633;stroke-width:1.11;stroke-miterlimit:10;}
	.st14{fill:#BAE3FA;}
	.st15{fill:#97303C;}
	.st16{fill:none;stroke:#0F2633;stroke-width:0.87;stroke-miterlimit:10;}
	.st17{fill:none;stroke:#0F2633;stroke-width:2.41;stroke-miterlimit:10;}
	.st18{fill:none;stroke:#0F2633;stroke-width:2;stroke-miterlimit:10;}
	.st19{fill:none;stroke:#0F2633;stroke-width:0.9;stroke-miterlimit:10.0002;}
	.st20{fill:none;stroke:#0F2633;stroke-width:0.9;stroke-miterlimit:10;}
	.st21{opacity:0.5;fill:#9BC9DD;enable-background:new    ;}
	.st22{fill:none;stroke:#47768E;stroke-width:1.67;stroke-miterlimit:10;}
	.st23{fill:#47768E;}
	.st24{fill:none;stroke:#47768E;stroke-width:1.84;stroke-miterlimit:10;}
	.st25{fill:#FFFFFF;}
	.st26{font-family:'ArialMT';}
	.st27{font-size:16.83px;}
	.st28{fill:#050F15;}
	.st29{fill:none;stroke:#46758F;stroke-linecap:round;stroke-linejoin:round;}
	.st30{fill:none;stroke:#46758F;stroke-linecap:round;stroke-linejoin:round;stroke-dasharray:2.98,2.98;}
	.st31{fill:none;stroke:#0F2633;stroke-width:2;stroke-linecap:round;stroke-linejoin:round;}
	.st32{fill:none;stroke:#46758F;stroke-width:4.23;stroke-miterlimit:10;}
	.st33{fill:none;stroke:#9BC9DD;stroke-width:0.74;stroke-miterlimit:10;}
	.st34{fill:none;stroke:#9BC9DD;stroke-width:0.83;stroke-miterlimit:10;}
	.st35{opacity:0.7;fill:#FFE268;enable-background:new    ;}
</style>
<g id="Capa_2_1_">
	<g id="Strokes">
		<path class="st0" d="M484.9,907c-54.9,18.1-114.5,36.7-172.1,48.7s-113.2,17.4-159.3,7.6c-46.3-9.6-83.1-34.5-107.3-78.3
			c-25-43.2-34.6-101-37.3-162.3C6.4,661.2,11,596.1,19.4,533.8c8.7-62.6,21.3-122.5,40.1-178.5c19-56.3,44.3-108.7,83.5-161.1
			C219.1,92.7,346.6,10.8,483.2,6.4c67-2.1,134.2,15.8,191,56.8c57,40.4,103.4,103.9,133,181c30.7,78,40.7,160.2,39.6,233.5
			c-1.3,73.6-13.5,138.3-31.6,189.4c-18.3,51.5-42.5,89.3-71.8,117.2c-29.6,28.2-64.5,46.6-108.6,67.2
			C590.4,870.6,540.1,888.6,484.9,907z"/>
		<path class="st1" d="M339.8,77.9c9.8,0.3,17.1,7.6,16.3,16.3s-8.3,15.3-16.7,14.6c-8.7-0.9-15.5-7.8-16.4-16.4
			C322.4,84,329.9,77.5,339.8,77.9z"/>
		<path class="st2" d="M338.4,49.6c23.3,0,42.2,18,42.2,40.3s-18.9,40.3-42.2,40.3s-42.2-18.1-42.2-40.3"/>
		<path class="st3" d="M310.3,66.5c14.7-13.8,37.5-13.8,52.2,0c0.5,0.5,1.1,1,1.6,1.6c12.9,13.7,12.1,35.3-1.6,48.1"/>
		<ellipse class="st4" cx="295.7" cy="90.4" rx="4.7" ry="4.5"/>
		<ellipse class="st4" cx="362.5" cy="116.2" rx="2.5" ry="2.4"/>
		<ellipse class="st5" cx="338.7" cy="92.5" rx="20.4" ry="19.4"/>
		<path class="st4" d="M347.2,87.3c-0.9,0.5-1.8,1-2.8,1.4l-0.1-1.7c1.1,0.3,2.2,0.7,3.2,1.1c0.6,0.2,1.1,0.5,1.6,0.7
			c0.5,0.3,1,0.6,1.5,0.9c-0.6,0-1.2,0-1.8,0s-1.1-0.1-1.7-0.2c-1.1-0.2-2.2-0.5-3.3-0.8l-2.5-0.7l2.4-1c1-0.4,2-0.7,3-1
			c1.1-0.3,2.1-0.5,3.2-0.6C349.1,86.1,348.2,86.7,347.2,87.3z"/>
		<path class="st4" d="M332.8,86.2c1,0.3,1.9,0.6,2.8,1l2.1,0.9l-2.2,0.6c-1,0.4-2.1,0.6-3.1,0.8c-1,0.1-2.1,0.2-3.2,0.2
			c0.9-0.7,1.8-1.2,2.8-1.6s2-0.8,3-1.1l-0.1,1.6c-0.9-0.4-1.8-0.9-2.6-1.4c-0.8-0.5-1.7-1.1-2.4-1.8
			C330.9,85.5,331.9,85.7,332.8,86.2z"/>
		<path class="st5" d="M345.4,99.7c-0.1,3-2.6,5.5-5.7,5.4c-3.1,0-5.7-2-5.7-5L345.4,99.7z"/>
		<g class="st6">
			<path class="st4" d="M13.8,443.3c2.3-14.9,4.8-29.7,7.4-44.5l3.9-22.2l4.2-22.2c5.6-29.6,11.6-59.1,18.6-88.4
				s14.8-58.4,24.4-86.9s20.9-56.6,35.8-82.8c7.4-13.2,15.9-25.7,25.5-37.3l1.8-2.2l1.9-2.1l3.8-4.2l4-4l2-2
				c0.7-0.6,1.4-1.3,2.1-1.9l4.1-3.8c1.4-1.3,2.9-2.5,4.3-3.7l2.2-1.8c0.7-0.6,1.4-1.1,2.2-1.7l4.5-3.4c1.6-1.1,3.1-2.1,4.7-3.2
				l2.4-1.6c0.8-0.5,1.6-1,2.4-1.5l4.9-2.9l5-2.6l2.5-1.3l2.6-1.2l5.2-2.3l5.3-2c0.9-0.3,1.8-0.7,2.7-1l2.7-0.8
				c1.8-0.6,3.6-1.2,5.4-1.7l5.5-1.4c1-0.2,1.9-0.5,2.8-0.7l2.8-0.5l5.5-1.1c7.4-1.2,15-1.9,22.5-2.1c7.5-0.3,15.1-0.2,22.6,0.3
				c1.8,0.1,3.8,0.3,5.6,0.5s3.7,0.4,5.6,0.6l5.6,0.8c1.9,0.3,3.8,0.5,5.6,0.9c14.9,2.6,29.5,6.2,43.9,10.8
				c14.3,4.5,28.4,9.9,42.3,15.8c13.8,5.9,27.5,12.3,40.9,19.1c26.8,13.6,52.9,28.7,78.4,44.8c50.9,32.1,99.4,68,145.1,107.4
				c22.8,19.7,44.5,40.6,65.1,62.6c20.6,22.1,39.5,45.6,56.7,70.4c17.1,24.9,32.1,51.1,44.8,78.5c12.7,27.3,22.9,55.8,30.3,85.1
				c14.7,58.4,19.3,119.6,11.7,179.6c-1.9,15-4.6,29.8-8.1,44.5c-3.5,14.6-7.9,29.1-13,43.3c-5.1,14.2-11.1,28-17.9,41.5
				c-6.9,13.4-14.7,26.4-23.3,38.8c-8.6,12.4-18.1,24.2-28.4,35.2c-2.7,2.7-5.2,5.4-7.9,8.1l-8.2,7.8l-8.5,7.5
				c-1.3,1.3-2.9,2.4-4.3,3.6l-4.4,3.6c-23.7,18.7-50,33.8-78.2,44.8c-14.1,5.5-28.5,10.1-43.1,13.7c-14.7,3.5-29.5,6.2-44.5,8
				c-15,1.8-30,2.8-45.1,2.9h-5.6h-2.8l-2.8-0.1l-11.3-0.3c-3.8-0.1-7.5-0.4-11.3-0.6c-1.8-0.1-3.7-0.1-5.6-0.3l-5.6-0.5
				c-30-2.6-59.8-7.7-89-15.2s-57.8-17.2-85.5-29c-13.9-5.8-27.5-12.3-41-19c-13.5-6.8-26.7-14-39.7-21.6s-25.7-15.7-38.2-24.1
				s-24.7-17.3-36.5-26.6c-23.8-18.5-45.9-39-66.3-61.2c-10.1-11.2-19.6-22.9-28.4-35.1s-16.7-25.1-23.6-38.5
				c-3.5-6.7-6.5-13.5-9.4-20.5s-5.4-14.1-7.5-21.3s-4-14.5-5.4-21.9s-2.6-14.8-3.4-22.3s-1.4-15-1.6-22.5s-0.3-15.1-0.2-22.6
				c0.2-15.1,1-30.1,2-45.1C4.9,502.6,9,472.7,13.8,443.3z M0.2,577.7c-0.2,7.6-0.1,15.1,0.2,22.6s0.7,15,1.6,22.5
				s1.9,14.9,3.4,22.3s3.2,14.7,5.4,21.9s4.6,14.4,7.5,21.3s5.9,13.8,9.4,20.5c6.9,13.3,14.8,26.2,23.6,38.4
				c8.7,12.2,18.2,23.9,28.4,35c20.3,22.2,42.5,42.6,66.3,61.1c11.9,9.3,24,18.2,36.5,26.6s25.2,16.3,38.2,24s26.2,14.9,39.7,21.5
				c13.5,6.6,27.1,13,41,18.8c27.8,11.7,56.3,21.3,85.5,28.8c29.2,7.4,58.9,12.4,88.9,15l5.6,0.5c1.8,0.1,3.7,0.2,5.6,0.3
				c3.8,0.2,7.5,0.5,11.3,0.6l11.2,0.2l2.8,0.1h2.8l5.6-0.1c15-0.2,30.1-1.2,45-3c14.9-1.8,29.7-4.5,44.3-8
				c14.6-3.6,28.9-8.2,42.9-13.7c28-11,54.2-26.1,77.8-44.8l4.4-3.6c1.4-1.2,2.9-2.3,4.3-3.6l8.4-7.5l8.1-7.8
				c2.6-2.6,5.2-5.4,7.8-8.1c10.2-11.1,19.6-22.8,28.2-35.1c8.5-12.3,16.3-25.2,23.1-38.6c6.8-13.4,12.7-27.2,17.8-41.3
				c5.1-14.2,9.4-28.6,12.9-43.2s6.1-29.4,8-44.3c7.6-59.6,2.9-120.5-11.8-178.6c-7.4-29.1-17.5-57.5-30.1-84.8
				c-12.6-27.3-27.5-53.5-44.5-78.3c-17.1-24.8-36-48.2-56.5-70.2c-20.6-21.9-42.2-42.8-65-62.5c-45.5-39.4-93.9-75.4-144.7-107.6
				c-25.4-16.1-51.4-31.2-78.2-44.9c-13.4-6.8-27-13.2-40.8-19.1s-27.9-11.3-42.2-15.9c-14.3-4.7-28.9-8.3-43.7-10.9
				c-1.9-0.4-3.7-0.6-5.6-0.9L285,2.5c-1.9-0.3-3.7-0.4-5.6-0.6s-3.7-0.4-5.6-0.5c-7.5-0.5-15-0.7-22.5-0.4c-7.5,0.2-15,0.8-22.4,2
				l-5.6,1l-2.6,0.4c-0.9,0.2-1.8,0.5-2.7,0.7l-5.5,1.4c-1.8,0.6-3.6,1.1-5.4,1.7L204.4,9c-0.8,0.3-1.7,0.7-2.6,1l-5.3,2l-5.2,2.3
				l-2.5,1.2l-2.5,1.3l-5,2.6l-4.8,2.9c-0.8,0.4-1.6,0.9-2.4,1.4l-2.3,1.6c-1.6,1-3.2,2-4.7,3.1l-4.5,3.4c-0.7,0.6-1.5,1.1-2.2,1.7
				l-2.2,1.8c-1.4,1.2-2.9,2.4-4.3,3.6l-4.1,3.8c-0.7,0.6-1.4,1.2-2.1,1.9l-2,2l-4,4l-3.8,4.2l-1.9,2.1l-1.8,2.2
				c-9.7,11.6-18.2,24-25.6,37.1c-14.9,26.2-26.2,54.2-35.9,82.7s-17.5,57.7-24.5,86.9s-13,58.7-18.7,88.3l-4.2,22.2l-4,22.2
				c-2.7,14.8-5.1,29.6-7.5,44.5C9,472.7,4.9,502.5,2,532.5C1,547.5,0.2,562.6,0.2,577.7z"/>
		</g>
		<path class="st7" d="M697.1,162.7"/>
		<path class="st8" d="M705.1,162.7c0.2-4.3-3.8-8-8-8c-4.4,0.1-7.9,3.6-8,8c-0.2,4.3,3.8,8,8,8C701.5,170.7,705,167.1,705.1,162.7z
			"/>
		<line class="st9" x1="107.1" y1="626" x2="107.1" y2="830.3"/>
		<path class="st7" d="M117.2,716.4"/>
		<path class="st8" d="M121.5,716.3L121.5,716.3c0-2.4-1.9-4.3-4.3-4.3c-2.4,0-4.3,1.9-4.3,4.3s1.9,4.3,4.3,4.3
			C119.5,720.6,121.4,718.7,121.5,716.3z"/>
		<path class="st7" d="M98.5,674.5"/>
		<path class="st8" d="M102.8,674.5L102.8,674.5c0-2.4-1.9-4.3-4.3-4.3c-2.4,0-4.3,1.9-4.3,4.3s1.9,4.3,4.3,4.3
			C100.9,678.7,102.8,676.8,102.8,674.5z"/>
		<path class="st1" d="M421,338.7c0.2-5.4-4.8-10-10-10c-5.5,0.1-9.9,4.5-10,10c-0.2,5.4,4.8,10,10,10
			C416.5,348.6,420.9,344.1,421,338.7z"/>
		<path class="st1" d="M560,923.8c6.9,0,12.1-5.6,12.3-12.3c0-3.2-1.3-6.4-3.6-8.7c-2.3-2.3-5.4-3.6-8.7-3.6
			c-6.9,0-12,5.6-12.3,12.3C547.7,918.3,553.2,923.8,560,923.8L560,923.8z"/>
		<path class="st7" d="M177.2,247.6"/>
		<path class="st10" d="M185.7,247.6c0.3-4.7-4-8.6-8.5-8.6c-4.6,0.1-8.4,3.9-8.5,8.6c-0.3,4.7,4,8.6,8.5,8.6
			C181.9,256.1,185.7,252.3,185.7,247.6z"/>
		<path class="st7" d="M107.5,634.8c3.8-0.1,7.3-1.6,10-4.2c1.7-1.7,2.9-3.8,3.6-6.2l0.5-3.8c-0.3-7.8-6.5-14-14.2-14.2
			c-3.7,0.1-7.3,1.6-10,4.2c-1.7,1.7-3,3.8-3.6,6.2l-0.5,3.8C93.5,628.4,99.8,634.6,107.5,634.8L107.5,634.8z"/>
		<path class="st1" d="M548.5,480.1c0.9-0.8,1.4-2,1.4-3.2c-0.1-1.3-0.6-2.4-1.4-3.3l0,0c-1.8-1.8-4.7-1.8-6.5,0
			c-0.9,0.9-1.4,2.1-1.4,3.3c0,0.6,0.1,1.3,0.4,1.8c0.2,0.6,0.6,1.1,1,1.5c0.8,0.9,2,1.4,3.2,1.4S547.6,481.1,548.5,480.1z"/>
		<path class="st1" d="M518.6,481.6c1.2,0,2.4-0.5,3.2-1.4c0.9-0.8,1.4-2,1.4-3.2c0-0.6-0.1-1.3-0.4-1.8c-0.2-0.6-0.6-1.1-1-1.5l0,0
			c-1.8-1.8-4.7-1.8-6.5,0c-0.9,0.9-1.4,2.1-1.4,3.3c0.1,1.2,0.6,2.3,1.4,3.2C516.2,481.1,517.4,481.6,518.6,481.6L518.6,481.6z"/>
		<path class="st1" d="M495.4,480.2c0.9-0.8,1.4-2,1.4-3.2c-0.1-1.3-0.6-2.4-1.4-3.3l0,0c-1.8-1.8-4.7-1.8-6.5,0
			c-0.9,0.9-1.4,2.1-1.4,3.3c0.1,1.2,0.6,2.3,1.4,3.2c0.8,0.9,2,1.4,3.2,1.4S494.4,481.1,495.4,480.2z"/>
		<path class="st7" d="M107.1,714c-10.9-8.6-23.4-28.2-23.4-28.2s16.3,0.7,23.4,15.4V714z"/>
		<path class="st7" d="M105,749.7c10.5-8.2,22.4-27,22.4-27s-15.6,0.8-22.4,14.8V749.7z"/>
		<path class="st7" d="M106,682.7c10.5-8.2,22.4-27,22.4-27s-15.6,0.8-22.4,14.8V682.7z"/>
		<path class="st11" d="M581.4,511.8l-32.3-7.1c-10.6,4.8-22,7.2-33.6,7.1c-32.4,0-58.7-17.6-58.7-39.4s26.3-39.4,58.7-39.4
			s58.7,17.6,58.7,39.4c-0.1,6-2,11.9-5.6,16.8L581.4,511.8z"/>
		<path class="st8" d="M471.2,448.5c-5.5,3.3-9.9,8.1-12.8,13.8c-1.5,2.8-2.6,5.7-3.4,8.8c-0.4,1.5-0.7,3-0.9,4.5
			c-0.2,1.4-0.2,2.9-0.1,4.4c0.6,6,3,11.6,7,16.2c2,2.4,4.3,4.5,6.7,6.4c2.5,1.9,5.1,3.6,7.9,5.1c5.6,3,11.6,5.2,17.8,6.7
			c3.1,0.8,6.2,1.4,9.4,1.8s6.4,0.6,9.6,0.7c6.4,0.1,12.8-0.2,19.2-0.9c6.5-0.8,12.9-2,19.3-3.5l0,0l0.5-0.2l0.4,0.1l35.3,7.6
			l-1.6,2.2l-14-24.4l2.5-1.5l14,24.4l1.6,2.8l-3.2-0.7l-35.3-7.6l0.9-0.1l0,0c-5.8,4-12.2,6.9-19.1,8.6c-6.9,1.7-13.9,2.5-21,2.2
			c-14.1-0.5-28.2-3.7-40.7-10.9c-3.2-1.7-6.1-3.8-8.9-6.1s-5.3-5-7.5-7.9c-2.2-3-4.1-6.2-5.4-9.7c-1.4-3.5-2.1-7.2-2.1-11
			c0-0.5,0-0.9,0-1.4l0.1-1.4c0.1-1,0.3-1.9,0.4-2.8c0.3-1.8,0.8-3.6,1.4-5.3c1.2-3.4,2.8-6.7,4.7-9.7c3.8-6.1,9.3-10.9,15.9-13.8
			L471.2,448.5z"/>
		<path class="st4" d="M569.1,792.3c-5.6,5.1-12,9.2-18.9,12.2c-6.9,3-14.2,5-21.7,6c-15,2-30.2,0.5-44.8-2.8
			c-14.6-3.4-28.9-8.2-42.6-14.3c-13.7-6.1-27-13-39.9-20.7s-25.4-16-37.4-25c-3-2.2-5.9-4.5-8.9-6.8l-4.4-3.4l-1-0.8
			c-0.3-0.2-0.6-0.4-1-0.5c-0.8-0.3-1.6-0.4-2.4-0.3c-1.8,0.1-3.5,0.5-5.2,1.1c-1.8,0.6-3.5,1.3-5.1,2.1c-3.4,1.6-6.6,3.4-9.8,5.3
			c-6.4,3.8-12.6,7.9-18.8,12.1L288.6,769c-6.3,4.1-12.5,8.2-19,12c-6.5,3.9-13.1,7.4-19.9,10.5h-0.1h-0.1c-1.7-0.1-3.3-0.6-4.6-1.6
			c-1.3-0.9-2.4-2-3.4-3.3c-1-1.2-1.8-2.5-2.6-3.9c-0.8-1.3-1.4-2.7-2-4.2l0,0l-0.1-0.2l0.2-0.2c4-4.6,8.3-8.9,12.7-13.1
			c4.4-4.2,8.9-8.3,13.6-12.2c9.4-7.8,19.2-15,29.5-21.5c10.2-6.6,20.9-12.5,32-17.6c5.5-2.7,11.1-5,16.8-7.2l4.3-1.6
			c0.4-0.1,0.6-0.2,1.2-0.4c0.4-0.1,0.8-0.2,1.3-0.2c0.8,0,1.6,0,2.4,0c3.1,0.2,6.2,0.6,9.2,1.1c12,2.1,23.9,4.8,35.7,7.6
			s23.6,5.8,35.4,8.7l35.3,9c5.9,1.5,11.8,3,17.7,4.4c3,0.7,6,1.3,8.9,2s5.9,1.3,8.9,1.8l0.9,0.1l-0.6,0.6l0,0
			c-0.8,0.6-1.4,1.4-2,2.3c-0.5,0.9-1,1.8-1.3,2.8c-0.7,2-0.8,4.1-0.6,6.2c0.5,4.2,2,8.3,4.2,11.9c4.5,7.3,10.4,13.6,17.5,18.4
			c7,4.9,14.9,8.4,23.2,10.3c8.4,1.9,17.1,1.9,25.4,0l0.2,0.8c-8.4,1.9-17.2,1.9-25.7,0s-16.5-5.5-23.6-10.5
			c-7.2-4.9-13.3-11.2-17.8-18.6c-2.3-3.7-3.7-7.9-4.3-12.2c-0.2-2.2,0-4.4,0.6-6.5c0.3-1.1,0.8-2.1,1.4-3c0.7-0.9,1.4-1.7,2.2-2.5
			l0,0l0.2,0.8c-6.1-0.8-12.1-2-18-3.3s-11.9-2.6-17.8-4l-35.4-8.4c-11.8-2.9-23.6-5.7-35.4-8.5c-6-1.4-11.9-2.7-17.8-4
			s-11.8-2.5-17.8-3.5c-3-0.4-6-0.9-8.9-1.1c-0.7,0-1.4,0-2.1,0c-0.3,0-0.6,0-0.9,0.1c-0.1,0-0.6,0.2-0.9,0.3l-4.2,1.6
			c-5.6,2.2-11.2,4.5-16.7,7c-2.8,1.2-5.5,2.5-8.2,3.9s-5.3,2.7-8,4.2c-5.3,2.9-10.6,5.9-15.7,9.1c-10.3,6.4-20.2,13.4-29.6,21
			c-4.7,3.8-9.3,7.7-13.8,11.8s-8.9,8.3-12.9,12.8l0.1-0.4l0,0c0.6,1.4,1.2,2.8,2,4.1c0.7,1.3,1.6,2.6,2.5,3.8
			c0.9,1.2,2,2.2,3.2,3.1c1.2,0.9,2.6,1.4,4.1,1.4l0,0h-0.2c6.7-3.3,13.2-6.9,19.5-10.9c6.3-3.9,12.6-8,18.8-12.2l18.5-12.6
			c6.2-4.2,12.4-8.4,18.8-12.3c3.2-2,6.5-3.8,9.9-5.5c1.8-0.8,3.5-1.6,5.3-2.2c1.8-0.7,3.7-1.1,5.7-1.3c1.1,0,2.2,0.1,3.2,0.4
			c0.5,0.2,1,0.5,1.5,0.8l1.1,0.9l4.4,3.5c3,2.3,5.9,4.6,8.9,6.8c11.9,8.9,24.3,17.2,37.1,24.9c12.8,7.7,26.1,14.6,39.7,20.7
			c13.6,6.1,27.7,10.9,42.2,14.4c14.5,3.3,29.5,4.9,44.3,3c7.3-0.9,14.6-2.8,21.4-5.7c6.9-2.9,13.2-6.9,18.8-11.8L569.1,792.3z"/>
		<path class="st8" d="M520.8,767.1c6.3,5,43,39.6,53.5,13.5c17.5-53,15.8-38.5,31.7-55.5c17.9-22.7,13.7-32.8,4.4-45.6
			c-6-8.3-17.1-6.8-26.1-2.5c-5.8,2.6-11.3,8.1-16.4,15c-6.6,8.7-14.2,16.5-22.7,23.3c-2.5,2.1-5.1,3.9-7.6,5.7
			c1-0.3,2.1-0.6,3.2-0.9c0.5-0.9,1.5-1.5,2.6-1.5c0.3,0,0.6,0,0.9,0c0.3-0.1,0.5-0.1,0.8-0.1l0,0l0.3-0.1c0.3,0,0.6-0.1,0.9-0.2
			c0.6-0.2,1.1-0.4,1.7-0.6l0.4-0.2c0.2,0,0.2,0,0.2,0c0.1-0.1,0.3-0.1,0.4-0.2c0.2-0.7,0.7-1.3,1.3-1.6c2-0.9,4.1-1.5,6.2-2
			c0.5-0.2,1.1-0.2,1.6,0c0.5-0.7,1.4-1,2.2-1l0,0c1.6-0.8,3.2-1.7,4.7-2.6c0.1,0.2,0.2,0.2,0.4,0.2c0.5,0,0.9-0.1,1.4-0.2
			c0.5-0.5,1.2-0.7,1.8-0.7c0.3-0.2,0.6-0.3,0.9-0.4c0.2-0.2,0.4-0.4,0.5-0.5s0.2-0.1,0.3-0.2c0.4-0.1,0.8-0.2,1.2-0.4
			c0.2-0.1,0.5-0.3,0.7-0.4c0.6-0.1,1.3-0.2,2-0.3c0.6-0.1,1.2-0.4,1.6-0.9l3,0.9c-0.1,0.1-0.1,0.3,0,0.4c0.2,0.4,0.5,0.8,0.9,1.2
			l0,0c0.3-0.2,0.6-0.3,0.9-0.4l0,0c-0.1,1.3,1,2.2,1.8,3c0.3,0.4,0.7,0.8,1.1,1.2c0.1,0.1,0.2,0.1,0.3,0.2c-0.5,0.5-1,1.2-1.5,1.7
			c-0.4,0.2-0.7,0.3-1.1,0.5c-0.4,0.1-0.7,0.3-1,0.6c-0.2,0.1-0.3,0.2-0.5,0.2c-0.4,0.1-0.9,0.3-1.2,0.7l0,0c-0.2,0-0.3,0-0.4,0
			c-0.4,0.2-0.9,0.3-1.3,0.3h-0.5h-0.1c-5.1,3.5-10.9,5.5-16.7,7c0.2,1.9-21.1,7.5-21.6,7.3c-0.2,0.3-0.5,0.6-0.8,0.8
			c-1.9,1.7-18.7,3.6-18.9,3.3c-4.7-0.3-4.8,1.1-5.7,0.9c-1.5,1-2.6,2.3-3.4,3.8C505,748.4,512.6,761,520.8,767.1z"/>
		<path class="st12" d="M582.3,697.9c7.5-1.8,22.5-22.9,25.5-12.6c5.5,7.5-6.4,29.5-14.5,32.7c-1.1,0.6-2.8-0.2-3.5-1.5
			c-3.6-6.7-6.5-12.6-8.6-16.7C580.8,699.1,581.3,698.3,582.3,697.9z"/>
		<path class="st8" d="M615,669.2c24.3,9.2,29.7-10.7,29.7-10.7s-3.5,12.3-24.2,2.6L615,669.2z"/>
		<circle class="st7" cx="608.4" cy="613.6" r="3.2"/>
		<path class="st8" d="M614.5,597.7c3.8-0.2,8.9,3.5,11.1,5.3c0.3,0.3,1,0.2,0.9-0.2c-1.2-5.2-12.6-8.9-15.9-7
			C610.6,595.8,609.6,597.9,614.5,597.7z"/>
		<path class="st4" d="M642.1,666.5c-0.9,0.6-1.8,1.4-2.5,2.2c-0.7,0.9-1.5,1.7-2.2,2.6c-1.4,1.7-2.9,3.5-4.3,5.3
			c-1.4,1.8-2.7,3.7-4,5.6c-0.6,0.9-1.2,1.9-1.8,2.9c-0.3,0.5-0.6,1-0.8,1.5c-0.1,0.3-0.2,0.6-0.3,0.8c0,0.1-0.1,0.2-0.1,0.3
			s0,0.1,0,0.1l0,0v-0.1c-0.1-0.4-0.4-0.7-0.8-0.7l-0.1,1.7c-0.5,0-0.9-0.3-0.9-0.8c0,0,0-0.1,0-0.2v-0.1c0-0.1,0.1-0.2,0.1-0.3
			c0.1-0.2,0.1-0.2,0.2-0.5c0.1-0.3,0.3-0.5,0.4-0.8c0.3-0.5,0.6-1,0.9-1.5c0.6-1,1.2-2,1.8-3c1.2-2,2.5-4,3.8-5.9s2.8-3.8,4.4-5.5
			c0.8-0.9,1.7-1.7,2.6-2.4c1-0.8,2.1-1.4,3.3-1.7L642.1,666.5z"/>
		<path class="st4" d="M621,661.4c-0.5,0.5-1.1,1.1-1.6,1.8s-1,1.3-1.5,2c-1,1.3-1.9,2.7-2.8,4.1c-0.9,1.4-1.7,2.8-2.6,4.2l-1.3,2.1
			c-0.4,0.7-0.8,1.4-1.1,2.1l-1.1-0.5c0.2-0.4,0.4-0.7,0.7-1.1l0.7-1l1.4-2c0.9-1.4,1.9-2.8,2.8-4.1c0.9-1.3,1.8-2.7,2.7-4.1
			c0.5-0.7,0.8-1.5,1.3-2.2s0.9-1.3,1.5-2L621,661.4z"/>
		<path class="st4" d="M513.1,731.5c-1.6,0.7-3.1,1.5-4.5,2.4c-1.4,0.8-2.7,1.9-3.7,3.2c-2,2.6-2.5,6.1-2.3,9.4
			c0.2,3.4,1,6.7,2.2,9.8c1.3,3.1,2.8,6.2,4.6,9c1.8,2.9,3.8,5.6,6.1,8.1c1.1,1.2,2.3,2.5,3.5,3.6c1.2,1.1,2.6,2.2,3.9,3.2
			c5.4,4,11.4,7.3,17.7,9.6c3.2,1.2,6.4,2.1,9.7,2.7s6.6,0.8,9.9,0.5c3.2-0.2,6.3-1.3,9-3.1c2.7-1.7,4.9-4.1,6.5-6.9
			c1.6-2.8,2.5-6,2.9-9.2c0.5-3.4,1.3-6.8,2.4-10.1c2.1-6.6,5.2-12.9,9.1-18.7c3.8-5.7,8.4-11,13.4-15.8c2.4-2.4,5.1-4.7,7.5-6.9
			c0.6-0.5,1-1,1.4-1.6c0.5-0.6,1-1.3,1.4-2c0.9-1.4,1.8-2.8,2.6-4.2c1.7-2.8,3.1-5.7,4.2-8.8c1.1-2.9,1.6-6.1,1.7-9.2
			c0-3.1-0.6-6.1-1.9-8.9c-1.4-2.9-3.2-5.5-5.4-7.8c-1.1-1.2-2.3-2.4-3.5-3.5c-1.1-1.1-2.4-2-3.7-2.8c-2.7-1.6-5.7-2.6-8.8-3
			c-3.1-0.4-6.4-0.2-9.5,0.6c-3.1,0.8-6.2,2-9,3.7c-1.4,0.8-2.8,1.7-4.1,2.7c-1.5,1.1-3.1,1.9-4.8,2.5c-3.3,1.2-6.7,1.6-9.4,3.4
			c-2.7,1.8-3.9,5.1-4.3,8.3c-0.2,1.7-0.2,3.3-0.2,5c0,0.8,0.1,1.7,0.1,2.5c-0.1,1,0.2,1.9,0.9,2.5l-2.4,0.3
			c0.5-0.7,0.6-1.7,0.4-2.6c-0.1-0.9-0.2-1.7-0.2-2.6c-0.1-1.8-0.1-3.5,0.1-5.2c0.2-1.7,0.6-3.5,1.3-5.1c0.8-1.6,1.9-3.1,3.4-4.2
			c1.5-1,3.1-1.8,4.8-2.3s3.3-1,4.8-1.6c1.5-0.6,2.9-1.4,4.1-2.4c1.4-1.1,2.8-2.1,4.2-3.1c2.9-1.9,6.1-3.5,9.5-4.5
			c3.5-1,7.1-1.4,10.7-1.2c3.7,0.2,7.3,1.3,10.5,3c1.6,0.9,3.1,2,4.5,3.2c1.2,1.1,2.6,2.3,3.8,3.6c2.6,2.5,4.7,5.5,6.3,8.8
			c1.6,3.4,2.4,7.1,2.4,10.8c-0.1,3.6-0.8,7.3-2,10.7c-1.2,3.4-2.8,6.6-4.6,9.6c-0.9,1.5-1.8,3-2.8,4.4c-0.5,0.7-1,1.4-1.5,2.1
			l-0.4,0.5l-0.2,0.3l-0.3,0.4c-0.4,0.4-0.7,0.8-1.1,1.1c-1.3,1.2-2.6,2.2-3.9,3.4c-1.3,1.2-2.6,2.3-3.8,3.4
			c-4.9,4.5-9.4,9.5-13.3,14.9c-3.9,5.4-7,11.3-9.2,17.6c-1.1,3.1-2,6.3-2.6,9.6c-0.5,3.6-1.7,7-3.4,10.1c-1.8,3.1-4.4,5.8-7.4,7.7
			c-1.5,1-3.2,1.8-4.9,2.3c-1.7,0.5-3.5,0.8-5.3,0.9c-3.5,0.2-7-0.1-10.4-0.9c-3.4-0.7-6.7-1.7-9.9-3c-6.4-2.6-12.4-6-17.8-10.2
			c-1.3-1-2.7-2.1-3.9-3.3s-2.4-2.4-3.5-3.7c-2.2-2.5-4.3-5.3-6.1-8.2c-1.8-2.9-3.4-6-4.6-9.2c-1.3-3.2-2.1-6.6-2.4-10
			c-0.1-1.7,0-3.5,0.3-5.2c0.3-1.8,1-3.4,2-4.9c1.1-1.5,2.3-2.7,3.7-3.8c1.3-1.1,2.7-2.1,4.1-3.2L513.1,731.5z"/>
		<path class="st4" d="M557.9,702.5c-2.1,3.3-5,5.5-7.9,7.7c-2.9,2.2-5.9,4.4-8.9,6.4c-3.1,2-6.2,3.8-9.5,5.5
			c-1.6,0.8-3.3,1.4-5,2.1c-0.8,0.3-1.7,0.6-2.5,1c-0.5,0.1-0.9,0.3-1.3,0.5l-0.6,0.3l-0.5,0c-0.1,0.1-0.2,0-0.1,0.5l-0.6-1.1
			c0.4,0.4,0.4,0.2,0.5,0.2l0.3-0.2l0.6-0.4c0.4-0.2,0.8-0.5,1.2-0.7c0.8-0.5,1.5-1,2.3-1.5c1.5-1,3-2,4.6-2.9
			c3.2-1.8,6.4-3.4,9.7-5s6.5-3.3,9.5-5.3c1.5-1,2.9-2.2,4.2-3.4s2.3-2.7,2.9-4.4L557.9,702.5z"/>
		<path class="st4" d="M575,698.5c1-0.8,2.1-1.5,3.1-2.2c2.1-1.4,4.2-2.8,6.3-4.1c4.2-2.7,8.7-5.1,13.2-7.3c2.3-1.1,4.7-2,7.1-2.7
			c1.3-0.3,2.6-0.6,3.9-0.7c1.4-0.2,2.8,0,4.1,0.5c0.7,0.3,1.3,0.7,1.8,1.3c0.3,0.3,0.5,0.6,0.7,0.9c0.2,0.3,0.3,0.7,0.5,1
			c0.4,1.4,0.5,2.8,0.3,4.2c-0.4,2.6-1.3,5.1-2.6,7.4c-2.4,4.5-5.3,8.7-8.6,12.6c-3.1,3.9-6.6,7.6-10.1,11.2l-1.3,1.3l-0.3,0.3
			c-0.1,0.1-0.2,0.2-0.4,0.4c-1.1,0.9-2.7,1.1-4.1,0.5c-0.5-0.2-0.9-0.5-1.2-0.9c-0.1-0.1-0.3-0.3-0.4-0.5l-0.3-0.4
			c-1.4-2.1-2.7-4.3-4-6.4c-2.7-4.2-5.3-8.5-8.2-12.6C573.6,701,573.8,699.3,575,698.5z M575.2,701.8c2.9,4.1,6,8,9,12
			c1.6,2,3.1,4,4.6,6l0.3,0.4c0.1,0.1,0.1,0.1,0.2,0.2c0.1,0.1,0.3,0.1,0.4,0.2c0.2,0.1,0.5,0.1,0.8,0c0.2,0,0.3-0.1,0.4-0.2
			l0.3-0.2l0.3-0.3l1.3-1.3c3.5-3.5,6.9-7.2,10.1-11c3.2-3.7,6.1-7.7,8.6-12c1.2-2,2.1-4.3,2.6-6.6c0.2-1,0.2-2.1-0.1-3.2
			c-0.3-1-1-1.8-1.9-2.2c-1.1-0.4-2.2-0.6-3.3-0.5c-1.2,0-2.4,0.2-3.6,0.5c-2.4,0.6-4.7,1.4-7,2.4c-4.5,2-8.9,4.3-13.2,6.9
			c-2.1,1.3-4.2,2.6-6.3,4c-1.1,0.7-2.1,1.4-3.1,2.1C574.8,699.7,574.6,700.9,575.2,701.8L575.2,701.8z"/>
		<path class="st4" d="M568,791.8l-3.1,1.2c-1.1,0.4-2.1,0.7-3.2,0.9s-2.2,0.3-3.3,0.5c-4.4,0.5-8.9,0.2-13.2-0.8
			c-8.6-2.1-16.7-6.1-23.5-11.7c-7-5.4-12.7-12.4-16.5-20.4c-1.9-4-3-8.4-3.2-12.8c-0.2-4.4,0.8-8.9,3-12.8l0.6,0.5l0,0
			c-1.8,1.5-3.3,3.3-4.5,5.3c-1.2,2-2,4.1-2.3,6.4c-0.4,4.6,0.4,9.2,2.5,13.3c2.1,4.1,4.7,8,7.9,11.4c3.2,3.5,6.6,6.6,10.4,9.4
			c7.4,5.7,15.9,9.8,24.9,12.2c2.2,0.5,4.5,0.9,6.8,1.1c2.2,0.2,4.5,0.2,6.8-0.1c2.3-0.3,4.5-1,6.6-1.9c1-0.5,2-1.1,3-1.7
			c0.5-0.3,0.9-0.7,1.4-1c0.1-0.1,0.3-0.3,0.5-0.3c0.3-0.1,0.6-0.2,0.8-0.3C569.6,790.8,568.8,791.3,568,791.8z M571.1,789.7
			c-0.2,0.2-0.3,0.6-0.5,0.7c-0.3,0.4-0.5,0.7-0.8,1c-0.4,0.5-0.8,0.9-1.3,1.3c-0.9,0.9-1.9,1.6-3,2.2c-2.2,1.2-4.5,2.1-7,2.6
			c-4.9,0.9-9.9,0.7-14.7-0.4c-4.7-1.1-9.3-2.8-13.7-5c-4.3-2.2-8.4-4.7-12.3-7.7c-3.8-3-7.4-6.3-10.6-10c-3.2-3.7-5.9-7.8-7.9-12.3
			c-1.9-4.5-3-9.6-2-14.5c0.5-2.4,1.4-4.7,2.8-6.8c1.4-2,3.1-3.7,5.1-5.2l0,0c0.2-0.1,0.3-0.1,0.5,0s0.3,0.4,0.2,0.6l0,0
			c-2.1,3.8-3.1,8.1-2.9,12.4s1.3,8.6,3.1,12.5c3.8,7.9,9.3,14.7,16.2,20.1c6.8,5.5,14.7,9.5,23.2,11.5c4.2,1,8.6,1.2,12.9,0.8
			c1.1-0.2,2.2-0.2,3.2-0.5s2.1-0.5,3.1-0.8l3-1.2C568.8,790.5,569.9,790.1,571.1,789.7L571.1,789.7z"/>
		<path class="st4" d="M617.7,610.8c-0.1-0.7-0.4-1.5-0.8-2.1c-1-1.3-2.3-2.3-3.8-2.8c-1.5-0.6-3.2-0.6-4.6,0.2
			c-1.3,0.9-2.2,2.3-2.5,3.9c-0.4,1.6-0.3,3.3,0.2,4.8c0.4,1.6,1.8,2.7,3.4,2.8c1.6,0.1,3.2-0.2,4.6-1c1.4-0.7,2.5-1.9,3.1-3.4
			C617.6,612.5,617.7,611.7,617.7,610.8z M614.5,617.2c-1.5,0.8-3.3,1.2-5,1c-0.9-0.1-1.7-0.4-2.4-1c-0.7-0.6-1.2-1.4-1.5-2.2
			c-0.6-1.7-0.7-3.4-0.2-5.1c0.3-1.7,1.3-3.3,2.7-4.3c0.7-0.4,1.6-0.7,2.5-0.7c0.9,0,1.8,0.1,2.6,0.4c1.7,0.6,3.2,1.6,4.2,3
			c0.5,0.8,0.9,1.6,1,2.5c0.1,0.9,0,1.9-0.3,2.7C617.4,615.1,616.2,616.4,614.5,617.2z"/>
		<path class="st4" d="M648.1,668.1c-0.1-0.5-0.5-1-1-1.3s-1-0.5-1.5-0.6c-1-0.2-2.1-0.1-3,0.3c-1,0.5-1.8,1-2.6,1.7
			s-1.5,1.4-2.3,2.2l-0.8-0.7c0.3-0.5,0.6-0.9,1.1-1.3s0.8-0.9,1.3-1.2c0.9-0.8,1.9-1.4,3-1.8c1.2-0.5,2.4-0.4,3.5,0.2
			c0.5,0.3,0.9,0.6,1.4,0.9c0.5,0.4,1,0.7,1.6,0.7L648.1,668.1z"/>
		<path class="st4" d="M637.6,667.1c-1.4,0.3-2.7,0.6-4.1,0.7c-2.7,0.2-5.5,0.3-8.2,0.2c-5.5-0.3-10.9-1-16.3-2.2
			c-2.7-0.6-5.3-1.4-7.9-2.4c-1.3-0.5-2.5-1.1-3.7-1.8c-1.3-0.7-2.4-1.6-3.3-2.7c-0.4-0.5-0.8-1.2-1-1.9s-0.4-1.3-0.5-2
			c-0.1-1.4-0.2-2.8-0.2-4.2c0.1-2.8,0.3-5.5,0.7-8.2c0.8-5.4,2-10.7,3.4-16c1.4-5.3,3-10.5,4.8-15.7s3.7-10.3,5.9-15.3
			c1.1-2.5,2.3-5,3.6-7.4c1.2-2.6,2.9-4.9,4.9-6.8l0.7,0.9c-1.9,1.9-3.5,4-4.7,6.4c-1.3,2.4-2.5,4.8-3.6,7.3c-2.3,5-4.2,10.1-6,15.2
			s-3.4,10.3-4.8,15.6c-1.4,5.3-2.6,10.6-3.4,16c-0.4,2.7-0.6,5.4-0.7,8.1c-0.1,0.7-0.1,1.3,0,2c0,0.7,0.1,1.3,0.2,2
			c0.2,1.3,0.6,2.6,1.4,3.6c1.7,1.9,4.2,3.1,6.7,4.1c2.6,0.9,5.2,1.7,7.8,2.2c5.3,1.1,10.7,1.8,16.1,2c2.7,0.1,5.4,0.2,8.1,0.1
			c1.3,0,2.7-0.1,4-0.3c1.3-0.1,2.7-0.5,3.9-1C640.3,666.3,639,666.9,637.6,667.1z"/>
		<path class="st13" d="M597.3,622.5c-3.1-1.2-6.2-5-8.9,2.3c-1.1,3.2,3.3,9.1,6.4,10.2"/>
		
			<ellipse transform="matrix(0.344 -0.939 0.939 0.344 -175.8507 967.0917)" class="st14" cx="604.2" cy="609.4" rx="11.3" ry="2.8"/>
		<path class="st4" d="M607.8,604.5c0.2-1,0.5-1.9,0.6-2.9c0-0.5,0-0.9,0-1.4c0-0.4-0.1-0.7-0.4-1c-0.2-0.1-0.6,0.1-1,0.4
			c-0.4,0.4-0.7,0.7-1,1.1c-0.6,0.8-1.1,1.6-1.6,2.5c-0.9,1.8-1.7,3.6-2.3,5.5c-0.6,1.8-1.2,3.8-1.6,5.7c-0.2,0.9-0.3,1.9-0.4,2.9
			c0,0.5,0,0.9,0.1,1.4c0.1,0.3,0.2,0.6,0.4,0.8c0.2-0.1,0.5-0.3,0.7-0.5c0.4-0.4,0.7-0.7,0.9-1.1c0.5-0.8,1-1.6,1.4-2.5
			c0.8-1.8,1.5-3.7,2.2-5.5C606.4,608.1,607.2,606.2,607.8,604.5z M605.2,616.4c-0.6,0.9-1.2,1.7-1.9,2.5c-0.4,0.5-0.8,0.8-1.2,1.2
			c-0.3,0.2-0.5,0.4-0.8,0.5c-0.4,0.2-0.8,0.2-1.2,0.1c-0.4-0.1-0.6-0.4-0.8-0.8c-0.1-0.3-0.2-0.6-0.2-0.9c-0.1-0.5-0.1-1.1,0-1.6
			c0-1.1,0.2-2.1,0.4-3.1c0.4-2,1-4,1.7-5.9s1.6-3.7,2.6-5.5c0.5-0.9,1.1-1.8,1.7-2.6c0.3-0.5,0.6-0.8,1-1.2
			c0.2-0.2,0.4-0.4,0.7-0.5c0.3-0.2,0.7-0.2,1-0.1c0.3,0.1,0.6,0.4,0.7,0.7c0.2,0.2,0.3,0.5,0.3,0.8c0.1,0.5,0.2,1.1,0.2,1.6
			c0.1,1,0,2.1-0.1,3.1c-0.3,2-0.7,4.1-1.4,6C607.2,612.7,606.3,614.5,605.2,616.4z"/>
		<path class="st8" d="M616.1,564c0.2-6.2,3.2-10.9,8.3-14.3c-5,1.8-9.4,3.7-11.5,9c-3,7.5-0.4,13.6,5.3,18.9"/>
		<path class="st15" d="M618.2,577.4c-1.2-1-2.3-2-3.3-3.2s-1.9-2.5-2.5-3.9c-0.6-1.4-1.1-2.9-1.2-4.5c-0.2-1.5,0-3.1,0.4-4.6
			c0.8-2.9,2.4-5.7,4.6-7.8c2.3-2,5-3.5,7.9-4.5l4.6-1.8l-4,2.8c-2.4,1.6-4.4,3.6-5.9,5.9c-0.8,1.2-1.4,2.5-1.8,3.8
			c-0.4,1.4-0.7,2.8-0.9,4.2H616c-0.1-1.4,0-2.9,0.3-4.3c0.4-1.4,0.9-2.8,1.6-4.1s1.6-2.5,2.7-3.5c1.1-1,2.2-1.9,3.5-2.7l0.5,1
			c-2.8,1.1-5.6,2-8,3.8c-1.2,0.9-2.1,2.1-2.8,3.4c-0.6,1.3-1.1,2.7-1.3,4.2c-0.5,2.9-0.2,5.9,0.9,8.6c1.2,2.7,2.8,5.2,4.9,7.4
			L618.2,577.4z"/>
		<path class="st8" d="M629.7,583.7c-3.7-0.2,0.6,1.4-4.7,0.9s-15.8-7.8-13.8-15.9c1.4,2.8,3.6,5.3,5.6,7.8"/>
		<path class="st15" d="M617,576.6c-1.1-1.1-2.3-2.3-3.3-3.5c-1.1-1.2-2-2.6-2.7-4.1l0.9-0.1c-0.1,0.6-0.3,1.1-0.3,1.7
			c-0.1,0.6-0.1,1.1,0,1.7l0.1,0.9c0.1,0.3,0.2,0.5,0.3,0.8c0.1,0.6,0.4,1.1,0.7,1.6c1.3,2,2.9,3.7,4.8,5c0.9,0.6,1.9,1.3,2.9,1.8
			c0.5,0.3,1,0.6,1.5,0.8s1.1,0.4,1.6,0.6l0.8,0.3l0.8,0.1c0.6,0.1,1.1,0.1,1.7,0.2c0.3,0,0.5,0,0.8,0c0.3-0.1,0.1,0.2,0.3-0.4
			c0.1-0.2,0.2-0.2,0.3-0.3c0.1-0.1,0.2-0.1,0.3-0.1c0.2,0,0.3,0,0.5,0c0.3,0,0.6,0,0.9,0.1v0.1c-0.3,0-0.6,0.1-0.9,0.1
			c-0.3,0-0.7,0.1-0.6,0.2c0,0.2,0,0.4-0.1,0.5c-0.2,0.2-0.4,0.4-0.6,0.4c-0.3,0-0.7,0.1-1,0.1c-0.6,0-1.2,0-1.8,0L624,585l-0.9-0.2
			c-2.4-0.7-4.5-1.9-6.4-3.5c-1.9-1.6-3.4-3.5-4.5-5.7c-0.3-0.6-0.5-1.1-0.7-1.7l-0.3-0.8l-0.2-0.9c-0.2-0.6-0.3-1.2-0.3-1.8
			c0-0.7,0-1.3,0.1-1.9l0.1-1.6l0.8,1.5c0.7,1.4,1.6,2.7,2.5,4c0.9,1.3,1.9,2.6,2.7,4L617,576.6z"/>
		<path class="st8" d="M628.6,561.1c-0.4-4,0.9-6.3,4.1-8.5c3.4,3.6,2.4,5.4,8.5,6.1s15.7,2.1,22.4,3.4c-4-1.5-8.8-2.4-11.2-6.4
			c9.2,5.8,23.1,3.6,32.3,8.6s11.4,11.4,13.2,20.7c3-0.1,6.1-0.5,9.1-1.3c-1.6,2.7-3.7,3.7-6.7,4.2c3.5,0.5,5.7,2.3,8.1,4.7
			c-1.1-0.3-5.2,0.2-5-1.3c7.4,8.2,11.1,16.4,11.2,27.5c-0.7-2.3-1.1-4.7-3.4-5.9c2.7,7.2-0.3,13.8-4.4,19.4
			c-4.1,5.6-6.8,10.1-8.7,16.6c-1.5-2.3-1.1-3.9,0.9-5.7c-6.4,6-13.3,9.7-14.2,19.1c2.7,7,6,13,12.4,17c-6.3-1.7-10.2-7-14-11.9
			c1.1,4.6,3.8,10,5.6,13.9c1.8,3.9,3.1,4.7,6.8,5.6c-9.1,4.5-17.4,5.6-25.6-1.3c4.9,4.7,10.1,6.3,16.8,5.8
			c-15.8,3-28-4.3-37.4-16.7c-0.7,2.3-1.3,4.6-1.7,7c-2-4.5-2.3-8.9-5-13.4c-2.7-4.5,3-21.8,6.3-22.1c6.7-0.7,6.8,0.2,9.3-4.2
			s0.7-8-1.5-11.3c-1.6-2.5-3.7-2-4.9,0.1c0.9-5.9,4.5-8.9,6.1-15c1.5-6.4-1.2-13-6.6-16.7c1.2,3.5,0.9,6.8,0,10.5
			c-0.7-6.6-4-8.5-8.7-13.1s-7.5-11.7-5.1-18.4c-8,1-6.5,9.5-15.7,2.1c-8.9-7.2-6.4-22.1,4-28.9c0.3-0.2,0.7-0.8,1.2-0.9
			C625,554.7,624.4,558.1,628.6,561.1z"/>
		<path class="st15" d="M626.6,553.1c-0.3,0.9-0.5,1.9-0.4,2.9c0.1,1,0.4,1.9,1,2.7c0.6,0.8,1.3,1.5,2.1,2l-0.6,0.3
			c-0.2-1.7,0-3.5,0.7-5.1c0.8-1.5,2-2.9,3.5-3.8c0.2-0.2,0.4-0.2,0.6,0l0,0c0.9,1.1,1.8,2.2,2.6,3.4c0.3,0.6,0.8,1,1.3,1.4
			c0.6,0.4,1.2,0.6,1.8,0.8c1.4,0.3,2.7,0.6,4.1,0.7l4.2,0.6c2.7,0.4,5.5,0.8,8.3,1.3c2.8,0.5,5.5,1,8.3,1.5l-0.1,0.6
			c-2.1-0.8-4.2-1.3-6.3-2.2c-1.1-0.5-2.1-1-3-1.7c-0.9-0.7-1.7-1.6-2.3-2.6c-0.1-0.1-0.1-0.3,0-0.5c0.2-0.3,0.5-0.3,0.7-0.2l0,0
			c4.1,2.5,9.1,3.5,13.9,4.2s9.8,1.2,14.6,2.7c2.4,0.8,4.6,2,6.7,3.4c2.2,1.4,4,3.1,5.5,5.2s2.6,4.4,3.4,6.8
			c0.7,2.4,1.3,4.8,1.8,7.3l-0.6-0.5c1.5,0,3-0.2,4.5-0.5s2.9-0.6,4.4-1c0.2-0.1,0.5,0,0.7,0.1c0.4,0.3,0.6,0.9,0.3,1.3
			c-0.4,0.7-0.9,1.3-1.4,1.8c-0.6,0.6-1.2,1-1.9,1.4c-1.3,0.7-2.7,1.1-4.2,1.2v-1.2c1.6,0.3,3.2,0.9,4.6,1.8c1.3,0.9,2.6,2,3.7,3.2
			c0.1,0.1,0.1,0.3,0.1,0.5c-0.1,0.3-0.4,0.6-0.7,0.5l0,0c-0.5-0.1-0.9-0.1-1.3-0.1l-1.4-0.1c-0.5,0-1-0.1-1.5-0.2
			c-0.3-0.1-0.6-0.2-0.8-0.4c-0.3-0.2-0.5-0.7-0.4-1.1l0,0c0.1-0.1,0.1-0.2,0.2-0.3c0.2-0.2,0.6-0.2,0.8,0c3.5,3.8,6.3,8.1,8.4,12.8
			c1.9,4.8,2.9,9.9,2.9,15.1c0,0.2-0.2,0.4-0.4,0.5c-0.3,0.1-0.6-0.1-0.7-0.4c-0.3-1.1-0.6-2.2-1.1-3.2c-0.4-1-1.2-1.8-2.1-2.3
			l0.9-0.8c1.2,3.2,1.4,6.8,0.5,10.1c-1,3.2-2.5,6.3-4.5,9c-1.9,2.6-3.8,5.4-5.4,8.2c-1.6,2.9-2.8,5.9-3.8,9l0,0
			c0,0.1-0.1,0.2-0.2,0.3c-0.2,0.1-0.5,0-0.7-0.2c-0.3-0.5-0.6-1-0.8-1.6s-0.2-1.2-0.1-1.8c0.1-0.6,0.3-1.2,0.7-1.7
			c0.3-0.5,0.7-0.9,1.1-1.3c0.2-0.2,0.5-0.2,0.7,0s0.2,0.5,0,0.7l0,0c-1.4,1.5-2.9,2.9-4.4,4.3c-1.4,1.4-2.8,2.9-4.1,4.4
			c-1.2,1.4-2.2,3.1-3,4.8s-1.2,3.5-1.4,5.4l-0.1-0.7c1.1,3.2,2.5,6.4,4.1,9.5c0.8,1.6,1.8,3,3,4.3c1.2,1.3,2.5,2.4,4,3.4l0,0
			c0.1,0.1,0.1,0.2,0.1,0.4c0,0.1-0.2,0.3-0.4,0.2c-3.1-1-5.9-2.6-8.3-4.7c-1.2-1-2.3-2.1-3.4-3.3c-1.1-1.1-2-2.4-3-3.6l1.6-0.8
			c0.5,2,1.1,3.9,1.8,5.7c0.6,1.9,1.4,3.7,2.2,5.6c0.7,1.9,1.6,3.7,2.6,5.4c0.6,0.8,1.3,1.5,2.2,1.9c0.9,0.4,1.8,0.8,2.8,1
			c0.1,0,0.2,0,0.2,0.1l0,0c0.1,0.1,0,0.2-0.1,0.3c-4.1,2-8.5,3.7-13.2,3.8c-2.4,0.1-4.7-0.4-6.9-1.2c-2.2-0.9-4.2-2.1-6.1-3.5
			l1-1.1l0,0c1.8,2.4,4.4,4.2,7.2,5.2c2.9,0.9,6,1.3,9,1c0.1,0,0.2,0.1,0.2,0.2c0.1,0.1,0,0.2-0.1,0.2c-3.6,0.7-7.3,0.9-10.9,0.5
			c-3.6-0.5-7.1-1.5-10.4-3.1s-6.3-3.7-9-6.1c-2.8-2.4-5.2-5.1-7.4-8l0.4-0.1c-0.7,2.2-1.3,4.6-1.7,6.9c-0.1,0.1-0.1,0.2-0.2,0.2
			l0,0c-0.2,0.1-0.3,0-0.4-0.1c-1.2-2.6-1.8-5.4-2.7-8.1c-0.4-1.4-1-2.7-1.6-3.9c-0.3-0.7-0.7-1.2-1-1.9s-0.5-1.4-0.6-2.2
			c-0.1-2.9,0.3-5.7,1.1-8.5c0.7-2.8,1.7-5.5,3-8c0.3-0.7,0.7-1.3,1.1-1.9c0.4-0.6,1-1.2,1.7-1.5c0.2-0.1,0.3-0.1,0.4-0.1h0.3
			l0.5-0.1l1.1-0.1l2.1-0.2c0.7,0,1.3-0.1,2-0.3c0.6-0.2,1.1-0.6,1.5-1.1s0.8-1.1,1.1-1.7s0.6-1.2,0.9-1.8c0.5-1.2,0.7-2.6,0.5-3.9
			s-0.7-2.6-1.4-3.8c-0.3-0.6-0.7-1.2-1.1-1.8c-0.3-0.5-0.8-1-1.3-1.3s-1.1-0.3-1.6,0c-0.6,0.3-1,0.8-1.3,1.3
			c-0.1,0.1-0.3,0.2-0.5,0.2c-0.2-0.1-0.4-0.3-0.4-0.6c0.6-2.9,1.7-5.7,3.3-8.3c1.5-2.5,2.5-5.2,3.1-8c0.4-2.8,0-5.7-1.2-8.3
			c-1.2-2.6-3-4.9-5.4-6.5l0.7-0.5c0.6,1.7,0.9,3.6,0.8,5.4c-0.1,1.8-0.4,3.6-0.8,5.3c-0.1,0.1-0.2,0.3-0.4,0.3
			c-0.3,0-0.5-0.2-0.5-0.4c-0.1-1.5-0.4-2.9-1-4.3c-0.6-1.4-1.4-2.6-2.4-3.7c-2-2.2-4.5-4.1-6.5-6.4c-2-2.4-3.4-5.2-4.2-8.2
			c-0.8-3.1-0.6-6.3,0.4-9.2l0.4,0.4c-1,0.1-2.1,0.4-3,0.9c-0.9,0.5-1.8,1.2-2.5,2c-0.8,0.9-1.8,1.6-2.8,2.2
			c-1.2,0.5-2.6,0.5-3.8-0.1c-1.1-0.5-2.1-1.1-3-1.8c-0.9-0.7-1.8-1.5-2.6-2.3c-1.6-1.7-2.7-3.8-3.4-6c-0.6-2.2-0.8-4.5-0.5-6.8
			c0.3-2.2,1-4.4,2-6.5c1-2,2.3-3.9,3.9-5.5c0.8-0.8,1.7-1.5,2.6-2.2c0.5-0.3,0.9-0.6,1.4-0.9c0.2-0.1,0.4-0.3,0.6-0.5
			c0.1-0.1,0.2-0.2,0.3-0.3l0.2-0.1c0.1,0,0.2,0,0.3,0l0,0C626.8,551.4,626.4,552.3,626.6,553.1z M627.1,550.7c0,0.1,0,0.1-0.1,0.1
			l-0.2,0.1c-0.1,0.1-0.2,0.2-0.3,0.3c-0.2,0.2-0.4,0.4-0.6,0.6c-0.4,0.3-0.9,0.6-1.3,1c-0.9,0.7-1.7,1.5-2.4,2.3s-1.4,1.7-2,2.6
			c-0.6,0.9-1.1,1.9-1.5,2.9c-1.8,4-2.1,8.4-0.9,12.6c0.6,2,1.7,3.9,3.2,5.4c0.7,0.8,1.5,1.5,2.4,2.1c0.9,0.6,1.8,1.1,2.7,1.6
			c0.8,0.5,1.8,0.6,2.7,0.3c1-0.5,1.8-1.1,2.6-1.8c0.9-0.7,1.9-1.4,2.9-1.9s2.1-0.8,3.3-0.9c0.1,0,0.1,0,0.2,0l0,0
			c0.2,0.1,0.3,0.3,0.2,0.5c-1,2.9-1.1,5.9-0.4,8.8c0.7,2.8,2.1,5.5,4.1,7.8c1.9,2.2,4.4,4,6.5,6.3c1.1,1.2,2,2.5,2.6,3.9
			c0.6,1.4,1,2.9,1.1,4.5H651c0.5-1.7,0.7-3.5,0.8-5.2c0.1-1.8-0.1-3.5-0.7-5.1c0-0.1,0-0.3,0.1-0.4c0.1-0.2,0.4-0.2,0.6-0.1
			c2.5,1.8,4.5,4.1,5.8,6.9c1.3,2.8,1.7,5.9,1.3,8.9c-0.5,3-1.6,5.8-3.2,8.4c-1.6,2.4-2.6,5.2-3.2,8l-0.9-0.3c0.4-0.7,1-1.3,1.7-1.7
			c0.8-0.4,1.7-0.4,2.5,0c0.7,0.4,1.3,1,1.7,1.7c0.4,0.6,0.7,1.2,1.1,1.8c0.7,1.2,1.3,2.6,1.5,4.1c0.2,1.5,0,3-0.6,4.4
			c-0.3,0.6-0.6,1.3-1,1.9c-0.3,0.6-0.7,1.2-1.2,1.8s-1.1,1.1-1.9,1.3c-0.7,0.1-1.5,0.3-2.2,0.3l-2.1,0.2l-1.1,0.1h-0.5h-0.3h-1.1
			c-0.6,0.2-1.1,0.7-1.4,1.2c-0.4,0.6-0.8,1.2-1.1,1.8c-1.3,2.5-2.3,5.1-3,7.8c-0.8,2.7-1.2,5.5-1.1,8.3c0,0.7,0.2,1.4,0.4,2
			c0.3,0.5,0.7,1.2,1,1.8c0.7,1.3,1.2,2.6,1.6,4c0.9,2.7,1.5,5.4,2.6,8l-0.5,0.1c0.5-2.4,1-4.7,1.8-7l0.1-0.1c0.1-0.1,0.3-0.1,0.4,0
			c2.1,2.9,4.5,5.6,7.2,8c2.7,2.5,5.7,4.5,8.9,6.1c3.2,1.6,6.7,2.6,10.3,3c3.6,0.4,7.3,0.2,10.8-0.5l0.1,0.4c-3,0.3-6.1-0.1-9.1-1
			c-1.4-0.5-2.9-1.1-4.2-1.9s-2.6-1.7-3.9-2.6l0,0l-0.1-0.1l0,0c-0.3-0.3-0.3-0.8,0-1.1s0.8-0.3,1.1,0l0,0c1.6,1.5,3.5,2.8,5.5,3.7
			s4.3,1.4,6.5,1.4c2.3,0,4.5-0.3,6.7-1c2.1-0.6,4.3-1.5,6.3-2.5v0.4c-1-0.2-2-0.5-2.9-0.9c-1-0.4-1.8-1.1-2.5-1.9
			c-0.6-0.8-1.1-1.7-1.6-2.6l-1.4-2.7c-2-3.6-3.6-7.4-4.7-11.3c-0.1-0.3,0-0.7,0.3-0.9c0.4-0.3,1-0.2,1.3,0.2l2.8,3.7
			c0.9,1.2,1.9,2.4,2.9,3.5c1.1,1.1,2.2,2.1,3.5,3c1.3,0.8,2.7,1.4,4.2,1.8l-0.3,0.7c-3.1-1.8-5.9-4.3-8.2-7.1
			c-2.3-2.8-4.1-6.1-5.4-9.5c-0.1-0.2-0.1-0.5-0.1-0.7c0.2-2.2,0.8-4.4,1.8-6.4s2.4-3.7,4-5.2c1.5-1.4,3.1-2.8,4.8-4
			s3.3-2.5,4.8-3.8l0.7,0.7c-0.8,0.6-1.3,1.5-1.6,2.4c0,1,0.3,2,0.9,2.7l-0.9,0.1c0.9-3.3,2.2-6.4,3.8-9.3c1.7-2.9,3.5-5.6,5.5-8.3
			c1.9-2.6,3.3-5.6,4.2-8.7c0.8-3.1,0.6-6.4-0.5-9.4c-0.1-0.2-0.1-0.3,0-0.5l0,0c0.1-0.3,0.5-0.4,0.8-0.2l0,0
			c1.2,0.7,2.1,1.7,2.6,2.9s0.8,2.3,1.1,3.5l-1.1,0.2c0-5.1-0.9-10-2.8-14.7c-2-4.6-4.8-8.8-8.2-12.5l0.9-0.3c0.1,0.1,0,0,0.1,0.1
			c0.1,0.1,0.2,0.2,0.4,0.2c0.4,0.1,0.8,0.2,1.2,0.2c0.5,0,0.9,0,1.4,0s1,0,1.5,0l-0.5,1c-1-1.1-2.2-2.1-3.5-3
			c-1.3-0.8-2.7-1.3-4.2-1.5c-0.3,0-0.5-0.2-0.5-0.5l0,0c0-0.3,0.2-0.6,0.5-0.6c1.3-0.1,2.5-0.6,3.6-1.3c1-0.8,1.8-1.7,2.4-2.8
			l1.1,1.4c-1.5,0.4-3,0.6-4.6,0.8c-1.5,0.2-3.1,0.2-4.7,0.2l0,0c-0.3,0-0.5-0.2-0.6-0.5c-0.4-2.4-0.9-4.8-1.7-7.1
			c-0.7-2.3-1.8-4.5-3.2-6.5c-1.4-2-3.1-3.7-5.1-5c-1.9-1.4-4.1-2.5-6.4-3.3c-4.6-1.5-9.6-2-14.4-2.7s-9.9-1.7-14.2-4.4l0.7-0.7
			c1.2,1.7,2.8,3.2,4.8,4s4,1.6,6.1,2.3c0.1,0,0.2,0.2,0.2,0.3l0,0c0,0.1-0.1,0.2-0.3,0.2c-5.5-1-11-1.8-16.6-2.5l-4.2-0.5
			c-1.4-0.2-2.8-0.4-4.2-0.7c-0.8-0.2-1.5-0.5-2.1-0.9c-0.6-0.4-1.2-1-1.6-1.6c-0.7-1.2-1.6-2.3-2.5-3.3l0.6,0.1
			c-1.4,0.9-2.5,2-3.3,3.4c-0.6,1.5-0.9,3.1-0.7,4.7l0,0c0,0-0.1,0.1-0.1,0.2c-0.1,0.2-0.3,0.2-0.5,0.1c-0.8-0.6-1.6-1.3-2.2-2.2
			c-0.6-0.9-1-1.9-1-3c0-1,0.1-2,0.5-3c0.3-0.9,0.7-1.8,1.2-2.7l0,0V550.7z"/>
		<path class="st8" d="M658.2,616.4c-3.5,0.7-6.8,2.4-9.4,4.9c0.9-6.7,5.2-11.9,6.8-18.4C658.3,607.2,658.8,611.4,658.2,616.4z"/>
		<path class="st15" d="M658.7,609.3c0.5,2.4,0.5,4.8,0.2,7.2l-0.1,0.4l-0.4,0.1c-3.4,0.8-6.5,2.4-9.1,4.8l-1.2,1.1l0.2-1.6
			c0.6-3.3,1.7-6.5,3.3-9.4c0.7-1.5,1.5-2.9,2.2-4.4s1.3-3,1.8-4.6C657,604.8,658,607,658.7,609.3z M652.4,612.1
			c-1.4,2.9-2.4,6-2.9,9.2l-1-0.5c1.3-1.3,2.8-2.3,4.4-3.2c1.7-0.8,3.4-1.4,5.2-1.8l-0.4,0.5c0.3-2.3,0.4-4.6,0.1-6.9
			c-0.2-1.1-0.4-2.2-0.8-3.3c-0.4-1.1-0.8-2.2-1.4-3.2C654.8,606.1,653.7,609.2,652.4,612.1z"/>
		<path class="st15" d="M636.3,560.5c1.3,2.4,3.1,4.7,5.2,6.5c2.1,1.8,4.6,3.2,7.2,4.2c2.6,1,5.3,1.7,8.1,2.2
			c5.6,1.1,11.3,1.6,16.9,2.8c5.6,1.1,11.1,3,16.1,5.7c-5.1-2.4-10.6-4.1-16.2-5.1c-5.6-1.1-11.3-1.6-16.9-2.6
			c-2.8-0.4-5.6-1.2-8.3-2.2c-5.6-2-10.1-6.1-12.6-11.4c-1.3-2.5-2.2-5.2-2.9-8C633.8,555.3,634.9,557.9,636.3,560.5z"/>
		<path class="st15" d="M650.7,594.4c1.7,1.7,3.4,3.3,5,5c1.7,1.7,3.2,3.6,4.5,5.6c1.3,2.1,2.1,4.4,2.4,6.8s0.3,4.8-0.1,7.2
			c-0.8,4.6-1.9,9.2-3.4,13.7l-0.5-0.2c1.3-4.5,2.3-9.1,3-13.7c0.3-2.3,0.3-4.6,0-6.9c-0.1-1.1-0.4-2.2-0.8-3.3
			c-0.4-1-0.9-2.1-1.5-3c-1.3-1.9-2.8-3.7-4.4-5.3l-4.9-5.1c-3.3-3.3-6.2-7.1-8.7-11.1C644.4,587.6,647.6,591.1,650.7,594.4z"/>
		<path class="st15" d="M703.5,632.4c-2.1,2.6-4.5,4.8-7.1,6.8c-2.6,2-5.3,3.8-7.8,5.8l-1.8,1.5l-1.8,1.6l-1.7,1.7
			c-0.5,0.6-1,1.2-1.5,1.8c-1.8,2.6-2.6,5.7-2.3,8.8c0.3,3.2,1.1,6.3,2.4,9.2c1.3,2.9,2.9,5.7,4.7,8.4s3.8,5.3,5.9,7.8
			c-2.3-2.3-4.5-4.8-6.4-7.4c-2-2.7-3.7-5.5-5.1-8.4c-1.5-3-2.5-6.2-2.8-9.5c-0.4-3.4,0.5-6.9,2.4-9.7c4.2-5.3,9.8-8.8,15-12.6
			c2.6-1.8,5-3.9,7.2-6.3c2.1-2.5,3.8-5.2,5.1-8.2C706.9,626.8,705.4,629.8,703.5,632.4z"/>
		<path class="st15" d="M696.5,589.9c0.2,0.6,0.6,1.2,1.1,1.6c1.1,0.8,2.6,1.4,3.8,2.4c-0.7-0.2-1.5-0.4-2.2-0.7s-1.4-0.6-2.1-1.1
			c-0.7-0.5-1.2-1.2-1.3-2.1c-0.1-0.9,0.1-1.7,0.5-2.4C696.3,588.3,696.4,589.1,696.5,589.9z"/>
		<path class="st15" d="M655.1,653c3.1-3,6.2-5.8,8.5-9.2c0.6-0.9,1.1-1.8,1.5-2.7c0.4-1,0.8-1.9,1.2-2.9c0.7-1.9,1.1-4,1.4-6
			c0.5-4.1,0-8.4-0.1-12.6c1.1,4.1,1.6,8.4,1.5,12.7c-0.2,2.2-0.6,4.3-1.3,6.4c-0.4,1-0.8,2-1.2,3c-0.4,1-1,2-1.6,2.9
			c-1.3,1.8-2.7,3.4-4.3,4.9c-1.6,1.5-3.2,2.8-4.8,4.2c-3.2,2.7-6.5,5.4-9,8.8C648.9,658.8,652,656,655.1,653z"/>
		<path class="st15" d="M668.3,669.9c0.2,3.7,1.1,7.4,2.6,10.8c1.7,3.3,4.5,6,7.9,7.5c3.5,1.4,7.2,2.2,11,2.3
			c-3.8,0.2-7.6-0.5-11.2-1.8c-3.6-1.5-6.6-4.2-8.4-7.7c-1.6-3.5-2.6-7.3-2.8-11.1c-0.1-1.9-0.2-3.8-0.1-5.7c0-1.9,0.2-3.8,0.4-5.7
			C668,662.3,668.1,666.1,668.3,669.9z"/>
		<path class="st15" d="M679.5,583.2c1.6,0.8,3.1,1.7,4.6,2.7c1.4,1.1,2.7,2.3,3.8,3.8c1,1.5,1.9,3,2.6,4.7c0.7,1.6,1.3,3.3,1.8,5
			c0.4,1.8,0.4,3.6,0.1,5.4c-0.2,1.8-0.6,3.5-0.9,5.2c-0.1-3.6,0.9-7.1,0-10.4c-0.9-3.4-2.3-6.6-4.2-9.5c-1-1.4-2.2-2.7-3.6-3.7
			c-1.4-1.1-2.9-2-4.4-2.8c-3.1-1.7-6.1-3.7-8.8-5.9C673.3,579.7,676.4,581.6,679.5,583.2z"/>
		<path class="st15" d="M700.8,605.2c1,2.3,1.6,4.8,1.8,7.3c0.1,2.6-0.3,5.1-1.3,7.5c-1,2.3-2.3,4.5-4,6.3c1.2-2.2,2.1-4.4,2.9-6.7
			c0.7-2.3,1-4.6,0.9-7c-0.1-2.4-0.6-4.7-1.4-7c-0.7-2.3-1.7-4.5-2.6-6.8C698.6,600.8,699.8,602.9,700.8,605.2z"/>
		<path class="st15" d="M624.2,576c-2-2.5-3.3-5.5-3.7-8.6c-0.2-3.1,0.3-6.3,1.6-9.2c1.2-2.8,2.9-5.4,4.9-7.8
			c-1.6,2.6-2.9,5.4-4,8.2c-1,2.8-1.5,5.8-1.2,8.8c0.5,2.9,1.6,5.8,3.3,8.2c1.8,2.5,3.8,4.8,6,6.9
			C628.5,580.7,626.2,578.5,624.2,576z"/>
		<path class="st15" d="M691.7,578.4c-0.5-0.9-1.2-1.7-1.8-2.5c-0.3-0.4-0.6-0.8-0.9-1.2l-1-1.2l-1-1.2l-1.1-1.1
			c-3-2.8-6.4-5.1-10.2-6.7c-3.8-1.7-7.8-2.8-11.7-4.2c-2-0.7-4-1.3-5.9-2.1c-1.9-0.8-3.8-1.6-5.7-2.5c0.9,0.3,1.9,0.7,2.9,1
			s2,0.6,3,0.9c1.9,0.6,3.9,1.2,5.9,1.8c4.1,1.1,8,2.4,11.9,4c3.9,1.7,7.4,4.1,10.3,7.2l1.1,1.2l1,1.2l1,1.2
			c0.3,0.4,0.6,0.9,0.9,1.3c1.1,1.8,2.1,3.6,3,5.5C692.8,580.1,692.2,579.3,691.7,578.4z"/>
		<path class="st15" d="M631.6,570c-0.6-1.9-1.1-3.8-1.3-5.8c-0.1-2,0-4,0.3-6s0.9-3.9,1.6-5.8c0.1-0.1,0.2-0.2,0.3-0.3
			c0.3-0.1,0.7,0,0.8,0.3c1.3,2.9,3.1,5.6,5.3,7.8c2.3,2.2,5.1,3.7,8.2,4.5c3.1,0.7,6.3,0.9,9.5,0.8c3.3-0.1,6.5-0.4,9.7-0.7
			c-3.2,0.5-6.4,1-9.6,1.2c-3.2,0.2-6.5,0.1-9.7-0.6c-3.2-0.7-6.2-2.2-8.7-4.5c-2.3-2.3-4.3-5.1-5.6-8.1h1.1
			c-0.6,1.8-1.1,3.7-1.5,5.6c-0.4,1.9-0.5,3.8-0.4,5.7c0.1,1.9,0.4,3.8,0.9,5.7c0.5,1.9,1.1,3.8,1.8,5.6
			C633.3,573.6,632.5,571.8,631.6,570z"/>
		<path class="st15" d="M636.3,568.6c0.7,2.6,1.7,5,3.1,7.3c1.6,2.2,3.6,3.9,5.9,5.2c2.2,1.4,4.6,2.6,7,3.9l7.1,3.8
			c2.4,1.3,4.8,2.5,7.1,3.9c2.3,1.3,4.6,2.8,6.7,4.5c4.4,3.3,8,7.5,10.5,12.4c2.4,5,3.2,10.5,2.4,16c-0.8,5.3-2.4,10.5-4.8,15.4
			c-2.4,4.9-5.1,9.5-8.1,14c2.8-4.5,5.3-9.3,7.5-14.2c2.2-4.8,3.7-10,4.4-15.3c0.3-2.6,0.3-5.3-0.1-7.9c-0.4-2.6-1.2-5.1-2.4-7.5
			c-2.5-4.7-6-8.7-10.3-11.9c-2.1-1.6-4.3-3.1-6.6-4.5s-4.7-2.7-7-4l-7.1-3.8c-2.3-1.3-4.7-2.5-7-4c-2.4-1.4-4.4-3.2-6-5.5
			c-1.4-2.3-2.4-4.9-3-7.5c-1.4-5.2-2.5-10.5-3.6-15.7C633.4,558.4,634.6,563.7,636.3,568.6z"/>
		<path class="st12" d="M597.3,624.5c-3.1-0.8-4.6-2.1-5.9,2.1c-0.6,1.8,1.8,5.9,4.1,6.3"/>
		<path class="st4" d="M594.6,639.4c-0.2-0.3-0.1-0.8,0.2-1.1l0,0c0.3-0.2,0.8-0.1,1.1,0.2c0.7,1,1.6,1.8,2.7,2.4
			c1.1,0.5,2.4,0.7,3.6,0.5c1.3-0.2,2.5-0.5,3.7-1c1.2-0.5,2.4-1.1,3.6-1.7l0,0h0.1l0,0c0.1,0,0.1,0.1,0.1,0.2
			c-0.1,0.9-0.5,1.7-1.1,2.3c-0.3,0.3-0.8,0.5-1.2,0.5c-0.5,0-0.9-0.1-1.3-0.2l0,0c-0.1,0-0.1-0.1-0.1-0.2s0.1-0.1,0.2-0.1
			c0.3,0.1,0.7,0.2,1.1,0.2c0.4,0,0.7-0.2,1-0.4c0.5-0.6,0.9-1.3,1-2.1l0.3,0.2c-1.1,0.7-2.3,1.4-3.5,2c-1.2,0.7-2.5,1.1-3.8,1.4
			c-1.4,0.3-2.9,0.2-4.2-0.3c-1.4-0.6-2.6-1.4-3.5-2.5V639.4z"/>
		<path class="st12" d="M609.6,621.9c-0.9-0.3-3.3-1.3-3.8,0s2,2.1,2.9,2.4c0.9,0.3,3.3,1.3,3.8,0
			C613,622.9,610.5,622.2,609.6,621.9z"/>
		<path class="st4" d="M659.6,635.9c0.3,1.3,0.4,2.5,0.2,3.8c-0.2,1.2-0.6,2.4-1.3,3.5c-0.6,1.2-1.6,2.1-2.8,2.7
			c-1.2,0.4-2.5,0.6-3.8,0.3c-2.3-0.6-4.6-1.3-6.9-2.1c2.4,0.2,4.7,1,7,1.2c1.1,0.1,2.2-0.1,3.2-0.5c0.9-0.5,1.7-1.3,2.2-2.3
			c1.1-2,1.5-4.3,1.1-6.5c-0.6-2.3-1.4-4.6-2.4-6.7C657.5,631.2,658.7,633.4,659.6,635.9z"/>
		<path class="st13" d="M651.9,639.1c-0.4-0.5-0.9-1.2-1.5-0.8c0.4-0.7,0.7-1.5,1.1-2.2"/>
		<path class="st8" d="M621.5,558.4c-0.8,1.5-1.5,3-2,4.5c-0.5,1.6-0.7,3.2-0.6,4.8c0.1,1.6,0.7,3.1,1.7,4.4c1,1.3,2.1,2.4,3.4,3.4
			c2.6,1.9,5.4,3.6,8.4,5l-0.5,0.9c-3-1.5-5.8-3.3-8.4-5.3c-1.3-1-2.4-2.2-3.4-3.6s-1.6-3-1.7-4.7c-0.1-1.6,0.2-3.3,0.8-4.9
			c0.6-1.6,1.3-3.1,2.2-4.5c1.7-2.8,3.6-5.5,5.7-8C625.1,553,623.2,555.7,621.5,558.4z"/>
		<path class="st4" d="M653.8,626.5c-10.9-17.2-40.5-21.8-44.8-22.4l0,0c-0.3-0.1-0.5-0.3-0.4-0.6c0.2-1.2,0.4-3.5-0.3-4.5v-0.1
			c0-0.1,0.1-0.1,0.2-0.1c3.2,0.3,24.2,3,46.4,25.6L653.8,626.5z"/>
		<path class="st16" d="M350.4,736.1c22.5,4.1,126.3,46,169.6,48.3"/>
		<path class="st16" d="M358.1,742.2c29.1,3.7,91.2,52.5,172.2,48.5"/>
		<path class="st16" d="M383.2,760.2c39.7,21.1,127.5,45.8,159.6,34.9"/>
		<path class="st16" d="M437.7,791c16.9,10.7,91.3,23.1,114.3,6"/>
		<path class="st16" d="M501.1,809.9c29.2,3.9,64-14.8,64-14.8"/>
		<path class="st16" d="M246.6,790.3c36.3-23.8,79.5-48.7,98.2-55.6c38.5-11.2,147.7,41.3,168,43.7"/>
		<path class="st16" d="M240.5,784.4c1.1-1.5,78.5-59.3,110.7-65.9c14.9-3,146.5,36.2,146.5,36.2"/>
		<path class="st16" d="M238.3,780.4c3.2-2.1,51.8-53.3,111.2-68.6c10.9-2.9,149.1,33,149.1,33"/>
		<path class="st4" d="M304.2,764.5c4.3-0.9,8.5-1.7,12.8-2.5l6.4-1.2l6.4-1.1c4.3-0.7,8.6-1.4,12.9-1.9l0,0
			c7.2-0.1,14.5-0.1,21.7,0.3c3.6,0.3,7.2,0.5,10.8,1c1.8,0.2,3.6,0.5,5.4,0.9c1.8,0.3,3.5,0.9,5.1,1.8c-1.6-0.8-3.3-1.4-5.1-1.7
			c-1.8-0.4-3.6-0.6-5.4-0.8c-3.6-0.4-7.2-0.6-10.8-0.7c-7.2-0.2-14.5-0.2-21.7,0l0,0L317,763l-6.4,1.2l-6.4,1
			c-4.3,0.7-8.6,1.4-12.9,2C295.5,766.2,299.9,765.4,304.2,764.5z"/>
		<path class="st4" d="M200,791.9c-0.6-1.1-0.9-2.3-0.9-3.5c0.1-0.6,0.2-1.2,0.5-1.7c0.2-0.6,0.4-1.1,0.5-1.7l0.1-0.2h0.2
			c6.2-1.2,12.4-2.4,18.6-3.7c6.1-1.2,12.3-2.5,18.5-3.8l0.2,0.8c-6.2,1.2-12.4,2.5-18.6,3.7s-12.3,2.5-18.5,3.8l0.3-0.3
			c-0.2,0.5-0.3,1.1-0.2,1.6c0.1,0.5,0.2,1.1,0.2,1.6c-0.1,1,0,2.1-0.1,3.2L200,791.9z"/>
		<path class="st4" d="M472.2,804.4l-17.2-1.7l-17.2-1.8l-34.4-3.8c-11.4-1.3-22.9-2.7-34.3-4.2c-5.8-0.8-11.5-1.4-17.2-2.1l-17.2-2
			h0.1c-3.8,0.6-7.5,0.9-11.3,1.3l-11.3,1l-22.7,1.8l-45.3,3.4l-0.1-0.9l22.7-1.6c7.6-0.5,15.1-1.1,22.7-1.7l22.7-1.8l11.3-1
			c3.7-0.3,7.5-0.7,11.2-1.3h0.1l17.2,1.9c5.7,0.6,11.5,1.3,17.2,1.8c11.5,1.1,22.9,2.2,34.4,3.5l34.3,4l17.1,2.1l17.1,2.2
			L472.2,804.4z"/>
		<path class="st16" d="M201.4,788.9c0,0,15.6-4.3,36.9-8.6"/>
		<path class="st4" d="M362.1,762.1c-8.8,0.2-17.7,0.9-26.4,2.3c-8.8,1.2-17.5,2.5-26.3,3.9l-26.3,4.1c4.3-0.9,8.7-1.7,13-2.6
			l13.1-2.4c8.8-1.6,17.5-2.9,26.3-4.2s17.7-2,26.6-2c4.4,0.1,8.9,0.4,13.3,1c4.4,0.6,8.8,1.1,13.2,1.3
			C379.7,763.6,370.9,762,362.1,762.1z"/>
		<path class="st16" d="M199.9,786.7c0,0,15.5-2.3,37.6-7.7"/>
		<path class="st4" d="M381.5,768.1c-5,0-10.1,0-15.1,0.2c-10.1,0.4-20.2,1.2-30.2,2.4l-30.1,3.5l-15.1,1.7c-5,0.5-10.1,1-15.1,1.5
			c5-0.7,10-1.4,15-2.1l15-2l30.1-3.8c10.1-1.1,20.2-1.9,30.3-2.1c5.1-0.1,10.2-0.1,15.2,0.2s10.1,0.7,15.1,1.3
			C391.6,768.5,386.6,768.2,381.5,768.1z"/>
		<path class="st4" d="M402.2,777.9l-9.4-0.5c-6.2-0.3-12.5-0.5-18.7-0.6c-12.4-0.1-24.9,0.3-37.4,1.2s-24.9,2-37.4,3.2
			c-6.2,0.6-12.4,1.2-18.6,1.8c-6.3,0.6-12.5,1.2-18.7,1.9c6.2-0.9,12.4-1.7,18.6-2.5s12.4-1.5,18.6-2.2c12.5-1.4,24.9-2.6,37.4-3.5
			c12.6-0.9,25.1-1.3,37.6-0.9c6.3,0.2,12.6,0.5,18.8,0.9l9.4,0.7c3.2,0.3,6.3,0.4,9.4,0.4C408.7,777.9,405.5,777.9,402.2,777.9z"/>
		<path class="st4" d="M413.5,789.2l-24.1-1.8l-24.1-1.9l-12.1-1c-4-0.3-8-0.7-12-0.8c-4-0.1-8,0-12,0.3c-4,0.4-8,0.9-12,1.3
			l-24.1,2.7l-24,2.6L245,793l24-3l24-2.9l24-2.8c4-0.4,7.9-0.9,12-1.3c4.1-0.3,8.1-0.4,12.2-0.3c4.1,0.2,8.1,0.6,12.1,0.9l12.1,1
			l24.1,2l24.1,2.1l24.1,2.2L413.5,789.2z"/>
		<path class="st3" d="M199.9,794.3l-1,0.5c-1.1,0.6-2.1,1.4-3,2.4c-3.5,3.8-8.5,4.3-9.6,3c-3.4-3.9-1.5-6.6-3-8
			c-2.9-2.7-6.5-4.4-12.2-8.7s-3.5-11.3-3.2-12.5s1.6,0.8,1.5,0.1c0-1.2,0.8-2.2,2-2.5c1.3-0.2,0.3,1.6,0.7,2.7s13.1,8.5,17.2,10
			c4.5,1.6,8.9,5.6,11.6,4.5"/>
		<path class="st4" d="M634.1,689.2c2-1.8,5-2,7.2-0.6c2.8,1.8,3.5,5.6,1.6,8.3l-0.7,0.9c-0.1,0.2-0.2,0.3-0.3,0.4
			c-0.1,0.1-0.1,0.2-0.2,0.3l-0.3,0.3c-0.2,0.2-0.4,0.4-0.6,0.7l-0.6,0.8c-0.4,0.6-0.8,1.1-1.2,1.7l-1.2,1.7
			c-1.6,2.4-3.2,4.8-4.8,7.2l-9.5,14.7c-6.4,9.8-12.6,19.7-19.2,29.4c-6.6,9.7-13.3,19.3-20.5,28.7c-3.6,4.7-7.3,9.3-11.2,13.8
			c-4,4.6-8.2,8.9-12.8,12.9l-1.8,1.5c-0.6,0.5-1.3,0.9-1.9,1.4l-1,0.7l-0.5,0.4c-0.4,0.3-0.8,0.5-1.2,0.7c-1,0.4-2,0.7-3.1,0.9
			c-1.6,0.3-3.2,0.5-4.8,0.6c-1.5,0.1-3,0.2-4.5,0.2c-5.9,0.2-11.8,0.1-17.7,0c-11.7-0.3-23.4-0.8-35.1-1.5
			c-23.4-1.4-46.6-3-69.9-4.8s-46.5-3.8-69.8-5.7s-46.6-3.4-69.8-4s-46.5-0.6-69.7,1.6c-11.7,1-23.3,1.7-35,2.2
			c-5.8,0.3-11.7,0.4-17.5,0.6l-8.7,0.2c-2.9,0.1-5.9,0.2-8.7,0.5l0,0c-0.3,0-0.6-0.2-0.6-0.5c-0.1-0.3,0.2-0.6,0.5-0.7
			c3-0.5,5.9-0.5,8.8-0.7l8.7-0.4c5.9-0.3,11.7-0.6,17.5-0.9c11.6-0.7,23.2-1.6,34.8-2.8c23.2-2.6,46.7-3.1,70-2.9s46.7,1.1,70,2.6
			s46.5,3,69.8,4.3s46.5,2.5,69.8,3.4c11.6,0.4,23.2,0.7,34.8,0.8c5.7,0,11.5,0,17.2-0.3c1.4-0.1,2.8-0.2,4.2-0.3
			c1.2-0.1,2.5-0.3,3.8-0.5c0.4-0.1,0.7-0.2,1.1-0.3c-0.1,0-0.1,0.1-0.2,0.1l0.4-0.3l0.8-0.6c0.6-0.4,1.1-0.7,1.6-1.2l1.5-1.3
			c4.1-3.8,8-7.9,11.5-12.2c3.7-4.3,7.2-8.9,10.6-13.5c6.8-9.3,13.2-18.9,19.6-28.6c6.4-9.7,12.5-19.6,18.6-29.5l9.2-14.9
			c1.6-2.5,3.1-5,4.8-7.5l1.3-1.9c0.4-0.6,0.8-1.2,1.3-1.9l0.7-1c0.2-0.3,0.5-0.7,0.8-1l0.4-0.5c0.2-0.1,0.3-0.3,0.5-0.5
			C633.3,690,633.7,689.6,634.1,689.2L634.1,689.2z"/>
		<path class="st17" d="M542.8,812.7l41.7,70.5c1.5,2.5,4.2,4,7.1,4l0,0c1.6,0,3.2-0.5,4.5-1.4c3.8-2.5,4.8-7.6,2.3-11.4l-41-61.8"
			/>
		<path class="st17" d="M157.2,804.2l-36.7,62c-1.3,2.1-3.6,3.5-6.2,3.5l0,0c-1.4,0-2.8-0.4-4-1.2c-3.3-2.2-4.2-6.7-2-10l36-54.3"/>
		<path class="st18" d="M176.1,804.2l-24.8,42c-0.9,1.5-2.5,2.4-4.2,2.4l0,0c-0.9,0-1.9-0.3-2.7-0.8c-2.3-1.5-2.9-4.5-1.4-6.8
			l24.4-36.8"/>
		<path class="st18" d="M444.1,812.6l34.5,58.4c1.3,2,3.5,3.3,5.9,3.3l0,0c1.4,0,2.7-0.4,3.8-1.1c3.1-2,4-6.3,1.9-9.4l-33.9-51.2"/>
		<path class="st4" d="M563.4,711.5c-4.6,1.9-9.3,3.6-13.9,5.4l-13.9,5.3l-13.9,5.2l-0.7,0.3l-0.5-0.6c-5.1-5.6-10.2-11.1-15.2-16.8
			s-10-11.4-14.8-17.2s-9.5-11.8-13.8-18c-1.1-1.6-2.1-3.2-3-4.9c-0.2-0.4-0.4-0.8-0.6-1.3l-0.3-0.7c0-0.1-0.1-0.2-0.1-0.3
			c-0.1-0.1-0.1-0.1-0.1-0.2v-0.1c0-0.1,0-0.1,0-0.2c0,0,0-0.1,0.1-0.2c0-0.1,0-0.2,0.1-0.2h0.1c0.2,0,0.4-0.5,0.5-0.9
			c0.1-0.4,0.2-0.9,0.3-1.3c0.3-1.9,0.4-3.7,0.4-5.6c0-1-0.1-1.9-0.4-2.8c-0.2-0.9-0.8-1.7-1.6-2.2c0.8,0.4,1.5,1.2,1.8,2.1
			c0.3,0.9,0.5,1.8,0.6,2.8c0.2,1.9,0.2,3.8,0,5.7c0,0.4-0.1,0.9-0.2,1.4c0,0.3-0.1,0.6-0.2,0.8c0,0.1-0.1,0.3-0.2,0.4
			c0,0.1-0.1,0.1-0.2,0.2c-0.1,0-0.1,0.1-0.2,0.1l0,0l0.1-0.1c0.1-0.1,0.1-0.1,0.1-0.2v-0.1l0,0v0.1c0,0.1,0.1,0.2,0.1,0.3l0.3,0.6
			c0.2,0.4,0.5,0.8,0.7,1.2c0.9,1.6,2,3.1,3.1,4.6c4.4,6,9.4,11.7,14.3,17.4s9.8,11.4,14.9,17c5.1,5.6,10.1,11.2,15.2,16.8l-1.2-0.3
			l14-5l14.1-4.9c4.7-1.6,9.4-3.2,14.1-4.8s9.4-3.2,14.1-4.7C572.8,707.5,568,709.6,563.4,711.5z"/>
		<path class="st4" d="M566.1,721.9c-5.7,2.4-11.6,4.7-17.4,6.7c-5.8,2-11.7,4-17.7,5.8c-3,0.9-6,1.7-9.1,2.4
			c-0.8,0.2-1.6,0.4-2.4,0.5c-0.9,0.2-1.7,0.2-2.6,0.2c-0.4-0.1-0.8-0.2-1.1-0.5l-0.5-0.5l-0.5-0.5l-0.4-0.4l-1.5-1.8
			c-7.9-9.6-15.6-19.3-23.2-29.1c-3.8-4.9-7.6-9.8-11.4-14.7s-7.6-9.8-11.3-14.8l0.4,0.3c-2.4-1.1-4.9-2.3-7.2-3.7
			c-1.2-0.7-2.4-1.4-3.5-2.2s-2.2-1.8-3.1-2.8l0.1,0.1c-1.5-1.4-3-2.7-4.4-4.2c-0.4-0.4-0.7-0.8-1-1.2c0-0.1-0.1-0.2-0.2-0.3
			L448,661l-0.1-0.2c-0.2-0.4-0.1-0.8,0.1-1.2c0.2-0.4,0.6-0.6,1-0.6c0.3-0.1,0.7,0,1,0.1c0.6,0.2,1.1,0.6,1.4,1.1l-0.7,0.5
			c-0.9-1.2-1.8-2.5-2.7-3.7c-0.4-0.6-0.8-1.2-1.2-1.9c-0.2-0.3-0.3-0.7-0.5-1c-0.1-0.2-0.1-0.4-0.2-0.6s-0.1-0.5,0-0.7
			s0.3-0.4,0.6-0.4c0.2,0,0.4,0,0.6,0.1c0.4,0.1,0.8,0.3,1.1,0.5s0.6,0.5,0.9,0.8c0.1,0.1,0.2,0.3,0.3,0.4c0.1,0.2,0.3,0.3,0.4,0.4
			c1.1,0.9,2.3,1.8,3.6,2.6c-1.3-0.7-2.6-1.5-3.8-2.4c-0.1-0.1-0.2-0.3-0.4-0.4s-0.3-0.3-0.4-0.4c-0.3-0.3-0.6-0.5-0.9-0.7
			s-0.6-0.3-1-0.4c-0.3-0.1-0.7-0.1-0.7,0.1c-0.1,0.3,0,0.7,0.2,0.9c0.1,0.3,0.3,0.6,0.5,0.9c0.4,0.6,0.8,1.2,1.3,1.8
			c0.9,1.2,1.8,2.4,2.8,3.5l-0.7,0.5c-0.3-0.3-0.6-0.6-1-0.7c-0.4-0.1-0.8,0.1-0.8,0.1s0.1,0.3,0.4,0.7s0.7,0.8,1,1.1
			c1.4,1.4,3,2.7,4.5,4l0,0l0,0c0.9,0.9,1.9,1.7,3,2.4s2.2,1.4,3.4,2c2.4,1.3,4.7,2.4,7.2,3.4l0.2,0.1l0.1,0.2l11.6,14.5l11.6,14.6
			c7.8,9.7,15.4,19.5,23.2,29.1l1.5,1.8l0.4,0.4l0.3,0.4l0.3,0.4c-0.2-0.1-0.2-0.1-0.1-0.1c0.7,0.1,1.3,0,2-0.1
			c0.7-0.1,1.4-0.2,2.2-0.4c3-0.6,6-1.4,9-2.2c6-1.6,11.9-3.4,17.8-5.3c5.9-1.9,11.7-4,17.5-6.1c5.9-2.1,11.6-4.5,17.1-7.3
			C577.5,716.7,571.9,719.4,566.1,721.9z"/>
		<path class="st4" d="M469.5,660.3c-0.3,0-0.6-0.1-0.9-0.2c-0.6-0.3-1.2-0.5-1.7-0.8c-1-0.6-2.1-1.2-3.1-1.9c-1.1-0.7-2-1.4-3-2.2
			c-1-0.7-1.9-1.6-2.8-2.5c-0.1,0-0.1-0.1-0.2-0.2l-0.1-0.1l-0.1-0.1v-0.1c-0.1-0.1-0.1-0.2-0.2-0.3c-0.2-0.2-0.3-0.5-0.5-0.7
			c-0.3-0.4-0.7-0.9-1.1-1.3c-0.3-0.4-0.7-0.7-1.2-1c-0.1-0.1-0.3-0.1-0.4,0c-0.1,0.1-0.2,0.2-0.2,0.4c0,0.6,0.1,1.1,0.3,1.6
			c0.2,0.6,0.5,1.1,0.8,1.6c0.6,1.1,1.3,2.1,2,3.1c-0.9-0.8-1.8-1.7-2.5-2.7c-0.8-1-1.3-2.2-1.5-3.5c0-0.5,0.2-0.9,0.6-1.2
			s0.9-0.4,1.3-0.2c0.6,0.3,1.2,0.7,1.7,1.2c0.4,0.5,0.8,1,1.2,1.5c0.2,0.3,0.3,0.5,0.5,0.8c0,0.2,0.1,0.3,0.2,0.5v0.1l0,0l0,0
			l0.1,0.1c0.8,0.8,1.7,1.6,2.6,2.4s1.8,1.5,2.8,2.3s1.9,1.5,2.9,2.2c0.5,0.4,1,0.7,1.5,1c0.2,0.1,0.5,0.2,0.8,0.3
			c0.2,0.1,0.6,0.1,0.8-0.1C469.8,660.6,469.5,660.7,469.5,660.3z"/>
		<path class="st4" d="M448.9,652.5c-0.2-0.2-0.4-0.5-0.5-0.7c-0.2-0.2-0.2-0.5-0.2-0.8c0-0.5,0.2-1.1,0.5-1.5
			c0.3-0.5,0.8-0.9,1.4-1c0.4,0,0.7,0.1,1,0.3c0.3,0.2,0.4,0.4,0.6,0.7c0.5,0.7,1,1.3,1.6,1.9c0.6,0.7,1.2,1.3,1.8,1.9
			c1.1,1.3,2.4,2.6,3.5,3.9c-1.5-1-2.9-2.1-4.2-3.2c-1.4-1.1-2.6-2.5-3.7-3.9c-0.3-0.3-0.4-0.4-0.5-0.4c-0.2,0.1-0.5,0.3-0.6,0.5
			c-0.2,0.3-0.4,0.6-0.4,0.9c-0.1,0.1,0,0.3,0,0.4c0,0.1,0.1,0.3,0.2,0.4c1,1.4,2.1,2.8,3,4.3C451.1,655,449.8,653.8,448.9,652.5z"
			/>
		<path class="st3" d="M466,673.7l-2.2,6.9c-0.9,2.8-3.6,4.6-6.5,4.4l-32.9-2.9c-0.4-0.1-0.9-0.2-1.3-0.3c-3.4-1.1-5.2-4.7-4.1-8
			l18.9-58.8c0.9-2.8,3.6-4.6,6.5-4.4l32.9,2.9c0.5,0.1,1,0.2,1.4,0.3c3.3,1.1,5.1,4.7,4,8l-12.6,38.5"/>
		<path class="st3" d="M464.2,672.8l-2,6.5c-0.8,2.7-3.4,4.5-6.2,4.3l-31.6-2.9c-0.5-0.1-0.9-0.2-1.3-0.3c-3.2-1.1-5-4.6-3.9-7.9
			l18.1-57.7c0.8-2.7,3.4-4.5,6.2-4.3l31.6,2.9c0.4,0.1,0.8,0.2,1.2,0.3c3.3,1.1,5.1,4.6,4,7.9l-12.2,38.7"/>
		
			<ellipse transform="matrix(0.1721 -0.9851 0.9851 0.1721 -236.4422 963.705)" class="st19" cx="455.1" cy="622.5" rx="4.2" ry="5.4"/>
		<circle class="st20" cx="452.6" cy="623.1" r="2.4"/>
		<path class="st16" d="M501.1,763.7c-5.9,4.3-124.7-43.2-149.9-37.2c-40.2,9.5-107.8,60.5-107,62.3"/>
		<path class="st3" d="M244.2,788.9c2.3,5.4-1.5,10.2-3.7,10.3c-6.2,0.2-7.3-2.7-9.7-2.4c-4.7,0.6-8.9,2.3-17,4s-13.1-3.9-14-4.8
			s2-0.8,1.2-1.1l0,0c-1.1-0.6-1.4-1.9-0.9-2.9c0.7-1,1.8,0.8,3,1.1s17.5-4.7,21.8-6.9c4.8-2.4,11.7-3.3,12.6-5.9"/>
		<path class="st21" d="M463.5,654c-2.5-0.3-4-4.4-5-6.2s-8.2-3.5-9.9-1.7s-2.5,6.9-5,6.9s0,7.2,0.7,9.4s12.8,11.2,12.6,13
			s-13.6,0.7-23.6,1.6s-8.9-5.9-5.7-12s11.7-31.1,13.8-35.8s2.4-10.9,7.1-15.6s21.3,3.7,26.9,6.9s-6.7,16-10.2,28
			C465.2,648.5,466,654.3,463.5,654z"/>
		<path class="st22" d="M589.7,220.9L574.1,295c-2,9.6-11.4,15.7-21,13.7l-114.5-24.1c-9.6-2-15.7-11.4-13.7-21l15.6-74.1
			c2-9.6,11.4-15.7,21-13.7L576,199.9C585.6,201.9,591.7,211.3,589.7,220.9z"/>
		<path class="st23" d="M438.8,285.7c-8.7-1.9-14.9-9.4-15.2-18.3c-0.1-0.7-0.1-1.4,0-2.1c0.1-0.7,0.2-1.4,0.3-2.1
			c0.3-1.3,0.6-2.6,0.9-3.9l3.4-15.7l3.3-15.7l6.3-31.4l0.8-3.9l0.4-2c0.1-0.6,0.2-1.3,0.4-2c0.7-2.7,2-5.4,3.8-7.6
			c3.7-4.5,9.2-7.2,15.1-7.3c0.7,0,1.5,0,2.2,0.1s1.4,0.2,2.1,0.3l3.9,0.8l7.9,1.5l15.7,3l31.5,6l62.9,12.2
			c9.9,2,17.1,10.4,17.6,20.5c0.1,0.8,0.1,1.6,0,2.4c-0.1,0.8-0.2,1.6-0.3,2.4l-0.1,0.6l-0.1,0.5l-0.2,1l-0.4,2l-6.5,31.4l-6.7,31.4
			l-0.9,3.9l-0.4,2l-0.2,1c-0.1,0.3-0.2,0.7-0.3,1.1c-2.5,9.7-11.4,16.5-21.5,16.4c-0.8-0.1-1.6-0.1-2.4-0.2s-1.6-0.3-2.3-0.4
			l-3.9-0.9l-7.8-1.8l-15.6-3.6l-31.2-7.3C480.5,295.1,459.7,290.4,438.8,285.7L438.8,285.7z M439.4,283.1
			c20.9,4.1,41.9,8.2,62.9,12.3l31.5,5.9l15.8,3l7.9,1.5l3.9,0.8c0.6,0.1,1.1,0.1,1.6,0.2s1.1,0.1,1.6,0.1c4.3-0.1,8.3-2.1,11-5.4
			c1.3-1.7,2.2-3.6,2.7-5.6c0.1-0.3,0.1-0.5,0.2-0.8l0.2-1l0.4-2l0.8-3.9l6.5-31.4l6.7-31.3l0.4-2l0.2-1l0.1-0.5l0.1-0.4
			c0.1-0.6,0.2-1.1,0.2-1.6c0-0.6,0-1.1,0-1.6c-0.2-6.6-4.8-12.2-11.2-13.6l-62.5-14.1l-31.2-7.2l-15.6-3.6l-7.8-1.8l-3.9-0.9
			c-0.6-0.1-1.2-0.3-1.8-0.3s-1.2-0.1-1.8-0.1c-7.6-0.1-14.4,5-16.4,12.4c-0.2,0.6-0.4,1.2-0.5,1.9L441,193l-0.9,3.9l-6.9,31.3
			l-3.4,15.7l-3.2,15.7c-0.2,1.3-0.5,2.6-0.7,3.9c-0.1,0.6-0.2,1.3-0.2,1.9s0,1.3,0,1.9C426.2,275.1,431.8,281.6,439.4,283.1
			L439.4,283.1z"/>
		<path class="st24" d="M437.7,202.6l42.8,44.4c12,12.4,28.7,15.8,44.4,9.1L588,229"/>
		<line class="st24" x1="543.9" y1="247.9" x2="576.2" y2="285.1"/>
		<line class="st24" x1="467.4" y1="233.4" x2="429.1" y2="251.8"/>
		<path class="st8" d="M446.7,195.8c4.3,0.7,8.8-0.3,12.4-2.7c3.7-2.4,5.9-6.6,6.8-10.8c0.7-4.4-0.3-8.9-2.8-12.5l0,0
			c-5.3-7.5-15.7-9.3-23.2-4c-3.7,2.4-5.9,6.6-6.8,10.8c-0.7,4.3,0.3,8.8,2.8,12.4C438.5,192.6,442.4,195,446.7,195.8L446.7,195.8z"
			/>
		<text transform="matrix(-0.9851 -0.1721 -0.1721 0.9851 456.952 185.3)" class="st25 st26 st27">99</text>
		<path class="st4" d="M477.5,647.4c1,0.6,2,1.1,2.9,1.8l0.3,0.2l-0.3,0.3c-0.7,0.6-1.3,1.3-1.7,2.2c-0.4,0.8-0.5,1.8-0.2,2.6
			c0.1,0.5,0.3,0.8,0.6,1.2s0.7,0.7,1,1l0.5,0.4l0.6,0.4l0.6,0.4l0.6,0.3c0.8,0.4,1.7,0.5,2.6,0.5c1-0.1,1.9-0.2,2.8-0.5
			c0.9-0.3,1.9-0.6,2.9-0.9c0.6-0.2,1.1-0.3,1.7-0.3c0.3,0,0.7,0,1,0.1c0.4,0.1,0.7,0.2,1,0.4l0.5,0.3l0.3,0.3l0.6,0.5l1.1,1
			c0.7,0.7,1.4,1.5,2.1,2.2l1,1.1l1,1.2c0.6,0.8,1.3,1.6,1.9,2.4c2.5,3.2,4.8,6.5,7,9.9c4.4,6.7,8.6,13.6,12.8,20.4l3.2,5.1
			c1.2,1.7,2.2,3.4,3.4,5c2.2,3.3,4.8,6.4,7.3,9.5c-5.8-5.7-10.9-11.9-15.4-18.6c-4.6-6.6-8.8-13.4-13.2-20.1
			c-2.2-3.3-4.4-6.6-6.8-9.8c-0.6-0.8-1.2-1.5-1.8-2.3l-0.9-1.2l-1-1.1c-0.7-0.7-1.3-1.5-2-2.2l-1-1l-0.5-0.5l-0.3-0.2
			c-0.1-0.1-0.1-0.1-0.2-0.1c-0.6-0.3-1.4-0.3-2.1-0.1c-0.9,0.2-1.9,0.5-2.9,0.7c-1.1,0.2-2.1,0.4-3.2,0.4c-1.2,0-2.3-0.3-3.3-0.8
			l-0.7-0.4l-0.6-0.5l-0.6-0.5l-0.6-0.5c-0.4-0.3-0.8-0.8-1.1-1.2c-0.3-0.5-0.6-1-0.7-1.6c-0.2-1.1-0.1-2.3,0.5-3.3
			c0.5-0.9,1.2-1.7,2.1-2.3v0.5c-0.9-0.7-1.8-1.3-2.7-1.9s-1.9-1.2-2.9-1.6C475.8,646.5,476.8,646.9,477.5,647.4z"/>
		<circle class="st28" cx="656.1" cy="637.9" r="21.1"/>
		<path class="st4" d="M545.7,708.5c-0.7-0.9-1.3-1.7-2-2.5c-1.3-1.7-2.6-3.3-4-4.9l-8.1-9.7c-5.5-6.4-10.9-12.8-16.4-19.2
			c-2.8-3.2-5.5-6.4-8.3-9.5s-5.6-6.2-8.6-9.1c-0.7-0.7-1.5-1.3-2.3-1.9c-0.9-0.6-1.8-1-2.7-1.5c-1.9-0.9-3.8-1.7-5.8-2.4
			c-4-1.5-8-2.7-12.1-3.7c4.2,0.6,8.4,1.4,12.5,2.6c2,0.6,4,1.3,6,2.1c1,0.4,2,0.9,2.9,1.4c1,0.6,1.9,1.3,2.7,2
			c6.3,5.8,11.9,12.1,17.4,18.5s10.8,12.9,16,19.6c2.6,3.3,5.1,6.7,7.6,10.1c1.2,1.7,2.4,3.4,3.6,5.2c1.2,1.7,2.3,3.5,3.2,5.4
			C546.8,710.1,546.2,709.2,545.7,708.5z"/>
		<path class="st4" d="M493.1,648.8c-0.9-0.5-1.8-1-2.8-1.4c-0.9-0.4-1.9-0.8-2.9-1.1c-0.5-0.1-1-0.2-1.5-0.3s-1,0-1.5,0.2
			c0.4-0.5,0.9-0.8,1.5-0.8c0.6-0.1,1.1-0.1,1.7,0c1.1,0.1,2.2,0.4,3.2,0.9c1.1,0.5,2,1,2.9,1.7c0.9,0.6,1.6,1.5,2.1,2.5
			C495,649.9,494.1,649.3,493.1,648.8z"/>
		<path class="st20" d="M485.7,656.4c-0.4-0.9-3.6,0.4-4,2"/>
		<path class="st20" d="M482.2,653c-0.1,0-0.2,0-0.3,0c-1.6,0.1-2.9,1.5-2.8,3.2"/>
		<path class="st28" d="M659.7,635c0,0-7.2-4.4-5.6-5.9c12.2-44.8-12.2-68.1-16-71.1c-1.3-1,10.8,1.4,10.8,1.4
			C659.2,565.6,672.9,612.6,659.7,635"/>
		<circle class="st4" cx="653.6" cy="637.5" r="20.1"/>
		<circle class="st10" cx="653.6" cy="637.6" r="13.3"/>
		<path class="st29" d="M655.1,654.6c-0.5,0.1-1,0.1-1.5,0.1"/>
		<path class="st30" d="M656.6,620.7c6.5,1.2,11.8,6,13.5,12.4c2.4,9.2-3,18.5-12.1,21"/>
		<path class="st29" d="M653.6,620.5c0.5,0,1,0.1,1.5,0.1"/>
		<path class="st31" d="M611,648.5c14.3,9.5,30.3-0.4,30.3-0.4"/>
		<circle class="st4" cx="610" cy="648.3" r="2.6"/>
		<path class="st32" d="M102.7,477.3l-4.1-119.5c-0.4-10.7,8.2-19.6,18.5-19.1l194,8.8c9.5,0.5,17,8.6,17,18.5v124.3
			c0,10.8-8.7,19.2-19,18.5l-189.9-13.7C110.1,494.4,103,486.8,102.7,477.3z"/>
		<path class="st7" d="M305.7,344.9c3.5-0.2,7.1-0.1,10.6,0.3c3.5,0.5,7.1,1.2,10.5,2.4c3.8,1.2,7.2,3.1,10.2,5.6
			c3.4,2.9,5.7,7,6.3,11.4c0.1,0.6,0.1,1.1,0.1,1.7v0.8v8.2v10.1c0,6.8,0,13.5,0,20.3s0,13.5-0.1,20.3s-0.2,13.5-0.3,20.3
			c-0.2,13.5-0.6,27-1.1,40.5v0.6l-0.1,0.3l0,0c-0.2,0.6-0.4,1.2-0.7,1.8c-0.3,0.5-0.5,1-0.8,1.5c-0.5,1-1.1,2-1.7,2.9
			c-1.2,1.9-2.7,3.6-4.3,5.2s-3.4,3-5.3,4.1c-2,1.2-4,2.1-6.1,2.8l-1.4-4c1.7-0.8,3.4-1.7,4.9-2.8c1.5-1,2.9-2.3,4.1-3.7
			c1.2-1.3,2.3-2.9,3.2-4.5c0.4-0.8,0.8-1.7,1.2-2.5c0.2-0.5,0.4-1,0.5-1.3s0.2-0.8,0.3-1.1l0,0l-0.1,0.9c-0.5-13.5-0.9-27-1.1-40.5
			c-0.2-6.8-0.2-13.5-0.3-20.3s-0.1-13.5-0.1-20.3s0-13.5,0-20.3v-10.1v-8.2v-0.4c0-0.3,0-0.6,0-0.9c-0.3-2.3-1.4-4.5-3.1-6.1
			c-2.1-2-4.5-3.6-7.1-4.8c-5.9-2.6-12.1-4.5-18.4-5.7L305.7,344.9z"/>
		<path class="st32" d="M173.5,499l34.6,39.2c0.3,0.3,0.6,0.6,1,0.9c2.8,2.1,6.7,1.5,8.8-1.3l25-33.8"/>
		<path class="st7" d="M259,507.1c-2.6,4.6-5.4,9-8.4,13.3s-6,8.5-9.2,12.6l-2.4,3.1l-0.6,0.8l-0.8,0.9c-0.6,0.6-1.1,1.2-1.7,1.7
			c-2.3,2.2-5.1,3.9-8.1,5c-3,1.1-6.2,1.3-9.3,0.7c-2.8-0.6-5.4-1.7-7.8-3.3l0.2-1.4c2.6-0.9,5.2-1.6,7.8-2.1c2-0.5,4-1.2,5.9-2.1
			c1.8-0.8,3.5-2,4.9-3.4c0.4-0.3,0.7-0.7,1-1.1l0.5-0.6l0.6-0.8l2.4-3.1c3.2-4.1,6.5-8.2,9.9-12.1c3.4-4,6.9-7.8,10.7-11.5
			L259,507.1z"/>
		<path class="st10" d="M240,371.6L240,371.6c-0.2,4.9-4.3,8.8-9.2,8.6l-101.9-3.5c-4.9-0.2-8.8-4.3-8.6-9.2l0,0
			c0.2-4.9,4.3-8.8,9.2-8.6l101.9,3.5C236.3,362.5,240.2,366.6,240,371.6z"/>
		<path class="st10" d="M239.2,394.9L239.2,394.9c-0.1,2.5-2.1,4.4-4.6,4.3l-110.8-3.8c-2.5-0.1-4.4-2.1-4.3-4.6l0,0
			c0.1-2.5,2.1-4.4,4.6-4.3l110.8,3.8C237.3,390.3,239.3,392.4,239.2,394.9z"/>
		<path class="st10" d="M161.1,450.4c-4.1-3.6-8.3-11.1-8.3-17.4c0-0.2-1.4-14.6,12-16.6c2-0.3,7,2,8.2,2.6
			c1.2-0.7,6.7-3.7,10.6-1.6c2.5,1.1,4.4,3.4,5.2,6.1c1.3,5-2.1,10.2-2.2,10.4l0,0c-2.3,3.2-4.7,6.2-7.3,9
			c-5.5,5.9-9.8,9.2-12.9,9.7c-0.2,0-0.4,0-0.6,0C164,452.4,162.3,451.6,161.1,450.4z M185.7,433.5c0-0.1,3.3-5.1,2.2-9.8
			c-0.7-2.4-2.5-4.4-4.8-5.5c-3.9-2-9.8,1.7-9.9,1.7c-0.2,0.1-0.4,0.1-0.5,0c-1.6-0.8-6.3-2.8-7.9-2.6c-12.5,1.8-11.3,15-11.2,15.6
			c0,6.1,4,13.3,8,16.7c1.8,1.5,3.4,2.2,4.7,2C172.8,450.6,184.7,435.1,185.7,433.5L185.7,433.5z"/>
		<path class="st10" d="M178.5,416.6c2.7-0.9,5.5-1,8.2-0.2c1.4,0.4,2.7,1.1,3.8,2.1c1.2,1,2.1,2.2,2.8,3.6c0.6,1.3,1,2.8,1.1,4.3
			s0,2.9-0.2,4.4l-0.2,1.1c-0.1,0.4-0.2,0.7-0.3,1.1c-0.3,0.7-0.5,1.4-0.8,2.1c-0.3,0.6-0.6,1.3-1,1.9s-0.8,1.2-1.2,1.8l-1.3,1.7
			l-1.3,1.5c-0.9,1-1.8,2-2.7,2.9c-1.8,1.9-3.8,3.7-5.8,5.3c-1.1,0.9-2.2,1.7-3.3,2.4c-1.1,0.7-2.4,1.4-3.7,1.9
			c-0.7,0.3-1.5,0.5-2.3,0.5c-0.5,0.1-0.9,0-1.3-0.1c-0.3-0.1-0.7-0.2-1-0.3c-1.3-0.5-2.5-1.2-3.5-2.2l0.6-0.8
			c1.1,0.5,2.3,0.7,3.5,0.8c0.2,0,0.5,0,0.8,0c0.2,0,0.4,0,0.6-0.1c0.4-0.2,0.9-0.4,1.3-0.7c1.9-1.4,3.8-3,5.4-4.7
			c1.8-1.7,3.5-3.5,5.2-5.4c0.8-0.9,1.7-1.9,2.5-2.8l1.3-1.4l1.1-1.3c1.4-1.7,2.3-3.8,2.9-5.9c0.3-1,0.4-2.1,0.4-3.2
			c0-1-0.1-2.1-0.4-3.1c-0.4-0.9-0.9-1.8-1.6-2.6s-1.5-1.5-2.5-2c-2.2-1-4.6-1.5-7-1.4L178.5,416.6z"/>
		<path class="st33" d="M289.9,390.4c-0.6-3-1.6-5.9-2.8-8.7c-0.8-2-2.5-3.3-4.6-3.5c-6.7-1.2-7.2-0.9-9,5.6
			c-1.2,4.2-2.4,8.5-3.7,12.4s-0.5,5.5,3.5,6.6c4.7,1.3,4.7,1.3,4.2,6.1c-0.9,8.5-4.6,16.4-10.5,22.6c-1.1,1.2-2.1,1.5-3.5,0.5
			c-1.1-0.7-2.2-1.3-3.4-1.9c-2-1-3.9-0.7-5,1.2c-3.1,5.4-6.2,10.8-9.2,16.3c-0.9,1.5-0.5,3.3,0.8,4.3c1.2,1.3,2.6,2.3,4.2,3.1
			c1.5,0.6,3.1,0.7,4.7,0.4c5.1-1.3,9.3-4.3,13.2-7.7c7.5-6.5,13.3-14.7,17.2-23.8C290.2,413.4,292,402.1,289.9,390.4z"/>
		<path class="st33" d="M268.8,447.6c-3.9,3.4-8.1,6.4-13.2,7.7c-1.6,0.3-3.2,0.2-4.7-0.4c-1.5-0.8-3-1.9-4.2-3.1
			c-1.3-1-1.6-2.9-0.8-4.3c3-5.5,6-10.9,9.2-16.3c1.1-1.8,3-2.2,5-1.2c1.2,0.5,2.3,1.2,3.4,1.9c1.4,1,2.4,0.7,3.5-0.5
			c5.9-6.1,9.6-14.1,10.5-22.6c0.5-4.8,0.5-4.8-4.2-6.1c-3.9-1.1-4.8-2.4-3.5-6.6s2.5-8.3,3.7-12.4c1.8-6.5,2.3-6.8,9-5.6
			c2,0.2,3.8,1.6,4.6,3.5c1.2,2.8,2.1,5.7,2.8,8.7c2.2,11.8,0.3,23.1-3.9,33.6C282.1,433.1,276.2,441.2,268.8,447.6z"/>
		<path class="st34" d="M292.5,391.1c-0.9-3.2-2.2-6.4-3.8-9.4c-1-2.2-3-3.5-5.6-4c-7.9-1.7-8.4-1.4-10.2,5.4
			c-1.2,4.3-2.5,8.7-3.7,12.9s-0.2,5.9,4.5,7.3c5.6,1.7,5.6,1.7,5.3,6.7c-0.5,9-4.5,17.4-11,23.5c-1.2,1.2-2.4,1.5-4.1,0.4
			c-1.3-0.8-2.7-1.5-4.1-2.2c-2.3-1.2-4.5-0.9-5.7,1c-3.4,5.5-6.7,11.2-9.9,16.8c-0.9,1.6-0.4,3.3,1.2,4.6c1.6,1.4,3.3,2.6,5.2,3.5
			c1.7,0.7,3.6,1,5.5,0.7c5.9-1.1,10.7-4,15.1-7.4c8.2-6.3,14.7-14.7,18.8-24.3C294.7,415.4,295.6,402.9,292.5,391.1z"/>
		<path class="st10" d="M284.4,440.4c-2.9,3.9-6.3,7.4-10.1,10.5c-3.7,3.1-8,5.7-12.6,7.5c-1.2,0.5-2.4,0.8-3.6,1.1
			c-0.6,0.2-1.2,0.3-1.8,0.4c-0.7,0.1-1.3,0.1-2,0.1c-1.3-0.1-2.6-0.4-3.8-0.9s-2.3-1.2-3.3-2c-0.5-0.4-1-0.8-1.4-1.2
			s-0.9-0.8-1.4-1.3c-0.6-0.6-0.9-1.2-1.2-1.9c-0.3-0.7-0.3-1.5-0.1-2.3c0.1-0.4,0.2-0.8,0.4-1.1l0.5-0.8l0.9-1.5l1.9-3l3.7-6.1
			l1.9-3l0.9-1.5l0.5-0.8c0.2-0.3,0.5-0.6,0.7-0.8c0.5-0.5,1.1-0.8,1.8-1c0.7-0.2,1.3-0.2,2-0.1c0.6,0.1,1.2,0.3,1.8,0.6
			s1.1,0.5,1.6,0.8c1.1,0.5,2.1,1.2,3.1,1.8c0.4,0.3,0.9,0.4,1.4,0.4c0.5-0.1,0.9-0.3,1.3-0.6c3.4-3.2,6.2-7,8.2-11.3
			c1.9-4.3,3-9,3.1-13.7c0-1.1,0.1-2.4-0.6-3c-0.9-0.6-1.9-1.1-3-1.3c-1.2-0.3-2.4-0.7-3.5-1.1c-0.6-0.2-1.2-0.5-1.7-0.9
			s-1-1-1.3-1.6c-0.5-1.2-0.6-2.6-0.2-3.9c0.3-1.3,0.6-2.3,0.9-3.5l1.8-6.9l0.9-3.4c0.3-1.2,0.6-2.3,1-3.5c0.1-0.3,0.3-0.6,0.4-0.9
			l0.2-0.5l0.3-0.5c0.4-0.6,1-1.1,1.8-1.4c0.7-0.2,1.4-0.3,2.1-0.3c0.6,0,1.3,0,1.9,0.1c1.3,0.1,2.4,0.4,3.6,0.6
			c1.3,0.2,2.6,0.7,3.7,1.4c1.2,0.7,2.2,1.8,2.8,3.1l1.6,3.2c1.2,2.2,2.1,4.5,2.7,6.9c0.6,2.4,1.1,4.8,1.4,7.2
			c0.6,4.8,0.5,9.7-0.2,14.6c-0.7,4.8-2,9.5-3.8,14.1C289.7,431.7,287.2,436,284.4,440.4z M288.3,425.9c3.6-8.6,4.9-17.9,4.3-26.9
			c-0.2-2.3-0.6-4.5-1.1-6.8s-1.2-4.4-2.2-6.5l-1.5-3.2c-0.4-0.9-1-1.7-1.8-2.2c-0.9-0.6-1.9-1-2.9-1.2c-1.1-0.2-2.3-0.5-3.4-0.7
			c-1-0.3-2-0.3-3-0.1c-0.3,0.1-0.7,0.4-0.9,0.7l-0.2,0.3l-0.2,0.3c-0.1,0.2-0.2,0.5-0.3,0.7c-0.4,1.1-0.7,2.2-1,3.3l-1,3.4
			l-2.1,6.8c-0.3,1.1-0.7,2.3-1,3.4c-0.3,1-0.3,2.1,0,3.1c0.6,0.9,1.4,1.6,2.4,2c1.1,0.4,2.2,0.8,3.3,1.1c0.5,0.2,1.1,0.4,1.7,0.6
			c0.6,0.2,1.2,0.6,1.7,1c0.5,0.5,0.8,1.2,0.8,1.9c0,0.7,0,1.3,0,1.9c-0.1,4.8-1.2,9.6-3.2,14s-4.8,8.3-8.4,11.6
			c-0.6,0.5-1.2,0.7-1.9,0.8c-0.7,0-1.4-0.1-2-0.5c-1.1-0.6-2-1.2-3.1-1.7c-0.5-0.3-1.1-0.6-1.6-0.8c-0.5-0.3-1.1-0.4-1.6-0.5
			c-1-0.2-2.1,0.1-2.8,0.8c-0.2,0.2-0.4,0.4-0.5,0.6l-0.5,0.8l-0.9,1.5l-1.8,3.1l-3.5,6.2l-1.8,3.1l-0.9,1.5l-0.4,0.8
			c-0.1,0.2-0.1,0.4-0.2,0.6c-0.1,0.9,0.2,1.7,0.9,2.3c0.3,0.3,0.8,0.7,1.3,1s0.9,0.7,1.4,1c0.8,0.7,1.8,1.2,2.8,1.6s2,0.6,3.1,0.6
			c0.5,0,1,0,1.5-0.1c0.5-0.1,1.1-0.2,1.6-0.4c1.1-0.3,2.2-0.7,3.2-1.1c4.2-1.9,8.1-4.4,11.5-7.5C279.1,442,284.7,434.4,288.3,425.9
			L288.3,425.9z"/>
		<path class="st35" d="M456.9,189.3l48.8,48.1c0,0,38.2,14.5,54.3-30.7L456.9,189.3z"/>
	</g>
</g>
</svg>
