<svg xmlns="http://www.w3.org/2000/svg" viewBox="0 0 49.15 28.75"><defs><style>.cls-1{fill:#fff;}</style></defs><g id="Capa_2" data-name="Capa 2"><g id="Capa_1-2" data-name="Capa 1"><path class="cls-1" d="M39.78,28.75a20,20,0,0,1-11.3-3.37,22.1,22.1,0,0,1-10.07,1.49C9.05,26,1,18.79,0,10.41a1,1,0,0,1,.93-1,1,1,0,0,1,1.14.84C3,17.76,10.21,24.26,18.62,25a19.83,19.83,0,0,0,8.14-1A15.48,15.48,0,0,1,22.89,6.37C24.19,3.55,27,.4,31.07,0a9.22,9.22,0,0,1,8.75,4.86,11.5,11.5,0,0,1,.29,9.16,19.29,19.29,0,0,1-9.54,10.38,18.21,18.21,0,0,0,17,.65,1.12,1.12,0,0,1,1.42.35.89.89,0,0,1-.39,1.28A19.56,19.56,0,0,1,39.78,28.75Zm-8-26.87h-.5c-3.13.28-5.39,2.87-6.46,5.2a13.74,13.74,0,0,0,4,16.09,17.48,17.48,0,0,0,9.32-9.7,9.75,9.75,0,0,0-.19-7.79A7.21,7.21,0,0,0,31.78,1.88Z"/></g></g></svg>