<svg xmlns="http://www.w3.org/2000/svg" viewBox="0 0 1542.31 85.49"><defs><style>.cls-1,.cls-4{fill:#e44653;}.cls-2{fill:#0e2633;}.cls-3{fill:none;stroke:#e44653;stroke-width:2.19px;}.cls-3,.cls-4{stroke-linejoin:round;}.cls-4{stroke:#fff;stroke-width:0.21px;}</style></defs><g id="Capa_2" data-name="Capa 2"><g id="Capa_1-2" data-name="Capa 1"><rect class="cls-1" x="643.77" y="41.48" width="624.56" height="7.14"/><path class="cls-2" d="M1357.68,14.22c.52,0,.94-.07,1.37-.07,7.36,0,14.71-.07,22.07,0,5.69.06,11,1.37,15.4,5.26a15.35,15.35,0,0,1-5,25.92c-1.79.65-3.67,1-5.62,1.6.24.34.49.72.77,1.08l17.64,22.33c.3.38.59.76.87,1.15a1.38,1.38,0,0,1-.29,2.09,1.42,1.42,0,0,1-2.12-.31c-.84-1-1.65-2.05-2.46-3.08q-8.77-11.13-17.55-22.27a2.16,2.16,0,0,0-1.9-.92q-9.42.06-18.83,0c-1,0-1.35.27-1.35,1.33,0,7.69,0,15.38,0,23.07a5.9,5.9,0,0,1,0,1.19c-.19.82-.76,1.48-1.59,1.25-.56-.16-1-.84-1.39-1.36-.16-.21,0-.62,0-.94V14.22Zm3.13,29.7c.39,0,.66.06.94.06,7,0,14.07.09,21.09-.08a25.54,25.54,0,0,0,7.15-1.23,11.54,11.54,0,0,0,8.47-9.85c.74-5.11-1.18-9.22-5.35-12.22-3.65-2.62-7.88-3.38-12.26-3.41-6.19-.05-12.38,0-18.58,0h-1.46Z"/><path class="cls-2" d="M1314.76,45.57c-2.59,3.5-5.08,6.85-7.56,10.22l-11.51,15.58a6.17,6.17,0,0,1-.77.91,1.73,1.73,0,0,1-2.91-1,6.74,6.74,0,0,1,0-1.19V16.73c0-1.77.42-2.51,1.46-2.54s1.57.74,1.57,2.57V66.68l.24.1c.28-.35.57-.69.84-1l36.21-50.11c1-1.42,1.83-1.78,2.68-1.15s.79,1.49-.22,2.92q-8.7,12.28-17.42,24.58a1.39,1.39,0,0,0,0,2Q1327,57,1336.58,70.16c.28.39.7.82.69,1.22a1.45,1.45,0,0,1-2.31,1.51c-.39-.16-.63-.69-.92-1.07l-18.51-25.28C1315.32,46.25,1315.09,46,1314.76,45.57Z"/><path class="cls-2" d="M1516.48,19.34c-1,2.31-1.87,4.34-2.75,6.38l-19.89,46.39c-.68,1.6-1.43,2.1-2.39,1.69s-1.09-1.31-.4-2.91l23.38-54.51c.11-.26.25-.5.35-.76.32-.83.94-1.47,1.79-1.27a2.69,2.69,0,0,1,1.66,1.28c1.51,3.29,2.9,6.63,4.31,10L1542,71.16c0,.11.11.21.15.32.44,1.11.18,2-.7,2.32-1.05.38-1.68-.17-2.08-1.08-.82-1.89-1.62-3.8-2.43-5.7l-19.83-46.55C1516.94,20.18,1516.78,19.91,1516.48,19.34Z"/><path class="cls-2" d="M1447.62,17.13q-9.88,0-19.79,0a6.35,6.35,0,0,1-1.07,0c-.82-.14-1.42-.66-1.25-1.46.12-.54.71-1,1.15-1.45.12-.13.46-.07.69-.07h40.55c.82,0,1.52.21,1.77,1.1.29,1.08-.39,1.88-1.66,1.91-1.79,0-3.59,0-5.39,0Z"/><path class="cls-2" d="M1447.71,42.25h19.54c.39,0,.88-.12,1.17,0a3,3,0,0,1,1.25,1.21,1.21,1.21,0,0,1-.85,1.61,4,4,0,0,1-1.29.18q-19.89,0-39.78,0c-.47,0-1.08,0-1.37-.23a2.12,2.12,0,0,1-.79-1.51c.07-.47.69-.94,1.18-1.24.28-.18.77-.06,1.17-.06Z"/><path class="cls-2" d="M1447.62,73.41h-19.54a3.11,3.11,0,0,1-1.41-.09,2.59,2.59,0,0,1-1.12-1.31,1.18,1.18,0,0,1,1-1.48,6.18,6.18,0,0,1,1.43-.09h39.2a8.16,8.16,0,0,1,1.31.07c.84.13,1.38.72,1.16,1.5a2.81,2.81,0,0,1-1.22,1.34c-.32.2-.86.08-1.3.08Z"/><path class="cls-3" d="M1.1,83.32V1.78H12.32L30,50.91h.22V1.78H41.87V83.32h-11L13,34.31h-.23v49Z"/><path class="cls-3" d="M91.34,1.78V65a18.42,18.42,0,0,1-5.5,13.4,19.42,19.42,0,0,1-6.07,4.12A18.26,18.26,0,0,1,72.44,84a17.88,17.88,0,0,1-7.27-1.49A19.93,19.93,0,0,1,55,72.39,18.2,18.2,0,0,1,53.55,65V1.78H65.23V63.85c0,2.91.68,5,2.06,6.42a7.48,7.48,0,0,0,10.31,0c1.37-1.38,2.06-3.51,2.06-6.42V1.78Z"/><path class="cls-3" d="M103.48,83.32V1.78h34.81v11H115.16V36.71h20.15v11H115.16V71.64h23.13V83.32Z"/><path class="cls-3" d="M184.79,25.26H173.1V22.63a12.36,12.36,0,0,0-1.89-6.93q-1.87-2.92-6.35-2.92a7.35,7.35,0,0,0-3.89.91A7.67,7.67,0,0,0,158.56,16a9.78,9.78,0,0,0-1.26,3.38,22,22,0,0,0-.34,3.95,37.26,37.26,0,0,0,.17,4,7.48,7.48,0,0,0,.86,2.86,6.36,6.36,0,0,0,2,2.18,18.42,18.42,0,0,0,3.61,1.83l8.93,3.55a22.14,22.14,0,0,1,6.3,3.5,15.18,15.18,0,0,1,3.78,4.63,21.94,21.94,0,0,1,1.72,6.25,62.61,62.61,0,0,1,.46,8,42.39,42.39,0,0,1-1,9.56,20.13,20.13,0,0,1-3.33,7.5,16.44,16.44,0,0,1-6.29,5A22.28,22.28,0,0,1,164.63,84a20.84,20.84,0,0,1-7.9-1.49,18.82,18.82,0,0,1-6.3-4.12,20,20,0,0,1-4.18-6.13,18.62,18.62,0,0,1-1.55-7.61V60.3h11.68V64a9.53,9.53,0,0,0,1.89,5.78q1.89,2.58,6.36,2.58a10.29,10.29,0,0,0,4.64-.86A6.18,6.18,0,0,0,171.85,69a9,9,0,0,0,1.08-3.84c.12-1.49.17-3.15.17-5a50.52,50.52,0,0,0-.22-5.27A9.19,9.19,0,0,0,172,51.6a6.43,6.43,0,0,0-2.12-2.06,26.42,26.42,0,0,0-3.49-1.72L158,44.38q-7.56-3.09-10.14-8.18a28.17,28.17,0,0,1-2.57-12.77,29.64,29.64,0,0,1,1.26-8.71,19.89,19.89,0,0,1,3.77-7.1,17.42,17.42,0,0,1,6.13-4.75,20.5,20.5,0,0,1,8.88-1.77,19.38,19.38,0,0,1,8,1.6,20.56,20.56,0,0,1,6.24,4.24,17.69,17.69,0,0,1,5.27,12.59Z"/><path class="cls-3" d="M202.31,83.32V12.78H188.79v-11H227.5v11H214V83.32Z"/><path class="cls-3" d="M245.48,12.78V38.2h6.64a11.82,11.82,0,0,0,4.93-.86,6.68,6.68,0,0,0,2.86-2.46,11.27,11.27,0,0,0,1.26-4,38,38,0,0,0,.34-5.44,37.86,37.86,0,0,0-.34-5.44A11.05,11.05,0,0,0,259.8,16q-2.18-3.19-8.25-3.2ZM233.8,83.32V1.78h18.78q20.61,0,20.61,23.94A30.13,30.13,0,0,1,271,38a17.31,17.31,0,0,1-7.84,8.13l12.6,37.22H263.35L252.47,48.51h-7V83.32Z"/><path class="cls-3" d="M283,21a20.91,20.91,0,0,1,1.72-8.7A18.44,18.44,0,0,1,289.34,6a19.4,19.4,0,0,1,6.24-3.67,20.48,20.48,0,0,1,14.09,0A20.86,20.86,0,0,1,316,6a19.12,19.12,0,0,1,4.46,6.3,20.75,20.75,0,0,1,1.72,8.7V64.08a20.56,20.56,0,0,1-1.72,8.82A18.14,18.14,0,0,1,316,79a19.65,19.65,0,0,1-6.36,3.78,20.33,20.33,0,0,1-14.09,0A18.33,18.33,0,0,1,289.34,79a17.52,17.52,0,0,1-4.58-6.07A20.71,20.71,0,0,1,283,64.08Zm11.68,43.06c0,2.83.79,4.91,2.35,6.25a8.71,8.71,0,0,0,11.11,0q2.35-2,2.35-6.25V21q0-4.23-2.35-6.24a8.71,8.71,0,0,0-11.11,0c-1.56,1.34-2.35,3.42-2.35,6.24Z"/><path class="cls-4" d="M355.65,83.32V1.78h34.82v11H367.34V36.71h20.15v11H367.34V71.64h23.13V83.32Z"/><path class="cls-4" d="M410.17,64.08q0,4.24,2.34,6.25a8.33,8.33,0,0,0,5.56,2,5.64,5.64,0,0,0,2.52-.46l-5.27-4.24,6-7.1L426,64.31V21q0-4.23-2.35-6.24a8.71,8.71,0,0,0-11.11,0q-2.34,2-2.34,6.24ZM398.48,21a20.91,20.91,0,0,1,1.72-8.7A18.57,18.57,0,0,1,404.78,6,19.55,19.55,0,0,1,411,2.35a20.45,20.45,0,0,1,14.08,0A20.86,20.86,0,0,1,431.47,6a19.12,19.12,0,0,1,4.46,6.3,20.75,20.75,0,0,1,1.72,8.7V64.08a18.9,18.9,0,0,1-1.72,8.36l7.22,5.84-6,7.1-6.87-5.61A18.93,18.93,0,0,1,418.07,84a20.56,20.56,0,0,1-7-1.26A18.47,18.47,0,0,1,404.78,79a17.65,17.65,0,0,1-4.58-6.07,20.71,20.71,0,0,1-1.72-8.82Z"/><path class="cls-4" d="M486.9,1.78V65a18.69,18.69,0,0,1-1.44,7.39,18.88,18.88,0,0,1-4.06,6,19.54,19.54,0,0,1-6.07,4.12A18.3,18.3,0,0,1,468,84a17.84,17.84,0,0,1-7.27-1.49,19.83,19.83,0,0,1-10.14-10.13A18.21,18.21,0,0,1,449.1,65V1.78h11.68V63.85c0,2.91.69,5,2.07,6.42a7.47,7.47,0,0,0,10.3,0c1.38-1.38,2.06-3.51,2.06-6.42V1.78Z"/><rect class="cls-4" x="499.38" y="1.78" width="11.68" height="81.54"/><path class="cls-4" d="M523.54,83.32V1.78h17.52A26.09,26.09,0,0,1,549.54,3a16.29,16.29,0,0,1,6.64,4.47A17.5,17.5,0,0,1,560.3,15a47,47,0,0,1,1.15,11.62,57.66,57.66,0,0,1-.63,9.28,19.44,19.44,0,0,1-2.69,7.1,17.15,17.15,0,0,1-6.42,6.24q-4,2.23-10.53,2.24h-6V83.32Zm11.68-70.54V40.49h5.61a11.91,11.91,0,0,0,5.5-1,6.48,6.48,0,0,0,2.86-2.86,10.44,10.44,0,0,0,1.09-4.24c.12-1.68.17-3.55.17-5.61s0-3.72-.11-5.44a11.79,11.79,0,0,0-1-4.52,6.47,6.47,0,0,0-2.75-3,10.88,10.88,0,0,0-5.27-1Z"/><path class="cls-4" d="M570.61,21a20.75,20.75,0,0,1,1.72-8.7A18.31,18.31,0,0,1,576.91,6a19.4,19.4,0,0,1,6.24-3.67,20.45,20.45,0,0,1,14.08,0A20.86,20.86,0,0,1,603.59,6a19.29,19.29,0,0,1,4.47,6.3,20.91,20.91,0,0,1,1.71,8.7V64.08a20.71,20.71,0,0,1-1.71,8.82A18.3,18.3,0,0,1,603.59,79a19.65,19.65,0,0,1-6.36,3.78,20.3,20.3,0,0,1-14.08,0A18.33,18.33,0,0,1,576.91,79a17.4,17.4,0,0,1-4.58-6.07,20.56,20.56,0,0,1-1.72-8.82Zm11.68,43.06q0,4.24,2.35,6.25a8.71,8.71,0,0,0,11.11,0q2.34-2,2.34-6.25V21q0-4.23-2.34-6.24a8.71,8.71,0,0,0-11.11,0q-2.35,2-2.35,6.24Z"/></g></g></svg>