<?xml version="1.0" encoding="utf-8"?>
<!-- Generator: Adobe Illustrator 25.2.3, SVG Export Plug-In . SVG Version: 6.00 Build 0)  -->
<svg version="1.1" id="Capa_1" xmlns="http://www.w3.org/2000/svg" xmlns:xlink="http://www.w3.org/1999/xlink" x="0px" y="0px"
	 viewBox="0 0 1010.2 1080" style="enable-background:new 0 0 1010.2 1080;" xml:space="preserve">
<style type="text/css">
	.st0{fill:#F0FAEF;}
	.st1{fill:#E73847;}
	.st2{fill:#F29AA8;}
	.st3{fill:#A8DADB;}
	.st4{fill:#80D8FF;}
	.st5{fill:#46758F;}
	.st6{fill:#F9C553;}
	.st7{fill:#F6ECAA;}
	.st8{fill:#F4E07B;}
	.st9{fill:#0F2633;}
	.st10{fill:#97303C;}
	.st11{fill:#1D3557;}
	.st12{fill:#457B9D;}
	.st13{fill:none;stroke:#0F2633;stroke-width:0.6397;stroke-miterlimit:10;}
	.st14{fill:none;stroke:#0F2633;stroke-width:0.3198;stroke-miterlimit:10;}
	.st15{opacity:0.3;fill:none;stroke:#0F2633;stroke-width:0.3198;stroke-miterlimit:10;enable-background:new    ;}
	.st16{opacity:0.3;}
	.st17{fill:#FFFFFF;}
	.st18{fill:#F98A97;}
	.st19{fill:none;stroke:#0F2633;stroke-width:0.7509;stroke-linejoin:round;}
	.st20{fill:none;stroke:#0F2633;stroke-width:0.8474;stroke-miterlimit:10;}
	.st21{fill:none;stroke:#0F2633;stroke-width:0.7831;stroke-miterlimit:10;}
	.st22{fill:none;stroke:#0F2633;stroke-width:0.8045;stroke-miterlimit:10;}
	.st23{fill:none;stroke:#0F2633;stroke-width:0.5363;stroke-miterlimit:10;}
	.st24{fill:none;stroke:#0F2633;stroke-width:1.4803;stroke-miterlimit:10;}
	.st25{fill:none;stroke:#0F2633;stroke-width:1.2979;stroke-miterlimit:10;}
	.st26{fill:none;stroke:#0F2633;stroke-width:1.5661;stroke-miterlimit:10;}
	.st27{fill:#100D0D;stroke:#0F2633;stroke-miterlimit:10;}
	.st28{fill:none;stroke:#0F2633;stroke-width:2.2741;}
	.st29{fill:none;stroke:#0F2633;stroke-width:2.2204;stroke-miterlimit:10;}
	.st30{fill:none;stroke:#0F2633;stroke-width:1.9523;stroke-miterlimit:10.0009;}
	.st31{font-family:'ShowcardGothic-Reg';}
	.st32{font-size:22.9231px;}
	.st33{fill:none;stroke:#0F2633;stroke-width:1.4267;stroke-miterlimit:10;}
	.st34{fill:none;stroke:#0F2633;stroke-width:1.4312;stroke-miterlimit:10.0337;}
	.st35{fill:none;stroke:#2D8464;stroke-miterlimit:10;}
	.st36{fill:#2D8464;stroke:#2D8464;stroke-width:1;stroke-miterlimit:10.0018;}
	.st37{fill:#2D8464;stroke:#2D8464;stroke-miterlimit:10;}
	.st38{fill:#2D8464;stroke:#2D8464;stroke-width:1;stroke-miterlimit:9.9999;}
	.st39{fill:#E44653;}
	.st40{fill:#E44653;stroke:#0E2633;stroke-width:0.25;stroke-miterlimit:10;}
	.st41{fill:#962F3B;stroke:#0E2633;stroke-width:0.25;stroke-miterlimit:10;}
	.st42{fill:#E44653;stroke:#0E2633;stroke-width:0.5;stroke-miterlimit:10;}
	.st43{fill:#962F3B;stroke:#0E2633;stroke-width:0.5;stroke-miterlimit:10;}
	.st44{fill:#962F3B;}
	.st45{fill:#F198A7;}
	.st46{fill:#45758D;}
	.st47{fill:#0E2633;}
	.st48{fill:none;stroke:#0E2633;stroke-width:0.965;stroke-miterlimit:10;}
	.st49{fill:#BAE2F9;}
	.st50{fill:none;stroke:#0E2633;stroke-width:1.051;stroke-miterlimit:10;}
	.st51{fill:none;stroke:#0F2633;stroke-width:0.7509;stroke-miterlimit:10;}
	.st52{fill:none;}
</style>
<g>
	<g>
		<path class="st0" d="M138.1,712.3c14.1,37.2,74.4,7.5,129.4-28.3c11.4,34.4,119.1,80.9,145.2-34.5c45-32.2,103.5-1.6,94.7-61.2
			c58.6-23.9,180.7-55.6,121.9-59.8c58.8,4.2,63.1-6.4,3.5-8.8c-27.5-21-18.3-81.7-152.2-71.1c-75.1-12.5-99.4-28.1-125.9-27.9
			C338,387.3,248.6,261.2,209.8,295.6c-24.2-41.9-208.8-4.5-94.7,150.9c28.4,131.3-205.9,240-70.4,249.4
			C66.5,780,99.8,752.9,138.1,712.3z"/>
	</g>
</g>
<g>
	<g id="Capa_2_1_">
		<g id="Color">
			<path class="st1" d="M920.3,455.1c-4.6-20.5-12.7-30.4-22-33.6c-9.5-4.3-20.9,5.4-24.9,31.8c-0.4,1.7,0.3,3.5,1.7,4.5
				c1.2,0.7,3.2,0.5,4.2,1.9c0.1,0.1,2.4,1.7,3.3,2.6c0.1,0.1,0.3,0.2,0.4,0.3c1.2,0.9,7,5.4,6.4,6.7L889,470
				c-0.1,0.4-0.3,0.8-0.6,1.1c-1.9,4.1-27.7,15.6-27.5,47.2c0.2,21.2,21.9,25.2,37,22.7c16.1-1.9,27.1-11.5,33.1-19.9
				c6.2-8.7,7.5-16.1,6.3-22.5C934.5,487.8,920.7,460.3,920.3,455.1z"/>
			<path class="st2" d="M878.5,458.8c4.3,3.4,9.5,6,15.1,6.3c1.3-0.1,2.4-1,2.8-2.3c2.9-9.3,5-21.8,0.2-26.5
				c-3.5-8.7-13.3,12.3-18.4,19.7C877.6,456.9,877.7,458.1,878.5,458.8z"/>
			<path class="st3" d="M234.9,539.3c-0.1-0.4-0.2-0.7-0.3-1.1c-3.6-9.3-13.3-20.5-22.1-22.8c-7.1-1.4-13.4,5.4-16.9,15
				c-1.2-1.6-3.2-2.6-5.2-2.6c-4.4,0.1-8.9,4.8-10.1,10.3v0.1c-7.7,1.3-14.3,6.4-17.3,13.6c-2.9,7.3,2.8,16.1,13.1,18.2
				c19.7,4,40.1,3.2,59.4-2.3c10.3-3.5,15.8-12.7,12.8-18.5C246,544.8,240.5,541.4,234.9,539.3z"/>
			<path class="st4" d="M557.7,474.3c2.8-6.2,6.8-9.3,10.6-5.5c3.8,4,7.4,7.5,6.7,11.5c-0.7,4.3-7.7,11.2-13.6,9.2
				C555.6,487.4,555,480,557.7,474.3z"/>
			<path class="st5" d="M332.7,473.7c-6.5-6.2-11.5-2.3-15.2,5c-3.6,6.7-3.4,15.7,5.8,20.6c1.7,0.8,3.5,1.4,5.3,1.9l1.1,0.3
				c0.3,0.1,0.6,0.1,1,0.2c9,0.6,13.8-5.9,15.4-10.4c0.1-0.2,0.2-0.5,0.2-0.7c0.1-0.2,0.1-0.5,0.1-0.7c0.2-4.5-2.3-6.8-8.3-11.8
				l-0.7-0.5c-0.2-0.2-0.5-0.4-0.8-0.6C335,475.7,333.1,474.1,332.7,473.7z"/>
			<path class="st5" d="M500.5,572.8c-0.5,2.3-1.4,6.1-2.8,11.3c-0.6,2.4-1.4,5.7-2.5,10c-1.3,0.2-2.5,0.3-3.8,0.4
				c-0.2-1.8-0.6-4.9-0.9-9.1c-0.8,2.3-2,5.4-3.5,9.3c-1.3,0-2.6,0-3.8-0.1c-0.1-1.9-0.3-5-0.3-9.1c0-2.2-0.1-5.2,0.2-8.6
				c2-0.4,3.9-0.8,5.8-1.2c0,0.8-0.1,2-0.2,3.7s0,3.2,0.1,4.8c0.3-0.7,0.8-2,1.4-3.7c0-1.4-0.1-3.1-0.1-5.1c1.7-0.4,3.5-0.9,5.2-1.3
				c0,0.8,0,2.1,0,3.9c0,1.2,0.1,2.9,0.2,5.2c0.5-1.9,0.9-3.7,1.3-5.6c0.2-1.1,0.5-2.5,0.9-4.2L500.5,572.8z"/>
			<path class="st5" d="M516.3,569.3c0,2,0.2,5.4,0.2,10.1c0,2.1,0.1,5.3,0.1,9.2c-1.1,0.4-2.3,0.8-3.5,1.2
				c-0.6-1.6-1.8-4.4-3.1-8.5c-0.2,2.4-0.5,5.6-0.9,9.8c-1.2,0.3-2.4,0.7-3.6,1c-0.6-1.9-1.6-5-2.7-9.3c-0.6-2.4-1.5-5.7-2.3-9.9
				c1.8-0.5,3.6-1,5.4-1.4c0.2,0.8,0.4,2.1,0.8,4s0.9,3.3,1.3,5c0.1-0.8,0.2-2.1,0.4-3.9c-0.4-1.4-0.9-3.2-1.4-5.4
				c1.6-0.4,3.1-0.7,4.6-1.1c0.2,0.8,0.5,2.1,1,3.8c0.3,1.2,0.8,2.8,1.5,4.9c0-1.7-0.1-3.5-0.2-5.2c0-1-0.1-2.3-0.2-3.9
				C514.6,569.5,515.4,569.4,516.3,569.3z"/>
			<path class="st5" d="M529.4,570.3c1.2,1.8,2.2,3.6,3.2,5.5c0.7,1.3,1.6,3,2.8,5.5l-2.9,1.2c-1.9-1.8-3.6-3.7-5.1-5.7
				c0.4,1.7,1.1,4,1.7,7.1l-3.1,1.2c-1.8-2.3-3.4-4.7-4.9-7.2c-1.7-2.8-3.2-5.6-4.6-8.6c1.5-0.2,3-0.3,4.5-0.3
				c0.3,0.7,0.9,1.8,1.8,3.3c0.9,1.5,1.6,2.6,2.5,3.9c-0.1-0.6-0.3-1.5-0.7-2.9c-0.7-1.1-1.6-2.5-2.6-4.3c1.3,0,2.6,0.1,3.8,0.4
				c0.4,0.6,1.1,1.5,1.9,2.7c0.6,0.8,1.5,1.9,2.7,3.2c-0.5-1.1-1.1-2.1-1.6-3.2c-0.3-0.6-0.8-1.4-1.3-2.4
				C528.1,569.8,528.7,570.1,529.4,570.3z"/>
			<path class="st6" d="M378.1,592.4c-1,9.3-8.3,16.6-17.5,17.5c-9,0.7-17-6.3-17.9-15.6s7-17.2,17.5-17.5
				C370.8,576.4,378.8,583.4,378.1,592.4z"/>
			<path class="st5" d="M222,335.7c-4.8,0-4.8,7.4,0,7.4S226.8,335.7,222,335.7z"/>
			<path class="st5" d="M233.5,329.9c-5.9-6.5-15.9-6.9-22.4-1.1c-0.5,0.5-1,1-1.4,1.5c-1.1,1.2-1.1,3,0,4.2c1.2,1.2,3,1.2,4.2,0
				c0.5-0.6,1.1-1.2,1.7-1.7l0.2-0.1c0.2-0.2,0.4-0.3,0.6-0.4c0.3-0.2,0.7-0.4,1.1-0.6c0.6-0.3,1.2-0.5,1.9-0.7
				c0.4-0.1,0.8-0.2,1.2-0.2h0.1c0.3,0,0.5,0,0.8,0s0.8,0,1.2,0h0.2l0.5,0.1c0.8,0.2,1.5,0.4,2.3,0.7l0.2,0.1l0.5,0.3
				c0.4,0.2,0.8,0.5,1.2,0.7l0.3,0.2l0.3,0.3c0.3,0.3,0.7,0.6,1,1c1.1,1.2,3,1.3,4.2,0.1c1.2-1.1,1.3-3,0.1-4.2
				C233.6,330,233.5,329.9,233.5,329.9L233.5,329.9z"/>
			<path class="st5" d="M239.9,320.9c-10.7-9.1-26.6-8.8-37,0.7c-2.9,2.6,1.4,6.7,4.2,4.2c8.1-7.2,20.1-7.4,28.6-0.7
				c1.2,1.1,3,1.1,4.2,0s1.4-2.9,0.2-4.2C240.1,320.9,240,320.9,239.9,320.9z"/>
			<path class="st1" d="M450.1,475.1c3.2,11.8-0.2,19-10.1,21.7c-2.7,0.8-5.6,0.6-8.1-0.8c-0.9,1.9-2.6,3.4-4.7,4.1
				c-2.2,0.7-4.6,0.4-6.6-0.9c-1.7-1.2-3-2.9-3.5-5c-0.6-2.3-0.2-4.8,1.2-6.7c1.2-1.8,3-3.1,5.1-3.7c0.8-0.2,1.7-0.3,2.6-0.2
				c-0.4-1.3-1.3-2.3-2.4-3.1c-1.1-0.8-2.5-1-3.8-0.7c-0.4,0.1-0.9,0.3-1.3,0.5l1.3-9.7c2-0.8,4.2-1.2,6.3-0.9
				c3.3,0.5,6,2.5,7.9,6.1c1.5,3.4,2.8,6.8,3.9,10.3c0.9,2.6,2.1,3.8,3.6,3.3s2.4-1.8,2.7-4.1c0.2-2.6-0.1-5.2-0.8-7.7
				c-1.5-5.5-4.5-9.3-9.1-11.3c-3.8-1.7-8-1.9-12-0.8c-4.8,1.3-9,4.4-11.4,8.8c-2.6,4.2-3.4,9.3-2.1,14c1.1,4.8,3.9,9,7.9,11.8
				c4.3,3,9.7,3.9,14.7,2.5c1-0.2,2.1-0.6,3.4-1l1.5,5.6c-1.4,0.5-2.9,1-4.4,1.4c-5.4,1.5-11.2,1-16.3-1.3
				c-6.9-3-11.5-8.6-13.6-16.7c-2-7.4-1.1-14,2.7-20c3.6-5.7,8.9-9.5,16.1-11.4c5.9-1.7,12.3-1.2,17.9,1.6
				C444.5,463.7,448.6,468.9,450.1,475.1z M429.8,492.4l-1.5-2.7c-2.1,0.3-3,1.1-2.6,2.5c0.1,0.9,0.9,1.5,1.8,1.4
				c0.2,0,0.3-0.1,0.4-0.1C428.6,493.3,429.3,492.9,429.8,492.4z"/>
			
				<ellipse transform="matrix(0.3668 -0.9303 0.9303 0.3668 -34.0238 996.5092)" class="st7" cx="715" cy="523.2" rx="6.7" ry="2.3"/>
			<path class="st8" d="M715.7,529.4c2.5-3.4,3.4-10.5,3.4-10.5s13.2,5.8,14.2,5.9c1,0.1,3,1.6,3.7,1.9c0.6,0.4,7.3,3.1,7.3,3.1
				l7.5,2.1l-4.3,7l-10.9-4c0,0-4-1.2-4.5-0.7s-3.6-0.6-5.1-1.3s-1.6-0.5-3.4-0.9C721.8,531.5,715.3,530.1,715.7,529.4z"/>
			<path class="st8" d="M767.2,544.5c-0.1-1.5,1.8-5.6,1.8-5.6s2.4,0.4,3,1.2c0.7,0.8,1,6-1.2,5.8
				C769.6,545.8,768.3,545.3,767.2,544.5z"/>
			<path class="st9" d="M1002.3,787.4c-17,1.1-33.5-2.4-49.6-2.6c-16.1-0.2-32.3,3.6-49.2,4.2c-4.2,0-8.2,0.3-12.4,0.3
				c-2.1,0-4.2,0-6.2,0s-4.2,0-6.2,0c-8.3-0.1-16.6-0.4-24.9-0.8c-16.5-0.8-33-1.7-49.3-1.8c-32.8-0.2-65.7,3.7-99.1,2.9
				c-16.7-0.2-33.3-2-49.6-3.6c-8.2-0.8-16.4-1.4-24.5-1.7c-8.2-0.3-16.3-0.1-24.5,0.2c-16.4,0.8-32.9,2.4-49.6,2.7
				c-4.2,0.1-8.4,0-12.5-0.1l-12.4-0.2c-8.3-0.2-16.5-0.4-24.8-0.7c-33-1.1-66-2.8-99-3.6c-16.5-0.4-32.9-0.5-49.4-0.3
				c-8.3,0.1-16.5,0.3-24.7,0.5l-24.7,0.7c-33,1-66.1,2.1-99.1,1.4c33-1.4,65.9-3.9,98.9-5.8c33-2,66.1-3.3,99.2-2.7
				s66.1,2.2,99.1,3.2c8.2,0.2,16.5,0.5,24.7,0.6l12.4,0.2c4.1,0.1,8.2,0.1,12.3,0c16.3-0.3,32.7-2,49.3-2.9
				c8.3-0.4,16.7-0.6,25-0.3c8.4,0.3,16.7,0.9,24.9,1.7c16.5,1.5,32.8,3.4,49.1,3.6c32.7,0.9,65.7-2.8,99-2.5
				c16.6,0.1,33.2,1.1,49.6,2c8.2,0.4,16.5,0.8,24.7,1c2,0.1,4.1,0.1,6.2,0.1c2,0,4.1,0,6.1,0c4.1,0,8.3-0.2,12.3-0.2
				c16.1-0.3,32.5-4,49.5-3.7c8.5,0.2,16.7,1.2,24.9,2.1c8.1,1,16.2,1.4,24.3,1.2l0,0c1.3-0.1,2.5,1,2.5,2.3
				C1004.5,786.2,1003.5,787.3,1002.3,787.4L1002.3,787.4z"/>
			<path class="st10" d="M926.5,742.5c-2.8-3.4-7.6-9.2-6.5-4.2c1.1,5.2-5.4,7.5-9.5,7.8s-7.3,2.3-7.2,5.3c0,3-6.7,11.3-9.7,12.4
				s-8.6,3.1-2.6,6.9c0,0,8,1.7,10.7,0s5.8-2.2,12.1-5s2.8-10.9,8.2-10.5s8.7-5.7,10.9-8.6s-3.4-0.4-6.1-3.8L926.5,742.5z"/>
			<path class="st1" d="M802.1,771.5c3.7-2.1,14.8-4.3,18.8-5.7c4-1.5,8.9-3.4,11.6-6.2c2.6-2.8,2.3-6.7,4.2-4.3s-4.3,3.9,1.4,5.2
				c5.7,1.2,10.7,3.1,13.3,1.6s1.5-4.3,3.8-3.5s3.3,3.9,3.6,6.6s2,9.9,2,9.9s-1.6,2.3-6.3,2.5s-5.8,1.2-7,0s-2,0.1-4.8,0.6
				s-24.3,2.5-29.6,1s-10.6-3.9-10.9-5.3C801.9,773,801.9,772.3,802.1,771.5z"/>
			<path class="st11" d="M713.8,722.3c0.5-3.4,2-7,4.4-8.7c1-0.7,2-1,2.7-2c0.7-1.1,1-2.3,0.8-3.6c-0.1-1.3-0.1-2.5,0-3.8
				s0.7-2.5,1.5-2.8s2,0.6,3,0.7c1.2,0.1,2-0.7,2.6-1.3c0.6-0.7,1.3-1.4,2.1-1.1c0.9,0.2,2.3,1.8,2.7,2.9s-0.2,1.3-1,1.4
				c-0.8,0.1-1.7,0.2-2.1,1.1c-0.4,0.9,0.2,2.3,0.9,3.3s1.7,1.8,2.3,2.7c0.7,0.8,1.1,1.8,0.6,2.7s-2,1.4-3.3,1.9s-2.7,1.7-2.6,3
				c0.1,0.9,0.9,1.4,1.3,2.1c0.6,1.1-0.2,2.9-1.4,4.3c-1.3,1.3-2.8,2.4-4.5,3.2c-1.7,1-3.5,1.8-5.2,2.6c-1,0.5-3.6,2-4.4,1.3
				c-0.8-0.7-0.7-3.4-0.7-4.5C713.6,725.9,713.6,724.1,713.8,722.3z"/>
			<path class="st5" d="M718.9,738.3L718.9,738.3c-0.2,0.1-0.5,0-0.6-0.2c0-0.1-0.1-0.2,0-0.2c1-14.3,6.9-31.5,12.5-36.2
				c0.1-0.1,0.4,0.1,0.7,0.3c0.2,0.3,0.2,0.6,0.1,0.7c-5.4,4.3-11,21.1-11.9,34.9C719.5,737.8,719.2,738.2,718.9,738.3z"/>
			<path class="st3" d="M731,699.7c-0.5-0.1-1.1,0.1-1.6,0.5h0.1c1,0.1,1.7,0.6,2.2,1.4c0.5,0.7,0.4,1.4,0.1,1.7
				c-0.4,0.3-0.8,0.5-1.3,0.7c-1.2,0.9-1.4,3.6-0.3,5.5c0.4,0.7,1,1.3,1.4,1.9c0.5,0.6,0.5,1.4,0.1,2.1c-0.8,1-2.6,0.6-3.8,1.1
				c-1.3,0.5-1.8,2.1-1.8,3.5c0.1,1.3,0.4,2.6,0.9,3.8c0.5,1.3,0.6,2.6,0.2,3.9c0.4-0.3,0.7-0.6,1-1c1.3-1.4,2-3.2,1.4-4.3
				c-0.4-0.7-1.1-1.2-1.3-2.1c-0.1-1.4,1.3-2.5,2.6-3s2.7-1,3.3-1.9c0.6-1,0.1-1.8-0.6-2.7c-0.7-0.9-1.6-1.7-2.3-2.7
				s-1.2-2.4-0.9-3.3c0.3-0.9,1.3-1,2.1-1.1s1.4-0.4,1-1.4C733.4,701.6,732,700,731,699.7z"/>
			<path class="st4" d="M705.3,730.6c-0.3-3.7,0.9-7.3,3.3-10.2c0.8-0.8,1.5-1.6,2.1-2.5c1.3-2.1,1-4.7,0.2-6.7
				c-0.8-2.4-2.2-4.7-2.3-7.6c-0.1-1.3,0.2-2.4,0.7-3.6c1.4-3,3.6-1.3,5.4-2.1c1.5-0.7,2.1-2.7,2.1-4.7c0.1-2-0.2-4.2,0.2-6
				c0-0.2,0.1-0.3,0.1-0.5c0.5-2,2.9,0,3,2.2c0.1,1.8,0.3,3.5,0.4,5.2c0,0.4,0.1,0.9,0.2,1.3c0.6,1.7,2.4,2.3,3.8,3.1
				c1.5,1,2.7,2.3,3.6,3.8c0.7,1.2,0.5,2.6-0.4,3.6c-1.3,1.4-4,2.6-4.6,4.9c-0.3,1.3,0.2,2.5,0.6,3.7c1,3.2,0.2,7.1-2.5,11.6
				c-2.2,3.6-6.1,8.1-9.9,9.7C708.1,737.7,705.7,733.9,705.3,730.6z"/>
			<path class="st5" d="M717.6,737.7c-0.4,0.2-0.7,0.1-0.7-0.2c-0.6-14.8,0.4-31,1.7-45c0-0.3,0.2-0.4,0.5-0.3
				c0.3,0.2,0.4,0.5,0.4,0.8c-1.2,13.5-2,29.4-1.3,43.7C718.2,737.1,718,737.4,717.6,737.7L717.6,737.7z"/>
			<path class="st5" d="M728.3,702.4c-0.8-1.6-2.1-2.9-3.6-3.8c-1.4-0.9-3.2-1.4-3.8-3.1c-0.1-0.4-0.2-0.8-0.2-1.3
				c-0.2-1.7-0.3-3.5-0.4-5.2c-0.2-2.2-2.5-4.2-3-2.2c-0.1,0.2-0.1,0.3-0.1,0.5c-0.4,1.8-0.1,4-0.2,6c-0.1,2-0.7,4.1-2.2,4.8
				c-1.8,0.8-4-0.9-5.4,2.1c-0.4,0.8-0.6,1.7-0.7,2.6c0.1,0,0.2-0.1,0.3-0.2c0.3-0.4,0.5-0.9,0.8-1.3c0.4-0.4,0.7-0.7,1.2-0.8
				c1-0.5,2.1-0.6,3.1-1c2.3-1,3.8-3.6,3.5-6.6c-0.1-0.8-0.1-1.6-0.1-2.3c0.1-0.7,0.5-1.3,1-1.1c0.8,0.3,1.3,1.8,1.4,2.9
				c0.1,1.9-0.5,3.7,0.2,5.6c0.7,1.7,2.3,2.7,3.6,3.8s2.8,2.4,2.6,3.6c-0.3,1.6-2.8,2-4,3.6c-0.8,1.3-1,2.9-0.4,4.4
				c0.5,1.1,1.3,2.1,2.3,2.9c-0.1-0.5-0.2-0.9-0.3-1.4c-0.4-1.1-0.9-2.4-0.6-3.7c0.5-2.4,3.3-3.5,4.6-4.9
				C728.9,705,729.1,703.6,728.3,702.4z"/>
			<path class="st12" d="M714,713.8c-1.3-1.7-3.6-3.8-5.8-3.8c-0.7,0-1.3-0.1-1.8-0.4c-2.8-1.4-1.4-4.5-2.5-6.7
				c-0.5-1.1-1.4-1.8-2.6-2.1c-0.9-0.2-1.8,0.1-2.7,0c-1.3-0.1-2.6-1-3.8-1.6s-2.4-0.9-3.7-0.1H691c-1.6,1.2-1.8,4.8-0.2,4.9
				c0.8,0.1,1.7,0.4,2.3,1c1.6,1.6,2.3,3.9,1.7,6.1c-0.5,2-2.4,4-1.8,6c0.2,0.7,0.7,1.2,1.4,1.4c1.7,0.3,3.3-1.1,4.9-0.8
				c0.7,0.1,1.3,0.5,1.6,1.1c0.8,1.6-0.8,3.5-1,5.4c-0.2,2,1.3,3.5,3,3.9c2.3,0.5,4.7,0.1,6.7-1.2c1.4-0.9,2.7-2.1,3.5-3.6
				c-0.1,0.2-0.1,0.4-0.2,0.7c0.9-1.8,1.6-3.6,2-5.6C715.5,716.9,715.1,715.2,714,713.8z"/>
			<path class="st5" d="M711.6,731.6c-0.4,0.2-0.7,0.1-0.7-0.1c-1-5.2-3.6-9.8-6.8-15.1c-3.3-5.2-7-11-10.8-14.6
				c-0.2-0.3-0.2-0.7-0.1-1c0.1-0.4,0.4-0.5,0.7-0.3c3.8,3.8,7.7,9.8,11.1,15.1c3.4,5.4,6.1,9.9,7.2,15
				C712.2,731.1,711.9,731.4,711.6,731.6L711.6,731.6z"/>
			<path class="st3" d="M702.9,717.8c-0.7-0.7-1.6-1-2.6-0.9c-0.9,0.2-1.8,0.2-2.7,0.2c-1-0.1-1.8-1-1.9-2c-0.2-1.7,1.2-3,1.6-4.6
				c0.3-1.7-0.1-3.6-1.3-4.9c-1-1.2-2.1-1.8-3.1-2.7c-0.7-0.7-1.1-1.7-0.8-2.6c0.1-0.7,0.6-1.2,1.2-1.4c0.5-0.1,1,0.1,1.4,0.3
				c0.9,0.4,1.8,1,2.8,1.5c0.5,0.3,2,1.7,2,0.4c0-0.1,0-0.2,0-0.2c-0.2,0-0.5,0-0.7,0c-1.3-0.1-2.6-1-3.8-1.6s-2.4-0.9-3.7-0.1h-0.1
				c-1.6,1.2-1.8,4.8-0.2,4.9c0.8,0.1,1.7,0.4,2.3,1c1.6,1.6,2.3,3.9,1.7,6.1c-0.5,2-2.4,4-1.8,6c0.2,0.7,0.7,1.2,1.4,1.4
				c1.7,0.3,3.3-1.1,4.9-0.8c0.7,0.1,1.3,0.5,1.6,1.1c0.8,1.6-0.8,3.5-1,5.4c0,0.2,0,0.5,0,0.7c0.9-1,1.7-2,2.5-3
				C703.5,720.6,703.8,718.9,702.9,717.8z"/>
			<path class="st11" d="M717.3,708.1c-1.3-0.7-2.8-1-3.8-2.1c-1.1-1.4-1.1-3.3-1.2-5.1c-0.1-1.7-0.6-3.9-2-5.1
				c-1.7-1.6-3.7-0.2-5.4-1.4c-1.2-0.8-1.8-2.6-2.5-4.3c-0.6-1.6-1.4-3.1-2.6-4.4c-1.1-1.1-2.3-1.4-3.5-0.6c-1.1,0.9-2,3-1.9,4.9
				c0.2,1.9,1.3,3,2.3,4.1s2.2,2.5,2.2,4.5c0,2.4-1.7,4.1-2.7,6.1c-0.8,1.9-1,4-0.5,6c0.4,1.7,1.8,3,3.5,3.4
				c1.2,0.2,2.4-0.2,3.6-0.3s2.6,0.2,3.3,1.3c1,1.5,0.2,3.7-0.1,5.7c-0.4,2.6,0.1,5.1,1.6,6.6c2.2,2.6,9.1,1.4,11.3-3.4
				c1-2,1.3-3.9,1.8-5.7c0.8-2.3,1.2-4.2,0.5-6C720.7,710.5,719.2,709,717.3,708.1z"/>
			<path class="st13" d="M700.2,729.6l4.4,49c0.2,2.1,1.9,3.6,4,3.6h14.3c2.1,0,3.9-1.6,4-3.7l3.7-49h-30.4V729.6z"/>
			<path class="st9" d="M721,770.8c-0.8-0.5-1.6-1.1-2.3-1.9c-0.7-0.8-1.6-1.6-2.6-2.1c-1.6-0.7-3.4-0.2-4.7,0.2
				c-0.7,0.3-1.4,0.7-2,1c-0.7,0.4-1.4,0.7-2.1,1c-1.2,0.4-2.4,0.7-3.7,0.7l0.1,0.7c1.3,0,2.6-0.2,3.8-0.7c0.7-0.3,1.4-0.6,2.1-1
				c0.7-0.3,1.3-0.7,1.9-0.9c1.1-0.4,2.7-0.8,4.1-0.2c0.9,0.5,1.7,1.1,2.4,1.9c0.7,0.8,1.5,1.5,2.4,2c0.7,0.3,1.4,0.5,2.1,0.5
				c1.1,0,2.3-0.3,3.3-0.7c0.5-0.2,1-0.4,1.4-0.7l0.1-0.8c-0.5,0.3-1.1,0.5-1.7,0.8C724.5,771,722.6,771.5,721,770.8z"/>
			<path class="st9" d="M701.2,740.9c2.4,0.8,4.9,0.5,7.2-0.8c0.7-0.5,1.4-1,2-1.6c1.1-1,2.1-1.8,3.4-2.1c2.1-0.4,4.2,1.1,6.1,2.6
				c1.7,1.4,3.6,2.7,5.6,2.7c0.4,0,0.7-0.1,1.1-0.1c1-0.3,1.8-0.8,2.6-1.4c0.2-0.2,0.5-0.3,0.7-0.5l0.1-0.8
				c-0.4,0.2-0.8,0.5-1.1,0.7c-0.7,0.6-1.6,1-2.4,1.3c-2.1,0.5-4.2-0.9-6.1-2.5c-1.9-1.6-4.2-3.3-6.6-2.8c-1.5,0.3-2.6,1.3-3.8,2.3
				c-0.6,0.5-1.3,1.1-1.9,1.6c-2.1,1.3-4.7,1.3-6.9,0.7L701.2,740.9L701.2,740.9z"/>
			<path class="st9" d="M726.7,774c-1.6,0.8-3.5,0.8-5.2,0.2c-0.9-0.5-1.7-1-2.4-1.7c-1-0.9-2.1-1.8-3.5-2.1
				c-1.6-0.4-3.2,0.1-5.3,1.5c-0.3,0.2-0.7,0.4-1,0.7c-1.1,0.8-2.3,1.6-3.7,2c-0.5,0.1-1,0.2-1.5,0.2l0.1,0.7c0.5,0,1.1-0.1,1.6-0.2
				c1.4-0.5,2.7-1.1,3.9-2c0.3-0.2,0.7-0.4,0.9-0.7c1.9-1.3,3.5-1.7,4.8-1.4c1.2,0.2,2.1,1.1,3.2,1.9c0.8,0.7,1.6,1.3,2.6,1.8
				c1.8,0.7,3.9,0.7,5.7-0.2l0.2-0.1l0.1-0.7C727.1,773.8,726.9,773.9,726.7,774z"/>
			<path class="st9" d="M727.8,760.3c-1,0.5-1.9,0.9-2.9,1.3c-1.2,0.4-4.2,1.3-6.3-0.4c-0.5-0.4-1-1-1.4-1.5c-0.8-1-1.6-1.9-2.7-2.2
				c-1-0.2-2,0-2.9,0.5c-0.5,0.2-1,0.5-1.4,0.8c-0.3,0.2-0.7,0.4-1,0.6c-1.8,1.1-4,1.5-6.1,1.3l0.1,0.7c2.2,0.2,4.5-0.3,6.4-1.4
				c0.4-0.2,0.7-0.4,1-0.7c0.4-0.3,0.9-0.6,1.4-0.8c0.7-0.4,1.6-0.6,2.4-0.4c1,0.2,1.7,1.1,2.4,2c0.4,0.6,1,1.1,1.5,1.6
				c1,0.8,2.3,1.2,3.6,1.1c1.1,0,2.3-0.2,3.3-0.7c1-0.4,2-0.8,3-1.3l0.2-0.1l0.1-0.8L727.8,760.3z"/>
			<path class="st9" d="M726.3,756.4c-1.4,0.7-3.3,1.4-5.1,1c-1.3-0.4-2.3-1.1-3.3-1.9c-1.3-1-2.7-2.1-4.4-2.1l0,0
				c-1.1,0.1-2.1,0.4-3.1,0.9l-0.8,0.4c-2.3,0.9-4.7,1.1-7,0.7l0.1,0.7c2.4,0.4,4.9,0.2,7.3-0.7c0.3-0.1,0.5-0.2,0.8-0.4
				c0.9-0.5,1.9-0.8,2.9-0.8c1.5,0,2.7,1,4,2c1,0.9,2.3,1.6,3.6,2c0.4,0.1,0.8,0.2,1.3,0.2c1.5-0.1,2.9-0.5,4.2-1.2l0.9-0.4
				c0.4-0.2,0.7-0.4,1.1-0.5l0.1-0.7c-0.5,0.2-1,0.5-1.4,0.7L726.3,756.4z"/>
			<path class="st9" d="M729.1,744.7c-1.1,0.7-2.2,1.3-3.4,1.3h-0.1c-2,0-3.6-1.6-5.1-3s-3.6-3.2-5.9-2.6c-1,0.3-1.8,0.7-2.6,1.4
				c-0.2,0.1-0.4,0.3-0.5,0.4c-2.9,2-6.6,2.7-10.1,2l0.1,0.7c3.6,0.7,7.3-0.1,10.4-2.1l0.6-0.4c0.7-0.6,1.5-1,2.3-1.3
				c2-0.5,4,1.2,5.3,2.4c1.6,1.5,3.3,3.2,5.5,3.2h0.1c1.4,0,2.5-0.7,3.6-1.4l0.1-0.8L729.1,744.7z"/>
			<path class="st14" d="M715.4,721.7c0.2-3.6,1.8-7.4,5-9.2c1.3-0.7,2.7-1.1,3.7-2.2c1-1.1,1.1-2.6,1-4.1c-0.2-1.4-0.2-2.9-0.2-4.3
				c0.1-1.4,0.8-2.9,2.1-3.5c1.5-0.7,3.2,0.1,4.7-0.1c1.8-0.2,3.2-1.7,4.4-3.2c1.1-1.4,2.3-3,3.9-3.8c1.7-0.7,4.1-0.2,4.6,1.6
				c0.4,1.6-1,3.2-2.3,4.1c-1.4,1-3,1.7-3.7,3.3s0,3.4,1,4.8c1,1.4,2.2,2.6,3,4.1s1.2,3.4,0.2,4.8c-1,1.5-3,1.8-4.8,2.2
				c-1.7,0.5-3.7,1.6-3.6,3.4c0.1,1.2,1.1,2.1,1.4,3.3c0.7,1.8-0.4,3.9-1.9,5s-3.5,1.6-5.4,2l-6.1,1.4c-1.2,0.2-4.2,1.6-5.2,0.8
				s-1.2-3.7-1.4-4.8C715.6,725.6,715.3,723.7,715.4,721.7z"/>
			<path class="st14" d="M723.1,739.9L723.1,739.9c-0.4,0-0.7-0.4-0.7-0.7l0,0c0.4-16.2,6.3-31.8,16.9-44.1c0.3-0.3,0.8-0.3,1,0
				c0.2,0.2,0.3,0.7,0.1,1c-10.3,12-16.2,27.3-16.5,43.1C723.8,739.6,723.5,739.9,723.1,739.9z"/>
			<path class="st14" d="M740.2,691.6c-1.1,0.5-2.1,1.4-2.8,2.4l0.2-0.1c1.2-0.5,2.9-1,3.8,0c0.7,0.8,0.4,2-0.2,2.9
				c-0.7,0.8-1.4,1.5-2.2,2.1c-2.1,2.3-2.6,5.7-1.1,8.5c0.5,1,1.4,1.8,1.8,2.9s0.7,2.3-0.1,3.2c-1.2,1.4-3.6,0.5-5.3,1.1
				s-2.5,2.4-2.6,4.2s0.6,3.4,1.1,5.1c0.5,1.7,0.8,3.5,0.1,5.1c0.4-0.2,0.8-0.5,1.2-0.7c1.6-1.1,2.6-3.2,1.9-5
				c-0.4-1.1-1.4-2.1-1.4-3.3c-0.1-1.8,1.8-3,3.6-3.4c1.7-0.5,3.8-0.7,4.8-2.2c1-1.4,0.6-3.3-0.2-4.8c-0.8-1.4-2.1-2.6-3-4.1
				c-1-1.4-1.6-3.2-1-4.8c0.7-1.6,2.3-2.4,3.7-3.3c1.4-1,2.7-2.4,2.3-4.1C744.3,691.4,741.8,690.8,740.2,691.6z"/>
			<path class="st14" d="M705,728.9c-0.8-3.9,0.4-7.9,3.3-10.6c1-0.7,1.8-1.6,2.6-2.4c1.5-2.1,1-5.1-0.2-7.4
				c-1.4-2.7-3.5-5.2-3.9-8.3c-0.2-1.3,0-2.7,0.7-3.8c1.9-3.3,5.4-1.7,8-2.9c2.2-1,3.1-3.7,3.2-6.1c0.1-2.4-0.4-4.9,0.2-7.3
				c0.1-0.2,0.1-0.4,0.2-0.7c0.4-1.4,1.9-2.1,3.3-1.7c1,0.4,1.7,1.3,1.8,2.3l0.5,6.8c0,0.5,0.1,1.1,0.3,1.6c0.9,2,3.7,2,5.9,2.6
				c3.9,1.1,6.3,5.1,5.2,9.1c-0.3,1-0.8,2-1.4,2.7c-2.1,2.6-6.1,3.9-7,7.2c-0.5,1.8,0.2,3.6,0.5,5.5c1,5.1-0.4,10.4-3.6,14.5
				c-2.7,3.3-7.1,6.1-11.5,6.5C709,736.8,705.8,732.4,705,728.9z"/>
			<path class="st14" d="M719.9,741.7c-0.4,0-0.7-0.3-0.7-0.7c-0.8-18.4-0.1-37,2.1-55.3c0.1-0.4,0.4-0.7,0.8-0.7
				c0.4,0.1,0.7,0.4,0.7,0.8l0,0c-2.1,18.2-2.9,36.7-2.1,55C720.7,741.3,720.3,741.6,719.9,741.7L719.9,741.7L719.9,741.7z"/>
			<path class="st14" d="M735.9,695.9c-0.8-2.4-2.7-4.2-5.1-4.9c-2.1-0.6-5-0.5-5.9-2.6c-0.2-0.5-0.3-1.1-0.3-1.6l-0.5-6.8
				c-0.1-1.4-1.3-2.5-2.7-2.4c-1.1,0.1-2,0.8-2.3,1.8c-0.1,0.2-0.1,0.4-0.2,0.7c-0.5,2.4-0.1,4.8-0.2,7.3c-0.1,2.4-1,5.1-3.2,6.1
				c-2.6,1.2-6.1-0.4-8,2.9c-0.5,0.8-0.7,1.8-0.7,2.8c0.2,0,0.3-0.1,0.4-0.2c0.4-0.4,0.7-1,1.1-1.4c0.5-0.4,1.1-0.8,1.7-1
				c1.5-0.6,3-0.8,4.5-1.4c3.3-1.6,5.4-5,5.2-8.7c-0.2-0.9-0.2-1.8-0.2-2.7c0.1-1,0.8-1.7,1.7-1.9c1.3-0.1,2.1,1.5,2.2,2.8
				c0.1,2.4-0.8,5.1,0.2,7.3c1,2.1,3.3,3,5.3,4.1s4,3.1,3.5,5.3c-0.7,2.7-4.2,3.3-6,5.4c-1.3,1.6-1.4,3.9-0.8,5.9
				c0.7,1.8,1.6,3.5,2.8,5c-0.1-0.7-0.1-1.4-0.2-2.1c-0.4-1.8-1-3.7-0.5-5.5c0.9-3.3,4.8-4.5,7-7.2
				C736.2,700.9,736.6,698.3,735.9,695.9z"/>
			<path class="st14" d="M715.9,713.2c-1.3-3.2-4.4-5.8-7.9-5.2c-1,0.2-1.9,0.2-2.8-0.1c-4.1-1.2-1.7-5.4-3.3-7.9
				c-0.9-1.3-2.6-1.7-4.2-1.6c-1.6,0.1-3,0.7-4.6,0.8c-2.1,0.2-4.3-0.5-6.4-1.1c-2.1-0.5-4.4-0.9-6.4-0.1h-0.1
				c-2.6,1.1-2,4.9,0.8,5.2c1.4,0.1,2.7,0.5,4,1.1c2.3,1.2,4.2,3.8,3.5,6.4c-0.7,2.2-3,4.2-1.9,6.3c0.4,0.8,1.3,1.3,2.1,1.5
				c2.3,0.4,4.4-1,6.7-0.7c0.9,0.1,1.7,0.7,2.1,1.4c1.1,1.9-1,3.9-1.3,6c-0.2,2.3,1.7,4.2,3.6,5.2c2.4,1.4,5.2,1.8,7.9,1.4
				c1.8-0.4,3.5-1.6,4.7-3l-0.4,0.8c1.6-2.4,2.9-5.1,3.8-7.9C716.7,719.1,717,716,715.9,713.2z"/>
			<path class="st14" d="M709,739.3c-0.4,0-0.7-0.3-0.7-0.7c-0.8-15.9-9.8-30.1-23.9-37.5c-0.3-0.2-0.4-0.7-0.1-1
				c0.2-0.2,0.5-0.4,0.8-0.2c14.5,7.6,23.9,22.4,24.7,38.8C709.7,738.9,709.4,739.2,709,739.3L709,739.3z"/>
			<path class="st14" d="M699.6,718.3c-0.8-1-2.2-1.2-3.5-1.2c-1.3,0.1-2.5,0.2-3.8,0.1c-1.3-0.2-2.5-1-2.8-2.1
				c-0.4-1.7,1.4-3.2,1.8-4.9c0.5-2-0.7-4-2.4-5.2s-3.6-1.8-5.4-2.7c-1.1-0.6-2.2-1.6-1.9-2.7c0.2-0.8,1-1.4,1.8-1.5s1.7,0,2.4,0.3
				l4.8,1.2c0.8,0.2,3.5,1.4,3.4-0.1c0-0.1,0-0.2,0-0.2c-0.4,0.1-0.8,0.1-1.3,0.2c-2.1,0.2-4.3-0.5-6.4-1.1
				c-2.1-0.5-4.4-0.9-6.4-0.1h-0.1c-2.6,1.1-2,4.9,0.8,5.2c1.4,0.1,2.7,0.5,4,1.1c2.3,1.2,4.2,3.8,3.5,6.4c-0.7,2.2-3,4.2-1.9,6.3
				c0.4,0.8,1.3,1.3,2.1,1.5c2.3,0.4,4.4-1,6.7-0.7c0.9,0.1,1.7,0.7,2.1,1.4c1.1,1.9-1,3.9-1.3,6c0,0.2,0,0.5,0,0.8
				c1.1-1,2.1-2,3.1-3C700.3,721.7,700.8,719.6,699.6,718.3z"/>
			<path class="st14" d="M719.8,705.7c-1.7-1-3.8-1.6-5.1-3.1c-1.6-1.8-1.4-4.5-1.3-7c0.1-2.4-0.5-5.2-2.7-6.3
				c-2.6-1.2-5.8,1.1-8.6,0.2c-1.9-0.6-3-2.6-4.2-4.2c-1.1-1.8-2.7-3.2-4.6-4.2c-1.9-1-4.1-1-6.1-0.1c-1.8,1-3,3.3-2.4,5.2
				s2.7,3.2,4.5,4.2s3.8,2.5,4,4.6c0.2,2.6-2.3,4.5-3.4,6.7c-1.8,3.5-0.4,7.8,3,9.5c0.7,0.4,1.4,0.6,2.1,0.7c1.6,0.2,3.3-0.1,4.9,0
				c1.7,0.1,3.5,0.5,4.4,1.8c1.3,1.9,0.2,4.5-0.2,6.8c-0.5,3,0.2,6.1,1.9,8.6c2.7,3.8,10.4,7.5,13.5,2.3c1.4-2.2,2-5,3.1-7.4
				c1.4-3.2,2.4-6.5,2-10C724.4,710.9,722.8,707.5,719.8,705.7z"/>
			<path class="st14" d="M715,742.6L715,742.6c-0.5-0.1-0.8-0.4-0.8-0.8l0,0c2.9-21.1-6.1-42.1-23.3-54.7c-0.4-0.2-0.5-0.7-0.2-1
				c0.2-0.4,0.7-0.5,1-0.2c0.1,0,0.1,0.1,0.1,0.1c17.7,12.9,26.8,34.4,23.9,56.1C715.7,742.3,715.3,742.6,715,742.6z"/>
			<path class="st15" d="M710.3,693.7c0.9,1.4,0.6,3.2,1.1,4.8c0.4,1.3,1.4,2.3,2.6,2.9c-0.7-1.7-0.6-3.8-0.5-5.7
				c0-2.4-0.5-5.2-2.7-6.3c-2.6-1.2-5.8,1.1-8.6,0.2c-1.9-0.6-3-2.6-4.2-4.2c-1.1-1.8-2.7-3.2-4.6-4.2c-1.9-1-4.1-1-6.1-0.1
				c-1.8,1-3,3.3-2.4,5.2c0.6,2,2.7,3.2,4.5,4.2s3.8,2.5,4,4.6c0.2,2.6-2.3,4.5-3.4,6.7c-1.8,3.5-0.5,7.7,3,9.5
				c0.1,0.1,0.2,0.1,0.4,0.2c-0.9-1.1-1.3-2.6-1.1-4c0.3-2.6,2.4-4.7,3.1-7.2c0.7-2.6-0.3-5.2-1.7-7.5c-1.4-2.2-3.3-4.1-4.8-6.3
				c-0.8-1.1-1.4-2.7-0.7-3.8c0.8-1.1,2.6-0.9,3.8-0.3c4,2.1,5.8,7.3,10.1,8.6c1.4,0.5,3,0.4,4.5,0.6
				C708,691.9,709.5,692.5,710.3,693.7z"/>
			<path class="st5" d="M715.8,733.6L715.8,733.6c-0.4,0.2-0.7,0.2-0.7-0.2c0.7-8.1-1.3-14.1-4.5-21.1c-3.6-7.5-7.8-14.7-12.5-21.4
				c-0.2-0.3-0.2-0.7,0-1s0.4-0.3,0.7-0.1c4.8,6.7,9.5,15.1,12.9,21.9c3.4,7,5.5,12.9,4.8,20.9C716.4,733.1,716.1,733.4,715.8,733.6
				z"/>
			<g class="st16">
				<path class="st17" d="M710.2,699.1c0.7,1.2,0.5,2.5,0.8,3.7c0.3,1,1,1.8,1.8,2.3c-0.5-1.3-0.5-2.7-0.7-4.1
					c-0.1-1.7-0.6-3.9-2-5.1c-1.7-1.6-3.7-0.2-5.4-1.4c-1.2-0.8-1.8-2.6-2.5-4.3c-0.6-1.6-1.4-3.1-2.6-4.4c-1.1-1.1-2.3-1.4-3.5-0.6
					c-1.1,0.9-2,3-1.9,4.9c0.2,1.9,1.3,3,2.3,4.1s2.2,2.5,2.2,4.5c0,2.4-1.7,4.1-2.7,6.1c-0.8,1.9-1,4-0.5,6
					c0.4,1.3,1.1,2.3,2.2,2.9c-0.6-1.1-0.8-2.4-0.5-3.7c0.4-2.4,2-4.3,2.6-6.6c0.5-2.3,0-4.8-0.7-6.9c-0.7-2.1-1.8-4-2.5-6.1
					c-0.4-1.1-0.7-2.6-0.1-3.6c0.6-1,1.6-0.7,2.2,0c2.2,2.3,3.1,7.3,5.8,9c1,0.5,1.9,0.8,2.9,1.1
					C708.7,697.3,709.7,698.1,710.2,699.1z"/>
			</g>
			<path class="st10" d="M706.8,733c-0.8,14.8-1.1,29.9-1,44.5c-0.1,1.4,1,2.7,2.4,2.8c0.3,0,0.7,0,1-0.1c4.7-1.2,9.1-3.1,13.2-5.7
				c1.9-1.2,3.3-3.4,3.3-4.8c-0.2-11.1-0.7-21-1.6-29.6C718.5,735.6,712.2,732.8,706.8,733z"/>
			<g class="st16">
				<path class="st17" d="M721,770.8c-0.8-0.5-1.6-1.1-2.3-1.9c-0.7-0.8-1.6-1.6-2.6-2.1c-1.6-0.7-3.4-0.2-4.7,0.2
					c-0.7,0.3-1.4,0.7-2,1c-0.7,0.4-1.4,0.7-2.1,1c-1.2,0.4-2.4,0.7-3.7,0.7l0.1,0.7c1.3,0,2.6-0.2,3.8-0.7c0.7-0.3,1.4-0.6,2.1-1
					c0.7-0.3,1.3-0.7,1.9-0.9c1.1-0.4,2.7-0.8,4.1-0.2c0.9,0.5,1.7,1.1,2.4,1.9c0.7,0.8,1.5,1.5,2.4,2c0.7,0.3,1.4,0.5,2.1,0.5
					c1.1,0,2.3-0.3,3.3-0.7c0.5-0.2,1-0.4,1.4-0.7l0.1-0.8c-0.5,0.3-1.1,0.5-1.7,0.8C724.5,771,722.6,771.5,721,770.8z"/>
				<path class="st17" d="M701.2,740.9c2.4,0.8,4.9,0.5,7.2-0.8c0.7-0.5,1.4-1,2-1.6c1.1-1,2.1-1.8,3.4-2.1c2.1-0.4,4.2,1.1,6.1,2.6
					c1.7,1.4,3.6,2.7,5.6,2.7c0.4,0,0.7-0.1,1.1-0.1c1-0.3,1.8-0.8,2.6-1.4c0.2-0.2,0.5-0.3,0.7-0.5l0.1-0.8
					c-0.4,0.2-0.8,0.5-1.1,0.7c-0.7,0.6-1.6,1-2.4,1.3c-2.1,0.5-4.2-0.9-6.1-2.5c-1.9-1.6-4.2-3.3-6.6-2.8c-1.5,0.3-2.6,1.3-3.8,2.3
					c-0.6,0.5-1.3,1.1-1.9,1.6c-2.1,1.3-4.7,1.3-6.9,0.7L701.2,740.9L701.2,740.9z"/>
				<path class="st17" d="M726.7,774c-1.6,0.8-3.5,0.8-5.2,0.2c-0.9-0.5-1.7-1-2.4-1.7c-1-0.9-2.1-1.8-3.5-2.1
					c-1.6-0.4-3.2,0.1-5.3,1.5c-0.3,0.2-0.7,0.4-1,0.7c-1.1,0.8-2.3,1.6-3.7,2c-0.5,0.1-1,0.2-1.5,0.2l0.1,0.7
					c0.5,0,1.1-0.1,1.6-0.2c1.4-0.5,2.7-1.1,3.9-2c0.3-0.2,0.7-0.4,0.9-0.7c1.9-1.3,3.5-1.7,4.8-1.4c1.2,0.2,2.1,1.1,3.2,1.9
					c0.8,0.7,1.6,1.3,2.6,1.8c1.8,0.7,3.9,0.7,5.7-0.2l0.2-0.1l0.1-0.7C727.1,773.8,726.9,773.9,726.7,774z"/>
				<path class="st17" d="M727.8,760.3c-1,0.5-1.9,0.9-2.9,1.3c-1.2,0.4-4.2,1.3-6.3-0.4c-0.5-0.4-1-1-1.4-1.5
					c-0.8-1-1.6-1.9-2.7-2.2c-1-0.2-2,0-2.9,0.5c-0.5,0.2-1,0.5-1.4,0.8c-0.3,0.2-0.7,0.4-1,0.6c-1.8,1.1-4,1.5-6.1,1.3l0.1,0.7
					c2.2,0.2,4.5-0.3,6.4-1.4c0.4-0.2,0.7-0.4,1-0.7c0.4-0.3,0.9-0.6,1.4-0.8c0.7-0.4,1.6-0.6,2.4-0.4c1,0.2,1.7,1.1,2.4,2
					c0.4,0.6,1,1.1,1.5,1.6c1,0.8,2.3,1.2,3.6,1.1c1.1,0,2.3-0.2,3.3-0.7c1-0.4,2-0.8,3-1.3l0.2-0.1l0.1-0.8L727.8,760.3z"/>
				<path class="st17" d="M726.3,756.4c-1.4,0.7-3.3,1.4-5.1,1c-1.3-0.4-2.3-1.1-3.3-1.9c-1.3-1-2.7-2.1-4.4-2.1l0,0
					c-1.1,0.1-2.1,0.4-3.1,0.9l-0.8,0.4c-2.3,0.9-4.7,1.1-7,0.7l0.1,0.7c2.4,0.4,4.9,0.2,7.3-0.7c0.3-0.1,0.5-0.2,0.8-0.4
					c0.9-0.5,1.9-0.8,2.9-0.8c1.5,0,2.7,1,4,2c1,0.9,2.3,1.6,3.6,2c0.4,0.1,0.8,0.2,1.3,0.2c1.5-0.1,2.9-0.5,4.2-1.2l0.9-0.4
					c0.4-0.2,0.7-0.4,1.1-0.5l0.1-0.7c-0.5,0.2-1,0.5-1.4,0.7L726.3,756.4z"/>
				<path class="st17" d="M729.1,744.7c-1.1,0.7-2.2,1.3-3.4,1.3h-0.1c-2,0-3.6-1.6-5.1-3s-3.6-3.2-5.9-2.6c-1,0.3-1.8,0.7-2.6,1.4
					c-0.2,0.1-0.4,0.3-0.5,0.4c-2.9,2-6.6,2.7-10.1,2l0.1,0.7c3.6,0.7,7.3-0.1,10.4-2.1l0.6-0.4c0.7-0.6,1.5-1,2.3-1.3
					c2-0.5,4,1.2,5.3,2.4c1.6,1.5,3.3,3.2,5.5,3.2h0.1c1.4,0,2.5-0.7,3.6-1.4l0.1-0.8L729.1,744.7z"/>
			</g>
		</g>
		<g id="Head">
			<g>
				<g>
					<path class="st1" d="M285.3,759.9c-0.4-1.3-0.8-2.6-1-3.9c-2.1-13.2,6.9-25.6,20-27.7c13.2-2.1,25.6,6.9,27.7,20
						c0.2,1.3,0.3,2.5,0.3,3.8c0,2.2-0.3,4.4-0.9,6.5h4.3c0.9-3.6,1-7.4,0.4-11c-2.5-15.4-17-25.9-32.4-23.5
						c-15.4,2.5-25.9,17-23.5,32.4c0.2,1.2,0.5,2.5,0.9,3.7C282.5,760.1,283.9,760,285.3,759.9z"/>
					<path class="st1" d="M289.4,759.5c-3-0.9-4.9-2.2-5.1-3.6c-0.3-1.7,1.8-4,5.4-6.1c5.3-2.9,11.2-4.8,17.2-5.6
						c14.8-2.4,24.6,0.8,25.1,4.1c0,0.1,0,0.2,0,0.3c0,1.7-2,3.9-5.5,5.8c-3.3,1.8-6.8,3.2-10.4,4.2c3.8,0,7.6,0,11.4,0
						c0.4-0.2,0.8-0.4,1.1-0.6c5.4-3.1,8-6.8,7.5-10.4c-1.2-7.8-16.3-9.7-29.9-7.5c-6.5,0.9-12.8,3-18.6,6.1
						c-4.9,2.9-7.5,6.2-7.5,9.4c0,0.3,0,0.6,0.1,1c0.2,1.4,0.9,2.6,1.9,3.6C284.5,759.9,286.9,759.7,289.4,759.5z"/>
					<path class="st1" d="M301.4,758.9c-0.4-1.8-0.8-3.6-1.1-5.5c-2.4-14.8,0.8-24.6,4.1-25.1c1.7-0.3,4,1.8,6.1,5.4
						c2.9,5.3,4.8,11.2,5.6,17.2c0.4,2.6,0.7,5.1,0.8,7.7h4.1c-0.1-2.8-0.4-5.6-0.8-8.4c-0.9-6.5-3-12.8-6.1-18.5
						c-3.1-5.4-6.8-8-10.4-7.5c-5.8,0.9-8.3,9.6-8.3,19.5c0,3.5,0.3,6.9,0.8,10.3c0.3,1.7,0.6,3.4,1,5L301.4,758.9z"/>
				</g>
			</g>
			<path class="st9" d="M865.1,490.6c-1.1,3.1-2.4,6.2-3.4,9.3c-1,3.1-1.7,6.3-2,9.5c-0.4,3.2-0.3,6.5,0.3,9.7c0.7,3.2,2,6.2,4,8.8
				c4,5.2,10,8.6,16.2,10.5c6.3,2,12.8,3,19.4,2.7c6.6-0.3,13-1.6,19.2-4c6-2.4,11.8-5.9,15.6-11.1c0.9-1.3,1.7-2.7,2.3-4.1
				c0.6-1.4,1.1-3,1.3-4.5c0.2-0.8,0.2-1.6,0.3-2.3c0.1-0.8,0.1-1.6,0-2.4c-0.1-1.6-0.1-3.2-0.3-4.9c-0.7-6.5-1.8-13-3.2-19.4
				s-3-12.9-4.6-19.2l-2.5-9.6l-1.2-4.8c-0.4-1.6-0.8-3.2-1.2-5c-0.2-1-0.3-1.7-0.4-2.5l-0.3-2.4c-0.3-1.6-0.6-3.1-0.9-4.7
				c-0.7-3.1-1.8-6-3.2-8.8c-1.3-2.7-3.2-5.1-5.5-7.1c-2.3-1.9-5.1-3.2-8-3.9c-3.1-0.7-6.2-1-9.4-1c-3.1-0.1-6.3,0.3-9.3,1.2
				l-2.3,0.7c-0.7,0.3-1.4,0.6-2.1,0.9c-0.4,0.2-0.7,0.3-1.1,0.5l-1.1,0.6c-0.7,0.4-1.4,0.8-2,1.2c-1.3,0.9-2.5,1.9-3.7,3l-0.9,0.8
				l-0.4,0.4l-0.4,0.5l-1.5,1.9c-0.5,0.6-1,1.3-1.4,2s-0.9,1.4-1.3,2.1l-1.1,2.2c-0.4,0.7-0.7,1.5-0.9,2.3c-1.1,3.1-1.9,6.3-2.3,9.6
				l-0.3,2.5c-0.1,0.8-0.2,1.6-0.2,2.5c0,1.7,0,3.3,0,5l0.4,4.9c0.1,0.8,0.1,1.7,0.2,2.5s-0.3,1.7,1.4,2.4l-2.1,0.2
				c1.4-1,0.7-1.7,0.7-2.6c0-0.8-0.2-1.6-0.3-2.5l-0.5-4.9c0-1.7,0-3.3-0.1-5c0-0.8,0-1.7,0.1-2.5l0.2-2.5c0.6-6.6,2.2-13.3,5.9-19
				l1.4-2.1l0.4-0.5l0.4-0.5l0.8-1c3.4-3.9,7.8-6.9,12.7-8.6c3.3-1.2,6.7-1.8,10.2-1.9c3.5-0.2,6.9,0,10.3,0.7
				c3.5,0.7,6.9,2.3,9.7,4.5c2.8,2.3,5,5.2,6.6,8.4c1.5,3.1,2.7,6.4,3.5,9.8c0.3,1.7,0.7,3.3,0.9,5l0.3,2.5c0.1,0.8,0.2,1.8,0.3,2.4
				c0.2,1.4,0.7,3.1,1.1,4.7l1.2,4.8c0.8,3.2,1.5,6.4,2.3,9.7c1.5,6.4,2.9,13,4.1,19.5c1.3,6.5,2.2,13.2,2.7,19.8
				c0.2,1.7,0.1,3.4,0.2,5c0,0.8-0.1,1.7-0.1,2.6c-0.1,0.9-0.2,1.7-0.4,2.6c-0.7,3.4-2.2,6.6-4.3,9.3s-4.7,5-7.6,6.8
				c-2.8,1.8-5.9,3.3-9,4.4c-6.3,2.2-12.9,3.5-19.6,3.7c-6.7,0.1-13.3-0.9-19.7-3c-3.2-1-6.2-2.4-9.1-4.2c-2.9-1.7-5.4-4-7.5-6.6
				s-3.6-5.7-4.4-9c-0.7-3.3-0.8-6.7-0.5-10s0.8-6.7,1.7-9.9c0.9-3.2,2-6.4,2.9-9.5L865.1,490.6z"/>
			<path class="st18" d="M875.2,459.5c1.9,1.1,3.9,2.1,5.8,3.2l6,3.1c2,1.1,4,2,5.9,3.1l0.4,0.2c0.1,0,0.1,0.1,0.2,0.1
				c0.4,0.1,0.8,0,1.1-0.2c0.1-0.1,0.1-0.2,0.2-0.3c0-0.1,0.1-0.2,0.1-0.3l0.1-0.4l0.6-1.5c1.5-4.2,2.8-8.4,4-12.6s2-8.5,2.5-12.9
				c0.2-2.1,0.1-4.2-0.4-6.3c-0.2-1-0.7-1.8-1.3-2.6c-0.6-0.7-1.5-1.1-2.4-1.1c-1.9,0-3.8,1.3-5.5,2.6c-1.7,1.4-3.3,2.9-4.7,4.6
				c-2.9,3.3-5.6,6.9-8.1,10.6c-1.2,1.8-2.4,3.7-3.6,5.6c-0.6,0.9-1.2,1.9-1.7,2.8C874.1,457.9,874.4,459,875.2,459.5z M874.8,460.1
				c-1.2-0.7-1.7-2.2-1.1-3.4c0.6-1,1.1-1.9,1.7-2.9c1.2-1.9,2.4-3.8,3.6-5.7c2.4-3.8,5.1-7.4,7.9-10.9c1.4-1.7,3-3.4,4.7-4.9
				c0.9-0.8,1.8-1.4,2.8-2c1.1-0.6,2.3-1,3.5-1.1c1.4,0,2.7,0.5,3.6,1.5c0.9,0.9,1.5,2,1.8,3.2c0.6,2.3,0.8,4.6,0.7,7
				c-0.3,4.5-1,9-2.2,13.4c-1.1,4.4-2.5,8.6-4,12.9l-0.6,1.6l-0.1,0.4l-0.2,0.5c-0.2,0.4-0.4,0.8-0.8,1.1c-0.6,0.6-1.5,0.9-2.4,0.9
				c-0.4,0-0.9-0.1-1.3-0.3c-0.2-0.1-0.4-0.2-0.5-0.3l-0.4-0.2c-1.9-1.2-3.8-2.4-5.6-3.6l-5.6-3.7
				C878.6,462.4,876.7,461.3,874.8,460.1z"/>
			<path class="st19" d="M939,518.5c0,31.8-85.4,34.7-80.1-0.7C865.3,549.4,929.1,549.4,939,518.5z"/>
			<path class="st9" d="M939.3,521.8c-2.5,9.7-6.1,19.1-10.7,28c-4.4,9-9.4,17.6-14.4,26.3c-5,8.6-10,17.3-14.6,26
				c-4.6,8.8-8.7,17.9-12.3,27.1c-7.2,18.6-12.2,37.9-15.1,57.6c-3,19.7-6.2,39.4-9.4,59.1l0,0v0.1v0.1c-1.2,1.9-3.1,3.1-5.2,3.6
				c-2.1,0.4-4.3,0.2-6.3-0.4c-2-0.6-4-1.3-5.8-2.3c-1.9-0.9-3.7-2-5.4-3.2l0,0l-0.2-0.1v-0.2c1.9-18.1,3.6-36.2,5.4-54.4
				c1.8-18.1,3.3-36.3,4.8-54.4l2.2-27.2c0.7-9.1,1.5-18.1,2.1-27.2l4.1-54.5l0,0l0.2-2l0.6,1.9c1.3,3.7,3.7,6.9,6.9,9.2
				s6.8,4.1,10.6,5.2c7.6,2.3,15.5,3.4,23.4,3c7.9-0.2,15.8-1.9,23-5.1c3.6-1.6,6.9-3.9,9.7-6.6c2.8-2.8,4.7-6.3,5.7-10.1l0.7,0.2
				c-0.9,4-3,7.6-5.8,10.5c-2.9,2.9-6.2,5.2-9.9,6.8c-7.4,3.2-15.3,5-23.3,5.2c-8,0.4-16-0.6-23.7-3c-3.8-1.2-7.5-3-10.7-5.4
				c-3.3-2.4-5.9-5.7-7.2-9.6l0.7-0.1l0,0l-0.6,13.7l-0.3,6.8l-0.4,6.8c-0.5,9.1-0.9,18.2-1.6,27.3c-0.7,9-1.3,18.2-2,27.3
				l-2.3,27.2c-1.6,18.1-3.3,36.3-5.3,54.4c-1.9,18.1-4,36.2-6.3,54.3l-0.2-0.4l0,0c1.7,1.2,3.4,2.3,5.3,3.2
				c1.8,0.9,3.7,1.7,5.7,2.3c1.9,0.6,4,0.7,6,0.4c2-0.4,3.7-1.5,4.8-3.2l-0.1,0.1l0,0c2.9-19.7,5.7-39.5,8.8-59.2
				c2.8-19.8,7.8-39.2,14.9-57.9c3.5-9.4,7.6-18.5,12.2-27.4c2.3-4.5,4.7-8.8,7.2-13.1l7.5-12.9c2.5-4.3,5-8.6,7.5-12.9
				c2.5-4.4,4.9-8.7,7.1-13.1c4.7-8.8,8.4-18,11.2-27.6L939.3,521.8z"/>
			<path class="st9" d="M889.2,623.3c1.6,4.3,2.8,8.6,4.2,13c1.3,4.3,2.5,8.7,3.8,13.1c2.5,8.7,4.8,17.5,7.2,26.2s4.6,17.5,6.9,26.3
				l3.3,13.2l3.2,13.2v0.1v0.1l0,0c-0.6,1.7-1.6,3.3-2.9,4.5c-1.3,1.2-2.8,2.3-4.4,3.1c-1.6,0.8-3.2,1.6-4.9,2.1
				c-1.7,0.6-3.4,1.1-5.1,1.4l-0.3,0.1l-0.1-0.3l-25.2-70l0.7-0.2l25.2,69.9l-0.4-0.2c1.7-0.4,3.4-0.8,5-1.4
				c1.6-0.6,3.2-1.2,4.8-2.1c1.5-0.8,2.9-1.8,4.2-3c1.2-1.2,2.2-2.6,2.7-4.2l0,0v0.2l-3.7-13.1l-3.6-13.1l-7-26.2l-7-26.3l-3.5-13.1
				c-1.2-4.4-2.3-8.8-3.8-13L889.2,623.3z"/>
			<path class="st9" d="M928.3,549.6c0.4,6.5,0.8,13.1,1.3,19.6c0.2,3.2,0.5,6.5,0.8,9.8c0.1,1.6,0.3,3.2,0.5,4.9
				c0.2,1.6,0.4,3.2,0.7,4.8l-0.4-0.3l7.3,0.1l0,0l-0.4,0.3l0.6-3.9l0.4-3.9l0.3-3.9l0.2-3.9c0.2-5.2,0.2-10.4,0-15.7
				c-0.1-5.2-0.5-10.4-0.8-15.7l-1.2-15.7l0.8-0.1c0.4,2.6,0.8,5.2,1.1,7.8c0.4,2.6,0.6,5.2,0.9,7.8c0.6,5.2,0.9,10.5,1.1,15.8
				c0.2,5.3,0.1,10.6-0.3,15.8l-0.4,3.9l-0.5,3.9l-0.7,3.9c-0.3,1.3-0.6,2.6-0.9,3.9l-0.1,0.3h-0.3L931,589h-0.3l-0.1-0.3
				c-0.3-1.6-0.6-3.3-0.7-4.9c-0.2-1.6-0.3-3.2-0.5-4.9c-0.3-3.2-0.5-6.5-0.8-9.8c-0.5-6.5-0.9-13.1-1.3-19.6L928.3,549.6z"/>
			<path class="st9" d="M863.2,472.2c-6,4.6-11.8,9.5-17.5,14.6c-2.8,2.6-5.6,5.2-8.3,7.8c-2.7,2.7-5.4,5.4-7.9,8.2v0.1h-0.1l0,0
				c-10.5,4.5-21,9-31.5,13.6c-5.2,2.3-10.5,4.6-15.7,7s-10.5,4.7-15.4,7.4c-0.2,0.1-0.4,0.2-0.6,0.3c-0.3,0.1-0.5,0.1-0.8,0
				s-0.5-0.2-0.6-0.4l-0.3-0.4c-0.5-0.5-1-0.9-1.6-1.3c-1.2-0.7-2.5-1.1-3.9-1.2c-1.4-0.1-2.8,0.1-4.1,0.5s-2.5,1.1-3.4,2.1
				c0,0,0,0.1,0,0s0-0.2,0-0.2c-0.1-0.1-0.1-0.1-0.1-0.1l0.2,0.1c0.2,0,0.3,0.1,0.5,0.1l1.1,0.3c0.2,0,0.4,0.1,0.6,0.2
				c0.2,0.1,0.3,0.2,0.4,0.3c0.1,0.1,0.1,0.2,0.1,0.3s0,0.1,0,0.2l-0.2,0.2c-0.2,0.3-0.4,0.7-0.5,1c-0.8,1.2-1.6,2.4-2.5,3.5
				s-1.7,2.3-2.4,3.5c-0.8,1.1-1.3,2.4-1.6,3.8c-0.1,0.6,0.2,1.2,0.8,1.5s1.3,0.4,2,0.4c1.4,0.2,2.8,0.7,4.2,1.3
				c1.3,0.6,2.6,1.1,3.9,1.6c1.3,0.4,2.7,0.3,3.9-0.3c1.2-0.7,2.1-1.8,2.8-3s1.3-2.5,1.8-3.8c0.3-0.7,0.5-1.3,0.7-2l0.3-1
				c0.1-0.2,0.1-0.3,0.2-0.6c0.2-0.3,0.5-0.6,0.9-0.6l0.3-0.1l0.5-0.1l1.1-0.2c0.7-0.1,1.4-0.3,2.1-0.4c11.2-2.3,21.8-6.7,32.2-11.6
				c5.2-2.4,10.2-5,15.3-7.7l7.6-3.9c2.6-1.3,5.1-2.6,7.8-3.7c2.5-1.2,4.9-2.7,7.2-4.3c2.3-1.6,4.7-3.2,7-4.9
				c4.6-3.4,9.1-6.9,13.6-10.4s9-7.1,13.5-10.6l13.4-10.7l0,0v0.6l-12.6-7.3h0.4C872.9,465,868,468.5,863.2,472.2z M862.7,471.5
				c4.8-3.7,9.7-7.2,14.8-10.5l0.2-0.1l0.2,0.1l12.6,7.3l0.5,0.3l-0.4,0.3l0,0c-4.3,3.9-8.6,7.6-12.9,11.3c-4.3,3.8-8.8,7.4-13.2,11
				s-9,7.1-13.6,10.6c-2.3,1.7-4.6,3.4-7,5.1c-1.2,0.8-2.4,1.6-3.6,2.4c-1.3,0.8-2.6,1.5-3.9,2.1c-2.6,1.1-5.2,2.3-7.7,3.6l-7.7,3.9
				c-5.1,2.5-10.3,5-15.6,7.3s-10.6,4.4-16.1,6.3c-5.4,1.9-11,3.4-16.6,4.5c-0.7,0.1-1.4,0.3-2.1,0.4l-1.1,0.2l-0.5,0.1h-0.3h-0.2
				c-0.2,0.1-0.3,0.3-0.4,0.7l-0.3,1.1c-0.2,0.7-0.5,1.4-0.8,2c-0.5,1.4-1.2,2.7-1.9,3.9c-0.7,1.3-1.8,2.4-3,3.2
				c-1.4,0.7-2.9,0.8-4.4,0.3c-1.4-0.4-2.7-1-4-1.6s-2.6-1-4-1.2c-0.7,0-1.5-0.2-2.1-0.5c-0.4-0.2-0.7-0.5-0.9-0.9s-0.3-0.8-0.2-1.2
				c0.2-1.5,0.8-2.9,1.7-4.1c0.8-1.2,1.6-2.4,2.4-3.6s1.7-2.3,2.4-3.5c0.2-0.3,0.3-0.6,0.5-0.9l0.1-0.1c0,0,0,0,0,0.1s0,0.1,0,0.2
				c0.1,0.1,0,0-0.1,0c-0.1-0.1-0.3-0.1-0.5-0.1l-1.1-0.2l-0.5-0.2c-0.1,0-0.2-0.1-0.3-0.1c-0.1-0.1-0.2-0.2-0.2-0.3
				c-0.1-0.1-0.1-0.3,0-0.4c0.1-0.1,0-0.1,0.1-0.1c1-1.2,2.3-2,3.7-2.5s2.9-0.7,4.4-0.6c1.5,0.1,3,0.5,4.3,1.3
				c0.6,0.4,1.2,0.9,1.7,1.4l0.4,0.4c0.1,0.1,0.1,0.1,0.2,0.2c0.2,0.1,0.3,0,0.7-0.2c5.1-2.8,10.3-5,15.5-7.4s10.5-4.7,15.7-6.9
				c10.5-4.6,21-9.1,31.6-13.5l0,0l-0.1,0.1c2.6-2.8,5.2-5.6,7.9-8.2c2.7-2.7,5.5-5.4,8.3-7.9C850.8,481.1,856.7,476.2,862.7,471.5z
				"/>
			<path class="st9" d="M798.8,774.5c-0.1-0.1-0.1-0.2-0.1-0.3V774v-0.2v-0.4c0-0.3,0.1-0.5,0.2-0.8c0.1-0.5,0.3-1,0.5-1.5
				c0.4-1,1.1-1.8,2.1-2.4c0.2-0.1,0.5-0.2,0.8-0.3l0.8-0.2c0.5-0.1,0.9-0.2,1.4-0.3c0.9-0.2,1.9-0.5,2.8-0.8
				c3.7-1.1,7.4-2.4,11-3.9c3.6-1.4,7.1-3.1,10.5-5.1c3.4-1.9,6.5-4.2,9.2-7c0.8-1,2.2-1.3,3.4-0.7c0.6,0.3,1,0.9,1.2,1.5
				c0.1,0.6,0,1.2-0.1,1.7c-0.2,0.5-0.4,1-0.6,1.5c-0.2,0.4-0.4,0.8-0.5,1.2s-0.1,0.7,0,1.1c0.1,0.4,0.4,0.7,0.7,0.9
				c0.7,0.5,1.5,0.9,2.4,1.1c0.9,0.2,1.9,0.3,2.8,0.3c0.9,0,1.9-0.1,2.8-0.3c0.9-0.1,1.7-0.4,2.4-0.9c0.1,0,0.1-0.1,0.1-0.2
				c0.1,0,0,0,0.1-0.2c0.1-0.3,0.1-0.5,0.2-0.8c0.1-0.5,0.3-1,0.6-1.5c0.5-1,1.4-1.9,2.4-2.3c0.3-0.1,0.6-0.1,0.9-0.2h0.2
				c0.1,0,0.2,0,0.3,0c0.2,0,0.5,0.2,0.7,0.3c0.4,0.4,0.7,0.9,0.9,1.4c0.4,0.9,0.8,1.9,1.1,2.8c1.1,3.8,2,7.6,2.6,11.5l0,0
				c0,0.2-0.1,0.4-0.4,0.5c-0.2,0-0.3,0-0.4-0.2c-0.4-0.5-0.8-1-1.3-1.4c-0.4-0.4-0.9-0.6-1.5-0.5c-0.6,0.3-1.1,0.6-1.7,1l-1.7,1.2
				c-0.6,0.4-1.1,0.8-1.8,1.1c-0.6,0.4-1.3,0.7-2.1,0.8c-0.5,0.1-1-0.1-1.3-0.5c-0.1-0.1-0.2-0.2-0.3-0.3s-0.2-0.1-0.4-0.2
				c-0.6-0.2-1.2-0.3-1.9-0.4c-2.7-0.2-5.4-0.1-8.1,0.3c-2.7,0.3-5.4,0.8-8.1,1.4c-1.3,0.3-2.6,0.7-3.9,1.1
				c-1.3,0.4-2.5,0.9-3.9,1.3c-2.7,0.7-5.5,1.1-8.3,1.1s-5.5-0.1-8.3-0.4c-1.4-0.1-2.7-0.3-4.1-0.5l-2-0.3l-1-0.2l-0.5-0.1h-0.3
				h-0.1H799C799,774.6,798.9,774.6,798.8,774.5z M799.5,774C799.5,773.9,799.5,773.9,799.5,774L799.5,774L799.5,774h0.3l0.5,0.1
				l1,0.2l2,0.3c1.4,0.2,2.7,0.4,4.1,0.5c2.7,0.3,5.5,0.4,8.2,0.4s5.4-0.4,8-1.1c1.3-0.4,2.6-0.9,3.9-1.3c1.3-0.4,2.7-0.8,4-1.1
				c2.7-0.6,5.4-1.1,8.2-1.4c2.8-0.4,5.5-0.5,8.3-0.3c0.7,0.1,1.5,0.2,2.1,0.5c0.2,0.1,0.4,0.2,0.5,0.3c0.2,0.1,0.3,0.3,0.4,0.5
				c0.1,0.2,0.4,0.2,0.6,0.2c0.6-0.1,1.2-0.3,1.7-0.7c0.6-0.3,1.1-0.7,1.7-1.1l1.7-1.2c0.6-0.4,1.2-0.8,1.9-1.1
				c0.4-0.2,0.9-0.2,1.3,0c0.4,0.1,0.7,0.3,1,0.6c0.6,0.5,1.1,1,1.5,1.6l-0.8,0.3l0,0c-1-3.8-1.8-7.6-3-11.3c-0.3-0.9-0.6-1.8-1-2.7
				c-0.2-0.4-0.4-0.7-0.6-1.1c0,0-0.1,0,0,0h-0.2c-0.2,0-0.4,0.1-0.6,0.1c-0.8,0.3-1.4,0.9-1.7,1.7c-0.2,0.4-0.4,0.8-0.5,1.3
				c-0.1,0.2-0.1,0.4-0.2,0.7c0,0.2-0.1,0.4-0.2,0.5c-0.1,0.2-0.2,0.3-0.3,0.4c-0.9,0.7-1.9,1.1-3,1.2c-1,0.2-2,0.3-3,0.3
				s-2-0.1-3-0.3c-1.1-0.2-2.1-0.6-2.9-1.3c-0.5-0.4-0.9-0.9-1.1-1.4c-0.2-0.6-0.2-1.2-0.1-1.8c0.1-0.5,0.3-1,0.6-1.5
				c0.2-0.4,0.4-0.8,0.5-1.3c0.1-0.4,0.2-0.8,0.1-1.2c-0.1-0.3-0.2-0.6-0.5-0.8c-0.7-0.3-1.5-0.1-2,0.5c-2.8,2.8-6,5.2-9.5,7.1
				c-3.4,1.9-7,3.6-10.7,5.1s-7.4,2.7-11.2,3.8c-1,0.3-1.9,0.5-2.9,0.7c-0.5,0.1-1,0.2-1.5,0.3l-0.7,0.2c-0.2,0.1-0.4,0.2-0.6,0.3
				c-0.8,0.5-1.4,1.1-1.7,2c-0.2,0.4-0.4,0.9-0.5,1.3c0,0.2-0.1,0.5-0.1,0.7V774v0.2v0.1c0,0,0,0.1,0,0
				C799.7,774.1,799.6,774,799.5,774z"/>
			<path class="st20" d="M856.8,769.1c0,0-9.4-5.6-18.7-10.6"/>
			<path class="st20" d="M812.5,775.8c8.6-14.6-2.3-8.9-2.3-8.9"/>
			<path class="st20" d="M840.7,757.4c-4.9,3.8-6.3-2.1-6.3-2.1"/>
			<path class="st9" d="M799.5,774.4c0.4,0.2,0.7,0.2,0.9,0.3c0.1,0.1,0.3,0.2,0.4,0.3l0.5,0.3c0.7,0.5,1.3,0.9,2.1,1.2
				c1.4,0.7,2.9,1.3,4.5,1.8c1.5,0.5,3.1,0.9,4.7,1.2c1.6,0.3,3.2,0.6,4.8,0.7l-0.3,0.1l1.1-0.9l0.2-0.1c0.1-0.1,0.4-0.1,0.5,0l0,0
				c0.1,0.1,0.1,0.3,0,0.4c0.2,0.3,0.6,0.5,1,0.5c0.6,0,1.1,0,1.7,0.1c1.2,0,2.3,0,3.5,0c2.3,0,4.7,0,7-0.1s4.7-0.1,7-0.3
				c1.2-0.1,2.3-0.1,3.5-0.3c0.5,0,1.1-0.1,1.6-0.2h0.1c0,0,0-0.1-0.1,0.2c0,0.1-0.1,0.1-0.1,0.2c0,0.1,0,0.2,0,0.1v-0.2v-0.3
				c0.1-0.4,0.2-0.8,0.5-1.1c0.1-0.2,0.3-0.4,0.6-0.5c0.1-0.1,0.3-0.1,0.4-0.1c0.1,0,0.2,0,0.3,0l0.3,0.1l0.2,0.1
				c0.2,0.2,0.3,0.4,0.5,0.6l0.2,0.4c0.1,0.2,0.2,0.3,0.4,0.4c0,0,0.1,0.1,0.2,0.1c0.1,0,0.2,0,0.3,0c1.1,0,2.3-0.1,3.5-0.1
				c2.3-0.1,4.6-0.3,6.9-0.5c1.1-0.1,2.3-0.2,3.4-0.5c0.3,0,0.5-0.1,0.8-0.2c0.3,0,0.5-0.1,0.8-0.2c0.5-0.2,0.5-0.2,0.6-0.7
				s0-1-0.1-1.5s-0.2-1.1-0.4-1.6c-0.3-1.1-0.8-2.1-1.2-3.2v0.1c-0.3-0.6-0.7-1.1-1.2-1.6c-0.2-0.2-0.4-0.5-0.7-0.7
				c-0.2-0.2-0.4-0.3-0.6-0.4c0.1-0.2-0.7,0.4-1.2,0.7l-1.7,1.2c-1.2,0.9-2.4,1.6-3.8,2.2c-0.2,0.1-0.5,0.1-0.7,0.2
				c-0.2,0-0.4,0-0.6-0.1l-0.3-0.2c-0.3-0.2-0.6-0.4-0.9-0.5c-0.6-0.3-1.2-0.5-1.8-0.7c-2.7-0.5-5.4-0.4-8,0.1
				c-2.7,0.5-5.4,1.1-8.1,1.7c-2.7,0.7-5.4,1.3-8.1,2c-2.7,0.7-5.5,1.1-8.4,1.3c-2.8,0.1-5.6-0.1-8.4-0.4c-1.4-0.2-2.8-0.4-4.2-0.6
				l-2.1-0.3l-1.1-0.2l-0.5-0.1h-0.3H799c0.1,0,0.1,0,0.2,0C799.4,774.8,799.5,774.7,799.5,774.4
				C799.5,774.5,799.5,774.4,799.5,774.4z M798.8,774c0.1-0.1,0.2-0.1,0.3-0.2c0.1,0,0.2,0,0.3,0h0.1h0.3l0.5,0.1l1.1,0.2l2.1,0.3
				c1.4,0.2,2.7,0.4,4.1,0.5c2.7,0.3,5.5,0.4,8.3,0.2c5.5-0.4,10.8-2.1,16.3-3.4c2.7-0.7,5.4-1.4,8.2-1.8c2.8-0.6,5.7-0.7,8.6-0.2
				c0.7,0.2,1.5,0.5,2.1,0.8c0.3,0.2,0.7,0.4,0.9,0.6l0.2,0.1h-0.1c0.1,0,0.2,0,0.3-0.1c1.2-0.6,2.4-1.2,3.4-2l1.7-1.2
				c0.3-0.2,0.6-0.4,0.9-0.6l0.3-0.2c0.1-0.1,0.2-0.1,0.4-0.2c0.3-0.1,0.6-0.1,1,0s0.8,0.4,1.1,0.7s0.6,0.5,0.8,0.8
				c0.5,0.6,0.9,1.2,1.3,1.8c0,0,0,0,0,0.1c0.5,1.1,1,2.2,1.3,3.3c0.2,0.6,0.3,1.2,0.5,1.8c0.1,0.7,0.2,1.3,0.1,2
				c-0.1,0.4-0.2,0.8-0.5,1.2c-0.3,0.3-0.7,0.5-1.1,0.6c-0.3,0.1-0.6,0.2-0.9,0.3c-0.3,0.1-0.6,0.1-0.9,0.2
				c-1.2,0.2-2.3,0.3-3.5,0.5c-2.3,0.2-4.7,0.4-7,0.5c-1.2,0-2.3,0.1-3.5,0.1c-0.2,0-0.4,0-0.6,0c-0.2-0.1-0.4-0.2-0.6-0.3
				c-0.3-0.2-0.6-0.5-0.7-0.9l-0.2-0.4c0-0.1-0.2-0.2,0-0.1h0.1c0,0,0.1,0,0.2,0.1c0.1,0,0,0,0.1,0s0,0,0,0l-0.1,0.1
				c-0.1,0.1-0.2,0.3-0.2,0.5v0.3c0,0.1,0,0.1,0,0.2c0,0.1-0.1,0.2-0.1,0.2c-0.1,0.2-0.3,0.3-0.5,0.4l-0.3,0.1
				c-0.6,0.1-1.2,0.2-1.8,0.3c-1.2,0.1-2.3,0.2-3.5,0.2c-2.3,0.1-4.7,0.1-7,0.2s-4.7,0-7,0c-1.2,0-2.3,0-3.5-0.1
				c-0.6,0-1.2,0-1.8-0.1h-0.2c-0.1,0-0.2-0.1-0.3-0.1c-0.2-0.1-0.3-0.1-0.5-0.2c-0.4-0.2-0.7-0.6-0.7-1.1l0.7,0.3l-1.1,0.9l0,0
				c-0.1,0.1-0.2,0.1-0.3,0.1c-1.6-0.2-3.3-0.4-4.9-0.7c-1.6-0.3-3.2-0.7-4.8-1.2s-3.1-1.1-4.6-1.9c-0.7-0.4-1.5-0.8-2.1-1.3
				l-0.5-0.4c-0.2-0.1-0.4-0.3-0.6-0.5C799.5,774.9,799.1,774.5,798.8,774z"/>
			<path class="st21" d="M842.4,744.7l-0.5,8.7c0,0-6.3,7.3,6.7,7.1c0,0,4,0,4.6-1.8s2-9.2,2-9.2
				C850.8,748.3,846.5,746.7,842.4,744.7z"/>
			<path class="st9" d="M883.9,769.7c0.1-0.3,0.2-0.6,0.3-0.9c0.1-0.2,0.1-0.4,0.2-0.5c0.1-0.3,0.1-0.7,0.1-1.1
				c-0.1-0.4-0.1-0.9-0.1-1.3c0.1-0.5,0.4-1,0.8-1.3c1.5-0.8,3-1.5,4.6-2c3-1.2,5.6-3.2,7.6-5.7c0.9-1.3,1.7-2.7,2.1-4.2
				c0.1-0.4,0.2-0.8,0.3-1.1c0.1-0.4,0.2-0.8,0.2-1.2l0.1-1.2V748c0-0.8-0.1-1.6-0.2-2.4c-0.2-0.8-0.3-1.5-0.5-2.4
				c-0.2-1.1,0.3-2.2,1.3-2.6c0.5-0.2,1-0.3,1.5-0.2s0.9,0.3,1.3,0.7c0.6,0.6,1.2,1.3,1.7,2c0.4,0.5,1.1,0.9,1.8,0.9
				c1.5,0.1,3.1-0.3,4.4-1c1.4-0.7,2.8-1.6,3.9-2.6c0.6-0.5,1-1.1,1.3-1.7c0.2-0.7,0.2-1.4,0-2.1l-0.2-1.2c-0.1-0.5-0.1-1.1,0.1-1.5
				c0.3-0.5,0.7-0.9,1.3-1.1c0.2-0.1,0.5-0.1,0.7-0.2c0.3,0,0.5,0,0.8,0c0.9,0.2,1.8,0.5,2.5,1.1c0.7,0.5,1.3,1,2,1.6
				c1.2,1.2,2.3,2.4,3.4,3.6c1,1.2,2.1,2.4,3.3,3.5l0,0c0.2,0.2,0.2,0.6,0,0.8l0,0c-0.1,0.1-0.3,0.2-0.4,0.2c-0.4,0-0.7-0.1-1.1-0.2
				c-0.4-0.1-0.6-0.3-0.8-0.3c-0.5,0-0.9,0.1-1.3,0.4c-0.8,0.3-0.9,1.6-1.3,2.8c-0.2,0.7-0.6,1.3-1.1,1.8s-1.2,0.8-2,0.9
				c-0.6,0.1-1.3,0.1-1.9,0c-0.5,0-1,0.1-1.5,0.3c-2,0.9-3.7,2.8-5.2,4.6s-2.9,3.9-4.3,5.8c-1.4,2-2.8,4-4.4,5.9
				c-0.8,1-1.8,1.8-2.9,2.5c-1.1,0.6-2.3,1.1-3.5,1.4c-2.4,0.6-4.9,0.8-7.4,0.8c-1.2,0-2.4,0-3.7-0.1H886c-0.3,0-0.6,0-1.1-0.1
				C884.6,769.9,884.3,769.8,883.9,769.7z M884.7,769.3c0.2-0.1,0.4-0.1,0.7-0.2c0.3,0,0.5,0,0.8,0l1.8,0.1c1.2,0,2.4,0.1,3.6,0
				c2.4,0,4.8-0.2,7.1-0.8c1.1-0.3,2.2-0.8,3.2-1.3c1-0.6,1.9-1.4,2.6-2.3c1.5-1.8,2.9-3.9,4.3-5.8c1.4-2,2.8-4,4.3-5.9
				c0.8-1,1.6-1.9,2.5-2.8c0.9-0.9,2-1.7,3.1-2.2c0.6-0.3,1.3-0.4,2-0.4c0.6,0,1.1,0,1.7,0c0.5-0.1,0.9-0.2,1.3-0.6
				c0.4-0.4,0.6-0.8,0.7-1.3c0.2-0.5,0.3-1.1,0.5-1.8c0.1-0.3,0.3-0.7,0.5-1c0.1-0.2,0.2-0.3,0.4-0.5c0.2-0.1,0.3-0.2,0.5-0.3
				c0.3-0.2,0.6-0.3,0.9-0.4c0.4-0.1,0.8-0.2,1.2-0.1c0.4,0.1,0.7,0.3,0.9,0.3c0.2,0.1,0.5,0.1,0.7,0.1l-0.4,1.1
				c-1.2-1.2-2.4-2.4-3.4-3.7c-1.1-1.2-2.1-2.5-3.3-3.6c-1-1.1-2.3-2-3.8-2.4c-0.2,0-0.3,0-0.5,0s-0.3,0.1-0.5,0.1
				c-0.3,0-0.5,0.2-0.6,0.4c-0.2,0.4,0,1.3,0.2,2.1c0.2,0.9,0.2,1.8-0.1,2.7c-0.4,0.8-0.9,1.6-1.6,2.1c-1.3,1.1-2.7,2.1-4.2,2.8
				c-1.6,0.8-3.3,1.2-5.1,1.1c-1-0.1-1.8-0.6-2.4-1.4c-0.4-0.7-0.9-1.3-1.5-1.8c-0.5-0.5-1.1-0.6-1.7-0.4c-0.6,0.3-0.9,0.9-0.7,1.4
				c0.2,0.7,0.4,1.6,0.5,2.4c0.1,0.8,0.2,1.7,0.2,2.5v1.3l-0.2,1.3c0,0.4-0.1,0.8-0.2,1.2c-0.1,0.4-0.2,0.8-0.3,1.2
				c-0.5,1.6-1.3,3.1-2.4,4.5c-2.1,2.6-4.9,4.7-8,5.9c-1.5,0.5-3,1.1-4.4,1.9c-0.3,0.2-0.4,0.4-0.5,0.7c0,0.4,0.1,0.7,0.2,1.1
				c0.1,0.5,0,0.9-0.1,1.4c-0.1,0.2-0.2,0.5-0.2,0.6C884.9,769.1,884.9,769.2,884.7,769.3L884.7,769.3z"/>
			<path class="st22" d="M895.7,769.6c1-2,2.9-7.3-1.5-9"/>
			<path class="st22" d="M907.3,744.7c0,0,6.8-0.3,9.5-4.9c0,0,1.5-3.3-1.6-7.7c0,0-6.6,4.9-11.3,6.2
				C903.9,738.3,904.6,742.7,907.3,744.7z"/>
			<path class="st22" d="M900.5,748.5c3.3,0.6,4.8-0.4,5.5-3.7"/>
			<path class="st9" d="M884.8,769.6c0.3,0,0.5-0.1,0.6,0l0.8,0.5c0.5,0.3,1.1,0.6,1.6,0.9c1.1,0.6,2.2,1.1,3.3,1.5
				c2.2,0.9,4.7,1.1,7.1,0.8l-0.4,0.3c0.1-0.3,0.3-0.5,0.5-0.7l0.2-0.2c0-0.1,0,0,0,0l0.6-0.5l0.5,0.2c0.1,0,0.2,0.1,0.3,0.2
				l0.1,0.1c0,0,0.1,0.1,0.1,0.2c0,0.1,0,0.2,0,0.4c0,0.1-0.1,0.2-0.2,0.2h-0.1h-0.1c-0.2,0-0.4,0-0.6,0h-0.2c0,0-0.1,0,0,0
				c0.4,0.6,0.2-1.2,0.1-0.9l0,0h0.1l1.8,0.3c1.1,0.1,2.3-0.1,3.4-0.5c2.2-0.8,4.4-1.9,6.4-3.1c2.1-1.2,4-2.6,5.9-4.2
				c1-0.7,1.9-1.5,2.7-2.4l0.6-0.7l0.5-0.7c0.3-0.5,0.5-1,0.6-1.5c0.1-0.3,0.1-0.6,0.2-0.8c0-0.2,0-0.4,0-0.7l0,0l0.1,0.1
				c0.1,0,0.2,0,0.2,0l0,0l0,0c-0.1,0.3-1-0.3-0.8-0.5c0-0.1,0-0.2,0.1-0.4c0.1-0.1,0-0.1,0.1-0.1v-0.1l0.2-0.2l0.3-0.4l0.2-0.2
				c0.1-0.1,0.2-0.2,0.3-0.2c0.2-0.1,0.5-0.2,0.7-0.1c0.2,0.1,0.3,0.2,0.4,0.4c0.1,0.2,0.2,0.4,0.2,0.5c0.1,0.1,0.1,0.2,0.1,0.2
				h-0.1c0.4-0.3,0.9-0.6,1.3-0.9c2.1-1.4,4.3-2.5,6.3-3.8c1-0.6,2-1.3,2.9-2.1c0.4-0.4,0.8-0.8,1.1-1.2s0.4-0.8,0.3-1.3
				c-0.1-0.9-1.1-1.7-2-2.3c-0.5-0.3-1-0.6-1.5-0.9c-0.5-0.3-1.1-0.6-1.6-1c-0.4-0.3-0.9-0.5-1.4-0.6c-1-0.2-1.9,0.5-2.1,1.4
				c-0.2,0.5-0.4,1.1-0.6,1.7c-0.2,0.7-0.6,1.3-1.1,1.7c-0.5,0.5-1.2,0.8-2,0.9c-1.2,0.1-2.4,0.2-3.5,0.5s-2.1,0.8-3,1.6
				c-0.8,0.8-1.5,1.7-2.1,2.8c-0.5,1-1.1,2.1-1.7,3.2c-0.7,1.1-1.3,2.1-2,3.1c-1.4,2-3.1,3.9-4.9,5.5c-1.8,1.7-4,3-6.4,3.8
				c-2.4,0.7-4.9,1-7.4,0.9c-1.2,0-2.5-0.1-3.7-0.2l-1.8-0.1h-0.9C885.1,769.9,885,769.7,884.8,769.6z M883.9,769.3
				c0.4-0.2,0.9-0.3,1.3-0.3h0.9l1.8,0.1c1.2,0.1,2.4,0.2,3.6,0.2c2.4,0,4.8-0.3,7.1-0.9c2.2-0.8,4.3-2,6-3.7
				c1.8-1.6,3.3-3.5,4.7-5.4c0.7-1,1.4-2,2-3s1.1-2.1,1.7-3.2c0.6-1.1,1.4-2.2,2.3-3.1c1-0.9,2.1-1.5,3.4-1.9
				c1.2-0.3,2.4-0.5,3.7-0.6c1-0.1,1.9-0.9,2.1-1.9c0.2-0.5,0.4-1.1,0.6-1.7c0.1-0.3,0.3-0.6,0.4-0.9c0.1-0.2,0.2-0.3,0.4-0.5
				c0.1-0.1,0.3-0.3,0.5-0.4c0.6-0.4,1.4-0.6,2.1-0.5c0.7,0.1,1.3,0.4,1.9,0.8c0.6,0.4,1,0.7,1.5,0.9c0.5,0.3,1.1,0.6,1.6,0.9
				c0.6,0.4,1.1,0.8,1.5,1.2c0.5,0.5,0.9,1.2,1,1.9c0.1,0.8-0.1,1.5-0.5,2.1c-0.4,0.5-0.9,1-1.4,1.4c-1,0.8-2,1.5-3.1,2.1
				c-2.1,1.3-4.3,2.4-6.2,3.8c-0.2,0.2-0.4,0.3-0.7,0.5c-0.3,0.3-0.7,0.5-1.1,0.6c-0.2,0-0.3,0-0.5,0c-0.1,0-0.3-0.1-0.4-0.2
				c-0.2-0.2-0.3-0.4-0.4-0.6c-0.1-0.2-0.1-0.3-0.2-0.3c0,0,0,0,0.1,0.1s0.2,0,0.3,0c-0.2,0.2-0.3,0.3-0.5,0.5l-0.1,0.2l0,0
				c0,0,0,0.1,0-0.1c0-0.1,0-0.2,0-0.3c0.2-0.1-0.7-0.7-0.7-0.4l0,0h0.1c0.2-0.1,0.5-0.1,0.7,0.1c0.1,0.1,0.2,0.2,0.3,0.3
				c0,0.1,0.1,0.2,0.1,0.2c0.1,0.4,0.1,0.8,0,1.1c0,0.3-0.1,0.6-0.2,0.9c-0.2,0.7-0.4,1.3-0.8,1.8l-0.5,0.8l-0.6,0.7
				c-0.8,0.9-1.7,1.8-2.7,2.6c-1.9,1.6-3.9,3-6.1,4.2c-2.1,1.3-4.4,2.4-6.7,3.2c-1.2,0.4-2.5,0.6-3.8,0.5l-1.8-0.3h-0.1h-0.1
				c-0.2,0.3-0.4-1.5,0-0.9h0.7H899c0,0-0.1,0.1-0.2,0.2c0,0.1,0,0.2,0,0.3s0,0.1,0.1,0.1l0,0l-0.1-0.1c-0.1,0-0.2-0.1-0.4-0.2
				l0.6-0.5c0,0.2,0,0.5-0.2,0.6c-0.1,0.1-0.2,0.2-0.3,0.3s-0.2,0.2-0.3,0.4c0,0.1-0.1,0.3-0.3,0.3h-0.1c-2.5,0.4-5.1,0.1-7.5-0.9
				c-1.2-0.4-2.3-0.9-3.4-1.5c-0.6-0.3-1.1-0.6-1.6-0.9l-0.8-0.5C884.4,770,884.1,769.7,883.9,769.3L883.9,769.3z"/>
			<path class="st22" d="M897.1,758.1c2,1.8,3.9-1.6,3.9-2.6c-0.1-1.2-0.3-2.4-0.7-3.5"/>
			
				<ellipse transform="matrix(0.3668 -0.9303 0.9303 0.3668 -34.0238 996.5092)" class="st23" cx="715" cy="523.2" rx="6.7" ry="2.3"/>
			<path class="st23" d="M717.2,517.1l10.4,4.1c2.2,1.4-0.6,12.1-4.2,12.1l-11-3.8"/>
			<path class="st23" d="M724.6,532.8l6.1,2.1c2.6,0,5.6-8.8,3.9-10.7l-7.2-3"/>
			<polyline class="st23" points="753.8,531.7 738.7,526.4 734.7,524.1 			"/>
			<path class="st23" d="M764.5,545.7l5.9,2c0,0,3.7-1.6,3.5-9.1l-4.3-1.5"/>
			<polyline class="st23" points="730.8,534.8 735.2,535.6 748.1,540.1 			"/>
			<path class="st23" d="M741.9,537.9c1.9,0,4.9-6.7,3.9-9"/>
			<path class="st23" d="M767.2,546.7c3-1,3.7-7.3,3.7-8.8"/>
			<path class="st23" d="M716.8,531c3.7-3,5.4-7.7,4.5-12.3"/>
			<path class="st23" d="M718,531.4c3.6-3,5.4-7.7,4.4-12.3"/>
			<path class="st23" d="M719.3,531.9c3.6-3,5.4-7.7,4.4-12.3"/>
			<path class="st23" d="M720.9,532.3c6.3-5.5,4.2-12.1,4.2-12.1"/>
			<path class="st23" d="M722.7,532.8c6.3-5.5,3.9-12,3.9-12"/>
			<path class="st23" d="M714.2,528.6c-1.1-1.1-1.3-3.4-0.3-5.7c0.7-1.9,2.2-3.3,4.1-4"/>
			<circle class="st23" cx="730.5" cy="528.8" r="2"/>
			<path class="st9" d="M731.9,527.4c0.3,0.4,0.5,0.8,0.4,1.3c0,0.5-0.3,1-0.6,1.3c-0.4,0.3-0.8,0.5-1.4,0.5c-0.5,0-0.9-0.2-1.3-0.5
				c0.4,0.1,0.8,0.2,1.3,0.1c0.4-0.1,0.7-0.3,1-0.5c0.3-0.3,0.5-0.6,0.6-1C732,528.2,732,527.8,731.9,527.4z"/>
			<path class="st24" d="M407,589.7c0,23.9-20.3,43.2-45.3,43.2s-45.3-19.3-45.3-43.2s20.3-43.2,45.3-43.2"/>
			<path class="st25" d="M335.8,618c-14.7-13.8-15.5-36.9-1.8-51.6c0.6-0.6,1.2-1.2,1.8-1.8c15.8-14.7,40.2-14.7,56,0"/>
			<ellipse class="st9" cx="407.5" cy="590.2" rx="5.1" ry="4.8"/>
			<ellipse class="st9" cx="335.8" cy="618" rx="2.7" ry="2.5"/>
			<ellipse class="st26" cx="361.4" cy="592.5" rx="21.9" ry="20.9"/>
			<path class="st27" d="M349.3,584.9c1.2,0.1,2.3,0.3,3.4,0.6s2.2,0.7,3.2,1.1l2.6,1.1l-2.7,0.8c-1.2,0.3-2.3,0.6-3.5,0.8
				c-0.6,0.1-1.2,0.2-1.8,0.2c-0.6,0-1.3,0-1.9,0c0.5-0.4,1.1-0.7,1.6-1s1.1-0.5,1.7-0.8c1.1-0.5,2.3-0.9,3.4-1.2l-0.1,1.8
				c-1-0.4-2-0.9-3-1.5C351.2,586.3,350.2,585.7,349.3,584.9z"/>
			<path class="st27" d="M370.8,584.9c-0.8,0.7-1.7,1.4-2.6,2s-1.8,1.1-2.8,1.5l-0.1-1.7c1.1,0.3,2.2,0.7,3.2,1.2
				c1.1,0.5,2.1,1,3,1.7c-1.2,0-2.3,0-3.5-0.3c-1.1-0.2-2.2-0.5-3.3-0.8l-2.4-0.7l2.3-1c1-0.4,2-0.8,3-1.1
				C368.7,585.3,369.7,585,370.8,584.9z"/>
			<path class="st26" d="M366.4,600.7c0,3.2-2.7,5.4-6.1,5.4c-3.3,0.1-6.1-2.5-6.1-5.8L366.4,600.7z"/>
			<path class="st28" d="M456,472.9c3.9,14.8-0.3,23.8-12.6,27.1c-3.4,1-7,0.7-10.1-0.9c-1.6,2.8-3.6,4.5-5.9,5.1
				c-2.8,0.9-5.8,0.5-8.2-1.1c-2.2-1.4-3.7-3.7-4.3-6.2c-0.8-2.9-0.3-6,1.4-8.4c1.5-2.3,3.7-3.9,6.4-4.6c1-0.3,2.1-0.4,3.2-0.2
				c-0.6-1.6-1.6-2.9-2.9-3.9c-1.4-1-3.2-1.3-4.8-0.8c-0.5,0.1-1.1,0.3-1.6,0.6l1.7-12.1c2.5-1,5.2-1.4,7.8-1.1
				c4.2,0.6,7.5,3.1,9.9,7.7c0.9,1.7,2.5,6,4.9,12.9c1.1,3.3,2.6,4.7,4.6,4.1s3-2.3,3.4-5.1c0.3-3.3-0.1-6.5-1.1-9.7
				c-1.8-6.9-5.7-11.6-11.5-14.1c-4.7-2.1-9.9-2.5-14.9-1.1c-6,1.6-11.2,5.5-14.3,11c-3.3,5.2-4.3,11.6-2.7,17.5
				c1.4,6,4.9,11.2,9.9,14.8c5.4,3.8,11.5,4.8,18.3,3.1c1.2-0.3,2.6-0.7,4.3-1.2l1.9,7c-1.8,0.7-3.6,1.2-5.5,1.7
				c-6.8,1.8-14,1.2-20.4-1.6c-8.6-3.7-14.3-10.7-17.1-20.9c-2.4-9.2-1.3-17.5,3.4-24.9c4.5-7.1,11.2-11.8,20.1-14.2
				c7.4-2.2,15.4-1.4,22.3,2C449,458.7,454.2,465.2,456,472.9z M430.7,494.6l-1.9-3.4c-2.6,0.3-3.7,1.4-3.2,3.1
				c0.2,1.1,1.2,1.9,2.3,1.7c0.2,0,0.4-0.1,0.5-0.2C429.3,495.6,430.1,495.2,430.7,494.6z"/>
			<circle class="st9" cx="429.8" cy="440.5" r="4.6"/>
			<circle class="st9" cx="413.5" cy="443.6" r="4.6"/>
			<path class="st9" d="M717.1,517.4c-12.7-2.9-25.1-7.1-36.9-12.8c-5.9-2.8-11.6-6-17.2-9.5c-5.5-3.5-10.9-7.3-16-11.4
				c-10.3-8-19.8-17-29.6-25.3s-20-16.1-31.3-22c-5.6-3-11.5-5.6-17.5-7.7l-4.5-1.5c-0.8-0.2-1.5-0.5-2.3-0.8l-2.3-0.6l-4.6-1.3
				c-1.5-0.4-3.1-0.7-4.7-1.1c-12.6-2.6-25.4-4.2-38.2-4.6c-12.9-0.5-25.9-0.7-38.9-1.6c-6.4-0.3-13-0.8-19.4-1.3l-4.8-0.4l-4.8-0.5
				l-9.7-1c-3.2-0.3-6.4-0.9-9.7-1.3c-3.2-0.4-6.4-0.8-9.7-1.4l-9.7-1.5l-9.5-1.9c-1.6-0.3-3.2-0.7-4.7-1.1l-4.7-1.2
				c-0.8-0.2-1.6-0.4-2.4-0.6l-2.3-0.7l-4.7-1.5c-1.6-0.4-3.1-1.1-4.6-1.6l-4.6-1.6c-1.5-0.6-3-1.3-4.5-1.9s-3-1.3-4.5-2l-4.4-2.2
				c-1.5-0.7-2.8-1.6-4.3-2.4l-2.1-1.2c-0.7-0.4-1.4-0.9-2.1-1.3c-1.4-0.9-2.7-1.8-4.1-2.7l-3.9-2.9c-1.3-1-2.6-2-3.9-2.9
				c-1.4-1-2.6-2.1-3.9-3.2c-1.2-1.2-2.3-2.4-3.3-3.8c-3.9-5.2-7.4-10.8-10.5-16.6c-3.1-5.7-6.1-11.5-9.1-17.3
				c-5.9-11.6-11.8-23.1-18.1-34.3c-6.2-11.3-13.2-22.2-20.8-32.5c-7.8-10.2-16.4-19.8-26.6-27.5c-5-3.9-10.5-7.2-16.3-9.9
				c-2.9-1.3-5.9-2.5-8.9-3.5c-3.1-0.9-6.2-1.7-9.4-2.3l0.1-0.7c3.3,0.2,6.5,0.7,9.7,1.4s6.4,1.7,9.4,2.9c6.1,2.4,12,5.6,17.3,9.4
				c2.7,1.9,5.3,4,7.8,6.1c2.5,2.2,4.9,4.4,7.2,6.8c2.3,2.4,4.5,4.8,6.6,7.3s4.1,5.1,6.1,7.7c15.7,21,27.3,44.5,38.7,67.7
				c2.9,5.8,5.7,11.6,8.8,17.3c2.9,5.7,6.2,11.2,10,16.4c0.9,1.3,2,2.5,3,3.6c1.1,1.1,2.3,2.1,3.6,3.1c1.3,1,2.5,2,3.8,3l3.9,2.9
				c1.3,0.9,2.6,1.8,4,2.7c0.7,0.4,1.3,0.9,2,1.3l2.1,1.3c1.4,0.8,2.7,1.7,4.2,2.5l4.3,2.3c1.4,0.8,2.9,1.4,4.3,2.1s2.9,1.4,4.4,2
				l4.5,1.7c1.5,0.6,3,1.2,4.5,1.7l4.6,1.5l2.3,0.7c0.8,0.2,1.6,0.4,2.3,0.6l4.7,1.2c1.6,0.4,3.1,0.9,4.7,1.2
				c12.6,2.9,25.4,5,38.3,6.1l9.7,0.8l4.8,0.4l4.8,0.3c6.4,0.3,12.9,0.7,19.4,0.9c13,0.5,25.9,0.3,38.9,0.5
				c13.1,0.1,26.1,1.3,39,3.8c1.6,0.3,3.2,0.6,4.8,1l4.8,1.2l2.4,0.6c0.8,0.2,1.6,0.5,2.4,0.7l4.7,1.5c1.6,0.5,3.1,1.1,4.6,1.7
				s3.1,1.1,4.6,1.8l4.5,2l4.4,2.2c11.8,6,22.4,13.9,32.3,22.4c5,4.2,9.8,8.6,14.6,12.9s9.7,8.5,14.7,12.6s10.1,7.9,15.4,11.5
				c5.3,3.6,10.8,6.9,16.5,9.9c11.4,6,23.3,11,35.6,15L717.1,517.4z"/>
			<path class="st9" d="M127,798.8c7.1-0.6,14-2.2,20.6-4.7c1.6-0.6,3.2-1.3,4.8-2.1c1.5-0.8,3-1.7,4.5-2.7c2.9-1.9,5.5-4.2,7.8-6.8
				c4.6-5.1,8-11.3,11.9-17.5c2-3.2,4.2-6.1,6.8-8.8c2.7-2.7,5.8-5,9.2-6.7c3.4-1.6,7-2.8,10.7-3.5c0.9-0.2,1.8-0.3,2.8-0.4
				s1.8-0.3,2.8-0.3c1.9-0.1,3.6-0.3,5.6-0.2c3.7,0.2,7.3,0.7,10.9,1.5c3.6,0.7,7.1,1.4,10.6,2.1c13.9,3.1,27.9,6.1,41.9,8.1
				c14,2.1,28.2,2.9,42.3,2.2c14.1-0.7,28-3.8,41.1-9.1c13-5.6,24.6-14,34-24.7c4.7-5.3,8.8-11.1,12.4-17.2l2.6-4.6l2.4-4.8
				c1.7-3.2,3.2-6.4,5.2-9.4c3.8-6.1,8.2-11.8,13.3-16.9c5.1-5.1,10.9-9.4,17.2-12.9c6.3-3.4,13-6.2,19.9-8.3
				c6.8-2.1,13.8-3.9,20.7-5.6c6.9-1.7,13.7-3.7,20.4-6.1c3.3-1.2,6.5-2.7,9.7-4.3c1.5-0.9,3.1-1.7,4.5-2.6l2.1-1.5
				c0.4-0.2,0.7-0.5,1.1-0.7l1.1-0.8c5.5-4.3,10.2-9.6,13.9-15.5c0.9-1.4,1.9-3,2.9-4.5s2.1-3,3.3-4.4c1.1-1.4,2.4-2.8,3.6-4.1
				c0.6-0.7,1.2-1.3,1.9-2l2-1.8c5.4-4.9,11.1-9.3,17.2-13.2c6-4,12.2-7.6,18.6-11c12.7-6.7,25.7-12.8,39-18.2s26.8-10.3,40.4-14.7
				s27.6-8.2,41.5-11.2l0.2,0.7c-13.6,4.5-27.1,9-40.6,13.7c-13.4,4.8-26.8,9.7-40,15s-26.1,11.2-38.8,17.8
				c-6.3,3.3-12.4,6.9-18.4,10.7c-6,3.7-11.6,8-16.9,12.6l-2,1.8c-0.6,0.6-1.2,1.2-1.8,1.9c-1.3,1.2-2.4,2.5-3.6,3.9
				c-1.2,1.3-2.2,2.7-3.2,4.1c-1,1.4-1.9,2.8-2.9,4.4c-3.9,6.2-8.9,11.6-14.7,16l-1.1,0.8c-0.4,0.3-0.8,0.5-1.1,0.8l-2.3,1.5
				c-1.5,1-3.2,1.8-4.8,2.7c-3.2,1.6-6.6,3-10,4.2c-6.8,2.3-13.7,4.3-20.7,5.8c-7,1.6-13.9,3.2-20.7,5.3c-6.8,2-13.4,4.6-19.8,7.9
				c-6.3,3.3-12.1,7.5-17.2,12.4c-5.1,5-9.4,10.7-13,16.9c-1.9,3-3.4,6.3-5,9.4l-2.3,4.8l-2.5,5c-3.5,6.3-7.6,12.2-12.2,17.8
				c-9.3,11.1-21,20-34.3,26.1c-13.2,6.1-27.6,9.2-42,10.3c-14.4,1-28.9,0.5-43.2-1.6c-14.3-1.8-28.4-4.9-42.3-7.9
				c-3.5-0.8-7-1.5-10.4-2.1c-3.4-0.7-6.8-1.2-10.3-1.4c-1.6-0.1-3.4,0.1-5.1,0.1c-0.9,0-1.7,0.2-2.6,0.3c-0.9,0.1-1.7,0.2-2.5,0.3
				c-3.3,0.5-6.6,1.5-9.7,2.9c-3,1.4-5.8,3.3-8.2,5.7s-4.6,5.1-6.5,8c-4,5.8-7.6,12.2-12.9,17.5c-5.2,5.3-11.6,9.2-18.7,11.4
				c-6.9,2.1-14.1,3.3-21.3,3.3L127,798.8z"/>
			<path class="st29" d="M222.2,338.2c-6.4,0-6.4,10.1,0,10.1S228.7,338.2,222.2,338.2z"/>
			<path class="st29" d="M237.8,330.3c-8-8.8-21.5-9.4-30.3-1.4c-0.7,0.6-1.4,1.3-2,2c-1.5,1.6-1.5,4.1,0,5.7c1.4,1.4,4.3,1.7,5.7,0
				c0.7-0.8,1.5-1.6,2.3-2.3l0.2-0.2l0.9-0.6c0.5-0.3,1-0.6,1.5-0.8c0.8-0.4,1.7-0.7,2.6-0.9c0.5-0.1,1.1-0.3,1.6-0.3h0.2h1.1
				c0.6,0,1.1,0,1.7,0h0.3l0.7,0.1c1.1,0.2,2.1,0.5,3.1,0.9l0.3,0.2l0.7,0.4c0.6,0.3,1.1,0.6,1.6,1l0.4,0.3l0.4,0.4
				c0.5,0.4,0.9,0.9,1.3,1.3c1.6,1.5,4.2,1.4,5.7-0.2C239.3,334.2,239.3,331.8,237.8,330.3L237.8,330.3z"/>
			<path class="st29" d="M246.5,318.2c-14.5-12.4-36-12-50.1,1c-3.9,3.5,1.8,9.1,5.7,5.7c10.9-9.7,27.3-10.1,38.7-1
				c1.6,1.5,4.1,1.5,5.7,0C247.9,322.4,248.1,319.6,246.5,318.2z"/>
			
				<rect x="457.8" y="561.1" transform="matrix(0.9874 -0.1583 0.1583 0.9874 -85.2171 87.6346)" class="st30" width="99.4" height="35.3"/>
			<text transform="matrix(0.9874 -0.1583 0.1583 0.9874 473.9466 593.0937)" class="st30 st31 st32">WWW</text>
			<path class="st27" d="M526.9,493.6c0.2-0.4,0.5-0.7,0.9-0.9l24.7-10.7c0.9-0.3,1.8,0.1,2.2,1c0.3,0.8,0,1.7-0.8,2.1l-24.7,10.7
				c-0.9,0.4-1.8,0-2.2-0.9C526.7,494.5,526.7,494,526.9,493.6L526.9,493.6z"/>
			<path class="st9" d="M526,493.3c0.2-0.6,0.7-1.2,1.4-1.4l13.5-5.9c1.3-0.5,2.9,0.2,3.4,1.5s-0.1,2.7-1.3,3.3l-13.5,5.9
				c-1.3,0.6-2.9,0-3.4-1.4C525.8,494.6,525.7,493.9,526,493.3z"/>
			<path class="st9" d="M575.8,487.4l-18.1-20.6c1.5-1.1,3.2-1.8,4.9-2.2l16.1,18.2c0,0.1-0.1,0.2-0.1,0.3
				C577.9,484.7,577,486.2,575.8,487.4z"/>
			<path class="st9" d="M570.6,490.9l-17.1-19.3c0.5-0.9,1.1-1.8,1.8-2.6l18.1,20.5C572.5,490.1,571.6,490.6,570.6,490.9z"/>
			<path class="st9" d="M580.1,483.7c3.1-7.9-0.8-16.9-8.7-20s-16.9,0.8-20,8.7c-3.1,7.9,0.8,16.9,8.7,20l0,0
				C568,495.5,576.9,491.6,580.1,483.7z M554.4,473.6c2.4-6.2,9.5-9.3,15.7-6.8c6.2,2.4,9.3,9.5,6.8,15.7c-2.4,6.2-9.5,9.3-15.7,6.8
				C555,486.8,552,479.8,554.4,473.6z"/>
			<path class="st33" d="M329.4,380.3c-5.4,2.8-10.9,5.3-16.7,7.3c-3.5,1.3-7.2,2.7-10.7,4.3c-11.2,5-18.6,11.5-22.1,19.3
				c-2.2,5.3-2.9,11.1-2.1,16.7c0.4,3.6,1.6,7,3.6,10c1.1,1.5,2.4,2.8,4,3.8c0,0.6,0.1,1.2,0.2,1.7c2.3,15.6,12.4,28.9,26.8,35.4
				l0.3-0.7c-14.1-6.4-24.1-19.5-26.4-34.8c0-0.4-0.1-0.8-0.2-1.2c1.3,0.7,2.7,1.1,4.2,1.2c3.8,0.3,7.3-1.8,8.8-5.3
				c0.7-1.9,0.5-3.9-0.5-5.7c-0.8-1.6-2.2-2.8-3.9-3.2c-3.5-0.9-6.9,1.7-8.3,4.5c-1,2.2-1.4,4.7-1.2,7.1c-1.3-0.9-2.5-2-3.4-3.3
				c-1.9-2.9-3.1-6.2-3.5-9.7c-0.9-5.5-0.2-11.2,2-16.3c3.4-7.6,10.7-14,21.7-18.9c3.5-1.6,7.1-2.9,10.6-4.2
				c5.8-2,11.4-4.4,16.8-7.3c0.9-0.5,1.7-1.1,2.6-1.6l-0.4-0.6C331.2,379.3,330.3,379.8,329.4,380.3z M286.2,441.1
				c-0.3-2.5,0.1-5,1.1-7.3c1.3-2.6,4.3-4.9,7.5-4.1c1.5,0.4,2.7,1.4,3.4,2.8c0.8,1.6,1,3.4,0.4,5.1c-1.4,3.2-4.6,5.1-8.1,4.8
				C289,442.3,287.5,441.9,286.2,441.1z"/>
			<path class="st33" d="M326.3,499.6c10.1,4.4,19,1.5,22.1-5.5c3.1-7.1-0.8-15.6-10.9-20c-0.7-0.3-3.6-1.5-5.7-2.4l-1.2-0.5
				c-0.5-0.2-0.8-0.3-1-0.4c-8.9-2.8-14,0.7-17.4,6.3c-0.2,0.3-0.3,0.6-0.5,0.9c-0.1,0.3-0.3,0.6-0.3,0.9c-1.9,6.3-1,12.4,7.1,17.1
				c0.2,0.1,0.5,0.3,1,0.5c0.4,0.2,0.7,0.4,1.1,0.5C322.8,498,325.6,499.3,326.3,499.6z"/>
			
				<rect x="321.6" y="469.8" transform="matrix(0.3987 -0.9171 0.9171 0.3987 -244.7648 582.9473)" class="st34" width="1.2" height="16.6"/>
			<path class="st33" d="M324.4,482.3l-0.8,1.8c-0.2,0.4-0.7,0.6-1.2,0.5l-4.5-2c-0.4-0.2-0.6-0.7-0.5-1.2l0.8-1.8
				c0.2-0.4,0.7-0.6,1.2-0.5l4.5,2C324.4,481.4,324.6,481.9,324.4,482.3z"/>
			<path class="st33" d="M320.7,497c5.3-7.7,9.1-16.3,11.2-25.4l-1.2-0.5c-2,9.1-5.8,17.7-11.1,25.4
				C319.9,496.6,320.3,496.8,320.7,497z"/>
			<path class="st9" d="M241.3,538.3c-0.1-0.6-0.1-1.2-0.1-1.8v-0.4c0-0.1,0-0.2,0-0.3v-0.6c0-0.7,0-1.5-0.1-2.2s-0.2-1.5-0.3-2.2
				l-0.5-2.1c-0.9-2.9-2.2-5.6-4.1-8c-3.7-4.9-9-8.3-15-9.7l-2.3-0.4c-0.8-0.1-1.5-0.1-2.3-0.2s-1.5,0-2.3,0s-1.5,0.2-2.3,0.2
				c-9.4,1.4-17.3,7.9-20.6,16.9l-0.2,0.5l-0.4-0.3l0,0c-1.7-1.4-3.7-2.2-5.8-2.4s-4.2,0.2-6.1,1.1c-1.8,0.9-3.3,2.4-4.4,4.2
				c-1,1.7-1.5,3.7-1.4,5.7l0.1,1.2l-1.4,0.3l0,0c-1.7,0-3.3,0.3-4.9,0.8c-1.6,0.6-3.1,1.3-4.5,2.3c-2.8,2-5,4.9-6.2,8.2
				s-1.4,6.9-0.6,10.3c0.4,1.7,1,3.3,1.9,4.9c0.9,1.5,1.9,2.9,3.2,4.2c1.3,1.2,2.7,2.3,4.2,3.1s3.2,1.4,4.9,1.8
				c1.7,0.3,3.5,0.5,5.2,0.4h5.4l21.4-0.1l21.4-0.2l10.7-0.1c1.7,0,3.5-0.1,5.1-0.4c1.7-0.4,3.3-1,4.8-1.8s2.9-1.8,4.1-3
				c1.2-1.2,2.1-2.6,2.9-4.1c0.8-1.5,1.4-3.1,1.8-4.7c0.1-0.4,0.2-0.8,0.2-1.2c0.1-0.4,0.1-0.8,0.2-1.2c0-0.8,0-1.7,0-2.5
				c-0.2-3.4-1.3-6.6-3.3-9.3c-1-1.3-2.1-2.6-3.4-3.6l-1-0.7l-1.1-0.7l-1.1-0.6C242.4,539.1,241.9,538.7,241.3,538.3z M243.8,536.8
				c0.2,0,0.4,0,0.6,0.1l1.2,0.7l1.2,0.8c0.4,0.3,0.8,0.6,1.1,0.9c1.5,1.2,2.7,2.7,3.8,4.3c2.1,3.2,3.3,6.9,3.4,10.7
				c0,0.9,0,1.9-0.1,2.8c-0.1,0.5-0.2,0.9-0.2,1.4c-0.1,0.5-0.2,0.9-0.3,1.4c-0.5,1.8-1.2,3.6-2.1,5.2c-1.9,3.2-4.7,5.9-8,7.6
				c-1.7,0.9-3.4,1.5-5.2,1.9c-1.8,0.3-3.6,0.5-5.5,0.4l-10.7-0.1l-21.4-0.2l-21.4-0.1h-5.4c-1.8,0-3.6-0.1-5.4-0.5
				c-1.8-0.4-3.5-1.1-5.1-1.9c-1.6-0.9-3-2-4.3-3.2c-1.3-1.3-2.3-2.7-3.2-4.3s-1.5-3.3-1.9-5.1s-0.5-3.6-0.5-5.4
				c0.1-1.8,0.4-3.6,1-5.4c0.6-1.7,1.4-3.4,2.4-4.9s2.2-2.9,3.6-4.1c1.4-1.2,3-2.3,4.6-3.1c1.7-0.8,3.5-1.4,5.4-1.8l0,0l-1.3,1.5
				c0.1-2.5,0.9-4.9,2.3-7c1.4-2,3.3-3.6,5.6-4.5c2.2-0.9,4.7-1.2,7-0.7s4.4,1.6,6.1,3.2l0,0l-0.6,0.2c3.2-9.4,11.2-16.4,21-18.2
				c0.8-0.1,1.6-0.2,2.4-0.3c0.8-0.1,1.6-0.1,2.4-0.1s1.6,0,2.4,0.1l2.4,0.3c6.5,1.2,12.4,4.8,16.6,10c2.1,2.6,3.7,5.6,4.7,8.7
				l0.7,2.4c0.2,0.8,0.3,1.6,0.4,2.5s0.1,1.7,0.2,2.5v0.6c0,0.1,0,0.2,0,0.3s0,0.1,0,0.1C244,536.5,243.9,536.6,243.8,536.8z"/>
			<polygon class="st9" points="216.2,553 216.2,539.1 202.4,539.1 202.4,553 199.3,553 209.3,563.8 219.2,553 			"/>
			<path class="st9" d="M938.8,588.9c0.7,3.2,0.9,6.4,0.6,9.7c-0.1,1.6-0.3,3.2-0.6,4.8s-0.7,3.2-1.2,4.7c-0.3,0.8-0.7,1.6-1.2,2.3
				c-0.6,0.7-1.3,1.2-2.1,1.6c-1.6,0.7-3.4,0.8-5.1,0.2c-0.4-0.2-0.8-0.4-1.2-0.8c-0.2-0.2-0.3-0.4-0.5-0.6
				c-0.1-0.2-0.2-0.5-0.2-0.7c-0.1-0.8-0.2-1.6-0.2-2.4c-0.1-1.6-0.1-3.2,0-4.8l0,0v0.1c-0.4-1.3-0.6-2.6-0.8-3.9
				c-0.2-1.3-0.2-2.7,0-4c0.2-1.4,0.6-2.7,1.3-3.8c0.8-1.2,1.9-2.1,3.1-2.6l0.3,0.7c-1.1,0.5-2.1,1.3-2.8,2.3
				c-0.6,1.1-1.1,2.3-1.2,3.5c-0.2,1.3-0.2,2.6,0,3.8c0.1,1.3,0.4,2.5,0.7,3.8v0.1v0.1l0,0c0,1.6,0,3.2,0.2,4.8
				c0.1,0.8,0.2,1.6,0.3,2.3c0.2,0.6,0.6,1.1,1.2,1.3c1.4,0.5,2.9,0.4,4.2-0.2c0.7-0.3,1.2-0.7,1.7-1.3c0.4-0.6,0.7-1.3,1-2
				c0.9-3,1.5-6.1,1.6-9.3c0.3-3.1,0.2-6.3-0.2-9.4L938.8,588.9z"/>
			<line class="st35" x1="250.9" y1="753.3" x2="252.8" y2="628.2"/>
			
				<rect x="189.3" y="690.2" transform="matrix(1.518176e-02 -0.9999 0.9999 1.518176e-02 -442.6274 932.1523)" class="st36" width="125.2" height="1.1"/>
			<circle class="st37" cx="252.8" cy="628.2" r="8.7"/>
			<path class="st37" d="M252.8,637.4c-5.1,0-9.2-4.1-9.2-9.2c0-5.1,4.1-9.2,9.2-9.2s9.2,4.1,9.2,9.2l0,0
				C262.1,633.3,257.9,637.4,252.8,637.4z M252.8,620c-4.5,0-8.2,3.6-8.2,8.2c0,4.5,3.6,8.2,8.2,8.2s8.2-3.6,8.2-8.2l0,0
				C261,623.7,257.3,620,252.8,620z"/>
			<path class="st37" d="M252.3,663.6c0,0-0.8-26.7-26.3-24"/>
			<path class="st37" d="M251.8,663.6c0-0.1-0.5-12.1-8.3-18.9c-4.4-3.8-10.2-5.4-17.4-4.6L226,639c7.5-0.8,13.6,0.8,18.2,4.9
				c8.2,7.2,8.7,19.2,8.7,19.7L251.8,663.6z"/>
			<path class="st37" d="M251.5,751l-1.1-0.1c0-0.3,3.5-29.7-8.6-44.8c-4.1-5.2-10.1-8.4-16.7-8.8l0.1-1.1
				c6.9,0.5,13.2,3.8,17.5,9.2C255.1,720.9,251.5,750.7,251.5,751z"/>
			<circle class="st37" cx="225.1" cy="696.7" r="8.7"/>
			<path class="st37" d="M225.1,705.9c-5.1,0-9.2-4.1-9.2-9.2c0-5.1,4.1-9.2,9.2-9.2s9.2,4.1,9.2,9.2l0,0
				C234.3,701.8,230.2,705.9,225.1,705.9z M225.1,688.5c-4.5,0-8.2,3.6-8.2,8.2c0,4.5,3.6,8.2,8.2,8.2c4.5,0,8.2-3.6,8.2-8.2l0,0
				C233.2,692.2,229.6,688.5,225.1,688.5z"/>
			<path class="st3" d="M150.9,608.2c10.7,4.1,21.9,19.4,25.7,28.4s-7.1,27.8-25.7,33.7c-18.6,4.6-29.6-13.9-25.7-30.8
				C129.1,622.6,140.3,605.3,150.9,608.2z"/>
			<rect x="150.5" y="638.1" class="st37" width="1" height="155.5"/>
			<circle class="st37" cx="151" cy="638" r="6.6"/>
			<path class="st37" d="M151,645.1c-3.9,0-7.1-3.1-7.1-7s3.1-7.1,7-7.1s7.1,3.1,7.1,7l0,0C158,641.9,154.8,645.1,151,645.1z
				 M151,631.9c-3.4,0-6.1,2.7-6.1,6.1c0,3.4,2.7,6.1,6.1,6.1c3.4,0,6.1-2.7,6.1-6.1l0,0C157.1,634.7,154.3,631.9,151,631.9z"/>
			
				<ellipse transform="matrix(0.2951 -0.9555 0.9555 0.2951 -624.8634 653.886)" class="st38" cx="130.7" cy="750.4" rx="6.6" ry="6.6"/>
			<path class="st37" d="M130.7,757.6c-3.9,0-7.1-3.1-7.1-7s3.1-7.1,7-7.1c3.9,0,7.1,3.1,7.1,7l0,0
				C137.7,754.4,134.6,757.6,130.7,757.6L130.7,757.6z M130.7,744.4c-3.4,0-6.1,2.7-6.1,6.1c0,3.4,2.7,6.1,6.1,6.1
				c3.4,0,6.1-2.7,6.1-6.1l0,0C136.8,747.2,134.1,744.4,130.7,744.4z"/>
			<path class="st37" d="M151,671.7c0,0-0.9-20.3-20.3-17.9"/>
			<path class="st37" d="M150.5,671.7c0-0.1-0.5-9.1-6.5-14.2c-3.4-2.8-7.8-3.9-13.2-3.3l-0.1-0.9c5.7-0.7,10.4,0.5,13.9,3.5
				c6.3,5.4,6.8,14.5,6.8,14.9H150.5z"/>
			<path class="st37" d="M151,729.2c0,0-0.9-20.3-20.3-17.9"/>
			<path class="st37" d="M150.5,729.2c0-0.1-0.5-9.1-6.5-14.2c-3.4-2.8-7.8-3.9-13.2-3.2l-0.1-0.9c5.7-0.7,10.4,0.5,13.9,3.5
				c6.3,5.4,6.8,14.5,6.8,14.9L150.5,729.2z"/>
			<path class="st37" d="M151.4,791.8l-0.8-0.1c0-0.2,2.3-22.9-7.2-34.3c-3.1-3.8-7.8-6.2-12.7-6.4l0.1-0.8c5.2,0.3,10,2.7,13.3,6.8
				C153.7,768.6,151.4,791.6,151.4,791.8z"/>
			<path class="st37" d="M150.9,727.9c-0.1-0.9-2.3-21.5,7-32.7c3.4-4.1,8.4-6.7,13.7-6.9l0.1,0.9c-5.1,0.3-9.8,2.7-13,6.6
				c-9.1,11-6.8,31.8-6.8,32L150.9,727.9z"/>
			<path d="M750.6,545.5c0.5-0.2,0.9-0.5,1.2-0.9c0.4-0.4,0.7-0.8,1.1-1.3c0.7-0.9,1.3-1.8,1.9-2.7l0.2,0.1c-0.5,1-1.1,2-1.7,2.9
				c-0.3,0.5-0.6,0.9-1,1.4s-0.9,0.9-1.4,1.2L750.6,545.5z"/>
			<path d="M755.3,547.5c0.4-0.2,0.8-0.5,1.2-0.9s0.7-0.8,1.1-1.2c0.7-0.9,1.3-1.8,1.9-2.7l0.2,0.1c-0.5,1-1.1,2-1.7,2.9
				c-0.3,0.5-0.6,0.9-1,1.4s-0.9,0.9-1.4,1.2L755.3,547.5z"/>
			<path d="M759.8,548.6c0.3-0.1,0.6-0.4,0.8-0.6c0.3-0.3,0.5-0.6,0.8-0.9c0.5-0.6,0.9-1.3,1.3-1.9l0.1,0.1c-0.4,0.7-0.8,1.4-1.2,2
				c-0.2,0.3-0.4,0.7-0.7,1c-0.3,0.4-0.6,0.6-1,0.8L759.8,548.6z"/>
			<g>
				<g>
					<path class="st39" d="M889.8,401.5c19.6-3.6,15.8-14.2,15.8-14.2s6.3,16.8-15.6,22.7L889.8,401.5z"/>
				</g>
				<g>
					<g>
						<g>
							<path class="st40" d="M850.5,333.7c0,0-11.8-2.9-10.9-13.5c0.6-7.5,6.5-11,6.5-11c-1.7,0.9-4.8,10.9-2,14.2"/>
						</g>
						<g>
							<path class="st41" d="M850.5,333.8c-2.6-0.5-5.2-1.7-7.3-3.5c-1-0.9-2-2-2.6-3.2c-0.7-1.2-1.1-2.6-1.2-4
								c-0.2-1.4,0-2.8,0.2-4.1c0.3-1.3,0.6-2.6,1.2-3.9c1.1-2.5,2.8-4.8,5.1-6.3l0.5,0.9c-0.1,0.1-0.3,0.3-0.4,0.5
								c-0.2,0.2-0.3,0.5-0.4,0.8c-0.3,0.5-0.5,1.1-0.7,1.7c-0.4,1.2-0.7,2.3-1,3.5s-0.4,2.4-0.4,3.7c0,1.2,0.1,2.5,0.8,3.5
								l-0.1,0.1c-0.9-0.9-1.3-2.3-1.4-3.6c-0.1-1.3,0-2.6,0.1-3.9c0.2-1.3,0.5-2.5,0.9-3.8c0.2-0.6,0.5-1.2,0.8-1.8
								c0.2-0.3,0.3-0.6,0.5-0.9s0.4-0.6,0.8-0.8l0.5,0.9c-2.1,1.4-4,3.3-5.3,5.6c-0.6,1.2-1,2.5-1.2,3.8s-0.1,2.6,0.1,3.9
								c0.5,2.5,1.8,4.9,3.8,6.6c1.9,1.8,4.2,3.1,6.7,4L850.5,333.8z"/>
						</g>
					</g>
					<g>
						<g>
							<path class="st40" d="M848.9,333.2c-2.1-1-4.6-2.4-7.3-4.3c1.7,9.2,16.4,9.4,18,7.7c1.6-1.7,1.6-1.7,1.6-1.7"/>
						</g>
						<g>
							<path class="st41" d="M848.9,333.3c-1.4-0.4-2.7-1-3.9-1.7c-1.3-0.7-2.5-1.4-3.6-2.3l0.7-0.4c0.1,1,0.4,1.9,0.8,2.8
								c0.5,0.9,1.1,1.6,1.9,2.3c1.6,1.2,3.5,1.9,5.4,2.4s3.9,0.7,5.9,0.7c1,0,2-0.1,2.9-0.3c0.2-0.1,0.4-0.1,0.6-0.3l0.6-0.5
								c0.4-0.3,0.8-0.7,1.2-1l0.1,0.1c-0.3,0.4-0.6,0.8-0.9,1.2l-0.5,0.6c-0.1,0.1-0.2,0.2-0.3,0.3c-0.1,0.1-0.2,0.2-0.4,0.2
								c-1,0.5-2.1,0.6-3.1,0.7c-2.1,0.1-4.2-0.1-6.2-0.7s-3.9-1.6-5.4-3s-2.8-3.1-3.3-5.2l-0.2-1l0.9,0.5c1.2,0.7,2.3,1.5,3.5,2.3
								L848.9,333.3L848.9,333.3z"/>
						</g>
					</g>
					<g>
						<g>
							<path class="st42" d="M848.5,308.9c-0.3,0.4-0.5,0.7-0.8,1.1c-7.4,11.2-2.6,24,7.4,25.3c10.4,1.4,4.8-3.2,10.8-7.9
								c0,0,0.9,11.7,10.9,14s10.8,7.1,10.8,7.1s-0.5-6.3-3.4-8.3c0,0,10.7,2,11.1,11c0.4,9-1.2,9.4,0.1,12.1c0,0-0.4-3.2,3.9-2.2
								c5.8,1.4,5.5,6.8,5.5,6.8s0.6,3.9-4.9,7.5c-2.7,1.8-4.3,8.5,0.4,11.3s4.8,6.1,4.8,6.1l0.4-5.4c0,0,11.9,12.3,23.7,7.1
								c0,0-9.8,0.4-12.9-6.1c0.2,2,12.3,8.2,21.9,4.3c0,0-4.8-0.8-6.1-6.1c-1.3-5.4,1.1-7.8,1.1-7.8s5.5,9.6,8.4,8.6
								c0,0-5.8-2.7-4.3-10.4c0,0,5.3-9.5,5.2-19.8c0,0-1.1,3.8,2.6,5.5c0,0-4-10.6-3-16.3c1-5.8-1.1-13.8-4.8-16.1
								c0,0,1.8-0.4,4.9,3.4c0,0-6-14.8-18.7-17.9c0,0.4-0.5-0.7,4.5-0.8c0,0-5.8-2.5-8.1-0.9c0,0,4.5-2.4,4-5.7c0,0-4.1,3.3-7,4.3
								c0,0-3.1-10.1-17-12.2c-13.9-2.2-24.9,7-29.3,4.2c0,0,1.6,2,11.3,1.4c0,0-18.1,4-20,4.8s-4.6,1.1-8.1-2.2
								c-1.5,1.6-3.2,4.9-0.6,8.2C853.3,316.8,846.6,316.7,848.5,308.9z"/>
						</g>
						<g>
							<path class="st43" d="M848.4,308.9l-0.7,1.2c-0.2,0.4-0.5,0.9-0.7,1.3c-0.5,0.9-0.9,1.8-1.2,2.7c-0.7,1.9-1.1,3.8-1.2,5.8
								c-0.2,3.9,0.9,7.9,3.4,10.8c1.3,1.4,2.9,2.6,4.7,3.2c0.9,0.3,1.8,0.5,2.8,0.6s2,0.2,2.9,0.2s1.9-0.1,2.5-0.5s0.9-1.3,1.2-2.2
								c0.3-1,0.7-2,1.4-2.8c0.6-0.9,1.4-1.6,2.3-2.2l0,0c0.1-0.1,0.3-0.1,0.4,0.1c0,0.1,0.1,0.1,0.1,0.2l0,0
								c0.3,2.6,1.2,5.2,2.5,7.5s3.3,4.2,5.7,5.3c1.2,0.6,2.5,0.8,3.8,1.2c1.3,0.4,2.6,0.8,3.9,1.4c1.3,0.6,2.5,1.3,3.5,2.2
								c1,0.9,2,2,2.4,3.5l-0.9,0.1c-0.2-1.5-0.5-3-0.9-4.4c-0.5-1.4-1.1-2.8-2.2-3.6l0,0c-0.2-0.1-0.2-0.4-0.1-0.6
								c0.1-0.1,0.3-0.2,0.5-0.2c2.4,0.5,4.7,1.5,6.8,3c1,0.7,1.9,1.6,2.7,2.6c0.7,1,1.3,2.2,1.6,3.4c0.3,1.2,0.4,2.5,0.4,3.7
								s0,2.4,0,3.7c-0.1,1.2-0.2,2.4-0.3,3.6c-0.1,0.6-0.2,1.2-0.1,1.7c0,0.5,0.2,1.1,0.4,1.6l-0.8,0.2c-0.1-0.7,0.1-1.5,0.6-2.1
								s1.3-0.8,2-0.8s1.3,0.1,2,0.3c0.6,0.2,1.2,0.4,1.8,0.7c1.2,0.6,2.2,1.5,2.8,2.7s1,2.4,0.9,3.8v-0.1c0.1,1.4-0.4,2.7-1.1,3.9
								c-0.7,1.1-1.6,2.1-2.6,2.9c-0.5,0.4-1.1,0.8-1.6,1.1c-0.5,0.3-0.9,0.8-1.2,1.3c-0.6,1-1,2.3-1.1,3.5s0.1,2.5,0.6,3.6
								s1.5,2,2.6,2.6c1.1,0.7,2.1,1.5,2.9,2.5c0.8,1,1.5,2.2,1.6,3.6H905l0.4-5.4c0-0.1,0.1-0.2,0.2-0.2c0,0,0.1,0,0.1,0.1
								c1.5,1.5,3.2,2.9,5,4.1s3.7,2.2,5.8,3c2,0.7,4.2,1.2,6.3,1.3c2.2,0,4.3-0.4,6.3-1.3l0.1,0.3c-2.5,0-5.1-0.4-7.4-1.3
								c-1.2-0.5-2.3-1-3.4-1.8c-1-0.8-2-1.7-2.7-2.9l1.3-0.4l0,0c0,0,0.1,0.2,0.2,0.3c0.1,0.1,0.3,0.3,0.4,0.4
								c0.3,0.3,0.7,0.6,1.1,0.8c0.8,0.5,1.6,1,2.5,1.4c1.7,0.8,3.6,1.4,5.5,1.8c3.8,0.8,7.8,0.8,11.4-0.6l0,0v0.4
								c-1.5-0.3-2.8-0.9-4-1.9c-1.1-1-2-2.3-2.4-3.8c-0.5-1.4-0.7-2.9-0.7-4.5c0-0.8,0.1-1.5,0.4-2.3c0.3-0.8,0.5-1.5,1.1-2.2
								c0.3-0.3,0.7-0.4,1-0.1c0.1,0.1,0.1,0.1,0.2,0.2l0.1,0.1l0,0c1,1.8,2.1,3.6,3.3,5.2c0.6,0.8,1.3,1.6,2,2.3
								c0.7,0.7,1.6,1.3,2.4,1.2l0,0v0.6c-1-0.4-1.9-1-2.7-1.8s-1.4-1.6-1.9-2.7c-1-2-1.2-4.4-1-6.5l0,0v-0.1c0-0.1,0.1-0.2,0.1-0.4
								c0.8-1.4,1.6-2.9,2.3-4.4s1.3-3.1,1.8-4.7s1-3.2,1.3-4.9c0.3-1.7,0.5-3.3,0.6-5l0,0l0.9,0.1c-0.1,0.5-0.1,1-0.1,1.5
								s0.2,1,0.4,1.4s0.5,0.9,0.9,1.2c0.4,0.3,0.8,0.6,1.3,0.8l-0.6,0.6c-1-2.7-1.8-5.5-2.5-8.3c-0.3-1.4-0.6-2.8-0.7-4.3
								c-0.1-1.4-0.2-3,0.1-4.4c0.4-2.7,0.1-5.6-0.6-8.3c-0.4-1.3-0.8-2.7-1.5-3.9c-0.6-1.2-1.5-2.3-2.6-3l0,0h-0.1
								c-0.2-0.2-0.3-0.5-0.1-0.7c0.1-0.1,0.2-0.2,0.4-0.2c0.5-0.1,0.7,0,1,0.1s0.6,0.2,0.8,0.3c0.5,0.3,1,0.6,1.4,0.9
								c0.8,0.7,1.6,1.5,2.2,2.3l0,0l-0.8,0.5c-0.9-2-2-3.9-3.2-5.8c-1.2-1.8-2.6-3.6-4.1-5.1c-1.5-1.6-3.2-3-5.1-4.1
								c-1.9-1.2-3.9-2-6-2.5l0.6-0.5c0,0.1,0,0.1,0,0.2l0,0l0,0l0,0c0,0,0,0.1-0.1,0.1l-0.1,0.1c-0.1,0,0,0.2-0.5,0
								c-0.5-0.4-0.2-0.6-0.3-0.6v-0.1v-0.1c0-0.1,0-0.1,0.1-0.1c0.1-0.1,0.1-0.1,0.2-0.2c0.1-0.1,0.2-0.1,0.3-0.2
								c0.2-0.1,0.4-0.2,0.6-0.2c0.4-0.1,0.8-0.2,1.2-0.2c0.8-0.1,1.6-0.1,2.4-0.2l-0.2,1c-1.3-0.5-2.6-0.9-3.9-1.2
								c-0.7-0.1-1.3-0.2-2-0.2c-0.6,0-1.3,0.1-1.7,0.4l0,0l-0.5-0.9c0.5-0.3,1-0.7,1.4-1c0.4-0.4,0.8-0.8,1.2-1.2
								c0.3-0.4,0.6-0.9,0.8-1.4s0.2-1,0.1-1.4l0,0l1.3,0.5c-1.1,0.8-2.3,1.6-3.5,2.3c-1.2,0.7-2.5,1.4-3.9,1.8l0,0
								c-0.3,0.1-0.6,0-0.7-0.3l0,0l0,0c-0.7-1.9-1.9-3.7-3.3-5.3c-1.4-1.6-3.1-2.9-5-3.9c-3.7-2-8-3-12.2-3.1
								c-4.3-0.1-8.5,0.9-12.6,2.1c-2.1,0.6-4.1,1.4-6.2,2c-1,0.3-2.1,0.6-3.2,0.8c-1.1,0.1-2.4,0.1-3.4-0.6l0,0l0.6-0.6
								c0.1,0.1,0.3,0.2,0.5,0.3c0.2,0.1,0.4,0.2,0.6,0.3c0.4,0.2,0.9,0.3,1.3,0.4c0.9,0.2,1.9,0.3,2.8,0.4c1.9,0.1,3.8,0.1,5.8,0
								l0,0c0.1,0,0.3,0.1,0.3,0.2s-0.1,0.2-0.2,0.3l0,0l-14.3,3.5l-3.6,0.9c-0.6,0.2-1.2,0.3-1.7,0.5s-1.2,0.5-1.8,0.6
								c-1.3,0.2-2.7,0-3.8-0.6c-1.2-0.6-2.2-1.3-3.1-2.2h0.6c-1,1-1.7,2.4-1.8,3.7c-0.2,1.4,0.3,2.8,1.2,4l0,0
								c0.1,0.1,0.1,0.3-0.1,0.4c-0.1,0-0.1,0.1-0.2,0.1c-1-0.1-1.9-0.3-2.7-0.8s-1.5-1.2-2-2c-0.4-0.9-0.6-1.8-0.6-2.7
								c0-0.5,0-0.9,0.1-1.4l0.1-0.7C848.3,309.3,848.3,309.2,848.4,308.9L848.4,308.9z M848.5,308.8c0,0.2,0,0.5-0.1,0.7l-0.1,0.7
								c0,0.4-0.1,0.9,0,1.3c0,0.9,0.2,1.8,0.7,2.5c0.8,1.5,2.6,2.4,4.3,2.4L853,317c-0.5-0.6-0.9-1.3-1.2-2.1
								c-0.3-0.8-0.4-1.6-0.3-2.4c0.2-1.6,0.9-3.1,2-4.3c0.2-0.2,0.4-0.2,0.6,0l0,0l0,0c0.9,0.8,1.8,1.5,2.9,2
								c1.1,0.5,2.2,0.7,3.3,0.5c0.6-0.1,1.1-0.3,1.7-0.5c0.6-0.2,1.2-0.4,1.8-0.5c1.2-0.3,2.4-0.6,3.6-0.9
								c4.8-1.1,9.6-2.2,14.4-3.2l0.1,0.5l0,0c-1.9,0.2-3.9,0.2-5.8,0.2c-1-0.1-2-0.1-2.9-0.3c-0.5-0.1-1-0.2-1.5-0.4
								c-0.2-0.1-0.5-0.2-0.7-0.3c-0.2-0.1-0.5-0.2-0.7-0.5c-0.2-0.2-0.2-0.4,0-0.6c0.1-0.1,0.4-0.2,0.5-0.1h0.1l0,0
								c0.8,0.5,1.8,0.5,2.8,0.4s2.1-0.4,3.1-0.7c2-0.6,4.1-1.4,6.2-2c4.1-1.3,8.5-2.3,12.9-2.2c4.4,0.1,8.8,1,12.7,3.2
								c3.9,2.1,7.2,5.5,8.8,9.7l-0.7-0.3l0,0c1.2-0.5,2.4-1.2,3.5-2s2.2-1.6,3.2-2.5c0.3-0.3,0.9-0.3,1.1,0.1
								c0.1,0.1,0.2,0.3,0.2,0.4l0,0l0,0c0.1,0.8,0,1.5-0.3,2.2s-0.7,1.3-1.1,1.8c-0.4,0.5-0.9,0.9-1.5,1.3c-0.5,0.4-1.1,0.7-1.7,1
								l0,0c-0.3,0.1-0.6,0-0.7-0.2c-0.1-0.2,0-0.5,0.2-0.7l0,0c0.7-0.5,1.5-0.6,2.3-0.6s1.5,0.1,2.2,0.2c1.4,0.3,2.8,0.7,4.1,1.3
								c0.3,0.1,0.4,0.4,0.3,0.7c-0.1,0.2-0.3,0.3-0.5,0.3l0,0c-0.8,0-1.6,0.1-2.3,0.2c-0.4,0.1-0.8,0.1-1.1,0.2
								c-0.2,0-0.3,0.1-0.5,0.2c-0.1,0-0.1,0.1-0.2,0.1l0,0l0,0l0,0l0,0c0,0,0.2-0.2-0.3-0.6c-0.5-0.1-0.5,0.1-0.5,0l-0.1,0.1
								l-0.1,0.1l0,0l0,0l0,0l0,0l0.6-0.5c2.2,0.6,4.3,1.5,6.3,2.7c1.9,1.2,3.7,2.7,5.3,4.3c1.6,1.6,3,3.4,4.2,5.3s2.4,3.8,3.3,5.9
								c0.1,0.2,0,0.5-0.3,0.6c-0.2,0.1-0.4,0-0.6-0.1l0,0l0,0c-0.7-0.8-1.3-1.5-2.1-2.1c-0.4-0.3-0.8-0.6-1.2-0.8
								c-0.2-0.1-0.4-0.2-0.6-0.2c-0.2-0.1-0.5-0.1-0.5-0.1l0.2-1l0,0c1.3,0.9,2.2,2.1,3,3.4c0.7,1.3,1.2,2.7,1.6,4.1
								c0.7,2.8,1,5.8,0.6,8.7c-0.5,2.7,0,5.6,0.5,8.3c0.6,2.8,1.4,5.5,2.4,8.1l0,0c0.1,0.2,0,0.5-0.3,0.6c-0.1,0-0.3,0-0.4,0
								c-0.5-0.3-1.1-0.6-1.5-1c-0.5-0.4-0.8-0.9-1.1-1.5s-0.4-1.2-0.4-1.8c0-0.6,0-1.2,0.1-1.8c0.1-0.2,0.3-0.4,0.5-0.3
								c0.2,0,0.3,0.2,0.3,0.4l0,0l0,0c0.1,1.7,0.1,3.5-0.1,5.2c-0.2,1.7-0.5,3.5-0.9,5.2s-0.9,3.4-1.4,5.1c-0.6,1.7-1.2,3.3-2,5
								l0.2-0.4l0,0c-0.5,1.8-0.7,3.6-0.2,5.4c0.2,0.9,0.7,1.7,1.2,2.5c0.6,0.8,1.3,1.5,2.1,2h0.1c0.1,0.1,0.2,0.3,0.1,0.4
								c0,0.1-0.1,0.1-0.2,0.1l0,0c-0.6,0.2-1.3,0-1.8-0.2s-1-0.6-1.4-0.9c-0.8-0.7-1.6-1.5-2.3-2.3c-1.4-1.6-2.6-3.3-3.8-5.1l0,0
								l1.2,0.2c-0.3,0.3-0.7,1-0.9,1.6s-0.4,1.3-0.4,1.9c-0.2,1.3,0,2.7,0.3,4.1c0.3,1.3,1,2.6,2,3.5c1,1,2.2,1.7,3.6,2l0,0
								c0.1,0,0.2,0.1,0.1,0.2c0,0.1-0.1,0.1-0.1,0.1l0,0c-3.7,1.6-7.8,1.7-11.7,1c-2-0.3-3.9-0.9-5.8-1.7c-0.9-0.4-1.8-0.8-2.7-1.3
								c-0.4-0.3-0.9-0.5-1.3-0.9c-0.2-0.2-0.4-0.4-0.6-0.6c-0.2-0.2-0.4-0.5-0.5-1l0,0V388c0-0.4,0.2-0.7,0.6-0.7
								c0.3,0,0.6,0.2,0.7,0.5c0.3,1.1,1,2.2,1.9,3s2,1.5,3.1,1.9c1.2,0.5,2.4,0.8,3.6,1c1.2,0.2,2.5,0.3,3.7,0.3
								c0.1,0,0.2,0.1,0.2,0.2s0,0.1-0.1,0.2c-2,0.9-4.2,1.3-6.4,1.3s-4.4-0.5-6.4-1.3c-2.1-0.8-4-1.8-5.8-3s-3.6-2.6-5.1-4.1
								l0.3-0.1l-0.4,5.4c0,0.1-0.1,0.2-0.2,0.2c-0.1,0-0.2-0.1-0.2-0.2l0,0c-0.1-1.2-0.8-2.3-1.6-3.3s-1.8-1.8-2.9-2.4
								c-1.1-0.6-2.2-1.6-2.8-2.8c-0.6-1.2-0.8-2.6-0.7-3.9s0.5-2.6,1.2-3.8c0.4-0.6,0.8-1.1,1.3-1.5s1-0.7,1.5-1.1
								c1-0.8,1.8-1.7,2.4-2.8c0.6-1,1-2.3,0.9-3.4l0,0v-0.1c0-1.2-0.3-2.4-0.9-3.4c-0.6-1-1.5-1.9-2.5-2.4
								c-1.1-0.5-2.3-0.9-3.4-0.8c-0.6,0-1.1,0.2-1.4,0.6c-0.3,0.3-0.5,0.9-0.4,1.4l0,0c0,0.2-0.1,0.4-0.4,0.4
								c-0.2,0-0.3-0.1-0.4-0.2c-0.3-0.6-0.5-1.2-0.5-1.9c0-0.7,0-1.3,0.1-1.9c0.1-1.2,0.3-2.4,0.3-3.6s0-2.4,0-3.6
								s-0.1-2.4-0.4-3.5c-0.6-2.2-2.1-4.1-4-5.5s-4.1-2.3-6.4-2.8l0.3-0.8c0.7,0.5,1.2,1.2,1.6,1.9c0.4,0.7,0.7,1.4,1,2.2
								c0.5,1.5,0.8,3,1,4.6c0,0.2-0.1,0.5-0.4,0.5c-0.2,0-0.4-0.1-0.5-0.3l0,0c-0.3-1.1-1.2-2.2-2.1-3c-1-0.8-2.1-1.5-3.3-2.1
								s-2.5-1-3.7-1.3c-1.3-0.3-2.7-0.6-3.9-1.2c-2.6-1.2-4.6-3.2-6-5.6s-2.2-5.1-2.5-7.8l0,0l0.5,0.2c-0.7,0.7-1.4,1.4-1.9,2.2
								c-0.5,0.8-0.8,1.7-1.1,2.6c-0.1,0.5-0.3,1-0.5,1.5s-0.6,1.1-1.1,1.5c-1.1,0.7-2.2,0.8-3.3,0.8s-2.1-0.1-3.1-0.2
								s-2.1-0.4-3.1-0.8c-2-0.8-3.7-2.1-5.1-3.7c-2.7-3.2-3.7-7.6-3.3-11.7c0.2-2,0.7-4,1.5-5.9c0.4-0.9,0.9-1.8,1.4-2.7
								c0.2-0.4,0.6-0.8,0.8-1.3C847.8,309.6,848.2,309.2,848.5,308.8L848.5,308.8z"/>
						</g>
					</g>
					<g>
						<g>
							<path class="st39" d="M888.8,341.8c3.1,9.1-3.1,10.3,0.6,16.1c0,0,1.8-4.8,5.9-6.8C895.4,351.2,893.4,343.5,888.8,341.8z"/>
						</g>
						<g>
							<g>
								<path class="st44" d="M888.8,341.8c0.5,1.3,0.9,2.6,1.1,4c0.2,1.4,0,2.9-0.3,4.2c-0.3,1.4-0.9,2.7-0.9,4
									c-0.1,1.3,0.5,2.5,1.2,3.6l-0.9,0.1c0.3-0.8,0.7-1.4,1.1-2.1c0.4-0.7,0.9-1.3,1.4-1.9s1.1-1.2,1.7-1.7
									c0.6-0.5,1.3-0.9,2-1.3l-0.3,0.6c-0.2-0.9-0.5-1.8-0.9-2.7c-0.3-0.9-0.7-1.8-1.2-2.6c-0.5-0.8-1-1.6-1.6-2.3
									C890.5,342.9,889.7,342.3,888.8,341.8z M888.8,341.8c1,0.3,1.8,0.8,2.6,1.5s1.4,1.5,1.9,2.3c0.6,0.8,1,1.7,1.5,2.6
									c0.4,0.9,0.8,1.8,1,2.8l0.1,0.4l-0.4,0.2c-0.6,0.3-1.3,0.7-1.8,1.2c-0.6,0.5-1.1,1-1.5,1.6c-0.5,0.6-0.9,1.2-1.3,1.8
									c-0.4,0.6-0.7,1.3-1,2l-0.4,0.9l-0.5-0.8c-0.8-1.2-1.4-2.7-1.3-4.2c0.1-1.5,0.8-2.8,1.1-4.1c0.4-1.3,0.6-2.6,0.6-4
									C889.5,344.6,889.2,343.2,888.8,341.8z"/>
							</g>
						</g>
					</g>
					<g>
						<path class="st44" d="M853.9,308.7c0.9,2.5,2,4.9,3.6,7c1.5,2.1,3.8,3.7,6.3,4c2.5,0.4,5.1-0.1,7.6-0.8
							c2.5-0.8,4.9-1.7,7.4-2.7c4.9-1.9,9.8-4.1,15-4.9c2.6-0.4,5.3-0.6,7.9-0.3c2.6,0.3,5.2,1.1,7.5,2.3
							c-4.8-2.2-10.3-2.5-15.4-1.5c-5.1,1-10,3.1-14.8,5.1c-2.4,1-4.9,2-7.4,2.7s-5.2,1.3-7.9,0.8c-2.7-0.4-5-2.2-6.5-4.4
							C855.6,313.7,854.6,311.2,853.9,308.7z"/>
					</g>
					<g>
						<path class="st44" d="M871.1,331.3c3.1,2.5,6.5,4.5,10.2,5.9c3.7,1.5,7.6,2.3,11.3,3.9c1.9,0.8,3.7,1.9,5.1,3.4
							c1.4,1.5,2.5,3.3,3.1,5.2c1.3,3.9,1.4,8,1.3,12h-0.4c0-4-0.2-8-1.6-11.7c-0.7-1.8-1.7-3.5-3-4.9c-1.4-1.4-3.1-2.3-4.9-3.1
							c-3.6-1.5-7.6-2.3-11.3-3.8C877.2,336.7,873.7,334.4,871.1,331.3z"/>
					</g>
					<g>
						<path class="st44" d="M939,339.9c1.1,4.4,1.2,9.1,0.3,13.5c-0.8,4.5-2.4,8.8-4.4,12.9c-2.1,4-3.7,8.2-3.9,12.6
							c-0.1,2.2,0.2,4.4,1,6.5c0.7,2.1,1.9,4,3.3,5.8c-1.6-1.6-2.9-3.5-3.8-5.6c-0.9-2.1-1.3-4.4-1.3-6.7c0-4.6,1.6-9.1,3.7-13.1
							c1.9-4,3.5-8.2,4.4-12.6C939.2,348.9,939.5,344.4,939,339.9z"/>
					</g>
					<g>
						<path class="st44" d="M916.4,315.4c0.2,0.7,0.3,1.4,0.6,1.9s0.8,0.7,1.5,0.8c0.7,0.1,1.4,0,2.1,0c0.7,0,1.5,0.1,2.1,0.4
							c-1.4-0.1-2.8,0.4-4.3,0.3c-0.4,0-0.8-0.1-1.2-0.3c-0.4-0.2-0.7-0.5-0.9-0.9C916,316.9,916.2,316.1,916.4,315.4z"/>
					</g>
					<g>
						<path class="st44" d="M901.7,383.2c0.2-1.6,0.7-3.1,1.4-4.6s1.7-2.8,2.6-4c1-1.3,1.9-2.5,2.8-3.8c0.8-1.3,1.4-2.7,1.7-4.1
							c0.6-2.9,0.3-6.1-0.8-8.9c-0.5-1.4-1.3-2.8-2.2-4.1c-0.9-1.3-1.9-2.5-3-3.6c2.7,1.7,4.9,4.2,6.3,7.2c1.4,3,1.8,6.4,1.1,9.7
							c-0.4,1.6-1.1,3.2-2,4.5c-0.9,1.4-2,2.6-3,3.7c-1,1.2-2.1,2.4-2.9,3.7C902.7,380.2,902.1,381.7,901.7,383.2z"/>
					</g>
					<g>
						<path class="st44" d="M916.3,372.6c0,2.7,0.1,5.3,0.4,7.9c0.3,2.6,1,5.2,2.3,7.4c1.3,2.2,3.3,4.1,5.7,5.1
							c2.4,1.1,5.1,1.5,7.7,1.5c-2.6,0.1-5.4-0.1-7.9-1.1s-4.7-2.9-6.1-5.2c-1.4-2.3-2.2-5-2.5-7.7
							C915.6,377.9,915.7,375.2,916.3,372.6z"/>
					</g>
					<g>
						<path class="st44" d="M892.4,316.4c1.4,0.7,3,0.9,4.5,1c1.5,0,3.1,0,4.7,0c3.1,0,6.4,0.3,9.2,1.9c2.8,1.5,4.9,4.1,6.5,6.8
							c1.5,2.8,2.5,5.8,2.7,9c-0.8-3-1.8-5.9-3.4-8.6c-1.5-2.6-3.5-5.1-6.2-6.6c-2.6-1.5-5.8-2-8.8-2c-1.5,0-3.1,0-4.7-0.2
							C895.3,317.5,893.7,317.2,892.4,316.4z"/>
					</g>
					<g>
						<path class="st44" d="M920.8,324c2,0.9,3.9,2,5.5,3.5c1.7,1.4,3.2,3.1,4.2,5.1c1.1,2,1.7,4.2,1.8,6.4c0.1,2.2-0.3,4.4-1,6.5
							c0.2-2.2,0.3-4.3,0-6.4s-0.9-4.1-1.9-5.9s-2.3-3.5-3.8-5C924.1,326.8,922.5,325.4,920.8,324z"/>
					</g>
					<g>
						<path class="st44" d="M862.3,333.3c-2.8-0.1-5.6-0.8-8.1-2.1c-2.5-1.4-4.7-3.4-6.1-5.9c-1.4-2.5-2.1-5.4-1.9-8.3
							c0.1-2.9,1.1-5.6,2.4-8.1c-0.9,2.6-1.5,5.4-1.5,8.1s0.7,5.4,2,7.7c1.3,2.3,3.3,4.3,5.6,5.7
							C856.9,331.8,859.5,332.8,862.3,333.3z"/>
					</g>
					<g>
						<path class="st44" d="M911.8,311.2c-2.3-2.8-5.2-5.2-8.7-6.3c-3.4-1.1-7.1-1.1-10.7-0.8c-3.6,0.3-7.2,0.9-10.9,1.2
							c-1.8,0.1-3.7,0.2-5.5,0.2c-1.8-0.1-3.7-0.3-5.5-0.8c1.8,0.2,3.6,0.3,5.5,0.3c1.8,0,3.6-0.2,5.4-0.5c3.6-0.5,7.2-1.1,10.9-1.4
							s7.5-0.3,11,1.1c1.8,0.7,3.4,1.6,4.8,2.8C909.6,308.2,910.8,309.6,911.8,311.2z"/>
					</g>
					<g>
						<path class="st44" d="M862.5,326.5c-0.7-0.5-1.4-1-2.1-1.5l-1-0.8c-0.3-0.3-0.6-0.6-1-0.9c-1.2-1.2-2.4-2.6-3.3-4.2
							c-0.9-1.6-1.4-3.3-1.7-5.1c-0.3-1.8-0.2-3.6-0.1-5.3l0,0c0-0.3,0.2-0.5,0.5-0.5c0.2,0,0.3,0.1,0.4,0.2
							c1.4,2.4,3.5,4.5,6.1,5.5s5.6,1,8.3,0.4c2.8-0.6,5.5-1.6,8.1-2.8c2.6-1.2,5.2-2.6,7.7-4c-2.4,1.6-4.9,3.1-7.5,4.4
							s-5.3,2.4-8.2,3.1c-2.8,0.7-5.9,0.8-8.8-0.2c-2.9-1-5.1-3.3-6.6-5.9l0.9-0.2c0,1.7,0,3.5,0.2,5.1c0.2,1.7,0.7,3.3,1.4,4.8
							c0.8,1.5,1.8,2.9,2.9,4.2C860,324.1,861.3,325.3,862.5,326.5z"/>
					</g>
					<g>
						<path class="st44" d="M854.2,309.7c1.4,4.2,3.2,8.4,6.3,11.7c3,3.2,7.1,5.4,11.4,6.3c4.3,1,8.8,1.1,13.3,1.2
							c2.2,0,4.5,0,6.7,0.2c2.3,0.2,4.5,0.4,6.7,0.9c4.4,0.9,8.8,2.4,12.7,4.8c3.9,2.3,7.2,5.7,9.4,9.6c1.1,2,2,4.1,2.6,6.3
							c0.2,0.5,0.3,1.1,0.4,1.6c0.1,0.6,0.2,1.1,0.3,1.7c0.2,1.1,0.4,2.2,0.4,3.4c0.3,4.5,0,9-0.8,13.4c0.6-4.4,0.8-8.9,0.3-13.4
							c-0.1-1.1-0.3-2.2-0.5-3.3c-0.1-0.5-0.3-1.1-0.4-1.6c-0.1-0.5-0.3-1.1-0.4-1.6c-0.6-2.1-1.5-4.2-2.6-6.1
							c-2.2-3.8-5.4-7-9.2-9.2c-3.8-2.3-8-3.7-12.4-4.5c-8.7-1.9-17.8-0.3-26.7-2.5c-4.4-1-8.6-3.3-11.6-6.7
							C857.1,318.3,855.4,314,854.2,309.7z"/>
					</g>
				</g>
				<g>
					<path class="st45" d="M850.4,385.7c-2,0.1-5.7-2.1-5.7-4.1c-0.2-4.6,2.4-3.2,4.3-3.3"/>
				</g>
				<g>
					<circle class="st46" cx="854.5" cy="363.5" r="2.8"/>
				</g>
				<g>
					<path class="st47" d="M856.7,388.3c1.1,0.9,2.6,1.5,4.1,1.6s3.1-0.3,4.6-0.9c3-1.2,5.6-3.4,7.9-5.9l0,0c0.1-0.1,0.2-0.1,0.2,0
						l0.1,0.1l0,0c0.1,0.5,0.2,1,0.2,1.5s-0.1,1.1-0.5,1.5c-0.3,0.5-0.9,0.7-1.4,0.8c-0.5,0.1-1.1,0-1.6,0c-0.1,0-0.2-0.1-0.2-0.2
						s0.1-0.2,0.2-0.2l0,0c0.5,0.1,1,0.1,1.4,0c0.5-0.1,0.9-0.3,1.2-0.6c0.5-0.7,0.4-1.8,0.2-2.7l0,0l0.3,0.1
						c-2.1,2.6-4.6,5-7.7,6.6c-1.6,0.8-3.3,1.3-5.1,1.4s-3.7-0.5-5.2-1.6l0,0c-0.4-0.3-0.5-0.9-0.2-1.3
						C855.6,388,856.2,387.9,856.7,388.3C856.6,388.3,856.6,388.3,856.7,388.3z"/>
				</g>
				<g>
					<path class="st39" d="M850.2,350.6c2-2.6,12.4-3.4,15.2,0.4c0.2,0.3-0.3,0.6-0.7,0.5c-2.3-0.7-7.7-2-10.7-0.6
						C850.1,352.7,850.2,350.6,850.2,350.6z"/>
				</g>
				
					<image style="overflow:visible;enable-background:new    ;" width="79" height="75" xlink:href="572B3B6.png"  transform="matrix(1 0 0 1 825 335)">
				</image>
				<g>
					<path class="st47" d="M898.2,360.6c2.1,0.3,4.1,1.4,5.6,3.1c1.4,1.7,2,4.2,1.4,6.4c-0.6,2.2-2.3,3.9-4.2,4.9
						c-1.9,1.1-4.1,1.5-6.2,1.4c2.1-0.3,4.1-0.9,5.8-2.1c1.7-1.1,3.1-2.7,3.6-4.6s0.1-3.9-1.1-5.5
						C901.9,362.6,900.1,361.4,898.2,360.6z"/>
				</g>
				<g>
					<path class="st47" d="M907.8,394.4c-0.6,1.8-0.7,3.8-0.9,5.8c-0.1,2-0.2,4-0.3,6s-0.1,4,0,6c0,1,0.1,2,0.2,3
						c0.1,0.5,0.1,1,0.2,1.5c0,0.2,0.1,0.5,0.2,0.7c0,0.1,0.1,0.2,0.1,0.3v0.1l0,0c0,0,0-0.1-0.1-0.1c0,0-0.5-0.4-0.9-0.1l0.8,1.2
						c-0.5,0.3-1,0-1-0.1s-0.1-0.1-0.1-0.2v-0.1c-0.1-0.1-0.1-0.2-0.1-0.3c0-0.2-0.1-0.3-0.1-0.4c0-0.3-0.1-0.5-0.1-0.8
						c-0.1-0.5-0.1-1-0.2-1.5c-0.1-1-0.2-2-0.2-3.1c-0.1-2-0.3-4.1-0.3-6.1s0-4.1,0.3-6.1c0.1-1,0.3-2,0.6-3.1c0.3-1,0.7-2,1.4-2.9
						L907.8,394.4z"/>
				</g>
				<g>
					<path class="st47" d="M890.4,401.6c-0.1,0.6-0.2,1.4-0.2,2.1s-0.1,1.4,0,2.1c0,1.4,0.1,2.9,0.1,4.3c0.1,1.4,0.2,2.9,0.3,4.3
						l0.2,2.1c0.1,0.7,0.1,1.5,0.3,2l-1,0.3c-0.1-0.4-0.1-0.8-0.1-1.2v-1.1v-2.1c0-1.4,0-2.9-0.1-4.3c0-1.4-0.1-2.9-0.2-4.3
						c0-0.7-0.1-1.4-0.2-2.2c0-0.8,0-1.4,0.1-2.2L890.4,401.6z"/>
				</g>
				<g>
					<g>
						<path class="st47" d="M862.1,362.5c0,1.6-0.6,3.1-1.6,4.2s-2.3,2-3.7,2.5c-0.7,0.2-1.6,0.2-2.3,0s-1.4-0.7-1.9-1.2
							c-1-1.1-1.6-2.6-1.8-4s-0.2-3.1,0.8-4.3c0.9-1.3,2.5-1.8,4-1.9s3,0.2,4.3,1c0.7,0.4,1.2,1,1.6,1.6
							C861.9,360.9,862.1,361.7,862.1,362.5z M861.4,362.5c0-1.4-0.7-2.6-1.9-3.4c-1.1-0.7-2.6-1.1-4-1c-1.4,0-2.8,0.5-3.6,1.7
							c-0.8,1.1-0.9,2.6-0.7,4s0.8,2.8,1.7,3.8s2.4,1.5,3.7,1.1s2.5-1.3,3.4-2.3C860.9,365.2,861.4,363.8,861.4,362.5z"/>
					</g>
				</g>
				<g>
					<path class="st47" d="M898.3,369.8c-0.6-0.3-0.8-0.2-0.8-0.2l-0.9-0.2v-2.2h1v1.3c0.3,0,0.7,0.1,1.2,0.3L898.3,369.8z"/>
				</g>
				<g>
					<path class="st47" d="M912.9,392.4c-0.5-0.4-0.9-0.4-1.4-0.4s-0.9,0.1-1.4,0.3c-0.9,0.3-1.5,1-1.9,1.7c-0.5,0.7-0.8,1.6-1,2.5
						s-0.3,1.8-0.5,2.7l-1-0.1c0-0.5,0.1-1,0.2-1.5c0.1-0.5,0.2-1,0.3-1.5c0.2-1,0.6-1.9,1.2-2.8c0.6-0.9,1.6-1.5,2.6-1.6
						c0.5-0.1,1-0.1,1.5-0.1s1,0,1.5-0.3L912.9,392.4z"/>
				</g>
				<g>
					<path class="st47" d="M898.2,396.7c-0.6,1-1.6,1.8-2.5,2.5c-1,0.7-2,1.3-3.1,1.9c-2.1,1.2-4.3,2.1-6.6,2.9
						c-4.5,1.6-9.1,2.9-13.9,3.7c-2.4,0.4-4.8,0.6-7.2,0.7c-2.4,0-4.9-0.2-7.1-1.3c-0.5-0.3-1.1-0.7-1.5-1.2s-0.8-1-1-1.5
						c-0.6-1-1.1-2.1-1.6-3.3c-0.9-2.2-1.6-4.5-2.2-6.8c-1.2-4.6-2-9.3-2.6-14.1c-0.6-4.7-1.1-9.5-1.4-14.2
						c-0.3-4.8-0.4-9.5-0.3-14.3c0.1-2.4,0.2-4.8,0.4-7.2c0.3-2.4,0.6-4.8,1.7-7.1l0.8,0.5c-1,2-1.4,4.4-1.7,6.7
						c-0.3,2.3-0.4,4.7-0.5,7.1c-0.2,4.7,0,9.5,0.2,14.2c0.3,4.7,0.7,9.5,1.3,14.2s1.4,9.4,2.6,14c0.6,2.3,1.2,4.6,2.1,6.8
						c0.4,1.1,0.9,2.2,1.6,3.1c0.6,1,1.3,1.9,2.3,2.4c2,1,4.4,1.2,6.8,1.1c2.3-0.1,4.7-0.4,7-0.8c4.6-0.9,9.2-2.1,13.6-3.7
						c2.2-0.8,4.4-1.6,6.6-2.6c1.1-0.5,2.1-1,3.2-1.6C896.4,398.2,897.3,397.6,898.2,396.7z"/>
				</g>
				<g>
					<path class="st48" d="M846.3,313.8"/>
				</g>
				<g>
					<path class="st47" d="M850.3,388c-1.5,0-3.6-0.8-5.4-2c-2.1-1.4-3.4-3.1-3.4-4.6c-0.1-2.4,0.3-3.9,1.2-4.8c1-1,2.5-0.8,4-0.7
						c0.6,0.1,1.2,0.1,1.7,0.1v1c-0.6,0-1.2,0-1.8-0.1c-1.3-0.1-2.5-0.2-3.2,0.4s-1,2-0.9,4c0,1.1,1.2,2.6,3,3.8
						c1.7,1.1,3.7,1.9,5,1.8v1C850.5,388,850.4,388,850.3,388z"/>
				</g>
				<g>
					<g>
						
							<ellipse transform="matrix(0.9992 -3.934873e-02 3.934873e-02 0.9992 -13.653 33.7075)" class="st49" cx="849.5" cy="363.7" rx="2.4" ry="9.9"/>
					</g>
					<g>
						<path class="st47" d="M852.9,363.6c0.1,1.8,0,3.6-0.3,5.4c-0.2,0.9-0.4,1.8-0.7,2.7c-0.1,0.4-0.3,0.9-0.6,1.3
							c-0.1,0.2-0.3,0.4-0.5,0.7c-0.2,0.2-0.5,0.4-0.9,0.5c-0.4,0-0.7-0.2-0.9-0.4c-0.2-0.2-0.3-0.4-0.5-0.6
							c-0.2-0.4-0.4-0.9-0.6-1.3c-0.3-0.9-0.5-1.7-0.7-2.6c-0.3-1.8-0.5-3.5-0.6-5.3c0-1.8,0-3.6,0.3-5.3c0.1-0.9,0.3-1.8,0.5-2.6
							c0.1-0.4,0.3-0.9,0.5-1.3c0.1-0.2,0.2-0.4,0.4-0.6s0.4-0.4,0.8-0.4c0.3,0,0.6,0.2,0.8,0.3c0.2,0.2,0.3,0.4,0.5,0.6
							c0.3,0.4,0.5,0.8,0.7,1.2c0.4,0.8,0.7,1.7,0.9,2.6C852.5,360,852.8,361.8,852.9,363.6z M851,363.7c-0.1-1.7-0.1-3.4-0.3-5.1
							c-0.1-0.9-0.2-1.7-0.4-2.5c-0.1-0.4-0.3-0.8-0.4-1.2c-0.2-0.3-0.5-0.6-0.7-0.7c-0.2,0-0.5,0.3-0.7,0.7
							c-0.2,0.4-0.3,0.8-0.4,1.2c-0.2,0.8-0.3,1.7-0.4,2.6c-0.1,1.7-0.1,3.5,0,5.2s0.2,3.5,0.6,5.2c0.2,0.8,0.4,1.7,0.7,2.5
							c0.1,0.4,0.3,0.8,0.5,1.1c0.2,0.3,0.5,0.6,0.6,0.5c0,0,0.3-0.3,0.4-0.6c0.1-0.4,0.3-0.7,0.3-1.1c0.2-0.8,0.2-1.7,0.3-2.5
							C851.1,367.1,851,365.4,851,363.7z"/>
					</g>
				</g>
				<g>
					<path class="st50" d="M848.5,308.9"/>
				</g>
				<g>
					<path class="st39" d="M848.5,308.9c-1.1,2.7-1.8,5.5-2,8.4s0.2,5.8,1.4,8.4s3.6,4.5,6.3,5.3s5.6,0.7,8.4,0.3l0.1,0.9
						c-2.9,0.4-5.9,0.4-8.8-0.5c-1.4-0.5-2.8-1.2-3.9-2.2c-1.1-1-2-2.2-2.6-3.6c-1.2-2.7-1.5-5.7-1.3-8.6
						C846.5,314.4,847.3,311.5,848.5,308.9z"/>
				</g>
				<g>
					<path class="st47" d="M895.4,359c-25.4-10.8-43.2-6.1-45.9-5.3c-0.1,0-0.1,0.2,0,0.2c0.9,0.6,1.5,2.5,1.7,3.5
						c0.1,0.2,0.3,0.4,0.5,0.3c3.6-0.9,29-7,43.6,3.2L895.4,359z"/>
				</g>
			</g>
		</g>
		<g id="Strokes">
			<path class="st51" d="M876.8,660.2c10.3,30.5,27,78.1,27,78.1"/>
			<path class="st51" d="M879.5,650.1c9.7,30.5,28.4,85.5,28.4,85.5"/>
			<path class="st51" d="M883.7,637.6c4.1,15,30.1,95.8,30.1,95.8"/>
			<line class="st51" x1="886.8" y1="628.6" x2="916.7" y2="729.9"/>
			<path class="st51" d="M898.3,543.5c0,7.5-14.6,94.1-14.6,94.1"/>
			<path class="st51" d="M907.9,543.4c0.4,6.9-17,75.1-17,75.1"/>
			<path class="st51" d="M916.7,540.7c1.4,9.8-20.6,66.4-20.6,66.4"/>
			<path class="st51" d="M925.1,537.4c1.3,8.2-19.6,52.4-19.6,52.4"/>
			<path class="st51" d="M932.3,532.4c0,0-5.2,19.3-9.2,26.4"/>
			<path class="st51" d="M893.5,543.3c0,0-35.5,190.1-32.6,204.5"/>
			<path class="st51" d="M885,542.3c0,0-32.9,205.2-29.7,207.1"/>
			<path class="st51" d="M874.5,539.5c0,0-25,206-23.8,208.7"/>
			<path class="st51" d="M863.9,533.4c0,0-16.4,199.4-19,212.7"/>
		</g>
	</g>
</g>
<rect class="st52" width="1010.2" height="1080"/>
</svg>
