<?xml version="1.0" encoding="utf-8"?>
<!-- Generator: Adobe Illustrator 25.2.3, SVG Export Plug-In . SVG Version: 6.00 Build 0)  -->
<svg version="1.1" id="Capa_1" xmlns="http://www.w3.org/2000/svg" xmlns:xlink="http://www.w3.org/1999/xlink" x="0px" y="0px"
	 viewBox="0 0 1010.2 1080" style="enable-background:new 0 0 1010.2 1080;" xml:space="preserve">
<style type="text/css">
	.st0{fill:none;}
	.st1{fill:#F3DF7A;}
	.st2{fill:#0E2633;}
	.st3{fill:#962F3B;}
	.st4{fill:#E44653;}
	.st5{fill:none;stroke:#0E2633;stroke-width:0.9725;stroke-miterlimit:10;}
	.st6{fill:none;stroke:#0E2633;stroke-width:0.9064;stroke-miterlimit:10;}
	.st7{fill:none;stroke:#0E2633;stroke-width:0.8643;stroke-miterlimit:10;}
	.st8{fill:none;stroke:#0E2633;stroke-width:0.9274;stroke-miterlimit:10;}
	.st9{fill:none;stroke:#0E2633;stroke-width:0.8883;stroke-miterlimit:10;}
	.st10{fill:#9BC8DC;}
	.st11{fill:none;stroke:#962F3B;stroke-width:1.9438;stroke-miterlimit:10;}
	.st12{fill:none;stroke:#45758D;stroke-width:1.9217;stroke-miterlimit:10;}
	.st13{fill:#45758D;}
	.st14{fill:#F198A7;}
	.st15{fill:none;stroke:#45758D;stroke-width:1.2365;stroke-miterlimit:10;}
	.st16{fill:none;stroke:#0E2633;stroke-width:2.2534;stroke-miterlimit:10;}
	.st17{font-family:'ShowcardGothic-Reg';}
	.st18{font-size:26.4231px;}
	.st19{fill:#FFE169;}
	.st20{fill:#F5EBA9;}
	.st21{fill:none;stroke:#0E2633;stroke-width:0.8643;stroke-linejoin:round;stroke-miterlimit:10;}
	.st22{fill:none;stroke:#0E2633;stroke-width:0.6182;stroke-miterlimit:10;}
	.st23{fill:none;stroke:#0E2633;stroke-width:1.7091;stroke-miterlimit:10;}
	.st24{fill:none;stroke:#0E2633;stroke-width:1.4929;stroke-miterlimit:10;}
	.st25{fill:none;stroke:#0E2633;stroke-width:1.8007;stroke-miterlimit:10;}
	.st26{fill:none;stroke:#0E2633;stroke-width:2.6265;}
	.st27{fill:none;stroke:#0E2633;stroke-width:1.6448;stroke-miterlimit:10;}
	.st28{fill:none;stroke:#0E2633;stroke-width:1.1377;stroke-miterlimit:10;}
	.st29{fill:#BAE2F9;}
	.st30{fill:none;stroke:#0E2633;stroke-width:1.1353;stroke-miterlimit:10;}
	.st31{fill:none;stroke:#0E2633;stroke-width:1.2365;stroke-miterlimit:10;}
</style>
<rect class="st0" width="1010.2" height="1080"/>
<g>
	<path class="st1" d="M738.2,575.2c-0.1-1.7,2.1-6.5,2.1-6.5s2.7,0.5,3.5,1.4c0.8,0.9,1.2,7-1.4,6.7
		C739.9,576.5,738.2,575.2,738.2,575.2z"/>
	<g>
		<path class="st2" d="M1009.2,872.3c-38.1,1.5-76.2,0.7-114.2-0.1c-38-0.8-75.9-1.5-113.9-0.6c-38,0.8-76,2.5-114.1,3
			c-9.5,0.2-19.1,0.2-28.6,0.2c-9.5-0.1-19.1-0.1-28.6-0.4c-19.1-0.5-38.1-1.5-57.1-2.6c-38-2.2-75.8-4.5-113.7-3.9
			c-37.9,0.5-75.9,2.9-114,3.8c-9.5,0.2-19,0.4-28.7,0.3c-9.6-0.1-19.1-0.7-28.7-1.4l-28.4-2.3c-9.5-0.7-18.9-1.5-28.3-1.9
			c-37.7-1.8-75.7,3.8-113.8,3.1c19-1,37.9-3.1,56.8-5.1c18.9-1.9,38-3.5,57.2-3.2c9.6,0.1,19.1,0.5,28.6,1.1l28.5,1.7
			c9.5,0.5,18.9,0.9,28.3,0.9c9.4,0,18.9-0.3,28.4-0.6c37.9-1.3,75.9-3.7,114-4.4c19.1-0.4,38.2-0.1,57.3,0.6
			c19.1,0.8,38.1,1.9,57,3c19,1.1,37.9,2.1,56.9,2.5c9.5,0.2,18.9,0.3,28.4,0.4c9.5,0,19,0,28.4-0.1c37.9-0.4,75.9-1.9,114-2.6
			c19-0.3,38.1-0.4,57.2-0.1c19,0.3,38.1,0.9,57.1,1.5c38,1.2,76,2.3,113.9,1.5c1.5,0,2.8,1.2,2.9,2.7
			C1011.9,870.9,1010.7,872.2,1009.2,872.3z"/>
	</g>
	<path class="st3" d="M922.6,820.6c-3.2-4-8.8-10.6-7.5-4.8c1.3,6-6.2,8.6-11,9c-4.8,0.3-8.4,2.7-8.3,6.1c0.1,3.4-7.7,13-11.2,14.3
		c-3.5,1.3-10,3.6-2.9,8c0,0,9.2,1.9,12.4,0c3.2-1.9,6.7-2.6,13.9-5.8c7.2-3.2,3.3-12.5,9.5-12.1c6.2,0.4,10-6.6,12.5-9.9
		s-4-0.4-7.1-4.3C922.8,820.9,922.7,820.8,922.6,820.6z"/>
	<path class="st4" d="M779.2,854.1c4.3-2.4,17.1-5,21.7-6.6c4.6-1.6,10.3-3.9,13.3-7.1c3-3.2,2.7-7.8,4.8-4.9c2.1,2.8-5,4.5,1.7,6
		s12.4,3.6,15.4,1.8c3-1.8,1.8-4.9,4.4-4.1c2.7,0.9,3.8,4.5,4.1,7.6s2.3,11.4,2.3,11.4s-1.8,2.7-7.3,2.8c-5.5,0.2-6.6,1.4-8.1,0
		c-1.5-1.4-2.3,0.1-5.5,0.7c-3.2,0.6-28,2.9-34.2,1.1s-12.2-4.5-12.6-6.1C778.8,855.1,779.2,854.1,779.2,854.1z"/>
	<g>
		<path class="st2" d="M937.4,551.4c-2.8,11.8-7.1,23.2-12.3,34.1c-5.1,11-10.9,21.6-16.7,32.2c-5.8,10.6-11.6,21.2-16.9,31.9
			c-5.3,10.8-10,21.9-14.1,33.2c-4.1,11.3-7.6,22.8-10.4,34.5c-1.5,5.8-2.7,11.7-3.9,17.6c-0.5,3-1.1,5.9-1.6,8.9l-1.4,8.9
			l-10.8,71.6l0,0.1l0,0.1l0,0c-1.3,2.2-3.5,3.9-6,4.4c-2.5,0.5-5,0.2-7.4-0.5c-2.4-0.7-4.6-1.7-6.8-2.8c-2.1-1.2-4.2-2.5-6.2-3.9h0
			l-0.2-0.1l0-0.3c2.1-22.1,4.2-44.1,6.1-66.2l2.8-33.1c0.9-11,1.9-22.1,2.7-33.1l2.5-33.1c0.8-11,1.7-22.1,2.5-33.1l4.7-66.3
			l0.2-2.5l0.7,2.4l0,0c0.6,2.2,1.6,4.3,3,6.1c1.3,1.9,3,3.5,4.8,4.9c3.6,2.9,7.8,4.9,12.2,6.5c4.4,1.5,8.9,2.5,13.5,3.1
			c4.6,0.6,9.2,0.8,13.9,0.6c9.2-0.4,18.5-2.3,26.8-6.4c4.1-2.1,8-4.8,11-8.2c3.1-3.4,5.3-7.6,6.2-12.1l0.9,0.2
			c-1,4.6-3.3,9-6.4,12.5c-3.2,3.5-7.1,6.3-11.3,8.4c-8.4,4.2-17.8,6.1-27.2,6.5c-4.7,0.2-9.4,0-14-0.6c-4.6-0.6-9.3-1.6-13.7-3.2
			c-4.4-1.6-8.7-3.7-12.4-6.6c-1.8-1.5-3.5-3.2-4.9-5.1c-1.4-1.9-2.5-4.1-3.1-6.4l0,0l0.9-0.1l-0.6,16.6l-0.3,8.3l-0.4,8.3
			l-0.8,16.6c-0.3,5.5-0.6,11.1-1,16.6c-0.7,11.1-1.5,22.1-2.2,33.2l-2.7,33.2c-0.9,11-1.9,22.1-2.9,33.1c-1,11-2.1,22.1-3.2,33.1
			c-2.2,22.1-4.6,44.1-7.3,66.1l-0.2-0.4l0,0c1.9,1.4,3.9,2.7,6,3.9c2.1,1.1,4.3,2.1,6.6,2.8c2.3,0.6,4.7,1,6.9,0.5
			c2.3-0.5,4.2-2,5.4-4l0,0l-0.1,0.2l10-71.7c3.2-24,8.8-47.6,17-70.4c4.1-11.4,8.8-22.5,14.1-33.4c2.6-5.5,5.5-10.8,8.4-16.1
			l8.7-15.9c2.9-5.3,5.8-10.6,8.7-15.9c2.9-5.3,5.7-10.6,8.3-16c5.2-10.8,9.9-22,12.9-33.6L937.4,551.4z"/>
	</g>
	<g>
		<path class="st2" d="M879.6,675.1c1,2.6,1.7,5.3,2.5,7.9l2.3,7.9c1.5,5.3,2.9,10.6,4.3,15.9c2.9,10.6,5.6,21.3,8.3,31.9
			c2.8,10.6,5.3,21.3,8,32c2.6,10.7,5.1,21.4,7.5,32.1l0,0.1l0,0.1l0,0c-0.6,2.1-1.8,3.9-3.2,5.4c-1.5,1.5-3.2,2.7-5,3.8
			c-1.8,1-3.7,1.9-5.7,2.6c-2,0.7-3.9,1.3-6,1.8l-0.4,0.1l-0.1-0.4c-9.9-28.3-19.7-56.7-29.1-85.2l0.8-0.3
			c9.4,28.5,19.2,56.8,29.1,85.2l-0.5-0.3c2-0.4,3.9-1,5.8-1.7c1.9-0.7,3.8-1.5,5.5-2.6c1.7-1,3.4-2.2,4.8-3.6c1.4-1.4,2.5-3.2,3-5
			l0,0l0,0.2c-2.9-10.6-5.6-21.3-8.4-31.9l-8.1-32l-8-32l-4.1-16l-2.1-8c-0.7-2.6-1.4-5.3-2.3-7.9L879.6,675.1z"/>
	</g>
	<g>
		<path class="st2" d="M927.7,576c0.1,4.8,0.1,9.5,0.1,14.3l0,14.3l0.1,14.3c0,2.4,0.1,4.8,0.1,7.1c0,1.2,0.1,2.4,0.1,3.6
			c0.1,1.2,0.1,2.4,0.3,3.5l-0.5-0.4l8.4,0.1l0,0l-0.5,0.5c-0.3-1.6-0.5-3.2-0.7-4.7c-0.2-1.6-0.5-3.2-0.6-4.8l-0.5-4.8l-0.4-4.8
			c-0.5-6.4-0.7-12.8-0.6-19.2c0.1-6.4,0.5-12.8,1.1-19.2c0.3-3.2,0.6-6.3,0.8-9.5c0.3-3.2,0.4-6.3,0.4-9.5l1-0.1
			c0.3,3.2,0.3,6.4,0.3,9.6c-0.1,3.2-0.3,6.4-0.5,9.6c-0.3,6.4-0.7,12.7-0.7,19.1c-0.1,6.3,0,12.7,0.3,19l0.2,4.8l0.3,4.8
			c0.1,3.2,0.5,6.3,0.6,9.5l0,0.6l-0.5,0l0,0l-8.4-0.1l-0.4,0l-0.1-0.4c-0.2-1.3-0.3-2.4-0.4-3.6c-0.1-1.2-0.1-2.4-0.1-3.6
			c-0.1-2.4-0.1-4.8-0.1-7.1l-0.1-14.3l0-14.3c0-4.8,0-9.5-0.1-14.3L927.7,576z"/>
	</g>
	<g>
		<g>
			<path class="st2" d="M775.5,857.5c-0.1-0.1-0.1-0.2-0.1-0.3l0-0.1l0-0.1l0-0.2l0.1-0.4c0-0.3,0.1-0.6,0.2-0.9
				c0.1-0.6,0.3-1.1,0.6-1.7c0.5-1.1,1.3-2.1,2.4-2.8c0.3-0.1,0.6-0.3,0.9-0.4c0.3-0.1,0.6-0.2,0.9-0.2c0.5-0.1,1.1-0.2,1.6-0.4
				c1.1-0.3,2.2-0.6,3.2-0.9c4.3-1.3,8.6-2.8,12.7-4.5c4.2-1.7,8.2-3.6,12.1-5.8c3.9-2.2,7.6-4.8,10.6-8c0.9-1,2.5-1.5,3.9-0.8
				c0.7,0.3,1.2,1,1.3,1.8c0.1,0.7,0,1.4-0.1,2c-0.2,0.6-0.4,1.2-0.7,1.7c-0.3,0.5-0.4,0.9-0.6,1.4c-0.1,0.5-0.1,0.9,0,1.3
				c0.1,0.4,0.4,0.7,0.8,1c0.7,0.6,1.8,1,2.8,1.2c1,0.2,2.1,0.3,3.2,0.3c1.1,0,2.2-0.1,3.2-0.3c1-0.2,2.1-0.5,2.7-1.1
				c0.1-0.1,0.1-0.1,0.2-0.2c0,0,0,0,0-0.1l0,0l0-0.1c0.1-0.3,0.1-0.6,0.2-0.9c0.2-0.6,0.4-1.1,0.7-1.7c0.6-1.1,1.5-2.2,2.8-2.6
				c0.3-0.1,0.7-0.2,1-0.2l0.3,0c0.1,0,0.1,0,0.3,0c0.4,0.1,0.6,0.2,0.8,0.4c0.6,0.6,0.8,1.1,1.1,1.7c0.5,1.1,0.9,2.2,1.2,3.3
				c1.3,4.4,2.3,8.8,2.9,13.3l0,0l0,0c0,0.3-0.1,0.5-0.4,0.6c-0.2,0-0.4-0.1-0.5-0.2c-0.4-0.6-0.9-1.2-1.5-1.6
				c-0.6-0.4-1.2-0.7-1.7-0.5c-0.6,0.2-1.3,0.7-1.9,1.2l-1.9,1.4c-0.7,0.5-1.3,0.9-2,1.3c-0.7,0.4-1.5,0.8-2.4,0.9
				c-0.5,0-1.1-0.1-1.5-0.6c-0.2-0.3-0.2-0.3-0.3-0.4c-0.1-0.1-0.3-0.2-0.4-0.2c-0.6-0.3-1.4-0.4-2.2-0.5c-3.1-0.3-6.3,0-9.4,0.3
				c-3.1,0.4-6.2,0.9-9.3,1.6c-1.5,0.4-3.1,0.8-4.6,1.2c-1.5,0.5-2.9,1.1-4.5,1.5c-3.1,0.9-6.3,1.2-9.5,1.3
				c-3.2,0.1-6.4-0.1-9.6-0.4c-1.6-0.2-3.2-0.4-4.7-0.6l-2.4-0.4l-1.2-0.2l-0.6-0.1l-0.3-0.1l-0.1,0c-0.1,0-0.1,0-0.2,0
				C775.7,857.7,775.6,857.6,775.5,857.5z M776.2,856.9c0,0,0-0.1,0-0.1c0,0,0,0,0,0l0.1,0l0.3,0.1l0.6,0.1l1.2,0.2l2.3,0.4
				c1.6,0.2,3.1,0.4,4.7,0.6c3.1,0.3,6.3,0.5,9.4,0.4c3.1-0.1,6.3-0.4,9.3-1.2c1.5-0.4,3-1.1,4.5-1.5c1.5-0.5,3.1-0.9,4.6-1.3
				c3.1-0.7,6.3-1.3,9.4-1.6c3.2-0.3,6.4-0.6,9.6-0.3c0.8,0.1,1.6,0.2,2.5,0.5c0.2,0.1,0.4,0.2,0.6,0.4c0.2,0.1,0.4,0.5,0.5,0.5
				c0.1,0.2,0.4,0.2,0.7,0.2c0.6-0.1,1.3-0.4,2-0.8c0.7-0.4,1.3-0.8,2-1.3l1.9-1.4c0.7-0.5,1.3-0.9,2.1-1.3c0.5-0.2,1.1-0.1,1.5,0
				c0.4,0.2,0.8,0.4,1.2,0.7c0.7,0.6,1.2,1.2,1.7,1.9l-0.9,0.4l0,0c-1.1-4.4-2.1-8.8-3.4-13c-0.3-1.1-0.7-2.1-1.1-3.1
				c-0.2-0.5-0.5-1-0.7-1.2c0,0-0.1-0.1,0,0c0.1,0,0,0-0.1,0l-0.2,0c-0.2,0-0.4,0.1-0.7,0.1c-0.8,0.3-1.5,1-2,1.9
				c-0.2,0.4-0.4,0.9-0.6,1.4c-0.1,0.3-0.1,0.5-0.2,0.8l0,0.1l-0.1,0.2c0,0.1-0.1,0.2-0.1,0.3c-0.1,0.2-0.2,0.4-0.4,0.5
				c-1.1,1-2.3,1.2-3.5,1.4c-1.2,0.2-2.3,0.3-3.5,0.3c-1.2,0-2.3-0.1-3.5-0.4c-1.2-0.3-2.3-0.6-3.4-1.5c-0.5-0.4-1-1-1.2-1.7
				c-0.2-0.7-0.2-1.4-0.1-2c0.2-0.6,0.4-1.2,0.7-1.7c0.2-0.5,0.5-1,0.6-1.4c0.1-0.5,0.2-1,0.1-1.4c-0.1-0.4-0.3-0.7-0.6-0.8
				c-0.7-0.4-1.7-0.1-2.3,0.5c-3.2,3.4-7,6-11,8.2c-4,2.3-8.1,4.2-12.3,5.9c-4.2,1.7-8.5,3.1-12.9,4.4c-1.1,0.3-2.2,0.6-3.3,0.9
				c-0.6,0.1-1.1,0.3-1.7,0.4c-0.3,0.1-0.5,0.1-0.8,0.2c-0.2,0.1-0.5,0.2-0.7,0.3c-0.9,0.5-1.5,1.3-2,2.3c-0.2,0.5-0.4,1-0.5,1.5
				c-0.1,0.3-0.1,0.5-0.2,0.8l-0.1,0.4l0,0.2l0,0.1c0,0,0,0.1,0,0C776.4,857.1,776.3,857,776.2,856.9z"/>
		</g>
		<path class="st5" d="M842.3,851.3c0,0-10.8-6.4-21.6-12.2"/>
		<path class="st5" d="M791.2,859c9.9-16.8-2.7-10.3-2.7-10.3"/>
		<path class="st5" d="M823.8,837.8c-5.6,4.4-7.2-2.4-7.2-2.4"/>
		<g>
			<path class="st2" d="M776.3,857.4c0.4,0.2,0.8,0.2,1,0.4c0.1,0,0.1,0.1,0.2,0.1l0.3,0.2l0.6,0.4c0.7,0.5,1.6,1,2.4,1.4
				c1.6,0.8,3.4,1.5,5.2,2.1c1.8,0.6,3.6,1,5.4,1.4c1.8,0.4,3.7,0.7,5.5,0.8l-0.3,0.1l1.3-1l0.8,0.4v0c0-0.1,0,0.1,0.1,0.1
				c0.1,0.1,0.2,0.2,0.3,0.2c0.1,0.1,0.2,0.1,0.4,0.2c0,0,0.1,0,0.1,0c0,0,0,0,0,0l0.2,0c0.6,0,1.3,0.1,2,0.1c1.3,0,2.7,0,4,0
				c2.7,0,5.4-0.1,8-0.1c2.7-0.1,5.4-0.2,8-0.3c1.3-0.1,2.7-0.2,4-0.3c0.6-0.1,1.3-0.1,1.9-0.3c0.1,0,0.1,0,0.2,0c0,0,0-0.1-0.2,0.2
				c0,0.1-0.1,0.1-0.1,0.2c0,0,0,0.1,0,0.1c0,0,0,0,0,0l0-0.1l0-0.2c0-0.1,0-0.2,0-0.3c0.1-0.4,0.2-0.9,0.5-1.3
				c0.2-0.2,0.4-0.4,0.6-0.5c0.1-0.1,0.3-0.1,0.5-0.2l0.1,0c0,0,0.1,0,0.2,0c0.1,0,0.2,0,0.3,0.1c0.1,0,0.1,0.1,0.2,0.1
				c0.4,0.3,0.4,0.5,0.5,0.7l0.2,0.4c0.1,0.3,0.3,0.4,0.4,0.5c0.1,0,0.1,0.1,0.2,0.1c0.1,0,0.1,0,0.3,0c1.3,0,2.7-0.1,4-0.1
				c2.7-0.1,5.3-0.3,8-0.6c1.3-0.1,2.6-0.3,3.9-0.5c0.3-0.1,0.6-0.1,0.9-0.2c0.3-0.1,0.6-0.2,0.9-0.3c0.6-0.2,0.6-0.2,0.7-0.8
				c0.1-0.5,0-1.1-0.1-1.7c-0.1-0.6-0.3-1.2-0.5-1.8c-0.4-1.2-0.9-2.5-1.4-3.6l0,0.1c-0.4-0.6-0.9-1.3-1.3-1.8
				c-0.2-0.3-0.5-0.6-0.8-0.8c-0.2-0.2-0.5-0.4-0.7-0.5c0.1-0.2-0.8,0.4-1.4,0.8l-2,1.4c-0.7,0.5-1.3,0.9-2,1.3
				c-0.7,0.4-1.4,0.9-2.3,1.2c-0.2,0.1-0.5,0.2-0.8,0.2c-0.2,0-0.4,0-0.7-0.1c-0.1-0.1-0.2-0.1-0.4-0.2c-0.4-0.2-0.7-0.4-1-0.6
				c-0.6-0.4-1.3-0.6-2-0.8c-2.9-0.7-6.1-0.4-9.2,0.1c-3.1,0.5-6.3,1.3-9.4,2c-3.1,0.8-6.2,1.6-9.4,2.3c-3.2,0.7-6.3,1.3-9.6,1.5
				c-3.3,0.2-6.5-0.1-9.7-0.5c-1.6-0.2-3.2-0.4-4.8-0.7l-2.4-0.4l-1.2-0.2l-0.6-0.1l-0.3-0.1l-0.1,0c0,0,0.1,0,0.2,0
				C776.2,857.6,776.3,857.5,776.3,857.4z M775.4,857c0.1-0.1,0.2-0.2,0.3-0.2c0.1-0.1,0.3,0,0.3,0l0.1,0l0.3,0.1l0.6,0.1l1.2,0.2
				l2.4,0.3c1.6,0.2,3.2,0.4,4.8,0.6c3.2,0.3,6.4,0.5,9.5,0.3c3.1-0.2,6.3-0.8,9.4-1.5c3.1-0.7,6.2-1.5,9.3-2.3
				c3.1-0.8,6.3-1.5,9.5-2.1c3.2-0.5,6.5-1,9.9-0.2c0.8,0.2,1.7,0.5,2.4,1c0.4,0.2,0.8,0.5,1,0.6l0.2,0.1c-0.1,0-0.1,0-0.1,0
				c0.1,0,0.2,0,0.4-0.1c1.3-0.5,2.7-1.5,4-2.4l2-1.4c0.3-0.2,0.7-0.5,1-0.7l0.3-0.2c0.1-0.1,0.2-0.1,0.4-0.2
				c0.2-0.1,0.4-0.1,0.6-0.1c0.2,0,0.4,0,0.5,0.1c0.6,0.2,1,0.5,1.3,0.8c0.4,0.3,0.6,0.6,0.9,0.9c0.6,0.7,1,1.3,1.5,2
				c0,0,0,0.1,0,0.1c0.6,1.3,1.1,2.5,1.5,3.9c0.2,0.7,0.4,1.3,0.5,2.1c0.1,0.7,0.2,1.4,0.1,2.3c0,0.2-0.1,0.4-0.2,0.7
				c-0.1,0.2-0.2,0.5-0.4,0.7c-0.2,0.2-0.4,0.3-0.6,0.5c-0.2,0.1-0.4,0.2-0.6,0.3c-0.4,0.1-0.7,0.2-1.1,0.3c-0.3,0.1-0.7,0.2-1,0.2
				c-1.4,0.3-2.7,0.4-4.1,0.5c-2.7,0.3-5.4,0.4-8.1,0.5c-1.4,0.1-2.7,0.1-4.1,0.1c-0.1,0-0.4,0-0.7-0.1c-0.3-0.1-0.5-0.2-0.7-0.3
				c-0.4-0.3-0.7-0.7-0.9-1l-0.2-0.5c0-0.1-0.2-0.3-0.1-0.1c0,0,0,0,0.1,0c0.1,0,0.1,0,0.2,0.1l0.1,0l0,0c0,0,0,0,0,0
				c0,0-0.1,0-0.1,0.1c-0.1,0.1-0.2,0.3-0.2,0.5l0,0.2l0,0.1l0,0l0,0c0,0,0,0.1,0,0.1c0,0.1-0.1,0.2-0.1,0.3
				c-0.3,0.4-0.5,0.4-0.6,0.4c-0.1,0.1-0.2,0.1-0.3,0.1c-0.8,0.2-1.4,0.2-2.1,0.3c-1.4,0.1-2.7,0.2-4.1,0.2
				c-2.7,0.1-5.4,0.2-8.1,0.2c-2.7,0-5.4,0-8.1,0c-1.3,0-2.7-0.1-4-0.1c-0.7,0-1.3-0.1-2-0.1l-0.3,0c-0.1,0-0.1,0-0.2,0
				c-0.1,0-0.1,0-0.2-0.1c-0.2-0.1-0.3-0.2-0.5-0.3c-0.2-0.1-0.3-0.2-0.5-0.4c-0.1-0.2-0.3-0.3-0.3-0.8l0,0l0.8,0.4l-1.3,1l0,0
				c-0.1,0.1-0.2,0.1-0.3,0.1c-1.9-0.2-3.8-0.5-5.6-0.8c-1.9-0.4-3.7-0.8-5.5-1.4c-1.8-0.6-3.6-1.3-5.3-2.2
				c-0.8-0.5-1.7-0.9-2.5-1.5l-0.6-0.4l-0.3-0.2c-0.1-0.1-0.2-0.2-0.4-0.3C776.1,858,775.7,857.4,775.4,857z"/>
		</g>
	</g>
	<path class="st6" d="M825.7,823.2l-0.5,10c0,0-7.2,8.4,7.7,8.2c0,0,4.6,0,5.3-2.1c0.7-2.1,2.3-10.6,2.3-10.6
		S832.6,826.8,825.7,823.2z"/>
	<path class="st7" d="M895.1,570.6"/>
	<g>
		<g>
			<path class="st2" d="M873.6,852c0.1-0.3,0.2-0.7,0.3-1c0.1-0.3,0.2-0.4,0.3-0.6c0.1-0.4,0.2-0.8,0.1-1.2c0-0.4-0.2-0.9-0.2-1.5
				c0.1-0.7,0.5-1.2,0.9-1.5c1.7-1.2,3.6-1.6,5.3-2.3c3.4-1.5,6.5-3.6,8.8-6.6c1.1-1.5,2-3.1,2.5-4.8c0.2-0.4,0.2-0.9,0.3-1.3
				c0.1-0.4,0.2-0.9,0.2-1.3l0.1-1.4l0-1.4l0-0.7l-0.1-0.7l-0.2-1.4c-0.2-0.9-0.4-1.8-0.6-2.7c-0.2-1.2,0.4-2.5,1.5-3
				c0.6-0.2,1.2-0.3,1.8-0.2c0.6,0.1,1.1,0.4,1.5,0.8c0.8,0.7,1.4,1.6,1.9,2.2c0.5,0.6,1.2,1,2,1.1c1.7,0.2,3.5-0.4,5.1-1.1
				c1.6-0.8,3.2-1.8,4.5-3c0.6-0.6,1.3-1.3,1.5-2c0.2-0.7,0.2-1.6,0-2.5c-0.1-0.4-0.2-0.9-0.3-1.4c-0.1-0.5-0.2-1.1,0.2-1.8
				c0.3-0.7,1-1,1.5-1.2c0.3-0.1,0.5-0.1,0.8-0.2c0.3-0.1,0.6-0.1,0.9,0c1.2,0.1,2.1,0.7,2.9,1.2c0.8,0.6,1.6,1.2,2.3,1.9
				c1.4,1.3,2.7,2.8,3.9,4.2c1.2,1.4,2.5,2.9,3.8,4.1l0,0c0.3,0.3,0.3,0.7,0.1,1c-0.1,0.2-0.3,0.2-0.5,0.2c-0.4,0-0.9-0.1-1.3-0.2
				c-0.4-0.1-0.7-0.3-0.9-0.4c-0.3-0.1-0.9,0.1-1.5,0.4c-0.9,0.4-1,1.9-1.5,3.3c-0.2,0.7-0.6,1.5-1.2,2.1c-0.6,0.6-1.5,0.9-2.3,1
				c-0.4,0-0.8,0.1-1.2,0c-0.4,0-0.8-0.1-1.1-0.1c-0.6,0-1.2,0.1-1.8,0.3c-1.2,0.5-2.2,1.3-3.2,2.3c-1,0.9-1.9,2-2.8,3.1
				c-1.7,2.2-3.4,4.4-5,6.7c-1.6,2.3-3.2,4.6-5.1,6.8c-0.9,1.1-2.1,2.1-3.3,2.8c-1.3,0.7-2.6,1.2-4,1.6c-2.8,0.7-5.7,0.9-8.5,0.9
				c-1.4,0-2.8,0-4.2-0.1l-2.1-0.1c-0.4,0-0.7,0-1.2-0.1C874.4,852.2,874,852.1,873.6,852z M874.4,851.5c0.3-0.1,0.5-0.2,0.8-0.2
				c0.2,0,0.6,0,0.9,0l2.1,0.1c1.4,0,2.8,0.1,4.2,0.1c2.8,0,5.6-0.2,8.2-0.9c1.3-0.4,2.6-0.9,3.7-1.5c1.1-0.7,2.1-1.6,3-2.6
				c1.8-2.1,3.3-4.4,4.9-6.7c1.6-2.3,3.2-4.6,5-6.8c0.9-1.1,1.8-2.2,2.9-3.2c1-1,2.2-1.9,3.6-2.6c0.7-0.3,1.5-0.5,2.3-0.4
				c0.8,0,1.3,0.1,2,0c0.6-0.1,1.1-0.3,1.5-0.7c0.4-0.4,0.6-0.9,0.8-1.5c0.2-0.6,0.3-1.3,0.6-2c0.1-0.4,0.3-0.7,0.5-1.1
				c0.1-0.2,0.3-0.4,0.4-0.5c0.2-0.1,0.4-0.3,0.6-0.4c0.3-0.2,0.7-0.4,1.1-0.5c0.4-0.1,0.9-0.2,1.4-0.1c0.5,0.1,0.8,0.3,1,0.4
				c0.3,0.1,0.5,0.1,0.8,0.1l-0.4,1.2c-1.5-1.3-2.7-2.8-4-4.2c-1.2-1.4-2.5-2.8-3.8-4.1c-0.7-0.6-1.4-1.2-2.1-1.8
				c-0.7-0.5-1.5-0.9-2.2-1c-0.2,0-0.3,0-0.5,0c-0.2,0.1-0.4,0.1-0.6,0.1c-0.4,0.1-0.6,0.3-0.7,0.5c-0.1,0.2-0.1,0.6,0,1l0.2,1.4
				c0.2,1,0.2,2-0.1,3.1c-0.4,1.1-1.2,1.8-1.9,2.5c-1.5,1.3-3.1,2.4-4.9,3.2c-1.8,0.8-3.7,1.5-5.8,1.2c-1-0.1-2.1-0.7-2.8-1.5
				c-0.4-0.4-0.5-0.8-0.8-1.1c-0.3-0.3-0.6-0.7-0.9-0.9c-0.6-0.5-1.3-0.7-2-0.4c-0.6,0.2-1,1-0.9,1.7c0.2,0.9,0.4,1.9,0.6,2.8
				l0.2,1.4l0.1,0.7l0,0.7l0,1.5l-0.2,1.5c0,0.5-0.1,1-0.3,1.4c-0.1,0.5-0.2,1-0.4,1.4c-0.6,1.9-1.6,3.6-2.7,5.1
				c-1.2,1.6-2.6,2.9-4.2,4c-1.6,1.1-3.3,2.1-5,2.8c-0.9,0.4-1.8,0.7-2.7,1c-0.9,0.3-1.7,0.7-2.4,1.2c-0.3,0.3-0.6,0.5-0.6,0.8
				c0,0.3,0.1,0.8,0.2,1.3c0.1,0.5,0,1.1-0.1,1.6c-0.1,0.2-0.2,0.5-0.3,0.7C874.8,851.4,874.6,851.4,874.4,851.5z"/>
		</g>
		<path class="st8" d="M887.1,851.9c1.2-2.3,3.4-8.4-1.7-10.3"/>
		<path class="st8" d="M900.5,823.2c0,0,7.8-0.4,10.9-5.6c0,0,1.7-3.8-1.9-8.9c0,0-7.6,5.7-13,7.1
			C896.5,815.8,897.4,820.9,900.5,823.2z"/>
		<path class="st8" d="M892.7,827.5c3.8,0.7,5.6-0.5,6.3-4.3"/>
		<g>
			<path class="st2" d="M874.5,851.8c0.4,0,0.6-0.1,0.7,0l0.9,0.5c0.6,0.4,1.2,0.7,1.9,1c1.3,0.6,2.5,1.2,3.8,1.7
				c2.6,0.9,5.4,1.3,8.1,0.9l-0.4,0.3c0.2-0.5,0.5-0.6,0.6-0.8c0.1-0.1,0.2-0.2,0.2-0.2c0-0.1,0,0,0,0l0.7-0.6
				c0.2,0.1,0.3,0.1,0.5,0.2c0.1,0,0.2,0.1,0.3,0.2c0,0,0.1,0,0.1,0.1c0,0.1,0,0,0.1,0.2c0,0.1,0,0.3,0,0.4c0,0.1-0.2,0.3-0.2,0.2
				c0,0-0.1,0-0.1,0.1c-0.1,0-0.1,0-0.2,0c-0.3,0-0.4,0-0.6,0l-0.3,0c0,0-0.1,0,0.1,0c0.4,0.6,0.2-1.4,0.1-1c0,0,0,0,0,0l0.1,0
				l2.1,0.3c1.2,0.2,2.6-0.2,3.9-0.6c2.6-0.9,5.1-2.2,7.5-3.6c2.4-1.4,4.7-3,6.8-4.8c1.1-0.9,2.1-1.8,3-2.9c0.4-0.5,0.9-1,1.2-1.6
				c0.4-0.6,0.5-1.1,0.7-1.8c0.1-0.3,0.2-0.7,0.2-1c0.1-0.3,0.1-0.7,0-0.8c0,0,0,0,0.1,0.2c0.2,0.1,0.3,0.1,0.3,0.1l0,0l0,0
				c-0.1,0,0.2,0.2-0.6,0c-0.7-0.9-0.1-0.9-0.2-0.9l0-0.1l0.1-0.1l0.2-0.2c0.1-0.1,0.2-0.3,0.3-0.4l0.2-0.2c0.1-0.1,0.2-0.2,0.3-0.3
				c0.2-0.1,0.4-0.2,0.8-0.1c0.2,0.1,0.2,0.1,0.3,0.2c0.1,0.1,0.1,0.2,0.2,0.2c0.2,0.3,0.2,0.4,0.3,0.6c0.1,0.1,0.1,0.2,0.1,0.2
				c0,0-0.1,0-0.1,0c0.3-0.1,0.8-0.6,1.5-1.1c2.4-1.7,4.9-2.9,7.2-4.4c1.2-0.7,2.3-1.5,3.4-2.4c0.5-0.4,1-0.9,1.3-1.4
				c0.3-0.5,0.5-1,0.4-1.5c-0.1-1-1.2-1.9-2.3-2.7c-0.6-0.4-1.2-0.7-1.8-1c-0.6-0.3-1.3-0.8-1.8-1.1c-0.6-0.4-1.1-0.6-1.7-0.7
				c-0.5-0.1-1.1,0-1.6,0.3c-0.1,0.1-0.2,0.2-0.3,0.2c-0.1,0.1-0.2,0.2-0.2,0.3c-0.1,0.2-0.3,0.5-0.4,0.8c-0.2,0.6-0.4,1.3-0.7,2
				c-0.3,0.7-0.7,1.4-1.3,2c-0.6,0.6-1.5,0.9-2.3,1c-1.5,0.2-2.8,0.2-4.1,0.6c-1.3,0.3-2.4,1-3.4,1.8c-1,0.9-1.8,2-2.4,3.2
				c-0.6,1.2-1.3,2.5-2,3.7c-0.7,1.2-1.5,2.4-2.3,3.6c-1.7,2.3-3.6,4.5-5.7,6.4c-2.1,1.9-4.6,3.6-7.4,4.4c-2.8,0.7-5.6,1.1-8.5,1
				c-1.4,0-2.8-0.2-4.2-0.3l-2.1-0.1l-1,0C875,852.2,874.9,852,874.5,851.8z M873.6,851.6c0.4-0.1,1-0.4,1.5-0.3l1.1,0l2.1,0.1
				c1.4,0.1,2.8,0.2,4.2,0.2c2.8,0.1,5.5-0.3,8.2-1.1c2.6-0.7,4.9-2.4,6.9-4.2c2-1.9,3.8-4,5.5-6.2c0.8-1.1,1.6-2.3,2.3-3.5
				c0.7-1.2,1.3-2.4,1.9-3.7c0.7-1.3,1.5-2.5,2.7-3.5c1.1-1,2.5-1.8,3.9-2.1c1.4-0.4,2.9-0.5,4.3-0.6c1.2-0.1,2-0.9,2.5-2.2
				c0.2-0.6,0.4-1.3,0.7-2c0.1-0.4,0.3-0.7,0.5-1.1c0.1-0.2,0.3-0.4,0.4-0.5c0.2-0.2,0.4-0.3,0.5-0.4c0.7-0.4,1.6-0.7,2.5-0.5
				c0.9,0.1,1.6,0.5,2.2,0.9c0.7,0.4,1.1,0.8,1.8,1.1c0.6,0.3,1.2,0.7,1.9,1.1c0.6,0.4,1.2,0.9,1.8,1.4c0.5,0.6,1,1.3,1.1,2.2
				c0.1,0.9-0.2,1.8-0.6,2.5c-0.2,0.3-0.5,0.6-0.8,0.9c-0.3,0.3-0.5,0.5-0.8,0.8c-1.1,1-2.3,1.7-3.5,2.5c-2.4,1.5-5,2.8-7.2,4.3
				c-0.3,0.2-0.5,0.4-0.8,0.6c-0.2,0.1-0.3,0.3-0.5,0.4c-0.1,0.1-0.2,0.1-0.3,0.2c-0.1,0-0.3,0.1-0.4,0.1c-0.2,0-0.4,0-0.5,0
				c-0.2-0.1-0.4-0.2-0.5-0.3c-0.3-0.2-0.3-0.5-0.4-0.7c-0.1-0.2-0.2-0.4-0.2-0.4c0,0,0,0,0,0c0,0,0,0,0.1,0.1c0.2,0,0.2,0,0.3,0
				c-0.1,0-0.3,0.3-0.5,0.6l-0.2,0.2l0,0c0,0,0,0,0,0c-0.2,0,0.4,0-0.2-0.9c-0.8-0.2-0.4,0-0.5-0.1l0,0l0.1,0
				c0.2-0.1,0.5-0.1,0.8,0.1c0.3,0.2,0.4,0.5,0.4,0.6c0.1,0.6,0,0.9,0,1.3c-0.1,0.4-0.1,0.7-0.2,1.1c-0.1,0.7-0.5,1.5-0.9,2.1
				c-0.4,0.6-0.9,1.2-1.3,1.8c-1,1.1-2,2.1-3.1,3c-2.2,1.8-4.6,3.4-7,4.9c-2.5,1.4-5,2.7-7.7,3.7c-1.4,0.4-2.8,0.8-4.4,0.6l-2.1-0.3
				l-0.1,0l-0.1,0c-0.2,0.4-0.4-1.7,0.1-1c0.2,0,0.1,0,0.1,0l0.3,0c0.2,0,0.3,0,0.4,0c0,0,0,0,0,0c0,0,0,0-0.1,0
				c0,0-0.2,0.1-0.2,0.2c0,0.1-0.1,0.2,0,0.4c0.1,0.1,0,0.1,0.1,0.1c0.1,0.1,0.1,0.1,0,0.1c0,0-0.1,0-0.1-0.1
				c-0.1-0.1-0.3-0.1-0.4-0.2l0.7-0.6c0,0.3-0.1,0.6-0.2,0.7c-0.1,0.2-0.2,0.3-0.3,0.4c-0.2,0.2-0.4,0.4-0.4,0.4
				c0,0.2-0.2,0.3-0.3,0.3l-0.1,0c-2.9,0.5-5.9,0-8.6-1c-1.4-0.5-2.7-1.1-3.9-1.8c-0.6-0.3-1.3-0.7-1.9-1l-0.9-0.5
				C874.3,852.4,873.8,851.9,873.6,851.6z"/>
		</g>
		<path class="st8" d="M888.7,838.6c2.2,2.1,4.5-1.8,4.4-3s-0.6-3.1-0.7-4"/>
	</g>
	<g>
		<path class="st2" d="M936.9,633.2c0.9,3.8,1,7.8,0.8,11.6c-0.1,1.9-0.3,3.9-0.6,5.8c-0.3,1.9-0.7,3.8-1.3,5.7
			c-0.3,0.9-0.7,1.9-1.3,2.8c-0.6,0.9-1.5,1.6-2.4,2.1c-1.9,0.9-4.1,1.1-6.2,0.2c-0.5-0.2-1-0.5-1.4-1c-0.4-0.4-0.7-1.1-0.7-1.6
			c-0.1-1-0.2-2-0.2-2.9c-0.1-1.9-0.1-3.9,0-5.8v0l0,0.1c-0.4-1.6-0.7-3.1-0.9-4.7c-0.2-1.6-0.2-3.2,0-4.8c0.2-1.6,0.6-3.2,1.5-4.7
			c0.4-0.7,1-1.4,1.6-1.9c0.6-0.6,1.3-1,2.1-1.4l0.4,0.9c-0.7,0.3-1.3,0.7-1.9,1.2c-0.5,0.5-1,1.1-1.4,1.7c-0.8,1.3-1.2,2.8-1.4,4.3
			c-0.2,1.5-0.2,3.1,0,4.6c0.2,1.5,0.4,3.1,0.8,4.6l0,0.1v0.1v0c0,1.9,0.1,3.8,0.2,5.7c0.1,0.9,0.2,1.9,0.3,2.8
			c0.1,0.8,0.6,1.3,1.4,1.6c1.5,0.6,3.5,0.5,5-0.3c0.8-0.4,1.4-1,1.9-1.6c0.5-0.7,0.8-1.6,1.1-2.5c1.1-3.6,1.5-7.4,1.8-11.2
			c0.2-3.8,0.3-7.6-0.2-11.4L936.9,633.2z"/>
	</g>
	<path class="st9" d="M924,650.1c2.7-2.8,2.7-4.2,2.7-8.2"/>
	<path class="st9" d="M925.3,661.3c4.9-3.1,5.6-5.7,6.3-8.8"/>
	<g>
		<g>
			<path class="st10" d="M210.2,795.5c-7.5-7.1-13.2-2.7-17.5,5.7c-4.1,7.8-3.9,18.1,6.7,23.7c0.7,0.4,3.7,1.6,6.1,2.2
				c0.5,0.1,0.9,0.2,1.3,0.3c0.5,0.1,0.9,0.2,1.1,0.2c10.3,0.7,16-6.8,17.8-12c0.1-0.3,0.2-0.6,0.2-0.8c0.1-0.3,0.1-0.5,0.1-0.8
				c0.3-5.2-2.6-7.8-9.6-13.6c-0.1-0.1-0.4-0.3-0.8-0.6c-0.3-0.2-0.6-0.5-1-0.7C212.9,797.8,210.7,795.9,210.2,795.5z"/>
		</g>
		<g>
			<path class="st11" d="M159.9,820.4l-7.1-18.5c-1.5-4.1,0.1-8.6,3.8-10.5l77.9-39.7c4.2-2.1,9.4-0.1,11.3,4.4l22.2,52.6
				c1.2,2.7,0.8,5.7-0.6,8"/>
			<g>
				<path class="st3" d="M271,811.9c0.4-1.1,0.5-2.2,0.4-3.2c-0.1-0.5-0.2-0.9-0.4-1.4l-0.8-1.6c-1.2-2.3-2.2-4.6-3.3-6.9
					c-2-4.7-4-9.4-6-14.1c-2-4.7-3.9-9.4-5.8-14.2c-0.9-2.4-1.9-4.7-2.8-7.1c-0.9-2.4-1.8-4.8-2.7-7.2l0.2,0.3h0
					c-0.4-0.5-1.1-1.2-1.7-1.7c-0.7-0.5-1.4-1-2.2-1.4c-0.8-0.4-1.6-0.7-2.4-0.8c-0.8-0.2-1.7-0.3-2.6-0.3l-0.1-1.9
					c1-0.1,2-0.1,3.1,0.1c1,0.1,2,0.4,3,0.8c1,0.4,1.9,0.8,2.8,1.4c0.9,0.6,1.6,1.2,2.5,2.1l0,0l0.1,0.1l0.1,0.2
					c1.1,2.3,2.2,4.6,3.2,6.9c1.1,2.3,2.1,4.6,3.2,7c2.1,4.7,4.1,9.3,6.1,14c2,4.7,4,9.4,5.9,14.1c1,2.4,1.9,4.7,2.7,7.2l0.3,0.9
					l0.2,0.5c0.1,0.2,0.1,0.4,0.2,0.6c0.2,0.8,0.3,1.6,0.2,2.4c-0.1,1.6-0.8,3-1.6,4.1L271,811.9z"/>
			</g>
			<path class="st11" d="M207.4,765.6l-16.6-9.8c-1.6-0.9-3.6-0.2-4.2,1.6l-7.6,22.8"/>
			<g>
				<path class="st3" d="M212.4,763.7c-2.2-0.9-4.4-1.9-6.6-2.9c-2.1-1.1-4.3-2.2-6.3-3.4l-1.6-0.9l-0.4-0.2l-0.3-0.2
					c-0.2-0.1-0.4-0.2-0.6-0.3c-0.8-0.4-1.8-0.5-2.7-0.6c-0.9,0-1.9,0-2.9,0.2c-1.1,0.3-2.3,0.5-3.7,0.5l-0.3-0.6
					c0.8-1.1,1.7-2,2.7-2.8c1.2-0.8,2.6-1.3,4.1-1.4c1.5-0.1,2.9,0.1,4.3,0.7c0.3,0.1,0.7,0.3,1,0.4l0.5,0.3l0.4,0.2l1.6,0.9
					c2.1,1.2,4.1,2.4,6.1,3.7c2,1.3,4,2.6,5.9,4.1L212.4,763.7z"/>
			</g>
		</g>
		<g>
			<g>
				<path class="st12" d="M164.9,354.9l-85,15.8c-4.6,0.9-8.9-2.5-9.5-7.4l-6.3-56.1c-0.5-4.5,2.5-8.5,6.7-9.2l87.1-13.8
					c4.6-0.7,8.9,2.8,9.3,7.7l4.2,54.1C171.7,350.3,168.9,354.1,164.9,354.9z"/>
				<g>
					<path class="st13" d="M73.4,298.5c-2.8,0.9-5.6,2-8,3.5c-1.2,0.7-2.2,1.6-3,2.5c-0.7,0.9-1.1,1.9-1.1,2.9l2,18
						c0.7,6.1,1.3,12.2,1.9,18.3c0.3,3.1,0.6,6.1,0.8,9.2c0.3,3.1,0.5,6.1,0.7,9.2l-0.1-0.4l0,0c0.2,0.6,0.7,1.4,1.2,2.1
						c0.5,0.7,1,1.3,1.7,1.9c0.6,0.6,1.3,1.1,2.1,1.5c0.7,0.4,1.5,0.7,2.4,1l-0.5,1.9c-1-0.2-2-0.5-2.9-0.9
						c-0.9-0.4-1.8-0.9-2.6-1.6c-0.8-0.6-1.6-1.3-2.2-2.1c-0.7-0.8-1.2-1.6-1.7-2.6l0,0l-0.1-0.1l0-0.3c-0.5-3-0.9-6.1-1.3-9.1
						c-0.4-3-0.8-6.1-1.2-9.1c-0.8-6.1-1.5-12.2-2.2-18.3l-1-9.1l-0.5-4.6l-0.2-2.3l-0.1-1.1l0-0.3l0-0.4c0-0.3,0-0.5,0-0.8
						c0.1-2,1-4.1,2.3-5.4c1.3-1.4,2.8-2.3,4.3-3.1c3.1-1.4,6.2-2.1,9.4-2.3L73.4,298.5z"/>
				</g>
				<path class="st12" d="M109.5,365.1l13,14c1.2,1.3,3.4,1.2,4.4-0.3l13.6-19.4"/>
				<g>
					<path class="st13" d="M104.2,365.6c1.9,1.5,3.7,3,5.4,4.6c1.7,1.6,3.4,3.3,5.1,5l1.2,1.3l0.3,0.3l0.2,0.2
						c0.2,0.2,0.3,0.3,0.5,0.4c0.7,0.6,1.5,1,2.4,1.3c0.9,0.3,1.8,0.5,2.8,0.7c1.1,0.1,2.3,0.2,3.6,0.6l0.1,0.6
						c-1,0.8-2.2,1.4-3.4,1.9c-1.3,0.4-2.8,0.5-4.2,0.2c-1.4-0.3-2.8-1-3.9-1.8c-0.3-0.2-0.6-0.5-0.8-0.7l-0.4-0.4l-0.3-0.3
						l-1.2-1.3c-1.6-1.7-3.2-3.4-4.8-5.2c-1.6-1.8-3.1-3.6-4.5-5.6L104.2,365.6z"/>
				</g>
			</g>
			<g>
				<g>
					<path class="st14" d="M121,337.3c-5.5,0-6,8.1-0.5,8.2C125.9,345.6,126.6,337.3,121,337.3z"/>
					<path class="st14" d="M134.7,328.1c-4.7-2.7-9.7-4-15-3.6c-5.4,0.4-10,2.5-13.6,6.4c-1.3,1.4-1.1,3.5,0.3,4.8
						c1.4,1.3,3.5,1.3,4.9,0c0.7-0.7,1.2-1.4,2-1.9c0.1,0,0,0,0.2-0.2s0.4-0.3,0.8-0.5c0.3-0.2,0.7-0.4,1.3-0.7
						c0.5-0.2,1.5-0.6,2.2-0.7c0.3-0.1,1.1-0.2,1.4-0.3c0.2,0,0,0,0,0c0.2,0,0,0,0.2,0c0.2,0,0.6-0.1,0.9-0.1c0.3,0,1.1,0,1.4,0
						c0.3,0,0.2,0,0.3,0c0.2,0,0.4,0,0.6,0.1c1,0.1,1.9,0.3,2.8,0.5c0.1,0,0.1,0,0.3,0.1s0.4,0.1,0.7,0.2c0.3,0.1,1.1,0.4,1.5,0.6
						c0,0,0.3,0.2,0.4,0.2c0.1,0,0.3,0.2,0.4,0.2c0.6,0.3,0.9,0.6,1.4,0.9c1.9,1,4.2,0.1,5.4-1.5C136.7,331,136.4,329,134.7,328.1z"
						/>
					<path class="st14" d="M140.5,316.7c-6.9-3.3-14.2-5.3-21.9-4.5c-7.7,0.8-14.7,3.4-20.8,8.1c-3.5,2.7,1.2,7.6,5,5.1
						c10.6-7.1,21.7-7.9,33.7-3.3c1.8,0.7,3.7,0.5,4.8-1S142.1,317.5,140.5,316.7z"/>
				</g>
				<g>
					<path class="st15" d="M121.1,340.3c-7.4,0-7.8,10.9-0.5,11.1C128,351.6,128.5,340.3,121.1,340.3z"/>
					<path class="st15" d="M140,327.2c-6.4-3.4-13.2-4.9-20.4-4.4c-7.2,0.5-13.7,3.1-18.3,8.8c-1.6,2-1.4,4.8,0.4,6.6
						c1.8,1.8,4.7,1.6,6.5-0.2c0.9-0.9,1.6-1.9,2.7-2.7c0.1-0.1,0-0.1,0.3-0.2c0.2-0.2,0.5-0.4,1-0.6c0.5-0.3,1-0.6,1.7-0.9
						c0.7-0.3,2-0.8,3-1c0.5-0.1,1.5-0.3,1.9-0.4c0.2,0,0,0,0,0c0.2,0,0,0,0.3,0c0.3,0,0.7-0.1,1.2-0.1c0.5,0,1.4,0,2,0
						c0.1,0,0.2,0,0.4,0s0.5,0,0.8,0.1c1.3,0.1,2.6,0.3,3.9,0.6c0.1,0,0.2,0.1,0.4,0.1c0.2,0.1,0.6,0.2,1,0.3
						c0.7,0.2,1.4,0.4,2.2,0.7c0.1,0,0.5,0.2,0.6,0.2c0.1,0,0.5,0.2,0.6,0.2c0.7,0.3,1.4,0.7,2.1,1c2.4,1,5.4,0.4,6.9-1.7
						S142.3,328.4,140,327.2z"/>
					<path class="st15" d="M147.5,312.3c-9.2-4.6-19-7.1-29.2-6.1s-19.6,4.4-28,10.5c-4.7,3.4,1.1,9.9,6.3,6.9
						c14.6-8.4,29.4-10.4,45.4-3.9c2.4,1,4.9,0.9,6.4-1.1C150,316.7,149.7,313.5,147.5,312.3z"/>
				</g>
				<g>
					<g>
						<path class="st13" d="M119.8,340.9c-1.6,0.1-3.1,0.7-4.1,1.8c-1,1.1-1.5,2.6-1.5,4c0,1.5,0.5,2.9,1.4,3.9
							c0.9,1,2.3,1.5,3.8,1.6c1.5,0.1,3-0.3,4-1.3c1.1-1,1.8-2.5,1.9-4c0.1-1.6-0.3-3.2-1.3-4.4C123,341.3,121.4,340.8,119.8,340.9z
							 M119.8,339.2c1.9,0,4,0.8,5.3,2.3c1.4,1.5,2,3.5,1.9,5.5c-0.1,2-0.7,4-2.2,5.5c-1.4,1.5-3.6,2.3-5.6,2.3
							c-1,0-2.1-0.2-3.1-0.5c-1-0.4-1.9-1-2.7-1.8c-1.5-1.6-2.1-3.8-2-5.9c0.2-2.1,1.1-4.1,2.7-5.4
							C115.8,339.7,117.9,339.1,119.8,339.2z"/>
					</g>
					<g>
						<path class="st13" d="M139.1,329.1c-3.9-1.9-8-3.3-12.3-3.9c-4.2-0.6-8.6-0.5-12.8,0.3c-4.2,0.8-8.1,2.5-11.3,5.2
							c-0.8,0.6-1.6,1.4-2.3,2.1c-0.3,0.4-0.7,0.8-1,1.2c-0.3,0.3-0.5,0.7-0.6,1.1c-0.6,1.5,0,3.3,1.3,4.3c1.3,1,3.2,0.8,4.4-0.3
							c0.7-0.6,1.4-1.5,2.3-2.3c0.5-0.4,0.9-0.8,1.5-1.2c0.5-0.3,1-0.6,1.5-0.9c2-1.2,4.4-1.7,6.7-2.1c1-0.1,2.2-0.2,3.3-0.2
							c0.6,0,1.1,0,1.7,0c0.6,0,1.1,0.1,1.7,0.2c1.1,0.2,2.2,0.3,3.4,0.7c1.1,0.3,2.1,0.7,3.2,1c1,0.3,2.2,0.9,3.1,1.4
							c0.9,0.5,1.8,0.7,2.8,0.8c1.9,0.1,3.9-0.9,4.7-2.6c0.4-0.8,0.5-1.8,0.3-2.7C140.6,330.2,140,329.5,139.1,329.1z M139.8,327.9
							c1.1,0.6,2,1.7,2.4,2.9c0.4,1.2,0.2,2.6-0.3,3.7c-0.5,1.1-1.4,2.1-2.5,2.8c-1.1,0.7-2.3,0.9-3.6,1c-1.2,0-2.5-0.3-3.6-0.8
							c-1.1-0.5-1.8-0.8-3-1.2c-1-0.3-2.1-0.6-3.1-0.9c-0.9-0.3-2-0.4-3.1-0.5c-1.1-0.1-2-0.2-3.1-0.1c-0.5,0-1.1,0-1.6,0.1
							l-0.8,0.1l-0.4,0l0,0c-0.5,0.5-0.2-4.4-0.2-2.3l0,0c-0.3-2.1,0.5,2.8,0.3,2.3l0,0l-0.1,0l-0.2,0l-1.5,0.3
							c-0.5,0.1-1,0.3-1.5,0.4c-0.5,0.2-1,0.3-1.4,0.5c-0.4,0.2-0.9,0.5-1.4,0.7c-0.5,0.2-0.9,0.5-1.3,0.8c-0.4,0.2-0.7,0.6-1.1,0.9
							c-0.7,0.7-1.3,1.5-2.3,2.4c-2,1.9-5.4,2.2-7.8,0.5c-2.3-1.6-3.4-4.8-2.3-7.4c0.2-0.7,0.6-1.3,1-1.8c0.4-0.5,0.8-0.9,1.2-1.3
							c0.8-0.8,1.7-1.6,2.6-2.4c3.6-2.9,8.1-4.6,12.6-5.4c4.5-0.7,9.1-0.7,13.5,0.1C131.6,324.2,135.8,325.7,139.8,327.9z"/>
					</g>
					<g>
						<path class="st13" d="M147.1,313.5c-5.4-2.6-11-4.6-16.9-5.6c-2.9-0.5-5.9-0.7-8.8-0.7c-2.9,0-5.9,0.3-8.8,0.8
							c-5.8,1-11.5,2.8-16.8,5.4c-2.6,1.3-5.2,2.8-7.6,4.5c-0.3,0.2-0.7,0.4-0.9,0.6l-0.3,0.3l-0.2,0.1l-0.1,0.2
							c-0.2,0.2-0.3,0.4-0.4,0.7c-0.1,0.2-0.1,0.5-0.2,0.7c-0.1,1,0.6,2.1,1.5,2.9c1,0.7,2.2,1.1,3.4,0.9c0.3,0,0.6-0.1,0.9-0.2
							c0.3-0.1,0.6-0.3,0.8-0.4c0.6-0.3,1.3-0.7,2-1.1c1.3-0.8,2.7-1.4,4.1-2c1.4-0.6,2.8-1.2,4.2-1.7c2.9-1.1,5.8-1.9,8.8-2.5
							c3-0.6,6.1-0.9,9.1-0.9c6.1-0.1,12.2,1.2,18,3.2l2.1,0.8c0.7,0.3,1.3,0.5,2,0.7c1.3,0.3,2.7,0.3,3.8-0.5c1-0.7,1.7-2,1.8-3.3
							C148.8,315.3,148.2,314,147.1,313.5z M147.7,312.3c0.8,0.4,1.5,1.1,1.8,1.9c0.4,0.8,0.6,1.6,0.5,2.5c0,1.7-0.9,3.4-2.3,4.4
							c-0.7,0.5-1.6,0.8-2.4,0.9c-0.8,0.1-1.7,0-2.5-0.2c-0.8-0.2-1.6-0.5-2.2-0.7l-2.1-0.8c-5.6-1.9-11.5-2.9-17.4-2.8
							c-2.9,0.1-5.9,0.4-8.8,1c-2.9,0.6-5.7,1.4-8.5,2.5c-1.4,0.5-2.7,1.1-4.1,1.7c-1.3,0.7-2.7,1.3-4,2c-0.7,0.4-1.3,0.7-2,1.1
							c-0.4,0.2-0.8,0.4-1.2,0.5c-0.4,0.1-0.9,0.3-1.3,0.3c-1.8,0.2-3.6-0.3-5.1-1.4c-0.7-0.6-1.3-1.2-1.8-2.1
							c-0.5-0.8-0.7-1.8-0.6-2.8c0.1-0.5,0.1-1,0.4-1.4c0.2-0.5,0.5-0.9,0.7-1.2l0.2-0.3l0.3-0.2l0.5-0.5c0.4-0.3,0.6-0.5,1-0.7
							c2.5-1.7,5.2-3.3,7.9-4.6c5.5-2.7,11.5-4.4,17.5-5.4c3-0.5,6.1-0.7,9.1-0.7c3.1,0,6.1,0.3,9.1,0.9
							C136.5,307.4,142.3,309.5,147.7,312.3z"/>
					</g>
				</g>
			</g>
		</g>
		<g>
			<g>
				<path class="st14" d="M431.6,607.8c-0.6,2.7-1.6,7-3.2,13c-0.7,2.8-1.6,6.6-2.9,11.5c-1.5,0.2-2.9,0.4-4.4,0.5
					c-0.2-2.1-0.7-5.6-1-10.5c-0.9,2.6-2.2,6.2-4,10.8c-1.5,0-2.9,0-4.4-0.1c-0.1-2.2-0.4-5.8-0.4-10.4c0-2.5-0.1-6,0.2-9.8
					c2.3-0.4,4.5-0.9,6.7-1.4c-0.1,0.9-0.1,2.3-0.2,4.3c0,1.8,0,3.7,0.1,5.5c0.3-0.8,0.9-2.3,1.6-4.3c0-1.6-0.1-3.6-0.1-5.8
					c2-0.5,4-1,6-1.5c0,0.9,0,2.4,0,4.5c0,1.4,0.1,3.4,0.3,6c0.5-2.1,1-4.3,1.5-6.4c0.3-1.2,0.6-2.8,1-4.8
					C429.4,608.3,430.5,608.1,431.6,607.8z"/>
				<path class="st14" d="M449.8,603.7c0.1,2.3,0.2,6.1,0.2,11.6c0.1,2.5,0.1,6.1,0.2,10.6c-1.3,0.5-2.7,0.9-4,1.4
					c-0.7-1.9-2-5.1-3.6-9.8c-0.2,2.7-0.5,6.5-1,11.3c-1.4,0.4-2.7,0.8-4.1,1.2c-0.7-2.2-1.8-5.7-3.1-10.8
					c-0.7-2.7-1.7-6.6-2.6-11.4c2.1-0.6,4.1-1.1,6.2-1.6c0.2,1,0.5,2.5,1,4.6c0.5,1.9,1,3.9,1.5,5.8c0.1-0.9,0.3-2.4,0.4-4.5
					c-0.5-1.7-1-3.7-1.6-6.2c1.8-0.4,3.6-0.9,5.3-1.2c0.2,0.9,0.6,2.4,1.2,4.4c0.4,1.3,0.9,3.2,1.7,5.6c0-2-0.1-4-0.2-6
					c0-1.1-0.1-2.6-0.3-4.5C447.9,603.9,448.8,603.8,449.8,603.7z"/>
				<path class="st14" d="M464.9,604.9c0.8,1.2,2,3.2,3.7,6.3c0.8,1.5,1.9,3.5,3.2,6.3c-1.1,0.4-2.2,0.9-3.4,1.4
					c-1.2-1.2-3.3-3.2-5.9-6.5c0.5,1.9,1.2,4.6,2,8.1c-1.2,0.5-2.4,1-3.6,1.4c-1.2-1.6-3.2-4.2-5.6-8.3c-1.4-2.2-3.2-5.5-5.3-9.9
					c1.8-0.2,3.6-0.3,5.2-0.4c0.4,0.8,1.1,2.1,2,3.8c0.9,1.5,1.9,3,2.9,4.5c-0.1-0.6-0.4-1.8-0.8-3.3c-0.9-1.3-1.9-2.9-3.1-4.9
					c1.5,0,3,0.2,4.4,0.4c0.4,0.7,1.2,1.7,2.2,3.1c0.7,0.9,1.7,2.2,3.1,3.8c-0.6-1.3-1.2-2.5-1.8-3.7c-0.4-0.7-0.9-1.6-1.5-2.7
					C463.4,604.4,464.1,604.6,464.9,604.9z"/>
			</g>
		</g>
		<g>
			
				<rect x="382.4" y="594.3" transform="matrix(0.9938 -0.1113 0.1113 0.9938 -65.6755 52.7529)" class="st16" width="114.6" height="40.7"/>
			<text transform="matrix(0.9938 -0.1113 0.1113 0.9938 400.2607 629.273)" class="st16 st17 st18">WWW</text>
		</g>
		<g>
			<path class="st4" d="M915.2,473c-5.5-21.9-14.8-34.1-25.5-38.4c-10.9-5.7-24.1,5.2-28.5,35.7c-0.3,2.3,0.5,4.3,1.9,5.2
				c1.3,0.8,3.7,0.6,4.8,2.2c0.1,0.1,2.7,1.9,3.8,3c0.2,0.2,0.3,0.3,0.5,0.4c1.4,1,8.1,6.1,7.4,7.6c-0.1,0.2-0.2,0.5-0.4,0.7
				c-0.1,0.4-7.9,8.3-8.2,8.8c0,12.6-2.5,6-20,39.2c-8.4,14.2,22.2,35.1,40.6,29.4c25.2-6.2,31.4-27.1,34.4-37
				c3.3-11.4,0.2-22.5-3.2-33.5C919.5,485.7,915.7,475.1,915.2,473z"/>
		</g>
		<g>
			<path class="st14" d="M867.2,476.4c5,4,11,7,17.4,7.2c1.3,0.1,2.9-1.3,3.3-2.6c1.4-4.4,3.3-12,3.5-17.4c0.4-5.8-0.9-9.4-3.4-13.1
				c-2.6-4-5.7-1.8-9.8,4.2c-4,5.7-9,15.2-11.4,18.4C866.2,474.2,866.3,475.6,867.2,476.4z"/>
		</g>
		<g>
			<path class="st19" d="M125.3,569.1c-0.1-0.4-0.2-0.8-0.3-1.2c-4.1-10.7-15.3-23.6-25.5-26.3c-8.2-1.6-15.5,6.2-19.5,17.3
				c-1.6-1.9-3.6-3-6-3c-5.1,0.1-10.3,5.6-11.6,11.8c0,0,0,0.1,0,0.1c-8.3,1-17,7.7-20,15.7c-3.3,8.4,3.3,18.6,15.1,21
				c22.5,4.6,46,3.6,68.5-2.7c11.9-4.1,18.2-14.6,14.7-21.3C138.2,575.5,131.9,571.5,125.3,569.1z"/>
		</g>
		<g>
			<path class="st10" d="M497.6,494.2c3.3-7.2,7.8-10.7,12.3-6.3c4.3,4.6,8.6,8.6,7.7,13.2c-0.8,4.9-8.9,13-15.7,10.7
				C495.1,509.3,494.4,500.7,497.6,494.2z"/>
		</g>
		<g>
			<path class="st10" d="M238.1,493.5c-7.5-7.1-13.2-2.7-17.5,5.7c-4.1,7.8-3.9,18.1,6.7,23.7c0.7,0.4,3.7,1.6,6.1,2.2
				c0.5,0.1,0.9,0.2,1.3,0.3c0.5,0.1,0.9,0.2,1.1,0.2c10.3,0.7,16-6.8,17.8-12c0.1-0.3,0.2-0.6,0.2-0.8c0.1-0.3,0.1-0.5,0.1-0.8
				c0.3-5.2-2.6-7.8-9.6-13.6c-0.1-0.1-0.4-0.3-0.8-0.6c-0.3-0.2-0.6-0.5-1-0.7C240.8,495.8,238.6,494,238.1,493.5z"/>
		</g>
		<g>
			<path class="st19" d="M290.5,630.3c-0.8,10.4-9.9,19.4-20.2,20.2c-10.4,0.8-19.6-7.3-20.7-18s8-19.8,20.2-20.2
				C282.1,611.9,291.3,620,290.5,630.3z"/>
		</g>
		<g>
			<path class="st10" d="M373.5,495.1c3.6,13.6-0.2,21.9-11.6,25c-3.4,0.9-6.6,0.6-9.3-0.9c-1.5,2.6-3.3,4.2-5.4,4.7
				c-2.9,0.8-5.4,0.4-7.6-1.1c-2-1.3-3.3-3.2-4-5.7c-0.7-2.8-0.3-5.3,1.3-7.7c1.5-2.2,3.4-3.6,5.9-4.3c1-0.3,2-0.3,3-0.2
				c-0.6-1.5-1.5-2.7-2.7-3.6c-1.4-0.9-2.9-1.2-4.4-0.7c-0.5,0.1-1,0.3-1.5,0.6l1.5-11.1c2.7-1,5.2-1.4,7.3-1.1
				c3.8,0.5,6.9,2.9,9.2,7.1c0.9,1.6,2.3,5.5,4.5,11.9c1,3.1,2.4,4.3,4.2,3.8c1.8-0.5,2.8-2.1,3.2-4.7c0.3-2.4,0-5.4-1-8.9
				c-1.7-6.4-5.2-10.7-10.6-13.1c-4.4-1.9-9-2.2-13.8-1c-5.7,1.5-10.1,4.9-13.2,10.1c-3.1,5.2-3.9,10.6-2.5,16.2
				c1.5,5.9,4.6,10.5,9.1,13.6c5,3.5,10.6,4.5,16.9,2.8c1.1-0.3,2.5-0.7,4-1.1l1.7,6.4c-1.4,0.5-3.1,1.1-5,1.6
				c-6.3,1.7-12.5,1.2-18.8-1.5c-8-3.4-13.2-9.9-15.7-19.3c-2.3-8.5-1.2-16.1,3.1-23c4.2-6.6,10.3-10.9,18.6-13.1
				c7.4-2,14.2-1.3,20.6,1.9C367.1,482.1,371.4,487.6,373.5,495.1z M350.1,515.1l-1.7-3.2c-2.4,0.3-3.4,1.3-3,2.9
				c0.4,1.3,1.2,1.8,2.6,1.4C348.8,516,349.5,515.6,350.1,515.1z"/>
		</g>
		
			<ellipse transform="matrix(0.3668 -0.9303 0.9303 0.3668 -82.5682 979.8678)" class="st20" cx="678.5" cy="550.6" rx="7.7" ry="2.7"/>
		<path class="st1" d="M679.7,557.7c2.9-4,3.9-12.1,3.9-12.1s15.2,6.7,16.3,6.8c1.1,0.1,3.5,1.8,4.2,2.2c0.7,0.4,8.4,3.5,8.4,3.5
			l8.7,2.4l-4.9,8l-12.5-4.6c0,0-4.6-1.4-5.2-0.8s-4.1-0.7-5.9-1.5s-1.9-0.6-3.9-1C686.7,560.1,679.1,558.5,679.7,557.7z"/>
		<path class="st4" d="M883.8,408.6c23.2-3.4,19.2-15.9,19.2-15.9s6.7,20.1-19.3,26L883.8,408.6z"/>
		<circle class="st13" cx="844" cy="362.2" r="3.3"/>
		<path class="st4" d="M839.6,346.9c2.5-3,14.8-3.4,17.8,1.2c0.2,0.3-0.4,0.7-0.8,0.6c-2.7-0.9-8.9-2.7-12.5-1.2
			C839.4,349.4,839.6,346.9,839.6,346.9z"/>
		<g>
			<path class="st2" d="M905.3,401.1c-0.5,1-0.6,2.2-0.8,3.3c-0.2,1.1-0.3,2.3-0.5,3.4c-0.3,2.3-0.5,4.7-0.7,7
				c-0.2,2.4-0.3,4.7-0.3,7.1c0,1.2,0.1,2.4,0.1,3.5c0,0.6,0.1,1.2,0.2,1.7c0,0.3,0.1,0.6,0.1,0.8c0,0.1,0.1,0.3,0.1,0.4
				c0,0,0,0.1,0,0.1l0,0c0,0,0-0.1-0.1-0.1c0-0.1-0.5-0.5-1-0.1l0.9,1.5c-0.2,0.2-0.7,0.2-0.8,0.1c-0.2-0.1-0.4-0.3-0.4-0.3
				c-0.1-0.1-0.1-0.1-0.1-0.2l-0.1-0.1c-0.1-0.2-0.1-0.2-0.1-0.3c0-0.2-0.1-0.4-0.1-0.5c0-0.3-0.1-0.6-0.1-0.9
				c-0.1-0.6-0.1-1.2-0.1-1.8c-0.1-1.2-0.1-2.4-0.1-3.6c-0.1-2.4-0.1-4.8-0.1-7.2c0-2.4,0.2-4.8,0.6-7.2c0.2-1.2,0.5-2.4,0.9-3.6
				c0.4-1.2,0.9-2.3,1.8-3.3L905.3,401.1z"/>
		</g>
		<g>
			<path class="st2" d="M884.4,408.7c-0.2,0.7-0.3,1.6-0.4,2.4c-0.1,0.8-0.1,1.7-0.2,2.5c-0.1,1.7-0.1,3.4-0.1,5.1
				c0,1.7,0.1,3.4,0.1,5.1l0.1,2.5c0.1,0.8,0,1.7,0.2,2.4l-1.2,0.2c-0.1-0.5-0.1-1,0-1.4l0.1-1.3l0.1-2.5c0-1.7,0.1-3.4,0.1-5.1
				c0-1.7,0-3.4-0.1-5.1c0-0.9-0.1-1.7-0.1-2.6c0-0.9,0.1-1.7,0.2-2.6L884.4,408.7z"/>
		</g>
		<g>
			<path class="st2" d="M865.1,501.5c0.7,2.2,0.6,4.4,0.1,6.4c-0.5,2-1.3,3.9-2.2,5.6c-1.8,3.5-4.1,6.7-6.3,9.9
				c-2.3,3.2-4.6,6.3-6.6,9.6c-1,1.6-2,3.3-2.8,5c-0.8,1.7-1.5,3.5-1.8,5.3c-0.4,3.7,0.8,7.5,2.9,10.6c2.1,3.2,5.1,5.7,8.3,7.8
				c3.2,2.1,6.7,3.8,10.3,5.2c3.6,1.4,7.3,2.4,11.1,3.2c3.8,0.7,7.6,1.1,11.5,1.2c3.8-0.1,7.7-0.5,11.5-1.2c7.6-1.5,14.9-4.1,21.5-8
				c3.3-2,6.3-4.3,8.9-7c1.3-1.4,2.4-2.9,3.2-4.5c0.9-1.6,1.3-3.3,1.7-5.1c0.7-3.6,0.5-7.3-0.7-10.8c-0.6-1.7-1.4-3.4-2.4-5
				c-1-1.6-2.1-3.2-3.1-5c-4-6.9-6.8-14.4-8.5-22.2c-1.6-7.8-2.1-15.8-1.7-23.7c0.2-3.9,0.6-7.9,1-11.7c0-0.5,0.1-0.9,0.1-1.4
				c0-0.2,0-0.4,0-0.6l0-0.2c0-0.1,0-0.2,0-0.3c-0.1-0.9-0.2-1.9-0.4-2.8c-0.3-1.9-0.6-3.7-1-5.6c-0.8-3.7-1.9-7.3-3.4-10.6
				c-0.8-1.6-1.7-3.2-2.7-4.7c-1-1.5-2.2-2.8-3.5-4c-2.6-2.4-5.7-4-9.2-4.9c-3.5-1-7.2-1.3-11-1.4c-7.2-0.4-14.3,3.1-19.2,8.8
				c-2.4,2.8-4.3,6.2-5.7,9.7c-0.7,1.8-1.2,3.6-1.6,5.5c-0.4,1.9-0.8,3.8-1.5,5.7c-0.6,1.9-1.3,3.7-2,5.5c-0.7,1.8-1.4,3.6-1.6,5.6
				c-0.3,1.9-0.1,3.9,0.5,5.7c0.3,0.9,0.7,1.8,1.2,2.6c0.2,0.4,0.5,0.8,0.8,1.2c0.3,0.4,0.7,0.7,1.8,0.4l-1.9,1.5
				c0.5-1,0.4-1.5,0.1-1.9c-0.3-0.4-0.5-0.8-0.8-1.2c-0.5-0.8-0.9-1.7-1.3-2.6c-0.7-1.8-0.9-3.8-0.6-5.8c0.5-3.9,2.2-7.5,3.2-11.2
				c0.3-0.9,0.5-1.9,0.7-2.8c0.2-0.9,0.3-1.9,0.4-2.9c0.3-1.9,0.7-3.9,1.3-5.8c1.1-3.8,2.8-7.5,5.2-10.7c2.4-3.3,5.4-6.1,9-8.1
				c3.6-2,7.8-3.2,12-3.3c3.9-0.1,8.1,0,12.1,1c4,1,8,3,11.2,5.8c3.2,2.8,5.6,6.4,7.3,10.2c1.7,3.7,2.9,7.7,3.7,11.6
				c0.4,2,0.8,3.9,1,5.9c0.1,1,0.2,2,0.3,3c0,0.1,0,0.2,0,0.4l0,0.5c0,0.3,0,0.6,0,0.9c0,0.5-0.1,1.1-0.1,1.5
				c-0.5,3.9-0.9,7.7-1.2,11.5c-0.5,7.6-0.3,15.2,1,22.7c1.3,7.5,3.8,14.7,7.5,21.4c0.9,1.7,1.9,3.2,3,5c1,1.8,1.9,3.6,2.5,5.6
				c1.3,3.9,1.4,8.2,0.6,12.2c-0.1,0.5-0.2,1-0.4,1.5c-0.1,0.5-0.3,1-0.5,1.5c-0.2,0.5-0.4,1-0.6,1.5c-0.2,0.5-0.5,0.9-0.7,1.4
				c-1,1.8-2.3,3.4-3.7,4.8c-2.8,2.9-6.1,5.2-9.6,7.1c-6.9,3.8-14.5,6.2-22.2,7.5c-3.9,0.7-7.8,1-11.7,1c-3.9-0.1-7.8-0.6-11.6-1.4
				c-7.7-1.5-15.1-4.3-21.7-8.5c-3.3-2.1-6.3-4.8-8.6-8c-2.3-3.2-3.7-7.2-3.3-11.3c0.3-2,1-3.9,1.8-5.7c0.8-1.8,1.8-3.5,2.8-5.2
				c2.1-3.3,4.3-6.5,6.4-9.8c2.1-3.2,4.3-6.5,5.9-9.9c0.8-1.7,1.5-3.5,1.9-5.2c0.4-1.8,0.4-3.6-0.2-5.1L865.1,501.5z"/>
		</g>
		<g>
			<g>
				<path class="st2" d="M863.5,477c4.4,2.6,9,4.9,13.6,7.3c2.3,1.2,4.6,2.3,6.8,3.6l0.4,0.2c0.2,0.1,0.2,0.1,0.3,0.1
					c0.1,0,0.3,0.1,0.4,0.1c0.3,0,0.6-0.1,0.8-0.3c0.1-0.1,0.2-0.2,0.2-0.3c0,0,0.1-0.2,0.1-0.4l0.2-0.4l0.7-1.8
					c1.7-4.8,3.3-9.7,4.6-14.6c1.3-4.9,2.5-9.9,2.9-14.9c0.2-2.5,0.2-5-0.4-7.3c-0.3-1.1-0.8-2.2-1.5-3c-0.7-0.8-1.7-1.2-2.7-1.2
					c-1.1,0-2.2,0.4-3.3,0.9c-1.1,0.6-2.1,1.3-3.1,2.1c-1.9,1.6-3.7,3.4-5.4,5.3c-3.4,3.8-6.4,8-9.3,12.2c-1.4,2.1-2.8,4.3-4.2,6.5
					c-0.7,1.1-1.3,2.2-2,3.3C862.2,475.2,862.5,476.5,863.5,477z M863,477.8c-1.4-0.7-1.9-2.6-1.2-4c0.7-1.2,1.3-2.2,2-3.4
					c1.3-2.2,2.7-4.4,4.1-6.5c2.8-4.3,5.8-8.5,9.1-12.5c1.7-2,3.4-3.9,5.4-5.6c1-0.9,2.1-1.6,3.3-2.3c1.2-0.7,2.5-1.2,4.1-1.3
					c0.8,0,1.5,0.1,2.3,0.4c0.4,0.1,0.7,0.4,1,0.6c0.3,0.2,0.6,0.5,0.9,0.7c1.1,1.1,1.7,2.4,2.1,3.8c0.8,2.7,0.9,5.4,0.8,8
					c-0.2,5.3-1.3,10.4-2.6,15.4c-1.3,5-2.9,10-4.6,14.8l-0.7,1.8l-0.2,0.5c-0.1,0.1-0.1,0.3-0.2,0.5c-0.2,0.5-0.5,0.9-0.9,1.2
					c-0.7,0.7-1.7,1.1-2.7,1.1c-0.5,0-1-0.1-1.5-0.3c-0.2-0.1-0.5-0.2-0.6-0.3l-0.4-0.3c-2.2-1.3-4.3-2.8-6.5-4.2
					C871.8,483.2,867.5,480.4,863,477.8z"/>
			</g>
		</g>
		<path class="st21" d="M937,545.2c0,36.6-98.4,40-92.3-0.7C852.1,580.7,925.6,580.7,937,545.2z"/>
		<g>
			<g>
				<path class="st2" d="M853,361.4c0,1.9-0.9,3.6-2.1,4.9c-1.2,1.3-2.8,2.3-4.5,2.7c-0.9,0.2-1.8,0.2-2.7-0.1
					c-0.9-0.3-1.6-0.9-2.2-1.6c-1.2-1.4-1.8-3.1-1.9-4.8c-0.2-1.7-0.1-3.6,1.1-5.1c0.6-0.7,1.3-1.3,2.2-1.6c0.8-0.3,1.7-0.5,2.6-0.5
					c1.8,0,3.6,0.4,5.1,1.4c0.7,0.5,1.4,1.2,1.8,2C852.8,359.5,853,360.5,853,361.4z M852.2,361.4c0-0.8-0.2-1.6-0.5-2.3
					c-0.4-0.7-0.9-1.3-1.6-1.8c-1.3-0.9-3-1.4-4.6-1.4c-1.6,0-3.3,0.5-4.3,1.8c-1,1.3-1.2,3-1,4.7c0.2,1.6,0.8,3.3,1.9,4.5
					c1.1,1.2,2.7,1.9,4.3,1.4c1.6-0.4,3-1.4,4.1-2.6C851.5,364.5,852.2,363,852.2,361.4z"/>
			</g>
		</g>
		<g>
			<g>
				<path class="st2" d="M850.8,496.5c-11.7,9.8-23.6,19.5-36.3,28.2l-2.4,1.6l-1.2,0.8c-0.5,0.3-0.9,0.5-1.3,0.7l-5.1,2.6
					l-10.3,5.1c-6.9,3.4-13.8,6.7-20.7,10c-6.9,3.2-13.9,6.4-21,9.3c-3.6,1.4-7.1,2.8-10.8,3.9c-0.9,0.3-1.8,0.6-2.8,0.8
					c-0.5,0.1-0.9,0.2-1.5,0.3c-0.3,0-0.7,0-1-0.2c-0.4-0.3-0.4-0.4-0.6-0.6c-1.2-1.4-2.9-2.3-4.6-2.7c-1.8-0.4-3.7-0.4-5.5,0.1
					c-1.8,0.4-3.6,1.3-4.7,2.6L721,559l0,0.1c0,0.1,0,0,0-0.1c0-0.3-0.1-0.3-0.1-0.3c0,0,0,0,0.1,0c0.2,0.1,0.4,0.1,0.6,0.2
					c0.5,0.1,0.9,0.2,1.4,0.3c0.3,0.1,0.5,0.1,0.8,0.4c0,0,0.1,0.1,0.2,0.2c0.1,0.1,0.1,0.3,0,0.4l-0.1,0.2l-0.2,0.3
					c-0.2,0.4-0.5,0.9-0.8,1.3c-1.1,1.6-2.2,3.1-3.3,4.7c-1.1,1.5-2.2,3.1-3,4.8c-0.4,0.8-0.8,1.7-0.8,2.6c-0.1,0.9,0.4,1.5,1.2,1.8
					c0.4,0.1,0.9,0.2,1.3,0.2c0.5,0,1,0.1,1.5,0.2c1,0.2,1.9,0.5,2.8,0.9c1.8,0.7,3.5,1.6,5.3,2.2c0.9,0.3,1.8,0.5,2.7,0.4
					c0.9,0,1.8-0.3,2.5-0.8c1.5-1,2.6-2.6,3.5-4.2c0.9-1.7,1.6-3.4,2.2-5.2c0.2-0.4,0.3-0.9,0.5-1.4l0.2-0.7
					c0.1-0.2,0.2-0.6,0.5-0.8c0.1-0.1,0.3-0.2,0.4-0.2c0.2-0.1,0.3-0.1,0.4-0.1l0.7-0.1l1.4-0.2c7.5-1.4,14.8-3.6,21.9-6.3
					c7.1-2.7,14.1-5.9,20.9-9.2c6.9-3.3,13.6-6.9,20.4-10.4c3.4-1.7,6.8-3.5,10.4-5.1c3.4-1.3,6.5-3.5,9.7-5.6
					c6.3-4.3,12.4-8.9,18.4-13.6c6-4.7,12.1-9.4,18-14.1l17.9-14.3l0,0l0.1,0.7l-14.5-8.4l0.6-0.2c-1,1.7-2.2,3.3-3.5,4.8
					c-1.3,1.5-2.6,2.9-4,4.3C856.7,491.4,853.8,494,850.8,496.5z M850.2,495.8c3-2.5,5.8-5.1,8.5-7.8c1.4-1.4,2.7-2.8,3.9-4.2
					c1.2-1.5,2.4-3,3.4-4.6l0.2-0.4l0.4,0.2l14.5,8.4l0.5,0.3l-0.5,0.4l0,0c-11.4,10.2-23.1,20.1-35.1,29.7
					c-6,4.7-12.1,9.4-18.4,13.8c-1.6,1.1-3.2,2.2-4.9,3.2c-0.8,0.5-1.7,1-2.6,1.5c-0.8,0.5-1.9,0.9-2.7,1.2
					c-3.4,1.4-6.9,3.2-10.3,4.9c-13.6,6.9-27.5,13.6-42.1,18.6c-7.2,2.5-14.6,4.7-22.2,5.9l-1.4,0.2l-0.7,0.1c-0.3,0-0.3,0-0.5,0.2
					c-0.1,0.1-0.2,0.2-0.2,0.4l-0.2,0.7c-0.2,0.5-0.3,0.9-0.5,1.4c-0.6,1.8-1.4,3.6-2.3,5.3c-0.9,1.7-2.1,3.4-3.8,4.5
					c-0.9,0.5-1.9,0.9-2.9,0.9c-1,0-2-0.2-2.9-0.5c-1.9-0.6-3.6-1.5-5.3-2.2c-0.9-0.3-1.8-0.6-2.7-0.8c-0.5-0.1-0.9-0.1-1.4-0.2
					c-0.5,0-1-0.1-1.5-0.3c-0.5-0.2-1-0.5-1.3-0.9c-0.3-0.5-0.4-1.1-0.4-1.6c0.1-1.1,0.5-2,0.9-2.9c0.9-1.8,2-3.3,3.1-4.9
					c1.1-1.6,2.3-3.1,3.3-4.7c0.3-0.4,0.5-0.8,0.7-1.2l0.1-0.3l0.1-0.1c0,0.1,0,0.2,0,0.2c0,0,0.1,0.1,0.1,0.1c0,0-0.3-0.1-0.5-0.2
					c-0.4-0.1-0.9-0.2-1.4-0.3c-0.2-0.1-0.5-0.1-0.8-0.2c-0.1,0-0.1-0.1-0.2-0.1c0,0-0.1-0.1-0.2-0.1c-0.1-0.1-0.2-0.2-0.1-0.4
					c0-0.2,0.1-0.3,0.1-0.3l0.1-0.1l0.1-0.2c0.7-0.8,1.5-1.4,2.4-1.9c0.9-0.5,1.8-0.8,2.8-1.1c1.9-0.5,4-0.6,5.9-0.1
					c2,0.4,3.8,1.5,5.1,3c0.2,0.2,0.4,0.4,0.4,0.4c0.1,0,0.2,0.1,0.4,0.1c0.4,0,0.9-0.2,1.3-0.3c0.9-0.2,1.8-0.5,2.7-0.7
					c3.6-1.1,7.2-2.5,10.7-3.9c7.1-2.9,14.1-6,21-9.2c6.9-3.2,13.8-6.5,20.7-9.9l10.3-5.1l5.1-2.6c0.4-0.2,0.9-0.4,1.2-0.6l1.2-0.8
					l2.4-1.6C826.6,515.3,838.5,505.7,850.2,495.8z"/>
			</g>
		</g>
		<g>
			
				<ellipse transform="matrix(0.3668 -0.9303 0.9303 0.3668 -82.5682 979.8678)" class="st22" cx="678.5" cy="550.6" rx="7.7" ry="2.7"/>
			<path class="st22" d="M681.4,543.4l11.9,4.7c2.6,1.6-0.7,13.9-4.8,13.9l-12.7-4.4"/>
			<path class="st22" d="M689.9,561.6l7.1,2.4c3,0,6.4-10.1,4.6-12.4l-8.3-3.4"/>
			<polyline class="st22" points="723.6,560.3 706.1,554.3 701.6,551.6 			"/>
			<path class="st22" d="M735.9,576.6l6.8,2.4c0,0,4.3-1.9,4-10.5l-5-1.7"/>
			<polyline class="st22" points="697,564 702.1,564.8 717,570 			"/>
			<path class="st22" d="M709.8,567.5c2.2,0,5.7-7.7,4.5-10.4"/>
			<path class="st22" d="M739,577.6c3.5-1.2,4.2-8.4,4.2-10.1"/>
			<path class="st22" d="M680.9,559.5c7.3-6.4,5.1-14.2,5.1-14.2"/>
			<path class="st22" d="M682.3,560c7.3-6.4,5.1-14.2,5.1-14.2"/>
			<path class="st22" d="M683.8,560.6c7.3-6.4,5.1-14.2,5.1-14.2"/>
			<path class="st22" d="M685.7,561.1c7.3-6.4,4.8-14,4.8-14"/>
			<path class="st22" d="M687.7,561.6c7.3-6.4,4.5-13.9,4.5-13.9"/>
			<path class="st22" d="M677.9,556.8c-1.3-1.2-1.5-3.9-0.4-6.6c1.1-2.7,3-3.9,4.7-4.6"/>
			<g>
				<circle class="st22" cx="696.7" cy="557" r="2.3"/>
				<g>
					<path class="st2" d="M698.3,555.4c0.4,0.4,0.6,1,0.5,1.5c0,0.6-0.3,1.1-0.7,1.5c-0.4,0.4-1,0.6-1.6,0.6c-0.6,0-1.1-0.2-1.5-0.6
						c1,0.3,2,0.1,2.6-0.5C698.3,557.3,698.6,556.4,698.3,555.4z"/>
				</g>
			</g>
		</g>
		<g>
			<path class="st23" d="M323.8,627.2c0,27.5-23.4,49.8-52.2,49.8s-52.2-22.3-52.2-49.8c0-27.5,23.4-49.8,52.2-49.8"/>
			<path class="st24" d="M241.7,659.8c-17.8-17-17.8-44.6,0-61.6s46.7-17,64.5,0"/>
			<ellipse class="st2" cx="324.4" cy="627.8" rx="5.8" ry="5.6"/>
			<ellipse class="st2" cx="241.7" cy="659.8" rx="3.1" ry="2.9"/>
			<ellipse class="st25" cx="271.2" cy="630.5" rx="25.2" ry="24"/>
			<g>
				<path class="st2" d="M257.3,621.7c1.4,0.1,2.7,0.4,3.9,0.7c1.3,0.3,2.5,0.8,3.7,1.3l3,1.2l-3.1,0.9c-1.3,0.4-2.7,0.7-4.1,0.9
					c-0.7,0.1-1.4,0.2-2.1,0.3c-0.7,0-1.4,0.1-2.2,0c0.6-0.4,1.2-0.8,1.9-1.1c0.6-0.3,1.3-0.6,1.9-0.9c1.3-0.5,2.6-1,4-1.3l-0.1,2.1
					c-1.2-0.5-2.4-1.1-3.5-1.7C259.5,623.3,258.3,622.6,257.3,621.7z"/>
			</g>
			<g>
				<path class="st2" d="M282.1,621.7c-0.9,0.9-1.9,1.6-3,2.2c-1,0.7-2.1,1.2-3.2,1.7l-0.1-2c1.2,0.4,2.5,0.8,3.7,1.3
					c0.6,0.3,1.2,0.6,1.8,0.9c0.6,0.3,1.2,0.7,1.7,1.1c-0.7,0-1.4,0-2,0c-0.7-0.1-1.3-0.1-2-0.3c-1.3-0.2-2.6-0.5-3.8-0.9l-2.7-0.9
					l2.6-1.1c1.1-0.5,2.2-0.9,3.4-1.3C279.6,622.1,280.8,621.8,282.1,621.7z"/>
			</g>
			<path class="st25" d="M277,639.8c0,3.7-3.2,6.2-7.1,6.2s-7.1-3-7.1-6.7L277,639.8z"/>
		</g>
		<g>
			<g>
				<path class="st26" d="M380.3,492.6c4.5,17-0.3,27.4-14.5,31.2c-4.3,1.2-8.2,0.8-11.7-1.1c-1.9,3.2-4.1,5.2-6.8,5.9
					c-3.6,1-6.7,0.5-9.5-1.3c-2.5-1.7-4.2-4-5-7.1c-0.9-3.4-0.4-6.7,1.7-9.7c1.9-2.8,4.3-4.5,7.3-5.3c1.3-0.3,2.6-0.4,3.7-0.2
					c-0.7-1.9-1.9-3.4-3.4-4.5c-1.7-1.1-3.6-1.5-5.5-0.9c-0.6,0.2-1.2,0.4-1.8,0.7l1.9-13.9c3.4-1.3,6.4-1.7,9.1-1.3
					c4.8,0.7,8.6,3.6,11.4,8.8c1.1,1.9,2.9,6.9,5.6,14.9c1.3,3.8,3,5.4,5.3,4.7c2.2-0.6,3.5-2.6,4-5.9c0.4-3,0-6.8-1.2-11.2
					c-2.1-8-6.5-13.4-13.2-16.3c-5.5-2.4-11.2-2.8-17.2-1.2c-7.1,1.9-12.6,6.1-16.5,12.6c-3.9,6.5-4.9,13.3-3.1,20.2
					c1.9,7.4,5.7,13.1,11.4,17c6.2,4.4,13.3,5.6,21.1,3.5c1.4-0.3,3.1-0.8,4.9-1.4l2.1,8c-1.8,0.7-3.9,1.3-6.3,2
					c-7.8,2.1-15.6,1.5-23.5-1.9c-10-4.3-16.5-12.3-19.7-24.1c-2.8-10.6-1.5-20.2,3.9-28.7c5.2-8.2,12.9-13.7,23.2-16.4
					c9.2-2.5,17.8-1.7,25.7,2.3C372.4,476.3,377.8,483.2,380.3,492.6z M351.1,517.5l-2.1-3.9c-3,0.4-4.3,1.6-3.7,3.6
					c0.4,1.7,1.5,2.3,3.2,1.8C349.5,518.7,350.4,518.2,351.1,517.5z"/>
			</g>
			<circle class="st2" cx="350.1" cy="455.2" r="5.3"/>
			<circle class="st2" cx="331.3" cy="458.8" r="5.3"/>
		</g>
		<g>
			<path class="st2" d="M681.3,543.9c-14.6-3.3-28.9-8.2-42.5-14.7c-6.9-3.2-13.4-7-19.8-11c-6.4-4-12.5-8.5-18.5-13.1
				c-11.9-9.3-22.8-19.6-34.2-29.2c-11.3-9.7-23.1-18.5-36.1-25.4c-6.4-3.6-13.3-6.3-20.1-8.9l-5.2-1.7c-0.9-0.3-1.7-0.6-2.6-0.9
				l-2.7-0.7l-5.3-1.5c-1.8-0.5-3.6-0.8-5.4-1.2c-14.4-3.2-29.2-4.7-44.1-5.3c-14.9-0.6-29.9-0.9-44.8-1.8
				c-7.5-0.3-14.9-0.9-22.4-1.5l-5.6-0.4l-5.6-0.6l-11.2-1.2c-1.9-0.2-3.7-0.5-5.6-0.7l-5.6-0.8c-1.9-0.3-3.7-0.5-5.6-0.7
				c-1.9-0.2-3.7-0.6-5.5-0.8l-11.1-1.7l-11-2.2c-1.8-0.3-3.6-0.8-5.5-1.3l-5.5-1.4c-0.9-0.2-1.8-0.4-2.7-0.7l-2.7-0.8l-5.4-1.6
				c-1.8-0.5-3.6-1.2-5.3-1.8l-5.3-1.9c-1.7-0.7-3.5-1.5-5.2-2.2c-1.7-0.8-3.5-1.4-5.1-2.4l-5-2.6c-1.7-0.8-3.3-1.9-4.9-2.8
				l-2.4-1.4c-0.8-0.5-1.6-1-2.4-1.5c-1.6-1-3.2-2-4.7-3.1l-4.6-3.3c-1.5-1.1-3-2.2-4.5-3.4c-0.8-0.6-1.5-1.1-2.3-1.7
				c-0.8-0.6-1.5-1.3-2.2-2c-1.4-1.4-2.7-2.8-3.8-4.3c-2.4-3-4.5-6.2-6.5-9.4c-2-3.2-3.9-6.5-5.7-9.8c-3.6-6.6-7-13.2-10.4-19.9
				C202,325.3,195.2,312,188,299c-7.3-13-15.1-25.7-24-37.5c-9-11.8-18.9-22.8-30.6-31.7c-5.8-4.5-12.1-8.3-18.8-11.4
				c-3.3-1.5-6.8-2.8-10.3-4c-1.8-0.5-3.5-1.1-5.3-1.5c-1.8-0.5-3.6-0.8-5.4-1.2l0.1-0.9c3.7,0.3,7.5,0.8,11.2,1.6
				c3.7,0.9,7.3,1.9,10.9,3.3c7.1,2.7,13.8,6.5,20,10.9c3.1,2.2,6.1,4.6,8.9,7.1c1.4,1.2,2.8,2.5,4.2,3.8c1.3,1.3,2.7,2.6,4,4
				c2.7,2.7,5.2,5.5,7.6,8.4c2.4,2.9,4.8,5.9,7,8.9c9,12.1,16.9,25,24.2,38.1c7.3,13.1,13.8,26.6,20.4,40c3.3,6.7,6.6,13.4,10.1,20
				c3.5,6.5,7.1,13.1,11.5,18.9c1.1,1.5,2.3,2.8,3.5,4.1c0.6,0.6,1.3,1.3,1.9,1.8c0.7,0.6,1.4,1.1,2.2,1.7c1.5,1.1,2.9,2.3,4.4,3.4
				l4.5,3.3c1.5,1.1,3.1,2.1,4.6,3.2c0.8,0.5,1.5,1.1,2.3,1.6l2.4,1.4c1.6,0.9,3.1,2,4.8,2.8l4.9,2.6c1.6,0.9,3.3,1.6,5,2.4
				c1.7,0.8,3.4,1.6,5.1,2.3l5.2,2c1.7,0.7,3.5,1.4,5.2,1.9l5.3,1.7l2.7,0.9c0.9,0.3,1.8,0.5,2.7,0.7l5.4,1.4c1.8,0.5,3.6,1,5.4,1.4
				c14.5,3.5,29.3,5.6,44.2,7l11.2,0.9l5.6,0.4l5.6,0.3c7.5,0.4,14.9,0.9,22.4,1c14.9,0.6,29.8,0.4,44.8,0.6
				c15,0.2,30.1,1.4,44.9,4.3c1.9,0.4,3.7,0.7,5.6,1.1l5.5,1.4l2.8,0.7c0.9,0.3,1.8,0.6,2.7,0.8l5.4,1.7c1.8,0.6,3.6,1.3,5.3,2
				l2.7,1c0.9,0.3,1.7,0.7,2.6,1.1l5.2,2.3l5.1,2.6c13.6,6.9,25.8,16.1,37.3,25.8c5.7,4.9,11.3,9.9,16.9,14.9
				c5.6,4.9,11.2,9.8,16.9,14.5c5.8,4.7,11.7,9.1,17.8,13.3c6.2,4.1,12.4,8,19,11.5c1.6,0.9,3.2,1.8,4.9,2.6l5,2.4
				c0.8,0.4,1.7,0.8,2.5,1.2l2.6,1.1l5.1,2.2c3.4,1.4,6.9,2.7,10.4,4.1l10.6,3.6L681.3,543.9z"/>
		</g>
		<g>
			<path class="st2" d="M1,868.2c8.2-0.9,16.3-2.4,23.8-5.4c1.9-0.7,3.7-1.6,5.5-2.4c0.9-0.5,1.7-1,2.6-1.5c0.9-0.5,1.7-1,2.5-1.6
				c3.3-2.2,6.3-4.8,9-7.8c5.3-5.9,9.2-13.1,13.7-20.1c2.3-3.5,4.8-7,7.9-10.1c3.1-3.1,6.7-5.8,10.6-7.7c4-1.9,8.2-3.2,12.4-4
				c1.1-0.3,2.1-0.3,3.2-0.5c1.1-0.1,2.1-0.3,3.2-0.3c2.1-0.1,4.2-0.3,6.5-0.2c4.4,0.2,8.5,1,12.6,1.7c4.1,0.8,8.1,1.6,12.2,2.5
				c16.1,3.6,32.1,7,48.3,9.3c16.2,2.3,32.5,3.5,48.8,2.6c16.2-1,32.4-4.2,47.3-10.6c14.9-6.4,28.4-16.1,39.2-28.4
				c5.4-6.1,10.2-12.8,14.3-19.9l3-5.4l2.8-5.5c1.9-3.7,3.8-7.4,6-10.9c4.3-7,9.5-13.6,15.3-19.5c5.8-5.9,12.6-10.8,19.8-14.8
				c7.3-4,15-7.1,22.9-9.6c7.9-2.5,15.9-4.5,23.9-6.5c8-2,15.9-4.1,23.5-7c1.9-0.7,3.8-1.5,5.7-2.3c1.9-0.8,3.7-1.8,5.5-2.6l2.6-1.5
				c0.9-0.5,1.8-1,2.6-1.6l2.5-1.7c0.4-0.3,0.8-0.6,1.2-0.9l1.2-0.9c6.4-4.9,11.8-11,16-17.9l1.6-2.6c0.6-0.9,1.1-1.8,1.7-2.7
				c1.2-1.8,2.5-3.4,3.8-5.1c2.7-3.2,5.6-6.3,8.7-9.1c6.2-5.6,12.9-10.6,19.8-15.2c6.9-4.6,14.1-8.8,21.4-12.7
				c14.6-7.8,29.7-14.6,45-20.9c15.3-6.3,30.8-11.9,46.6-16.9c7.9-2.5,15.8-4.9,23.7-7c8-2.2,15.9-4.2,24-6l0.2,0.8
				c-15.7,5.1-31.3,10.3-46.8,15.8c-15.5,5.4-30.9,11.2-46.1,17.3c-15.2,6.2-30.2,12.9-44.7,20.5c-7.2,3.8-14.3,7.9-21.2,12.3
				c-6.9,4.4-13.5,9.2-19.5,14.6c-3,2.7-5.9,5.6-8.5,8.6c-1.3,1.5-2.5,3.1-3.7,4.7c-0.6,0.8-1.1,1.7-1.7,2.5l-1.7,2.6
				c-4.5,7.1-10.3,13.5-17,18.5l-1.3,1c-0.4,0.3-0.9,0.6-1.3,0.9l-2.6,1.7c-0.9,0.6-1.8,1-2.7,1.6l-2.8,1.5
				c-1.9,0.9-3.8,1.8-5.7,2.6c-1.9,0.8-3.9,1.6-5.8,2.3c-7.8,2.8-15.9,4.8-23.9,6.7c-8,1.9-16,3.7-23.9,6.1
				c-7.8,2.3-15.6,5.2-22.8,9.1c-7.2,3.8-14,8.6-19.8,14.3c-5.9,5.7-10.8,12.4-14.9,19.4c-2.2,3.5-3.9,7.2-5.7,10.9l-2.7,5.6
				l-2.9,5.5c-4.1,7.2-8.8,14.1-14.1,20.5c-10.6,12.8-24.3,23.1-39.4,30.1c-15.2,7-31.8,10.6-48.4,11.9c-16.6,1.3-33.3,0.4-49.8-1.8
				c-16.5-2.1-32.7-5.6-48.8-9.1c-4-0.9-8-1.7-12-2.5c-4-0.7-8-1.5-11.8-1.7c-1.8-0.1-3.9,0.1-5.8,0.2c-1,0-2,0.2-2.9,0.3l-1.5,0.2
				c-0.5,0-1,0.1-1.5,0.2c-3.9,0.6-7.6,1.7-11.1,3.3c-3.5,1.6-6.6,3.8-9.4,6.5c-2.8,2.7-5.2,5.8-7.5,9.2c-2.3,3.3-4.5,6.8-6.9,10.3
				c-2.4,3.4-5,6.8-7.9,9.9c-5.9,6.1-13.5,10.7-21.5,13.1c-8,2.6-16.3,3.6-24.6,3.8L1,868.2z"/>
		</g>
		<g>
			<g>
				<path class="st4" d="M183.5,823.3c-0.5-1.5-0.9-3-1.2-4.5c-1.2-7.3,0.6-14.7,4.9-20.7c4.4-6,10.8-10,18.1-11.2
					c15.2-2.4,29.5,7.9,31.9,23.1c0.2,1.5,0.4,3,0.4,4.4c0,2.6-0.4,5.1-1,7.5c1.6,0,3.3,0,4.9,0.1c1-4.1,1.2-8.4,0.5-12.7
					c-2.8-17.8-19.6-29.9-37.4-27c-8.6,1.4-16.2,6-21.3,13.1c-4.1,5.6-6.2,12.2-6.2,19c0,1.7,0.1,3.5,0.4,5.2c0.2,1.5,0.6,2.9,1,4.2
					C180.2,823.6,181.9,823.5,183.5,823.3z"/>
				<path class="st4" d="M188.2,823c-3.4-1-5.7-2.6-5.9-4.2c-0.3-1.9,2.1-4.6,6.3-7.1c5-2.9,12.1-5.2,19.7-6.4
					c17-2.7,28.3,0.9,28.9,4.7c0,0.1,0,0.2,0,0.3c0,1.9-2.4,4.4-6.3,6.7c-3.3,1.9-7.4,3.5-12,4.8c4.4,0,8.8,0,13.1,0
					c0.4-0.2,0.9-0.4,1.3-0.7c6.2-3.6,9.2-7.8,8.6-11.9c-1.4-9-18.8-11.2-34.4-8.7c-8.3,1.3-15.8,3.8-21.4,7
					c-5.6,3.3-8.7,7.1-8.7,10.8c0,0.4,0,0.7,0.1,1.1c0.2,1.5,1,2.9,2.2,4.1C182.6,823.4,185.4,823.2,188.2,823z"/>
				<path class="st4" d="M202,822.2c-0.5-2-1-4.2-1.3-6.3c-2.7-17,0.9-28.3,4.7-29c1.9-0.3,4.6,2.1,7.1,6.3c2.9,5,5.2,12.1,6.4,19.7
					c0.5,3.2,0.8,6.2,0.9,8.9c1.6,0,3.2,0,4.7,0c-0.1-3.2-0.4-6.5-0.9-9.6c-1.3-8.3-3.8-15.8-7-21.4c-3.6-6.2-7.8-9.3-11.9-8.6
					c-6.7,1.1-9.6,11-9.6,22.5c0,3.9,0.3,7.9,1,11.9c0.3,2,0.7,3.9,1.2,5.8C198.8,822.3,200.4,822.3,202,822.2z"/>
			</g>
		</g>
		<g>
			<g>
				<path class="st4" d="M462,516.4c0.2-0.5,0.5-0.8,1-1.1l28.4-12.3c1-0.4,2.1,0,2.5,1c0.4,1,0,2.1-1,2.5l-28.4,12.3
					c-1,0.4-2.1,0-2.5-1C461.8,517.4,461.8,516.9,462,516.4z"/>
				<path class="st4" d="M461,516.1c0.3-0.7,0.8-1.3,1.6-1.7l15.6-6.8c1.5-0.7,3.3,0,3.9,1.6c0.7,1.5,0,3.3-1.6,3.9l-15.6,6.8
					c-1.5,0.7-3.3,0-3.9-1.6C460.7,517.6,460.7,516.8,461,516.1z"/>
			</g>
			<g>
				<g>
					<g>
						<path class="st4" d="M518.4,509.3l-20.9-23.7c1.7-1.2,3.6-2.1,5.7-2.6l18.5,20.9c0,0.1-0.1,0.2-0.1,0.3
							C520.8,506.2,519.7,507.9,518.4,509.3z"/>
						<path class="st4" d="M512.4,513.3l-19.7-22.3c0.6-1.1,1.3-2.1,2-3l20.8,23.6C514.6,512.3,513.5,512.9,512.4,513.3z"/>
					</g>
				</g>
				<path class="st4" d="M523.3,505c3.6-9.1-0.9-19.5-10-23.1c-9.1-3.6-19.5,0.9-23.1,10c-3.6,9.1,0.9,19.5,10,23.1
					C509.3,518.6,519.7,514.1,523.3,505z M493.8,493.4c2.8-7.2,10.9-10.7,18.1-7.9c7.2,2.8,10.7,10.9,7.9,18.1
					c-2.8,7.2-10.9,10.7-18.1,7.9C494.5,508.6,490.9,500.5,493.8,493.4z"/>
			</g>
		</g>
		<g>
			<path class="st27" d="M234.4,385.8c-6.1,3.4-12.8,5.9-19.2,8.3c-4.1,1.5-8.3,3.1-12.3,4.9c-12.9,5.8-21.5,13.2-25.5,22.2
				c-2.5,5.7-3.3,12.4-2.4,19.3c0.7,4.7,2,8.5,4.1,11.5c1.3,1.8,2.9,3.3,4.6,4.4c0.1,0.7,0.1,1.4,0.2,2
				c2.4,17.6,14.5,33.7,30.9,40.8l0.3-0.8c-16.1-7-28-22.8-30.4-40.1c-0.1-0.4-0.1-0.9-0.2-1.4c1.5,0.8,3.2,1.3,4.8,1.4
				c4.4,0.3,8.7-2.2,10.1-6.1c0.8-2,0.6-4.5-0.5-6.6c-1-1.9-2.6-3.2-4.4-3.7c-4-1-7.9,1.9-9.6,5.2c-1.3,2.6-1.5,5.6-1.4,8.2
				c-1.5-1-2.8-2.3-3.9-3.8c-2-2.9-3.4-6.5-4-11.1c-0.9-6.8-0.1-13.3,2.3-18.8c3.9-8.8,12.3-16.1,25-21.8c4-1.8,8.2-3.4,12.3-4.9
				c6.5-2.4,13.2-4.9,19.3-8.4c1-0.6,2-1.2,3-1.8c-0.2-0.2-0.3-0.5-0.5-0.7C236.4,384.6,235.4,385.2,234.4,385.8z M184.6,455.9
				c-0.2-2.6,0-5.7,1.3-8.4c1.5-3,5-5.6,8.6-4.7c1.6,0.4,3,1.6,3.9,3.2c1,1.9,1.2,4.1,0.5,5.9c-1.3,3.4-5.3,5.8-9.3,5.5
				C187.9,457.3,186.2,456.8,184.6,455.9z"/>
			<g>
				<path class="st27" d="M230.8,523.3c11.6,5.1,21.9,1.8,25.5-6.4c3.6-8.2-0.9-18-12.6-23.1c-0.8-0.3-4.1-1.8-6.5-2.8
					c-0.5-0.2-1-0.4-1.4-0.5c-0.5-0.2-0.9-0.4-1.2-0.4c-10.3-3.2-16.2,0.8-20,7.3c-0.2,0.3-0.4,0.7-0.5,1c-0.2,0.4-0.3,0.7-0.4,1.1
					c-2.2,7.2-1.2,14.3,8.2,19.7c0.2,0.1,0.6,0.3,1.1,0.6c0.4,0.2,0.8,0.4,1.3,0.6C226.7,521.5,230,522.9,230.8,523.3z"/>
				
					<rect x="222.1" y="492.7" transform="matrix(0.4019 -0.9157 0.9157 0.4019 -326.58 504.4381)" class="st27" width="1.4" height="19"/>
				<path class="st27" d="M227.6,505.6l0.9-2.1c0.2-0.5,0-1.1-0.5-1.3l-5.2-2.3c-0.5-0.2-1.1,0-1.3,0.5l-0.9,2.1
					c-0.2,0.5,0,1.1,0.5,1.3l5.2,2.3C226.8,506.3,227.4,506.1,227.6,505.6z"/>
				<path class="st27" d="M224.4,520.3c3.1-4.4,5.7-9.1,7.9-14s3.8-10,5-15.3c-0.5-0.2-1-0.4-1.4-0.5c-2.3,10.6-6.6,20.4-12.8,29.2
					C223.4,519.9,223.9,520.1,224.4,520.3z"/>
			</g>
		</g>
		<g>
			<g>
				<path class="st13" d="M132.8,568c-0.1-0.7-0.2-1.4-0.2-2.1l0-0.5c0-0.2,0-0.2,0-0.4l0-0.6c-0.1-0.9,0-1.7-0.1-2.6
					c-0.1-0.9-0.2-1.7-0.4-2.6l-0.6-2.5c-1-3.3-2.6-6.5-4.7-9.3c-4.2-5.6-10.4-9.6-17.3-11.1l-2.6-0.4c-0.9-0.1-1.8-0.1-2.6-0.2
					c-0.9-0.1-1.8,0-2.7,0c-0.9,0.1-1.8,0.2-2.6,0.3c-3.5,0.5-6.9,1.7-10,3.4c-6.3,3.4-11.2,9.3-13.7,16l-0.2,0.5l-0.5-0.4
					c-1.9-1.6-4.3-2.6-6.7-2.8c-2.4-0.3-4.9,0.2-7,1.3c-2.1,1.1-3.9,2.8-5,4.8c-1.2,2-1.7,4.3-1.6,6.6l0,0l0,1.7l-1.5,0
					c-1.9,0-3.8,0.3-5.7,0.9c-1.9,0.6-3.6,1.5-5.2,2.7c-3.2,2.3-5.8,5.6-7.1,9.4c-0.7,1.9-1.1,3.9-1.2,5.9c-0.2,2,0.1,4,0.5,6
					c0.4,2,1.2,3.8,2.2,5.6c1,1.8,2.2,3.3,3.6,4.8c1.5,1.4,3.1,2.6,4.8,3.6c1.8,0.9,3.7,1.7,5.6,2.1c2,0.4,4,0.6,6,0.5l6.2,0
					l24.6-0.1l24.6-0.2l12.3-0.1c2.1,0,4-0.1,5.9-0.5c1.9-0.5,3.8-1.1,5.5-2.1c1.7-1,3.3-2.1,4.7-3.5c1.4-1.4,2.6-2.9,3.5-4.7
					c0.9-1.7,1.7-3.5,2.1-5.4l0.2-0.7l0.1-0.7c0.1-0.5,0.1-1,0.2-1.4c0-1,0.1-1.9,0-2.9c-0.2-3.9-1.5-7.6-3.8-10.7
					c-1.1-1.6-2.5-2.9-4-4.1c-0.4-0.3-0.8-0.6-1.2-0.8l-1.2-0.8l-1.3-0.7C134.1,568.9,133.4,568.4,132.8,568z M135.7,566.2
					c0.3,0,0.5,0,0.7,0.1l1.4,0.8c0.5,0.3,0.9,0.6,1.4,0.9c0.4,0.3,0.9,0.7,1.3,1c1.7,1.4,3.1,3.1,4.4,4.9c2.5,3.6,3.8,8,3.9,12.3
					c0.1,1.1-0.1,2.2-0.1,3.3c-0.1,0.5-0.2,1.1-0.3,1.6l-0.1,0.8l-0.2,0.8c-0.5,2.1-1.4,4.1-2.5,6c-2.2,3.7-5.4,6.8-9.2,8.8
					c-1.9,1-4,1.7-6,2.1c-2.1,0.4-4.3,0.5-6.3,0.4l-12.3-0.1l-24.6-0.2l-24.6-0.1l-6.2,0c-1,0-2.1,0-3.1-0.1c-0.5,0-1-0.1-1.6-0.2
					c-0.5-0.1-1-0.1-1.5-0.3c-2.1-0.4-4-1.3-5.9-2.2c-1.8-1-3.5-2.3-5-3.8c-1.5-1.5-2.7-3.2-3.8-5c-1-1.9-1.8-3.8-2.2-5.9
					c-0.4-2-0.6-4.1-0.5-6.2c0.1-2.1,0.5-4.2,1.2-6.1c0.7-2,1.5-3.9,2.8-5.6c1.2-1.7,2.6-3.4,4.2-4.8c1.6-1.4,3.4-2.6,5.4-3.6
					c2-0.9,4-1.6,6.2-2.1l-1.5,1.7l0,0c0.1-2.9,1-5.8,2.6-8.1c1.6-2.3,3.9-4.2,6.5-5.2c2.6-1.1,5.4-1.3,8.1-0.8
					c2.7,0.5,5.1,1.8,7.1,3.7l-0.6,0.2c2.4-7,7.2-13.2,13.7-17c3.2-1.9,6.8-3.3,10.5-3.9c0.9-0.1,1.9-0.3,2.8-0.4
					c0.9,0,1.9-0.1,2.8-0.1c0.9,0,1.9,0.1,2.8,0.1l2.8,0.4c7.4,1.4,14.4,5.5,19.1,11.5c2.4,3,4.2,6.4,5.4,10l0.8,2.8
					c0.2,0.9,0.3,1.9,0.5,2.8c0.2,0.9,0.2,1.9,0.2,2.9l0,0.7c0,0.1,0,0.3,0,0.3c0,0.1,0,0.1,0,0.2
					C135.9,565.7,135.8,565.9,135.7,566.2z"/>
			</g>
			<polygon class="st13" points="103.9,584.9 103.9,568.9 87.9,568.9 87.9,584.9 84.4,584.9 95.9,597.4 107.4,584.9 			"/>
		</g>
		<g>
			<g>
				<path class="st13" d="M130.8,567.4c-0.1-0.7-0.3-1.5-0.3-2.3l0-0.6c0-0.2,0-0.3,0-0.4l-0.1-0.7c-0.1-1-0.2-1.9-0.4-2.9
					c-0.2-1-0.4-1.9-0.6-2.8l-0.9-2.8c-1.3-3.6-3.3-7-5.7-9.9c-4.8-5.9-11.7-9.9-19-11.3l-2.8-0.4c-0.9-0.1-1.9-0.1-2.8-0.1
					c-0.9-0.1-1.9,0.1-2.8,0.1c-0.9,0.1-1.9,0.2-2.8,0.3c-3.7,0.6-7.2,1.9-10.5,3.7c-1.6,0.9-3.2,2-4.6,3.2
					c-0.7,0.6-1.4,1.2-2.1,1.9c-0.6,0.7-1.3,1.3-1.9,2.1c-0.3,0.4-0.6,0.7-0.9,1c-0.3,0.4-0.6,0.7-0.9,1.1c-0.3,0.4-0.7,0.7-1,1.1
					c-0.3,0.4-0.6,0.7-1,1.1c-0.7,0.7-1.3,1.5-2.1,2.2c-0.7,0.7-1.4,1.5-2.4,2.3l-0.5,0.4l-0.3-0.2c-2.2-1.8-4.9-2.9-7.7-3.2
					c-1.4-0.2-2.8-0.1-4.1,0.2c-1.4,0.2-2.6,0.7-3.8,1.3c-2.4,1.2-4.4,3.2-5.7,5.4c-1.3,2.3-1.9,4.9-1.8,7.5l0,0l0.3,0.9l-2,1.1
					c-2,1.1-3.8,2.2-5.5,3.5c-1.6,1.3-3,2.6-4.2,4c-2.4,2.9-4.1,6.1-4.9,9.4c-0.5,1.6-0.7,3.3-0.8,5c-0.1,1.7,0.1,3.4,0.4,5
					c0.3,1.7,1,3.2,1.8,4.7c0.8,1.5,1.9,2.8,3,4c1.2,1.2,2.6,2.2,4,3.1c1.5,0.8,3.1,1.5,4.7,1.8c0.4,0.1,0.8,0.1,1.2,0.2
					c0.4,0.1,0.8,0.2,1.3,0.2l1.3,0.1c0.2,0,0.5,0,0.8,0l0.9,0l7,0.1c9.3,0.1,18.7,0.2,28,0.4c9.3,0.2,18.7,0.4,28,0.7
					c4.7,0.1,9.3,0.2,14,0.4l1.8,0.1l1.4,0l0.7,0l0.7-0.1c0.5-0.1,0.9-0.1,1.4-0.2c1.8-0.3,3.6-0.9,5.4-1.7c3.4-1.7,6.4-4.3,8.5-7.5
					c1-1.6,1.9-3.4,2.4-5.3l0.2-0.7l0.1-0.7c0.1-0.5,0.2-1,0.3-1.5c0.1-1,0.3-2,0.2-3c0.1-4-1-8.1-3.1-11.7
					c-1.1-1.8-2.4-3.4-3.9-4.9c-0.4-0.3-0.8-0.7-1.2-1l-1.3-1L133,569C132.2,568.5,131.4,568,130.8,567.4z M134.1,565.4
					c0.4,0,0.7-0.1,0.9,0c0.5,0.2,1.1,0.5,1.7,0.8c0.6,0.3,1.1,0.6,1.7,1c0.5,0.3,1.1,0.7,1.6,1.1c2.1,1.5,4,3.3,5.5,5.4
					c3.2,4.1,5.2,9.2,5.6,14.6c0.2,1.3,0.1,2.7,0.1,4c0,0.7-0.1,1.3-0.2,2l-0.1,1l-0.2,1c-0.5,2.7-1.5,5.2-2.7,7.7l-1,1.8
					c-0.4,0.6-0.8,1.1-1.2,1.7c-0.4,0.6-0.8,1.1-1.3,1.6c-0.5,0.5-0.9,1.1-1.4,1.5c-1.9,2-4.2,3.7-6.5,5.1c-2.4,1.4-5.1,2.4-7.8,3.1
					c-0.7,0.2-1.4,0.3-2.1,0.4l-1,0.2l-1,0.1l-2.1,0.2l-1.8,0.1c-4.7,0.2-9.3,0.3-14,0.4c-9.3,0.2-18.7,0.5-28,0.7
					c-9.3,0.2-18.7,0.3-28,0.4l-7,0.1l-0.9,0c-0.3,0-0.5,0-0.9,0l-2.2-0.1c-0.7,0-1.5-0.1-2.2-0.2c-0.7-0.1-1.5-0.2-2.2-0.4
					c-2.9-0.6-5.7-1.7-8.4-3.1c-2.6-1.4-5-3.2-7.2-5.3c-2.1-2.1-3.9-4.5-5.4-7.1c-1.4-2.6-2.6-5.4-3.2-8.4c-0.6-2.9-1-5.9-0.7-8.9
					c0-0.7,0.1-1.5,0.2-2.2c0.1-0.7,0.2-1.5,0.4-2.2c0.4-1.4,0.8-2.9,1.3-4.3c2.2-5.6,6.2-10.3,11.1-13.2c2.5-1.5,5.1-2.5,7.8-3.1
					c2.7-0.5,5.5-0.5,8.1,0l-1.7,1.9l0,0c0.1-3.3,1.1-6.5,3-9.2c1.8-2.7,4.4-4.7,7.4-5.9c1.5-0.6,3-1,4.6-1.1
					c1.6-0.2,3.1-0.1,4.6,0.2c3,0.6,5.9,2.1,8,4.2l-0.7,0.2c-0.1-0.6-0.1-1.2-0.1-1.7c0-0.6,0-1.2,0.1-1.7c0.2-1.1,0.4-2.3,0.8-3.3
					c0.2-0.5,0.4-1.1,0.6-1.6c0.2-0.5,0.5-1,0.8-1.5c0.5-1,1.2-2,1.9-2.9c2.8-3.6,6.4-6.6,10.3-8.9c3.9-2.3,8.3-3.9,12.8-4.7
					c1.1-0.1,2.3-0.3,3.4-0.4c1.1,0,2.3-0.1,3.4-0.1c1.1,0.1,2.3,0.1,3.4,0.2l3.4,0.5c4.5,0.9,8.8,2.7,12.6,5.2
					c3.9,2.4,7.2,5.6,9.9,9.3c2.7,3.6,4.6,7.8,5.9,12.1l0.7,3.3c0.2,1.1,0.3,2.2,0.4,3.3c0.1,0.5,0.1,1.1,0.1,1.7l0,1.7l0,0.8
					c0,0.1,0,0.3,0,0.4c0,0.1,0,0.1-0.1,0.2C134.4,564.8,134.3,565.1,134.1,565.4z"/>
			</g>
		</g>
		<g>
			<path d="M719.9,576.3c0.4-0.1,0.9-0.6,1.3-1c0.4-0.4,0.8-0.9,1.2-1.4c0.8-1,1.5-2.1,2.2-3.1l0.2,0.1c-0.6,1.1-1.2,2.3-2,3.4
				c-0.4,0.5-0.7,1.1-1.2,1.6c-0.4,0.5-0.8,1-1.6,1.4L719.9,576.3z"/>
		</g>
		<g>
			<path d="M725.3,578.5c0.4-0.1,0.9-0.6,1.3-1c0.4-0.4,0.8-0.9,1.2-1.4c0.8-1,1.5-2.1,2.2-3.1l0.2,0.1c-0.6,1.1-1.2,2.3-2,3.4
				c-0.4,0.5-0.7,1.1-1.2,1.6c-0.4,0.5-0.8,1-1.6,1.4L725.3,578.5z"/>
		</g>
		<g>
			<path d="M730.5,579.8c0.3-0.1,0.6-0.4,0.9-0.7c0.3-0.3,0.6-0.7,0.9-1c0.5-0.7,1.1-1.4,1.5-2.2l0.1,0.1c-0.4,0.8-0.9,1.6-1.4,2.4
				c-0.3,0.4-0.5,0.8-0.8,1.1c-0.3,0.3-0.6,0.7-1.2,1L730.5,579.8z"/>
		</g>
		<g>
			<path class="st2" d="M911.3,399c-0.5-0.5-1.1-0.6-1.6-0.6c-0.6,0-1.1,0.1-1.6,0.3c-1,0.4-1.8,1.1-2.4,1.9c-0.6,0.8-1,1.8-1.3,2.9
				c-0.3,1-0.5,2.1-0.7,3.2l-1.1-0.1c0.1-0.6,0.2-1.1,0.2-1.7c0.1-0.6,0.2-1.1,0.4-1.7c0.3-1.1,0.8-2.2,1.6-3.2
				c0.7-1,1.9-1.7,3.1-1.8c0.6-0.1,1.2-0.1,1.7-0.1c0.6,0,1.1,0.1,1.7-0.3L911.3,399z"/>
		</g>
		<g>
			<path class="st2" d="M893.8,403.3c-0.8,1.2-2,2.1-3.1,2.9c-1.2,0.8-2.4,1.5-3.7,2.1c-2.5,1.3-5.2,2.3-7.9,3.1
				c-5.4,1.7-10.9,3-16.5,3.7c-2.8,0.3-5.6,0.5-8.5,0.4c-1.4-0.1-2.8-0.2-4.2-0.5c-1.4-0.3-2.8-0.7-4.1-1.5
				c-0.3-0.2-0.6-0.4-0.9-0.7c-0.3-0.3-0.6-0.5-0.8-0.8c-0.4-0.6-0.8-1.2-1.2-1.8c-0.7-1.2-1.2-2.6-1.7-3.9c-1-2.7-1.6-5.4-2.2-8.1
				c-1.2-5.5-1.9-11.1-2.4-16.6c-0.5-5.6-0.8-11.2-0.9-16.8c-0.1-5.6,0-11.2,0.3-16.8c0.2-2.8,0.4-5.6,0.8-8.4
				c0.5-2.8,0.9-5.6,2.3-8.2l1,0.6c-1.3,2.3-1.8,5.1-2.3,7.8c-0.4,2.7-0.7,5.5-0.9,8.3c-0.4,5.6-0.5,11.1-0.4,16.7
				c0.1,5.6,0.4,11.2,0.9,16.7c0.5,5.6,1.2,11.1,2.4,16.6c0.6,2.7,1.3,5.4,2.2,8c0.2,0.6,0.5,1.3,0.8,1.9c0.3,0.6,0.6,1.3,0.9,1.8
				c0.7,1.2,1.4,2.3,2.6,3c2.3,1.3,5.2,1.6,7.9,1.6c2.8,0,5.5-0.2,8.3-0.6c5.5-0.8,10.9-2.1,16.2-3.7c2.6-0.8,5.3-1.7,7.8-2.8
				c1.3-0.5,2.5-1.1,3.8-1.7C891.6,405,892.8,404.3,893.8,403.3z"/>
		</g>
		<path class="st28" d="M838.2,390.3c-3.4,0-9.7-4.1-9.7-7.5c0-8,4.3-5.4,7.8-5.4"/>
		<g>
			<ellipse class="st29" cx="838.2" cy="362.3" rx="2.8" ry="11.6"/>
			<path class="st2" d="M842.2,362.3c0,2.1-0.2,4.2-0.7,6.3c-0.2,1-0.5,2.1-0.9,3.1c-0.2,0.5-0.4,1-0.7,1.5
				c-0.2,0.3-0.3,0.5-0.6,0.8c-0.2,0.2-0.6,0.5-1.1,0.5c-0.5,0-0.9-0.3-1.1-0.5c-0.3-0.2-0.4-0.5-0.5-0.8c-0.3-0.5-0.5-1-0.6-1.5
				c-0.3-1-0.5-2.1-0.7-3.1c-0.3-2.1-0.4-4.2-0.4-6.3c0-2.1,0.2-4.2,0.6-6.2c0.2-1,0.4-2.1,0.7-3.1c0.2-0.5,0.4-1,0.6-1.5
				c0.1-0.2,0.3-0.5,0.5-0.7c0.2-0.2,0.5-0.4,0.9-0.5c0.4,0,0.7,0.2,0.9,0.4c0.2,0.2,0.4,0.5,0.5,0.7c0.3,0.5,0.5,1,0.7,1.5
				c0.4,1,0.7,2,1,3.1C841.9,358.1,842.1,360.2,842.2,362.3z M839.9,362.3c0-2,0.1-4-0.1-6.1c-0.1-1-0.2-2-0.4-3
				c-0.1-0.5-0.3-1-0.5-1.4c-0.2-0.4-0.5-0.8-0.8-0.8c-0.2,0-0.6,0.4-0.8,0.8c-0.2,0.4-0.4,0.9-0.6,1.4c-0.3,1-0.5,2-0.6,3
				c-0.2,2-0.3,4.1-0.3,6.1c0,2,0.1,4.1,0.4,6.1c0.2,1,0.4,2,0.7,2.9c0.2,0.5,0.3,0.9,0.6,1.3c0.2,0.4,0.6,0.7,0.6,0.6
				c0.1,0,0.4-0.3,0.6-0.7c0.2-0.4,0.3-0.9,0.5-1.3c0.2-0.9,0.4-1.9,0.4-2.9C839.8,366.3,839.8,364.3,839.9,362.3z"/>
		</g>
		<g>
			<g>
				<g>
					<path class="st4" d="M840.5,326.8c-7.3-3.1-12-8.1-11.8-16.4c0.1-5.8,3.8-9.2,7.9-12.7c-3.8,5.1-4.9,10.6-3,16.7"/>
					<path class="st3" d="M840.5,326.9c-2.9-1-5.8-2.5-8-4.8c-1.1-1.1-2.1-2.5-2.8-3.9c-0.7-1.5-1.1-3-1.2-4.6
						c-0.2-3.1,0.2-6.4,1.6-9.2c1.4-2.8,3.8-5.1,6.1-7.1l3.8-3.3l-2.9,4.2c-1.6,2.4-2.9,4.9-3.6,7.7c-0.3,1.4-0.4,2.8-0.4,4.3
						c0,1.4,0.2,2.9,0.6,4.3l-0.1,0c-0.6-1.4-1-2.8-1.2-4.3c-0.2-1.5-0.2-3,0-4.5c0.2-1.5,0.7-3,1.3-4.4c0.6-1.4,1.5-2.7,2.4-3.9
						l0.9,0.8c-2.3,2-4.8,3.9-6.4,6.5c-0.8,1.3-1.3,2.8-1.5,4.3c-0.2,1.5,0,3.1,0.2,4.5c0.6,3,1.9,5.7,3.9,7.9
						c2,2.2,4.6,3.9,7.4,5.4L840.5,326.9z"/>
				</g>
				<g>
					<path class="st4" d="M838.7,326.2c-2.8-1.7-5.8-3.3-8.1-5.5c0.9,8.5,13.7,11.8,18.9,10.5c5.3-1.4,0.5-1.4,4.2-2.5"/>
					<path class="st3" d="M838.7,326.2c-1.5-0.6-3-1.3-4.4-2.2c-1.4-0.8-2.8-1.8-4-3l0.9-0.4c0.1,0.6,0.1,1.2,0.3,1.7
						c0.2,0.5,0.3,1.1,0.6,1.6l0.4,0.8c0.2,0.2,0.4,0.5,0.6,0.7c0.4,0.5,0.8,0.9,1.3,1.3c1.9,1.5,4.1,2.4,6.4,3.1
						c1.1,0.3,2.3,0.6,3.5,0.8c0.6,0.1,1.2,0.1,1.7,0.2c0.6,0,1.2,0.1,1.7,0.1l0.9,0l0.8-0.1c0.6-0.1,1.2-0.2,1.7-0.4
						c0.3-0.1,0.6-0.2,0.8-0.3c0.2-0.2,0.2,0.1,0.2-0.5c0-0.1,0.1-0.3,0.2-0.3c0.1-0.1,0.2-0.1,0.2-0.2c0.2-0.1,0.3-0.1,0.5-0.2
						c0.3-0.1,0.6-0.2,0.9-0.2l0,0.1c-0.3,0.1-0.6,0.3-0.8,0.4c-0.2,0.1-0.6,0.4-0.5,0.4c0,0,0.1,0.2,0.1,0.5
						c-0.1,0.3-0.3,0.4-0.4,0.6c-0.3,0.2-0.6,0.3-0.9,0.5c-0.6,0.2-1.2,0.5-1.8,0.6l-0.9,0.2l-0.9,0.1c-2.5,0.2-5-0.3-7.4-1.1
						c-2.4-0.8-4.5-2.1-6.3-3.9c-0.4-0.4-0.9-0.8-1.3-1.3l-0.6-0.7l-0.5-0.8c-0.4-0.5-0.6-1.1-0.9-1.7c-0.3-0.6-0.4-1.2-0.5-1.8
						l-0.5-1.6l1.3,1.2c1.2,1,2.5,2,3.8,2.9c1.3,0.9,2.7,1.9,4,2.9L838.7,326.2z"/>
				</g>
				<g>
					<path class="st4" d="M839.4,297.5c-0.4,0.2-0.6,1-0.9,1.3c-7.6,10.2-4.8,25.4,6.3,29.2c11.5,3.9,7-3.8,14.4-7.5
						c0.1,7.3,5.2,13.2,11.4,15.9c6.2,2.7,10,3.5,13,9.5c-0.5-3.8-1.2-7.1-3.7-10.1c6.7,1.7,11.6,7.3,12.2,13.7
						c0.7,6.4-1.8,10.7-0.6,16.6c0.5-2.4,2.2-3.7,4.7-1.9c3.3,2.4,6.3,5.2,5.4,10.3c-0.9,5.1-1.3,4.3-7.5,7.4
						c-3.1,1.5-2.5,20.1,1.7,23.5c4.2,3.4,6,7.5,9.5,11.2c-0.5-2.4-0.6-4.9-0.8-7.3c13.4,8.7,27.8,11.4,41.9,2.9
						c-6.3,2.8-11.8,3.1-18.2,0.3c10.3,3.8,17.9-0.3,25.1-7.8c-3.9,0.4-5.4,0.1-8.5-3c-3.1-3.1-7.7-7.3-10.3-11.4
						c5.4,3.3,11,7.1,17.7,6.5c-7.6-1.6-12.9-6.2-17.9-12c-2.5-9.4,2.9-15.3,6.9-23.4c-1.2,2.5-1.1,4.1,1.2,5.8
						c-0.4-6.9,0.5-12.2,2.5-19.1c2-6.9,2.6-14.2-2.6-20.2c2.6,0.4,3.9,2.5,5.3,4.5c-4-10.6-10.5-17.3-20.5-22.6
						c0.3,1.5,4.1-0.4,5.2-0.5c-3.1-1.5-6-2.5-9.4-1.7c2.8-1.5,4.4-3.2,4.9-6.4c-2.6,1.8-5.4,3.4-8.3,4.5c-5-8.3-9.4-13.7-20-15.2
						c-10.6-1.5-23.2,5.4-34.1,3.1c3.7,3,8.7,2.2,13.1,2.2c-6.9,1.1-16.7,3.1-22.8,4.6c-6.2,1.5-5.8-0.6-10.3-2.9
						c-2.3,3.2-2.7,6-1,9.6C839.5,305.8,838.9,302.3,839.4,297.5z"/>
					<path class="st3" d="M839.4,297.5L839.4,297.5c0,0.1,0,0.1-0.1,0.2c0,0-0.1,0.1-0.1,0.2c-0.1,0.1-0.1,0.2-0.2,0.4
						c-0.1,0.3-0.2,0.5-0.4,0.8c-0.3,0.5-0.6,0.9-0.9,1.4c-0.6,1-1.1,2-1.4,3.1c-0.4,1-0.7,2.1-1,3.2c-0.2,1.1-0.4,2.2-0.5,3.3
						c-0.3,4.4,0.9,9,3.5,12.5c1.3,1.7,3,3.1,5,4.1c1,0.5,2,0.8,3.1,1.1c1.1,0.3,2.1,0.6,3.2,0.6c1,0.1,2-0.1,2.7-0.7
						c0.7-0.6,1.3-1.6,1.8-2.6c0.6-1,1.3-2,2.1-2.8c0.8-0.8,1.8-1.5,2.9-2.1c0.2-0.1,0.4,0,0.5,0.2c0,0.1,0,0.1,0,0.2
						c0,3,1,6,2.7,8.6c1.7,2.5,4.1,4.6,6.7,6.1c2.7,1.5,5.7,2.4,8.5,3.8c1.4,0.7,2.8,1.6,3.9,2.8c1.1,1.2,2,2.5,2.7,3.9l-0.8,0.2
						c-0.2-1.8-0.5-3.6-1.1-5.2c-0.5-1.7-1.4-3.3-2.5-4.6c-0.2-0.2-0.1-0.5,0.1-0.7c0.1-0.1,0.3-0.1,0.4-0.1c3,0.8,5.8,2.4,8,4.6
						c2.2,2.2,3.8,5,4.4,8.1c0.6,3.1,0.3,6.2-0.1,9.2c-0.5,3-0.9,5.9-0.3,8.8l-1,0c0.2-0.8,0.4-1.6,1-2.2c0.5-0.7,1.5-1,2.4-0.9
						c0.9,0.1,1.6,0.6,2.2,1c0.6,0.4,1.2,0.9,1.7,1.4c1.1,1,2.2,2.1,2.9,3.4c0.7,1.3,1.1,2.9,1,4.4c0,0.8-0.2,1.5-0.3,2.2
						c-0.1,0.7-0.3,1.4-0.5,2.2c-0.2,0.7-0.7,1.5-1.4,1.9c-0.6,0.5-1.3,0.8-2,1.1l-2,0.9l-1,0.5l-0.5,0.2l-0.2,0.1
						c0,0-0.1,0.1-0.1,0.1c-0.4,0.3-0.7,1-0.9,1.7c-0.2,0.7-0.3,1.4-0.4,2.1c-0.4,2.8-0.3,5.7-0.1,8.6c0.3,2.8,0.7,5.7,1.9,8.3
						c0.3,0.6,0.6,1.3,1.1,1.8c0.1,0.1,0.2,0.2,0.4,0.3l0.4,0.4c0.3,0.2,0.6,0.5,0.8,0.7c1.1,1,2,2.1,2.9,3.3
						c1.8,2.3,3.3,4.8,5.3,6.8l-0.5,0.3c-0.5-2.4-0.6-4.9-0.7-7.3c0-0.1,0.1-0.3,0.2-0.3c0.1,0,0.1,0,0.2,0c3.1,2,6.4,3.8,9.8,5.2
						c3.4,1.4,7,2.3,10.7,2.7c3.7,0.4,7.4,0.1,11-0.7c3.6-0.9,7-2.3,10.2-4.2l0.2,0.3c-2.9,1.3-6,2.2-9.1,2.3
						c-1.6,0.1-3.2,0-4.8-0.3c-1.6-0.3-3.1-0.7-4.7-1.1l0,0c-0.4-0.1-0.7-0.5-0.5-1s0.5-0.7,1-0.5c0,0,0.1,0,0.1,0l0.1,0
						c2.1,0.9,4.3,1.5,6.6,1.7c2.3,0.1,4.6-0.2,6.8-0.9c2.2-0.7,4.2-1.9,6.1-3.3c1.9-1.4,3.6-3,5.2-4.7l0.2,0.4
						c-1,0.1-2.1,0.2-3.2,0.1c-1.1-0.1-2.2-0.4-3.1-1c-0.9-0.6-1.7-1.2-2.5-2l-2.3-2.1c-3.1-2.8-6.2-5.6-8.6-9.2
						c-0.3-0.4-0.2-1,0.2-1.3c0.3-0.2,0.7-0.2,1,0l4,2.6c1.3,0.9,2.7,1.7,4.1,2.4c1.4,0.7,2.9,1.3,4.4,1.7c1.5,0.4,3.1,0.5,4.7,0.3
						l0,0.7c-3.6-0.7-7.2-2-10.5-4c-3.3-1.9-6.1-4.5-8.6-7.3c-0.2-0.2-0.3-0.4-0.4-0.7c-0.6-2.2-0.8-4.5-0.5-6.8
						c0.3-2.3,1-4.4,2-6.4c1-2,2.1-3.8,3.3-5.5c1.1-1.8,2.2-3.5,3.2-5.4l0.9,0.5c-0.5,0.9-0.9,1.9-0.7,2.9c0.2,0.9,0.9,1.7,1.8,2.3
						l-0.8,0.5c-0.3-3.4-0.1-6.9,0.4-10.3c0.5-3.4,1.4-6.7,2.3-10c0.9-3.2,1.4-6.6,1-9.8c-0.3-3.3-1.6-6.4-3.8-8.9
						c-0.2-0.3-0.2-0.7,0.1-0.9c0.1-0.1,0.3-0.2,0.5-0.1l0,0c1.4,0.2,2.6,0.9,3.5,1.9c0.9,0.9,1.6,2,2.3,3l-1,0.5
						c-1.8-4.8-4.4-9.3-7.9-13.1c-3.5-3.8-7.8-6.8-12.3-9.2l0.8-0.6c0,0.1,0,0,0.1,0.1c0.1,0,0.3,0,0.5,0c0.4,0,0.8-0.1,1.3-0.3
						c0.4-0.1,0.9-0.3,1.3-0.4c0.5-0.1,0.9-0.3,1.5-0.4l-0.2,1.1c-1.5-0.7-2.9-1.3-4.5-1.6c-1.5-0.3-3.1-0.3-4.6,0
						c-0.3,0.1-0.6-0.1-0.7-0.5c-0.1-0.3,0.1-0.5,0.3-0.7c1.2-0.7,2.3-1.5,3-2.5c0.7-1,1.1-2.2,1.3-3.5l1.5,1
						c-1.3,0.9-2.7,1.7-4.2,2.4c-1.5,0.7-3,1.3-4.5,1.8l0,0c-0.3,0.1-0.6,0-0.7-0.3c-1.3-2.2-2.7-4.3-4.2-6.2
						c-1.5-2-3.3-3.7-5.3-5.1c-2-1.4-4.3-2.4-6.7-3c-2.4-0.6-4.9-1-7.3-0.9c-5,0.2-9.9,1.5-14.9,2.5c-4.9,1-10.1,1.8-15.3,0.8
						l0.4-0.9c1.6,1.4,3.8,2,6,2.2c2.2,0.2,4.5,0.1,6.7,0.1c0.2,0,0.3,0.1,0.3,0.3c0,0.1-0.1,0.3-0.3,0.3c-5.7,1-11.3,2.1-16.9,3.4
						l-4.2,1c-1.4,0.3-2.8,0.7-4.3,0.9c-0.7,0.1-1.5,0.1-2.3-0.1c-0.8-0.2-1.5-0.6-2.1-1c-1.2-0.8-2.3-1.6-3.6-2.3l0.6-0.2
						c-1,1.3-1.8,2.8-2,4.4c-0.2,1.6,0.2,3.2,0.9,4.7l0,0c0.1,0.2,0,0.4-0.2,0.5c-0.1,0-0.2,0-0.3,0c-1-0.3-2-0.7-2.9-1.3
						c-0.9-0.6-1.6-1.5-2-2.5c-0.4-1-0.5-2.1-0.6-3.1C839.1,299.5,839.1,298.4,839.4,297.5L839.4,297.5z M839.5,297.4
						c0,1.2-0.1,2.1,0,3.1c0.1,1,0.3,2,0.7,2.9c0.4,0.9,1.1,1.7,1.9,2.2c0.8,0.5,1.8,0.9,2.7,1.1l-0.4,0.5c-0.8-1.5-1.4-3.3-1.2-5.2
						c0.2-1.8,1.1-3.5,2-4.9c0.1-0.2,0.4-0.3,0.6-0.2l0,0c1.3,0.6,2.6,1.5,3.7,2.3c0.6,0.4,1.2,0.7,1.8,0.9c0.6,0.2,1.3,0.2,2,0.1
						c1.4-0.1,2.7-0.5,4.2-0.8l4.2-0.9c2.8-0.6,5.7-1.1,8.5-1.6c2.8-0.5,5.7-1,8.5-1.5l0,0.6c-2.2,0-4.5,0.2-6.8,0.1
						c-1.1-0.1-2.3-0.2-3.4-0.6c-1.1-0.4-2.2-0.9-3.1-1.6c-0.2-0.2-0.3-0.5-0.1-0.7c0.1-0.2,0.3-0.2,0.5-0.2l0,0
						c4.9,1,9.9,0.2,14.8-0.8c4.9-1,9.9-2.3,15-2.5c2.6-0.1,5.2,0.3,7.7,0.9c2.5,0.6,4.9,1.7,7.1,3.1c2.2,1.4,4,3.3,5.6,5.3
						c1.6,2,2.9,4.2,4.3,6.4l-0.7-0.3c1.4-0.6,2.8-1.3,4.1-2.1c1.3-0.8,2.6-1.7,3.9-2.6l0,0c0.4-0.3,1-0.2,1.3,0.3
						c0.1,0.2,0.2,0.5,0.1,0.7c-0.1,0.8-0.3,1.5-0.7,2.2c-0.3,0.7-0.8,1.4-1.3,2c-0.5,0.6-1.1,1.1-1.7,1.5c-0.6,0.4-1.3,0.8-1.9,1.1
						l-0.4-1.1c1.7-0.4,3.4-0.3,5.1,0c1.7,0.4,3.2,1,4.7,1.7c0.3,0.1,0.4,0.5,0.3,0.8c-0.1,0.2-0.2,0.3-0.4,0.3l0,0
						c-0.3,0.1-0.8,0.2-1.2,0.4c-0.4,0.1-0.9,0.3-1.4,0.4c-0.5,0.1-1,0.3-1.5,0.3c-0.3,0-0.6,0-0.9-0.1c-0.4-0.1-0.8-0.5-0.8-0.9
						l0,0c0-0.3,0.2-0.6,0.5-0.6c0.1,0,0.2,0,0.3,0.1c4.6,2.5,9,5.5,12.6,9.4c3.6,3.9,6.3,8.6,8.1,13.5c0.1,0.3,0,0.6-0.3,0.7
						c-0.3,0.1-0.5,0-0.7-0.2c-0.7-1-1.4-2-2.2-2.8c-0.8-0.8-1.7-1.3-2.8-1.5l0.6-1c2.3,2.7,3.7,6.1,4,9.6c0.3,3.5-0.2,7-1.1,10.3
						c-0.9,3.3-1.8,6.5-2.4,9.8c-0.5,3.3-0.6,6.7-0.5,10l0,0c0,0.3-0.2,0.5-0.5,0.6c-0.1,0-0.2,0-0.3-0.1c-0.5-0.3-0.9-0.7-1.3-1.2
						c-0.4-0.5-0.7-1.1-0.8-1.7c-0.1-0.6,0-1.3,0.1-1.9c0.2-0.6,0.4-1.1,0.6-1.6c0.1-0.3,0.4-0.4,0.7-0.2c0.3,0.1,0.4,0.4,0.3,0.7
						l0,0c-0.9,1.9-1.8,3.8-2.8,5.7c-0.9,1.9-1.8,3.8-2.4,5.7c-0.7,1.9-1.1,3.8-1.2,5.7c-0.1,1.9,0.1,3.8,0.6,5.7l-0.4-0.7
						c2.4,2.7,4.7,5.4,7.3,7.7c1.3,1.2,2.8,2.2,4.4,3.1c1.6,0.8,3.3,1.5,5,1.9l0,0c0.2,0,0.3,0.2,0.3,0.4c0,0.2-0.2,0.3-0.3,0.3
						c-3.3,0.3-6.6-0.4-9.6-1.6c-1.5-0.6-3-1.3-4.4-2c-1.4-0.8-2.8-1.6-4.2-2.4l1.3-1.3c1.1,1.7,2.4,3.3,3.7,4.8
						c1.3,1.6,2.7,3.1,4.1,4.6c1.5,1.5,2.8,3.1,4.4,4.3c0.8,0.6,1.8,0.9,2.8,1c1,0.1,2,0,3.1-0.1c0.1,0,0.2,0.1,0.3,0.2
						c0,0.1,0,0.1-0.1,0.2c-3.2,3.4-6.9,6.5-11.4,8.3c-2.2,0.9-4.6,1.3-7,1.3c-2.4,0-4.8-0.5-7.1-1.2l0.6-1.4l0,0
						c2.6,1.6,5.7,2.5,8.8,2.5c3.1,0,6.2-1,9-2.2c0.1,0,0.2,0,0.2,0.1c0,0.1,0,0.2-0.1,0.2c-3.2,1.9-6.7,3.4-10.3,4.3
						c-3.6,0.9-7.4,1.1-11.1,0.7c-3.7-0.4-7.4-1.4-10.8-2.7c-3.5-1.4-6.8-3.1-9.9-5.1l0.4-0.2c0.2,2.4,0.3,4.9,0.8,7.3
						c0,0.2-0.1,0.3-0.2,0.3c-0.1,0-0.2,0-0.3-0.1c-2-2.1-3.6-4.6-5.4-6.8c-0.9-1.1-1.8-2.2-2.9-3.2c-0.3-0.2-0.5-0.5-0.8-0.7
						l-0.4-0.3c-0.2-0.1-0.3-0.3-0.4-0.4c-0.5-0.6-0.9-1.2-1.2-1.9c-1.2-2.7-1.7-5.7-2-8.6c-0.3-2.9-0.3-5.8,0-8.8
						c0.1-0.7,0.2-1.5,0.4-2.2c0.2-0.7,0.4-1.5,1.1-2.1c0.1-0.1,0.2-0.1,0.3-0.2l0.2-0.1l0.5-0.2l1-0.5l2-0.9c0.6-0.3,1.3-0.6,1.8-1
						c0.5-0.4,0.9-0.9,1.1-1.6c0.2-0.6,0.4-1.3,0.5-2c0.1-0.7,0.3-1.4,0.3-2.1c0.1-1.4-0.3-2.7-0.9-3.9c-0.7-1.2-1.6-2.2-2.7-3.1
						c-0.5-0.5-1.1-0.9-1.7-1.3c-0.5-0.4-1.1-0.7-1.7-0.8c-0.6-0.1-1.1,0.1-1.5,0.6c-0.4,0.4-0.6,1.1-0.8,1.7
						c-0.1,0.3-0.3,0.5-0.6,0.4c-0.2,0-0.4-0.2-0.4-0.4c-0.7-3.1-0.3-6.2,0.2-9.2c0.5-3,0.7-5.9,0.2-8.8c-0.6-2.9-2-5.5-4.1-7.6
						c-2-2.1-4.7-3.6-7.5-4.3l0.5-0.8c1.2,1.5,2.1,3.2,2.6,4.9c0.6,1.8,0.9,3.6,1.1,5.4c0,0.2-0.1,0.5-0.4,0.5
						c-0.2,0-0.4-0.1-0.5-0.2c-0.7-1.4-1.5-2.7-2.5-3.8c-1-1.1-2.3-2-3.6-2.7c-2.7-1.4-5.7-2.3-8.5-3.9c-2.7-1.6-5.2-3.7-7-6.3
						c-1.8-2.6-2.8-5.8-2.8-9l0.5,0.3c-1,0.5-1.9,1.2-2.6,2c-0.7,0.8-1.3,1.8-1.8,2.8c-0.5,1-0.9,2.1-1.9,3.1c-1,1-2.5,1.3-3.7,1.2
						c-1.2,0-2.4-0.3-3.5-0.6c-1.1-0.3-2.2-0.7-3.3-1.3c-2.1-1.1-4-2.7-5.4-4.6c-1.4-1.9-2.4-4.1-2.9-6.4c-0.5-2.3-0.7-4.7-0.4-7
						c0.2-2.3,0.8-4.6,1.8-6.7c0.5-1.1,1-2.1,1.7-3c0.3-0.5,0.7-0.9,1-1.4c0.2-0.2,0.3-0.5,0.4-0.7c0.1-0.1,0.1-0.3,0.2-0.4
						c0-0.1,0.1-0.1,0.2-0.2C839.2,297.5,839.3,297.4,839.5,297.4L839.5,297.4z"/>
				</g>
				<g>
					<path class="st4" d="M885.3,338c0.7,6.8-1.6,13.3,0,20.1c1.8-3.5,4-5.9,7.3-8C891.4,345,889.5,341.2,885.3,338z"/>
					<g>
						<path class="st3" d="M885.3,338c0.3,1.7,0.3,3.4,0.3,5.1c0,1.7-0.2,3.4-0.3,5.1c-0.2,3.3-0.3,6.7,0.5,9.9l-1.1-0.1
							c0.8-1.7,1.9-3.3,3.2-4.7c1.3-1.4,2.8-2.6,4.3-3.6l-0.3,0.6c-0.5-2.3-1.2-4.6-2.3-6.7c-0.5-1-1.2-2-1.9-2.9
							C887.1,339.6,886.2,338.8,885.3,338z M885.3,338c1,0.6,2,1.4,2.8,2.3c0.9,0.8,1.6,1.8,2.3,2.9c1.3,2.1,2.2,4.4,2.7,6.8
							l0.1,0.4l-0.3,0.2c-1.5,1-2.9,2.1-4.1,3.4c-1.2,1.3-2.2,2.8-3,4.4l-0.7,1.5l-0.4-1.6c-0.4-1.7-0.5-3.4-0.5-5.1
							c0-1.7,0.2-3.4,0.4-5.1l0.6-5C885.3,341.3,885.4,339.7,885.3,338z"/>
					</g>
				</g>
				<g>
					<path class="st3" d="M845.8,297.5c1.8,2.3,3.7,4.5,5.9,6.4c2.2,1.9,4.7,3.4,7.4,4.4c2.7,1,5.5,1.5,8.4,1.5
						c2.9,0,5.8-0.3,8.6-0.8c5.7-0.9,11.4-2.5,17.2-3.3c5.8-0.9,11.7-1.1,17.5-0.2c-5.8-0.6-11.7-0.2-17.4,0.8
						c-5.7,1-11.4,2.5-17.2,3.5c-2.9,0.5-5.8,0.9-8.8,0.8c-3,0-5.9-0.6-8.7-1.7c-2.8-1.1-5.2-2.8-7.4-4.8
						C849.3,302.2,847.4,299.9,845.8,297.5z"/>
				</g>
				<g>
					<path class="st3" d="M865,324.9c4.3,2.3,8.5,4.5,12.8,6.6c2.2,1.1,4.4,2,6.5,3.1c2.2,1.1,4.3,2.2,6.3,3.8
						c1,0.8,1.9,1.6,2.7,2.6c0.8,1,1.5,2,2,3.1c1.2,2.2,1.9,4.6,2.4,6.9c1,4.8,1.4,9.6,1.6,14.4l-0.5,0c-0.4-4.8-0.9-9.6-2-14.2
						c-0.6-2.3-1.3-4.6-2.4-6.7c-0.5-1-1.2-2-2-2.9c-0.8-0.9-1.6-1.7-2.6-2.4c-1.9-1.4-4-2.5-6.1-3.6l-6.5-3.1
						C872.9,330.4,868.7,327.9,865,324.9z"/>
				</g>
				<g>
					<path class="st3" d="M943.1,339.6c0.1,3.3-0.2,6.7-1.2,9.9c-1,3.2-2.6,6.2-4.4,9.1c-1.8,2.8-3.7,5.5-5.4,8.3l-1.3,2.1l-1.2,2.2
						l-1.1,2.2c-0.3,0.7-0.6,1.5-0.8,2.2c-0.9,3.1-0.4,6.4,0.9,9.3c1.3,2.9,3.3,5.6,5.6,8c2.3,2.4,4.8,4.5,7.5,6.5
						c2.7,2,5.5,3.7,8.4,5.4c-3-1.4-5.9-3.1-8.7-4.9c-2.8-1.8-5.4-3.9-7.8-6.3c-2.4-2.4-4.6-5-6-8.2c-1.4-3.1-2-6.8-1.1-10.2
						c2.2-6.6,6.3-12,10-17.4c1.8-2.7,3.6-5.5,4.7-8.6l0.8-2.3c0.2-0.8,0.4-1.6,0.6-2.4c0.1-0.8,0.3-1.6,0.4-2.4L943.1,339.6z"/>
				</g>
				<g>
					<path class="st3" d="M919.2,308.9c0.3,0.7,0.6,1.5,1,2c0.4,0.5,0.9,1,1.6,1.2c1.4,0.5,3,0.5,4.5,1c-0.8,0.1-1.6,0.1-2.4,0.1
						c-0.8,0-1.6,0-2.4-0.3c-0.8-0.2-1.6-0.8-2-1.6C919.1,310.5,919.1,309.7,919.2,308.9z"/>
				</g>
				<g>
					<path class="st3" d="M898,398.4c0.7-4.3,2.6-8.4,4.5-12.3c1.9-3.9,4-7.7,5-11.8c0.3-1,0.4-2,0.5-3.1c0.1-1.1,0.1-2.1,0.1-3.2
						c0-2.1-0.3-4.2-0.8-6.3c-0.9-4.1-2.9-8.1-4.5-12.1c2.4,3.7,4.6,7.4,5.9,11.7c0.6,2.1,1,4.4,1,6.6c0,1.1,0,2.2-0.1,3.3
						c-0.1,1.1-0.3,2.3-0.6,3.3c-0.5,2.2-1.4,4.3-2.4,6.2c-1,2-2,3.9-3.1,5.8C901.4,390.5,899.2,394.3,898,398.4z"/>
				</g>
				<g>
					<path class="st3" d="M916.7,387.2c1.6,3.6,3,7.2,4.6,10.7c1.6,3.5,3.6,6.9,6.3,9.5c2.7,2.6,6.4,4.3,10.3,4.5
						c3.8,0.3,7.7-0.5,11.4-1.7c-3.6,1.3-7.5,2.4-11.5,2.2c-3.9-0.1-7.9-1.7-10.8-4.4c-2.9-2.7-5-6.2-6.6-9.7
						c-0.8-1.8-1.5-3.6-2.2-5.5C917.7,391,917.1,389.1,916.7,387.2z"/>
				</g>
				<g>
					<path class="st3" d="M890.8,308.5c3.5,1,7,1.5,10.6,2c1.8,0.2,3.6,0.5,5.4,0.9c1.8,0.5,3.5,1.2,5,2.3c1.5,1,2.9,2.3,4.1,3.6
						c1.2,1.3,2.4,2.7,3.5,4.2c1.1,1.6,1.6,3.4,2,5.2c0.4,1.8,0.6,3.6,0.9,5.3c-1.4-3.3-1.7-7.1-3.7-10c-2.1-2.8-4.5-5.6-7.4-7.6
						c-1.4-1-3-1.8-4.8-2.3c-1.7-0.5-3.5-0.8-5.3-1.1C897.8,310.4,894.2,309.7,890.8,308.5z"/>
				</g>
				<g>
					<path class="st3" d="M923.8,319.4c2.1,1.4,4.1,3,5.9,4.8c1.8,1.8,3.3,4,4.3,6.4c1,2.4,1.5,5.1,1.4,7.7
						c-0.1,2.6-0.7,5.1-1.6,7.5c0.3-2.5,0.5-5,0.4-7.5c-0.1-2.4-0.6-4.8-1.6-7.1c-0.9-2.2-2.3-4.3-3.8-6.2
						C927.3,323.1,925.5,321.2,923.8,319.4z"/>
				</g>
				<g>
					<path class="st3" d="M854.5,326.9c-3-0.8-6-2-8.7-3.7c-2.7-1.7-5.1-4.1-6.6-7c-1.5-2.9-1.9-6.3-1.8-9.5c0.2-3.2,0.9-6.3,2-9.3
						c-0.6,3.1-1,6.2-1,9.3c0,3.1,0.5,6.2,1.9,8.9c1.4,2.7,3.5,5,6,6.8C848.9,324.2,851.7,325.6,854.5,326.9z"/>
				</g>
				<g>
					<path class="st3" d="M914,303.5c-0.9-0.6-1.7-1.3-2.6-1.9c-0.8-0.7-1.8-1.2-2.6-1.8c-0.4-0.3-0.9-0.6-1.3-0.9l-1.4-0.8
						l-1.4-0.8l-1.4-0.6c-3.8-1.7-8-2.6-12.1-2.9c-4.2-0.3-8.4,0-12.7,0.1c-2.1,0-4.3,0.1-6.4,0c-2.1-0.1-4.3-0.2-6.4-0.4
						c1.1,0,2.1-0.1,3.2-0.1c1.1,0,2.1-0.1,3.2-0.1c2.1-0.1,4.2-0.2,6.4-0.4c4.2-0.3,8.5-0.6,12.8-0.4c4.3,0.3,8.6,1.3,12.5,3.2
						l1.4,0.7l1.4,0.8l1.4,0.9c0.5,0.3,0.9,0.6,1.3,0.9C910.9,300.6,912.5,302,914,303.5z"/>
				</g>
				<g>
					<path class="st3" d="M855.1,319c-3-2.6-5.8-5.8-7.6-9.5c-0.9-1.9-1.5-3.9-1.9-5.9c-0.4-2-0.5-4.1-0.5-6.1
						c0-0.3,0.3-0.6,0.6-0.6c0.2,0,0.3,0.1,0.4,0.2c2.3,2.3,4.9,4.4,7.8,5.6c2.9,1.3,6.2,1.8,9.5,1.4c3.2-0.3,6.4-1.3,9.5-2.5
						c3.1-1.2,6.1-2.7,9-4.1c-2.9,1.6-5.8,3.2-8.9,4.5c-3,1.4-6.2,2.5-9.6,2.9c-3.3,0.5-6.8,0.1-10-1.3c-3.2-1.3-5.9-3.4-8.3-5.8
						l1-0.4c0,4,0.6,7.9,2.1,11.6c0.8,1.8,1.7,3.5,2.9,5.2C852.6,315.9,853.8,317.4,855.1,319z"/>
				</g>
				<g>
					<path class="st3" d="M845.1,298.5c3.2,4.5,6.2,9.1,9.5,13.5c1.7,2.2,3.4,4.4,5.6,5.9c2.2,1.6,4.8,2.4,7.5,2.9
						c2.7,0.5,5.4,0.9,8.1,1.2l8.2,1.1c2.7,0.4,5.5,0.8,8.2,1.3c2.7,0.5,5.4,1.1,8.1,2c5.3,1.7,10.4,4.3,14.5,8.2
						c4.1,3.9,6.8,9.1,8,14.6c1.2,5.5,1.3,11.1,0.8,16.6c-0.5,5.5-1.5,10.9-2.8,16.3c1-5.4,1.9-10.9,2.2-16.4
						c0.3-5.5,0.2-11-1.1-16.3c-0.7-2.6-1.6-5.2-2.9-7.6c-1.3-2.4-3-4.5-4.9-6.4c-3.9-3.7-8.9-6.2-14.1-7.9c-2.6-0.9-5.3-1.5-7.9-2
						c-2.7-0.5-5.4-0.9-8.1-1.3l-8.2-1.2c-2.7-0.4-5.5-0.8-8.2-1.4c-2.7-0.6-5.5-1.5-7.7-3.2c-2.3-1.7-4-4-5.6-6.2
						C850.9,307.8,848,303.1,845.1,298.5z"/>
				</g>
			</g>
			<path class="st14" d="M838.1,388c-2.3,0.4-6.1-2.7-6.2-4.6c-0.2-4.5,1.7-3.8,4.9-4.1"/>
			<g>
				<path class="st2" d="M845.2,391.3c1.6,0.8,3.4,1.4,5.2,1.6c1.8,0.2,3.6-0.1,5.4-0.7c1.7-0.6,3.4-1.5,5-2.6
					c1.6-1.1,3.1-2.3,4.5-3.5l0,0c0.1-0.1,0.2-0.1,0.3,0c0,0,0,0.1,0.1,0.1c0.1,0.6,0.1,1.1,0,1.7c-0.1,0.6-0.3,1.2-0.7,1.6
					c-0.4,0.4-1,0.7-1.5,0.8c-0.6,0.1-1.1,0.2-1.7,0.2c-0.1,0-0.2-0.1-0.2-0.2c0-0.1,0.1-0.2,0.2-0.2c0,0,0,0,0,0
					c1.1,0,2.2-0.1,2.9-0.8c0.3-0.4,0.5-0.9,0.6-1.4c0.1-0.5,0-1.1-0.1-1.6l0.4,0.1c-1.4,1.3-2.8,2.7-4.3,3.9
					c-1.5,1.2-3.2,2.3-5,3.1c-1.8,0.8-3.9,1.2-5.9,1.2c-2.1,0-4.1-0.6-5.9-1.3c-0.6-0.2-0.8-0.8-0.6-1.4
					C843.9,391.3,844.5,391.1,845.2,391.3C845.1,391.3,845.1,391.3,845.2,391.3z"/>
			</g>
			<path class="st14" d="M851.4,373.7c0,1.5-2.6,1.3-3.7,1.3c-1,0-3.7,0.1-3.7-1.3c0-1.5,2.6-1.3,3.7-1.3S851.4,372.3,851.4,373.7z"
				/>
			<g>
				<path class="st2" d="M895.1,363.2c2,1.5,4,2.9,5.5,5c0.7,1,1.3,2.3,1.6,3.5c0.2,1.3,0.3,2.6,0,3.9c-0.2,1.3-0.7,2.6-1.7,3.6
					c-1,1-2.3,1.4-3.5,1.7c-2.5,0.5-4.9,0.2-7.4,0.4c2.4-0.6,4.9-0.7,7.2-1.3c1.1-0.3,2.2-0.8,2.9-1.6c0.7-0.8,1.2-1.8,1.4-3
					c0.4-2.3,0.1-4.7-1.2-6.7C898.5,366.7,896.8,365,895.1,363.2z"/>
			</g>
			<path class="st28" d="M893.1,371.4c-0.1,0.8-0.2,1.7-0.3,2.5c0.5-0.6,1.2-0.1,1.7,0.2"/>
			<path class="st30" d="M836.6,303.1"/>
			<path class="st31" d="M839.4,297.4"/>
			<g>
				<path class="st4" d="M839.4,297.4c-1,3.2-1.9,6.5-2.4,9.8c-0.3,1.7-0.4,3.3-0.4,5c0,1.7,0.4,3.3,1.1,4.8
					c0.7,1.5,1.9,2.7,3.2,3.6c1.4,0.9,2.9,1.6,4.5,2.1c3.2,1,6.5,1.5,9.8,1.8l-0.1,1.1c-3.4-0.4-6.7-1-10-2.1
					c-1.6-0.6-3.2-1.3-4.6-2.3c-1.4-1-2.6-2.4-3.3-3.9c-0.7-1.6-1-3.3-1-5c0-1.7,0.2-3.4,0.5-5C837.3,303.8,838.3,300.6,839.4,297.4
					z"/>
			</g>
		</g>
		<path class="st2" d="M892.3,358.9c-29.4-13.9-50.6-9.1-53.7-8.3c-0.1,0-0.2,0.2,0,0.3c1,0.7,1.7,3,1.9,4.2
			c0.1,0.3,0.3,0.5,0.6,0.4c4.3-0.9,34.5-6.9,51.1,5.7L892.3,358.9z"/>
	</g>
	<path class="st9" d="M865.4,720c11.8,37.2,31.2,95.1,31.2,95.1"/>
	<path class="st9" d="M868.5,707.7c11.1,37.1,32.7,104,32.7,104"/>
	<path class="st9" d="M873.3,692.4c4.7,18.3,34.7,116.7,34.7,116.7"/>
	<line class="st9" x1="876.9" y1="681.5" x2="911.4" y2="804.9"/>
	<path class="st9" d="M890.1,577.9c0,9.2-16.8,114.5-16.8,114.5"/>
	<path class="st9" d="M901.2,577.8c0.5,8.4-19.6,91.4-19.6,91.4"/>
	<path class="st9" d="M911.4,574.5c1.6,11.9-23.7,80.8-23.7,80.8"/>
	<path class="st9" d="M921,570.4c1.5,10-22.6,63.8-22.6,63.8"/>
	<path class="st9" d="M929.3,564.4c0,0-6,23.5-10.6,32.2"/>
	<path class="st9" d="M884.7,577.6c0,0-40.9,231.4-37.6,248.9"/>
	<path class="st9" d="M874.8,576.5c0,0-37.9,249.8-34.3,252.1"/>
	<path class="st9" d="M862.7,573.1c0,0-28.8,250.8-27.5,254.1"/>
	<path class="st9" d="M850.5,565.6c0,0-18.9,242.7-21.9,259"/>
	<g>
		<path class="st13" d="M58.6,439.9"/>
		<g>
			<path class="st4" d="M58.6,445.6c3,0,5.9-2.6,5.7-5.7c-0.1-3.1-2.5-5.7-5.7-5.7c-3,0-5.9,2.6-5.7,5.7
				C53,443,55.4,445.6,58.6,445.6L58.6,445.6z"/>
		</g>
	</g>
	<g>
		<path class="st13" d="M82.4,245.1"/>
		<g>
			<path class="st4" d="M82.4,248.9c2,0,3.9-1.8,3.8-3.8c-0.1-2.1-1.7-3.8-3.8-3.8c-2,0-3.9,1.8-3.8,3.8
				C78.7,247.2,80.2,248.9,82.4,248.9L82.4,248.9z"/>
		</g>
	</g>
	<g>
		<path class="st13" d="M610.6,557.7"/>
		<g>
			<path class="st4" d="M610.6,562.7c2.6,0,5.1-2.3,5-5c-0.1-2.7-2.2-5-5-5c-2.6,0-5.1,2.3-5,5C605.7,560.4,607.8,562.7,610.6,562.7
				L610.6,562.7z"/>
		</g>
	</g>
	<g>
		<g>
			<path class="st19" d="M88.6,722.1c4.7,0,9.1-4.1,8.9-8.9c-0.2-4.8-3.9-8.9-8.9-8.9c-4.7,0-9.1,4.1-8.9,8.9
				C79.8,718,83.6,722.1,88.6,722.1L88.6,722.1z"/>
		</g>
	</g>
	<g>
		<g>
			<path class="st19" d="M251.5,433.4c2.3,0,4.6-2.1,4.5-4.5c-0.1-2.4-2-4.5-4.5-4.5c-2.3,0-4.6,2.1-4.5,4.5
				C247.2,431.4,249,433.4,251.5,433.4L251.5,433.4z"/>
		</g>
	</g>
</g>
</svg>
