<svg xmlns="http://www.w3.org/2000/svg" xmlns:xlink="http://www.w3.org/1999/xlink" viewBox="0 0 152.62 147.81"><defs><style>.cls-1,.cls-4{fill:none;}.cls-2{clip-path:url(#clip-path);}.cls-3{fill:#e44653;}.cls-4{stroke:#043656;stroke-linecap:round;stroke-linejoin:round;stroke-width:0.24px;}.cls-13,.cls-5{font-size:11.58px;}.cls-10,.cls-13,.cls-16,.cls-5{fill:#fff;}.cls-10,.cls-13,.cls-5{font-family:DINCondensed-Bold, DIN Condensed;}.cls-10,.cls-13,.cls-20,.cls-5{font-weight:700;}.cls-5{letter-spacing:-0.01em;}.cls-6{letter-spacing:0.39em;}.cls-7{letter-spacing:-0.01em;}.cls-8{letter-spacing:-0.06em;}.cls-9{letter-spacing:0em;}.cls-10{font-size:20.64px;letter-spacing:-0.04em;}.cls-11{letter-spacing:0.29em;}.cls-12{letter-spacing:0em;}.cls-14{letter-spacing:-0.02em;}.cls-15{letter-spacing:-0.02em;}.cls-17{fill:#e4e4e4;}.cls-18{fill:#ffca48;}.cls-19{fill:#363e44;}.cls-20{font-size:22.06px;fill:#043656;font-family:Futura-Bold;}</style><clipPath id="clip-path" transform="translate(5.05 2.21)"><rect class="cls-1" width="144" height="144"/></clipPath></defs><g id="Capa_2" data-name="Capa 2"><g id="Capa_1-2" data-name="Capa 1"><g class="cls-2"><g class="cls-2"><rect class="cls-3" x="0.12" y="0.12" width="152.38" height="147.57"/><rect class="cls-4" x="0.12" y="0.12" width="152.38" height="147.57"/><text class="cls-5" transform="translate(56.65 110.76)">DISEN<tspan class="cls-6" x="20.89" y="0">O</tspan><tspan class="cls-7" x="30.35" y="0">QU</tspan><tspan class="cls-6" x="40" y="0">E</tspan><tspan class="cls-7" x="48.81" y="0">CONEC</tspan><tspan class="cls-8" x="72.07" y="0">T</tspan><tspan class="cls-9" x="75.17" y="0">A</tspan></text><text class="cls-10" transform="translate(67.34 127.46)">QU<tspan class="cls-11" x="15.97" y="0">E</tspan><tspan x="29.66" y="0">BRILL</tspan><tspan class="cls-12" x="62.7" y="0">A</tspan></text><text class="cls-13" transform="translate(65.54 128.02) rotate(-90)"><tspan class="cls-14">W</tspan><tspan class="cls-15" x="6.64" y="0">E</tspan><tspan x="10.7" y="0">B</tspan></text><rect class="cls-16" x="73.93" y="101.41" width="2.44" height="0.51"/><path class="cls-17" d="M21.35,67.59V61.42a6,6,0,0,1,5.81-6.16A6,6,0,0,1,33,61.43V67.6Z" transform="translate(5.05 2.21)"/><path class="cls-18" d="M42.17,80.7c0-8.81-6.71-16-15-16s-15,7.12-15,15.93,6.71,16,15,16S42.16,89.52,42.17,80.7Z" transform="translate(5.05 2.21)"/><path class="cls-19" d="M27.14,59.1h0a29.53,29.53,0,0,1,4,.25c1.59.25,1.8.56,1.8.82a.2.2,0,0,1-.2.21h0a.2.2,0,0,1-.2-.18c-.22-.27-2.22-.66-5.36-.67h-.06c-3.11,0-5.09.39-5.31.65a.21.21,0,0,1-.2.19h0a.21.21,0,0,1-.2-.21C21.4,59.14,26.44,59.1,27.14,59.1Z" transform="translate(5.05 2.21)"/><path class="cls-19" d="M27.11,61.81h.05c.59,0,5.77,0,5.77,1.06a.21.21,0,0,1-.2.22h0a.21.21,0,0,1-.2-.19c-.22-.28-2.23-.67-5.37-.67h-.05c-3.11,0-5.1.38-5.31.65a.21.21,0,0,1-.2.19h0a.21.21,0,0,1-.21-.21c0-.27.22-.58,1.81-.81A27.35,27.35,0,0,1,27.11,61.81Z" transform="translate(5.05 2.21)"/><path class="cls-16" d="M21.35,67.59V61.42a6,6,0,0,1,5.81-6.16A6,6,0,0,1,33,61.43V67.6Z" transform="translate(5.05 2.21)"/><path class="cls-18" d="M42.17,80.7c0-8.81-6.71-16-15-16s-15,7.12-15,15.93,6.71,16,15,16S42.16,89.52,42.17,80.7Z" transform="translate(5.05 2.21)"/><path class="cls-19" d="M27.14,59.1h0a29.53,29.53,0,0,1,4,.25c1.59.25,1.8.56,1.8.82a.2.2,0,0,1-.2.21h0a.2.2,0,0,1-.2-.18c-.22-.27-2.22-.66-5.36-.67h-.06c-3.11,0-5.09.39-5.31.65a.21.21,0,0,1-.2.19h0a.21.21,0,0,1-.2-.21C21.4,59.14,26.44,59.1,27.14,59.1Z" transform="translate(5.05 2.21)"/><path class="cls-19" d="M27.11,61.81h.05c.59,0,5.77,0,5.77,1.06a.21.21,0,0,1-.2.22h0a.21.21,0,0,1-.2-.19c-.22-.28-2.23-.67-5.37-.67h-.05c-3.11,0-5.1.38-5.31.65a.21.21,0,0,1-.2.19h0a.21.21,0,0,1-.21-.21c0-.27.22-.58,1.81-.81A27.35,27.35,0,0,1,27.11,61.81Z" transform="translate(5.05 2.21)"/><rect class="cls-16" x="31.6" y="2.42" width="1.22" height="55.18"/><text class="cls-20" transform="translate(24.36 92.12) scale(0.99 1)">2</text></g></g></g></g></svg>