<svg xmlns="http://www.w3.org/2000/svg" xmlns:xlink="http://www.w3.org/1999/xlink" viewBox="0 0 151.13 149.77"><defs><style>.cls-1{fill:none;}.cls-2{clip-path:url(#clip-path);}.cls-3,.cls-8{fill:#043656;}.cls-4{fill:#e4e4e4;}.cls-5{fill:#ffca48;}.cls-6{fill:#363e44;}.cls-14,.cls-17,.cls-21,.cls-7,.cls-9{fill:#fff;}.cls-8{font-size:22.06px;font-family:Futura-Bold;}.cls-14,.cls-17,.cls-21,.cls-8,.cls-9{font-weight:700;}.cls-9{font-size:13.13px;}.cls-14,.cls-17,.cls-21,.cls-9{font-family:DINCondensed-Bold, DIN Condensed;}.cls-10{letter-spacing:0.42em;}.cls-11{letter-spacing:0em;}.cls-12{letter-spacing:-0.05em;}.cls-13{letter-spacing:-0.04em;}.cls-14{font-size:17.69px;}.cls-15{letter-spacing:0.23em;}.cls-16{letter-spacing:0.23em;}.cls-17{font-size:12.35px;}.cls-18{letter-spacing:0.01em;}.cls-19{letter-spacing:0.46em;}.cls-20{letter-spacing:0.01em;}.cls-21{font-size:8.29px;}</style><clipPath id="clip-path" transform="translate(4.89 3)"><rect class="cls-1" width="144" height="144"/></clipPath></defs><g id="Capa_2" data-name="Capa 2"><g id="Capa_1-2" data-name="Capa 1"><g class="cls-2"><g class="cls-2"><rect class="cls-3" width="151.13" height="149.77"/><path class="cls-4" d="M21.26,65.87V59.71a6,6,0,0,1,5.82-6.16,6,6,0,0,1,5.79,6.17v6.17Z" transform="translate(4.89 3)"/><path class="cls-5" d="M42.07,79c0-8.82-6.71-16-15-16S12,70.13,12,78.94s6.71,16,15,16S42.06,87.8,42.07,79Z" transform="translate(4.89 3)"/><path class="cls-6" d="M27,57.39h0a27.86,27.86,0,0,1,4,.25c1.59.25,1.81.55,1.81.81a.21.21,0,0,1-.2.22h0a.21.21,0,0,1-.21-.18c-.21-.27-2.22-.66-5.36-.67H27c-3.11,0-5.1.39-5.31.65a.21.21,0,0,1-.21.18h0a.2.2,0,0,1-.2-.21C21.3,57.43,26.34,57.39,27,57.39Z" transform="translate(4.89 3)"/><path class="cls-6" d="M27,60.1h.05c.59,0,5.77,0,5.76,1.06a.2.2,0,0,1-.2.21h0a.21.21,0,0,1-.2-.19c-.22-.27-2.22-.66-5.36-.66H27c-3.11,0-5.09.38-5.31.65a.21.21,0,0,1-.2.19h0a.2.2,0,0,1-.2-.21c0-.27.21-.58,1.8-.82A29.23,29.23,0,0,1,27,60.1Z" transform="translate(4.89 3)"/><path class="cls-7" d="M21.26,65.87V59.71a6,6,0,0,1,5.82-6.16,6,6,0,0,1,5.79,6.17v6.17Z" transform="translate(4.89 3)"/><path class="cls-5" d="M42.07,79c0-8.82-6.71-16-15-16S12,70.13,12,78.94s6.71,16,15,16S42.06,87.8,42.07,79Z" transform="translate(4.89 3)"/><path class="cls-6" d="M27,57.39h0a27.86,27.86,0,0,1,4,.25c1.59.25,1.81.55,1.81.81a.21.21,0,0,1-.2.22h0a.21.21,0,0,1-.21-.18c-.21-.27-2.22-.66-5.36-.67H27c-3.11,0-5.1.39-5.31.65a.21.21,0,0,1-.21.18h0a.2.2,0,0,1-.2-.21C21.3,57.43,26.34,57.39,27,57.39Z" transform="translate(4.89 3)"/><path class="cls-6" d="M27,60.1h.05c.59,0,5.77,0,5.76,1.06a.2.2,0,0,1-.2.21h0a.21.21,0,0,1-.2-.19c-.22-.27-2.22-.66-5.36-.66H27c-3.11,0-5.09.38-5.31.65a.21.21,0,0,1-.2.19h0a.2.2,0,0,1-.2-.21c0-.27.21-.58,1.8-.82A29.23,29.23,0,0,1,27,60.1Z" transform="translate(4.89 3)"/><rect class="cls-7" x="31.34" y="1.49" width="1.22" height="55.18"/><text class="cls-8" transform="translate(24.1 91.2) scale(0.99 1)">1</text><text class="cls-9" transform="translate(55.72 114.47) scale(0.87 1)">IMAGE<tspan class="cls-10" x="25.78" y="0">N</tspan><tspan class="cls-11" x="37.17" y="0">CORPOR</tspan><tspan class="cls-12" x="70.24" y="0">A</tspan><tspan class="cls-11" x="74.87" y="0">TI</tspan><tspan class="cls-13" x="81.91" y="0">V</tspan><tspan x="86.77" y="0">A</tspan></text><text class="cls-14" transform="translate(55.55 128.34) scale(0.87 1)"><tspan class="cls-15">BRILLA</tspan><tspan class="cls-16" x="63.27" y="0">NT</tspan><tspan x="85.14" y="0">E</tspan></text><text class="cls-17" transform="translate(55.25 103.69) scale(0.87 1)"><tspan class="cls-18">COM</tspan><tspan class="cls-19" x="17.48" y="0">O</tspan><tspan class="cls-18" x="28.38" y="0">DE</tspan><tspan class="cls-20" x="38.43" y="0">S</tspan><tspan class="cls-18" x="43.57" y="0">ARROLLA</tspan><tspan x="79.3" y="0">R</tspan></text><text class="cls-21" transform="matrix(0, 0.87, -1, 0, 129.51, 94.53)">UNA</text></g></g></g></g></svg>