<?xml version="1.0" encoding="utf-8"?>
<!-- Generator: Adobe Illustrator 25.2.3, SVG Export Plug-In . SVG Version: 6.00 Build 0)  -->
<svg version="1.1" id="Capa_1" xmlns="http://www.w3.org/2000/svg" xmlns:xlink="http://www.w3.org/1999/xlink" x="0px" y="0px"
	 viewBox="0 0 161.5 154.5" style="enable-background:new 0 0 161.5 154.5;" xml:space="preserve">
<style type="text/css">
	.st0{clip-path:url(#SVGID_2_);}
	.st1{clip-path:url(#SVGID_4_);}
	.st2{fill:#043656;}
	.st3{fill:#E4E4E4;}
	.st4{fill:#FFCA48;}
	.st5{fill:#363E44;}
	.st6{fill:#FFFFFF;}
	.st7{font-family:'Futura-CondensedExtraBold';}
	.st8{font-size:23.6902px;}
	.st9{font-family:'DINCondensed-Bold';}
	.st10{font-size:11.3296px;}
	.st11{letter-spacing:1;}
	.st12{letter-spacing:4.8;}
	.st13{font-size:11.8691px;}
	.st14{letter-spacing:2.1;}
	.st15{font-size:11.19px;}
	.st16{font-size:19.1583px;}
	.st17{letter-spacing:2.9;}
	.st18{font-size:8.4945px;}
	.st19{letter-spacing:8.6;}
</style>
<g id="Capa_2_1_">
	<g id="Capa_1-2">
		<g>
			<defs>
				<rect id="SVGID_1_" y="-0.2" width="162" height="154.6"/>
			</defs>
			<clipPath id="SVGID_2_">
				<use xlink:href="#SVGID_1_"  style="overflow:visible;"/>
			</clipPath>
			<g class="st0">
				<g>
					<defs>
						<rect id="SVGID_3_" y="-0.2" width="162" height="154.6"/>
					</defs>
					<clipPath id="SVGID_4_">
						<use xlink:href="#SVGID_3_"  style="overflow:visible;"/>
					</clipPath>
					<g class="st1">
						<rect x="-13.1" y="-4.6" class="st2" width="181.7" height="165.9"/>
						<g>
							<path class="st3" d="M24.4,71.6v-6.6c-0.1-3.5,2.8-6.5,6.5-6.6c3.7,0.1,6.6,3.1,6.5,6.6v6.6L24.4,71.6z"/>
							<path class="st4" d="M47.8,85.6c0-9.5-7.5-17.2-16.9-17.2s-16.9,7.6-16.9,17.1s7.5,17.2,16.9,17.2S47.8,95.1,47.8,85.6z"/>
							<path class="st5" d="M30.9,62.4L30.9,62.4c1.5,0,3,0.1,4.5,0.3c1.8,0.3,2,0.6,2,0.9c0,0.1-0.1,0.2-0.2,0.2c0,0,0,0,0,0l0,0
								c-0.1,0-0.2-0.1-0.2-0.2c0,0,0,0,0,0c-0.2-0.3-2.5-0.7-6-0.7h-0.1c-3.5,0-5.7,0.4-6,0.7c0,0.1-0.1,0.2-0.2,0.2l0,0
								c-0.1,0-0.2-0.1-0.2-0.2C24.5,62.5,30.1,62.4,30.9,62.4z"/>
							<path class="st5" d="M30.9,65.3L30.9,65.3c0.7,0,6.5,0,6.5,1.1c0,0.1-0.1,0.2-0.2,0.2c0,0,0,0,0,0l0,0
								c-0.1,0-0.2-0.1-0.2-0.2c-0.2-0.3-2.5-0.7-6-0.7h-0.1c-3.5,0-5.7,0.4-6,0.7c0,0.1-0.1,0.2-0.2,0.2l0,0
								c-0.1,0-0.2-0.1-0.2-0.2c0,0,0,0,0,0c0-0.3,0.2-0.6,2-0.9C28,65.4,29.4,65.3,30.9,65.3z"/>
							<path class="st6" d="M24.4,71.6v-6.6c-0.1-3.5,2.8-6.5,6.5-6.6c3.7,0.1,6.6,3.1,6.5,6.6v6.6L24.4,71.6z"/>
							<path class="st4" d="M47.8,85.6c0-9.5-7.5-17.2-16.9-17.2s-16.9,7.6-16.9,17.1s7.5,17.2,16.9,17.2S47.8,95.1,47.8,85.6z"/>
							<path class="st5" d="M30.9,62.4L30.9,62.4c1.5,0,3,0.1,4.5,0.3c1.8,0.3,2,0.6,2,0.9c0,0.1-0.1,0.2-0.2,0.2c0,0,0,0,0,0l0,0
								c-0.1,0-0.2-0.1-0.2-0.2c0,0,0,0,0,0c-0.2-0.3-2.5-0.7-6-0.7h-0.1c-3.5,0-5.7,0.4-6,0.7c0,0.1-0.1,0.2-0.2,0.2l0,0
								c-0.1,0-0.2-0.1-0.2-0.2C24.5,62.5,30.1,62.4,30.9,62.4z"/>
							<path class="st5" d="M30.9,65.3L30.9,65.3c0.7,0,6.5,0,6.5,1.1c0,0.1-0.1,0.2-0.2,0.2c0,0,0,0,0,0l0,0
								c-0.1,0-0.2-0.1-0.2-0.2c-0.2-0.3-2.5-0.7-6-0.7h-0.1c-3.5,0-5.7,0.4-6,0.7c0,0.1-0.1,0.2-0.2,0.2l0,0
								c-0.1,0-0.2-0.1-0.2-0.2c0,0,0,0,0,0c0-0.3,0.2-0.6,2-0.9C28,65.4,29.4,65.3,30.9,65.3z"/>
							<rect x="30.3" y="-0.8" class="st6" width="1.4" height="59.3"/>
							<text transform="matrix(1.0371 0 0 1 22.1304 95.5352)" class="st2 st7 st8">3</text>
							<text transform="matrix(1.0476 0 0 1 62.7437 106.123)" class="st6 st9 st10 st11">DE</text>
							<text transform="matrix(1.0476 0 0 1 75.4907 106.123)" class="st6 st9 st10 st11">S</text>
							<text transform="matrix(1.0476 0 0 1 81.9712 106.123)" class="st6 st9 st10">T</text>
							<text transform="matrix(1.0476 0 0 1 86.9199 106.123)" class="st6 st9 st10 st11">AC</text>
							<text transform="matrix(1.0476 0 0 1 99.8809 106.123)" class="st6 st9 st10 st12">A</text>
							<text transform="matrix(1.0476 0 0 1 110.2422 106.123)" class="st6 st9 st10 st11">E</text>
							<text transform="matrix(1.0476 0 0 1 116.2842 106.123)" class="st6 st9 st10 st12">N</text>
							<text transform="matrix(1.0476 0 0 1 127.085 106.123)" class="st6 st9 st10 st11">LA</text>
							<text transform="matrix(1.0476 0 0 1 139.6055 106.123)" class="st6 st9 st10">S</text>
							<text transform="matrix(6.123233e-17 -0.9545 1 5.844907e-17 71.8794 137.1689)" class="st6 st9 st13 st14">Y</text>
							<text transform="matrix(6.123233e-17 -0.9545 1 5.844907e-17 71.8794 130.21)" class="st6 st9 st13">HA</text>
							<text transform="matrix(6.123233e-17 -0.9545 1 5.844907e-17 71.8794 120.3193)" class="st6 st9 st13">Z</text>
							<text transform="matrix(1.0476 0 0 1 62.812 115.4658)" class="st6 st9 st15 st11">REDE</text>
							<text transform="matrix(1.0476 0 0 1 87.9893 115.4658)" class="st6 st9 st15 st12">S</text>
							<text transform="matrix(1.0476 0 0 1 98.2158 115.4658)" class="st6 st9 st15 st11">S</text>
							<text transform="matrix(1.0476 0 0 1 104.6172 115.4658)" class="st6 st9 st15 st11">OCIALE</text>
							<text transform="matrix(1.0476 0 0 1 140 115.4658)" class="st6 st9 st15">S</text>
							<text transform="matrix(1.0476 0 0 1 73.5669 130.3711)" class="st6 st9 st16 st17">BRILLA</text>
							<text transform="matrix(1.0476 0 0 1 135.7129 130.3711)" class="st6 st9 st16">R</text>
							<text transform="matrix(1.0476 0 0 1 74.6138 137.1475)" class="st6 st9 st18 st17">T</text>
							<text transform="matrix(1.0476 0 0 1 81.4761 137.1475)" class="st6 st9 st18 st19">U</text>
							<text transform="matrix(1.0476 0 0 1 94.7402 137.1475)" class="st6 st9 st18 st17">EMPRES</text>
							<text transform="matrix(1.0476 0 0 1 140.7764 137.1475)" class="st6 st9 st18">A</text>
						</g>
					</g>
				</g>
			</g>
		</g>
	</g>
</g>
</svg>
