<?xml version="1.0" encoding="utf-8"?>
<!-- Generator: Adobe Illustrator 25.2.3, SVG Export Plug-In . SVG Version: 6.00 Build 0)  -->
<svg version="1.1" id="Capa_1" xmlns="http://www.w3.org/2000/svg" xmlns:xlink="http://www.w3.org/1999/xlink" x="0px" y="0px"
	 viewBox="0 0 151.1 149.8" style="enable-background:new 0 0 151.1 149.8;" xml:space="preserve">
<style type="text/css">
	.st0{clip-path:url(#SVGID_2_);}
	.st1{clip-path:url(#SVGID_4_);}
	.st2{fill:#043656;}
	.st3{fill:#E4E4E4;}
	.st4{fill:#FFCA48;}
	.st5{fill:#363E44;}
	.st6{fill:#FFFFFF;}
	.st7{font-family:'Futura-CondensedExtraBold';}
	.st8{font-size:22.9528px;}
	.st9{font-family:'DINCondensed-Bold';}
	.st10{font-size:13.6614px;}
	.st11{letter-spacing:5.7;}
	.st12{font-size:18.4059px;}
	.st13{letter-spacing:3.4;}
	.st14{font-size:12.8498px;}
	.st15{font-size:8.7048px;}
</style>
<g id="Capa_2_1_">
	<g id="Capa_1-2">
		<g>
			<defs>
				<rect id="SVGID_1_" width="151.2" height="149.8"/>
			</defs>
			<clipPath id="SVGID_2_">
				<use xlink:href="#SVGID_1_"  style="overflow:visible;"/>
			</clipPath>
			<g class="st0">
				<g>
					<defs>
						<rect id="SVGID_3_" width="151.2" height="149.8"/>
					</defs>
					<clipPath id="SVGID_4_">
						<use xlink:href="#SVGID_3_"  style="overflow:visible;"/>
					</clipPath>
					<g class="st1">
						<rect x="-5.1" y="-3.1" class="st2" width="158.7" height="155.8"/>
						<path class="st3" d="M22.3,68.5v-6.4c-0.1-3.4,2.6-6.3,6.1-6.4c3.5,0.1,6.2,3,6.1,6.4v6.4L22.3,68.5z"/>
						<path class="st4" d="M44.2,82.2c0-9.2-7-16.6-15.8-16.6S12.6,73,12.6,82.1s7,16.6,15.8,16.6S44.2,91.4,44.2,82.2z"/>
						<path class="st5" d="M28.4,59.7L28.4,59.7c1.4,0,2.8,0.1,4.2,0.3c1.7,0.3,1.9,0.6,1.9,0.8c0,0.1-0.1,0.2-0.2,0.2c0,0,0,0,0,0
							l0,0C34.1,61,34,61,34,60.9c-0.2-0.3-2.3-0.7-5.6-0.7h0c-3.3,0-5.4,0.4-5.6,0.7c0,0.1-0.1,0.2-0.2,0.2l0,0
							c-0.1,0-0.2-0.1-0.2-0.2c0,0,0,0,0,0C22.4,59.8,27.7,59.7,28.4,59.7z"/>
						<path class="st5" d="M28.4,62.5L28.4,62.5c0.7,0,6.1,0,6.1,1.1c0,0.1-0.1,0.2-0.2,0.2c0,0,0,0,0,0l0,0c-0.1,0-0.2-0.1-0.2-0.2
							c-0.2-0.3-2.3-0.7-5.6-0.7h-0.1c-3.3,0-5.3,0.4-5.6,0.7c0,0.1-0.1,0.2-0.2,0.2l0,0c-0.1,0-0.2-0.1-0.2-0.2c0,0,0,0,0,0
							c0-0.3,0.2-0.6,1.9-0.9C25.6,62.6,27,62.5,28.4,62.5z"/>
						<path class="st6" d="M22.3,68.5v-6.4c-0.1-3.4,2.6-6.3,6.1-6.4c3.5,0.1,6.2,3,6.1,6.4v6.4L22.3,68.5z"/>
						<path class="st4" d="M44.2,82.2c0-9.2-7-16.6-15.8-16.6S12.6,73,12.6,82.1s7,16.6,15.8,16.6S44.2,91.4,44.2,82.2z"/>
						<path class="st5" d="M28.4,59.7L28.4,59.7c1.4,0,2.8,0.1,4.2,0.3c1.7,0.3,1.9,0.6,1.9,0.8c0,0.1-0.1,0.2-0.2,0.2c0,0,0,0,0,0
							l0,0C34.1,61,34,61,34,60.9c-0.2-0.3-2.3-0.7-5.6-0.7h0c-3.3,0-5.4,0.4-5.6,0.7c0,0.1-0.1,0.2-0.2,0.2l0,0
							c-0.1,0-0.2-0.1-0.2-0.2c0,0,0,0,0,0C22.4,59.8,27.7,59.7,28.4,59.7z"/>
						<path class="st5" d="M28.4,62.5L28.4,62.5c0.7,0,6.1,0,6.1,1.1c0,0.1-0.1,0.2-0.2,0.2c0,0,0,0,0,0l0,0c-0.1,0-0.2-0.1-0.2-0.2
							c-0.2-0.3-2.3-0.7-5.6-0.7h-0.1c-3.3,0-5.3,0.4-5.6,0.7c0,0.1-0.1,0.2-0.2,0.2l0,0c-0.1,0-0.2-0.1-0.2-0.2c0,0,0,0,0,0
							c0-0.3,0.2-0.6,1.9-0.9C25.6,62.6,27,62.5,28.4,62.5z"/>
						<rect x="27.8" y="-1.6" class="st6" width="1.3" height="57.4"/>
						<text transform="matrix(0.9991 0 0 1 20.1719 91.7705)" class="st2 st7 st8">1</text>
						<text transform="matrix(0.878 0 0 1 53.374 115.9814)" class="st6 st9 st10">IMAGE</text>
						<text transform="matrix(0.878 0 0 1 76.9248 115.9814)" class="st6 st9 st10 st11">N</text>
						<text transform="matrix(0.878 0 0 1 87.3291 115.9814)" class="st6 st9 st10">CORPOR</text>
						<text transform="matrix(0.878 0 0 1 117.54 115.9814)" class="st6 st9 st10">A</text>
						<text transform="matrix(0.878 0 0 1 121.7695 115.9814)" class="st6 st9 st10">TI</text>
						<text transform="matrix(0.878 0 0 1 128.2012 115.9814)" class="st6 st9 st10">V</text>
						<text transform="matrix(0.878 0 0 1 132.6416 115.9814)" class="st6 st9 st10">A</text>
						<text transform="matrix(0.878 0 0 1 53.1953 130.4131)" class="st6 st9 st12 st13">BRILLA</text>
						<text transform="matrix(0.878 0 0 1 110.9941 130.4131)" class="st6 st9 st12 st13">NT</text>
						<text transform="matrix(0.878 0 0 1 130.9736 130.4131)" class="st6 st9 st12">E</text>
						<text transform="matrix(0.878 0 0 1 52.8809 104.7656)" class="st6 st9 st14">COM</text>
						<text transform="matrix(0.878 0 0 1 68.8486 104.7656)" class="st6 st9 st14 st11">O</text>
						<text transform="matrix(0.878 0 0 1 78.8066 104.7656)" class="st6 st9 st14">DE</text>
						<text transform="matrix(0.878 0 0 1 87.9883 104.7656)" class="st6 st9 st14">S</text>
						<text transform="matrix(0.878 0 0 1 92.6826 104.7656)" class="st6 st9 st14">ARROLLA</text>
						<text transform="matrix(0.878 0 0 1 125.3232 104.7656)" class="st6 st9 st14">R</text>
						<text transform="matrix(0 0.8621 -1 0 130.8564 95.2334)" class="st6 st9 st15">UNA</text>
					</g>
				</g>
			</g>
		</g>
	</g>
</g>
</svg>
