<svg xmlns="http://www.w3.org/2000/svg" xmlns:xlink="http://www.w3.org/1999/xlink" viewBox="0 0 161.53 154.46"><defs><style>.cls-1{fill:none;}.cls-2{clip-path:url(#clip-path);}.cls-3,.cls-8{fill:#043656;}.cls-4{fill:#e4e4e4;}.cls-5{fill:#ffca48;}.cls-6{fill:#363e44;}.cls-17,.cls-21,.cls-23,.cls-7,.cls-9{fill:#fff;}.cls-8{font-size:22.06px;font-family:Futura-Bold;}.cls-17,.cls-21,.cls-23,.cls-8,.cls-9{font-weight:700;}.cls-9{font-size:10.55px;}.cls-17,.cls-21,.cls-23,.cls-9{font-family:DINCondensed-Bold, DIN Condensed;}.cls-10{letter-spacing:0.14em;}.cls-11{letter-spacing:0.14em;}.cls-12{letter-spacing:0.08em;}.cls-13{letter-spacing:0.47em;}.cls-14{letter-spacing:0.47em;}.cls-15{letter-spacing:0.23em;}.cls-16{letter-spacing:0.02em;}.cls-17{font-size:10.42px;}.cls-18{letter-spacing:0.14em;}.cls-19{letter-spacing:0.47em;}.cls-20{letter-spacing:0.14em;}.cls-21{font-size:17.84px;}.cls-22{letter-spacing:0.15em;}.cls-23{font-size:7.91px;}.cls-24{letter-spacing:0.44em;}.cls-25{letter-spacing:1.06em;}</style><clipPath id="clip-path" transform="translate(11.67 4.1)"><rect class="cls-1" width="144" height="144"/></clipPath></defs><g id="Capa_2" data-name="Capa 2"><g id="Capa_1-2" data-name="Capa 1"><g class="cls-2"><g class="cls-2"><rect class="cls-3" width="161.53" height="154.46"/><path class="cls-4" d="M21.71,66.81V60.64a6,6,0,0,1,5.81-6.16,6,6,0,0,1,5.79,6.17v6.17Z" transform="translate(11.67 4.1)"/><path class="cls-5" d="M42.52,79.92c0-8.81-6.7-16-15-16s-15,7.12-15,15.93,6.71,16,15,16S42.51,88.74,42.52,79.92Z" transform="translate(11.67 4.1)"/><path class="cls-6" d="M27.5,58.32h0a29.58,29.58,0,0,1,4,.25c1.59.25,1.8.56,1.8.82a.2.2,0,0,1-.2.21h0a.19.19,0,0,1-.2-.18c-.22-.27-2.23-.66-5.37-.67h-.05c-3.11,0-5.09.39-5.31.65a.21.21,0,0,1-.2.19h0a.21.21,0,0,1-.21-.21C21.75,58.36,26.79,58.32,27.5,58.32Z" transform="translate(11.67 4.1)"/><path class="cls-6" d="M27.47,61h.05c.59,0,5.77,0,5.77,1.06a.21.21,0,0,1-.21.22h0a.22.22,0,0,1-.2-.19c-.22-.27-2.22-.66-5.36-.66h-.05c-3.11,0-5.1.37-5.32.65a.2.2,0,0,1-.2.18h0a.2.2,0,0,1-.2-.21c0-.27.22-.58,1.81-.81A27.25,27.25,0,0,1,27.47,61Z" transform="translate(11.67 4.1)"/><path class="cls-7" d="M21.71,66.81V60.64a6,6,0,0,1,5.81-6.16,6,6,0,0,1,5.79,6.17v6.17Z" transform="translate(11.67 4.1)"/><path class="cls-5" d="M42.52,79.92c0-8.81-6.7-16-15-16s-15,7.12-15,15.93,6.71,16,15,16S42.51,88.74,42.52,79.92Z" transform="translate(11.67 4.1)"/><path class="cls-6" d="M27.5,58.32h0a29.58,29.58,0,0,1,4,.25c1.59.25,1.8.56,1.8.82a.2.2,0,0,1-.2.21h0a.19.19,0,0,1-.2-.18c-.22-.27-2.23-.66-5.37-.67h-.05c-3.11,0-5.09.39-5.31.65a.21.21,0,0,1-.2.19h0a.21.21,0,0,1-.21-.21C21.75,58.36,26.79,58.32,27.5,58.32Z" transform="translate(11.67 4.1)"/><path class="cls-6" d="M27.47,61h.05c.59,0,5.77,0,5.77,1.06a.21.21,0,0,1-.21.22h0a.22.22,0,0,1-.2-.19c-.22-.27-2.22-.66-5.36-.66h-.05c-3.11,0-5.1.37-5.32.65a.2.2,0,0,1-.2.18h0a.2.2,0,0,1-.2-.21c0-.27.22-.58,1.81-.81A27.25,27.25,0,0,1,27.47,61Z" transform="translate(11.67 4.1)"/><rect class="cls-7" x="38.58" y="3.53" width="1.22" height="55.18"/><text class="cls-8" transform="translate(31.34 93.23) scale(0.99 1)">3</text><text class="cls-9" transform="translate(67.44 103.09)"><tspan class="cls-10">DE</tspan><tspan class="cls-11" x="11.33" y="0">S</tspan><tspan class="cls-12" x="17.09" y="0">T</tspan><tspan class="cls-10" x="21.49" y="0">AC</tspan><tspan class="cls-13" x="33.01" y="0">A</tspan><tspan class="cls-10" x="42.22" y="0">E</tspan><tspan class="cls-14" x="47.59" y="0">N</tspan><tspan class="cls-10" x="57.19" y="0">LA</tspan><tspan x="68.32" y="0">S</tspan></text><text class="cls-9" transform="translate(75.56 132) rotate(-90)"><tspan class="cls-15">Y</tspan><tspan class="cls-16" x="6.48" y="0">HA</tspan><tspan x="15.69" y="0">Z</tspan></text><text class="cls-17" transform="translate(67.5 111.79)"><tspan class="cls-18">REDE</tspan><tspan class="cls-19" x="22.38" y="0">S</tspan><tspan class="cls-20" x="31.47" y="0">S</tspan><tspan class="cls-18" x="37.16" y="0">OCIALE</tspan><tspan x="68.61" y="0">S</tspan></text><text class="cls-21" transform="translate(77.06 125.67)"><tspan class="cls-22">BRILLA</tspan><tspan x="55.24" y="0">R</tspan></text><text class="cls-23" transform="translate(77.99 131.98)"><tspan class="cls-24">T</tspan><tspan class="cls-25" x="6.1" y="0">U</tspan><tspan class="cls-24" x="17.89" y="0">EMPRES</tspan><tspan x="58.81" y="0">A</tspan></text></g></g></g></g></svg>