<?xml version="1.0" encoding="utf-8"?>
<!-- Generator: Adobe Illustrator 25.2.3, SVG Export Plug-In . SVG Version: 6.00 Build 0)  -->
<svg version="1.1" id="Capa_1" xmlns="http://www.w3.org/2000/svg" xmlns:xlink="http://www.w3.org/1999/xlink" x="0px" y="0px"
	 viewBox="0 0 556.8 375.5" style="enable-background:new 0 0 556.8 375.5;" xml:space="preserve">
<style type="text/css">
	.st0{fill:#FEA501;}
	.st1{fill:#FFFFFF;}
	.st2{clip-path:url(#SVGID_2_);}
	.st3{clip-path:url(#SVGID_4_);}
	.st4{enable-background:new    ;}
	.st5{fill:#253E8E;}
	.st6{fill:#D28E29;}
	.st7{fill:#FFD386;}
	.st8{fill:#F9B223;}
	.st9{fill:#7887B9;}
	.st10{fill:#FAB223;}
</style>
<g id="Capa_2_1_">
	<g id="Capa_1-2">
		<g>
			<rect class="st0" width="556.8" height="375.5"/>
		</g>
		<g>
			<rect x="40" y="33.3" class="st1" width="480.3" height="316.9"/>
		</g>
		<g>
			<defs>
				<rect id="SVGID_1_" x="263.8" y="131.8" width="28.4" height="28.4"/>
			</defs>
			<clipPath id="SVGID_2_">
				<use xlink:href="#SVGID_1_"  style="overflow:visible;"/>
			</clipPath>
			<g class="st2">
				
					<image style="overflow:visible;enable-background:new    ;" width="123" height="123" xlink:href="C0AB7110.png"  transform="matrix(0.23 0 0 0.23 263.76 131.82)">
				</image>
			</g>
		</g>
		<g>
			<defs>
				<rect id="SVGID_3_" x="222.8" y="90.8" width="81.6" height="93.3"/>
			</defs>
			<clipPath id="SVGID_4_">
				<use xlink:href="#SVGID_3_"  style="overflow:visible;"/>
			</clipPath>
			<g class="st3">
				
					<image style="overflow:visible;enable-background:new    ;" width="353" height="404" xlink:href="C0AB7111.png"  transform="matrix(0.23 0 0 0.23 222.8 90.81)">
				</image>
			</g>
		</g>
		<g class="st4">
			<path class="st5" d="M207,243.4V239h9.2c5.9,0,8.3-2.2,8.3-7v-13.7h4.4v13.7c0,7.8-3.9,11.4-12.6,11.4H207z"/>
			<path class="st5" d="M232.8,243.4v-25.1h22.4v4.4h-18.1V239h18.1v4.4H232.8z M240.3,232.5v-3.7h13.9v3.7H240.3z"/>
		</g>
		<g class="st4">
			<path class="st5" d="M259,243.4v-25.1h14.5c7.1,0,12.2,5,12.2,12.3s-5.1,12.8-12.2,12.8H259z M273.5,239c4.5,0,7.8-3.5,7.8-8.2
				s-3.3-8.1-7.8-8.1h-10.2V239H273.5z"/>
		</g>
		<g class="st4">
			<path class="st5" d="M312.2,243.4l-3.8-6.3h-11.9l2.1-3.6h7.7l-5.6-9.4l-11.4,19.3h-5l14.4-24c0.5-0.9,1.2-1.4,2.1-1.4
				c1,0,1.6,0.6,2.1,1.4l14.5,24H312.2z"/>
			<path class="st5" d="M324.3,225v18.4h-4.2v-22.8c0-1.6,0.9-2.6,2.2-2.6c0.7,0,1.2,0.2,1.9,0.9l17.7,17.6v-18.4h4.2v23
				c0,1.7-0.9,2.6-2.2,2.6c-0.7,0-1.4-0.3-2-0.9L324.3,225z"/>
		</g>
		<g class="st4">
			<path class="st6" d="M208.7,257.1h-1.1v-10.2h1.1V257.1z"/>
			<path class="st6" d="M220.4,257.1h-1l-7.2-8.4v8.4h-1.1v-10.2h1l7.2,8.4v-8.4h1.1V257.1z"/>
			<path class="st6" d="M226.2,257.2h-0.3l-4.3-10.3h1.1l3.3,7.9l3.3-7.9h1.1L226.2,257.2z"/>
			<path class="st6" d="M237.3,247.9h-4.5v3.6h4.4v1h-4.4v3.7h4.7v1h-5.8v-10.2h5.6V247.9z"/>
			<path class="st6" d="M243.8,248.7c-0.5-0.3-1.3-0.9-2.3-0.9c-1.6,0-1.9,1.2-1.9,1.6c0,1,1,1.6,1.9,2c2,1,2.7,1.6,2.7,3.1
				c0,1.9-1.6,2.8-3,2.8c-1,0-1.9-0.4-2.7-0.9V255c0.5,0.5,1.5,1.3,2.6,1.3c1.4,0,1.9-1.1,1.9-1.7c0-0.6-0.2-1.3-2.3-2.3
				c-1.7-0.8-2.3-1.7-2.3-2.8c0-1.6,1.3-2.7,3-2.7c1.1,0,1.9,0.4,2.3,0.7V248.7z"/>
			<path class="st6" d="M253.3,247.9h-3.7v9.2h-1.1v-9.2h-3.7v-1h8.4V247.9z"/>
			<path class="st6" d="M264.1,257.1H263v-8.5l-3.5,4.4h-0.1l-3.5-4.4v8.5h-1.1v-10.2h1.1l3.6,4.5l3.6-4.5h1.1V257.1z"/>
			<path class="st6" d="M272.1,247.9h-4.5v3.6h4.4v1h-4.4v3.7h4.7v1h-5.8v-10.2h5.6V247.9z"/>
			<path class="st6" d="M283.2,257.1h-1l-7.2-8.4v8.4h-1.1v-10.2h1l7.2,8.4v-8.4h1.1V257.1z"/>
		</g>
		<g class="st4">
			<path class="st6" d="M293,247.9h-3.7v9.2h-1.1v-9.2h-3.7v-1h8.4V247.9z"/>
		</g>
		<g class="st4">
			<path class="st6" d="M307,248.8c-1.6-1-3.2-1.1-3.6-1.1c-2.4,0-4.2,1.9-4.2,4.2c0,2.8,2.2,4.3,4.2,4.3c1.3,0,2.3-0.4,2.7-0.6
				v-2.4H304v-1h3.2v4.1c-1.2,0.5-2.4,0.9-3.7,0.9c-3.4,0-5.5-2.5-5.5-5.2c0-2.9,2.2-5.3,5.5-5.3c1.5,0,2.5,0.5,3.5,0.9V248.8z"/>
		</g>
		<g class="st4">
			<path class="st6" d="M311.9,246.9c2.6,0,3.3,1.5,3.3,2.7c0,1.4-0.8,2.1-1.8,2.5c0.7,0.5,1.2,1.3,2.5,3.3c0.4,0.7,0.7,1,1.2,1.7
				h-1.3l-1-1.5c-0.4-0.6-0.8-1.3-1.3-1.9c-0.7-0.8-1.2-1.2-2.3-1.2h-0.7v4.7h-1.1v-10.2H311.9z M310.4,247.9v3.6h1.3
				c1.4,0,2.3-0.6,2.3-1.8c0-1.1-0.8-1.8-2.3-1.8H310.4z"/>
		</g>
		<g class="st4">
			<path class="st6" d="M316.7,252c0-2.7,2-5.3,5.4-5.3c3.3,0,5.4,2.5,5.4,5.3c0,3.1-2.4,5.3-5.5,5.3
				C319.1,257.3,316.7,255,316.7,252z M326.3,252c0-2-1.5-4.2-4.2-4.2c-2.6,0-4.2,2-4.2,4.2c0,2.5,2,4.2,4.1,4.2
				C324.4,256.2,326.3,254.4,326.3,252z"/>
			<path class="st6" d="M337.7,252.4c0,1.4-0.1,2.1-0.6,2.9c-0.4,0.8-1.6,2-3.7,2c-0.7,0-2.6-0.2-3.6-1.8c-0.5-0.8-0.7-1.6-0.7-3.1
				v-5.5h1.1v5.6c0,1.5,0.2,2.2,0.8,2.9c0.6,0.6,1.5,0.9,2.4,0.9c1.6,0,2.5-0.9,2.8-1.7c0.3-0.7,0.3-1.9,0.3-2.1v-5.6h1.1V252.4z"/>
			<path class="st6" d="M342.7,246.9c2.5,0,3.3,1.4,3.3,2.8s-0.8,2.8-3.3,2.8h-1.8v4.6h-1.1v-10.2H342.7z M340.9,247.9v3.6h1.7
				c2,0,2.3-1.1,2.3-1.8c0-0.7-0.2-1.8-2.3-1.8H340.9z"/>
		</g>
		<g class="st4">
			<path class="st5" d="M304.4,85.1l-0.1,16.3l-34.2-0.1c-21.9-0.1-30.8,8-30.8,26.1l-0.2,50.9l-16.3-0.1l0.2-50.9
				c0.1-28.9,14.7-42.5,47.2-42.4L304.4,85.1z"/>
		</g>
		<g class="st4">
			<path class="st7" d="M244.4,201.7l0.1-16.3l34.2,0.1c21.9,0.1,30.8-8,30.8-26.1l0.2-50.9l16.3,0.1l-0.2,50.9
				c-0.1,28.9-14.7,42.5-47.2,42.4L244.4,201.7z"/>
		</g>
		<g class="st4">
			<path class="st8" d="M250.2,201.7l0.1-16.3l34.2,0.1c21.9,0.1,30.8-8,30.8-26.1l0.2-50.9l16.3,0.1l-0.2,50.9
				c-0.1,28.9-14.7,42.5-47.2,42.4L250.2,201.7z"/>
		</g>
		<g>
			<rect x="77.3" y="293.1" class="st5" width="101.2" height="19.7"/>
		</g>
		<g>
			<rect x="178.4" y="293.1" class="st9" width="101.2" height="19.7"/>
		</g>
		<g>
			<rect x="279.9" y="293.1" class="st10" width="101.2" height="19.7"/>
		</g>
		<g>
			<rect x="381.1" y="293.2" class="st7" width="101.2" height="19.7"/>
		</g>
	</g>
</g>
</svg>
