<svg xmlns="http://www.w3.org/2000/svg" viewBox="0 0 865.83 359.24"><defs><style>.cls-1,.cls-2{isolation:isolate;}.cls-2{mix-blend-mode:screen;}.cls-3{fill:#fff;}.cls-4{fill:#b1b1b2;}</style></defs><g class="cls-1"><g id="Capa_2" data-name="Capa 2"><g id="Capa_1-2" data-name="Capa 1"><g class="cls-2"><path class="cls-3" d="M201.61,179.34c0,23.29-18.33,42.18-40.94,42.18s-40.93-18.89-40.93-42.18,18.32-42.18,40.93-42.18,40.94,18.88,40.94,42.18"/><path class="cls-4" d="M235.62,14.55l-.18,48.57-98.74-.39c-63.1-.25-88.8,23.74-89,77.67l-.56,151.45L0,291.66.56,140.21C.88,54.16,43,13.79,136.88,14.16Z"/><path class="cls-3" d="M235.67.39,235.49,49l-98.74-.39c-63.1-.24-88.8,23.75-89,77.67l-.56,151.45L.05,277.51.61,126.06C.93,40,43-.37,136.93,0Z"/><path class="cls-4" d="M62.47,343.93l.18-48.57,98.73.39c63.1.25,88.8-23.75,89-77.67l.56-151.45,47.14.19-.56,151.44c-.31,86.05-42.41,126.43-136.32,126.06Z"/><path class="cls-3" d="M62.41,358.85l.18-48.57,98.74.39c63.1.24,88.8-23.75,89-77.67l.56-151.45,47.14.18-.56,151.45c-.32,86.05-42.41,126.43-136.32,126.06Z"/></g><path class="cls-3" d="M351.12,225.26V208.54h34c21.73,0,30.54-8.3,30.54-26.86V129.53h16.23v52.15c0,29.62-14.44,43.58-46.77,43.58Z"/><path class="cls-3" d="M446.58,225.26V129.53h82.94v16.73H462.68v62.28h67v16.72Zm28-41.61V169.56h51.5v14.09Z"/><path class="cls-3" d="M543.58,225.26V129.53h53.8c26.2,0,45.24,19.1,45.24,46.88s-19,48.85-45.24,48.85Zm53.8-16.72c16.74,0,29-13.3,29-31.34s-12.27-30.94-29-30.94h-37.7v62.28Z"/><path class="cls-3" d="M740.13,225.26l-13.93-24.1h-44l7.67-13.56h28.5l-20.7-35.81-42.17,73.47H637l53.41-91.64c1.92-3.3,4.35-5.4,7.93-5.4s5.88,2.1,7.79,5.4l53.55,91.64Z"/><path class="cls-3" d="M784.73,155.21v70H769.27v-86.9c0-6.19,3.19-10,8.3-10,2.43,0,4.47.92,6.9,3.42l65.56,67v-70h15.46v87.7c0,6.32-3.32,10-8,10-2.68,0-5.11-1.18-7.41-3.55Z"/><path class="cls-3" d="M357.48,290.26h-4.12v-39h4.12Z"/><path class="cls-3" d="M400.77,290.26h-3.52l-26.79-32.15v32.15h-4v-39H370l26.79,32.15V251.25h4Z"/><path class="cls-3" d="M422.34,290.66h-1l-16-39.41h4.18l12.32,30.2L434,251.25h4.12Z"/><path class="cls-3" d="M463.54,255H446.76V268.7h16.29v3.77H446.76v14H464v3.77H442.64v-39h20.9Z"/><path class="cls-3" d="M487.47,258.17c-1.7-1.32-4.73-3.55-8.53-3.55-5.94,0-7,4.58-7,6,0,3.95,3.79,5.95,7.09,7.66,7.32,3.78,10,6,10,11.79,0,7.38-6.05,10.7-10.95,10.7a17,17,0,0,1-9.84-3.55V282c2,2.06,5.55,4.92,9.73,4.92a6.6,6.6,0,0,0,7-6.52c0-2.46-.71-4.81-8.42-8.59-6.32-3.08-8.63-6.35-8.63-10.69,0-6.12,4.84-10.36,11.11-10.36a15.44,15.44,0,0,1,8.47,2.58Z"/><path class="cls-3" d="M522.79,255H509.26v35.24h-4.13V255H491.6v-3.77h31.19Z"/><path class="cls-3" d="M562.56,290.26h-4.13V257.77l-12.92,16.65h-.44l-13-16.65v32.49H528v-39h4l13.37,17.1,13.31-17.1h4Z"/><path class="cls-3" d="M592.27,255H575.49V268.7h16.28v3.77H575.49v14h17.22v3.77H571.36v-39h20.91Z"/><path class="cls-3" d="M633.14,290.26h-3.52l-26.79-32.15v32.15h-4v-39h3.52l26.79,32.15V251.25h4Z"/><path class="cls-3" d="M669.44,255H655.91v35.24h-4.12V255H638.26v-3.77h31.18Z"/><path class="cls-3" d="M721.32,258.63a25.05,25.05,0,0,0-13.31-4c-9,0-15.51,7.15-15.51,16.13,0,10.65,8,16.25,15.45,16.25a27,27,0,0,0,10-2.17v-9.27h-7.59v-3.78h11.72v15.74a32.21,32.21,0,0,1-13.75,3.26c-12.71,0-20.25-9.5-20.25-20,0-11,8-20.08,20.19-20.08,5.39,0,9.41,1.72,13,3.32Z"/><path class="cls-3" d="M739.42,251.25c9.74,0,12.38,5.78,12.38,10.47,0,5.32-3.14,8.18-6.71,9.55,2.69,1.83,4.56,4.86,9.18,12.41,1.6,2.63,2.42,3.84,4.29,6.58h-4.95L750,284.37c-1.49-2.46-3.14-4.92-4.84-7.21-2.43-3.2-4.51-4.75-8.53-4.75H734v17.85h-4.12v-39ZM734,255v13.62h4.84c5.34,0,8.59-2.4,8.59-6.87,0-4.06-2.86-6.75-8.59-6.75Z"/><path class="cls-3" d="M757.24,270.75c0-10.29,7.43-20,20-20,12.21,0,20.08,9.38,20.08,20,0,11.67-9,20-20.3,20A19.61,19.61,0,0,1,757.24,270.75Zm35.7-.11c0-7.72-5.72-15.85-15.67-15.85-9.63,0-15.62,7.61-15.62,16a15.65,15.65,0,1,0,31.29-.17Z"/><path class="cls-3" d="M835,272.19c0,5.43-.5,8.18-2.09,11s-5.78,7.55-13.75,7.55c-2.54,0-9.52-.58-13.43-6.81-2-3.15-2.53-6-2.53-11.78V251.25h4.13v21.16c0,5.78.82,8.47,3,10.87a11.8,11.8,0,0,0,8.81,3.61,11.11,11.11,0,0,0,10.5-6.3c1.21-2.57,1.21-7.2,1.21-8.18V251.25H835Z"/><path class="cls-3" d="M853.46,251.25c9.4,0,12.37,5.38,12.37,10.7s-3,10.69-12.37,10.69h-6.6v17.62h-4.13v-39Zm-6.6,3.77v13.85H853c7.53,0,8.41-4.12,8.41-6.92S860.55,255,853,255Z"/></g></g></g></svg>