<svg xmlns="http://www.w3.org/2000/svg" viewBox="0 0 472.84 88.4"><defs><style>.cls-1{fill:#e44653;}.cls-2{fill:#043656;}.cls-3{fill:none;stroke:#3e3e48;stroke-linecap:round;stroke-miterlimit:10;stroke-width:5.5px;}</style></defs><g id="Capa_2" data-name="Capa 2"><g id="Capa_1-2" data-name="Capa 1"><path class="cls-1" d="M.72,0A.71.71,0,0,0,0,.71V81.54a2.2,2.2,0,0,0,.66,1.61,2.33,2.33,0,0,0,3.49-.27L23.6,56.48l9.82-13.33L61.07,4A2.49,2.49,0,0,0,60.78.73,2.53,2.53,0,0,0,59,0Z"/><path class="cls-2" d="M46.83,43.43l27.75,38a2.52,2.52,0,0,1-2.06,4H16.64a2.52,2.52,0,0,1-2.06-4l28.12-38a2.57,2.57,0,0,1,4.13,0"/><path class="cls-3" d="M117.16,4.36V83.5a.41.41,0,0,0,.74.24l29.62-40.19L175.17,4.36"/><line class="cls-3" x1="177.75" y1="84.75" x2="148.02" y2="44.03"/><path class="cls-3" d="M211,85.65V4.36h30.71s24.45-1.21,27.69,19.56c0,0,3.25,22.66-26,23.23H212.31"/><line class="cls-3" x1="244.93" y1="47.4" x2="275.05" y2="85.65"/><line class="cls-3" x1="307.75" y1="4.29" x2="366.77" y2="4.29"/><line class="cls-3" x1="307.78" y1="44.57" x2="366.8" y2="44.57"/><line class="cls-3" x1="307.78" y1="84.91" x2="366.8" y2="84.91"/><path class="cls-3" d="M400.39,85.65,435,4.83a.43.43,0,0,1,.79,0l34.33,80.82"/></g></g></svg>