<svg xmlns="http://www.w3.org/2000/svg" viewBox="0 0 178.01 202.62"><defs><style>.cls-1{fill:#e54754;}.cls-2{fill:#0d3755;}</style></defs><g id="Capa_2" data-name="Capa 2"><g id="Strokes"><path class="cls-1" d="M1.71,0A1.7,1.7,0,0,0,0,1.69V193.35a5.23,5.23,0,0,0,1.57,3.81,5.49,5.49,0,0,0,8.27-.64L56,133.93l23.3-31.62Q112,55.86,144.81,9.39A6,6,0,0,0,139.86,0Z"/><path class="cls-2" d="M111,103l65.81,90.16a6,6,0,0,1-4.9,9.47H39.45a6,6,0,0,1-4.88-9.5L101.26,103a6.08,6.08,0,0,1,9.78,0"/></g></g></svg>