<svg xmlns="http://www.w3.org/2000/svg" viewBox="0 0 960.87 1012.4"><defs><style>.cls-1,.cls-31,.cls-33{fill:#110d0d;}.cls-10,.cls-11,.cls-12,.cls-13,.cls-14,.cls-15,.cls-16,.cls-17,.cls-18,.cls-19,.cls-2,.cls-20,.cls-21,.cls-22,.cls-23,.cls-25,.cls-26,.cls-27,.cls-28,.cls-29,.cls-3,.cls-30,.cls-32,.cls-4,.cls-5,.cls-6,.cls-7,.cls-8,.cls-9{fill:none;}.cls-10,.cls-11,.cls-12,.cls-13,.cls-14,.cls-15,.cls-16,.cls-17,.cls-18,.cls-19,.cls-2,.cls-20,.cls-21,.cls-22,.cls-23,.cls-24,.cls-25,.cls-26,.cls-27,.cls-28,.cls-29,.cls-3,.cls-30,.cls-4,.cls-5,.cls-6,.cls-7,.cls-8,.cls-9{stroke:#110d0d;stroke-miterlimit:10;}.cls-2,.cls-24,.cls-26{stroke-width:2px;}.cls-3{stroke-width:0.75px;}.cls-19,.cls-3{stroke-dasharray:2;}.cls-15,.cls-4,.cls-5,.cls-6,.cls-7{stroke-width:0.25px;}.cls-5{stroke-dasharray:1.05 1.05;}.cls-6{stroke-dasharray:0.99 0.99;}.cls-7{stroke-dasharray:1 1;}.cls-10,.cls-11,.cls-18,.cls-8,.cls-9{stroke-width:0.24px;}.cls-9{stroke-dasharray:0.92 0.92;}.cls-10{stroke-dasharray:0.99 0.99;}.cls-11{stroke-dasharray:0.89 0.89;}.cls-12,.cls-13,.cls-17,.cls-19{stroke-width:0.5px;}.cls-13{stroke-dasharray:2.01 2.01;}.cls-14{stroke-width:0.6px;}.cls-15{stroke-dasharray:0.88;}.cls-17{stroke-dasharray:1;}.cls-18{stroke-dasharray:0.94;}.cls-20{stroke-width:0.35px;}.cls-21{stroke-width:0.24px;}.cls-22,.cls-32{stroke-width:3px;}.cls-23{stroke-width:3.15px;}.cls-24{fill:#f2f2f2;}.cls-25{stroke-width:2.76px;}.cls-26{font-size:23.45px;}.cls-26,.cls-31,.cls-32{font-family:ShowcardGothic-Reg, Showcard Gothic;}.cls-27{stroke-width:4.16px;}.cls-28{stroke-width:2.85px;}.cls-29{stroke-width:2.49px;}.cls-30{stroke-width:3.72px;}.cls-31{font-size:18.8px;letter-spacing:0.2em;}.cls-32{font-size:115.82px;stroke:#000;letter-spacing:0.2em;}.cls-33{opacity:0.3;}.cls-34{opacity:0.5;}</style></defs><g id="Capa_2" data-name="Capa 2"><g id="Capa_1-2" data-name="Capa 1"><path class="cls-1" d="M620.13,567c7.8,8.73,15.37,17.64,22.84,26.61l5.61,6.74,5.54,6.78c3.69,4.53,7.4,9,11,13.61l10.91,13.7,10.78,13.8c7.22,9.17,14.22,18.51,21.1,27.94,13.75,18.88,26.79,38.29,40.78,57s28.52,37,43.39,55c7.4,9,14.89,18,22.21,27.1s14.57,18.24,21.8,27.41l21.66,27.52q10.83,13.76,21.38,27.73T900.09,926l10.37,14.11,10.28,14.18c13.63,19,27.15,38,40.13,57.48l-.71.54c-15.42-17.59-30.29-35.61-45-53.71l-11-13.61-10.92-13.69q-10.93-13.66-21.65-27.52T850.3,875.88l-20.94-28.07c-7-9.37-13.93-18.73-20.78-28.19s-13.59-19-20.39-28.49c-13.52-19-27.36-37.85-41.79-56.21s-29.76-36-44.41-54.19q-11-13.65-21.49-27.65l-10.52-14L659.6,625c-3.48-4.69-6.87-9.45-10.28-14.18l-5.11-7.12-5-7.16c-6.72-9.56-13.35-19.18-19.75-29Z"/><path class="cls-1" d="M0,1011.6l20.79-28.33L41.67,955l41.75-56.55L125.31,842l42-56.31,20.92-28.24,20.84-28.3Q230,700.89,251.8,673.33l22-27.42c7.43-9.07,14.75-18.21,22.29-27.19,15-18,30.13-35.94,45.85-53.4l1,.79c-12.77,19.73-26.1,39-39.63,58.17-6.71,9.62-13.63,19.07-20.45,28.6l-20.76,28.36Q241.2,709.47,219.33,737l-21.91,27.48L175.61,792l-43.44,55.25L88.58,902.41l-43.73,55L23,984.94,1,1012.4Z"/><path class="cls-2" d="M464.79,638h34.45a16.28,16.28,0,0,1,16.28,16.28v45.45A16.28,16.28,0,0,1,499.24,716H454.39a5.87,5.87,0,0,1-5.87-5.87V654.28A16.28,16.28,0,0,1,464.79,638Z"/><path class="cls-2" d="M449,650.46c-4.46,6.17-22.7,40.8-29.17,53.16a4.56,4.56,0,0,0,2.43,6.37,68.82,68.82,0,0,0,14.33,3.68,4.38,4.38,0,0,0,4.41-2.22c2.55-4.5,7.55-13.59,7.55-15.67"/><path class="cls-2" d="M448.52,690.42c3,4.58,60,6.49,67-1.46,0,0,18,21,24,21s8-18,8-21-1-4-10-10-22-22.72-22-22.72"/><path class="cls-2" d="M449,713.71c-4.45,6.29-9.45,9.29-3.45,9.29a149.79,149.79,0,0,0,22-2c5-1,6.22,0,9.61,2s3.39-4.64,3.39-4.64-3,4.39,1.5,5,2.5-2.38,7.5-2.38,21-4.69,26-.34-1.65-13.82-1.65-13.82"/><path class="cls-3" d="M480.52,718.36c0,16.35-1.5,20.14-1.5,20.14"/><path class="cls-1" d="M448.8,723c-.75,6.8-1.57,13.57-2.24,20.34a129.29,129.29,0,0,0-.76,20.19c.07.83.18,1.64.26,2.46s.25,1.61.48,2.35l.31,1.14c.13.38.28.77.41,1.16.26.78.6,1.56.9,2.33,1.29,3.11,2.69,6.2,4.13,9.28,2.86,6.17,5.77,12.34,8.59,18.57l-.56-.16h0a31.8,31.8,0,0,1,9.08-3.35,11.46,11.46,0,0,1,2.49-.12,5.38,5.38,0,0,1,1.25.28l.6.23a2.84,2.84,0,0,0,.49.17,2.22,2.22,0,0,0,1.91-.53,6.92,6.92,0,0,0,1.46-1.71,8.81,8.81,0,0,0,1.3-4.36,10.15,10.15,0,0,0-.91-4.51c-1.16-3-2.25-6-3.19-9.06-.47-1.54-.9-3.08-1.25-4.66a15.45,15.45,0,0,1-.39-4.85,60,60,0,0,1,1.9-9.44c.8-3.09,1.65-6.17,2.31-9.28a33,33,0,0,0,.88-9.42l.53-.06a33.25,33.25,0,0,1-.85,9.6c-.65,3.14-1.5,6.22-2.28,9.32a59.23,59.23,0,0,0-1.85,9.33,14.66,14.66,0,0,0,.4,4.66c.34,1.55.78,3.08,1.25,4.6.94,3,2,6,3.21,9a10.17,10.17,0,0,1-.42,9.52,7.81,7.81,0,0,1-1.63,1.92,3,3,0,0,1-2.55.68,3.55,3.55,0,0,1-.65-.22c-.19-.09-.34-.13-.52-.2a4.74,4.74,0,0,0-1.07-.23,9.78,9.78,0,0,0-2.29.12,30.67,30.67,0,0,0-8.81,3.29h0l-.33.21-.24-.37q-5.5-8.69-10.21-17.82c-1.55-3.06-3.07-6.14-4.4-9.34-.32-.81-.67-1.6-1-2.44-.14-.41-.31-.82-.44-1.25l-.36-1.33c-.25-.89-.33-1.78-.5-2.67s-.2-1.76-.26-2.64a72.16,72.16,0,0,1,.2-10.41c.27-3.44.71-6.85,1.19-10.24,1-6.79,2.35-13.5,3.83-20.17Z"/><line class="cls-2" x1="473.52" y1="805" x2="473.52" y2="798"/><path class="cls-1" d="M512.29,718.94a31.34,31.34,0,0,1-.27,5.6c-.2,1.83-.53,3.62-.86,5.41-.69,3.58-1.52,7.11-2.4,10.62-1.78,7-3.8,14-5.89,20.9-4.22,13.84-8.8,27.55-13.55,41.2l-.13.39-.4,0c-1.9-.1-3.79-.22-5.69-.35l-2.85-.24-1.43-.16-.73-.11a3.25,3.25,0,0,1-.38-.08l-.21-.06-.16-.07-.13-.1a.47.47,0,0,1-.09-.1.64.64,0,0,1-.07-.27l0,.18L475.6,798l.83-.34,1.52,3.62,0,.18a.35.35,0,0,0-.06-.22l-.06-.08-.05,0h0l.12,0,.32.06.68.1,1.4.13,2.83.2c1.88.12,3.78.21,5.67.28l-.53.37c4.58-13.7,9-27.46,13-41.31,2-6.93,3.94-13.88,5.62-20.89.84-3.5,1.62-7,2.26-10.54.3-1.76.61-3.53.81-5.29a28.73,28.73,0,0,0,.25-5.21Z"/><path class="cls-1" d="M493.3,720.81a102.6,102.6,0,0,0-1.65,11.12s6.35,2.41,11.93,0a41.94,41.94,0,0,0,0-12.31"/><path class="cls-1" d="M459.3,722.81a102.6,102.6,0,0,0-1.65,11.12s6.35,2.41,11.93,0a41.94,41.94,0,0,0,0-12.31"/><path class="cls-4" d="M457.94,722.17c0,.16-.08.32-.11.49"/><path class="cls-5" d="M457.61,723.68c-.89,4.4-1.49,9.73-1.71,11.91"/><path class="cls-4" d="M455.85,736.11c0,.32-.05.5-.05.5l.47.16"/><path class="cls-6" d="M457.21,737.05c2.51.69,8,1.77,13.15-.08"/><path class="cls-4" d="M470.83,736.8l.47-.19s0-.18.07-.49"/><path class="cls-7" d="M471.49,735.13a53.64,53.64,0,0,0,0-13.52"/><path class="cls-4" d="M471.38,721.11c0-.16-.05-.33-.08-.49"/><path class="cls-8" d="M491.94,721l-.12.46"/><path class="cls-9" d="M491.61,722.34c-.89,3.87-1.48,8.55-1.71,10.5"/><path class="cls-8" d="M489.85,733.3c0,.3-.05.47-.05.47l.44.13"/><path class="cls-10" d="M491.19,734.15c2.51.62,8,1.58,13.19-.06"/><path class="cls-8" d="M504.85,733.93l.45-.16s0-.17.07-.46"/><path class="cls-11" d="M505.5,732.43a42.82,42.82,0,0,0,0-11.91"/><path class="cls-8" d="M505.39,720.08l-.09-.46"/><path class="cls-12" d="M452.74,726.31l-.17,1"/><path class="cls-13" d="M452.24,729.27c-1.12,6.69-3.72,22.91-3.72,29.42,0,7.12,11.27,31.95,14.48,38.9"/><path class="cls-12" d="M463.43,798.5l.42.91"/><rect class="cls-14" x="464.52" y="647" width="31" height="11" rx="3.88"/><rect class="cls-15" x="467.52" y="648.13" width="25" height="8.87" rx="3.13"/><path class="cls-16" d="M495.52,654h4.61a5.27,5.27,0,0,1,5.21,4.39c1.2,7.15,2.92,20.87-.82,24.61-8.49,8.49-39.52,8.49-48,0-3.74-3.74-2-17.46-.82-24.61a5.26,5.26,0,0,1,5.2-4.39h3.62"/><path class="cls-17" d="M503.48,658c1.08,6.46,2.64,18.88-.75,22.26-7.68,7.68-35.75,7.68-43.43,0-3.39-3.38-1.83-15.8-.74-22.26"/><path class="cls-16" d="M463.49,808.57c-3.27,3.77-3.59,7.85-5.58,12a19.39,19.39,0,0,1-4.58,5.4A27.37,27.37,0,0,0,446,837.5c-1,4,1,11,7.25,12.5,4.84,1.16,12.75.5,16.75-5.5,6.49-9.73,9-31,6-37C473.3,802.06,467,804.5,463.49,808.57Z"/><path class="cls-12" d="M455,850.5c-12-6-1.22-19.78,2.89-29.89"/><path class="cls-1" d="M463.49,808.57c0-5.57,2.64-6.12,5-7.57,3.85-2.34,8.54,6.67,8,8C474.52,805,472.52,801,463.49,808.57Z"/><path class="cls-12" d="M458.6,850.5c-6.58-2-8.58-9-4.88-15.74,6.2-11.31,8-16.26,10.13-22.76s12.71-5.74,13.17,2.5"/><path class="cls-12" d="M464.22,814.08A25.52,25.52,0,0,1,475,815.5"/><path class="cls-12" d="M464.22,816.08A25.52,25.52,0,0,1,475,817.5"/><path class="cls-12" d="M455.87,846.21c-3.85-2.71-.75-10.72.31-11.45C458,833.5,467,838.5,471,838.5,470,844.5,463.14,851.32,455.87,846.21Z"/><path class="cls-1" d="M449.56,841.28c0-3.84,7.68-19.51,7.68-19.51s-9.72,10.23-10.11,12.79S441.52,844,453.27,850A13.11,13.11,0,0,1,449.56,841.28Z"/><line class="cls-2" x1="465.52" y1="806" x2="463.52" y2="799"/><path class="cls-16" d="M476,828.5c5,2,14.5-.5,14.5-.5a20.25,20.25,0,0,0-2.5-13.5c-1.79-3.13-8.74-2.5-8.74-2.5l-2,.58S477,825.5,476,828.5Z"/><path class="cls-1" d="M486.82,813.06c-2.3-4.06-1.3-5.06-2.3-6.06s-6-1-7,0-1,4,0,5C478.52,811,486.23,812.17,486.82,813.06Z"/><path class="cls-16" d="M491,825.5a39.89,39.89,0,0,1-14.56.77"/><path class="cls-1" d="M482.72,812.05c.8,3,1.24,14.08,2,14h-7.22c1.22-.69,1-13.07,2-14.07C480.22,811.29,482.72,812.05,482.72,812.05Z"/><path class="cls-18" d="M463.52,798c2-3,10-2,14-2"/><path class="cls-19" d="M480.07,736.5c2.45,6.5-2.55,25.5-2.55,31.5s2,19.44,2,19.44"/><path class="cls-19" d="M479,801.5a41.32,41.32,0,0,0,.11-8"/><polyline class="cls-2" points="479.13 807.12 478.52 802 486.52 803 484.52 811"/><path class="cls-19" d="M508.12,718.36c3.4,8.64-19.31,84.14-19.31,84.14"/><path class="cls-1" d="M472,740.5a7.87,7.87,0,0,1,3.45-1.26,21.38,21.38,0,0,1,3.65-.23,10.83,10.83,0,0,1,3.65.79,14.58,14.58,0,0,1,3.25,1.7c-1.18-.34-2.33-.68-3.48-1a15.88,15.88,0,0,0-3.43-.54c-1.19,0-2.39,0-3.57,0A14.63,14.63,0,0,0,472,740.5Z"/><path class="cls-18" d="M489.8,799.62c-7.28.38-10.52-1.62-10.52-1.62"/><path class="cls-1" d="M421,709.5c-1,2-.09,4.65,1,5s10,3,12,3,2-4,2-4Z"/><path class="cls-16" d="M434,717.5c-.5,1.5-4.5,4.5-3.83,6a4.76,4.76,0,0,1-1,5c-1.29,1.43-4.7-.43-8.05-2.12s-1.65-7.31,0-12.6Z"/><path class="cls-12" d="M425.44,723.46c-.09,1.71.13,4,1.19,5.28"/><path class="cls-20" d="M422.44,724a5.91,5.91,0,0,0,.81,3.74"/><path class="cls-12" d="M431.56,720.62c2,.38,1.3,3.3-1.37,2.84"/><path class="cls-17" d="M428.3,712c9.72-2.45,20.22-28.81,20.22-28.81"/><path class="cls-17" d="M545.15,702.79C533,702.5,515.52,677,515.52,677"/><path class="cls-12" d="M471,835.56c-.5-3.56-13.11-4.32-13.11-4.32"/><rect class="cls-1" x="467.27" y="664" width="26.25" height="15" rx="3.94"/><path class="cls-16" d="M549.08,707c1.55.3,6.13-1.69,7.07-.39a4.78,4.78,0,0,0,4.8,1.61c1.88-.42,1.95-4.3,2.13-8s-5.54-5.05-11-6.22Z"/><path class="cls-1" d="M543.94,708.5c2,1.17,4.65.1,5-1.18s3-11.71,3-14.05-4-2.34-4-2.34Z"/><path class="cls-21" d="M562.64,701.67a4.39,4.39,0,0,0-2-1.78"/><path class="cls-21" d="M562.64,704.67a4.39,4.39,0,0,0-2-1.78"/><path class="cls-1" d="M449,698.75c9.55,6.25,64.55,4.34,66.55-1.2,0,0-.93,16.75-11.46,17.6s-49.67.85-49.67.85-5.87.25-5.87-5.87S449,698.75,449,698.75Z"/><line class="cls-16" x1="470.52" y1="638" x2="474.02" y2="632.5"/><line class="cls-16" x1="487.02" y1="632.5" x2="489.8" y2="638"/><polyline class="cls-22" points="737.52 168.08 737.52 63.48 773.02 63.48 773.02 308.5 802.52 295 793.44 185.99 815.04 185.99 815.04 158.52 838.52 159 853.52 243 853.52 171.48 905.52 171 905.52 238.44 923.52 215 935.52 225 946.52 284 960.52 283.8"/><polyline class="cls-22" points="0.52 160.68 15.84 160.68 15.84 294.6 37.44 294.6 69.52 282 80.52 258 108.52 258 119.52 282 138.96 308.5 154.52 271 183.02 270.84"/><polyline class="cls-22" points="0.52 337.8 40.02 324.5 200.44 408.59"/><path class="cls-22" d="M766.52,307c0-154.69-129.73-274.42-290-280.89-80.13-3-152.65,23.06-205.12,73.31C218.94,149.27,186.52,223.31,186.52,307s32.42,157.73,84.88,207.58c52.47,50.25,125,76.31,205.12,73.31C636.79,581.42,766.53,461.69,766.52,307Z"/><path class="cls-22" d="M757.77,307C758.82,154.34,638.82,24.59,476.52,17S195,139.11,196,307C195,474.89,314.2,604.62,476.52,597S758.82,459.66,757.77,307Z"/><path class="cls-23" d="M475.52,5C414.59,3.41,357.73,19.16,311.35,49.54c-46.74,30.26-83,75.14-110.92,129.2"/><path class="cls-23" d="M720.15,122.37C675.92,69.88,620.18,27.75,548.22,8"/><path class="cls-23" d="M660.28,552.9C736.57,488.47,772.53,404.79,780,310.84"/><path class="cls-23" d="M475.52,611.14c49.5-.49,94.71-12.83,136.35-32.16"/><path class="cls-23" d="M192.57,415.8c28.38,65.1,65.8,117.09,123.91,147"/><path class="cls-24" d="M444.68,596.06c-3-3.8-3-7.43,0-9s6.23-3.71,6.53-4.93-2-5.76,1.81-5.76,6.17,2.27,8,0,2.18-7.69,5.43-7.64c0,0,4.76,2.22,7.8,0a16.45,16.45,0,0,1,9.1-3c2.27,0,6.06,4.55,7.58,4.55s5.31-2.28,8.34-1.52,3.8,3.79,7.59,5.31,8.34-.76,8.34-.76a7.41,7.41,0,0,1-3.79,3.79,29.78,29.78,0,0,1,1.52,4.62c.75,3-2.28,5.07,0,5.91s9.1,3.13,9.1,6.92-2.28,5.31-2.28,7.58,3,5.45,2.28,9.55l-.76,4.1s0-6.82-3-2.27,1.51,3.79,0,8.34-3,3.79-3,3.79,3-5.3,1.52-6.82c0,0-1.72,8.44-5,6.87s-1.8,9.06-10.9,7.54-6.83-5.31-9.86-3.79-8.34,6.06-12.89,4.55-4.55-3-7.59-3-7.58,2.28-11.37-1.51-6.83-8.35-9.11-6.83,3.8,4.55,3.8,4.55-10.62-1.52-8.35-9.1,0-7.58-.75-8.34-4.56-4.55-1.52-7.59,3-4.55,3-5.31S444.68,596.06,444.68,596.06Z"/><path class="cls-1" d="M462.12,621.14a4.44,4.44,0,0,1-3.09,0,4.11,4.11,0,0,1-2.35-2.41,4.77,4.77,0,0,1,0-3.29,4,4,0,0,1,2-2.29,7.31,7.31,0,0,0-.56,2.61,5.23,5.23,0,0,0,.37,2.24,4.44,4.44,0,0,0,1.32,1.7A20.69,20.69,0,0,0,462.12,621.14Z"/><path class="cls-1" d="M465.53,588.85a1.87,1.87,0,0,1,.62,1.6,4.48,4.48,0,0,1-.56,1.56,4.94,4.94,0,0,0-.6,2.21,25.91,25.91,0,0,1-.28,2.89A16.84,16.84,0,0,1,464,600a16,16,0,0,1-.7-2.89,25.91,25.91,0,0,1-.28-2.89,5.17,5.17,0,0,1,.21-1.72,4.05,4.05,0,0,1,.88-1.5c.36-.4.67-.65.91-.91A2.42,2.42,0,0,0,465.53,588.85Z"/><path class="cls-1" d="M448.09,607.81a2.53,2.53,0,0,1,.1-2.78,5.86,5.86,0,0,1,2-1.75,16.91,16.91,0,0,1,2.17-1c.7-.33,1.37-.51,1.78-1.27a1.61,1.61,0,0,1-.2,1.32,4.81,4.81,0,0,1-.83,1.05,20.16,20.16,0,0,1-1.87,1.52c-.62.45-1.13.91-1.62,1.33A8.83,8.83,0,0,0,448.09,607.81Z"/><path class="cls-1" d="M472.07,617.13a28.87,28.87,0,0,0,3.63-6,46.24,46.24,0,0,0,2.43-6.5,32.06,32.06,0,0,0,1.19-6.76,10.82,10.82,0,0,0-1.28-6.4l.77-.65a7.62,7.62,0,0,1,1.89,3.35,14,14,0,0,1,.51,3.74,24.2,24.2,0,0,1-1.14,7.29,28.06,28.06,0,0,1-3,6.68A16.68,16.68,0,0,1,472.07,617.13Z"/><path class="cls-2" d="M473.26,588.85a7.72,7.72,0,0,1,2.91,5.57"/><path class="cls-1" d="M476.17,621.14a13.14,13.14,0,0,0,1.14,4.54,5.29,5.29,0,0,0,1.31,1.75c.54.46,1.18.59,1.38.2.08-.07.11-.22.18-.35l.15-.53a9.73,9.73,0,0,0,.22-1.1,14.21,14.21,0,0,0,.11-2.27c0-.77-.08-1.54-.1-2.37a6.76,6.76,0,0,1,0-1.33,2.26,2.26,0,0,1,.31-.89,1.56,1.56,0,0,1,.49-.46,2,2,0,0,1,.64-.18h0l.66-.14.2.93a22.28,22.28,0,0,0,.81,3.12,5,5,0,0,0,1.4,2.32,6.51,6.51,0,0,1,.54.51,4.38,4.38,0,0,1,.38.71,4.7,4.7,0,0,1,.1.74c0,.22,0,.44-.07.65a4.59,4.59,0,0,1-1,1.83,7.72,7.72,0,0,1-3,2.17c.53-1.11,1.14-2.1,1.58-3.07a4.78,4.78,0,0,0,.43-1.32v-.21a.26.26,0,0,1,0-.11s0,0-.05,0a.23.23,0,0,1-.11-.07,6.09,6.09,0,0,1-2.28-3.44,10.72,10.72,0,0,1-.36-3.73l.86.8h0s0,0,.06,0,.08-.09.07-.06a1.28,1.28,0,0,0-.07.23,6.76,6.76,0,0,0-.06,1c0,.77,0,1.59,0,2.41a14.06,14.06,0,0,1-.28,2.48c-.09.41-.21.82-.34,1.22l-.23.6a2.57,2.57,0,0,1-.42.67,1.6,1.6,0,0,1-1.59.48,2.7,2.7,0,0,1-1.23-.73,6,6,0,0,1-1.32-2.18A11.44,11.44,0,0,1,476.17,621.14Z"/><path class="cls-1" d="M476.17,588a9.68,9.68,0,0,1,2.09-.31,4.38,4.38,0,0,1,2.17.39,3.57,3.57,0,0,1,1.68,1.62,8,8,0,0,1,.69,2.16,20.77,20.77,0,0,1,.16,4.3,13.84,13.84,0,0,0,.28,3.91,28.62,28.62,0,0,0,2.71,7.47,21.93,21.93,0,0,0,2.09,3.38c.82,1,1.72,2.08,3.15,2.18A3,3,0,0,1,489,613a7.26,7.26,0,0,1-1.87-1.19,14.29,14.29,0,0,1-2.79-3.33,21.83,21.83,0,0,1-3-8.05,15,15,0,0,1-.09-4.38,21.61,21.61,0,0,0,.19-4A3.88,3.88,0,0,0,480,588.8,7.12,7.12,0,0,0,476.17,588Z"/><path class="cls-1" d="M487.53,578.16a18.44,18.44,0,0,0-4.71-.8,17.28,17.28,0,0,0-4.76.42,14.36,14.36,0,0,0-4.41,1.83,15.19,15.19,0,0,0-3.57,3.17,47.22,47.22,0,0,1,6.48-6.08c2.35-1.8,5-3.52,8.16-4a9.21,9.21,0,0,1,4.78.53,25.81,25.81,0,0,1,4.06,2.2,18.62,18.62,0,0,1,3.61,2.93,11.25,11.25,0,0,1,1.47,1.91,7.82,7.82,0,0,1,.53,1.13,3.79,3.79,0,0,1,.26,1.42l-.54-.77a12.21,12.21,0,0,1,2.61,1.29,11.25,11.25,0,0,1,2.22,1.85,7.86,7.86,0,0,1,1.54,2.41,6.78,6.78,0,0,1,.47,2.76,7.53,7.53,0,0,0-2.66-4.51,11,11,0,0,0-2.19-1.43,13.65,13.65,0,0,0-2.4-.93l-.43-.11-.11-.65a3.35,3.35,0,0,0-.25-.74,5.39,5.39,0,0,0-.48-.83,9.53,9.53,0,0,0-1.32-1.54,22,22,0,0,0-3.38-2.54c-.6-.38-1.23-.74-1.86-1.08s-1.29-.72-1.88-1a9.44,9.44,0,0,0-3.92-.74,16.64,16.64,0,0,0-8.12,2.64,29.34,29.34,0,0,0-6.65,5.83,15.19,15.19,0,0,1,3.57-3.17,14.36,14.36,0,0,1,4.41-1.83,17.28,17.28,0,0,1,4.76-.42A18.44,18.44,0,0,1,487.53,578.16Z"/><path class="cls-1" d="M489.65,596.21a34.92,34.92,0,0,0,1.71,3.22,5.5,5.5,0,0,0,2.12,2.24,1.89,1.89,0,0,0,1.18.06,4.76,4.76,0,0,0,1.35-.68,7.27,7.27,0,0,0,.67-.5,7,7,0,0,0,.61-.54,1.65,1.65,0,0,0,.34-.45.44.44,0,0,0,0-.27,2.35,2.35,0,0,0-.78-1c-.42-.39-.91-.75-1.39-1.14a33.43,33.43,0,0,1-2.95-2.46,12.67,12.67,0,0,1-2.42-3.07,9.08,9.08,0,0,1-1.08-3.68,11.59,11.59,0,0,0,4.39,5.71c1,.73,2,1.39,3.07,2.07a17.67,17.67,0,0,1,1.61,1.14,4.14,4.14,0,0,1,1.47,1.92,2.38,2.38,0,0,1-.08,1.56,3.8,3.8,0,0,1-.71,1.1,10.15,10.15,0,0,1-.78.73,6.7,6.7,0,0,1-.83.63,6.37,6.37,0,0,1-2,1,3.79,3.79,0,0,1-2.5-.22,6.62,6.62,0,0,1-2.88-3.21,23.33,23.33,0,0,1-1.35-3.65Z"/><path class="cls-1" d="M499.44,604a3.14,3.14,0,0,0,2.18-2.62,12.93,12.93,0,0,0,.19-4,40.28,40.28,0,0,0-.6-4.15c-.25-1.4-.54-2.8-.75-4.33a11.24,11.24,0,0,1,2.4,3.86,15.3,15.3,0,0,1,1,4.46,11.51,11.51,0,0,1-.51,4.7,6.63,6.63,0,0,1-.55,1.14,4.3,4.3,0,0,1-.86,1l-.54.4c-.2.1-.42.18-.62.26a1.8,1.8,0,0,1-.64.14l-.63,0Z"/><path class="cls-2" d="M490.94,629.43A8.86,8.86,0,0,0,495.49,619"/><path class="cls-1" d="M511.3,588.85a1.25,1.25,0,0,1,.76.28,1.36,1.36,0,0,1,.43.74,4.61,4.61,0,0,1,0,1.65,18.82,18.82,0,0,1-.71,3.05c-.28,1-.6,1.94-.86,2.88a9.32,9.32,0,0,0-.42,2.66,1.16,1.16,0,0,0,.25.76,5.56,5.56,0,0,0,.49.42,6.64,6.64,0,0,1,.6.58,15.41,15.41,0,0,1,2,2.53,21,21,0,0,1,2.51,5.69c-1.33-1.6-2.55-3.21-3.83-4.72a28.74,28.74,0,0,0-2-2.11c-.18-.16-.35-.32-.53-.45s-.31-.24-.66-.57a3.1,3.1,0,0,1-.79-2,9.11,9.11,0,0,1,.67-3.31c.36-1,.78-1.93,1.21-2.85s.87-1.82,1.21-2.74a4.81,4.81,0,0,0,.33-1.37A1,1,0,0,0,511.3,588.85Z"/><path class="cls-1" d="M519.24,611.79a5.48,5.48,0,0,0-.15-1.61,3.8,3.8,0,0,0-.75-1.33c-.35-.45-.82-.9-1.29-1.44a7.12,7.12,0,0,1-1.3-1.92,5.89,5.89,0,0,1,0-4.61,8.81,8.81,0,0,1,2.5-3.4,17.94,17.94,0,0,0-1.09,3.8,5.1,5.1,0,0,0,.42,3.29,7.66,7.66,0,0,0,1.06,1.34,17.23,17.23,0,0,1,1.43,1.55,5.35,5.35,0,0,1,1.06,2.24,5.58,5.58,0,0,1-.13,2.42Z"/><path class="cls-1" d="M465.52,584.59a11.09,11.09,0,0,0-2,.08,3.78,3.78,0,0,0-1.57.62,19.69,19.69,0,0,0-2.86,2.9l-.93-.56a9.56,9.56,0,0,1,1-2.12,6,6,0,0,1,1.71-1.87,4.4,4.4,0,0,1,2.58-.8,4.84,4.84,0,0,1,2.41.72Z"/><path class="cls-1" d="M464,580.33a15.37,15.37,0,0,0-3.74-1.12,3.42,3.42,0,0,0-2.94.71,4.73,4.73,0,0,0-.81,1.43,10.57,10.57,0,0,1-1.18,1.78,11,11,0,0,1-3.19,2.69,37.51,37.51,0,0,1,1.75-3.65c.29-.58.59-1.14.84-1.69a5.37,5.37,0,0,1,1.25-2,3.89,3.89,0,0,1,2.34-1,5.25,5.25,0,0,1,2.29.32A7.93,7.93,0,0,1,464,580.33Z"/><path class="cls-1" d="M467.18,581.37a7.49,7.49,0,0,1,.62-6,5.64,5.64,0,0,1,2.36-2.2,4.81,4.81,0,0,1,3.13-.39l-.07,1.27a5,5,0,0,0-3.72,2.35,8.86,8.86,0,0,0-1.06,4.71Z"/><path class="cls-1" d="M464.37,578.41a6.06,6.06,0,0,1-.35-2.19,5.9,5.9,0,0,1,.52-2.25,4.1,4.1,0,0,1,1.63-1.84,3.5,3.5,0,0,1,2.32-.45l.16,1a11.34,11.34,0,0,0-1.4,1,4.82,4.82,0,0,0-1,1.18,6.8,6.8,0,0,0-.59,1.59,17.23,17.23,0,0,0-.37,1.82Z"/><path class="cls-1" d="M465.22,624.33c-.3-.72-.59-1.43-.92-2.13a14.88,14.88,0,0,1-1-2.29,4.44,4.44,0,0,1,.19-2.82,14.42,14.42,0,0,1,1.12-2.26c.8-1.4,1.76-2.72,2.57-4a23.21,23.21,0,0,0,2.07-4,29,29,0,0,0,1.31-4.38c.19-.75.29-1.51.44-2.26s.21-1.52.24-2.29a23.23,23.23,0,0,0-.11-4.57,8.41,8.41,0,0,0-1.42-4.09l.69-.7a8.94,8.94,0,0,1,2.09,4.56,20.49,20.49,0,0,1,.38,4.87,28.7,28.7,0,0,1-1.83,9.55,24.81,24.81,0,0,1-2.19,4.41c-.42.74-.88,1.33-1.32,2l-1.28,1.94a15.85,15.85,0,0,0-1.09,1.93,3,3,0,0,0-.29,1.8,21.08,21.08,0,0,0,.65,2.16,23.84,23.84,0,0,1,.61,2.35Z"/><path class="cls-2" d="M477.59,582.78c6.9-4.55,16.27,1,16.27,1"/><path class="cls-2" d="M495.86,628.43c5.32-.14,6.09-3.83,5.33-7.29"/><path class="cls-1" d="M501.61,605.83a4.18,4.18,0,0,1,2.81,2.15,6.84,6.84,0,0,1,.61,3.33,17,17,0,0,1-.43,3.14c-.12.51-.24,1-.38,1.5s-.29,1-.33,1.33h0l-.32-.89a14.52,14.52,0,0,1,2.48,3.36,11.44,11.44,0,0,1,1.29,4,10.11,10.11,0,0,1,0,2.13,9.55,9.55,0,0,1-.51,2.06,11.77,11.77,0,0,1-2.11,3.55l-1.1-.93a10.23,10.23,0,0,0,1.72-3.13,8.4,8.4,0,0,0,.36-1.71,9.08,9.08,0,0,0-.09-1.73,9.89,9.89,0,0,0-1.22-3.31,12.55,12.55,0,0,0-2.2-2.78l-.41-.39.1-.5h0a15.75,15.75,0,0,1,.46-1.57c.15-.47.29-.94.42-1.4a14.69,14.69,0,0,0,.52-2.79,5.27,5.27,0,0,0-.31-2.54,2.62,2.62,0,0,0-1.74-1.46Z"/><path class="cls-1" d="M508.34,607.81a23.71,23.71,0,0,0,1.89,6.25,11.67,11.67,0,0,0,1.6,2.52,3.09,3.09,0,0,0,1.93,1.18l.2,2a3.57,3.57,0,0,1-2.24-.39,5.55,5.55,0,0,1-.89-.6,6.79,6.79,0,0,1-.7-.72,9.31,9.31,0,0,1-1.68-3.3A12.57,12.57,0,0,1,508.34,607.81Z"/><path class="cls-1" d="M504.8,577.36a4.27,4.27,0,0,1,2.94.18,5.65,5.65,0,0,1,2.37,1.9,6.6,6.6,0,0,1,1.17,2.74,6,6,0,0,1-.19,2.88c-.47-.86-.83-1.66-1.26-2.39a14.15,14.15,0,0,0-1.31-2,12.87,12.87,0,0,0-1.6-1.71A21.67,21.67,0,0,0,504.8,577.36Z"/><path class="cls-2" d="M719.83,449c.07-.33.15-.65.22-1-1.37-.27-2.76-.5-4.18-.68-8.5-1.12-17.21-.9-25.63-.68-5.27.14-10.72.28-16.06.09-16.92-.61-29.76-5-38.15-13.19a42.42,42.42,0,0,1-11.19-20.2c-1.38-5.49-1.57-10.19-.56-14.36a18.28,18.28,0,0,1,2.66-6.07,20.41,20.41,0,0,0,5.32,8.63c3.3,2.94,9,4.46,13.12,1.48a8.49,8.49,0,0,0,3.34-6.14,10,10,0,0,0-2.4-7.65c-3.34-3.66-9.31-4.6-14.18-2.23a15.08,15.08,0,0,0-4.83,3.78c-.16-.56-.3-1.11-.43-1.62a63.78,63.78,0,0,1,16-59.09l-.71-.7a64.82,64.82,0,0,0-16.26,60c.18.72.39,1.5.64,2.32a19.43,19.43,0,0,0-3.25,7c-1,4.33-.85,9.18.57,14.84a43.39,43.39,0,0,0,11.46,20.66c8.57,8.33,21.63,12.86,38.82,13.48,5.36.19,10.83.05,16.11-.09,8.38-.22,17-.44,25.48.67C717.13,448.53,718.49,448.76,719.83,449Zm-87.25-61.08c4.41-2.15,10-1.28,13,2a8.93,8.93,0,0,1,2.14,6.86,7.45,7.45,0,0,1-2.93,5.44c-3.68,2.67-8.86,1.26-11.87-1.42a20,20,0,0,1-5.26-8.87A14.3,14.3,0,0,1,632.58,387.94Z"/><path class="cls-2" d="M649.12,294.91c10.81-11.06,23.94-12,31.68-4.4s7.15,20.71-3.66,31.78c-.74.75-3.82,3.85-6.11,6.08l-1.28,1.23c-.49.47-.88.83-1.11,1-10.16,8.32-18.61,6.44-25.91.9a11.83,11.83,0,0,1-2-2c-5.71-7.16-7.8-15.57.29-25.92.17-.23.53-.63,1-1.13s.76-.84,1.21-1.32C645.36,298.82,648.39,295.66,649.12,294.91Z"/><rect class="cls-2" x="638.17" y="321.42" width="23.15" height="1.75" transform="translate(-34.84 561.86) rotate(-45.67)"/><rect class="cls-2" x="648.67" y="315.98" width="5.28" height="9.42" rx="1.23" transform="translate(893.13 1005.22) rotate(-135.67)"/><path class="cls-2" d="M643.19,301.16A100.35,100.35,0,0,1,671,328.37l-1.28,1.23A98.66,98.66,0,0,0,642,302.48C642.33,302.09,642.74,301.64,643.19,301.16Z"/><path class="cls-25" d="M338.75,405.07c0-.48.07-.94.07-1.42a24.76,24.76,0,0,0-48.15-8.11,10.83,10.83,0,0,0-18,8.11s0,.07,0,.11a17.73,17.73,0,0,0,1.93,35.35h57.21a17.73,17.73,0,0,0,7-34Z"/><polygon class="cls-1" points="314.05 418.37 314.05 400.17 295.85 400.17 295.85 418.37 291.89 418.37 304.95 432.59 318.02 418.37 314.05 418.37"/><rect class="cls-2" x="229.17" y="283.75" width="101.68" height="36.11" transform="translate(-44.25 48.14) rotate(-9.11)"/><text class="cls-26" transform="matrix(0.99, -0.16, 0.16, 0.99, 245.68, 316.44)">WWW</text><path class="cls-1" d="M755.61,304.12a17.75,17.75,0,0,1-2.85.72,17.51,17.51,0,1,1,2-34.14l0-3.09a20.52,20.52,0,1,0-1.51,40.19,19.79,19.79,0,0,0,2.66-.63C755.8,306.15,755.7,305.13,755.61,304.12Z"/><path class="cls-1" d="M755.38,301.12c-.66,2.17-1.61,3.56-2.62,3.72-1.22.21-2.92-1.32-4.44-3.95a37.38,37.38,0,0,1-4.06-12.42c-1.72-10.71.56-17.82,3-18.21h.21c1.2,0,2.79,1.48,4.23,4a32.28,32.28,0,0,1,3,7.56c0-2.75,0-5.51,0-8.26-.15-.27-.29-.55-.43-.8-2.27-3.9-4.94-5.81-7.52-5.41-5.64.91-7,11.83-5.44,21.65a40.36,40.36,0,0,0,4.42,13.45c2.06,3.55,4.46,5.46,6.82,5.46a4.14,4.14,0,0,0,.7-.06,4.7,4.7,0,0,0,2.59-1.37Q755.58,303.78,755.38,301.12Z"/><path class="cls-1" d="M754.9,292.46c-1.29.32-2.62.6-4,.82-10.71,1.72-17.83-.56-18.21-2.95-.2-1.22,1.32-2.92,3.95-4.45a37.38,37.38,0,0,1,12.42-4.06,45.51,45.51,0,0,1,5.6-.56c0-1,0-2,0-3a47.78,47.78,0,0,0-6.06.58,40,40,0,0,0-13.45,4.43c-3.91,2.26-5.83,4.93-5.41,7.51.67,4.22,6.94,6.05,14.17,6.05a47.42,47.42,0,0,0,7.47-.61c1.25-.2,2.46-.44,3.65-.72C755,294.5,754.94,293.48,754.9,292.46Z"/><path class="cls-27" d="M337,174.73c-6.21,10.44,10,20.11,16.22,9.66S343.26,164.28,337,174.73Z"/><path class="cls-27" d="M339.28,142a40.29,40.29,0,0,0-30,52.64c1.35,3.84,5,6.52,9.17,5.46,3.69-.94,6.82-5.31,5.46-9.18a35.35,35.35,0,0,1-1.54-6c0-.18-.05-.41-.06-.53,0-.66-.08-1.31-.1-2,0-1,0-2.1.08-3.14a23.72,23.72,0,0,1,1-5,30.71,30.71,0,0,1,1-3h0l.15-.29c.3-.58.59-1.17.91-1.74.52-.92,1.1-1.79,1.69-2.66l.36-.52c.28-.33.55-.65.84-1a30.46,30.46,0,0,1,4.47-4.1l.53-.34,1.34-.83a31.2,31.2,0,0,1,3.15-1.62c.09-.05.7-.29.92-.39s.86-.28,1-.31c1.13-.35,2.27-.63,3.43-.87,4-.82,6.43-5.35,5.46-9.17A7.67,7.67,0,0,0,339.28,142Z"/><path class="cls-27" d="M328,116.4c-16.2,5.9-30.21,16.91-38.77,32a72.71,72.71,0,0,0-7.75,49.71c1.85,9.56,16.48,5.8,14.63-3.72-5.16-26.65,10-54,35.61-63.38,3.83-1.4,6.53-4.95,5.46-9.18C336.27,118.21,331.87,115,328,116.4Z"/><path class="cls-28" d="M568,267.5a85,85,0,1,1-85-85"/><path class="cls-29" d="M434.52,323a74.25,74.25,0,0,1,105-105"/><circle class="cls-1" cx="569.02" cy="268.5" r="9.5"/><circle class="cls-1" cx="434.52" cy="323" r="5"/><circle class="cls-1" cx="543.52" cy="5" r="5"/><circle class="cls-1" cx="660.52" cy="551" r="5"/><circle class="cls-1" cx="192.52" cy="419" r="5"/><circle class="cls-1" cx="200.52" cy="181" r="5"/><circle class="cls-22" cx="482.52" cy="273" r="41"/><path class="cls-1" d="M459.92,258a26.42,26.42,0,0,1,3.28.47c1.06.22,2.1.49,3.14.78a54.31,54.31,0,0,1,6,2.18l4.64,2-4.86,1.49a53,53,0,0,1-6.64,1.58c-1.13.19-2.27.35-3.43.44a25.84,25.84,0,0,1-3.53.07,26.22,26.22,0,0,1,3-1.87c1-.55,2.06-1,3.11-1.5a51.33,51.33,0,0,1,6.44-2.28l-.22,3.48a54.56,54.56,0,0,1-5.67-3c-.91-.56-1.81-1.14-2.69-1.78A25,25,0,0,1,459.92,258Z"/><path class="cls-1" d="M500.19,258a23.52,23.52,0,0,1-2.34,2.05c-.8.63-1.64,1.21-2.48,1.76a48.94,48.94,0,0,1-5.24,2.93l-.22-3.32a47.93,47.93,0,0,1,6,2.28c1,.45,1.93.93,2.87,1.47a24.08,24.08,0,0,1,2.77,1.83,24.09,24.09,0,0,1-3.31-.11c-1.09-.1-2.15-.27-3.2-.46a47.89,47.89,0,0,1-6.18-1.6l-4.32-1.42,4.09-1.9a48,48,0,0,1,5.59-2.19c1-.3,1.93-.58,2.93-.81A23.4,23.4,0,0,1,500.19,258Z"/><path class="cls-22" d="M492,289c0,6.35-5.15,10.5-11.5,10.5A11.5,11.5,0,0,1,469,288Z"/><rect class="cls-30" x="386.52" y="384" width="197" height="40" rx="12"/><text class="cls-31" transform="translate(407.96 410.92)">Bienvenid@</text><text class="cls-32" transform="matrix(0.63, -0.78, 0.78, 0.63, 641.65, 216.02)">@</text><circle cx="605.52" cy="106" r="6"/><circle cx="590.52" cy="122" r="6"/><path class="cls-1" d="M171,393.17,78.67,344.76S127.17,394,124.84,404s93.45,35.11,93.45,35.11L192.52,414Z"/><polyline class="cls-1" points="748.26 448.15 886.32 441.24 960.52 344.76 960.52 373.96"/><polygon class="cls-25" points="532.73 461.14 489.1 439.16 502.01 486.28 510.39 471.04 522.14 485.4 527.88 480.7 516.14 466.34 532.73 461.14"/><path class="cls-1" d="M521.84,142.54a2.61,2.61,0,0,1-1.86-.78l-29.91-29.9a2.63,2.63,0,0,1,3.73-3.72L523.7,138a2.63,2.63,0,0,1,0,3.72A2.59,2.59,0,0,1,521.84,142.54Z"/><path class="cls-1" d="M521.84,144a4.09,4.09,0,0,1-2.9-1.2l-16.39-16.4a4.09,4.09,0,1,1,5.79-5.79L524.74,137a4.1,4.1,0,0,1-2.9,7Z"/><path class="cls-33" d="M498.29,94.68a21.67,21.67,0,0,1-21.68,21.66,21.44,21.44,0,0,1-7.21-1.23,21,21,0,0,1-4.51-2.21A21.67,21.67,0,0,1,476.12,73h.49a21.63,21.63,0,0,1,12.33,3.84,22.39,22.39,0,0,1,3.7,3.24A21.56,21.56,0,0,1,498.29,94.68Z"/><g class="cls-34"><path class="cls-1" d="M484.5,74.49,464.89,112.9a21.67,21.67,0,0,1-6.11-5.92l17.34-34h.49A21.7,21.7,0,0,1,484.5,74.49Z"/><path class="cls-1" d="M492.64,80.09,474.2,116.21a21.22,21.22,0,0,1-4.8-1.1l19.54-38.26A22.39,22.39,0,0,1,492.64,80.09Z"/></g><path class="cls-1" d="M476.62,119a24.31,24.31,0,1,1,24.3-24.3A24.33,24.33,0,0,1,476.62,119Zm0-43.34a19,19,0,1,0,19,19A19.06,19.06,0,0,0,476.62,75.64Z"/></g></g></svg>