<?xml version="1.0" encoding="utf-8"?>
<!-- Generator: Adobe Illustrator 25.2.3, SVG Export Plug-In . SVG Version: 6.00 Build 0)  -->
<svg version="1.1" id="Capa_1" xmlns="http://www.w3.org/2000/svg" xmlns:xlink="http://www.w3.org/1999/xlink" x="0px" y="0px"
	 viewBox="0 0 1920 1080" style="enable-background:new 0 0 1920 1080;" xml:space="preserve">
<style type="text/css">
	.st0{fill:#9BC9DD;}
	.st1{fill:#47768E;}
	.st2{fill:#100D0D;}
	.st3{fill:url(#SVGID_1_);}
	.st4{fill:#E54754;}
	.st5{fill:#E8E781;}
	.st6{fill:none;stroke:#47768E;stroke-width:3.11;stroke-miterlimit:10;}
	.st7{fill:none;stroke:#47768E;stroke-width:1.04;stroke-miterlimit:10;}
	.st8{fill:none;stroke:#47768E;stroke-width:1.15;stroke-miterlimit:10;}
	.st9{fill:none;stroke:#0E2633;stroke-width:1.15;stroke-miterlimit:10;}
	.st10{fill:none;stroke:#47768E;stroke-width:2.73;stroke-miterlimit:10;}
	.st11{fill:#47768E;stroke:#47768E;stroke-miterlimit:10;}
	.st12{fill:none;stroke:#47768E;stroke-width:1.21;stroke-miterlimit:10;}
	.st13{fill:none;stroke:#E54754;stroke-width:2.73;stroke-miterlimit:10;}
	.st14{fill:none;stroke:#E54754;stroke-width:1.58;stroke-miterlimit:10;}
	.st15{fill:none;stroke:#100D0D;stroke-width:1.45;stroke-miterlimit:10;}
	.st16{fill:none;stroke:#100D0D;stroke-width:1.27;stroke-miterlimit:10;}
	.st17{fill:none;stroke:#100D0D;stroke-width:1.53;stroke-miterlimit:10;}
	.st18{fill:#0E2633;}
	.st19{fill:#F298A8;}
	.st20{fill:#97303C;}
	.st21{fill:#85CBCE;}
	.st22{fill:none;stroke:#47768E;stroke-width:2.1;stroke-miterlimit:10;}
</style>
<g id="Head">
	<path class="st0" d="M746.3,565.1c-0.1-0.3-0.1-0.5-0.2-0.8c-2.6-6.7-9.6-14.8-16-16.5c-5.1-1-9.7,3.9-12.2,10.8
		c-0.9-1.2-2.3-1.9-3.8-1.9c-3.2,0.1-6.4,3.5-7.3,7.4c0,0,0,0.1,0,0.1c-5.6,0.9-10.3,4.6-12.5,9.8c-2.1,5.2,2,11.7,9.5,13.2
		c14.3,2.9,29,2.3,43-1.7c7.4-2.5,11.4-9.2,9.2-13.3C754.4,569,750.4,566.5,746.3,565.1z"/>
	<path class="st1" d="M751,564.3c-0.1-0.4-0.1-0.9-0.1-1.3v-0.3c0-0.1,0-0.1,0-0.2v-0.4c0-0.5,0-1.1-0.1-1.6s-0.1-1.1-0.2-1.6
		l-0.4-1.6c-1.9-6.5-7.2-11.4-13.8-12.8c-9.2-1.9-18.3,3.2-21.5,12l-0.1,0.3l-0.3-0.2l0,0c-1.2-1-2.7-1.6-4.2-1.8
		c-1.5-0.2-3,0.1-4.4,0.8c-1.3,0.7-2.4,1.7-3.2,3c-0.7,1.2-1.1,2.7-1,4.1l0,0l0.1,1.1h-1c-1.2,0-2.4,0.2-3.6,0.6
		c-1.2,0.4-2.3,1-3.3,1.7c-2,1.5-3.6,3.5-4.5,5.9c-0.9,2.4-1,5-0.4,7.5c0.3,1.2,0.7,2.4,1.3,3.5c0.6,1.1,1.4,2.1,2.3,3
		c0.9,0.9,1.9,1.6,3,2.2c1.1,0.6,2.3,1,3.5,1.3c1.2,0.2,2.5,0.4,3.8,0.3h3.9l15.5,0l15.5-0.1l7.7-0.1c1.2,0,2.5-0.1,3.7-0.3
		c1.2-0.3,2.4-0.7,3.5-1.3c1.1-0.6,2.1-1.3,3-2.2c0.9-0.9,1.6-1.8,2.2-2.9c2.4-4.3,2.1-9.7-0.8-13.8c-0.7-1-1.5-1.8-2.5-2.6
		c-0.5-0.4-1-0.7-1.5-1l-0.8-0.4C751.8,564.9,751.4,564.6,751,564.3z M752.8,563.2c0.1,0,0.3,0,0.5,0l0.9,0.5
		c0.6,0.4,1.1,0.8,1.7,1.2c1.1,0.9,2,1.9,2.8,3.1c3.1,4.7,3.3,10.7,0.5,15.5c-1.4,2.3-3.4,4.2-5.8,5.5c-1.2,0.6-2.5,1.1-3.8,1.3
		c-1.3,0.2-2.7,0.3-4,0.3l-7.7-0.1l-15.5-0.1h-15.5H703c-1.3,0-2.6-0.1-3.9-0.4c-1.3-0.3-2.5-0.8-3.7-1.4c-1.1-0.6-2.2-1.4-3.1-2.4
		c-0.9-0.9-1.7-2-2.4-3.1c-0.6-1.2-1.1-2.4-1.4-3.7c-0.3-1.3-0.4-2.6-0.3-3.9c0.1-1.3,0.3-2.6,0.7-3.9c1.8-5.2,6.2-9.1,11.6-10.1
		l-1,1.1l0,0c0.1-1.8,0.6-3.6,1.7-5.1c1-1.5,2.4-2.6,4.1-3.3c1.6-0.7,3.4-0.8,5.1-0.5c1.7,0.3,3.2,1.1,4.4,2.3l0,0l-0.4,0.1
		c1.5-4.5,4.5-8.3,8.6-10.7c2-1.2,4.3-2,6.6-2.5c2.3-0.4,4.7-0.4,7.1,0c4.7,0.9,9,3.4,12,7.2c1.5,1.9,2.7,4,3.4,6.3l0.5,1.8
		c0.1,0.6,0.2,1.2,0.3,1.8c0.1,0.6,0.1,1.2,0.2,1.8v0.5v0.2v0.1C752.9,562.9,752.9,563.1,752.8,563.2L752.8,563.2z"/>
	<polygon class="st2" points="732.8,574.9 732.8,564.9 722.8,564.9 722.8,574.9 720.6,574.9 727.8,582.8 735,574.9 	"/>
</g>
<g id="points">
	
		<linearGradient id="SVGID_1_" gradientUnits="userSpaceOnUse" x1="964.2585" y1="1132.05" x2="956.2384" y2="10.16" gradientTransform="matrix(1 0 0 -1 0 1080)">
		<stop  offset="0.21" style="stop-color:#FFFFFF;stop-opacity:0"/>
		<stop  offset="0.67" style="stop-color:#F1F4D9;stop-opacity:0.4"/>
		<stop  offset="0.96" style="stop-color:#D6EEFD"/>
	</linearGradient>
	<rect class="st3" width="1920" height="1087.3"/>
	<path class="st4" d="M74.1,129.2c2.4,0,4.3-1.9,4.3-4.3c0-2.4-1.9-4.3-4.3-4.3c-2.4,0-4.3,1.9-4.3,4.3c0,0,0,0,0,0
		C69.8,127.3,71.7,129.2,74.1,129.2L74.1,129.2z"/>
	<path class="st4" d="M111,213c3.4,0,6.6-1.4,9.1-3.8c5-5,5-13.1,0-18.1c0,0,0,0,0,0c-5-5-13.1-5-18.1,0c0,0,0,0,0,0
		c-5,5-5,13.1,0,18.1c0,0,0,0,0,0C104.4,211.6,107.6,212.9,111,213z"/>
	<path class="st4" d="M366.8,416.7c4.5,0,8.8-3.9,8.5-8.5c-0.1-4.7-3.9-8.5-8.5-8.5c-4.5,0-8.8,3.9-8.5,8.5
		C358.3,412.9,362.1,416.6,366.8,416.7z"/>
	<path class="st4" d="M111,957.9c4.5-0.1,8.9-1.8,12.1-5c3-3,5.2-7.8,5-12.1c-0.2-4.4-1.7-9-5-12.1c-6.7-6.7-17.5-6.7-24.2,0
		c0,0,0,0,0,0c-3.2,3.2-5,7.6-5,12.1c0.2,4.4,1.7,9,5,12.1C102.2,956.1,106.5,957.9,111,957.9z"/>
	<path class="st4" d="M496.2,1059.8c4.5-0.1,8.8-1.8,12.1-5c3-3,5.2-7.8,5-12.1c-0.2-4.4-1.6-9-5-12.1c-6.7-6.7-17.5-6.7-24.2,0
		c-3,3-5.2,7.8-5,12.1c0.2,4.4,1.6,9,5,12.1C487.3,1057.9,491.7,1059.7,496.2,1059.8z"/>
	<path class="st5" d="M415,837.2c4.5,0,8.8-3.9,8.5-8.5c-0.1-4.7-3.9-8.5-8.5-8.5c-4.5,0-8.8,3.9-8.5,8.5
		C406.5,833.3,410.3,837.1,415,837.2z"/>
	<path class="st0" d="M166.5,500.8c4.5,0,8.8-3.9,8.5-8.5c-0.1-4.7-3.9-8.5-8.5-8.5c-4.5,0-8.8,3.9-8.6,8.5
		C158,496.9,161.8,500.7,166.5,500.8z"/>
	<path class="st4" d="M295.9,257.4c4.5,0,8.8-3.9,8.5-8.5c-0.1-4.7-3.9-8.5-8.5-8.6c-4.5,0-8.8,3.9-8.5,8.6
		C287.4,253.6,291.2,257.3,295.9,257.4z"/>
	<path class="st4" d="M1032.3,186.8c2.4,0,4.3-1.9,4.3-4.3c0-2.4-1.9-4.3-4.3-4.3c-2.4,0-4.3,1.9-4.3,4.3c0,0,0,0,0,0
		C1028,184.8,1029.9,186.7,1032.3,186.8z"/>
	<path class="st4" d="M1097,828.4c2.4,0,4.3-1.9,4.3-4.3c0-2.4-1.9-4.3-4.3-4.3s-4.3,1.9-4.3,4.3
		C1092.7,826.5,1094.6,828.4,1097,828.4z"/>
	<path class="st0" d="M1275.7,987.5c4.5,0,8.8-3.9,8.6-8.5c-0.1-4.7-3.9-8.5-8.6-8.5c-4.5,0-8.8,3.9-8.6,8.5
		C1267.2,983.7,1271,987.5,1275.7,987.5z"/>
	<path class="st4" d="M1559.2,762c2.4,0,4.3-1.9,4.3-4.3c0-2.4-1.9-4.3-4.3-4.3s-4.3,1.9-4.3,4.3c0,0,0,0,0,0
		C1554.9,760.1,1556.8,762,1559.2,762z"/>
	<path class="st0" d="M1839.6,801.7c4.5,0,8.8-3.9,8.6-8.5c-0.1-4.7-3.9-8.5-8.6-8.5c-4.5,0-8.8,3.9-8.6,8.5
		C1831.1,797.8,1834.9,801.6,1839.6,801.7z"/>
	<path class="st5" d="M1839.6,287.1c3.4,0,6.6-1.4,9.1-3.8c5-5,5-13.1,0-18.1c0,0,0,0,0,0c-5-5-13.1-5-18.1,0c0,0,0,0,0,0
		c-5,5-5,13.1,0,18.1C1832.9,285.7,1836.2,287,1839.6,287.1z"/>
	<path class="st5" d="M1506.8,199.9c4.5,0,8.8-3.9,8.5-8.6c-0.1-4.7-3.9-8.5-8.5-8.6c-4.5,0-8.8,3.9-8.6,8.6
		C1498.3,196,1502.1,199.8,1506.8,199.9z"/>
	<path class="st0" d="M1417.4,62.9c2.4,0,4.3-1.9,4.3-4.3s-1.9-4.3-4.3-4.3s-4.3,1.9-4.3,4.3C1413.2,60.9,1415.1,62.8,1417.4,62.9z"
		/>
	<path class="st4" d="M533.2,704.5c2.4,0,4.3-1.9,4.3-4.3s-1.9-4.3-4.3-4.3c-2.4,0-4.3,1.9-4.3,4.3c0,0,0,0,0,0
		C528.9,702.6,530.8,704.5,533.2,704.5z"/>
	<path class="st4" d="M496.2,124.8c2.4,0,4.3-1.9,4.3-4.3s-1.9-4.3-4.3-4.3s-4.3,1.9-4.3,4.3l0,0
		C491.9,122.9,493.8,124.8,496.2,124.8z"/>
	<path class="st4" d="M961.4,987.4c3.4,0,6.6-1.4,9.1-3.8c5-5,5-13.1,0-18.1c0,0,0,0,0,0c-5-5-13.1-5-18.1,0c0,0,0,0,0,0
		c-5,5-5,13.1,0,18.1C954.8,986,958,987.3,961.4,987.4z"/>
</g>
<g id="services-ai">
	<path class="st6" d="M275.3,568.2l-139.7,10.1c-7.6,0.5-14-5.7-14-13.6v-91.5c-0.1-7.1,5.4-13.1,12.5-13.6l142.8-6.5
		c7.6-0.3,13.9,6.1,13.6,14.1l-3,87.9C287.4,561.9,282.1,567.6,275.3,568.2z"/>
	<path class="st1" d="M138.2,461c-4.6,0.9-9.2,2.3-13.5,4.2c-1.9,0.9-3.7,2.1-5.2,3.5c-1.3,1.2-2.1,2.8-2.3,4.5c0,0.2,0,0.4,0,0.6
		v6.4v7.5c0,5,0,9.9,0,14.9c0,10-0.1,19.9-0.3,29.8c-0.2,9.9-0.5,19.9-0.8,29.8l-0.1-0.6l0,0c0.1,0.3,0.2,0.6,0.3,0.8
		c0.1,0.3,0.2,0.6,0.3,0.9c0.3,0.6,0.6,1.2,0.9,1.8c0.7,1.2,1.4,2.3,2.3,3.3c0.9,1,1.9,2,3,2.8c1.1,0.8,2.3,1.5,3.6,2l-1.1,2.9
		c-1.6-0.5-3.1-1.2-4.5-2c-1.4-0.8-2.7-1.8-3.9-3c-1.2-1.1-2.3-2.4-3.2-3.8c-0.5-0.7-0.9-1.4-1.3-2.2c-0.2-0.4-0.4-0.8-0.6-1.2
		c-0.2-0.4-0.4-0.8-0.5-1.3l0,0l-0.1-0.2v-0.4c-0.4-9.9-0.7-19.9-0.8-29.8s-0.3-19.9-0.3-29.8c0-5,0-9.9,0-14.9v-7.5v-6.1v-0.6
		c0-0.4,0-0.8,0.1-1.2c0.5-3.3,2.1-6.2,4.6-8.4c2.2-1.9,4.7-3.3,7.5-4.1c2.5-0.9,5.1-1.4,7.8-1.7c2.6-0.3,5.2-0.4,7.8-0.2L138.2,461
		z"/>
	<path class="st6" d="M184.3,574.8l18.4,24.8c1.5,2.1,4.4,2.5,6.5,1c0.3-0.2,0.5-0.4,0.7-0.7l25.5-28.8"/>
	<path class="st1" d="M175.6,574.5c2.8,2.7,5.4,5.5,7.9,8.4s4.9,5.9,7.3,8.9l1.8,2.3l0.4,0.6l0.3,0.4c0.2,0.3,0.5,0.6,0.8,0.8
		c1,1.1,2.3,1.9,3.6,2.5c1.4,0.7,2.9,1.2,4.4,1.6c2,0.3,3.9,0.8,5.7,1.5l0.1,1c-1.8,1.1-3.7,1.9-5.8,2.4c-2.3,0.5-4.7,0.3-6.9-0.5
		c-2.2-0.8-4.3-2-6-3.7c-0.4-0.4-0.8-0.8-1.2-1.3l-0.6-0.7l-0.4-0.6l-1.8-2.3c-2.3-3-4.6-6.1-6.8-9.3s-4.3-6.4-6.2-9.8L175.6,574.5z
		"/>
	<path class="st7" d="M172.3,482.8l72.8-2.5c6.1-0.2,11.2,4.6,11.4,10.6l1.6,47.1c0.2,6.1-4.6,11.2-10.6,11.4l-72.8,2.5
		c-6.1,0.2-11.2-4.6-11.4-10.6l-1.6-47.1C161.5,488.1,166.2,483,172.3,482.8z"/>
	<path class="st1" d="M247.2,550.1c-13.3,0.7-26.6,1.3-39.8,2.1l-19.9,1.1l-10,0.5l-5,0.3l-2.5,0.1c-0.4,0-1,0-1.5,0s-1-0.1-1.5-0.2
		c-6.2-1-10.9-6.1-11.4-12.4c-0.1-0.5-0.1-0.9-0.1-1.3l-0.1-1.2l-0.1-2.5l-0.7-19.9l-0.6-19.9v-1.2c0-0.4,0-0.8,0-1.3
		c0-1,0.1-2,0.3-3c1.4-6.1,6.7-10.5,13-10.7l39.9-0.8l19.9-0.3l10-0.2l5-0.1h2.5c0.4,0,0.9,0,1.3,0s0.9,0.1,1.4,0.2
		c5.5,1,9.6,5.6,10,11.2c0.1,1.7,0.1,3.3,0.1,5l0.5,19.9l0.3,10l0.4,10c0,0.8,0.1,1.6,0.1,2.5c0,0.9-0.1,1.8-0.2,2.6
		c-0.4,1.7-1.1,3.4-2.1,4.8C254.2,548.2,250.8,550,247.2,550.1z M247.2,548.4c4.8-0.1,9-3.5,10.1-8.2c0.2-0.8,0.3-1.6,0.3-2.3
		c0-0.8,0-1.7,0-2.5l-0.3-10l-0.4-10l-0.9-19.9c-0.1-1.6-0.1-3.4-0.3-5c-0.4-4.7-4-8.6-8.7-9.3c-0.4,0-0.8-0.1-1.1-0.1h-1.2
		l-2.5,0.1l-5,0.3l-10,0.5l-19.9,1l-39.8,2c-2.7,0.1-5.1,1.4-6.8,3.6c-0.8,1-1.3,2.3-1.6,3.5c-0.1,0.6-0.2,1.3-0.2,1.9
		c0,0.3,0,0.8,0,1.2l0.1,1.2l0.8,19.9l0.6,19.9l0.1,2.5v1.2c0,0.4,0,0.8,0.1,1.1c0.1,1.3,0.4,2.6,1.1,3.7c1.3,2.3,3.6,4,6.2,4.5
		l1,0.1c0.4,0,0.6,0,1,0h2.5l5-0.1l10-0.2l19.9-0.3C220.6,548.9,233.9,548.7,247.2,548.4L247.2,548.4z"/>
	<path class="st8" d="M161.9,499.3l35.8,23.4c8.6,5.8,19.9,5.5,28.2-0.8l31-22.6"/>
	<line class="st8" x1="163.1" y1="535" x2="186.9" y2="515.7"/>
	<line class="st9" x1="256.8" y1="530.3" x2="235.3" y2="515"/>
	<path class="st10" d="M1450.2,732.1l-122.4,8.8c-6.6,0.5-12.2-5-12.2-11.9v-80.2c-0.1-6.3,4.7-11.5,10.9-11.9l125.1-5.7
		c6.7-0.3,12.2,5.4,11.9,12.3l-2.7,77C1460.7,726.6,1456.1,731.6,1450.2,732.1z"/>
	<path class="st11" d="M1330,638.1c-4.1,0.8-8,2-11.8,3.7c-1.7,0.8-3.2,1.8-4.6,3.1c-1.1,1-1.8,2.4-2,3.9c0,0.2,0,0.4,0,0.6v0.3v5.3
		v6.5c0,4.4,0,8.7,0,13.1c0,8.7-0.1,17.4-0.3,26.1c-0.1,8.7-0.4,17.4-0.7,26.1l-0.1-0.5l0,0c0.1,0.5,0.3,1.1,0.5,1.6
		c0.2,0.5,0.5,1.1,0.8,1.6c0.6,1.1,1.3,2,2.1,2.9c0.8,0.9,1.7,1.7,2.7,2.4c1,0.7,2.1,1.3,3.2,1.8l-0.9,2.6c-1.4-0.4-2.7-1-3.9-1.8
		c-1.3-0.7-2.4-1.6-3.4-2.6c-1.1-1-2-2.1-2.8-3.3c-0.4-0.6-0.8-1.2-1.1-1.9c-0.4-0.7-0.7-1.4-0.9-2.1l0,0l-0.1-0.2v-0.4
		c-0.3-8.7-0.6-17.4-0.7-26.1s-0.2-17.4-0.3-26.1c0-4.4,0-8.7,0-13.1V655v-5.3v-0.5c0-0.4,0-0.7,0.1-1.1c0.4-2.9,1.9-5.5,4.1-7.3
		c1.9-1.6,4.1-2.9,6.5-3.6c2.2-0.7,4.5-1.3,6.8-1.5c2.3-0.3,4.6-0.3,6.8-0.2L1330,638.1z"/>
	<path class="st10" d="M1370.4,737.9l16.1,21.8c1.3,1.8,3.9,2.2,5.7,0.8c0.2-0.2,0.4-0.4,0.6-0.6l22.3-25.3"/>
	<path class="st11" d="M1362.8,737.6c2.4,2.4,4.7,4.8,6.9,7.4s4.3,5.1,6.4,7.8l1.5,2l0.4,0.5l0.3,0.4c0.2,0.2,0.4,0.5,0.7,0.7
		c0.9,0.9,2,1.7,3.2,2.2c1.2,0.6,2.5,1,3.8,1.4c1.7,0.3,3.4,0.7,5,1.4l0.1,0.9c-1.6,0.9-3.2,1.7-5,2.1c-2,0.4-4.1,0.3-6-0.4
		c-1.9-0.7-3.7-1.8-5.2-3.2c-0.4-0.3-0.7-0.7-1.1-1.1l-0.5-0.6l-0.4-0.5l-1.5-2c-2-2.7-4-5.4-5.9-8.2s-3.7-5.6-5.4-8.5L1362.8,737.6
		z"/>
	<path class="st12" d="M1416.7,687.3l-34.4,18.6c-3,1.6-6.8,0.5-8.5-2.5c-0.4-0.8-0.7-1.7-0.7-2.6l-1.8-33.3
		c-0.2-3.4,2.5-6.4,5.9-6.6c0.9,0,1.8,0.1,2.7,0.4l36.2,14.8c3.2,1.3,4.7,4.9,3.4,8.1C1419,685.5,1418,686.6,1416.7,687.3z"/>
	<path class="st11" d="M1415.8,690.7l-18.3,10.2c-6.1,3.4-12.1,6.9-18.2,10.3c-1.9,1.1-4.1,1.5-6.3,1.2c-1.1-0.2-2.1-0.5-3.1-1.1
		c-1-0.5-1.9-1.2-2.6-2c-1.5-1.7-2.4-3.8-2.5-6.1l-0.3-5.2l-0.6-10.5l-0.5-10.5l-0.2-5.2l-0.1-2.6c0-0.4,0-0.8,0-1.5
		c0-0.6,0.1-1.1,0.2-1.7c0.4-2.2,1.6-4.2,3.3-5.6c1.7-1.4,3.8-2.2,6.1-2.3c1.1,0,2.2,0.2,3.2,0.5c0.2,0.1,0.5,0.2,0.7,0.3l0.6,0.3
		l1.2,0.5l4.8,2l9.6,4.1c6.4,2.8,12.9,5.5,19.3,8.1l2.4,1l0.6,0.2l0.6,0.3c0.2,0.1,0.4,0.2,0.6,0.3l0.6,0.4c0.8,0.6,1.5,1.3,2,2.1
		c2.6,4.1,1.4,9.5-2.6,12.1C1416,690.5,1415.9,690.5,1415.8,690.7L1415.8,690.7z M1415.1,689.3c1.4-0.7,2.6-1.9,3.2-3.3
		c0.3-0.7,0.5-1.5,0.6-2.3c0-0.8,0-1.6-0.3-2.4c-0.2-0.8-0.6-1.5-1-2.1c-0.5-0.6-1-1.2-1.7-1.6l-0.5-0.3c-0.2-0.1-0.3-0.2-0.5-0.2
		l-0.5-0.2l-0.6-0.2l-2.5-0.9c-6.6-2.4-13.1-4.8-19.7-7.2l-9.8-3.6l-4.9-1.8l-1.2-0.5l-0.6-0.2l-0.5-0.2c-0.6-0.2-1.3-0.3-1.9-0.2
		c-0.6,0-1.3,0.2-1.9,0.5c-0.6,0.2-1.1,0.6-1.6,1c-0.9,0.9-1.6,2-1.8,3.2c-0.1,0.3-0.1,0.6-0.1,0.9c0,0.3,0,0.7,0,1.2l0.2,2.6
		l0.3,5.2l0.6,10.5l0.5,10.5l0.2,5.2c0,1.3,0.5,2.5,1.3,3.5c0.4,0.5,0.9,0.9,1.4,1.2c0.6,0.3,1.2,0.6,1.8,0.7
		c1.3,0.3,2.6,0.1,3.8-0.5c6.2-3.1,12.6-6.1,18.8-9.2L1415.1,689.3z"/>
	<path class="st13" d="M1863.4,837.7l-122.4,8.8c-6.4,0.3-11.9-4.6-12.2-11c0-0.3,0-0.6,0-0.9v-80.2c-0.1-6.3,4.7-11.5,10.9-11.9
		l125.1-5.7c6.7-0.3,12.2,5.4,11.9,12.3l-2.7,77C1874,832.2,1869.4,837.2,1863.4,837.7z"/>
	<path class="st4" d="M1743.2,743.8c-4.1,0.8-8,2-11.8,3.7c-1.7,0.8-3.2,1.8-4.6,3.1c-1.1,1-1.8,2.4-2,3.9c0,0.2,0,0.4,0,0.6v5.6
		v6.5c0,4.4,0,8.7,0,13.1c0,8.7-0.1,17.4-0.3,26.1c-0.1,8.7-0.4,17.4-0.7,26.1l-0.1-0.5l0,0c0.1,0.5,0.3,1.1,0.5,1.6
		c0.2,0.5,0.5,1.1,0.8,1.6c0.6,1,1.2,2,2,2.9c0.8,0.9,1.7,1.7,2.7,2.4c1,0.7,2.1,1.3,3.2,1.8l-0.9,2.6c-1.4-0.4-2.7-1-3.9-1.8
		c-1.2-0.7-2.4-1.6-3.4-2.6c-1.1-1-2-2.1-2.8-3.3c-0.4-0.6-0.8-1.2-1.1-1.9c-0.4-0.7-0.7-1.4-0.9-2.1l0,0l-0.1-0.2v-0.4
		c-0.3-8.7-0.6-17.4-0.7-26.1s-0.2-17.4-0.3-26.1c0-4.4,0-8.7,0-13.1v-6.5v-5.3v-0.5c0-0.4,0-0.7,0.1-1.1c0.4-2.9,1.9-5.5,4.1-7.3
		c1.9-1.6,4.1-2.9,6.5-3.6c2.2-0.7,4.5-1.2,6.8-1.5c2.3-0.3,4.6-0.3,6.8-0.2L1743.2,743.8z"/>
	<path class="st13" d="M1783.6,843.5l16.1,21.8c1.3,1.8,3.9,2.2,5.7,0.9c0.2-0.2,0.4-0.4,0.6-0.6l22.3-25.3"/>
	<path class="st4" d="M1776,843.3c2.4,2.4,4.7,4.8,6.9,7.4s4.3,5.2,6.4,7.8l1.5,2l0.4,0.5l0.3,0.4c0.2,0.2,0.4,0.5,0.7,0.7
		c0.9,0.9,2,1.7,3.2,2.2c1.2,0.6,2.5,1,3.8,1.4c1.7,0.3,3.4,0.7,5,1.4l0.1,0.9c-1.6,0.9-3.2,1.6-5,2.1c-2,0.4-4.1,0.3-6-0.4
		c-1.9-0.7-3.7-1.8-5.2-3.2c-0.4-0.3-0.7-0.7-1.1-1.1l-0.5-0.6l-0.4-0.5l-1.5-2c-2-2.7-4-5.4-5.9-8.2s-3.7-5.6-5.4-8.5L1776,843.3z"
		/>
	<path class="st14" d="M1835.4,795.2c2.1-2.9,3.2-6.3,3.3-9.8c0-12.8-15.4-23.1-34.4-23.1s-34.4,10.3-34.4,23.1s15.4,23.1,34.4,23.1
		c6.8,0.1,13.5-1.4,19.7-4.2l19,4.2L1835.4,795.2z"/>
	<path class="st4" d="M1778.2,771.3c-3.2,1.9-5.8,4.7-7.5,8.1c-0.9,1.6-1.5,3.4-2,5.2c-0.5,1.7-0.7,3.5-0.5,5.3
		c0.3,3.5,1.8,6.8,4.1,9.5c2.4,2.8,5.3,5,8.5,6.7c3.3,1.7,6.8,3,10.4,3.9c1.8,0.4,3.7,0.8,5.5,1l2.8,0.3c0.9,0.1,1.9,0.1,2.8,0.1
		c7.6,0.1,15.2-0.7,22.6-2.5l0,0l0.3-0.1h0.2l20.7,4.5l-0.9,1.3l-8.2-14.3l1.5-0.8l8.2,14.3l1,1.7l-1.9-0.4l-20.7-4.5l0.5-0.1l0,0
		c-3.4,2.4-7.2,4.1-11.2,5.1c-4,1-8.2,1.4-12.3,1.2c-1-0.1-2.1,0-3.1-0.2l-3.1-0.3c-2-0.3-4.1-0.7-6.1-1.2c-4.1-1-8-2.6-11.6-4.7
		c-3.7-2.1-7-4.9-9.6-8.3c-1.3-1.7-2.4-3.7-3.2-5.7l-0.6-1.6l-0.3-1.6c-0.2-1.1-0.3-2.2-0.3-3.3c0-2.2,0.3-4.4,1.1-6.4
		c0.7-2,1.6-3.9,2.8-5.7c2.2-3.6,5.5-6.4,9.3-8.1L1778.2,771.3z"/>
	<path class="st0" d="M1699.5,328.1c-1,9-8.1,16.2-17.2,17.1c-8.8,0.7-16.6-6.1-17.5-15.3s6.8-16.8,17.1-17.1
		S1700.1,319.4,1699.5,328.1z"/>
	<path class="st15" d="M1727.6,325.5c0,23.3-19.8,42.3-44.3,42.3s-44.3-18.9-44.3-42.3s19.8-42.2,44.3-42.2"/>
	<path class="st16" d="M1658.1,353.1c-14.4-13.5-15.2-36.1-1.7-50.5c0.6-0.6,1.1-1.2,1.7-1.7c15.4-14.4,39.3-14.4,54.7,0"/>
	<ellipse class="st2" cx="1728.2" cy="326" rx="4.9" ry="4.7"/>
	<ellipse class="st2" cx="1658.1" cy="353.1" rx="2.6" ry="2.5"/>
	<ellipse class="st17" cx="1683.1" cy="328.2" rx="21.4" ry="20.4"/>
	<path class="st2" d="M1671.3,320.8c1.1,0.1,2.2,0.3,3.3,0.6c1.1,0.3,2.1,0.7,3.1,1.1l2.5,1l-2.6,0.8c-1.1,0.3-2.3,0.6-3.5,0.8
		c-0.6,0.1-1.2,0.2-1.8,0.2c-0.6,0-1.2,0-1.8,0c0.5-0.4,1-0.7,1.6-1c0.5-0.3,1.1-0.5,1.6-0.8c1.1-0.5,2.2-0.8,3.4-1.1l-0.1,1.8
		c-1-0.4-2-0.9-3-1.5C1673.1,322.1,1672.2,321.5,1671.3,320.8z"/>
	<path class="st2" d="M1692.3,320.8c-0.8,0.7-1.6,1.4-2.5,1.9c-0.9,0.5-1.8,1-2.7,1.5l-0.1-1.7c1.1,0.3,2.1,0.7,3.1,1.1
		c0.5,0.2,1,0.5,1.5,0.7c0.5,0.3,1,0.6,1.4,0.9c-0.6,0-1.1,0-1.7,0c-0.6-0.1-1.1-0.1-1.7-0.2c-1.1-0.2-2.2-0.5-3.2-0.8l-2.3-0.7
		l2.2-1c0.9-0.4,1.9-0.8,2.9-1.1C1690.2,321.1,1691.2,320.9,1692.3,320.8z"/>
	<path class="st17" d="M1688,336.2c0,3.2-2.7,5.2-6,5.2c-3.2,0.1-5.9-2.5-6-5.7c0,0,0,0,0,0L1688,336.2z"/>
	<path class="st4" d="M1193.7,529.9c-1.3-3.5-1.7-13.3-2.4-17c-0.7-3.6-1.7-8.2-4-10.9s-6-3.2-3.4-4.3s3,4.4,5.1-0.3
		s4.7-8.6,3.6-11.1s-3.8-2-2.7-3.9s4.2-2.1,6.8-1.9s9.6,0.1,9.6,0.1s1.9,1.8,1.3,5.8s0.2,5.1-1.1,6s-0.2,1.7-0.2,4.2
		s-1.5,21.1-3.8,25.4s-5.4,8.3-6.7,8.3C1195.1,530.4,1194.4,530.2,1193.7,529.9z"/>
	<path class="st4" d="M878.5,676.7c0.5-3.8,5-12.8,6.2-16.4s2.5-8.2,1.9-11.6s-3.7-5.6-0.8-5.4s0.5,5.3,4.6,2.1s11.8-4.7,12.1-7.4
		s0.1-7.7,1.9-8.9s1.6,3.9,3.7,5.3s5.5,4,5.5,4s0.8,2.5-1.7,5.8s-2.3,4.7-3.9,4.8s-1.1,1.5-2.2,3.7s-11.6,18.2-15.7,21
		s-8.8,5-9.9,4.4C879.5,677.8,879,677.3,878.5,676.7z"/>
	<path class="st18" d="M876.9,682.3c-0.1,0-0.2,0-0.3-0.1l0,0l0,0l-0.1-0.1l-0.1-0.1l-0.2-0.3c-0.2-0.2-0.3-0.4-0.5-0.5
		c-0.3-0.4-0.6-0.8-0.8-1.2c-0.5-0.9-0.7-1.9-0.5-2.9c0.1-0.5,0.2-1,0.5-1.4c0.2-0.4,0.4-0.8,0.6-1.2c0.4-0.8,0.7-1.7,1.1-2.5
		c1.4-3.3,2.6-6.8,3.7-10.3c1.1-3.5,1.9-7,2.5-10.6c0.6-3.5,0.8-7.2,0.4-10.8V640c-0.1-0.2-0.1-0.4,0-0.6c0.2-0.3,0.4-0.6,0.7-0.8
		c0.5-0.3,1-0.5,1.5-0.5c0.6-0.1,1.1,0,1.6,0.2c0.5,0.2,1,0.6,1.2,1.2c0.1,0.1,0.1,0.2,0.2,0.4c0,0.1,0.1,0.2,0.1,0.3
		c0.1,0.2,0.2,0.3,0.3,0.5c0.2,0.3,0.5,0.5,0.9,0.7c0.8,0.3,1.6,0.3,2.3,0c1.7-0.5,3.2-1.3,4.6-2.4c1.4-1,2.6-2.3,3.6-3.8
		c0.2-0.3,0.3-0.6,0.4-1c0,0,0-0.1,0-0.2l0,0c0,0,0,0,0-0.1c-0.2-0.2-0.3-0.5-0.4-0.8c-0.2-1,0-2.1,0.4-3c0.8-1.7,1.8-3.3,3-4.7
		l0.1-0.1c0.1-0.1,0.2-0.2,0.3-0.2c0.2-0.1,0.5-0.2,0.8-0.1c0.3,0.1,0.6,0.3,0.8,0.5c0.4,0.3,0.7,0.7,1,1.1c0.6,0.7,1.2,1.5,1.7,2.2
		c1,1.5,1.9,3.1,2.8,4.8l0,0c0.1,0.2,0.1,0.4-0.1,0.5c0,0,0,0,0,0c-0.1,0-0.2,0-0.2,0l0,0c-0.6-0.1-1.2,0-1.8,0.1
		c-0.6,0.1-1.1,0.4-1.2,0.8c-0.1,0.6-0.2,1.2-0.2,1.8l-0.1,1.9c0,0.7-0.1,1.3-0.2,2c-0.1,0.7-0.3,1.4-0.7,2
		c-0.2,0.4-0.7,0.6-1.1,0.7c-0.3,0-0.3,0-0.4,0c-0.1,0-0.2,0.1-0.3,0.2c-0.5,0.3-1,0.7-1.4,1.2c-1.7,1.9-3.3,3.9-4.6,6.1
		c-1.4,2.2-2.6,4.4-3.7,6.7c-0.6,1.2-1.1,2.3-1.5,3.5s-0.8,2.4-1.3,3.6c-1.1,2.4-2.4,4.6-4.1,6.7c-1.6,2-3.3,4-5.2,5.8
		c-0.9,0.9-1.8,1.8-2.8,2.7l-1.4,1.3l-0.7,0.6l-0.4,0.3l-0.2,0.2l-0.1,0.1h0l0,0c0,0-0.1,0-0.1,0C877.1,682.3,877,682.3,876.9,682.3
		z M876.9,681.5c-0.1,0-0.1,0-0.2,0h-0.1l0,0h0H876.9l0.1-0.2l0.4-0.3l0.7-0.6l1.4-1.3c0.9-0.9,1.9-1.8,2.8-2.7
		c1.8-1.8,3.5-3.7,5.1-5.8c1.6-2,3-4.2,4-6.5c0.5-1.2,0.8-2.4,1.3-3.6s1-2.4,1.6-3.6c1.1-2.3,2.4-4.6,3.8-6.8
		c1.4-2.2,2.9-4.3,4.7-6.2c0.5-0.5,1-0.9,1.6-1.3c0.2-0.1,0.4-0.2,0.5-0.2c0.2,0,0.4,0,0.6,0c0.2,0,0.3-0.1,0.5-0.3
		c0.3-0.5,0.5-1.1,0.5-1.7c0.1-0.6,0.2-1.2,0.2-1.9l0.1-1.9c0-0.7,0.1-1.3,0.3-2c0.1-0.4,0.4-0.7,0.8-0.9c0.3-0.2,0.6-0.3,1-0.4
		c0.7-0.1,1.4-0.2,2-0.1l-0.4,0.6l0,0c-1-1.5-2-3-3-4.5c-0.5-0.7-1.1-1.5-1.6-2.1c-0.3-0.3-0.6-0.6-0.9-0.9
		c-0.1-0.1-0.2-0.2-0.3-0.2c0,0,0,0,0.1,0s0.1-0.1,0,0l-0.1,0.1c-1.1,1.4-2.1,2.8-2.9,4.5c-0.4,0.7-0.5,1.5-0.4,2.3
		c0,0.1,0.1,0.3,0.2,0.4l0.1,0.2c0,0.1,0.1,0.2,0.1,0.3c0,0.2,0,0.4,0,0.5c-0.1,0.5-0.3,1.1-0.6,1.5c-1.1,1.6-2.4,3-3.9,4.1
		c-1.5,1.2-3.2,2.1-5,2.6c-1,0.3-2,0.2-3-0.1c-0.5-0.2-1-0.6-1.3-1c-0.2-0.2-0.3-0.4-0.4-0.7l-0.3-0.6c-0.4-0.6-1.1-1-1.8-0.8
		c-0.4,0-0.7,0.2-1,0.4c-0.1,0.1-0.2,0.1-0.3,0.2c0,0,0-0.1,0,0.1v0.3c0.4,3.7,0.2,7.4-0.5,11.1c-0.6,3.6-1.5,7.2-2.6,10.6
		c-1.1,3.5-2.4,6.9-3.8,10.3c-0.4,0.8-0.7,1.7-1.1,2.5c-0.2,0.4-0.4,0.8-0.6,1.2c-0.2,0.4-0.3,0.7-0.4,1.1c-0.1,0.8,0,1.7,0.5,2.4
		c0.2,0.4,0.4,0.7,0.7,1.1c0.1,0.2,0.3,0.3,0.4,0.5l0.2,0.2l0.1,0.1l0.1,0.1l0,0l0,0C877.1,681.5,877,681.5,876.9,681.5L876.9,681.5
		z"/>
	<path class="st18" d="M888.5,644.6l-0.3-0.7c9.1-3.8,18.7-7.4,18.8-7.5l0.3,0.7C907.2,637.2,897.6,640.8,888.5,644.6z"/>
	<path class="st18" d="M885.5,673.2c-2.5-6.6-4.1-7.5-4.9-7.4c-1.2,0.1-2.1,2.9-2.3,3.8l-0.8-0.2c0.1-0.4,0.9-4.3,3-4.5
		c1.7-0.2,3.6,2.5,5.7,7.9L885.5,673.2z"/>
	<path class="st18" d="M886.2,645.9c-0.8,0-1.7-0.2-2.4-0.6l0.3-0.7c0,0,2.1,1,3.4,0.1c0.8-0.5,1.2-1.5,1.2-3.1h0.8
		c0,1.9-0.6,3.1-1.6,3.8C887.4,645.7,886.8,645.9,886.2,645.9z"/>
	<path class="st18" d="M877.3,681.8c0.4-0.2,0.5-0.4,0.8-0.5h0.2l0.3-0.1l0.5-0.2c0.7-0.2,1.4-0.5,2.1-0.8c1.4-0.6,2.7-1.4,4-2.2
		c1.3-0.8,2.5-1.8,3.6-2.7c1.2-1,2.3-2,3.3-3.1l-0.1,0.3v-1.4l0,0l0.7-0.3c-0.1,0,0.1,0,0.1,0c0.1,0,0.2,0,0.3-0.1
		c0.1,0,0.2-0.1,0.3-0.1l0.1-0.1l0.1-0.1c0.4-0.4,0.7-0.8,1.1-1.2c0.7-0.8,1.4-1.7,2.1-2.5c1.3-1.7,2.7-3.4,4-5.2
		c1.3-1.7,2.7-3.5,3.9-5.2c0.6-0.9,1.3-1.8,1.8-2.7c0.3-0.4,0.6-0.9,0.8-1.3v-0.1c0,0,0-0.1,0,0.2c0,0.1,0.1,0.1,0.1,0.2l0.1,0.1h0
		l-0.1-0.1l-0.2-0.2c-0.3-0.3-0.5-0.6-0.5-1c-0.1-0.2-0.1-0.5,0-0.7c0-0.1,0.1-0.3,0.1-0.4c0-0.1,0.1-0.2,0.2-0.2
		c0.1-0.1,0.1-0.1,0.2-0.2l0.2-0.1c0.2-0.1,0.5-0.1,0.7,0l0.4,0.1c0.2,0,0.4,0,0.5,0c0,0,0.1,0,0.1-0.1c0.1-0.1,0.1-0.1,0.2-0.2
		c0.7-0.8,1.3-1.7,2-2.6c1.3-1.8,2.5-3.5,3.7-5.3c0.6-0.9,1.2-1.8,1.7-2.8c0.1-0.2,0.2-0.5,0.3-0.7c0.1-0.2,0.2-0.4,0.3-0.7
		c0.2-0.5,0.2-0.5-0.1-0.8c-0.3-0.3-0.7-0.6-1.1-0.8c-0.5-0.2-0.9-0.5-1.4-0.6c-1-0.4-2-0.7-3-1h0.1c-0.6-0.1-1.2-0.1-1.8-0.1
		c-0.3,0-0.6,0-0.9,0.1c-0.2,0-0.4,0.1-0.7,0.2c-0.1-0.2-0.2,0.7-0.2,1.3l-0.2,2c-0.1,1.4-0.3,2.7-0.6,4c-0.1,0.2-0.2,0.4-0.3,0.6
		c-0.1,0.1-0.3,0.3-0.4,0.4l-0.3,0.1c-0.4,0.1-0.6,0.2-0.9,0.3c-0.6,0.2-1.1,0.5-1.5,0.9c-1.9,1.6-3.5,3.7-4.6,5.9
		c-1.2,2.3-2.4,4.6-3.5,7s-2.2,4.8-3.4,7.1c-1.1,2.4-2.5,4.7-4,6.9c-1.6,2.1-3.4,4.1-5.3,5.9c-0.9,0.9-1.9,1.8-2.9,2.7l-1.5,1.3
		l-0.8,0.7l-0.4,0.3l-0.2,0.2l-0.1,0.1c0,0,0.1-0.1,0.1-0.2C877.4,682,877.4,681.8,877.3,681.8z M876.6,682.1c0-0.1,0-0.2,0-0.3
		c0-0.1,0.1-0.2,0.2-0.2l0.1-0.1l0.2-0.2l0.4-0.3l0.7-0.7l1.4-1.3c1-0.9,1.9-1.8,2.8-2.7c1.8-1.8,3.5-3.8,5.1-5.9
		c2.9-4.2,4.9-9.1,7.1-13.9c1.1-2.4,2.2-4.8,3.5-7.1c1.2-2.4,2.9-4.6,5-6.4c0.6-0.4,1.2-0.8,1.9-1.1c0.3-0.1,0.7-0.2,1-0.3l0.2-0.1
		c0,0-0.1,0-0.1,0c0-0.1,0.1-0.2,0.1-0.3c0.3-1.2,0.5-2.5,0.5-3.7l0.2-2c0-0.3,0-0.7,0.1-1c0-0.1,0-0.2,0-0.3c0-0.1,0.1-0.2,0.1-0.3
		c0.1-0.3,0.3-0.5,0.6-0.7c0.4-0.2,0.8-0.4,1.2-0.4c0.4-0.1,0.7-0.1,1.1-0.1c0.7,0,1.4,0,2.1,0.1h0.1c1.1,0.3,2.2,0.6,3.2,1
		c0.5,0.2,1.1,0.5,1.6,0.7c0.6,0.3,1.1,0.7,1.5,1.1c0.3,0.3,0.5,0.7,0.5,1.1c0,0.2,0,0.4,0,0.6c0,0.2-0.1,0.3-0.1,0.5
		c-0.1,0.3-0.2,0.6-0.3,0.8c-0.1,0.3-0.3,0.5-0.4,0.8c-0.5,1-1.1,1.9-1.7,2.8c-1.2,1.8-2.5,3.6-3.8,5.4c-0.7,0.9-1.3,1.8-2,2.6
		c-0.1,0.2-0.2,0.3-0.4,0.4c-0.2,0.1-0.4,0.2-0.6,0.3c-0.4,0.1-0.7,0.1-1.1,0l-0.4-0.1c-0.1,0-0.3,0-0.1,0h0.1c0,0,0.1-0.1,0.1-0.1
		l0-0.1l0,0c0,0,0,0.1,0,0.1c0,0.2,0.1,0.3,0.2,0.4l0.1,0.1l0,0l0,0c0,0,0.1,0.1,0.1,0.1c0,0.1,0.1,0.1,0.1,0.2
		c0.1,0.2,0.1,0.4,0,0.6c0,0.1-0.1,0.2-0.1,0.3c-0.3,0.5-0.6,1-0.9,1.5c-0.6,0.9-1.3,1.8-1.9,2.7c-1.3,1.8-2.7,3.5-4,5.2
		s-2.8,3.4-4.2,5.1c-0.7,0.8-1.4,1.7-2.1,2.5c-0.4,0.4-0.7,0.8-1.1,1.2l-0.2,0.2l-0.1,0.1l-0.1,0.1c-0.1,0.1-0.3,0.1-0.4,0.2
		c-0.2,0.1-0.3,0.1-0.5,0.1c-0.2,0-0.5-0.1-0.7-0.2l0.6-0.3l0,0v1.4l0,0c0,0.1,0,0.2-0.1,0.3c-1.1,1.1-2.2,2.2-3.4,3.1
		c-1.2,1-2.4,1.9-3.7,2.8c-1.3,0.9-2.7,1.6-4.1,2.2c-0.7,0.3-1.4,0.6-2.2,0.8l-0.6,0.2l-0.3,0.1L878,682
		C877.6,682.1,877.1,682.1,876.6,682.1L876.6,682.1z"/>
	<path class="st4" d="M847.1,774.7c-6,0-11.1-4.3-12.3-10.1l-12.5-64.2c-1.3-6.8,3.1-13.3,9.9-14.7c0.9-0.2,1.8-0.2,2.7-0.2
		l99.1,2.6c5.7,0.1,10.6,4.2,11.9,9.8l12.7,56.9c1.5,6.7-2.7,13.4-9.5,14.9c-0.7,0.2-1.4,0.3-2.1,0.3v-0.6v0.6l-99.2,4.7H847.1z
		 M834.6,686.8c-6.2,0-11.2,5.1-11.2,11.3c0,0.7,0.1,1.4,0.2,2.1l12.5,64.2c1.1,5.5,6,9.3,11.6,9.1l99.2-4.7
		c6.2-0.3,11-5.6,10.7-11.8c0-0.6-0.1-1.2-0.2-1.8l-12.7-57c-1.1-5-5.5-8.7-10.7-8.8l-99.1-2.5L834.6,686.8z"/>
	<path class="st4" d="M947.2,772.2c-17.3,1.1-34.6,2.2-51.8,3.3l-25.9,1.7l-13,0.8l-13.1,0.7c-2.7,0.1-5.5-0.6-7.8-2
		c-2.4-1.3-4.4-3.3-5.8-5.6c-0.7-1.2-1.2-2.4-1.6-3.7c-0.4-1.4-0.5-2.4-0.7-3.5l-1.2-6.4l-4.7-25.5l-4.7-25.5l-1.1-6.4l-0.3-1.6
		c0-0.2-0.1-0.6-0.1-0.9l-0.1-1c-0.1-0.7,0-1.3,0-2s0.1-1.3,0.2-2c0.5-2.6,1.6-5,3.2-7c2.5-3,6.1-4.9,10-5.2c0.6,0,1.3,0,1.9,0
		l1.6,0.1l6.5,0.3l13,0.6l26,1.1c17.3,0.8,34.6,1.5,51.9,2.1l3.2,0.1c1.1,0,2.3,0.1,3.4,0.4c2.2,0.5,4.3,1.6,6,3.2
		c1.7,1.6,2.9,3.5,3.6,5.7c0.3,1.1,0.5,2.2,0.8,3.2l0.7,3.2c1.8,8.5,3.7,16.9,5.7,25.3c1.9,8.4,4,16.9,6,25.3l0.8,3.2
		c0.1,0.5,0.3,1,0.4,1.6l0.2,0.9l0.1,0.9c0.2,2.4-0.3,4.8-1.4,6.9c-2.2,4.4-6.6,7.4-11.5,7.7L947.2,772.2z M947,769.2
		c6.1-0.3,10.8-5.4,10.6-11.5v-0.7l-0.1-0.7c-0.1-0.5-0.2-1-0.3-1.5l-0.6-3.2c-1.7-8.5-3.4-17-5.2-25.4s-3.6-16.9-5.5-25.4l-0.7-3.2
		c-0.2-1-0.5-2.1-0.8-3.1c-0.6-2-1.8-3.7-3.3-5.1c-1.5-1.4-3.4-2.3-5.4-2.8c-1-0.2-2-0.3-3.1-0.3l-3.2-0.1
		c-17.3-0.3-34.6-0.6-51.9-0.7l-26-0.3l-13-0.2l-6.5-0.1h-1.6l-1.3,0.1c-0.9,0.1-1.7,0.3-2.5,0.7c-1.6,0.7-3,1.7-4.1,3.1
		c-1.1,1.4-1.7,3-2,4.7c-0.1,0.4-0.1,0.9-0.1,1.3s0,0.9,0.1,1.3l0.1,0.6c0,0.2,0.1,0.4,0.1,0.7l0.3,1.6l1.3,6.4l5.2,25.4l5.1,25.5
		l1.3,6.4c0.2,1,0.4,2.2,0.6,2.9c0.2,0.8,0.6,1.5,1,2.2c0.8,1.4,2,2.5,3.4,3.3c1.4,0.8,3,1.2,4.6,1.2l12.8-0.5l13-0.4l26-0.7
		C912.5,770.3,929.8,769.7,947,769.2L947,769.2z"/>
	<path class="st4" d="M951.5,776.3l-27.3,1.1c-9.1,0.4-18.2,0.9-27.3,1.5l-27.2,1.7l-27.2,1.8l-13.6,0.9c-1.2,0.1-2.2,0.2-3.5,0.2
		c-1.3,0-2.5-0.1-3.8-0.4c-2.5-0.5-4.9-1.7-6.9-3.3c-2.1-1.6-3.7-3.8-4.7-6.2c-0.5-1.2-0.8-2.4-1-3.6l-0.7-3.3l-2.8-13.4l-11.1-53.5
		c0-0.2-0.1-0.4-0.1-0.6l0,0c0.1-1.9,0.5-3.7,1.4-5.3c0.4-0.7,0.8-1.4,1.2-2.1c0.4-0.7,0.9-1.3,1.4-1.9c1.9-2.3,4-4.4,6.3-6.2
		c2.2-1.8,4.5-3.5,6.9-5c1.2-0.8,2.4-1.5,3.6-2.2l1.8-1c0.3-0.2,0.7-0.4,1-0.5s0.8-0.4,1.1-0.5c1.5-0.6,3.2-1.1,4.8-1.3
		c0.8-0.1,1.7-0.1,2.5-0.1l2.1,0.1l8.1,0.4l16.2,0.7c10.8,0.5,21.6,1.1,32.5,1.6s21.6,1.2,32.5,1.9l16.2,1l2,0.1
		c0.8,0,1.6,0.1,2.3,0.2c1.6,0.2,3.2,0.7,4.6,1.3c3,1.3,5.6,3.4,7.4,6.2c0.9,1.4,1.6,2.9,2.1,4.5c0.1,0.4,0.2,0.8,0.3,1.2l0.2,1
		l0.4,2l1.7,8l3.4,15.9c2.2,10.6,4.5,21.2,6.8,31.8l0.9,4l0.4,2c0.1,0.7,0.3,1.3,0.4,2.1c0.3,1.5,0.3,3,0.1,4.5
		c-0.2,1.5-0.7,2.9-1.4,4.3c-1.3,2.6-3.4,4.9-5.9,6.4C957.2,775.4,954.3,776.2,951.5,776.3z M951.3,774.1c2.5-0.2,5-1,7.1-2.3
		c2.1-1.4,3.7-3.3,4.8-5.5c0.5-1.1,0.8-2.3,1-3.5c0.1-1.2,0.1-2.4-0.2-3.6c-0.1-0.6-0.3-1.3-0.5-1.9l-0.5-2l-1-3.9
		c-2.6-10.5-5.3-21-8-31.5l-4-15.7l-2-7.9l-0.5-2l-0.2-1c-0.1-0.3-0.2-0.5-0.2-0.8c-0.3-1-0.8-2-1.5-2.8c-1.3-1.8-3.1-3.1-5.1-3.9
		c-1-0.4-2.1-0.7-3.2-0.8c-0.5-0.1-1.1-0.1-1.7-0.1l-2-0.1l-16.3-0.5c-10.8-0.4-21.7-0.8-32.5-1.3s-21.7-1-32.5-1.5l-16.2-0.8
		l-8.1-0.4l-1.9-0.1c-0.5,0-1,0-1.5,0.1c-1,0.1-2,0.3-3,0.7c-0.2,0.1-0.5,0.2-0.7,0.3s-0.5,0.2-0.8,0.4l-1.7,0.9
		c-1.1,0.7-2.3,1.3-3.4,2c-2.2,1.4-4.3,2.8-6.3,4.4c-2,1.5-3.8,3.2-5.4,5.1c-0.4,0.4-0.7,0.9-1.1,1.4c-0.3,0.4-0.6,0.9-0.9,1.4
		c-0.4,0.7-0.7,1.6-0.8,2.4l-0.1-0.6l9.5,53.8l2.3,13.5l0.6,3.4c0.1,1,0.4,2,0.7,3c0.7,1.8,1.8,3.4,3.3,4.7c0.8,0.6,1.6,1.2,2.5,1.7
		c0.9,0.5,1.8,0.8,2.8,1.1c1,0.3,2,0.4,3,0.5c1,0,2.2,0,3.3-0.1l13.7-0.5l27.3-1l27.3-1.1c9.1-0.4,18.2-0.8,27.3-1.4L951.3,774.1z"
		/>
	<path class="st4" d="M809.5,758.7c0.3,1.5,0.6,3.1,1,4.6s0.8,3,1.2,4.5c0.8,3,1.9,5.9,3.1,8.8c1.1,2.8,2.7,5.4,4.5,7.7
		c0.9,1.1,1.9,2.1,3,2.9c1,0.8,2.2,1.3,3.5,1.6c0.6,0.1,1.2,0.2,1.9,0.3l2.3,0.1c1.6,0,3.1,0.1,4.7,0c3.1,0,6.3-0.1,9.4-0.2
		s6.3-0.3,9.4-0.5c1.6-0.2,3.2-0.2,4.7-0.2c1.7,0.1,3.4,0.7,4.9,1.6l0,0l-0.2,0.1c1.7-1.3,3.5-2.6,5.3-3.7c1.8-1.1,3.7-2.2,5.6-3.1
		s3.8-1.9,5.8-2.8s3.9-1.7,6-2.4l0.6,1.1c-1.7,1.3-3.5,2.5-5.3,3.6s-3.7,2.2-5.6,3.2s-3.8,2-5.7,2.9c-1.9,0.9-4,1.7-6,2.3l-0.2,0.1
		l0,0c-1.3,1.2-2.9,2-4.6,2.4c-1.6,0.3-3.2,0.4-4.8,0.5c-3.2,0.2-6.4,0.3-9.6,0.4c-3.2,0.1-6.4,0.1-9.6,0c-1.6,0-3.2-0.1-4.8-0.2
		l-2.4-0.2c-1-0.1-1.9-0.3-2.8-0.5c-1.8-0.6-3.5-1.5-5-2.7c-1.4-1.2-2.6-2.5-3.6-3.9c-1-1.4-1.8-2.9-2.5-4.4c-0.7-1.5-1.3-3-1.8-4.6
		c-2-6.2-3.1-12.6-3.3-19.1L809.5,758.7z"/>
	<path class="st4" d="M921.8,788.5l-0.1-1.2l17.4-1c1.2-0.5,14.9-5.7,23.4-11.3c7.3-4.8,0.4-24.7,0.3-24.9l1.2-0.4
		c0.3,0.8,7.3,21-0.8,26.3c-8.9,5.9-23.6,11.4-23.7,11.4c-0.1,0-0.1,0-0.2,0L921.8,788.5z"/>
	<path class="st4" d="M884.3,779.2c4.6,2.8,8.9,5.9,12.9,9.4l6.2,5.1l3.1,2.5l1.5,1.3c1.1,1,2.7,1.1,3.9,0.2
		c0.2-0.1,0.4-0.3,0.5-0.5l0.2-0.3l0.3-0.4l1.2-1.6l4.8-6.3c1.6-2.1,3.2-4.2,4.9-6.3s3.3-4.2,4.9-6.3l1,0.7c-1.5,2.2-3,4.4-4.5,6.6
		s-3,4.4-4.5,6.6l-4.6,6.5L915,798l-0.3,0.4c-0.1,0.1-0.2,0.3-0.4,0.5c-0.3,0.3-0.6,0.6-0.9,0.9c-2.2,1.6-5.1,1.5-7.2-0.2l-1.6-1.2
		l-3.1-2.5l-6.2-5c-4.2-3.2-8.2-6.8-11.8-10.8L884.3,779.2z"/>
	<path class="st4" d="M863.5,790.1c1.4,0.1,2.7,0.3,4,0.7c1.2,0.4,2.4,0.8,3.5,1.3c2.2,1,4.3,2.3,6.2,3.8c3.9,2.8,7.7,5.8,11.5,8.8
		l1.1,0.8c0.2,0.2,0.4,0.3,0.7,0.4c0.5,0.2,1.1,0.2,1.7,0.1l0.2,0c0.1,0,0.2-0.1,0.3-0.1l0.8-0.4l1.7-0.7l3.3-1.4
		c4.5-1.8,9-3.6,13.7-5l0.6,1.1c-3.8,3.1-7.8,5.8-11.8,8.5l-3,2l-1.5,1l-0.8,0.5c-0.1,0.1-0.3,0.2-0.5,0.3s-0.4,0.2-0.6,0.3
		c-1.7,0.7-3.6,1-5.4,0.6c-0.9-0.2-1.8-0.5-2.7-0.9c-0.2-0.1-0.4-0.2-0.6-0.3l-0.5-0.3l-0.8-0.5c-4-2.7-8-5.4-11.9-8.2
		c-2-1.4-3.8-2.9-5.5-4.7c-0.8-0.9-1.6-1.9-2.3-3c-0.8-1.1-1.4-2.3-1.9-3.6L863.5,790.1z"/>
	<path class="st4" d="M896,753.5c-0.3,0-0.5,0-0.8-0.1c-4.2-0.6-10-5-17.3-13.1c-3.5-3.8-6.8-7.8-9.8-12.1l0,0
		c-0.2-0.3-4.8-7.2-3-14c0.9-3.5,3.3-6.2,7.1-8.3c5.3-2.8,12.7,1.2,14.3,2.1c1.7-0.8,8.3-3.9,11.1-3.5c18.1,2.7,16.2,22.2,16.2,22.3
		c0.1,8.5-5.6,18.6-11.2,23.4C900.2,752.4,898,753.5,896,753.5z M869.3,727.7c1.4,2.2,17.3,23.1,26.2,24.5c1.7,0.3,3.9-0.7,6.3-2.8
		c5.3-4.6,10.8-14.3,10.7-22.5c0.1-0.8,1.8-18.5-15.1-21c-2.2-0.3-8.4,2.5-10.6,3.5c-0.2,0.1-0.4,0.1-0.6,0c-0.1,0-8.1-5-13.3-2.3
		c-3.5,1.8-5.6,4.3-6.4,7.4C864.8,720.9,869.1,727.6,869.3,727.7C869.2,727.7,869.2,727.7,869.3,727.7L869.3,727.7z"/>
	<path class="st4" d="M878.8,706.6c-3.2-0.2-6.5,0.5-9.4,1.9c-1.3,0.7-2.5,1.6-3.4,2.7c-0.9,1-1.6,2.3-2.1,3.6
		c-0.4,1.4-0.6,2.8-0.6,4.2c0,1.5,0.2,2.9,0.5,4.3c0.7,2.9,2.1,5.6,3.9,8l1.4,1.7l1.7,1.9c1.1,1.2,2.3,2.5,3.4,3.8
		c2.3,2.5,4.6,4.9,7,7.3c2.2,2.3,4.7,4.5,7.3,6.3c0.6,0.4,1.2,0.7,1.8,0.9c0.3,0.1,0.6,0.1,0.8,0.1c0.4,0,0.8,0,1.1,0
		c1.6-0.1,3.2-0.4,4.7-1l0.8,1c-1.4,1.3-3,2.3-4.8,2.9c-0.5,0.2-0.9,0.3-1.4,0.4c-0.6,0.1-1.1,0.2-1.7,0.2c-1.1-0.1-2.1-0.3-3.1-0.7
		c-1.8-0.7-3.4-1.5-5-2.6c-1.5-1-3-2-4.4-3.2c-2.8-2.2-5.4-4.6-7.8-7.1c-1.2-1.3-2.4-2.5-3.6-3.8l-1.7-2l-1.8-2.2
		c-0.5-0.8-1.1-1.6-1.6-2.4s-1-1.7-1.3-2.6c-0.4-0.9-0.7-1.8-1-2.8c-0.1-0.5-0.3-1-0.4-1.4l-0.3-1.5c-0.3-2-0.4-4-0.2-5.9
		c0.2-2,0.7-4,1.5-5.8c0.9-1.9,2.2-3.5,3.8-4.8c1.5-1.3,3.3-2.3,5.2-2.9c3.6-1.1,7.4-1,11,0.2L878.8,706.6z"/>
	<path class="st4" d="M962.4,289.6c-8-18-17.6-23.3-30.9-22.4c-7.2,0.7-10.4,11-9.3,29.6c0,0.5-3.7,55.6,18.4,63.8
		c9.5,3.2,20.7,1.1,30.2-4.6c25.6-16.9,25.3-27.4,18.3-34.2C981.4,315.9,963.3,293.9,962.4,289.6z"/>
	<path class="st19" d="M986.6,287c0.8-4,1.1-8.1,1-12.2c0-0.6-0.8-1.4-1.6-1.7c-2.5-0.5-9.5-5-15.3-6.6c-6-1.9-10.8-1-13.1,2.8
		c-2.3,2.4,0.6,8.3,7.3,12.7c6.3,4.5,16.4,7.7,19.7,6.7C985.5,288.6,986.4,287.9,986.6,287z"/>
	<path class="st19" d="M893.8,255c-3.2,4.8-6.8,9.4-10.8,13.6c0.6,3.5,6,7.6,6.5,8.2c1.9,5.5,12.7,6,15.3,0.3c4.3-8.8,2-10.1-0.8-12
		c-2.9-1.5-6.2-3.8-7.2-5.8C896.7,258.6,896,258.2,893.8,255z"/>
	<path class="st18" d="M1175.8,492.9c-0.8,0-1.7-0.2-2.4-0.5c-0.4-0.1-43.3-13.2-94.7-35.3c-45.8-19.6-107.7-50.5-146.5-87.3
		c-1.7-1.1-3.1-2.6-4.3-4.2l1.5-1.3c1.3,1.3,2.6,2.6,4,3.9c10.1,7,29.6,4.9,44.3-2c19-8.9,28-23.2,24.1-38.3l-1.3-4.8l3,4
		c0.2,0.2,19.3,25.3,28.7,43c4.8,8.9,25.3,35.6,37.2,50.6c4.4,5.6,10.2,9.9,16.8,12.5c21.7,8.6,72.6,28.8,94.9,41.7
		c4.2,2.4,4.4,8,2.4,12.2C1181.9,490.3,1179.1,492.9,1175.8,492.9z M938.4,372.9c77.3,68.9,234,117.1,235.6,117.6
		c3.3,1.2,6.1-1.2,7.6-4.2c1.6-3.4,1.6-7.8-1.6-9.6c-22.2-12.9-73-33-94.7-41.6c-6.9-2.8-13-7.3-17.6-13.2l0,0
		c-11.9-15.1-32.5-41.8-37.4-50.9c-7.3-13.7-20.4-31.9-25.9-39.3c1.6,14.5-7.8,27.8-26,36.4C965.5,374.1,949.6,376.5,938.4,372.9
		L938.4,372.9z"/>
	<path class="st18" d="M899.1,623.1c-2.1,0-4.2-0.5-6-1.6c-2.9-1.9-4.9-4.9-5.5-8.3v-0.1v-0.1c0.1-0.9,11-88.5,13.6-103.3
		c4.9-27.9,27.7-143.6,27.9-144.8l2,0.4c-0.2,1.2-23,116.9-27.9,144.7c-2.5,14.5-13,98.8-13.5,103c0.6,2.8,2.2,5.2,4.6,6.8
		c2.8,1.7,6.7,1.7,11.4,0c2.5-3,12.9-43.9,20.6-73.8c6.1-23.7,11.3-44.2,13.1-48.6c6.6-16.1,43.3-89.7,43.7-90.5l1.8,0.9
		c-0.4,0.7-37.1,74.2-43.6,90.3c-1.7,4.3-7.2,25.7-13,48.3c-14.2,55.6-19.4,74.3-21.7,75.1C904.1,622.5,901.6,623,899.1,623.1z"/>
	<path class="st18" d="M932.6,262c4.4-0.6,8.8-0.8,13.2-0.5c4.4,0.2,8.8,0.7,13.1,1.4c4.3,0.8,8.6,1.9,12.8,3s8.5,2.1,12.7,3.3
		c2.1,0.6,4.2,1.3,6.3,2.1c1.1,0.4,2.1,1,3.1,1.6c0.3,0.2,0.5,0.4,0.8,0.7c0.1,0.2,0.3,0.4,0.3,0.6c0.1,0.2,0.1,0.5,0.1,0.8
		c0,0.6-0.1,1.2-0.2,1.8c-0.4,2.2-0.9,4.4-1.6,6.5c-0.6,2.1-1.4,4.2-2.2,6.3c-0.4,1-0.9,2.1-1.5,3.1c-0.3,0.6-0.7,1.1-1.1,1.6
		c-0.1,0.1-0.3,0.2-0.4,0.3c-0.1,0.1-0.3,0.1-0.4,0.2c-0.2,0.1-0.4,0.1-0.7,0.1c-0.3,0-0.7,0-1-0.1c-1.1-0.2-2.2-0.6-3.3-1
		c-1-0.4-2.1-0.8-3.1-1.3c-4-1.9-7.9-4-11.6-6.3l0.1-0.2c4.1,1.6,8.1,3.3,12.2,4.8c1,0.4,2,0.7,3,1c1,0.3,2,0.6,3,0.7
		c0.2,0,0.4,0,0.6,0c0,0,0.1,0,0.2,0l0,0c0,0-0.2,0.1-0.1,0.1c0.3-0.4,0.5-0.7,0.7-1.1c0.5-0.9,0.9-1.9,1.3-2.9c1.7-3.9,3-8,4-12.2
		c0.1-0.5,0.2-1,0.2-1.5c0-0.2,0,0,0,0c0,0,0-0.1-0.1-0.1c-0.1-0.2-0.3-0.3-0.4-0.4c-0.8-0.6-1.7-1.2-2.6-1.6c-1.9-1-3.9-1.8-6-2.6
		c-4.1-1.5-8.3-2.7-12.6-3.5c-4.3-0.8-8.6-1.4-12.9-1.9c-8.6-1.3-17.3-2.1-25.9-2.5L932.6,262z"/>
	<path class="st18" d="M990.1,288.4c4,0.6,7.9,1.5,11.8,2.8c3.8,1.2,7.6,2.6,11.4,4.1l5.6,2.2c1.9,0.7,3.8,1.5,5.6,2.4
		c3.6,2,6.9,4.2,10.3,6.3c6.8,4.4,13.4,8.9,19.9,13.5l9.8,7l4.9,3.4l2.5,1.7c0.8,0.5,1.6,1,2.5,1.5l0.3,0.2v0.3
		c-0.4,2.3,0,4.6,1,6.6c1,2.1,2.5,3.9,4.4,5.2c0.9,0.7,2,1.1,3.1,1.2c0.5,0.1,0.9-0.1,1.2-0.5c0.1-0.2,0.1-0.5,0.2-0.7
		c0-0.1,0-0.3,0-0.4c0-0.1,0-0.2-0.1-0.4c-0.1-0.4-0.6-0.6-1.1-0.7c-0.6-0.1-1.2-0.3-1.8-0.5c-0.6-0.4-1-1-1.1-1.7
		c0-0.3-0.1-0.6,0-1l0.1-0.9v-0.3h0.3c0.6-0.1,1.2-0.1,1.9,0c0.6,0.1,1.2,0.3,1.8,0.5c1.1,0.5,2.1,1.2,3,2c1.7,1.6,3.3,3.4,4.8,5.4
		c0.7,0.8,1.7,1.3,2.7,1.4c1.1,0.2,2.2,0.1,3.2-0.1c1-0.2,1.8-0.7,2.3-1.6c0.1-0.4,0.1-0.8-0.1-1.2c-0.1-0.2-0.2-0.5-0.4-0.7
		l-0.4-0.8c-0.5-1-1.2-2-1.8-2.9s-1.4-1.9-2.2-2.7c-1.5-1.8-3.2-3.3-5-4.7c-1.8-1.4-3.8-2.6-5.9-3.5c-1-0.4-2.1-0.7-3.2-0.9
		c-1-0.2-2-0.1-3,0.2l-0.5,0.2l-0.4-0.3c-6.7-5-13.4-9.9-20-14.9s-13.3-10-19.9-15.1l-5-3.8l-2.6-2c-0.8-0.6-1.7-1.2-2.5-1.7
		c-3.5-2.1-7.2-4.1-10.9-5.9c-7.5-3.6-15.3-6.5-23.3-8.6l0-0.2c8.2,1.7,16.2,4.2,23.8,7.6c3.9,1.6,7.6,3.5,11.2,5.6
		c0.9,0.5,1.8,1.1,2.7,1.7l2.5,1.9l5,3.7c6.7,4.9,13.4,9.9,20.1,14.9c6.7,5,13.3,10,19.9,15.1l-0.9-0.1c1.3-0.4,2.7-0.4,4-0.2
		c1.2,0.2,2.4,0.6,3.6,1.1c2.2,1,4.4,2.2,6.3,3.8c1.9,1.5,3.6,3.2,5.2,5.1c0.8,0.9,1.5,1.9,2.2,2.9c0.7,1,1.3,2,1.9,3.1l0.4,0.8
		c0.2,0.3,0.3,0.6,0.4,0.9c0.3,0.7,0.3,1.5,0,2.2c-0.3,0.7-0.8,1.2-1.4,1.6c-0.6,0.3-1.2,0.6-1.8,0.7c-1.2,0.3-2.5,0.3-3.8,0
		c-1.3-0.2-2.5-0.9-3.3-1.9c-1.3-1.9-2.8-3.7-4.5-5.4c-0.8-0.8-1.7-1.5-2.8-2c-0.5-0.2-1-0.4-1.6-0.5c-0.6-0.1-1.1-0.1-1.7,0
		l0.3-0.3l-0.1,0.8c0,0.3,0,0.5,0,0.8c0.1,0.5,0.3,0.9,0.8,1.2c0.5,0.2,1,0.4,1.6,0.5c0.3,0.1,0.6,0.2,0.9,0.3l0.2,0.1l0.2,0.2
		c0.1,0.1,0.2,0.3,0.3,0.5c0.1,0.2,0.1,0.3,0.1,0.5c0,0.2,0,0.3,0,0.5c0,0.3-0.1,0.7-0.2,1c-0.2,0.3-0.5,0.6-0.8,0.7
		c-0.3,0.1-0.7,0.1-1,0.1c-0.6,0-1.2-0.2-1.8-0.5c-0.6-0.2-1.1-0.5-1.6-0.9c-2-1.4-3.6-3.2-4.7-5.4c-0.6-1.1-1-2.2-1.1-3.5
		c-0.2-1.2-0.2-2.4,0-3.6l0.3,0.5c-1-0.4-1.9-0.9-2.8-1.5l-2.6-1.6l-5.1-3.3l-10-6.6l-20-13.5c-3.3-2.2-6.7-4.4-10.1-6.4
		c-1.7-0.9-3.6-1.6-5.4-2.5l-5.5-2.4c-3.7-1.6-7.4-3-11.2-4.4c-3.7-1.4-7.6-2.6-11.5-3.4L990.1,288.4z"/>
	<path class="st18" d="M892.4,254.7c-1.6,1.8-3.3,3.5-4.9,5.1s-3.3,3.3-4.9,5s-3.5,3.4-2.3,5.6c1.1,2.1,2.6,3.9,4.4,5.3
		c1.8,1.5,3.6,3,5.4,4.4l5.5,4.4c3.7,3,7.2,6.1,10.6,9.5l-0.1,0.2c-4.2-2.3-8.1-4.9-11.9-7.8c-1.9-1.5-3.7-3-5.4-4.6
		c-1.8-1.6-3.5-3.3-5-5.2c-1.6-1.8-3-3.8-4.2-5.9c-0.3-0.6-0.5-1.2-0.6-1.8c0-0.3,0-0.7,0-1c0.1-0.3,0.2-0.6,0.3-1
		c0.5-1.2,1.1-2.3,1.8-3.2c0.7-1,1.5-1.9,2.4-2.7c0.9-0.8,1.8-1.6,2.7-2.4c1.9-1.5,3.8-2.8,5.9-4L892.4,254.7z"/>
	<path class="st18" d="M906,263.9c1.4,0.9,2.8,1.9,4.1,3c1.3,1.1,2.5,2.3,3.5,3.7l-2-1.6c-0.7-0.5-1.3-1-2-1.6
		C908.2,266.3,907,265.2,906,263.9z"/>
	<path class="st20" d="M899.1,258.4c-2-1.5-4.8-3.6-4.8-3.6l0.5-0.7c0,0,2.8,2.1,4.8,3.6L899.1,258.4z"/>
	<path class="st18" d="M1197,537.4c-0.1,0-0.2,0-0.3,0h-0.1h-0.1h-0.2l-0.3-0.1l-0.7-0.2c-0.5-0.2-0.9-0.4-1.3-0.7
		c-0.9-0.5-1.6-1.3-1.9-2.3c-0.1-0.2-0.2-0.5-0.2-0.7c0-0.2-0.1-0.5-0.1-0.8c0-0.5,0-0.9-0.1-1.3c-0.1-0.9-0.2-1.8-0.3-2.7
		c-0.5-3.6-1.2-7.2-2-10.8c-0.8-3.6-1.9-7.1-3.2-10.5c-1.3-3.4-3-6.6-5.1-9.5c-0.8-0.9-0.9-2.2-0.2-3.2c0.4-0.5,1-0.8,1.6-0.8
		c0.6,0,1.1,0.1,1.6,0.4c0.4,0.2,0.9,0.5,1.3,0.8c0.3,0.2,0.7,0.5,1.1,0.6c0.3,0.1,0.7,0.2,1,0.1c0.3-0.1,0.7-0.3,0.9-0.5
		c0.6-0.6,1-1.3,1.3-2.1c0.3-0.8,0.5-1.7,0.7-2.5c0.1-0.9,0.2-1.8,0.2-2.6c0-0.8-0.2-1.6-0.5-2.3c0-0.1-0.1-0.1-0.1-0.1s0,0,0,0
		l-0.1,0c-0.2-0.1-0.4-0.2-0.7-0.3c-0.4-0.2-0.9-0.5-1.3-0.8c-0.9-0.6-1.5-1.5-1.8-2.6c0-0.3,0-0.5,0-0.8v-0.2c0-0.1,0-0.2,0-0.3
		c0.1-0.2,0.2-0.4,0.4-0.6c0.4-0.3,0.9-0.5,1.5-0.7c0.9-0.3,1.8-0.4,2.8-0.6c3.7-0.5,7.4-0.8,11.1-0.7l0,0c0.2,0,0.4,0.2,0.4,0.4
		c0,0.1-0.1,0.3-0.2,0.3c-0.6,0.3-1.1,0.6-1.5,1c-0.4,0.3-0.7,0.8-0.7,1.3c0.2,0.6,0.4,1.1,0.7,1.7l0.9,1.7c0.3,0.6,0.6,1.2,0.8,1.8
		c0.3,0.6,0.4,1.3,0.4,2c0,0.5-0.3,0.9-0.6,1.1c-0.3,0.1-0.2,0.1-0.3,0.2c-0.1,0.1-0.2,0.2-0.2,0.3c-0.3,0.5-0.5,1.1-0.6,1.7
		c-0.6,2.5-0.9,5-0.9,7.6c-0.1,2.6,0,5.1,0.2,7.7c0.1,1.3,0.2,2.6,0.4,3.8s0.5,2.5,0.7,3.8c0.3,2.6,0.2,5.2-0.2,7.8
		c-0.4,2.6-0.9,5.1-1.5,7.6c-0.3,1.3-0.7,2.5-1.1,3.8l-0.6,1.8l-0.3,0.9l-0.2,0.5l-0.1,0.2v0.1l-0.1,0.1
		C1197.1,537.2,1197,537.3,1197,537.4z M1196.6,536.7C1196.6,536.7,1196.5,536.7,1196.6,536.7L1196.6,536.7L1196.6,536.7l0-0.2
		l0.2-0.5l0.3-0.9l0.6-1.8c0.4-1.2,0.7-2.5,1-3.7c0.6-2.5,1.1-5,1.5-7.5c0.4-2.5,0.4-5.1,0.2-7.6c-0.2-1.2-0.5-2.5-0.7-3.8
		s-0.3-2.6-0.4-3.9c-0.2-2.6-0.3-5.2-0.2-7.8c0.1-2.6,0.4-5.2,0.9-7.8c0.2-0.7,0.4-1.3,0.7-1.9c0.1-0.2,0.2-0.3,0.4-0.5
		c0.1-0.1,0.3-0.2,0.5-0.3c0.2-0.1,0.2-0.3,0.3-0.5c0-0.6-0.1-1.2-0.4-1.7c-0.2-0.6-0.5-1.2-0.8-1.7l-0.9-1.7
		c-0.3-0.6-0.6-1.2-0.8-1.9c-0.1-0.4,0-0.8,0.2-1.2c0.2-0.3,0.4-0.6,0.7-0.9c0.5-0.5,1.1-0.8,1.7-1.1l0.2,0.8l0,0
		c-3.7,0.4-7.3,0.6-10.9,1.1c-0.9,0.1-1.8,0.3-2.6,0.5c-0.4,0.1-0.7,0.2-1,0.4c0,0,0,0.1,0,0s0,0,0,0.1v0.1c0,0.2,0,0.4,0,0.5
		c0.2,0.8,0.6,1.4,1.3,1.8c0.3,0.2,0.7,0.5,1.1,0.6c0.2,0.1,0.4,0.2,0.6,0.3c0.2,0.1,0.3,0.2,0.4,0.3c0.1,0.1,0.2,0.2,0.3,0.4
		c0.5,0.9,0.8,2,0.7,3c0,1,0,1.9-0.2,2.9c-0.1,1-0.4,1.9-0.7,2.8c-0.3,1-0.9,1.8-1.6,2.5c-0.4,0.4-0.9,0.6-1.5,0.8
		c-0.6,0.1-1.1,0-1.7-0.2c-0.5-0.2-0.9-0.5-1.3-0.8c-0.3-0.3-0.7-0.5-1.1-0.6c-0.3-0.2-0.7-0.3-1.1-0.3c-0.3,0-0.6,0.2-0.8,0.4
		c-0.4,0.6-0.3,1.4,0.2,1.9c2.2,3,4,6.3,5.3,9.8c1.3,3.5,2.4,7,3.2,10.6c0.8,3.6,1.5,7.2,1.9,10.9c0.1,0.9,0.2,1.8,0.3,2.8
		c0,0.5,0.1,0.9,0.1,1.4c0,0.2,0,0.4,0,0.6s0.1,0.4,0.2,0.6c0.3,0.8,0.9,1.4,1.6,1.9c0.4,0.2,0.7,0.4,1.2,0.6
		c0.2,0.1,0.4,0.2,0.6,0.2L1196.6,536.7l0.1-0.1h0.1c0,0,0.1,0,0,0C1196.7,536.6,1196.6,536.6,1196.6,536.7z"/>
	<path class="st18" d="M1188.1,498.9l-0.6-0.5c5.9-7.9,12.4-15.8,12.5-15.9l0.6,0.5C1200.5,483.2,1194,491.1,1188.1,498.9z"/>
	<path class="st18" d="M1191.2,525.9c-0.1-0.4-1.3-4.2,0.3-5.3c1.4-1,4.3,0.3,8.9,4l-0.5,0.6c-5.5-4.5-7.3-4.4-7.9-4
		c-1,0.7-0.3,3.5,0,4.4L1191.2,525.9z"/>
	<path class="st18" d="M1184.3,502l-0.1-0.8c0,0,2.3-0.2,3-1.6c0.4-0.8,0.3-1.9-0.5-3.3l0.7-0.4c0.9,1.6,1.1,3,0.5,4.1
		C1187,501.7,1184.4,502,1184.3,502z"/>
	<path class="st18" d="M1197,536.7c0.2-0.3,0.3-0.6,0.4-0.8c0,0,0.1-0.1,0.1-0.1l0.2-0.2l0.4-0.4c0.5-0.6,1-1.1,1.4-1.7
		c0.9-1.2,1.7-2.5,2.3-3.9c1.3-2.7,2.4-5.6,3.1-8.5v0.3l-0.7-1.2l0,0l0.4-0.6c-0.1,0,0.1,0,0.1-0.1c0.1-0.1,0.1-0.1,0.2-0.2
		c0.1-0.1,0.1-0.2,0.2-0.3c0,0,0-0.1,0-0.1v-0.2c0.1-0.5,0.2-1,0.3-1.6c0.2-1.1,0.3-2.2,0.5-3.2c0.3-2.2,0.6-4.3,0.9-6.5
		c0.3-2.2,0.6-4.3,0.8-6.5c0.1-1.1,0.2-2.2,0.3-3.2c0-0.5,0-1,0-1.5c0,0,0-0.1,0-0.1s-0.1,0,0.1,0.2c0.1,0,0.1,0.1,0.2,0.1h0.1h-0.1
		h-0.1l-0.3-0.1c-0.4-0.1-0.7-0.3-1-0.6c-0.2-0.2-0.3-0.4-0.3-0.6c0-0.1-0.1-0.3-0.1-0.4c0-0.1,0-0.2,0-0.3c0-0.1,0.1-0.2,0.1-0.2
		c0-0.1,0.1-0.1,0.1-0.1c0.2-0.2,0.4-0.3,0.6-0.3l0.4-0.1c0.2-0.1,0.3-0.1,0.5-0.3c0,0,0.1-0.1,0.1-0.1c0-0.1,0-0.2,0-0.2
		c0.1-1.1,0.3-2.2,0.4-3.2c0.2-2.2,0.4-4.3,0.5-6.5c0-1.1,0.1-2.2,0.1-3.2c0-0.3,0-0.5,0-0.8c0-0.2,0-0.5-0.1-0.7
		c-0.1-0.5-0.1-0.5-0.5-0.7c-0.4-0.1-0.9-0.2-1.4-0.1c-0.5,0-1,0.1-1.6,0.2c-1,0.2-2.1,0.4-3.1,0.7h0.1c-0.6,0.2-1.1,0.5-1.7,0.9
		c-0.2,0.2-0.5,0.3-0.7,0.5c-0.2,0.1-0.3,0.3-0.5,0.5c-0.2-0.1,0.2,0.7,0.5,1.2l0.8,1.8c0.6,1.2,1.1,2.5,1.5,3.8c0,0.2,0,0.5,0,0.7
		c0,0.2-0.1,0.4-0.2,0.5l-0.2,0.3c-0.2,0.3-0.4,0.5-0.6,0.7c-0.4,0.5-0.7,1-0.9,1.5c-0.8,2.4-1.2,4.9-1,7.5c0.1,2.6,0.2,5.2,0.5,7.8
		s0.5,5.2,0.7,7.8c0.2,2.6,0.2,5.3,0,7.9c-0.3,2.6-0.9,5.2-1.6,7.8c-0.3,1.3-0.7,2.5-1.1,3.8l-0.6,1.9l-0.3,0.9l-0.2,0.5l-0.1,0.2
		v0.1c0-0.1,0-0.1,0-0.2C1197.1,536.8,1197.1,536.8,1197,536.7z M1196.6,537.3c-0.1-0.1-0.1-0.2-0.1-0.3c0-0.1,0-0.2,0-0.3v-0.1
		l0.1-0.2l0.2-0.5l0.3-0.9l0.6-1.9c0.4-1.2,0.7-2.5,1-3.8c0.7-2.5,1.1-5.1,1.4-7.6c0.4-5.1-0.4-10.3-0.8-15.6
		c-0.2-2.6-0.5-5.2-0.5-7.9c-0.2-2.7,0.2-5.4,1.1-8c0.3-0.7,0.6-1.3,1.1-1.9c0.2-0.3,0.5-0.5,0.7-0.8l0.1-0.1c0,0,0,0.1,0,0.1
		c0-0.1,0-0.2,0-0.3c-0.4-1.2-0.8-2.4-1.4-3.5l-0.8-1.8c-0.2-0.3-0.3-0.6-0.4-0.9c0-0.1-0.1-0.2-0.1-0.3c0-0.1-0.1-0.2-0.1-0.4
		c0-0.3,0-0.6,0.1-0.9c0.2-0.4,0.5-0.7,0.8-1c0.3-0.2,0.6-0.4,0.9-0.6c0.6-0.4,1.2-0.7,1.8-1h0.1c1.1-0.3,2.2-0.6,3.3-0.8
		c0.6-0.1,1.1-0.1,1.7-0.2c0.6,0,1.3,0,1.9,0.2c0.4,0.1,0.7,0.3,1,0.6c0.1,0.2,0.2,0.3,0.3,0.5c0.1,0.2,0.1,0.3,0.1,0.5
		c0.1,0.3,0.1,0.6,0.1,0.9c0,0.3,0,0.6,0,0.9c0,1.1,0,2.2-0.1,3.3c-0.1,2.2-0.3,4.4-0.6,6.6c-0.1,1.1-0.2,2.2-0.4,3.3
		c0,0.2-0.1,0.4-0.1,0.5c-0.1,0.2-0.2,0.4-0.4,0.6c-0.3,0.3-0.6,0.4-0.9,0.6l-0.4,0.1c-0.1,0-0.2,0.1-0.1,0s0,0,0-0.1
		c0,0,0.1-0.1,0.1-0.1c0-0.1,0,0,0-0.1s0,0,0,0c0,0,0,0.1,0.1,0.1c0.1,0.1,0.3,0.2,0.4,0.2h0.1h0.1l0,0h0.1c0.1,0,0.1,0.1,0.2,0.1
		c0.2,0.1,0.3,0.3,0.3,0.5c0,0.1,0,0.2,0,0.3c0,0.6,0,1.2,0,1.7c-0.1,1.1-0.2,2.2-0.3,3.3c-0.2,2.2-0.5,4.4-0.8,6.5s-0.7,4.3-1,6.5
		c-0.2,1.1-0.4,2.2-0.6,3.2c-0.1,0.5-0.2,1.1-0.4,1.6l-0.1,0.2l-0.1,0.2l-0.1,0.1c-0.1,0.1-0.2,0.3-0.3,0.4
		c-0.1,0.1-0.3,0.2-0.4,0.3c-0.2,0.1-0.4,0.2-0.7,0.2l0.4-0.6l0,0l0.7,1.2l0,0c0,0.1,0,0.2,0,0.3c-0.4,1.5-0.8,3-1.4,4.4
		c-0.5,1.5-1.1,2.9-1.8,4.3c-0.7,1.4-1.5,2.7-2.4,4c-0.5,0.6-1,1.2-1.5,1.8l-0.4,0.4l-0.2,0.2l-0.3,0.2
		C1197.3,536.8,1196.9,537.1,1196.6,537.3z"/>
	
		<rect x="1179" y="488.7" transform="matrix(0.2865 -0.9581 0.9581 0.2865 369.0497 1481.8052)" class="st18" width="0.8" height="8.8"/>
	
		<rect x="1183.1" y="474.2" transform="matrix(0.5979 -0.8016 0.8016 0.5979 92.69 1140.8779)" class="st18" width="0.8" height="7.6"/>
	<path class="st18" d="M888.4,640.1l-0.9-0.1l2.5-22.4c0.2-1.2,19.3-121.5,23.1-139.6s22.2-106.4,22.4-107.3l0.9,0.2
		c-0.2,0.9-18.6,89.3-22.4,107.3s-22.9,138.3-23.1,139.5L888.4,640.1z"/>
	<path class="st18" d="M894.1,620.8l-0.9-0.2c0.2-1.2,20.8-115.1,24.5-133.2s24.3-106.1,24.5-107l0.9,0.2c-0.2,0.9-20.7,89-24.5,107
		C914.9,505.7,894.3,619.7,894.1,620.8z"/>
	<path class="st18" d="M901,620.8l-0.9-0.2c0.2-1.2,20.7-115.1,24.5-133.2s25.3-102.4,25.5-103.2l0.9,0.2
		c-0.2,0.9-21.7,85.1-25.5,103.1C921.7,505.7,901.2,619.7,901,620.8z"/>
	<path class="st18" d="M904.5,620.8l-0.9-0.2c0.2-1.1,24.8-111.9,28.6-129.9s27.5-98.2,27.7-99l0.9,0.3
		c-0.2,0.8-23.9,80.9-27.7,98.9S904.8,619.7,904.5,620.8z"/>
	<path class="st18" d="M903.5,627.3l-0.8-0.5c1.2-2,2.1-4.1,2.8-6.2l0.9,0.2C905.7,623.1,904.7,625.3,903.5,627.3z"/>
	
		<rect x="903.7" y="448" transform="matrix(0.2985 -0.9544 0.9544 0.2985 242.187 1226.457)" class="st18" width="103.4" height="0.9"/>
	
		<rect x="922.2" y="441.8" transform="matrix(0.3714 -0.9285 0.9285 0.3714 194.8773 1172.3756)" class="st18" width="82.1" height="0.9"/>
	
		<rect x="1035.2" y="329.1" transform="matrix(0.7749 -0.632 0.632 0.7749 -7.7426 740.3317)" class="st18" width="0.9" height="103.8"/>
	<path class="st18" d="M1183.4,481.3c-1.1-0.5-110.9-47.3-115-48.9c-4.1-1.6-66.9-79-69.6-82.3l0.7-0.6c18.1,22.4,65.9,80.7,69.2,82
		c4.1,1.6,114,48.5,115.1,48.9L1183.4,481.3z"/>
	<path class="st18" d="M1182.8,486c-4.5-1.8-110.9-45-118-48.9c-7.1-3.9-70.6-75.6-73.3-78.7l0.7-0.6c0.7,0.8,66.1,74.7,73,78.5
		s116.8,48.4,117.9,48.8L1182.8,486z"/>
	<path class="st18" d="M1179.2,491c-1.2-0.5-115-47.3-123.3-51c-8.3-3.8-74.9-69.9-77.7-72.7l0.7-0.7c0.7,0.7,69.3,68.8,77.5,72.5
		c8.2,3.7,122.1,50.6,123.3,51L1179.2,491z"/>
	<path class="st18" d="M1048,442.7c-10.3-4.8-73.2-64.9-80-71.6l0.7-0.7c6.8,6.6,69.6,66.6,79.7,71.4L1048,442.7z"/>
	<path class="st18" d="M1008,421.7c-7.7-4.5-26-21.8-39.3-34.5c-6.3-5.9-11.7-11-14.5-13.5l0.6-0.7c2.9,2.5,8.3,7.6,14.6,13.5
		c13.3,12.6,31.5,29.9,39.2,34.4L1008,421.7z"/>
	
		<rect x="960.4" y="367.5" transform="matrix(0.7081 -0.7061 0.7061 0.7081 6.7694 791.6007)" class="st18" width="0.9" height="40.3"/>
	<path class="st18" d="M875.4,245l-0.5-0.9c5.2-2.7,10.9-4.1,16.8-4.2v1C891.5,240.9,882.8,240.8,875.4,245z"/>
	<path class="st18" d="M875.7,207.2l-1-0.3c1.4-4.9,3.8-9.5,7.1-13.4l0.8,0.7C879.4,198,877.1,202.4,875.7,207.2z"/>
	<path class="st18" d="M891.3,253.8c-3.9-0.4-7.8-1.4-11.5-2.8c-2.6-1.2-4.5-3.5-5.2-6.3c-1.6-7.1-4.7-24.9,0.1-37.8l1,0.4
		c-4.7,12.6-1.6,30.2-0.1,37.2c0.5,2.5,2.2,4.6,4.5,5.7c3.6,1.4,7.4,2.3,11.2,2.7L891.3,253.8z"/>
	<path class="st18" d="M968.1,285.9c1.4,2.4,3.1,4.7,4.9,6.8c1.9,2.1,3.9,4,6.1,5.8c4.3,3.6,9,6.8,13.4,10.5c2.2,1.9,4.3,4,6.1,6.3
		c0.9,1.2,1.8,2.4,2.5,3.7c0.7,1.3,1.4,2.7,1.9,4.1c1.1,2.9,1.6,5.9,1.4,9c-0.2,3-1.1,6-2.5,8.7c-0.7,1.3-1.5,2.6-2.3,3.8
		c-0.9,1.2-1.8,2.3-2.8,3.4c-2,2.1-4.1,4.1-6.5,5.8c-4.6,3.4-9.6,6.4-14.8,8.7c-5.2,2.4-10.5,4.4-16,5.9c-2.8,0.7-5.6,1.3-8.4,1.7
		c-2.9,0.4-5.8,0.6-8.7,0.5c-3-0.1-5.9-0.8-8.6-1.9c-2.8-1.1-5.3-2.9-7.4-5.2c-2-2.3-3.5-4.9-4.7-7.6c-1.1-2.7-2-5.5-2.7-8.3
		c-1.3-5.6-2.2-11.2-3.4-16.7c-0.6-2.7-1.3-5.4-2.2-8s-1.9-5.3-2.8-7.9c-2.1-5.4-3.8-10.8-5.2-16.4c-0.7-2.9-1.1-5.8-1.2-8.7
		c-0.2-3,0.2-6,0.9-8.9c0.8-2.9,2.2-5.7,4.2-8c1.9-2.3,4.2-4.2,6.8-5.6c2.5-1.4,5.2-2.6,7.9-3.5c2.7-0.9,5.6-1.4,8.4-1.6v0.4
		c-2.8,0.5-5.5,1.3-8,2.4c-2.6,1.1-5,2.5-7.3,4c-2.3,1.5-4.3,3.4-5.9,5.5c-1.6,2.1-2.7,4.6-3.2,7.2c-1.2,5.2-0.4,10.7,1,16
		c1.5,5.4,3.3,10.7,5.3,15.9c1,2.7,2,5.3,2.9,8.1c0.9,2.8,1.6,5.6,2.2,8.4c1.1,5.6,1.9,11.2,3,16.7s2.8,10.8,6.1,14.9
		c1.7,2.1,3.8,3.7,6.2,4.9c2.5,1.1,5.1,1.9,7.8,2.1c5.6,0.5,11.2,0,16.6-1.4c5.5-1.4,10.8-3.3,15.8-5.9c5-2.5,9.7-5.6,14-9.3
		c4.2-3.5,7.7-7.8,10.2-12.7c1.2-2.4,1.9-4.9,2.1-7.5c0.2-2.6-0.2-5.2-1.1-7.7c-1.8-5-5.3-9.3-9.4-13.1s-8.6-7.2-12.8-11.2
		s-7.9-8.5-10.1-13.8L968.1,285.9z"/>
	<path class="st21" d="M870.8,201.7c-3.2,6.9-4.9,12.8-3.8,13.3s4.4-4.7,7.6-11.6s4.9-12.8,3.8-13.3s-3.9,3.9-6.8,9.9L870.8,201.7z"
		/>
	<path class="st18" d="M872,202.3c-1,2.1-1.9,4.2-2.7,6.4c-0.4,1.1-0.8,2.1-1.2,3.2c-0.2,0.5-0.3,1.1-0.4,1.6
		c-0.1,0.2-0.1,0.5-0.1,0.7c0,0.1,0,0.1,0,0.2l0,0c0,0,0-0.1-0.1-0.1c0,0-0.1-0.1-0.2-0.1c-0.1,0-0.1,0-0.2,0h-0.1c0,0,0,0,0,0
		c0.1,0,0.1-0.1,0.2-0.1c0.2-0.1,0.4-0.3,0.6-0.5c0.4-0.4,0.7-0.8,1.1-1.3c0.7-0.9,1.4-1.9,2-2.9c1.2-2,2.3-4.1,3.3-6.2
		c1-2.1,1.8-4.3,2.6-6.5c0.4-1.1,0.7-2.2,0.9-3.3c0.1-0.5,0.2-1.1,0.3-1.7c0-0.2,0-0.5,0-0.7c0-0.1,0-0.2,0-0.2l0,0
		c0,0,0,0.1,0.1,0.1c0,0,0.1,0.1,0.2,0.1c0.3,0.1,0.4,0,0.3,0.1c-0.1,0-0.1,0.1-0.2,0.1c-0.2,0.2-0.3,0.3-0.5,0.5
		c-0.3,0.4-0.7,0.9-1,1.4c-0.6,0.9-1.2,2-1.7,3C874,198.1,872.9,200.2,872,202.3z M869.7,201.2c1-2.2,2.1-4.3,3.4-6.3
		c0.6-1,1.3-2,2-3c0.4-0.5,0.8-1,1.2-1.4c0.2-0.2,0.5-0.5,0.8-0.7c0.2-0.1,0.4-0.2,0.5-0.3c0.4-0.2,0.8-0.2,1.2,0
		c0.1,0.1,0.2,0.1,0.3,0.2c0.1,0.1,0.1,0.2,0.2,0.3c0.1,0.1,0.1,0.3,0.2,0.4c0,0.2,0.1,0.4,0.1,0.6c0,0.3,0,0.7-0.1,1
		c-0.1,0.6-0.3,1.2-0.5,1.8c-0.3,1.2-0.8,2.3-1.2,3.4c-0.9,2.2-1.8,4.4-2.8,6.5s-2,4.3-3.1,6.4c-0.6,1.1-1.1,2.1-1.8,3.1
		c-0.3,0.5-0.7,1-1.1,1.5c-0.2,0.3-0.4,0.5-0.7,0.7c-0.2,0.1-0.3,0.3-0.5,0.4c-0.1,0.1-0.3,0.1-0.4,0.1c-0.1,0-0.2,0-0.3,0
		c-0.1,0-0.3-0.1-0.4-0.1c-0.1-0.1-0.2-0.1-0.3-0.2c-0.1-0.1-0.1-0.2-0.2-0.3c-0.1-0.1-0.1-0.3-0.2-0.4c-0.1-0.2-0.1-0.4-0.1-0.6
		c0-0.3,0-0.7,0-1c0.1-0.6,0.2-1.2,0.3-1.9c0.3-1.2,0.6-2.3,0.9-3.5C867.7,205.6,868.6,203.4,869.7,201.2L869.7,201.2z"/>
	<path class="st18" d="M907.1,214c1.7,1,2.9,2.6,3.6,4.5c0.6,2,0.2,4.1-1.1,5.7c-1.3,1.5-3.2,2.5-5.2,2.7c-1.9,0.2-3.9-0.1-5.6-0.9
		c1.8,0.5,3.7,0.6,5.5,0.3c1.8-0.3,3.4-1.2,4.5-2.6c1.1-1.4,1.4-3.2,1-4.9C909.4,216.9,908.4,215.3,907.1,214z"/>
	<path class="st18" d="M904,221.7c-0.4-0.4-0.6-0.5-0.6-0.5l0,0l-0.7-0.5l0.8-1.8l0.8,0.4l-0.5,1.1c0.3,0.2,0.6,0.4,0.9,0.7
		L904,221.7z"/>
	<path class="st4" d="M896.2,225.7c-2.4-1.1-6.7,0.9-7,5.9c1.6-2.2,4.3-3.2,7-2.8c-6.8,6.1-7.7,11.3-6.7,15.4c0,0,0.8-2.9,2.1-3.8
		c0,0-3.8,11.5,2.2,15.6c0.6-1.5,1.4-3,2.4-4.3c0,0,3.2,11.8,14.2,13.6c-0.6-2.4-0.9-4.9-1-7.4c0,0,2.7,5.1,7,7.4c0,0,0.9-5.2,3-7.4
		c0,0,3.5,1.2,2.9,4.4c4.9-1.3,9.1-4.4,11.9-8.6c0.7,0.8,1,1.7,0.9,2.8c0.4,0,0.7-0.1,1.1-0.2c1.6-0.7,2.8-2,3.3-3.6
		c0,0,0.1,3.4,3.3,2c0,0-1.5-1.1,0-3.7c2.9,1.3,6.2,1.3,9.2,0c0,0-5-14-1.9-19.2c0,0-0.2,4.8,1.9,6.1c-1.2-8-0.8-16.2,1.2-24
		c3.3-12.4-8.8-23.6-10.2-23.8s0.1-1.8,3.9-2c0,0-3.9-2.2-7.4,0c0,0-0.8-3.9-2.4-5.5s-5.7-0.7-7.9-1.6c0.3,1.2,1.3,2.1,2.6,2.3
		c-4.9-3.2-10.5-5.2-16.4-5.7c-9-0.4-11.7-2-11.7-2c0.1,1.3,1,2.3,2.2,2.7c0,0-6.4-0.1-10-1.7c-2.4-1-11.7-3-15.3,0.2
		c4.2,4.1,3.7,5.1,3.7,5.1c-4.7-5.5-5.6-6.9-5.6-11.9c0,0-4.8,8.5-2.2,16.3c2.1,6.2,10.2,11.5,16.3,12.3c0,0-2.8,6.7-0.8,7.5
		c0,0,19.4,6.3,18.4,14.1S902.1,227.4,896.2,225.7z"/>
	<path class="st20" d="M896.2,225.8c-0.8-0.3-1.7-0.4-2.6-0.1c-0.8,0.2-1.6,0.7-2.3,1.3c-0.6,0.6-1.1,1.3-1.5,2.1
		c-0.3,0.8-0.5,1.7-0.6,2.6h-0.1c1.2-1.6,3-2.6,5.1-2.8c0.7-0.1,1.3-0.1,2,0c0,0,0.1,0,0.1,0.1c0,0,0,0,0,0l0,0l0,0
		c-1.1,1-2.2,2.1-3.1,3.2c-0.9,1.1-1.8,2.4-2.4,3.7c-0.7,1.3-1.1,2.7-1.3,4.1c-0.2,1.4-0.1,2.9,0.2,4.3h-0.3
		c0.2-0.7,0.5-1.4,0.9-2.1c0.3-0.7,0.8-1.4,1.4-1.9c0.1-0.1,0.2,0,0.3,0.1c0,0.1,0,0.1,0,0.2l0,0c-0.4,1.3-0.7,2.7-0.9,4.1
		c-0.2,1.4-0.3,2.7-0.2,4.1c0,1.4,0.3,2.7,0.8,4c0.5,1.3,1.3,2.3,2.4,3.1l-0.4,0.1c0.6-1.6,1.4-3,2.4-4.4c0.1-0.1,0.3-0.2,0.4-0.1
		c0,0,0,0,0,0c0,0,0.1,0.1,0.1,0.1l0,0c0.5,1.6,1.2,3.2,2.1,4.6c0.9,1.5,1.9,2.8,3.1,4c1.2,1.2,2.5,2.2,4,3c1.5,0.8,3.1,1.3,4.8,1.6
		l-0.5,0.5c-0.6-2.4-0.9-4.9-1-7.5c0-0.2,0.2-0.4,0.4-0.4c0.1,0,0.3,0.1,0.4,0.2l0,0c0.8,1.5,1.9,2.8,3,4.1c1.1,1.3,2.4,2.3,3.9,3.1
		l-0.6,0.3c0.3-1.3,0.6-2.6,1.1-3.9c0.4-1.3,1.1-2.6,2-3.6c0.1-0.1,0.2-0.1,0.4-0.1c0.5,0.2,0.9,0.4,1.4,0.7c0.4,0.3,0.8,0.6,1.1,1
		c0.3,0.4,0.6,0.9,0.7,1.4c0.1,0.5,0.1,1.1,0,1.6l-0.4-0.4c1.2-0.3,2.3-0.7,3.4-1.3c1.1-0.5,2.2-1.1,3.2-1.9c1-0.7,1.9-1.5,2.8-2.4
		c0.8-0.9,1.6-1.8,2.3-2.9l0,0c0.1-0.1,0.3-0.2,0.4-0.1c0,0,0,0,0,0l0.1,0c0.3,0.4,0.6,0.9,0.8,1.4c0.2,0.5,0.2,1.1,0.2,1.6
		l-0.3-0.3c0.5,0,0.9-0.2,1.4-0.4c0.4-0.2,0.8-0.5,1.2-0.8c0.7-0.7,1.3-1.5,1.6-2.5c0.1-0.1,0.2-0.2,0.3-0.1c0.1,0,0.2,0.1,0.2,0.2
		l0,0c0,0.7,0.3,1.4,0.9,1.9c0.3,0.2,0.7,0.3,1,0.2c0.2,0,0.4-0.1,0.5-0.1l0.5-0.2l0,0.4c-0.3-0.2-0.5-0.6-0.7-1
		c-0.1-0.4-0.2-0.7-0.1-1.1c0.1-0.7,0.3-1.4,0.7-2c0.1-0.1,0.2-0.1,0.3-0.1l0,0c0.7,0.3,1.4,0.5,2.2,0.7c1.5,0.3,3.1,0.3,4.6,0
		c0.8-0.2,1.5-0.4,2.2-0.6l-0.1,0.2c-1.1-3.1-1.9-6.3-2.5-9.6c-0.3-1.6-0.4-3.3-0.4-4.9c-0.1-1.7,0.3-3.3,1-4.8
		c0-0.1,0.1-0.1,0.2-0.1c0,0,0.1,0.1,0.1,0.1l0,0c0,1.1,0.1,2.2,0.3,3.2c0.2,1.1,0.7,2,1.5,2.7l-0.3,0.2c-0.7-4.7-0.9-9.5-0.5-14.3
		c0.2-2.4,0.5-4.8,1-7.1c0.2-1.2,0.6-2.3,0.8-3.5c0.1-0.6,0.2-1.1,0.3-1.7l0.1-1.8c-0.2-4.7-1.8-9.3-4.7-13.1
		c-1.3-1.9-2.9-3.7-4.7-5.2c-0.2-0.2-0.4-0.4-0.7-0.5c-0.1-0.1-0.2-0.1-0.3-0.2l-0.1-0.1l-0.3-0.1c-0.1,0-0.2-0.1-0.3-0.2
		c-0.1-0.1-0.2-0.3-0.2-0.4c0-0.2,0.1-0.5,0.3-0.6c0.2-0.2,0.5-0.4,0.8-0.6c1.1-0.5,2.4-0.8,3.6-0.8l-0.2,0.6
		c-0.6-0.3-1.1-0.5-1.7-0.6c-0.6-0.2-1.2-0.2-1.8-0.3c-0.6,0-1.2,0-1.8,0.2c-0.6,0.2-1.2,0.4-1.7,0.7l0,0c-0.2,0.1-0.4,0-0.5-0.1
		c0,0,0,0,0,0c0,0,0-0.1,0-0.1c-0.2-1.1-0.6-2.2-1-3.3c-0.3-1-1-1.9-2-2.4c-1.1-0.3-2.2-0.5-3.4-0.5c-1.2,0-2.5-0.2-3.7-0.5l0.6-0.5
		c0.1,0.2,0.2,0.5,0.3,0.7c0.1,0.2,0.3,0.4,0.5,0.6c0.4,0.3,0.9,0.6,1.4,0.7l-0.3,0.8c-2-1.3-4.2-2.5-6.4-3.3
		c-2.3-0.9-4.6-1.6-7-1.9c-2.4-0.4-4.8-0.3-7.3-0.7c-1.2-0.1-2.5-0.3-3.7-0.6c-1.3-0.2-2.5-0.6-3.6-1.1l0.7-0.4
		c0,0.3,0.1,0.5,0.2,0.8c0.1,0.3,0.2,0.5,0.4,0.7c0.3,0.4,0.8,0.7,1.3,0.8l0,0c0.2,0.1,0.4,0.3,0.3,0.6c-0.1,0.2-0.2,0.3-0.4,0.3
		c-2.2-0.1-4.4-0.3-6.5-0.7c-1.1-0.2-2.2-0.5-3.2-0.9c-1-0.4-2-0.8-3-1c-2.1-0.5-4.2-0.7-6.3-0.7c-2.1,0-4.3,0.4-5.8,1.6v-0.7
		c0.8,0.8,1.5,1.5,2.2,2.4c0.4,0.4,0.7,0.9,1,1.3c0.2,0.2,0.3,0.5,0.4,0.8c0.1,0.1,0.1,0.3,0.2,0.4c0,0.1,0,0.2,0,0.3
		c0,0.1,0,0.1,0,0.2c0,0.1,0,0.2-0.1,0.3c-0.1,0.2-0.4,0.3-0.6,0.2c0,0,0,0,0,0c-0.1,0-0.1-0.1-0.2-0.1l0,0
		c-1.5-1.7-2.9-3.5-4.2-5.4c-0.6-1-1-2.1-1.3-3.3c-0.2-1.1-0.3-2.3-0.3-3.5l0.9,0.2c-1.5,2.8-2.4,5.8-2.8,8.9
		c-0.4,3.1,0.1,6.2,1.5,9c1.6,2.7,3.8,5,6.5,6.7c2.6,1.8,5.5,3,8.6,3.5c0.2,0,0.3,0.2,0.2,0.3c0,0,0,0,0,0.1
		c-0.5,1.2-0.9,2.5-1.2,3.8c-0.2,0.6-0.3,1.3-0.3,1.9c0,0.6,0.1,1.3,0.5,1.5l0,0c3.3,1.2,6.6,2.6,9.7,4.2c1.6,0.8,3.1,1.8,4.5,2.9
		c1.4,1,2.7,2.4,3.6,3.9c0.4,0.8,0.7,1.7,0.7,2.6v0.7l-0.1,0.7l-0.1,0.6c-0.1,0.2-0.1,0.4-0.2,0.6s-0.1,0.4-0.2,0.6l-0.3,0.6
		c-0.2,0.4-0.5,0.8-0.8,1.1c-0.6,0.7-1.3,1.2-2.2,1.5c-1.7,0.6-3.5,0.9-5.2,0.6C899.7,226.5,897.9,226.2,896.2,225.8z M896.2,225.7
		c1.7,0.5,3.4,0.8,5.2,0.9c1.7,0.2,3.5,0,5.1-0.7c1.2-0.5,2.2-1.4,2.8-2.6l0.3-0.6c0.1-0.2,0.1-0.4,0.2-0.6s0.1-0.4,0.2-0.6l0.1-0.6
		l0.1-0.6v-0.6c0-0.9-0.3-1.7-0.7-2.4c-0.9-1.5-2.1-2.8-3.5-3.8c-1.4-1.1-2.9-2-4.4-2.8c-3.1-1.6-6.3-3-9.7-4.1l0,0
		c-0.4-0.2-0.6-0.5-0.7-0.9c-0.1-0.3-0.1-0.7-0.1-1c0-0.7,0.1-1.3,0.3-2c0.3-1.3,0.7-2.6,1.2-3.8l0.2,0.4c-3.2-0.5-6.3-1.7-8.9-3.5
		c-2.7-1.8-5-4.1-6.7-6.9c-1.5-2.9-2.1-6.2-1.7-9.5c0.4-3.2,1.3-6.4,2.8-9.2c0.1-0.2,0.4-0.3,0.6-0.2c0.2,0.1,0.2,0.2,0.2,0.4l0,0
		c0,1.1,0.1,2.2,0.2,3.3c0.2,1.1,0.6,2.1,1.2,3c1.2,1.9,2.6,3.6,4.1,5.3l-0.8,0.1c0,0.1,0,0.1,0,0.1l0,0c0,0,0-0.1,0-0.1
		c0-0.1-0.1-0.2-0.1-0.3c-0.1-0.2-0.2-0.4-0.3-0.6c-0.3-0.4-0.6-0.8-0.9-1.2c-0.7-0.8-1.4-1.6-2.1-2.3l0,0c-0.2-0.2-0.2-0.5,0-0.6
		l0,0c0.9-0.7,2-1.2,3.1-1.5c1.1-0.3,2.2-0.4,3.3-0.4c2.2,0,4.4,0.3,6.6,0.8c1.1,0.2,2.1,0.6,3.2,1c1,0.4,2,0.6,3.1,0.8
		c2.1,0.4,4.2,0.6,6.4,0.7l-0.1,0.9c-0.4-0.1-0.7-0.2-1-0.4c-0.3-0.2-0.6-0.4-0.8-0.7c-0.2-0.3-0.4-0.6-0.5-0.9
		c-0.1-0.3-0.2-0.7-0.3-1c0-0.2,0.1-0.4,0.3-0.5c0,0,0,0,0,0c0.1,0,0.2,0,0.2,0l0,0c1.1,0.5,2.2,0.8,3.4,1c1.2,0.2,2.4,0.4,3.6,0.6
		c2.4,0.3,4.9,0.3,7.3,0.7c2.5,0.4,4.9,1.1,7.2,2c2.3,0.9,4.5,2.1,6.6,3.4c0.2,0.1,0.3,0.4,0.1,0.6c0,0,0,0,0,0
		c-0.1,0.1-0.3,0.2-0.4,0.2l0,0c-0.7-0.1-1.3-0.4-1.8-0.9c-0.3-0.2-0.5-0.5-0.7-0.8c-0.2-0.3-0.3-0.6-0.4-1
		c-0.1-0.2,0.1-0.4,0.3-0.5c0.1,0,0.2,0,0.2,0l0,0c1.1,0.3,2.2,0.5,3.4,0.5c1.2,0,2.5,0.2,3.6,0.6c0.6,0.3,1.2,0.7,1.5,1.2
		c0.4,0.5,0.7,1.1,0.9,1.6c0.5,1.1,0.8,2.3,1.1,3.5l-0.6-0.2c0.6-0.3,1.2-0.6,1.9-0.7c0.7-0.2,1.3-0.2,2-0.2c0.7,0,1.3,0.1,2,0.3
		c0.7,0.2,1.3,0.4,1.9,0.7c0.2,0.1,0.2,0.3,0.1,0.5c-0.1,0.1-0.2,0.2-0.3,0.2l0,0c-1.1,0-2.3,0.2-3.3,0.7c-0.2,0.1-0.4,0.2-0.6,0.4
		c0,0-0.1,0.1-0.1,0.1c0,0,0,0,0.1,0h0.2l0.3,0.1c0.2,0.1,0.3,0.2,0.4,0.3c0.3,0.2,0.5,0.4,0.7,0.6c1.8,1.6,3.4,3.4,4.8,5.4
		c2.9,3.9,4.5,8.6,4.7,13.4l-0.1,1.8c0,0.6-0.2,1.2-0.3,1.8c-0.2,1.2-0.6,2.3-0.8,3.5c-0.5,2.3-0.8,4.6-1,7
		c-0.4,4.7-0.3,9.5,0.4,14.2l0,0c0,0.1,0,0.2-0.1,0.2c0,0-0.1,0-0.1,0c-0.5-0.3-0.8-0.8-1.1-1.3c-0.3-0.5-0.4-1-0.5-1.6
		c-0.2-1.1-0.3-2.2-0.3-3.3l0.3,0.1c-0.7,1.5-1.1,3.1-1,4.7c0,1.6,0.2,3.3,0.5,4.9c0.6,3.2,1.4,6.4,2.5,9.5l0,0c0,0.1,0,0.2-0.1,0.2
		c0,0,0,0,0,0c-0.7,0.3-1.5,0.5-2.3,0.7c-0.8,0.2-1.6,0.2-2.4,0.3c-0.8,0-1.6-0.1-2.4-0.2c-0.8-0.1-1.6-0.4-2.3-0.7l0.3-0.1
		c-0.2,0.3-0.3,0.6-0.4,0.9c-0.1,0.3-0.2,0.6-0.2,0.9c0,0.3,0,0.6,0.1,0.9c0.1,0.3,0.3,0.5,0.5,0.7l0,0c0.1,0.1,0.1,0.2,0,0.3
		c0,0-0.1,0.1-0.1,0.1l-0.6,0.2c-0.2,0-0.4,0.1-0.6,0.1c-0.5,0-0.9-0.1-1.3-0.3c-0.4-0.2-0.7-0.6-0.8-1c-0.2-0.4-0.3-0.8-0.3-1.3
		l0.5,0.1c-0.4,1-1,1.9-1.7,2.7c-0.4,0.4-0.8,0.7-1.3,0.9c-0.5,0.2-1,0.4-1.6,0.4c-0.2,0-0.3-0.1-0.3-0.3c0,0,0,0,0-0.1l0,0
		c0.1-0.4,0-0.9-0.1-1.3c-0.2-0.4-0.4-0.8-0.7-1.2h0.5c-0.7,1.1-1.5,2.1-2.3,3c-1.7,1.8-3.8,3.3-6.1,4.4c-1.1,0.6-2.3,1-3.5,1.3
		c-0.2,0-0.4-0.1-0.4-0.2c0,0,0-0.1,0-0.1l0,0c0.1-0.4,0.1-0.9,0-1.3c-0.1-0.4-0.3-0.8-0.5-1.1c-0.3-0.3-0.6-0.7-1-0.9
		c-0.4-0.2-0.8-0.5-1.2-0.6l0.4-0.1c-0.8,1-1.4,2.1-1.8,3.4c-0.4,1.2-0.8,2.5-1,3.8l0,0c0,0.2-0.2,0.3-0.4,0.3h-0.1
		c-1.5-0.9-2.9-2-4.1-3.3c-1.2-1.3-2.2-2.7-3.1-4.2l0.8-0.2c0,1.2,0.1,2.4,0.3,3.6c0.2,1.2,0.4,2.4,0.6,3.6l0,0
		c0,0.2-0.1,0.4-0.3,0.5h-0.2c-1.7-0.3-3.4-0.9-5-1.7c-1.6-0.8-3-1.9-4.2-3.2c-1.2-1.3-2.3-2.7-3.2-4.2c-0.9-1.5-1.6-3.1-2.1-4.8
		l0.5,0.1c-1,1.3-1.8,2.7-2.4,4.2l0,0c-0.1,0.1-0.2,0.2-0.4,0.1l0,0c-1.2-0.9-2.1-2-2.6-3.4c-0.5-1.3-0.8-2.7-0.8-4.2
		c-0.1-1.4,0-2.8,0.2-4.2c0.2-1.4,0.5-2.8,0.9-4.1l0.3,0.2c-0.6,0.4-1,1-1.3,1.7c-0.3,0.7-0.6,1.3-0.8,2l0,0c0,0.1-0.1,0.1-0.2,0.1
		c-0.1,0-0.1-0.1-0.1-0.1c-0.3-1.5-0.4-3-0.2-4.5c0.2-1.5,0.7-2.9,1.4-4.2c0.7-1.3,1.5-2.5,2.5-3.7c1-1.1,2-2.2,3.1-3.2v0.2
		c-0.6-0.1-1.3-0.1-1.9,0c-2,0.2-3.8,1.2-5,2.8l0,0c0,0-0.1,0-0.1,0c0,0,0,0,0-0.1c0.1-0.9,0.3-1.8,0.6-2.6c0.3-0.8,0.9-1.6,1.5-2.2
		c0.7-0.6,1.5-1.1,2.3-1.3C894.4,225.4,895.4,225.4,896.2,225.7L896.2,225.7z"/>
	<rect x="877.1" y="198" transform="matrix(0.3029 -0.953 0.953 0.3029 422.0876 974.9667)" class="st20" width="0.7" height="2"/>
	<path class="st18" d="M873.4,212.1c-0.8-0.8-1.1-2-0.7-3.1c0.4-0.8,1.2-1.3,2.2-1.2l-0.1,0.9c-0.5-0.1-1,0.2-1.2,0.7
		c-0.3,0.7-0.1,1.5,0.4,2L873.4,212.1z"/>
	<path class="st4" d="M897,210c1,5.2-1.2,9.4-2.4,10.3c0,0,5.4-2.1,6.3-5.1c0,0,2.2,1.2,0.7,4c0,0,0.6,1.2,6-3.3
		c0,0-3.8-4.1-6.5-4.7C899.7,210.9,898.3,210.5,897,210z"/>
	<path class="st20" d="M894.6,220.8c-0.2,0-0.3-0.1-0.4-0.2c-0.1-0.2-0.1-0.5,0.1-0.6c1-0.8,3.2-4.8,2.2-9.8c0-0.2,0-0.3,0.2-0.5
		c0.1-0.1,0.3-0.1,0.5-0.1c1.3,0.5,2.6,0.9,4,1.1c2.7,0.6,6.5,4.7,6.7,4.8c0.1,0.1,0.1,0.2,0.1,0.4c0,0.1-0.1,0.2-0.2,0.3
		c-3.1,2.6-5.1,3.8-6.2,3.6c-0.2,0-0.4-0.2-0.6-0.4c-0.1-0.1-0.1-0.3,0-0.4c0.9-1.6,0.4-2.6,0-3c-1.4,2.9-6.1,4.7-6.3,4.8
		L894.6,220.8z M897.6,210.8c0.4,2.8-0.1,5.7-1.4,8.3c1.6-0.9,3.8-2.3,4.2-4c0-0.1,0.1-0.3,0.3-0.3c0.1-0.1,0.3-0.1,0.4,0
		c0.6,0.4,1.1,1,1.3,1.7c0.2,0.8,0.2,1.6-0.2,2.4c0.6-0.1,1.9-0.7,4.6-3c-1-1-3.9-3.8-5.9-4.2C899.8,211.4,898.7,211.1,897.6,210.8
		L897.6,210.8z"/>
	<path class="st18" d="M872.2,228.1c0.5,0,1-0.1,1.4-0.2c0.4-0.2,0.8-0.4,1.3-0.6c0.5-0.2,0.8-0.6,1.1-1.1c0.2-0.5,0.4-1,0.6-1.4
		l0.4-0.9l0.4,0.9c0.1,0.3,0.3,0.7,0.4,1c0.1,0.4,0.2,0.7,0.1,1.1c0,0.1,0,0.3-0.1,0.4c-0.1,0.2-0.3,0.4-0.5,0.4
		c-0.3,0-0.5-0.1-0.7-0.3c-0.3-0.2-0.5-0.5-0.6-0.9l0.1-0.1c0.3,0.1,0.6,0.3,0.9,0.4c0.1,0.1,0.3,0.1,0.2,0s-0.2,0.1-0.2,0.1
		c0,0,0-0.1,0-0.1c0-0.2-0.1-0.5-0.2-0.8l-0.2-0.9h0.8c-0.3,0.5-0.6,0.9-1.1,1.3c-0.4,0.4-0.7,0.8-1,1.3c-0.3,0.5-0.8,0.9-1.4,1
		C873.3,228.8,872.7,228.6,872.2,228.1L872.2,228.1z"/>
	<path class="st18" d="M883.6,262.1c-10.1-9.2-19.3-19.3-28.5-29.5c-4.5-5.1-9-10.2-13.7-15.2c-0.6-0.6-1.2-1.2-1.8-1.8l-1.8-1.8
		c-1.2-1.3-2.3-2.5-3.5-3.8c-2.3-2.6-4.5-5.2-6.7-7.8l-13.1-15.7l-6.6-7.9l-6.7-7.8c-2.2-2.6-4.5-5.1-6.8-7.6
		c-1.2-1.2-2.3-2.5-3.6-3.6c-0.3-0.3-0.6-0.6-0.9-0.8l-0.2-0.2l-0.2-0.1c-0.2-0.1-0.4-0.2-0.6-0.2c-0.8-0.3-1.6-0.6-2.4-1
		c-1.6-0.7-3.1-1.7-4.4-2.8c-1.4-1.1-2.5-2.5-3.2-4.2c-0.3-0.8-0.5-1.8-0.6-2.7c0-0.9,0.2-1.8,0.6-2.7c0.8-1.7,2.1-3,3.7-3.9
		l-0.2,0.9c-1.6-2-3.2-4-4.5-6.2c-0.7-1.1-1.3-2.2-1.9-3.4c-0.3-0.6-0.5-1.2-0.7-1.9c-0.2-0.7-0.3-1.5-0.2-2.2l0.1-0.4l0.4-0.1
		c0.6-0.2,1.2-0.2,1.7,0.1c0.4,0.2,0.9,0.4,1.3,0.6c0.7,0.5,1.4,1,2.1,1.5c1.3,1.1,2.4,2.3,3.6,3.5c2.2,2.4,4.3,4.9,6.3,7.6l0.1,0.2
		l0.3,0.4l0.4,0.5c0.2,0.3,0.5,0.7,0.8,1c0.6,0.7,1.1,1.3,1.7,2c1.1,1.3,2.3,2.6,3.5,3.9l7.1,7.8l14.3,15.6
		c4.7,5.2,9.4,10.5,14.1,15.8c2.3,2.7,4.6,5.3,6.9,8.1c1.1,1.4,2.2,2.7,3.3,4.1c1.1,1.4,2.2,2.9,3.1,4.5l-0.1-0.2l13.6,15.1
		c4.5,5.1,9,10.1,13.5,15.2l-0.2,0.1c-4.7-4.9-9.4-9.8-14.1-14.7l-14-14.8l0-0.1l-0.1-0.1c-0.9-1.4-1.9-2.8-3-4.1
		c-1.1-1.4-2.2-2.7-3.4-4c-2.3-2.7-4.6-5.3-7-7.9c-4.7-5.2-9.4-10.4-14.2-15.6c-4.7-5.2-9.5-10.4-14.2-15.6l-7-7.9
		c-1.2-1.3-2.3-2.7-3.5-4c-0.6-0.7-1.1-1.4-1.7-2.1c-0.3-0.4-0.6-0.7-0.8-1.1l-0.4-0.6c-0.1-0.2-0.3-0.5-0.4-0.7l0.1,0.2
		c-1.9-2.6-4-5.1-6.1-7.5c-1.1-1.2-2.2-2.3-3.4-3.4c-0.6-0.5-1.2-1-1.8-1.4c-0.3-0.2-0.6-0.4-0.9-0.5c-0.2-0.1-0.4-0.1-0.7-0.1
		l0.5-0.6c0,1.1,0.2,2.2,0.7,3.2c0.5,1.1,1.1,2.2,1.7,3.3c1.3,2.1,2.7,4.2,4.3,6.1l0.4,0.6l-0.6,0.3c-1.4,0.7-2.6,1.9-3.3,3.3
		c-0.3,0.7-0.5,1.5-0.5,2.3c0,0.8,0.1,1.6,0.4,2.3c0.6,1.5,1.6,2.9,2.9,3.9c1.3,1.1,2.7,2,4.2,2.7c0.7,0.4,1.5,0.7,2.3,1
		c0.2,0.1,0.4,0.1,0.6,0.2l0.3,0.2l0.3,0.2c0.4,0.3,0.7,0.6,1,0.9c1.2,1.2,2.4,2.4,3.6,3.7l6.9,7.6l27.1,30.7l6.8,7.7
		c1.1,1.3,2.3,2.5,3.4,3.7l1.8,1.8c0.6,0.6,1.2,1.2,1.8,1.9c4.6,5.1,9,10.3,13.5,15.4c8.9,10.3,17.9,20.6,27.4,30.4L883.6,262.1z"/>
	<path class="st18" d="M932.6,255.9c0.1,1.1,0.1,2.1,0.1,3.1c0,1,0,2.1-0.1,3.1c-0.4-1-0.6-2-0.6-3.1
		C931.9,257.9,932.1,256.9,932.6,255.9z"/>
	<path class="st20" d="M901.4,193.8c1.2,1.4,1.9,3.2,2,5.1v1.4c0,0.5-0.1,0.9-0.2,1.4s-0.1,0.9-0.1,1.4s0,0.9-0.1,1.4
		s-0.1,0.9-0.2,1.4s-0.2,0.9-0.3,1.3c-0.2,0.9-0.5,1.8-0.8,2.6c-0.7,1.7-1.6,3.3-2.7,4.7c0,0,0,0-0.1,0c0,0,0,0,0-0.1l1.9-5
		c0.6-1.7,1.2-3.3,1.7-5c0.1-0.4,0.2-0.9,0.3-1.3c0.1-0.4,0.1-0.9,0.1-1.3c0-0.9-0.1-1.8-0.3-2.6c-0.3-1.7-0.7-3.4-1.3-5.1
		L901.4,193.8z"/>
	<path class="st20" d="M906.3,196.1c1.2,1.4,1.9,3.2,2,5.1v1.4c0,0.4-0.1,0.9-0.1,1.4s-0.1,0.9-0.1,1.4s0,0.9-0.1,1.4
		s-0.1,0.9-0.2,1.4s-0.2,0.9-0.3,1.3c-0.2,0.9-0.5,1.8-0.8,2.6c-0.7,1.7-1.6,3.3-2.7,4.7 M903.9,216.6
		C903.9,216.6,903.9,216.6,903.9,216.6l1.9-5.1c0.6-1.6,1.2-3.3,1.7-5c0.1-0.4,0.2-0.9,0.3-1.3c0.1-0.4,0.1-0.9,0.1-1.3
		c0-0.9-0.1-1.8-0.3-2.6c-0.3-1.7-0.7-3.4-1.3-5.1 M906.3,196.1C906.3,196.1,906.3,196.1,906.3,196.1L906.3,196.1z"/>
	<path class="st18" d="M918.7,259c0.3,0.6,0.5,1.3,0.6,2c0.1,0.7,0.2,1.4,0.2,2.1c0,0.7,0,1.4-0.2,2.1c-0.1,0.7-0.4,1.4-0.7,2
		c0.1-0.7,0.2-1.3,0.2-2c0-0.7,0-1.3,0-2C918.9,261.7,918.7,260.4,918.7,259z"/>
	<path class="st18" d="M871.6,200.1c0.7-1.4,1.1-2.1,1.1-2.1s35.7,10.9,37.8,21c-8.9-11.9-40.5-15.3-40.5-15.3
		S871.2,200.9,871.6,200.1z"/>
	<path class="st20" d="M882,176.8c2.2-0.1,4.3,0,6.4,0.5c2.1,0.5,4.1,1.5,5.9,2.7c1.7,1.3,3.5,2.4,5.4,3.3c2,0.8,4.1,1.2,6.2,1.1
		c2.1-0.2,4.2-0.6,6.2-1.2c2-0.7,4.2-1.2,6.3-1.5c2.2-0.2,4.4,0.1,6.5,1c1.9,0.9,3.7,2.2,5.2,3.8 M930,186.5
		C930,186.5,930,186.5,930,186.5c-1.7-1.3-3.6-2.3-5.5-3.1c-1.9-0.7-4-1-6.1-0.7c-4.1,0.4-8.2,2.4-12.6,2.2
		c-2.2-0.1-4.3-0.5-6.3-1.3c-2-0.8-3.9-1.8-5.7-2.9c-1.8-1.1-3.7-2-5.7-2.6c-2-0.6-4.1-1-6.2-1.1l0,0c0,0,0,0,0-0.1L930,186.5z"/>
	<path class="st20" d="M892.8,251.4c-0.1-0.7-0.3-1.4-0.3-2.1s-0.1-1.4-0.1-2.1c0-0.7,0-1.4,0.1-2.1c0.1-0.7,0.2-1.4,0.4-2.1
		c0.4-1.4,0.9-2.7,1.6-3.9c0.6-1.3,1.4-2.5,2.4-3.6l0.2,0.4c-1.1,0.3-2.1,0.8-3.1,1.4c-0.9,0.5-1.7,1.2-2.1,2.2l0,0
		c-0.1,0.3-0.4,0.4-0.6,0.3c-0.2-0.1-0.3-0.2-0.3-0.4c-0.1-1,0-2,0.3-3c0.3-0.9,0.8-1.8,1.4-2.6c0.6-0.8,1.2-1.5,2-2.1
		c0.4-0.3,0.8-0.6,1.2-0.8s0.8-0.5,1.2-0.7c0,0,0.1,0,0.1,0c0,0,0,0,0,0.1l-1.1,0.9c-0.3,0.3-0.7,0.6-1,0.9
		c-0.6,0.7-1.2,1.4-1.7,2.1c-0.5,0.8-0.8,1.6-1.1,2.4c-0.3,0.8-0.4,1.7-0.3,2.5h-0.9c0.2-0.6,0.6-1.2,1.1-1.6c0.5-0.4,1-0.7,1.5-1
		c1.1-0.5,2.2-0.9,3.4-1.1l0,0c0.1,0,0.2,0.1,0.3,0.2c0,0.1,0,0.2-0.1,0.2c-1,0.9-1.8,2.1-2.4,3.4c-0.5,1.3-0.9,2.6-1.1,4
		c-0.3,1.4-0.5,2.7-0.6,4.1c-0.1,0.7-0.1,1.4-0.1,2.1s0,1.4,0,2.1L892.8,251.4z"/>
	<path class="st20" d="M910.4,265.4c-0.8-1.1-1.5-2.2-2.2-3.4c-0.7-1.2-1.3-2.4-1.8-3.6c-1-2.5-1.8-5.1-2.7-7.5
		c-0.5-1.3-0.8-2.6-1.1-3.9l-0.2-1l-0.1-1c-0.1-0.7-0.1-1.3-0.1-2v-1c0-0.4,0.1-0.7,0.1-1c0.1-0.7,0.2-1.3,0.4-2
		c0.3-1.3,1-2.6,1.9-3.6c0,0,0,0,0.1,0l0,0l0,0c-1.2,2.3-1.7,4.9-1.5,7.5c0.1,2.6,0.4,5.2,1,7.8c0.3,1.3,0.7,2.6,1.2,3.8
		c0.3,0.6,0.6,1.2,0.9,1.8c0.3,0.6,0.6,1.2,0.9,1.8c0.6,1.2,1.1,2.4,1.7,3.6S910,264.1,910.4,265.4
		C910.5,265.3,910.5,265.4,910.4,265.4C910.5,265.4,910.4,265.4,910.4,265.4z"/>
	<path class="st20" d="M916.5,265.3c-0.4-0.9-0.8-1.8-1.2-2.7c-0.3-0.9-0.6-1.9-0.8-2.8c-0.9-3.9-0.9-7.9-0.1-11.8
		c0.4-1.9,1.1-3.8,2.1-5.5c-0.6,1.8-1.1,3.7-1.3,5.6c-0.6,3.8-0.6,7.7,0.1,11.5C915.6,261.5,916,263.5,916.5,265.3z"/>
	<path class="st20" d="M938.6,193.8c2.7,0.2,5.3,1.3,7.4,3.1c0.5,0.4,1,0.9,1.4,1.5l0.7,0.8l0.6,0.8l0.6,0.8l0.5,0.9
		c0.4,0.6,0.7,1.1,1,1.7c1.3,2.4,2,5,2.2,7.7c0.2,2.7,0,5.4-0.7,8 M952.1,218.9L952.1,218.9c0.1-2.6,0.1-5.2-0.2-7.9
		c-0.2-2.6-0.8-5.1-1.7-7.6c-0.2-0.6-0.5-1.2-0.8-1.8l-0.5-0.9c-0.2-0.3-0.4-0.5-0.6-0.8s-0.4-0.5-0.6-0.8l-0.7-0.7
		c-0.5-0.4-1-0.9-1.5-1.2c-2.1-1.6-4.4-2.8-6.9-3.6c0,0,0,0,0-0.1c0,0,0,0,0-0.1c0,0,0,0,0,0L952.1,218.9z"/>
	<path class="st20" d="M939.5,224.7c0.7-2.2,1.4-4.4,2-6.6c0.3-1.1,0.6-2.2,0.7-3.4c0.1-0.6,0.1-1.2,0.1-1.7c0-0.6,0-1.2-0.1-1.7
		c-0.3-2.3-0.8-4.5-1.5-6.7c-0.6-2.2-1.5-4.4-2.2-6.6 M938.6,197.9c1.2,2,2.2,4.1,3,6.3c0.7,2.3,1.1,4.6,1.1,7v0.8v0.9
		c0,0.6,0,1.2-0.1,1.8s0,1.2-0.1,1.8s-0.1,1.2-0.2,1.8c-0.5,2.3-1.4,4.5-2.7,6.5 M939.6,224.7C939.6,224.7,939.5,224.7,939.6,224.7
		L939.6,224.7z"/>
	<path class="st20" d="M923.6,261.9c0.9-2.4,2-4.8,3.1-7.1c0.6-1.1,1.3-2.3,1.8-3.4c0.5-1.2,1-2.4,1.4-3.6l2.3-7.4
		c0.8-2.4,1.5-4.9,2.4-7.4 M934.6,233.1C934.7,233.1,934.7,233.1,934.6,233.1c-0.3,2.6-0.8,5.2-1.5,7.7c-0.8,2.5-1.7,4.9-2.8,7.3
		c-0.5,1.2-1.1,2.4-1.6,3.5s-0.9,2.4-1.4,3.6c-1,2.4-2.3,4.7-3.8,6.8L934.6,233.1z"/>
	<path class="st20" d="M878.8,170.1c-0.6,2.8-0.9,5.8-0.9,8.7c0,1.5,0.1,2.9,0.4,4.3c0.4,1.4,1,2.7,1.8,3.9c1.7,2.3,4,4.2,6.6,5.4
		c2.6,1.2,5.4,2.2,8.2,2.8 M894.9,195.3L894.9,195.3c-3-0.1-6-0.7-8.7-2c-0.7-0.3-1.4-0.7-2-1.1c-0.6-0.4-1.2-0.9-1.8-1.4
		c-1.1-1-2.1-2.2-2.8-3.5c-0.7-1.3-1.3-2.7-1.7-4.1c-0.5-1.4-0.8-2.9-0.9-4.4c-0.2-3,0.4-6,1.6-8.7L894.9,195.3z"/>
	<path class="st4" d="M916.1,229.7c13.1-8.9,11.2-31.9,7.9-34.8"/>
	<path class="st20" d="M916,229.7c2.4-2.1,4.4-4.5,6-7.2c0.8-1.3,1.6-2.8,2.2-4.2c0.5-1.5,0.9-3.1,1.1-4.6c0.4-3.1,0.6-6.3,0.4-9.5
		c0-1.6-0.2-3.2-0.4-4.7c-0.1-0.8-0.3-1.6-0.5-2.3c-0.2-0.8-0.5-1.5-1-2.1l0,0c0,0,0,0,0-0.1 M923.9,194.9c0.6,0.6,1.1,1.2,1.4,2
		c0.3,0.8,0.6,1.5,0.8,2.3c0.4,1.6,0.6,3.2,0.7,4.8c0.2,3.2-0.2,6.5-0.9,9.6c-0.4,1.6-0.8,3.1-1.3,4.6c-0.5,1.5-1.1,3.1-1.8,4.5
		c-1.5,2.9-3.8,5.3-6.7,6.9 M916,229.8C916,229.8,916,229.7,916,229.8L916,229.8z"/>
	<path class="st4" d="M922.1,253.9c-0.4-14.9-0.1-19.4,6.3-25.6s8.4-25.4,5.2-30.4"/>
	<path class="st20" d="M922.1,253.9c-0.2-2.5-0.4-5-0.4-7.4c-0.1-2.5,0.1-5,0.5-7.5c0.2-1.2,0.6-2.4,1.1-3.6
		c0.5-1.2,1.1-2.3,1.8-3.3c0.7-1,1.5-2,2.4-2.9c0.4-0.4,0.9-0.9,1.3-1.4c0.4-0.5,0.8-0.9,1.1-1.4c2.6-4.2,3.7-9.1,4.4-13.9
		c0.4-2.4,0.6-4.9,0.6-7.3c0-1.2-0.1-2.4-0.2-3.7c-0.1-1.2-0.5-2.4-1-3.5l0,0c0,0,0,0,0-0.1 M933.6,197.9c0.3,0.5,0.6,1.1,0.8,1.7
		c0.1,0.3,0.2,0.6,0.3,0.9l0.2,0.9c0.1,0.6,0.2,1.2,0.3,1.9c0.1,0.6,0.1,1.2,0.2,1.9c0.1,2.5,0,5-0.3,7.5c-0.4,2.5-0.9,4.9-1.7,7.3
		c-0.7,2.4-1.9,4.7-3.3,6.7c-0.8,1-1.6,1.9-2.5,2.8c-0.4,0.4-0.8,0.9-1.2,1.4c-0.4,0.5-0.8,1-1.1,1.5c-1.3,2.1-2.1,4.4-2.4,6.9
		c-0.7,4.9-0.5,9.8-0.7,14.8l0,0c0,0,0,0,0,0L933.6,197.9z"/>
	<path class="st20" d="M880.7,176.9c2.4,3.4,5.4,6.4,8.7,8.9c1.7,1.2,3.5,2.2,5.5,2.9c2,0.6,4.1,0.9,6.2,0.8
		c2.1-0.1,4.1-0.4,6.2-0.9c1-0.2,2-0.5,3-0.9c1-0.4,2.1-0.6,3.1-0.8c2.1-0.3,4.3-0.2,6.4,0.2c1.1,0.2,2.1,0.6,3.1,1
		c0.5,0.2,1,0.5,1.4,0.8c0.5,0.3,0.8,0.7,1,1.2v0.1l0,0l0,0c-0.2-0.4-0.6-0.8-1.1-1c-0.5-0.2-0.9-0.4-1.4-0.6c-1-0.3-2-0.6-3-0.7
		c-2-0.3-4.1-0.3-6.2,0c-1,0.2-2,0.4-3,0.8c-1,0.3-2,0.6-3.1,0.8c-2.1,0.5-4.2,0.6-6.4,0.6c-2.1-0.1-4.2-0.4-6.3-1
		c-2.1-0.6-4-1.4-5.9-2.5C885.5,184,882.6,180.7,880.7,176.9 M880.7,176.9C880.7,176.9,880.7,176.9,880.7,176.9L880.7,176.9z"/>
	<path class="st20" d="M950.9,251.4c-1.4-0.7-2.6-1.8-3.6-3c-0.5-0.6-0.8-1.3-1.3-2s-0.9-1.3-1.3-2c-0.4-0.7-0.8-1.4-1-2.1
		c-0.1-0.4-0.2-0.8-0.3-1.2c-0.1-0.4-0.1-0.8-0.1-1.2c0-1.6,0.3-3.2,1.1-4.6 M944.4,235.3C944.4,235.3,944.4,235.3,944.4,235.3
		c-0.2,1.6-0.3,3.1-0.2,4.6c0.1,1.5,0.5,3,1,4.3c0.2,0.4,0.3,0.7,0.5,1s0.4,0.6,0.6,1c0.5,0.6,1,1.1,1.6,1.6
		c0.5,0.5,1.1,1.1,1.6,1.7c0.5,0.6,1,1.2,1.5,1.8c0,0,0,0,0,0.1L944.4,235.3z"/>
	<path class="st4" d="M936.8,237.5c1.9,7.7-0.7,18.8-0.7,18.8"/>
	<path class="st20" d="M936.9,237.5c0.7,1.5,1,3.1,1,4.7c0,0.8-0.1,1.6-0.2,2.4c0,0.8,0,1.6,0,2.4c0.1,0.8,0.1,1.6,0,2.4
		c0,0.8-0.1,1.6-0.2,2.4c-0.2,1.6-0.7,3.1-1.3,4.6c0,0,0,0-0.1,0c0,0,0,0,0,0c0-1.6,0.2-3.2,0.4-4.7s0.4-3.1,0.7-4.6
		c0.1-0.8,0.2-1.6,0.2-2.4c-0.1-0.8-0.1-1.6-0.3-2.3C936.9,240.6,936.9,239.1,936.9,237.5C936.8,237.5,936.8,237.5,936.9,237.5
		C936.8,237.5,936.9,237.5,936.9,237.5z"/>
	<path class="st19" d="M887.6,242.5c-10.9,1.3-8.5,2-8.1,5s10.7,2.9,10.7,2.9L887.6,242.5z"/>
	<path class="st22" d="M1085.2,344.4c7.3,5.2,13.8,11.5,20,17.7c4,3.9,8,7.9,12.3,11.6c13.6,11.8,26.9,17.7,39.4,17.4
		c8.4-0.3,16.6-3,23.6-7.7c5.1-3.3,8.8-6.9,11-11c1.4-2.4,2.2-5,2.5-7.7c0.8-0.5,1.5-0.9,2.2-1.3c19.3-12.8,30.8-34.6,30.4-57.7h-1
		c0.3,22.8-11,44.2-30,56.8c-0.5,0.3-1,0.6-1.5,0.9c0.1-2.2-0.2-4.3-1-6.4c-2-5.3-7.3-8.9-12.5-8.4c-2.9,0.3-5.6,1.8-7.3,4.1
		c-1.6,2-2.3,4.6-1.8,7.1c1,5.2,6.5,8.1,11.1,8.2c3.6-0.1,7.1-1,10.2-2.8c-0.4,2.3-1.1,4.5-2.3,6.6c-2.2,3.9-5.7,7.4-10.7,10.6
		c-6.8,4.6-14.8,7.2-23,7.5c-12.3,0.3-25.3-5.5-38.7-17.1c-4.2-3.7-8.3-7.7-12.3-11.5c-6.3-6.2-12.8-12.6-20.2-17.8
		c-1.2-0.9-2.5-1.7-3.7-2.5c-0.2,0.3-0.4,0.6-0.5,0.9C1082.7,342.7,1084,343.5,1085.2,344.4z M1193.1,364.1c-3.1,1.9-6.7,2.9-10.4,3
		c-4.2-0.1-9.2-2.7-10.1-7.4c-0.4-2.2,0.2-4.5,1.6-6.3c1.6-2.1,3.9-3.5,6.6-3.7c4.7-0.4,9.6,3,11.4,7.8
		C1193,359.6,1193.3,361.8,1193.1,364.1z"/>
	<path class="st22" d="M1246,274.2c-0.4-16.2-9.8-26.3-21.2-26s-20.3,10.8-19.9,27c0,1.1,0.2,5.7,0.3,9c0,0.7,0.1,1.3,0.1,1.9
		c0,0.7,0.1,1.3,0.1,1.6c1.9,13.7,9.7,18.3,19.3,19.2c0.5,0.1,1,0.1,1.5,0.1c0.5,0,1-0.1,1.5-0.1c9.5-1.4,17.1-6.4,18.3-20.1
		c0-0.3,0-0.9,0.1-1.6c0-0.5,0-1.2,0-1.9C1246.1,279.9,1246,275.3,1246,274.2z"/>
	
		<rect x="1225" y="282.6" transform="matrix(0.9997 -2.408322e-02 2.408322e-02 0.9997 -6.7429 29.6096)" class="st22" width="1.8" height="24.3"/>
	<path class="st22" d="M1224.3,287.5l3-0.1c0.7,0,1.3,0.5,1.3,1.3l0.2,7.3c0,0.7-0.5,1.3-1.3,1.3l-3,0.1c-0.7,0-1.3-0.5-1.3-1.3
		l-0.2-7.3C1223,288.1,1223.6,287.5,1224.3,287.5z"/>
	<path class="st22" d="M1246.1,283.2c-13.5-2.3-27.4-2-40.8,1c0,0.7,0.1,1.3,0.1,1.9c13.4-3,27.2-3.4,40.7-1
		C1246.1,284.6,1246.1,283.9,1246.1,283.2z"/>
</g>
</svg>
